<svg version="1.1" xmlns="http://www.w3.org/2000/svg" width="600" height="600"><defs><clipPath id="eTLsyTvwIkPf"><path fill="none" stroke="none" d="M 6.5 5.5 L 595.5 5.5 L 595.5 594.5 L 6.5 594.5 L 6.5 5.5"/></clipPath><clipPath id="aHFgpDvKVRPs"><path fill="none" stroke="none" d="M 6.5 5.5 L 595.5 5.5 L 595.5 594.5 L 6.5 594.5 L 6.5 5.5"/></clipPath><clipPath id="sUegFkEZzzMv"><path fill="none" stroke="none" d="M 6.5 5.5 L 595.5 5.5 L 595.5 594.5 L 6.5 594.5 L 6.5 5.5"/></clipPath><clipPath id="EvnbMGmmWEDu"><path fill="none" stroke="none" d="M 6.5 5.5 L 595.5 5.5 L 595.5 594.5 L 6.5 594.5 L 6.5 5.5"/></clipPath><clipPath id="TCAgBDKbQVhw"><path fill="none" stroke="none" d="M 6.5 5.5 L 595.5 5.5 L 595.5 594.5 L 6.5 594.5 L 6.5 5.5"/></clipPath><clipPath id="wRrWqRGAQxtt"><path fill="none" stroke="none" d="M 6.5 5.5 L 595.5 5.5 L 595.5 594.5 L 6.5 594.5 L 6.5 5.5"/></clipPath><clipPath id="FTHDMWfBsWaw"><path fill="none" stroke="none" d="M 6.5 5.5 L 595.5 5.5 L 595.5 594.5 L 6.5 594.5 L 6.5 5.5"/></clipPath><clipPath id="tdmlkWlBTDEJ"><path fill="none" stroke="none" d="M 6.5 5.5 L 595.5 5.5 L 595.5 594.5 L 6.5 594.5 L 6.5 5.5"/></clipPath><clipPath id="pcokgZOwaDSH"><path fill="none" stroke="none" d="M 6.5 5.5 L 595.5 5.5 L 595.5 594.5 L 6.5 594.5 L 6.5 5.5"/></clipPath><clipPath id="ErWnbPKCICFO"><path fill="none" stroke="none" d="M 6.5 5.5 L 595.5 5.5 L 595.5 594.5 L 6.5 594.5 L 6.5 5.5"/></clipPath><clipPath id="axNucDUyQlqI"><path fill="none" stroke="none" d="M 6.5 5.5 L 595.5 5.5 L 595.5 594.5 L 6.5 594.5 L 6.5 5.5"/></clipPath><clipPath id="XCsfIxXVlurb"><path fill="none" stroke="none" d="M 6.5 5.5 L 595.5 5.5 L 595.5 594.5 L 6.5 594.5 L 6.5 5.5"/></clipPath><clipPath id="zXWOAduXNVrp"><path fill="none" stroke="none" d="M 6.5 5.5 L 595.5 5.5 L 595.5 594.5 L 6.5 594.5 L 6.5 5.5"/></clipPath><clipPath id="TOAkuHBWwbQB"><path fill="none" stroke="none" d="M 6.5 5.5 L 595.5 5.5 L 595.5 594.5 L 6.5 594.5 L 6.5 5.5"/></clipPath><clipPath id="FtdnGUFRrckA"><path fill="none" stroke="none" d="M 6.5 5.5 L 595.5 5.5 L 595.5 594.5 L 6.5 594.5 L 6.5 5.5"/></clipPath><clipPath id="pouRbcDITzdB"><path fill="none" stroke="none" d="M 6.5 5.5 L 595.5 5.5 L 595.5 594.5 L 6.5 594.5 L 6.5 5.5"/></clipPath><clipPath id="BzBAwSbWTqOv"><path fill="none" stroke="none" d="M 6.5 5.5 L 595.5 5.5 L 595.5 594.5 L 6.5 594.5 L 6.5 5.5"/></clipPath><clipPath id="xZeZyFmAAMua"><path fill="none" stroke="none" d="M 6.5 5.5 L 595.5 5.5 L 595.5 594.5 L 6.5 594.5 L 6.5 5.5"/></clipPath><clipPath id="zOfePvVxDqJO"><path fill="none" stroke="none" d="M 6.5 5.5 L 595.5 5.5 L 595.5 594.5 L 6.5 594.5 L 6.5 5.5"/></clipPath><clipPath id="znfxGUvichXo"><path fill="none" stroke="none" d="M 6.5 5.5 L 595.5 5.5 L 595.5 594.5 L 6.5 594.5 L 6.5 5.5"/></clipPath><clipPath id="bzDegXvbxbvt"><path fill="none" stroke="none" d="M 6.5 5.5 L 595.5 5.5 L 595.5 594.5 L 6.5 594.5 L 6.5 5.5"/></clipPath><clipPath id="SEFlbfnuZyRB"><path fill="none" stroke="none" d="M 6.5 5.5 L 595.5 5.5 L 595.5 594.5 L 6.5 594.5 L 6.5 5.5"/></clipPath><clipPath id="MylfFkCiTKLF"><path fill="none" stroke="none" d="M 6.5 5.5 L 595.5 5.5 L 595.5 594.5 L 6.5 594.5 L 6.5 5.5"/></clipPath><clipPath id="vqrMzGayQEFE"><path fill="none" stroke="none" d="M 6.5 5.5 L 595.5 5.5 L 595.5 594.5 L 6.5 594.5 L 6.5 5.5"/></clipPath><clipPath id="ETbeFbmABxcw"><path fill="none" stroke="none" d="M 6.5 5.5 L 595.5 5.5 L 595.5 594.5 L 6.5 594.5 L 6.5 5.5"/></clipPath><clipPath id="uABfMuLDngax"><path fill="none" stroke="none" d="M 6.5 5.5 L 595.5 5.5 L 595.5 594.5 L 6.5 594.5 L 6.5 5.5"/></clipPath><clipPath id="dyGnWJCeEnfJ"><path fill="none" stroke="none" d="M 6.5 5.5 L 595.5 5.5 L 595.5 594.5 L 6.5 594.5 L 6.5 5.5"/></clipPath><clipPath id="igOrbysdAXre"><path fill="none" stroke="none" d="M 6.5 5.5 L 595.5 5.5 L 595.5 594.5 L 6.5 594.5 L 6.5 5.5"/></clipPath><clipPath id="SBxHJcHByHVy"><path fill="none" stroke="none" d="M 6.5 5.5 L 595.5 5.5 L 595.5 594.5 L 6.5 594.5 L 6.5 5.5"/></clipPath><clipPath id="OKTTtaGAZhGL"><path fill="none" stroke="none" d="M 6.5 5.5 L 595.5 5.5 L 595.5 594.5 L 6.5 594.5 L 6.5 5.5"/></clipPath><clipPath id="XvuzzrKqsDtt"><path fill="none" stroke="none" d="M 6.5 5.5 L 595.5 5.5 L 595.5 594.5 L 6.5 594.5 L 6.5 5.5"/></clipPath><clipPath id="wQKRTUZtnuIa"><path fill="none" stroke="none" d="M 6.5 5.5 L 595.5 5.5 L 595.5 594.5 L 6.5 594.5 L 6.5 5.5"/></clipPath><clipPath id="cTzMZbpzIZpO"><path fill="none" stroke="none" d="M 6.5 5.5 L 595.5 5.5 L 595.5 594.5 L 6.5 594.5 L 6.5 5.5"/></clipPath><clipPath id="WxnKddBazzkH"><path fill="none" stroke="none" d="M 6.5 5.5 L 595.5 5.5 L 595.5 594.5 L 6.5 594.5 L 6.5 5.5"/></clipPath><clipPath id="lFzeNlwEhzJL"><path fill="none" stroke="none" d="M 6.5 5.5 L 595.5 5.5 L 595.5 594.5 L 6.5 594.5 L 6.5 5.5"/></clipPath><clipPath id="FpQruVckEuOp"><path fill="none" stroke="none" d="M 6.5 5.5 L 595.5 5.5 L 595.5 594.5 L 6.5 594.5 L 6.5 5.5"/></clipPath><clipPath id="kaPAQDrgDMnN"><path fill="none" stroke="none" d="M 6.5 5.5 L 595.5 5.5 L 595.5 594.5 L 6.5 594.5 L 6.5 5.5"/></clipPath><clipPath id="hQLKKWBbFRkv"><path fill="none" stroke="none" d="M 6.5 5.5 L 595.5 5.5 L 595.5 594.5 L 6.5 594.5 L 6.5 5.5"/></clipPath><clipPath id="tBwudTKVkqPN"><path fill="none" stroke="none" d="M 6.5 5.5 L 595.5 5.5 L 595.5 594.5 L 6.5 594.5 L 6.5 5.5"/></clipPath><clipPath id="ITQTgCqmVTsz"><path fill="none" stroke="none" d="M 6.5 5.5 L 595.5 5.5 L 595.5 594.5 L 6.5 594.5 L 6.5 5.5"/></clipPath><clipPath id="pGIOGZhkMuvr"><path fill="none" stroke="none" d="M 6.5 5.5 L 595.5 5.5 L 595.5 594.5 L 6.5 594.5 L 6.5 5.5"/></clipPath><clipPath id="TRXeyOmvMnmM"><path fill="none" stroke="none" d="M 6.5 5.5 L 595.5 5.5 L 595.5 594.5 L 6.5 594.5 L 6.5 5.5"/></clipPath><clipPath id="qvKDwwufTbZg"><path fill="none" stroke="none" d="M 6.5 5.5 L 595.5 5.5 L 595.5 594.5 L 6.5 594.5 L 6.5 5.5"/></clipPath><clipPath id="UBhvUPTSTuIC"><path fill="none" stroke="none" d="M 6.5 5.5 L 595.5 5.5 L 595.5 594.5 L 6.5 594.5 L 6.5 5.5"/></clipPath><clipPath id="aHQXEQIkycHz"><path fill="none" stroke="none" d="M 6.5 5.5 L 595.5 5.5 L 595.5 594.5 L 6.5 594.5 L 6.5 5.5"/></clipPath><clipPath id="CEFhFDOSHvPT"><path fill="none" stroke="none" d="M 6.5 5.5 L 595.5 5.5 L 595.5 594.5 L 6.5 594.5 L 6.5 5.5"/></clipPath><clipPath id="MKalXTfFMlKv"><path fill="none" stroke="none" d="M 6.5 5.5 L 595.5 5.5 L 595.5 594.5 L 6.5 594.5 L 6.5 5.5"/></clipPath><clipPath id="mRJWdCkimgiE"><path fill="none" stroke="none" d="M 6.5 5.5 L 595.5 5.5 L 595.5 594.5 L 6.5 594.5 L 6.5 5.5"/></clipPath><clipPath id="qdCqAnsudOfM"><path fill="none" stroke="none" d="M 6.5 5.5 L 595.5 5.5 L 595.5 594.5 L 6.5 594.5 L 6.5 5.5"/></clipPath><clipPath id="eMwiTPnIqEMB"><path fill="none" stroke="none" d="M 6.5 5.5 L 595.5 5.5 L 595.5 594.5 L 6.5 594.5 L 6.5 5.5"/></clipPath></defs><path fill="rgb(255,255,255)" stroke="none" paint-order="stroke" d="M 0.5 0.5 L 600.5 0.5 L 600.5 600.5 L 0.5 600.5 L 0.5 0.5" fill-opacity="1"/><rect fill="#FFFFFF" stroke="none" x="6" y="5" width="589" height="589" transform="matrix(1, 0, 0, 1, 0.5, 0.5)"/><path fill="rgb(255,255,255)" stroke="none" paint-order="stroke" d="M 6.5 5.5 L 595.5 5.5 L 595.5 594.5 L 6.5 594.5 L 6.5 5.5" fill-opacity="1"/><path fill="none" stroke="rgb(0,0,0)" paint-order="fill" d="M 6.5 5.5 L 595.5 5.5 L 595.5 594.5 L 6.5 594.5 L 6.5 5.5" stroke-opacity="1" stroke-linejoin="bevel" stroke-miterlimit="10" stroke-dasharray=""/><path fill="none" stroke="rgb(0,0,0)" paint-order="fill" d="M 33.272727966308594 327.06097412109375 L 63.02020263671875 179.83299255371094 L 92.7676773071289 213.36746215820312 L 122.51515197753906 207.18020629882812 L 152.2626190185547 207.13616943359375 L 182.01010131835938 99.89413452148438 L 211.757568359375 45.205204010009766 L 241.5050506591797 35.68212127685547 L 271.2525329589844 33.61236572265625 L 301 35.31881332397461 L 330.7474670410156 154.9353485107422 L 360.4949645996094 203.02967834472656 L 390.242431640625 259.5296325683594 L 419.9898986816406 358.7789001464844 L 449.73736572265625 339.50152587890625 L 479.48486328125 350.5218811035156 L 509.2323303222656 203.69024658203125 L 538.9797973632812 213.36746215820312 L 568.727294921875 179.83299255371094" stroke-opacity="0.14901960784313725" stroke-linejoin="bevel" stroke-miterlimit="10" stroke-width="2" stroke-dasharray="" clip-path="url(#sUegFkEZzzMv)"/><path fill="none" stroke="rgb(0,0,0)" paint-order="fill" d="M 33.272727966308594 327.06097412109375 L 63.02020263671875 179.83299255371094 L 92.7676773071289 213.36746215820312 L 122.51515197753906 207.18020629882812 L 152.2626190185547 207.13616943359375 L 182.01010131835938 99.89413452148438 L 211.757568359375 45.205204010009766 L 241.5050506591797 35.68212127685547 L 271.2525329589844 33.61236572265625 L 301 35.31881332397461 L 330.7474670410156 35.31881332397461 L 360.4949645996094 33.61236572265625 L 390.242431640625 35.68212127685547 L 419.9898986816406 43.173980712890625 L 449.73736572265625 55.44389724731445 L 479.48486328125 49.74105453491211 L 509.2323303222656 44.77033615112305 L 538.9797973632812 44.77033615112305 L 568.727294921875 49.74105453491211" stroke-opacity="0.14901960784313725" stroke-linejoin="bevel" stroke-miterlimit="10" stroke-width="2" stroke-dasharray="" clip-path="url(#EvnbMGmmWEDu)"/><path fill="none" stroke="rgb(0,0,0)" paint-order="fill" d="M 33.272727966308594 327.06097412109375 L 63.02020263671875 179.83299255371094 L 92.7676773071289 213.36746215820312 L 122.51515197753906 207.18020629882812 L 152.2626190185547 207.13616943359375 L 182.01010131835938 99.89413452148438 L 211.757568359375 45.205204010009766 L 241.5050506591797 35.68212127685547 L 271.2525329589844 33.61236572265625 L 301 35.31881332397461 L 330.7474670410156 35.31881332397461 L 360.4949645996094 33.61236572265625 L 390.242431640625 35.68212127685547 L 419.9898986816406 42.22167205810547 L 449.73736572265625 108.0135269165039 L 479.48486328125 262.5296936035156 L 509.2323303222656 219.26296997070312 L 538.9797973632812 231.0264434814453 L 568.727294921875 273.2087707519531" stroke-opacity="0.14901960784313725" stroke-linejoin="bevel" stroke-miterlimit="10" stroke-width="2" stroke-dasharray="" clip-path="url(#TCAgBDKbQVhw)"/><path fill="none" stroke="rgb(0,0,0)" paint-order="fill" d="M 33.272727966308594 327.06097412109375 L 63.02020263671875 205.6444091796875 L 92.7676773071289 216.54916381835938 L 122.51515197753906 227.4649200439453 L 152.2626190185547 229.82643127441406 L 182.01010131835938 117.64669799804688 L 211.757568359375 59.84763717651367 L 241.5050506591797 36.99223327636719 L 271.2525329589844 33.61236572265625 L 301 35.31881332397461 L 330.7474670410156 35.31881332397461 L 360.4949645996094 33.61236572265625 L 390.242431640625 35.68212127685547 L 419.9898986816406 45.205204010009766 L 449.73736572265625 99.89413452148438 L 479.48486328125 207.13616943359375 L 509.2323303222656 207.18020629882812 L 538.9797973632812 213.36746215820312 L 568.727294921875 179.83299255371094" stroke-opacity="0.14901960784313725" stroke-linejoin="bevel" stroke-miterlimit="10" stroke-width="2" stroke-dasharray="" clip-path="url(#wRrWqRGAQxtt)"/><path fill="none" stroke="rgb(0,0,0)" paint-order="fill" d="M 33.272727966308594 327.06097412109375 L 63.02020263671875 179.83299255371094 L 92.7676773071289 213.36746215820312 L 122.51515197753906 143.4305877685547 L 152.2626190185547 89.85360717773438 L 182.01010131835938 114.9273910522461 L 211.757568359375 100.7968978881836 L 241.5050506591797 82.75808715820312 L 271.2525329589844 69.70099639892578 L 301 71.00560760498047 L 330.7474670410156 35.31881332397461 L 360.4949645996094 33.61236572265625 L 390.242431640625 35.68212127685547 L 419.9898986816406 45.205204010009766 L 449.73736572265625 99.89413452148438 L 479.48486328125 207.13616943359375 L 509.2323303222656 207.18020629882812 L 538.9797973632812 213.36746215820312 L 568.727294921875 179.83299255371094" stroke-opacity="0.14901960784313725" stroke-linejoin="bevel" stroke-miterlimit="10" stroke-width="2" stroke-dasharray="" clip-path="url(#FTHDMWfBsWaw)"/><path fill="none" stroke="rgb(0,0,0)" paint-order="fill" d="M 33.272727966308594 327.06097412109375 L 63.02020263671875 179.83299255371094 L 92.7676773071289 213.36746215820312 L 122.51515197753906 207.18020629882812 L 152.2626190185547 207.13616943359375 L 182.01010131835938 99.89413452148438 L 211.757568359375 45.205204010009766 L 241.5050506591797 35.68212127685547 L 271.2525329589844 33.61236572265625 L 301 35.31881332397461 L 330.7474670410156 35.31881332397461 L 360.4949645996094 49.35572814941406 L 390.242431640625 81.11219024658203 L 419.9898986816406 117.134765625 L 449.73736572265625 173.6127166748047 L 479.48486328125 200.51954650878906 L 509.2323303222656 221.50335693359375 L 538.9797973632812 209.66831970214844 L 568.727294921875 179.83299255371094" stroke-opacity="0.14901960784313725" stroke-linejoin="bevel" stroke-miterlimit="10" stroke-width="2" stroke-dasharray="" clip-path="url(#tdmlkWlBTDEJ)"/><path fill="none" stroke="rgb(0,0,0)" paint-order="fill" d="M 33.272727966308594 327.06097412109375 L 63.02020263671875 179.83299255371094 L 92.7676773071289 213.36746215820312 L 122.51515197753906 207.18020629882812 L 152.2626190185547 207.13616943359375 L 182.01010131835938 99.89413452148438 L 211.757568359375 45.205204010009766 L 241.5050506591797 35.68212127685547 L 271.2525329589844 33.61236572265625 L 301 35.31881332397461 L 330.7474670410156 71.00560760498047 L 360.4949645996094 69.70099639892578 L 390.242431640625 82.75808715820312 L 419.9898986816406 100.7968978881836 L 449.73736572265625 114.9273910522461 L 479.48486328125 89.85360717773438 L 509.2323303222656 143.4305877685547 L 538.9797973632812 213.36746215820312 L 568.727294921875 179.83299255371094" stroke-opacity="0.14901960784313725" stroke-linejoin="bevel" stroke-miterlimit="10" stroke-width="2" stroke-dasharray="" clip-path="url(#pcokgZOwaDSH)"/><path fill="none" stroke="rgb(0,0,0)" paint-order="fill" d="M 33.272727966308594 327.06097412109375 L 63.02020263671875 179.83299255371094 L 92.7676773071289 213.36746215820312 L 122.51515197753906 207.18020629882812 L 152.2626190185547 207.13616943359375 L 182.01010131835938 99.89413452148438 L 211.757568359375 45.205204010009766 L 241.5050506591797 35.68212127685547 L 271.2525329589844 33.61236572265625 L 301 35.31881332397461 L 330.7474670410156 35.31881332397461 L 360.4949645996094 40.39412307739258 L 390.242431640625 46.135494232177734 L 419.9898986816406 119.50177764892578 L 449.73736572265625 191.12307739257812 L 479.48486328125 257.17364501953125 L 509.2323303222656 216.41705322265625 L 538.9797973632812 153.03623962402344 L 568.727294921875 179.83299255371094" stroke-opacity="0.14901960784313725" stroke-linejoin="bevel" stroke-miterlimit="10" stroke-width="2" stroke-dasharray="" clip-path="url(#ErWnbPKCICFO)"/><path fill="none" stroke="rgb(0,0,0)" paint-order="fill" d="M 33.272727966308594 327.06097412109375 L 63.02020263671875 179.83299255371094 L 92.7676773071289 213.36746215820312 L 122.51515197753906 207.18020629882812 L 152.2626190185547 207.13616943359375 L 182.01010131835938 99.89413452148438 L 211.757568359375 225.04837036132812 L 241.5050506591797 200.00210571289062 L 271.2525329589844 226.87042236328125 L 301 279.70977783203125 L 330.7474670410156 252.0873260498047 L 360.4949645996094 148.32974243164062 L 390.242431640625 81.54154968261719 L 419.9898986816406 45.205204010009766 L 449.73736572265625 99.89413452148438 L 479.48486328125 207.13616943359375 L 509.2323303222656 207.18020629882812 L 538.9797973632812 213.36746215820312 L 568.727294921875 179.83299255371094" stroke-opacity="0.14901960784313725" stroke-linejoin="bevel" stroke-miterlimit="10" stroke-width="2" stroke-dasharray="" clip-path="url(#axNucDUyQlqI)"/><path fill="none" stroke="rgb(0,0,0)" paint-order="fill" d="M 33.272727966308594 346.3713684082031 L 63.02020263671875 273.2087707519531 L 92.7676773071289 231.0264434814453 L 122.51515197753906 219.26296997070312 L 152.2626190185547 262.5296936035156 L 182.01010131835938 108.0135269165039 L 211.757568359375 42.22167205810547 L 241.5050506591797 35.68212127685547 L 271.2525329589844 33.61236572265625 L 301 35.31881332397461 L 330.7474670410156 35.31881332397461 L 360.4949645996094 33.61236572265625 L 390.242431640625 35.68212127685547 L 419.9898986816406 45.205204010009766 L 449.73736572265625 99.89413452148438 L 479.48486328125 207.13616943359375 L 509.2323303222656 207.18020629882812 L 538.9797973632812 213.36746215820312 L 568.727294921875 179.83299255371094" stroke-opacity="0.14901960784313725" stroke-linejoin="bevel" stroke-miterlimit="10" stroke-width="2" stroke-dasharray="" clip-path="url(#XCsfIxXVlurb)"/><path fill="none" stroke="rgb(0,0,0)" paint-order="fill" d="M 33.272727966308594 327.06097412109375 L 63.02020263671875 179.83299255371094 L 92.7676773071289 213.36746215820312 L 122.51515197753906 207.18020629882812 L 152.2626190185547 207.13616943359375 L 182.01010131835938 99.89413452148438 L 211.757568359375 45.205204010009766 L 241.5050506591797 35.68212127685547 L 271.2525329589844 39.579429626464844 L 301 47.42909240722656 L 330.7474670410156 76.7194595336914 L 360.4949645996094 84.92141723632812 L 390.242431640625 131.95884704589844 L 419.9898986816406 157.478515625 L 449.73736572265625 207.13616943359375 L 479.48486328125 207.13616943359375 L 509.2323303222656 207.18020629882812 L 538.9797973632812 213.36746215820312 L 568.727294921875 179.83299255371094" stroke-opacity="0.14901960784313725" stroke-linejoin="bevel" stroke-miterlimit="10" stroke-width="2" stroke-dasharray="" clip-path="url(#zXWOAduXNVrp)"/><path fill="none" stroke="rgb(0,0,0)" paint-order="fill" d="M 33.272727966308594 327.06097412109375 L 63.02020263671875 179.83299255371094 L 92.7676773071289 213.36746215820312 L 122.51515197753906 207.18020629882812 L 152.2626190185547 207.13616943359375 L 182.01010131835938 99.89413452148438 L 211.757568359375 45.205204010009766 L 241.5050506591797 81.54154968261719 L 271.2525329589844 148.32974243164062 L 301 252.0873260498047 L 330.7474670410156 279.70977783203125 L 360.4949645996094 226.87042236328125 L 390.242431640625 200.00210571289062 L 419.9898986816406 225.04837036132812 L 449.73736572265625 99.89413452148438 L 479.48486328125 207.13616943359375 L 509.2323303222656 207.18020629882812 L 538.9797973632812 213.36746215820312 L 568.727294921875 179.83299255371094" stroke-opacity="0.14901960784313725" stroke-linejoin="bevel" stroke-miterlimit="10" stroke-width="2" stroke-dasharray="" clip-path="url(#TOAkuHBWwbQB)"/><path fill="none" stroke="rgb(0,0,0)" paint-order="fill" d="M 33.272727966308594 327.06097412109375 L 63.02020263671875 179.83299255371094 L 92.7676773071289 213.36746215820312 L 122.51515197753906 207.18020629882812 L 152.2626190185547 207.13616943359375 L 182.01010131835938 372.5075378417969 L 211.757568359375 305.34503173828125 L 241.5050506591797 259.0287170410156 L 271.2525329589844 150.5701446533203 L 301 176.282470703125 L 330.7474670410156 54.67324447631836 L 360.4949645996094 36.5023193359375 L 390.242431640625 35.68212127685547 L 419.9898986816406 45.205204010009766 L 449.73736572265625 99.89413452148438 L 479.48486328125 207.13616943359375 L 509.2323303222656 207.18020629882812 L 538.9797973632812 213.36746215820312 L 568.727294921875 179.83299255371094" stroke-opacity="0.14901960784313725" stroke-linejoin="bevel" stroke-miterlimit="10" stroke-width="2" stroke-dasharray="" clip-path="url(#FtdnGUFRrckA)"/><path fill="none" stroke="rgb(0,0,0)" paint-order="fill" d="M 33.272727966308594 327.06097412109375 L 63.02020263671875 179.83299255371094 L 92.7676773071289 213.36746215820312 L 122.51515197753906 207.18020629882812 L 152.2626190185547 207.13616943359375 L 182.01010131835938 99.89413452148438 L 211.757568359375 45.205204010009766 L 241.5050506591797 35.68212127685547 L 271.2525329589844 33.61236572265625 L 301 33.348140716552734 L 330.7474670410156 42.61800765991211 L 360.4949645996094 40.56476593017578 L 390.242431640625 47.423587799072266 L 419.9898986816406 88.32331085205078 L 449.73736572265625 130.82489013671875 L 479.48486328125 177.0586395263672 L 509.2323303222656 207.18020629882812 L 538.9797973632812 213.36746215820312 L 568.727294921875 179.83299255371094" stroke-opacity="0.14901960784313725" stroke-linejoin="bevel" stroke-miterlimit="10" stroke-width="2" stroke-dasharray="" clip-path="url(#pouRbcDITzdB)"/><path fill="none" stroke="rgb(0,0,0)" paint-order="fill" d="M 33.272727966308594 327.06097412109375 L 63.02020263671875 179.83299255371094 L 92.7676773071289 213.36746215820312 L 122.51515197753906 207.18020629882812 L 152.2626190185547 190.96343994140625 L 182.01010131835938 208.90316772460938 L 211.757568359375 187.4349365234375 L 241.5050506591797 155.2216033935547 L 271.2525329589844 84.83885192871094 L 301 88.86827087402344 L 330.7474670410156 36.601402282714844 L 360.4949645996094 33.61236572265625 L 390.242431640625 35.68212127685547 L 419.9898986816406 45.205204010009766 L 449.73736572265625 99.89413452148438 L 479.48486328125 207.13616943359375 L 509.2323303222656 207.18020629882812 L 538.9797973632812 213.36746215820312 L 568.727294921875 179.83299255371094" stroke-opacity="0.14901960784313725" stroke-linejoin="bevel" stroke-miterlimit="10" stroke-width="2" stroke-dasharray="" clip-path="url(#BzBAwSbWTqOv)"/><path fill="none" stroke="rgb(0,0,0)" paint-order="fill" d="M 33.272727966308594 327.06097412109375 L 63.02020263671875 179.83299255371094 L 92.7676773071289 213.36746215820312 L 122.51515197753906 207.18020629882812 L 152.2626190185547 207.13616943359375 L 182.01010131835938 99.89413452148438 L 211.757568359375 104.84833526611328 L 241.5050506591797 65.53946685791016 L 271.2525329589844 66.82205963134766 L 301 74.85887908935547 L 330.7474670410156 67.72482299804688 L 360.4949645996094 57.72283172607422 L 390.242431640625 52.66954040527344 L 419.9898986816406 45.205204010009766 L 449.73736572265625 99.89413452148438 L 479.48486328125 207.13616943359375 L 509.2323303222656 207.18020629882812 L 538.9797973632812 213.36746215820312 L 568.727294921875 179.83299255371094" stroke-opacity="0.14901960784313725" stroke-linejoin="bevel" stroke-miterlimit="10" stroke-width="2" stroke-dasharray="" clip-path="url(#xZeZyFmAAMua)"/><path fill="none" stroke="rgb(0,0,0)" paint-order="fill" d="M 33.272727966308594 327.06097412109375 L 63.02020263671875 179.83299255371094 L 92.7676773071289 213.36746215820312 L 122.51515197753906 207.18020629882812 L 152.2626190185547 207.13616943359375 L 182.01010131835938 99.89413452148438 L 211.757568359375 45.205204010009766 L 241.5050506591797 99.2555923461914 L 271.2525329589844 144.74620056152344 L 301 174.49896240234375 L 330.7474670410156 213.0977325439453 L 360.4949645996094 169.81448364257812 L 390.242431640625 239.2174072265625 L 419.9898986816406 225.9456329345703 L 449.73736572265625 99.89413452148438 L 479.48486328125 207.13616943359375 L 509.2323303222656 207.18020629882812 L 538.9797973632812 213.36746215820312 L 568.727294921875 179.83299255371094" stroke-opacity="0.14901960784313725" stroke-linejoin="bevel" stroke-miterlimit="10" stroke-width="2" stroke-dasharray="" clip-path="url(#zOfePvVxDqJO)"/><path fill="none" stroke="rgb(0,0,0)" paint-order="fill" d="M 33.272727966308594 327.06097412109375 L 63.02020263671875 179.83299255371094 L 92.7676773071289 213.36746215820312 L 122.51515197753906 207.18020629882812 L 152.2626190185547 207.13616943359375 L 182.01010131835938 99.89413452148438 L 211.757568359375 45.205204010009766 L 241.5050506591797 35.68212127685547 L 271.2525329589844 36.5023193359375 L 301 54.67324447631836 L 330.7474670410156 176.282470703125 L 360.4949645996094 150.5701446533203 L 390.242431640625 259.0287170410156 L 419.9898986816406 305.34503173828125 L 449.73736572265625 372.5075378417969 L 479.48486328125 207.13616943359375 L 509.2323303222656 207.18020629882812 L 538.9797973632812 213.36746215820312 L 568.727294921875 179.83299255371094" stroke-opacity="0.14901960784313725" stroke-linejoin="bevel" stroke-miterlimit="10" stroke-width="2" stroke-dasharray="" clip-path="url(#znfxGUvichXo)"/><path fill="none" stroke="rgb(0,0,0)" paint-order="fill" d="M 33.272727966308594 432.833251953125 L 63.02020263671875 208.29214477539062 L 92.7676773071289 214.80967712402344 L 122.51515197753906 261.9461975097656 L 152.2626190185547 281.5868835449219 L 182.01010131835938 121.48345947265625 L 211.757568359375 45.38685989379883 L 241.5050506591797 35.68212127685547 L 271.2525329589844 33.61236572265625 L 301 35.31881332397461 L 330.7474670410156 35.31881332397461 L 360.4949645996094 33.61236572265625 L 390.242431640625 35.68212127685547 L 419.9898986816406 45.205204010009766 L 449.73736572265625 99.89413452148438 L 479.48486328125 207.13616943359375 L 509.2323303222656 207.18020629882812 L 538.9797973632812 213.36746215820312 L 568.727294921875 179.83299255371094" stroke-opacity="0.14901960784313725" stroke-linejoin="bevel" stroke-miterlimit="10" stroke-width="2" stroke-dasharray="" clip-path="url(#bzDegXvbxbvt)"/><path fill="none" stroke="rgb(0,0,0)" paint-order="fill" d="M 33.272727966308594 327.06097412109375 L 63.02020263671875 179.83299255371094 L 92.7676773071289 213.36746215820312 L 122.51515197753906 207.18020629882812 L 152.2626190185547 204.72512817382812 L 182.01010131835938 215.27757263183594 L 211.757568359375 173.6512451171875 L 241.5050506591797 120.15682983398438 L 271.2525329589844 64.74128723144531 L 301 58.28981399536133 L 330.7474670410156 35.550010681152344 L 360.4949645996094 33.61236572265625 L 390.242431640625 35.68212127685547 L 419.9898986816406 45.205204010009766 L 449.73736572265625 99.89413452148438 L 479.48486328125 207.13616943359375 L 509.2323303222656 207.18020629882812 L 538.9797973632812 213.36746215820312 L 568.727294921875 179.83299255371094" stroke-opacity="0.14901960784313725" stroke-linejoin="bevel" stroke-miterlimit="10" stroke-width="2" stroke-dasharray="" clip-path="url(#SEFlbfnuZyRB)"/><path fill="none" stroke="rgb(0,0,0)" paint-order="fill" d="M 33.272727966308594 327.06097412109375 L 63.02020263671875 179.83299255371094 L 92.7676773071289 213.36746215820312 L 122.51515197753906 203.69024658203125 L 152.2626190185547 350.5218811035156 L 182.01010131835938 339.50152587890625 L 211.757568359375 358.7789001464844 L 241.5050506591797 259.5296325683594 L 271.2525329589844 203.02967834472656 L 301 154.9353485107422 L 330.7474670410156 35.31881332397461 L 360.4949645996094 33.61236572265625 L 390.242431640625 35.68212127685547 L 419.9898986816406 45.205204010009766 L 449.73736572265625 99.89413452148438 L 479.48486328125 207.13616943359375 L 509.2323303222656 207.18020629882812 L 538.9797973632812 213.36746215820312 L 568.727294921875 179.83299255371094" stroke-opacity="0.14901960784313725" stroke-linejoin="bevel" stroke-miterlimit="10" stroke-width="2" stroke-dasharray="" clip-path="url(#MylfFkCiTKLF)"/><path fill="none" stroke="rgb(0,0,0)" paint-order="fill" d="M 33.272727966308594 327.06097412109375 L 63.02020263671875 179.83299255371094 L 92.7676773071289 214.4078369140625 L 122.51515197753906 195.2790985107422 L 152.2626190185547 183.45506286621094 L 182.01010131835938 130.8799285888672 L 211.757568359375 55.29527282714844 L 241.5050506591797 36.06194305419922 L 271.2525329589844 33.50226974487305 L 301 35.31881332397461 L 330.7474670410156 35.31881332397461 L 360.4949645996094 33.61236572265625 L 390.242431640625 35.68212127685547 L 419.9898986816406 45.205204010009766 L 449.73736572265625 99.89413452148438 L 479.48486328125 207.13616943359375 L 509.2323303222656 207.18020629882812 L 538.9797973632812 213.36746215820312 L 568.727294921875 179.83299255371094" stroke-opacity="0.14901960784313725" stroke-linejoin="bevel" stroke-miterlimit="10" stroke-width="2" stroke-dasharray="" clip-path="url(#vqrMzGayQEFE)"/><path fill="none" stroke="rgb(0,0,0)" paint-order="fill" d="M 33.272727966308594 327.06097412109375 L 63.02020263671875 179.83299255371094 L 92.7676773071289 213.36746215820312 L 122.51515197753906 207.18020629882812 L 152.2626190185547 207.13616943359375 L 182.01010131835938 99.89413452148438 L 211.757568359375 45.205204010009766 L 241.5050506591797 35.68212127685547 L 271.2525329589844 33.61236572265625 L 301 35.31881332397461 L 330.7474670410156 35.31881332397461 L 360.4949645996094 33.50226974487305 L 390.242431640625 36.06194305419922 L 419.9898986816406 55.29527282714844 L 449.73736572265625 130.8799285888672 L 479.48486328125 183.45506286621094 L 509.2323303222656 195.2790985107422 L 538.9797973632812 214.4078369140625 L 568.727294921875 179.83299255371094" stroke-opacity="0.14901960784313725" stroke-linejoin="bevel" stroke-miterlimit="10" stroke-width="2" stroke-dasharray="" clip-path="url(#ETbeFbmABxcw)"/><path fill="none" stroke="rgb(0,0,0)" paint-order="fill" d="M 33.272727966308594 327.06097412109375 L 63.02020263671875 179.83299255371094 L 92.7676773071289 209.66831970214844 L 122.51515197753906 221.50335693359375 L 152.2626190185547 200.51954650878906 L 182.01010131835938 173.6127166748047 L 211.757568359375 117.134765625 L 241.5050506591797 81.11219024658203 L 271.2525329589844 49.35572814941406 L 301 35.31881332397461 L 330.7474670410156 35.31881332397461 L 360.4949645996094 33.61236572265625 L 390.242431640625 35.68212127685547 L 419.9898986816406 45.205204010009766 L 449.73736572265625 99.89413452148438 L 479.48486328125 207.13616943359375 L 509.2323303222656 207.18020629882812 L 538.9797973632812 213.36746215820312 L 568.727294921875 179.83299255371094" stroke-opacity="0.14901960784313725" stroke-linejoin="bevel" stroke-miterlimit="10" stroke-width="2" stroke-dasharray="" clip-path="url(#uABfMuLDngax)"/><path fill="none" stroke="rgb(0,0,0)" paint-order="fill" d="M 33.272727966308594 327.06097412109375 L 63.02020263671875 179.83299255371094 L 92.7676773071289 213.36746215820312 L 122.51515197753906 181.72109985351562 L 152.2626190185547 279.104248046875 L 182.01010131835938 291.33013916015625 L 211.757568359375 245.74594116210938 L 241.5050506591797 167.27133178710938 L 271.2525329589844 100.26844787597656 L 301 71.35791015625 L 330.7474670410156 35.31881332397461 L 360.4949645996094 33.61236572265625 L 390.242431640625 35.68212127685547 L 419.9898986816406 45.205204010009766 L 449.73736572265625 99.89413452148438 L 479.48486328125 207.13616943359375 L 509.2323303222656 207.18020629882812 L 538.9797973632812 213.36746215820312 L 568.727294921875 179.83299255371094" stroke-opacity="0.14901960784313725" stroke-linejoin="bevel" stroke-miterlimit="10" stroke-width="2" stroke-dasharray="" clip-path="url(#dyGnWJCeEnfJ)"/><path fill="none" stroke="rgb(0,0,0)" paint-order="fill" d="M 33.272727966308594 327.06097412109375 L 63.02020263671875 179.83299255371094 L 92.7676773071289 213.36746215820312 L 122.51515197753906 207.18020629882812 L 152.2626190185547 207.13616943359375 L 182.01010131835938 99.89413452148438 L 211.757568359375 225.9456329345703 L 241.5050506591797 239.2174072265625 L 271.2525329589844 169.81448364257812 L 301 213.0977325439453 L 330.7474670410156 174.49896240234375 L 360.4949645996094 144.74620056152344 L 390.242431640625 99.2555923461914 L 419.9898986816406 45.205204010009766 L 449.73736572265625 99.89413452148438 L 479.48486328125 207.13616943359375 L 509.2323303222656 207.18020629882812 L 538.9797973632812 213.36746215820312 L 568.727294921875 179.83299255371094" stroke-opacity="0.14901960784313725" stroke-linejoin="bevel" stroke-miterlimit="10" stroke-width="2" stroke-dasharray="" clip-path="url(#igOrbysdAXre)"/><path fill="none" stroke="rgb(0,0,0)" paint-order="fill" d="M 33.272727966308594 327.06097412109375 L 63.02020263671875 179.83299255371094 L 92.7676773071289 213.36746215820312 L 122.51515197753906 207.18020629882812 L 152.2626190185547 207.13616943359375 L 182.01010131835938 99.89413452148438 L 211.757568359375 45.205204010009766 L 241.5050506591797 35.68212127685547 L 271.2525329589844 33.61236572265625 L 301 35.31881332397461 L 330.7474670410156 35.31881332397461 L 360.4949645996094 33.61236572265625 L 390.242431640625 37.757381439208984 L 419.9898986816406 63.60182189941406 L 449.73736572265625 150.5921630859375 L 479.48486328125 181.76513671875 L 509.2323303222656 182.2110137939453 L 538.9797973632812 224.9933319091797 L 568.727294921875 168.86767578125" stroke-opacity="0.14901960784313725" stroke-linejoin="bevel" stroke-miterlimit="10" stroke-width="2" stroke-dasharray="" clip-path="url(#SBxHJcHByHVy)"/><path fill="none" stroke="rgb(0,0,0)" paint-order="fill" d="M 33.272727966308594 327.06097412109375 L 63.02020263671875 179.83299255371094 L 92.7676773071289 213.36746215820312 L 122.51515197753906 207.18020629882812 L 152.2626190185547 207.13616943359375 L 182.01010131835938 99.89413452148438 L 211.757568359375 45.205204010009766 L 241.5050506591797 35.68212127685547 L 271.2525329589844 33.61236572265625 L 301 36.601402282714844 L 330.7474670410156 88.86827087402344 L 360.4949645996094 84.83885192871094 L 390.242431640625 155.2216033935547 L 419.9898986816406 187.4349365234375 L 449.73736572265625 208.90316772460938 L 479.48486328125 190.96343994140625 L 509.2323303222656 207.18020629882812 L 538.9797973632812 213.36746215820312 L 568.727294921875 179.83299255371094" stroke-opacity="0.14901960784313725" stroke-linejoin="bevel" stroke-miterlimit="10" stroke-width="2" stroke-dasharray="" clip-path="url(#OKTTtaGAZhGL)"/><path fill="none" stroke="rgb(0,0,0)" paint-order="fill" d="M 33.272727966308594 327.06097412109375 L 63.02020263671875 179.83299255371094 L 92.7676773071289 213.36746215820312 L 122.51515197753906 207.18020629882812 L 152.2626190185547 207.13616943359375 L 182.01010131835938 99.89413452148438 L 211.757568359375 45.205204010009766 L 241.5050506591797 35.68212127685547 L 271.2525329589844 33.61236572265625 L 301 35.31881332397461 L 330.7474670410156 35.31881332397461 L 360.4949645996094 33.61236572265625 L 390.242431640625 35.68212127685547 L 419.9898986816406 45.205204010009766 L 449.73736572265625 97.4005126953125 L 479.48486328125 188.4037628173828 L 509.2323303222656 215.6519012451172 L 538.9797973632812 215.6519012451172 L 568.727294921875 188.4037628173828" stroke-opacity="0.14901960784313725" stroke-linejoin="bevel" stroke-miterlimit="10" stroke-width="2" stroke-dasharray="" clip-path="url(#XvuzzrKqsDtt)"/><path fill="none" stroke="rgb(0,0,0)" paint-order="fill" d="M 33.272727966308594 327.06097412109375 L 63.02020263671875 179.83299255371094 L 92.7676773071289 213.36746215820312 L 122.51515197753906 207.18020629882812 L 152.2626190185547 207.13616943359375 L 182.01010131835938 99.89413452148438 L 211.757568359375 45.205204010009766 L 241.5050506591797 35.68212127685547 L 271.2525329589844 33.61236572265625 L 301 35.31881332397461 L 330.7474670410156 35.31881332397461 L 360.4949645996094 33.61236572265625 L 390.242431640625 35.68212127685547 L 419.9898986816406 45.205204010009766 L 449.73736572265625 135.16256713867188 L 479.48486328125 233.80630493164062 L 509.2323303222656 261.50030517578125 L 538.9797973632812 286.1777648925781 L 568.727294921875 264.7480773925781" stroke-opacity="0.14901960784313725" stroke-linejoin="bevel" stroke-miterlimit="10" stroke-width="2" stroke-dasharray="" clip-path="url(#wQKRTUZtnuIa)"/><path fill="none" stroke="rgb(0,0,0)" paint-order="fill" d="M 33.272727966308594 327.06097412109375 L 63.02020263671875 179.83299255371094 L 92.7676773071289 213.36746215820312 L 122.51515197753906 207.18020629882812 L 152.2626190185547 207.13616943359375 L 182.01010131835938 99.89413452148438 L 211.757568359375 45.205204010009766 L 241.5050506591797 35.68212127685547 L 271.2525329589844 33.61236572265625 L 301 35.31881332397461 L 330.7474670410156 35.31881332397461 L 360.4949645996094 33.61236572265625 L 390.242431640625 35.68212127685547 L 419.9898986816406 45.205204010009766 L 449.73736572265625 76.51578521728516 L 479.48486328125 205.52330017089844 L 509.2323303222656 207.70864868164062 L 538.9797973632812 194.46990966796875 L 568.727294921875 217.22622680664062" stroke-opacity="0.14901960784313725" stroke-linejoin="bevel" stroke-miterlimit="10" stroke-width="2" stroke-dasharray="" clip-path="url(#cTzMZbpzIZpO)"/><path fill="none" stroke="rgb(0,0,0)" paint-order="fill" d="M 33.272727966308594 327.06097412109375 L 63.02020263671875 179.83299255371094 L 92.7676773071289 213.36746215820312 L 122.51515197753906 207.18020629882812 L 152.2626190185547 207.13616943359375 L 182.01010131835938 99.89413452148438 L 211.757568359375 45.205204010009766 L 241.5050506591797 35.68212127685547 L 271.2525329589844 33.61236572265625 L 301 35.31881332397461 L 330.7474670410156 35.31881332397461 L 360.4949645996094 33.61236572265625 L 390.242431640625 35.48945617675781 L 419.9898986816406 51.430992126464844 L 449.73736572265625 120.15132904052734 L 479.48486328125 217.09962463378906 L 509.2323303222656 241.67799377441406 L 538.9797973632812 340.514404296875 L 568.727294921875 283.0566101074219" stroke-opacity="0.14901960784313725" stroke-linejoin="bevel" stroke-miterlimit="10" stroke-width="2" stroke-dasharray="" clip-path="url(#WxnKddBazzkH)"/><path fill="none" stroke="rgb(0,0,0)" paint-order="fill" d="M 33.272727966308594 327.06097412109375 L 63.02020263671875 168.86767578125 L 92.7676773071289 224.9933319091797 L 122.51515197753906 182.2110137939453 L 152.2626190185547 181.76513671875 L 182.01010131835938 150.5921630859375 L 211.757568359375 63.60182189941406 L 241.5050506591797 37.757381439208984 L 271.2525329589844 33.61236572265625 L 301 35.31881332397461 L 330.7474670410156 35.31881332397461 L 360.4949645996094 33.61236572265625 L 390.242431640625 35.68212127685547 L 419.9898986816406 45.205204010009766 L 449.73736572265625 99.89413452148438 L 479.48486328125 207.13616943359375 L 509.2323303222656 207.18020629882812 L 538.9797973632812 213.36746215820312 L 568.727294921875 179.83299255371094" stroke-opacity="0.14901960784313725" stroke-linejoin="bevel" stroke-miterlimit="10" stroke-width="2" stroke-dasharray="" clip-path="url(#lFzeNlwEhzJL)"/><path fill="none" stroke="rgb(0,0,0)" paint-order="fill" d="M 33.272727966308594 327.06097412109375 L 63.02020263671875 179.83299255371094 L 92.7676773071289 213.36746215820312 L 122.51515197753906 207.18020629882812 L 152.2626190185547 207.13616943359375 L 182.01010131835938 303.82574462890625 L 211.757568359375 432.33782958984375 L 241.5050506591797 334.70697021484375 L 271.2525329589844 256.41400146484375 L 301 209.31602478027344 L 330.7474670410156 91.56555938720703 L 360.4949645996094 49.80711364746094 L 390.242431640625 35.68212127685547 L 419.9898986816406 45.205204010009766 L 449.73736572265625 99.89413452148438 L 479.48486328125 207.13616943359375 L 509.2323303222656 207.18020629882812 L 538.9797973632812 213.36746215820312 L 568.727294921875 179.83299255371094" stroke-opacity="0.14901960784313725" stroke-linejoin="bevel" stroke-miterlimit="10" stroke-width="2" stroke-dasharray="" clip-path="url(#FpQruVckEuOp)"/><path fill="none" stroke="rgb(0,0,0)" paint-order="fill" d="M 33.272727966308594 327.06097412109375 L 63.02020263671875 179.83299255371094 L 92.7676773071289 213.36746215820312 L 122.51515197753906 207.18020629882812 L 152.2626190185547 207.13616943359375 L 182.01010131835938 99.89413452148438 L 211.757568359375 45.205204010009766 L 241.5050506591797 35.68212127685547 L 271.2525329589844 49.80711364746094 L 301 91.56555938720703 L 330.7474670410156 209.31602478027344 L 360.4949645996094 256.41400146484375 L 390.242431640625 334.70697021484375 L 419.9898986816406 432.33782958984375 L 449.73736572265625 303.82574462890625 L 479.48486328125 207.13616943359375 L 509.2323303222656 207.18020629882812 L 538.9797973632812 213.36746215820312 L 568.727294921875 179.83299255371094" stroke-opacity="0.14901960784313725" stroke-linejoin="bevel" stroke-miterlimit="10" stroke-width="2" stroke-dasharray="" clip-path="url(#kaPAQDrgDMnN)"/><path fill="none" stroke="rgb(0,0,0)" paint-order="fill" d="M 33.272727966308594 327.06097412109375 L 63.02020263671875 179.83299255371094 L 92.7676773071289 213.36746215820312 L 122.51515197753906 207.18020629882812 L 152.2626190185547 207.13616943359375 L 182.01010131835938 99.89413452148438 L 211.757568359375 45.205204010009766 L 241.5050506591797 35.68212127685547 L 271.2525329589844 33.61236572265625 L 301 35.31881332397461 L 330.7474670410156 35.31881332397461 L 360.4949645996094 33.61236572265625 L 390.242431640625 35.68212127685547 L 419.9898986816406 45.38685989379883 L 449.73736572265625 121.48345947265625 L 479.48486328125 281.5868835449219 L 509.2323303222656 261.9461975097656 L 538.9797973632812 214.80967712402344 L 568.727294921875 208.29214477539062" stroke-opacity="0.14901960784313725" stroke-linejoin="bevel" stroke-miterlimit="10" stroke-width="2" stroke-dasharray="" clip-path="url(#hQLKKWBbFRkv)"/><path fill="none" stroke="rgb(0,0,0)" paint-order="fill" d="M 33.272727966308594 327.06097412109375 L 63.02020263671875 179.83299255371094 L 92.7676773071289 213.36746215820312 L 122.51515197753906 207.18020629882812 L 152.2626190185547 207.13616943359375 L 182.01010131835938 99.89413452148438 L 211.757568359375 45.205204010009766 L 241.5050506591797 35.68212127685547 L 271.2525329589844 33.61236572265625 L 301 35.31881332397461 L 330.7474670410156 35.31881332397461 L 360.4949645996094 33.61236572265625 L 390.242431640625 36.99223327636719 L 419.9898986816406 59.84763717651367 L 449.73736572265625 117.64669799804688 L 479.48486328125 229.82643127441406 L 509.2323303222656 227.4649200439453 L 538.9797973632812 216.54916381835938 L 568.727294921875 205.6444091796875" stroke-opacity="0.14901960784313725" stroke-linejoin="bevel" stroke-miterlimit="10" stroke-width="2" stroke-dasharray="" clip-path="url(#tBwudTKVkqPN)"/><path fill="none" stroke="rgb(0,0,0)" paint-order="fill" d="M 33.272727966308594 327.06097412109375 L 63.02020263671875 179.83299255371094 L 92.7676773071289 153.03623962402344 L 122.51515197753906 216.41705322265625 L 152.2626190185547 257.17364501953125 L 182.01010131835938 191.12307739257812 L 211.757568359375 119.50177764892578 L 241.5050506591797 46.135494232177734 L 271.2525329589844 40.39412307739258 L 301 35.31881332397461 L 330.7474670410156 35.31881332397461 L 360.4949645996094 33.61236572265625 L 390.242431640625 35.68212127685547 L 419.9898986816406 45.205204010009766 L 449.73736572265625 99.89413452148438 L 479.48486328125 207.13616943359375 L 509.2323303222656 207.18020629882812 L 538.9797973632812 213.36746215820312 L 568.727294921875 179.83299255371094" stroke-opacity="0.14901960784313725" stroke-linejoin="bevel" stroke-miterlimit="10" stroke-width="2" stroke-dasharray="" clip-path="url(#ITQTgCqmVTsz)"/><path fill="none" stroke="rgb(0,0,0)" paint-order="fill" d="M 33.272727966308594 327.06097412109375 L 63.02020263671875 283.0566101074219 L 92.7676773071289 340.514404296875 L 122.51515197753906 241.67799377441406 L 152.2626190185547 217.09962463378906 L 182.01010131835938 120.15132904052734 L 211.757568359375 51.430992126464844 L 241.5050506591797 35.48945617675781 L 271.2525329589844 33.61236572265625 L 301 35.31881332397461 L 330.7474670410156 35.31881332397461 L 360.4949645996094 33.61236572265625 L 390.242431640625 35.68212127685547 L 419.9898986816406 45.205204010009766 L 449.73736572265625 99.89413452148438 L 479.48486328125 207.13616943359375 L 509.2323303222656 207.18020629882812 L 538.9797973632812 213.36746215820312 L 568.727294921875 179.83299255371094" stroke-opacity="0.14901960784313725" stroke-linejoin="bevel" stroke-miterlimit="10" stroke-width="2" stroke-dasharray="" clip-path="url(#pGIOGZhkMuvr)"/><path fill="none" stroke="rgb(0,0,0)" paint-order="fill" d="M 33.272727966308594 327.06097412109375 L 63.02020263671875 179.83299255371094 L 92.7676773071289 213.36746215820312 L 122.51515197753906 207.18020629882812 L 152.2626190185547 207.13616943359375 L 182.01010131835938 207.13616943359375 L 211.757568359375 157.478515625 L 241.5050506591797 131.95884704589844 L 271.2525329589844 84.92141723632812 L 301 76.7194595336914 L 330.7474670410156 47.42909240722656 L 360.4949645996094 39.579429626464844 L 390.242431640625 35.68212127685547 L 419.9898986816406 45.205204010009766 L 449.73736572265625 99.89413452148438 L 479.48486328125 207.13616943359375 L 509.2323303222656 207.18020629882812 L 538.9797973632812 213.36746215820312 L 568.727294921875 179.83299255371094" stroke-opacity="0.14901960784313725" stroke-linejoin="bevel" stroke-miterlimit="10" stroke-width="2" stroke-dasharray="" clip-path="url(#TRXeyOmvMnmM)"/><path fill="none" stroke="rgb(0,0,0)" paint-order="fill" d="M 33.272727966308594 327.06097412109375 L 63.02020263671875 179.83299255371094 L 92.7676773071289 213.36746215820312 L 122.51515197753906 207.18020629882812 L 152.2626190185547 207.13616943359375 L 182.01010131835938 99.89413452148438 L 211.757568359375 45.205204010009766 L 241.5050506591797 35.68212127685547 L 271.2525329589844 33.61236572265625 L 301 35.31881332397461 L 330.7474670410156 71.35791015625 L 360.4949645996094 100.26844787597656 L 390.242431640625 167.27133178710938 L 419.9898986816406 245.74594116210938 L 449.73736572265625 291.33013916015625 L 479.48486328125 279.104248046875 L 509.2323303222656 181.72109985351562 L 538.9797973632812 213.36746215820312 L 568.727294921875 179.83299255371094" stroke-opacity="0.14901960784313725" stroke-linejoin="bevel" stroke-miterlimit="10" stroke-width="2" stroke-dasharray="" clip-path="url(#qvKDwwufTbZg)"/><path fill="none" stroke="rgb(0,0,0)" paint-order="fill" d="M 33.272727966308594 102.7840805053711 L 63.02020263671875 49.74105453491211 L 92.7676773071289 44.77033615112305 L 122.51515197753906 44.77033615112305 L 152.2626190185547 49.74105453491211 L 182.01010131835938 55.44389724731445 L 211.757568359375 43.173980712890625 L 241.5050506591797 35.68212127685547 L 271.2525329589844 33.61236572265625 L 301 35.31881332397461 L 330.7474670410156 35.31881332397461 L 360.4949645996094 33.61236572265625 L 390.242431640625 35.68212127685547 L 419.9898986816406 45.205204010009766 L 449.73736572265625 99.89413452148438 L 479.48486328125 207.13616943359375 L 509.2323303222656 207.18020629882812 L 538.9797973632812 213.36746215820312 L 568.727294921875 179.83299255371094" stroke-opacity="0.14901960784313725" stroke-linejoin="bevel" stroke-miterlimit="10" stroke-width="2" stroke-dasharray="" clip-path="url(#UBhvUPTSTuIC)"/><path fill="none" stroke="rgb(0,0,0)" paint-order="fill" d="M 33.272727966308594 327.06097412109375 L 63.02020263671875 179.83299255371094 L 92.7676773071289 213.36746215820312 L 122.51515197753906 207.18020629882812 L 152.2626190185547 177.0586395263672 L 182.01010131835938 130.82489013671875 L 211.757568359375 88.32331085205078 L 241.5050506591797 47.423587799072266 L 271.2525329589844 40.56476593017578 L 301 42.61800765991211 L 330.7474670410156 33.348140716552734 L 360.4949645996094 33.61236572265625 L 390.242431640625 35.68212127685547 L 419.9898986816406 45.205204010009766 L 449.73736572265625 99.89413452148438 L 479.48486328125 207.13616943359375 L 509.2323303222656 207.18020629882812 L 538.9797973632812 213.36746215820312 L 568.727294921875 179.83299255371094" stroke-opacity="0.14901960784313725" stroke-linejoin="bevel" stroke-miterlimit="10" stroke-width="2" stroke-dasharray="" clip-path="url(#aHQXEQIkycHz)"/><path fill="none" stroke="rgb(0,0,0)" paint-order="fill" d="M 33.272727966308594 327.06097412109375 L 63.02020263671875 179.83299255371094 L 92.7676773071289 213.36746215820312 L 122.51515197753906 207.18020629882812 L 152.2626190185547 207.13616943359375 L 182.01010131835938 99.89413452148438 L 211.757568359375 45.205204010009766 L 241.5050506591797 52.66954040527344 L 271.2525329589844 57.72283172607422 L 301 67.72482299804688 L 330.7474670410156 74.85887908935547 L 360.4949645996094 66.82205963134766 L 390.242431640625 65.53946685791016 L 419.9898986816406 104.84833526611328 L 449.73736572265625 99.89413452148438 L 479.48486328125 207.13616943359375 L 509.2323303222656 207.18020629882812 L 538.9797973632812 213.36746215820312 L 568.727294921875 179.83299255371094" stroke-opacity="0.14901960784313725" stroke-linejoin="bevel" stroke-miterlimit="10" stroke-width="2" stroke-dasharray="" clip-path="url(#CEFhFDOSHvPT)"/><path fill="none" stroke="rgb(0,0,0)" paint-order="fill" d="M 33.272727966308594 327.06097412109375 L 63.02020263671875 179.83299255371094 L 92.7676773071289 213.36746215820312 L 122.51515197753906 207.18020629882812 L 152.2626190185547 207.13616943359375 L 182.01010131835938 99.89413452148438 L 211.757568359375 45.205204010009766 L 241.5050506591797 35.68212127685547 L 271.2525329589844 33.61236572265625 L 301 35.550010681152344 L 330.7474670410156 58.28981399536133 L 360.4949645996094 64.74128723144531 L 390.242431640625 120.15682983398438 L 419.9898986816406 173.6512451171875 L 449.73736572265625 215.27757263183594 L 479.48486328125 204.72512817382812 L 509.2323303222656 207.18020629882812 L 538.9797973632812 213.36746215820312 L 568.727294921875 179.83299255371094" stroke-opacity="0.14901960784313725" stroke-linejoin="bevel" stroke-miterlimit="10" stroke-width="2" stroke-dasharray="" clip-path="url(#MKalXTfFMlKv)"/><path fill="none" stroke="rgb(0,0,0)" paint-order="fill" d="M 6.5 594.5 L 595.5 594.5" stroke-opacity="1" stroke-linejoin="bevel" stroke-miterlimit="10" stroke-dasharray=""/><path fill="none" stroke="rgb(0,0,0)" paint-order="fill" d="M 33.5 600.5 L 33.5 592.5 M 182.5 600.5 L 182.5 592.5 M 330.5 600.5 L 330.5 592.5 M 479.5 600.5 L 479.5 592.5" stroke-opacity="1" stroke-linejoin="bevel" stroke-miterlimit="10" stroke-dasharray=""/><text fill="rgb(68,68,68)" stroke="none" font-family="helvetica" font-size="0pt" font-style="normal" font-weight="normal" text-decoration="normal" x="32.772727966308594" y="605" text-anchor="start" dominant-baseline="alphabetic" transform="matrix(1, 0, 0, 1, 0.5, 0.5)" fill-opacity="1">0</text><text fill="rgb(68,68,68)" stroke="none" font-family="helvetica" font-size="0pt" font-style="normal" font-weight="normal" text-decoration="normal" x="181.51010131835938" y="605" text-anchor="start" dominant-baseline="alphabetic" transform="matrix(1, 0, 0, 1, 0.5, 0.5)" fill-opacity="1">5</text><text fill="rgb(68,68,68)" stroke="none" font-family="helvetica" font-size="0pt" font-style="normal" font-weight="normal" text-decoration="normal" x="330.2474670410156" y="605" text-anchor="start" dominant-baseline="alphabetic" transform="matrix(1, 0, 0, 1, 0.5, 0.5)" fill-opacity="1">10</text><text fill="rgb(68,68,68)" stroke="none" font-family="helvetica" font-size="0pt" font-style="normal" font-weight="normal" text-decoration="normal" x="478.98486328125" y="605" text-anchor="start" dominant-baseline="alphabetic" transform="matrix(1, 0, 0, 1, 0.5, 0.5)" fill-opacity="1">15</text><path fill="none" stroke="rgb(0,0,0)" paint-order="fill" d="M 6.5 594.5 L 6.5 5.5" stroke-opacity="1" stroke-linejoin="bevel" stroke-miterlimit="10" stroke-dasharray=""/><path fill="none" stroke="rgb(0,0,0)" paint-order="fill" d="M 0.5 528.5 L 8.5 528.5 M 0.5 418.5 L 8.5 418.5 M 0.5 308.5 L 8.5 308.5 M 0.5 198.5 L 8.5 198.5 M 0.5 88.5 L 8.5 88.5" stroke-opacity="1" stroke-linejoin="bevel" stroke-miterlimit="10" stroke-dasharray=""/><text fill="rgb(68,68,68)" stroke="none" font-family="helvetica" font-size="0pt" font-style="normal" font-weight="normal" text-decoration="normal" x="-5" y="527.9439086914062" text-anchor="start" dominant-baseline="alphabetic" transform="matrix(1, 0, 0, 1, 0.5, 0.5)" fill-opacity="1">0.4</text><text fill="rgb(68,68,68)" stroke="none" font-family="helvetica" font-size="0pt" font-style="normal" font-weight="normal" text-decoration="normal" x="-5" y="417.8504638671875" text-anchor="start" dominant-baseline="alphabetic" transform="matrix(1, 0, 0, 1, 0.5, 0.5)" fill-opacity="1">0.2</text><text fill="rgb(68,68,68)" stroke="none" font-family="helvetica" font-size="0pt" font-style="normal" font-weight="normal" text-decoration="normal" x="-5" y="307.75701904296875" text-anchor="start" dominant-baseline="alphabetic" transform="matrix(1, 0, 0, 1, 0.5, 0.5)" fill-opacity="1">0</text><text fill="rgb(68,68,68)" stroke="none" font-family="helvetica" font-size="0pt" font-style="normal" font-weight="normal" text-decoration="normal" x="-5" y="197.66355895996094" text-anchor="start" dominant-baseline="alphabetic" transform="matrix(1, 0, 0, 1, 0.5, 0.5)" fill-opacity="1">0.2</text><text fill="rgb(68,68,68)" stroke="none" font-family="helvetica" font-size="0pt" font-style="normal" font-weight="normal" text-decoration="normal" x="-5" y="87.5700912475586" text-anchor="start" dominant-baseline="alphabetic" transform="matrix(1, 0, 0, 1, 0.5, 0.5)" fill-opacity="1">0.4</text><path fill="none" stroke="rgb(0,0,0)" paint-order="fill" d="M 6.5 115.59345794392527 L 595.5 115.59345794392527" stroke-opacity="1" stroke-linejoin="bevel" stroke-miterlimit="10" stroke-width="3" stroke-dasharray="6" clip-path="url(#mRJWdCkimgiE)"/><path fill="none" stroke="rgb(0,0,0)" paint-order="fill" d="M 6.5 33.02336448598135 L 595.5 33.02336448598135" stroke-opacity="1" stroke-linejoin="bevel" stroke-miterlimit="10" stroke-width="3" stroke-dasharray="6" clip-path="url(#qdCqAnsudOfM)"/></svg>