<svg version="1.1" xmlns="http://www.w3.org/2000/svg" width="600" height="600"><defs><clipPath id="zpcahBXqGrnw"><path fill="none" stroke="none" d="M 6.5 5.5 L 595.5 5.5 L 595.5 594.5 L 6.5 594.5 L 6.5 5.5"/></clipPath><clipPath id="WBEiQzNogiTN"><path fill="none" stroke="none" d="M 6.5 5.5 L 595.5 5.5 L 595.5 594.5 L 6.5 594.5 L 6.5 5.5"/></clipPath><clipPath id="GXxafAqkdVaF"><path fill="none" stroke="none" d="M 6.5 5.5 L 595.5 5.5 L 595.5 594.5 L 6.5 594.5 L 6.5 5.5"/></clipPath><clipPath id="hpLTbgdCoaec"><path fill="none" stroke="none" d="M 6.5 5.5 L 595.5 5.5 L 595.5 594.5 L 6.5 594.5 L 6.5 5.5"/></clipPath><clipPath id="UmXwVVLenVhK"><path fill="none" stroke="none" d="M 6.5 5.5 L 595.5 5.5 L 595.5 594.5 L 6.5 594.5 L 6.5 5.5"/></clipPath><clipPath id="CRzdgpibhaGL"><path fill="none" stroke="none" d="M 6.5 5.5 L 595.5 5.5 L 595.5 594.5 L 6.5 594.5 L 6.5 5.5"/></clipPath><clipPath id="CReWFAtIclen"><path fill="none" stroke="none" d="M 6.5 5.5 L 595.5 5.5 L 595.5 594.5 L 6.5 594.5 L 6.5 5.5"/></clipPath><clipPath id="WiHXskQRhhCl"><path fill="none" stroke="none" d="M 6.5 5.5 L 595.5 5.5 L 595.5 594.5 L 6.5 594.5 L 6.5 5.5"/></clipPath><clipPath id="HAnlhgXvLZAO"><path fill="none" stroke="none" d="M 6.5 5.5 L 595.5 5.5 L 595.5 594.5 L 6.5 594.5 L 6.5 5.5"/></clipPath><clipPath id="EZVVOKsKzGGi"><path fill="none" stroke="none" d="M 6.5 5.5 L 595.5 5.5 L 595.5 594.5 L 6.5 594.5 L 6.5 5.5"/></clipPath><clipPath id="aPFSPUJxeDem"><path fill="none" stroke="none" d="M 6.5 5.5 L 595.5 5.5 L 595.5 594.5 L 6.5 594.5 L 6.5 5.5"/></clipPath><clipPath id="LqHdQiDhTPvB"><path fill="none" stroke="none" d="M 6.5 5.5 L 595.5 5.5 L 595.5 594.5 L 6.5 594.5 L 6.5 5.5"/></clipPath><clipPath id="ekShSZpIEgXP"><path fill="none" stroke="none" d="M 6.5 5.5 L 595.5 5.5 L 595.5 594.5 L 6.5 594.5 L 6.5 5.5"/></clipPath><clipPath id="XlteCLAdwsNT"><path fill="none" stroke="none" d="M 6.5 5.5 L 595.5 5.5 L 595.5 594.5 L 6.5 594.5 L 6.5 5.5"/></clipPath><clipPath id="MbDHKOnzMMNd"><path fill="none" stroke="none" d="M 6.5 5.5 L 595.5 5.5 L 595.5 594.5 L 6.5 594.5 L 6.5 5.5"/></clipPath><clipPath id="FOyOfOioaTNR"><path fill="none" stroke="none" d="M 6.5 5.5 L 595.5 5.5 L 595.5 594.5 L 6.5 594.5 L 6.5 5.5"/></clipPath><clipPath id="aWCLJubaMGyn"><path fill="none" stroke="none" d="M 6.5 5.5 L 595.5 5.5 L 595.5 594.5 L 6.5 594.5 L 6.5 5.5"/></clipPath><clipPath id="VTQltQMDxrQJ"><path fill="none" stroke="none" d="M 6.5 5.5 L 595.5 5.5 L 595.5 594.5 L 6.5 594.5 L 6.5 5.5"/></clipPath><clipPath id="JvnGGkgWpUmn"><path fill="none" stroke="none" d="M 6.5 5.5 L 595.5 5.5 L 595.5 594.5 L 6.5 594.5 L 6.5 5.5"/></clipPath><clipPath id="GPEwTTshzOZK"><path fill="none" stroke="none" d="M 6.5 5.5 L 595.5 5.5 L 595.5 594.5 L 6.5 594.5 L 6.5 5.5"/></clipPath><clipPath id="zdXNwoorTqfN"><path fill="none" stroke="none" d="M 6.5 5.5 L 595.5 5.5 L 595.5 594.5 L 6.5 594.5 L 6.5 5.5"/></clipPath><clipPath id="ZzqVTyBPbawg"><path fill="none" stroke="none" d="M 6.5 5.5 L 595.5 5.5 L 595.5 594.5 L 6.5 594.5 L 6.5 5.5"/></clipPath><clipPath id="gSvADRMhNRCe"><path fill="none" stroke="none" d="M 6.5 5.5 L 595.5 5.5 L 595.5 594.5 L 6.5 594.5 L 6.5 5.5"/></clipPath><clipPath id="MuEKkLPMtdeQ"><path fill="none" stroke="none" d="M 6.5 5.5 L 595.5 5.5 L 595.5 594.5 L 6.5 594.5 L 6.5 5.5"/></clipPath><clipPath id="FctpIbdToUew"><path fill="none" stroke="none" d="M 6.5 5.5 L 595.5 5.5 L 595.5 594.5 L 6.5 594.5 L 6.5 5.5"/></clipPath><clipPath id="CPKuCfZdEJCA"><path fill="none" stroke="none" d="M 6.5 5.5 L 595.5 5.5 L 595.5 594.5 L 6.5 594.5 L 6.5 5.5"/></clipPath><clipPath id="CocTtksOSXkA"><path fill="none" stroke="none" d="M 6.5 5.5 L 595.5 5.5 L 595.5 594.5 L 6.5 594.5 L 6.5 5.5"/></clipPath><clipPath id="ASQiBfQRxnHr"><path fill="none" stroke="none" d="M 6.5 5.5 L 595.5 5.5 L 595.5 594.5 L 6.5 594.5 L 6.5 5.5"/></clipPath><clipPath id="xkBTVXCRXdpO"><path fill="none" stroke="none" d="M 6.5 5.5 L 595.5 5.5 L 595.5 594.5 L 6.5 594.5 L 6.5 5.5"/></clipPath><clipPath id="kmuwIFuoOFTT"><path fill="none" stroke="none" d="M 6.5 5.5 L 595.5 5.5 L 595.5 594.5 L 6.5 594.5 L 6.5 5.5"/></clipPath><clipPath id="RckrQcgKbbIa"><path fill="none" stroke="none" d="M 6.5 5.5 L 595.5 5.5 L 595.5 594.5 L 6.5 594.5 L 6.5 5.5"/></clipPath><clipPath id="nludkCAmDrKm"><path fill="none" stroke="none" d="M 6.5 5.5 L 595.5 5.5 L 595.5 594.5 L 6.5 594.5 L 6.5 5.5"/></clipPath><clipPath id="kQnxXrPPtLXh"><path fill="none" stroke="none" d="M 6.5 5.5 L 595.5 5.5 L 595.5 594.5 L 6.5 594.5 L 6.5 5.5"/></clipPath><clipPath id="WXoeMPEPcSsG"><path fill="none" stroke="none" d="M 6.5 5.5 L 595.5 5.5 L 595.5 594.5 L 6.5 594.5 L 6.5 5.5"/></clipPath><clipPath id="TXrWtxZNleEi"><path fill="none" stroke="none" d="M 6.5 5.5 L 595.5 5.5 L 595.5 594.5 L 6.5 594.5 L 6.5 5.5"/></clipPath><clipPath id="ECZoSznHyzRi"><path fill="none" stroke="none" d="M 6.5 5.5 L 595.5 5.5 L 595.5 594.5 L 6.5 594.5 L 6.5 5.5"/></clipPath><clipPath id="CzRkgdzgCZAx"><path fill="none" stroke="none" d="M 6.5 5.5 L 595.5 5.5 L 595.5 594.5 L 6.5 594.5 L 6.5 5.5"/></clipPath><clipPath id="VnQRwSooMMFN"><path fill="none" stroke="none" d="M 6.5 5.5 L 595.5 5.5 L 595.5 594.5 L 6.5 594.5 L 6.5 5.5"/></clipPath><clipPath id="NyUMBqPwSHOv"><path fill="none" stroke="none" d="M 6.5 5.5 L 595.5 5.5 L 595.5 594.5 L 6.5 594.5 L 6.5 5.5"/></clipPath><clipPath id="dZJkuNRBCRSz"><path fill="none" stroke="none" d="M 6.5 5.5 L 595.5 5.5 L 595.5 594.5 L 6.5 594.5 L 6.5 5.5"/></clipPath><clipPath id="GoFiIMRXiJPZ"><path fill="none" stroke="none" d="M 6.5 5.5 L 595.5 5.5 L 595.5 594.5 L 6.5 594.5 L 6.5 5.5"/></clipPath><clipPath id="oduQizXsOXbN"><path fill="none" stroke="none" d="M 6.5 5.5 L 595.5 5.5 L 595.5 594.5 L 6.5 594.5 L 6.5 5.5"/></clipPath><clipPath id="fnwgfgaRurNd"><path fill="none" stroke="none" d="M 6.5 5.5 L 595.5 5.5 L 595.5 594.5 L 6.5 594.5 L 6.5 5.5"/></clipPath><clipPath id="JvTmwOeGEFPQ"><path fill="none" stroke="none" d="M 6.5 5.5 L 595.5 5.5 L 595.5 594.5 L 6.5 594.5 L 6.5 5.5"/></clipPath><clipPath id="VXqJZSUPxTNI"><path fill="none" stroke="none" d="M 6.5 5.5 L 595.5 5.5 L 595.5 594.5 L 6.5 594.5 L 6.5 5.5"/></clipPath><clipPath id="WgPIqHDQaIgZ"><path fill="none" stroke="none" d="M 6.5 5.5 L 595.5 5.5 L 595.5 594.5 L 6.5 594.5 L 6.5 5.5"/></clipPath><clipPath id="lJxtoMlOExJo"><path fill="none" stroke="none" d="M 6.5 5.5 L 595.5 5.5 L 595.5 594.5 L 6.5 594.5 L 6.5 5.5"/></clipPath><clipPath id="mdGUBfKPZHDL"><path fill="none" stroke="none" d="M 6.5 5.5 L 595.5 5.5 L 595.5 594.5 L 6.5 594.5 L 6.5 5.5"/></clipPath><clipPath id="hXNUFTtDnXad"><path fill="none" stroke="none" d="M 6.5 5.5 L 595.5 5.5 L 595.5 594.5 L 6.5 594.5 L 6.5 5.5"/></clipPath><clipPath id="WuzxMnevEFKx"><path fill="none" stroke="none" d="M 6.5 5.5 L 595.5 5.5 L 595.5 594.5 L 6.5 594.5 L 6.5 5.5"/></clipPath></defs><path fill="rgb(255,255,255)" stroke="none" paint-order="stroke" d="M 0.5 0.5 L 600.5 0.5 L 600.5 600.5 L 0.5 600.5 L 0.5 0.5" fill-opacity="1"/><rect fill="#FFFFFF" stroke="none" x="6" y="5" width="589" height="589" transform="matrix(1, 0, 0, 1, 0.5, 0.5)"/><path fill="rgb(255,255,255)" stroke="none" paint-order="stroke" d="M 6.5 5.5 L 595.5 5.5 L 595.5 594.5 L 6.5 594.5 L 6.5 5.5" fill-opacity="1"/><path fill="none" stroke="rgb(0,0,0)" paint-order="fill" d="M 6.5 5.5 L 595.5 5.5 L 595.5 594.5 L 6.5 594.5 L 6.5 5.5" stroke-opacity="1" stroke-linejoin="bevel" stroke-miterlimit="10" stroke-dasharray=""/><path fill="none" stroke="rgb(0,0,0)" paint-order="fill" d="M 33.272727966308594 459.9822998046875 L 63.02020263671875 289.1392822265625 L 92.7676773071289 216.69227600097656 L 122.51515197753906 213.78030395507812 L 152.2626190185547 288.7484436035156 L 182.01010131835938 125.25415802001953 L 211.757568359375 49.92271041870117 L 241.5050506591797 35.40138244628906 L 271.2525329589844 33.49676513671875 L 301 35.307804107666016 L 330.7474670410156 76.6258773803711 L 360.4949645996094 84.77279663085938 L 390.242431640625 192.11392211914062 L 419.9898986816406 348.1273498535156 L 449.73736572265625 347.96221923828125 L 479.48486328125 385.1352844238281 L 509.2323303222656 287.0254821777344 L 538.9797973632812 216.69227600097656 L 568.727294921875 289.1392822265625" stroke-opacity="0.14901960784313725" stroke-linejoin="bevel" stroke-miterlimit="10" stroke-width="2" stroke-dasharray="" clip-path="url(#GXxafAqkdVaF)"/><path fill="none" stroke="rgb(0,0,0)" paint-order="fill" d="M 33.272727966308594 459.9822998046875 L 63.02020263671875 289.1392822265625 L 92.7676773071289 216.69227600097656 L 122.51515197753906 213.78030395507812 L 152.2626190185547 288.7484436035156 L 182.01010131835938 125.25415802001953 L 211.757568359375 49.92271041870117 L 241.5050506591797 35.40138244628906 L 271.2525329589844 33.49676513671875 L 301 35.307804107666016 L 330.7474670410156 35.307804107666016 L 360.4949645996094 33.49676513671875 L 390.242431640625 35.40138244628906 L 419.9898986816406 41.80331802368164 L 449.73736572265625 64.33944702148438 L 479.48486328125 44.35198211669922 L 509.2323303222656 43.069393157958984 L 538.9797973632812 43.069393157958984 L 568.727294921875 44.35198211669922" stroke-opacity="0.14901960784313725" stroke-linejoin="bevel" stroke-miterlimit="10" stroke-width="2" stroke-dasharray="" clip-path="url(#hpLTbgdCoaec)"/><path fill="none" stroke="rgb(0,0,0)" paint-order="fill" d="M 33.272727966308594 459.9822998046875 L 63.02020263671875 289.1392822265625 L 92.7676773071289 216.69227600097656 L 122.51515197753906 213.78030395507812 L 152.2626190185547 288.7484436035156 L 182.01010131835938 125.25415802001953 L 211.757568359375 49.92271041870117 L 241.5050506591797 35.40138244628906 L 271.2525329589844 33.49676513671875 L 301 35.307804107666016 L 330.7474670410156 35.307804107666016 L 360.4949645996094 33.49676513671875 L 390.242431640625 35.40138244628906 L 419.9898986816406 46.592384338378906 L 449.73736572265625 148.79214477539062 L 479.48486328125 249.50013732910156 L 509.2323303222656 221.09051513671875 L 538.9797973632812 203.55262756347656 L 568.727294921875 352.6742248535156" stroke-opacity="0.14901960784313725" stroke-linejoin="bevel" stroke-miterlimit="10" stroke-width="2" stroke-dasharray="" clip-path="url(#UmXwVVLenVhK)"/><path fill="none" stroke="rgb(0,0,0)" paint-order="fill" d="M 33.272727966308594 459.9822998046875 L 63.02020263671875 309.6772155761719 L 92.7676773071289 240.02659606933594 L 122.51515197753906 212.68487548828125 L 152.2626190185547 302.3725280761719 L 182.01010131835938 150.83438110351562 L 211.757568359375 64.93946075439453 L 241.5050506591797 38.72620391845703 L 271.2525329589844 33.49676513671875 L 301 35.307804107666016 L 330.7474670410156 35.307804107666016 L 360.4949645996094 33.49676513671875 L 390.242431640625 35.40138244628906 L 419.9898986816406 49.92271041870117 L 449.73736572265625 125.25415802001953 L 479.48486328125 288.7484436035156 L 509.2323303222656 213.78030395507812 L 538.9797973632812 216.69227600097656 L 568.727294921875 289.1392822265625" stroke-opacity="0.14901960784313725" stroke-linejoin="bevel" stroke-miterlimit="10" stroke-width="2" stroke-dasharray="" clip-path="url(#CRzdgpibhaGL)"/><path fill="none" stroke="rgb(0,0,0)" paint-order="fill" d="M 33.272727966308594 459.9822998046875 L 63.02020263671875 289.1392822265625 L 92.7676773071289 216.69227600097656 L 122.51515197753906 147.0306396484375 L 152.2626190185547 92.79310607910156 L 182.01010131835938 172.6218719482422 L 211.757568359375 108.03003692626953 L 241.5050506591797 80.46263885498047 L 271.2525329589844 65.20368194580078 L 301 70.3670654296875 L 330.7474670410156 35.307804107666016 L 360.4949645996094 33.49676513671875 L 390.242431640625 35.40138244628906 L 419.9898986816406 49.92271041870117 L 449.73736572265625 125.25415802001953 L 479.48486328125 288.7484436035156 L 509.2323303222656 213.78030395507812 L 538.9797973632812 216.69227600097656 L 568.727294921875 289.1392822265625" stroke-opacity="0.14901960784313725" stroke-linejoin="bevel" stroke-miterlimit="10" stroke-width="2" stroke-dasharray="" clip-path="url(#CReWFAtIclen)"/><path fill="none" stroke="rgb(0,0,0)" paint-order="fill" d="M 33.272727966308594 459.9822998046875 L 63.02020263671875 289.1392822265625 L 92.7676773071289 216.69227600097656 L 122.51515197753906 213.78030395507812 L 152.2626190185547 288.7484436035156 L 182.01010131835938 125.25415802001953 L 211.757568359375 49.92271041870117 L 241.5050506591797 35.40138244628906 L 271.2525329589844 33.49676513671875 L 301 35.307804107666016 L 330.7474670410156 35.307804107666016 L 360.4949645996094 52.90624237060547 L 390.242431640625 118.49992370605469 L 419.9898986816406 129.34413146972656 L 449.73736572265625 167.31536865234375 L 479.48486328125 232.622802734375 L 509.2323303222656 232.22096252441406 L 538.9797973632812 266.21783447265625 L 568.727294921875 289.1392822265625" stroke-opacity="0.14901960784313725" stroke-linejoin="bevel" stroke-miterlimit="10" stroke-width="2" stroke-dasharray="" clip-path="url(#WiHXskQRhhCl)"/><path fill="none" stroke="rgb(0,0,0)" paint-order="fill" d="M 33.272727966308594 459.9822998046875 L 63.02020263671875 289.1392822265625 L 92.7676773071289 216.69227600097656 L 122.51515197753906 213.78030395507812 L 152.2626190185547 288.7484436035156 L 182.01010131835938 125.25415802001953 L 211.757568359375 49.92271041870117 L 241.5050506591797 35.40138244628906 L 271.2525329589844 33.49676513671875 L 301 35.307804107666016 L 330.7474670410156 70.3670654296875 L 360.4949645996094 65.20368194580078 L 390.242431640625 80.46263885498047 L 419.9898986816406 108.03003692626953 L 449.73736572265625 172.6218719482422 L 479.48486328125 92.79310607910156 L 509.2323303222656 147.0306396484375 L 538.9797973632812 216.69227600097656 L 568.727294921875 289.1392822265625" stroke-opacity="0.14901960784313725" stroke-linejoin="bevel" stroke-miterlimit="10" stroke-width="2" stroke-dasharray="" clip-path="url(#HAnlhgXvLZAO)"/><path fill="none" stroke="rgb(0,0,0)" paint-order="fill" d="M 33.272727966308594 459.9822998046875 L 63.02020263671875 289.1392822265625 L 92.7676773071289 216.69227600097656 L 122.51515197753906 213.78030395507812 L 152.2626190185547 288.7484436035156 L 182.01010131835938 125.25415802001953 L 211.757568359375 49.92271041870117 L 241.5050506591797 35.40138244628906 L 271.2525329589844 33.49676513671875 L 301 35.307804107666016 L 330.7474670410156 35.307804107666016 L 360.4949645996094 40.61430740356445 L 390.242431640625 55.26774597167969 L 419.9898986816406 231.3622283935547 L 449.73736572265625 308.8294982910156 L 479.48486328125 386.472900390625 L 509.2323303222656 341.7914733886719 L 538.9797973632812 282.9134826660156 L 568.727294921875 289.1392822265625" stroke-opacity="0.14901960784313725" stroke-linejoin="bevel" stroke-miterlimit="10" stroke-width="2" stroke-dasharray="" clip-path="url(#EZVVOKsKzGGi)"/><path fill="none" stroke="rgb(0,0,0)" paint-order="fill" d="M 33.272727966308594 459.9822998046875 L 63.02020263671875 289.1392822265625 L 92.7676773071289 216.69227600097656 L 122.51515197753906 213.78030395507812 L 152.2626190185547 288.7484436035156 L 182.01010131835938 125.25415802001953 L 211.757568359375 203.53060913085938 L 241.5050506591797 249.71481323242188 L 271.2525329589844 294.7375183105469 L 301 374.8470458984375 L 330.7474670410156 328.018798828125 L 360.4949645996094 195.1414794921875 L 390.242431640625 112.81909942626953 L 419.9898986816406 49.92271041870117 L 449.73736572265625 125.25415802001953 L 479.48486328125 288.7484436035156 L 509.2323303222656 213.78030395507812 L 538.9797973632812 216.69227600097656 L 568.727294921875 289.1392822265625" stroke-opacity="0.14901960784313725" stroke-linejoin="bevel" stroke-miterlimit="10" stroke-width="2" stroke-dasharray="" clip-path="url(#aPFSPUJxeDem)"/><path fill="none" stroke="rgb(0,0,0)" paint-order="fill" d="M 33.272727966308594 445.47198486328125 L 63.02020263671875 352.6742248535156 L 92.7676773071289 203.55262756347656 L 122.51515197753906 221.09051513671875 L 152.2626190185547 249.50013732910156 L 182.01010131835938 148.79214477539062 L 211.757568359375 46.592384338378906 L 241.5050506591797 35.40138244628906 L 271.2525329589844 33.49676513671875 L 301 35.307804107666016 L 330.7474670410156 35.307804107666016 L 360.4949645996094 33.49676513671875 L 390.242431640625 35.40138244628906 L 419.9898986816406 49.92271041870117 L 449.73736572265625 125.25415802001953 L 479.48486328125 288.7484436035156 L 509.2323303222656 213.78030395507812 L 538.9797973632812 216.69227600097656 L 568.727294921875 289.1392822265625" stroke-opacity="0.14901960784313725" stroke-linejoin="bevel" stroke-miterlimit="10" stroke-width="2" stroke-dasharray="" clip-path="url(#LqHdQiDhTPvB)"/><path fill="none" stroke="rgb(0,0,0)" paint-order="fill" d="M 33.272727966308594 459.9822998046875 L 63.02020263671875 289.1392822265625 L 92.7676773071289 216.69227600097656 L 122.51515197753906 213.78030395507812 L 152.2626190185547 288.7484436035156 L 182.01010131835938 125.25415802001953 L 211.757568359375 49.92271041870117 L 241.5050506591797 35.40138244628906 L 271.2525329589844 46.92816925048828 L 301 46.68596267700195 L 330.7474670410156 70.43862915039062 L 360.4949645996094 96.21701049804688 L 390.242431640625 174.80722045898438 L 419.9898986816406 173.9429931640625 L 449.73736572265625 288.7484436035156 L 479.48486328125 288.7484436035156 L 509.2323303222656 213.78030395507812 L 538.9797973632812 216.69227600097656 L 568.727294921875 289.1392822265625" stroke-opacity="0.14901960784313725" stroke-linejoin="bevel" stroke-miterlimit="10" stroke-width="2" stroke-dasharray="" clip-path="url(#ekShSZpIEgXP)"/><path fill="none" stroke="rgb(0,0,0)" paint-order="fill" d="M 33.272727966308594 459.9822998046875 L 63.02020263671875 289.1392822265625 L 92.7676773071289 216.69227600097656 L 122.51515197753906 213.78030395507812 L 152.2626190185547 288.7484436035156 L 182.01010131835938 125.25415802001953 L 211.757568359375 49.92271041870117 L 241.5050506591797 112.81909942626953 L 271.2525329589844 195.1414794921875 L 301 328.018798828125 L 330.7474670410156 374.8470458984375 L 360.4949645996094 294.7375183105469 L 390.242431640625 249.71481323242188 L 419.9898986816406 203.53060913085938 L 449.73736572265625 125.25415802001953 L 479.48486328125 288.7484436035156 L 509.2323303222656 213.78030395507812 L 538.9797973632812 216.69227600097656 L 568.727294921875 289.1392822265625" stroke-opacity="0.14901960784313725" stroke-linejoin="bevel" stroke-miterlimit="10" stroke-width="2" stroke-dasharray="" clip-path="url(#XlteCLAdwsNT)"/><path fill="none" stroke="rgb(0,0,0)" paint-order="fill" d="M 33.272727966308594 459.9822998046875 L 63.02020263671875 289.1392822265625 L 92.7676773071289 216.69227600097656 L 122.51515197753906 213.78030395507812 L 152.2626190185547 288.7484436035156 L 182.01010131835938 349.9769287109375 L 211.757568359375 324.52880859375 L 241.5050506591797 316.0020751953125 L 271.2525329589844 195.51580810546875 L 301 179.96510314941406 L 330.7474670410156 49.91170120239258 L 360.4949645996094 37.01975631713867 L 390.242431640625 35.40138244628906 L 419.9898986816406 49.92271041870117 L 449.73736572265625 125.25415802001953 L 479.48486328125 288.7484436035156 L 509.2323303222656 213.78030395507812 L 538.9797973632812 216.69227600097656 L 568.727294921875 289.1392822265625" stroke-opacity="0.14901960784313725" stroke-linejoin="bevel" stroke-miterlimit="10" stroke-width="2" stroke-dasharray="" clip-path="url(#MbDHKOnzMMNd)"/><path fill="none" stroke="rgb(0,0,0)" paint-order="fill" d="M 33.272727966308594 459.9822998046875 L 63.02020263671875 289.1392822265625 L 92.7676773071289 216.69227600097656 L 122.51515197753906 213.78030395507812 L 152.2626190185547 288.7484436035156 L 182.01010131835938 125.25415802001953 L 211.757568359375 49.92271041870117 L 241.5050506591797 35.40138244628906 L 271.2525329589844 33.49676513671875 L 301 33.260066986083984 L 330.7474670410156 42.4638786315918 L 360.4949645996094 42.81617736816406 L 390.242431640625 51.39796447753906 L 419.9898986816406 90.81692504882812 L 449.73736572265625 125.27067565917969 L 479.48486328125 205.42420959472656 L 509.2323303222656 213.78030395507812 L 538.9797973632812 216.69227600097656 L 568.727294921875 289.1392822265625" stroke-opacity="0.14901960784313725" stroke-linejoin="bevel" stroke-miterlimit="10" stroke-width="2" stroke-dasharray="" clip-path="url(#FOyOfOioaTNR)"/><path fill="none" stroke="rgb(0,0,0)" paint-order="fill" d="M 33.272727966308594 459.9822998046875 L 63.02020263671875 289.1392822265625 L 92.7676773071289 216.69227600097656 L 122.51515197753906 213.78030395507812 L 152.2626190185547 194.58551025390625 L 182.01010131835938 227.9768524169922 L 211.757568359375 194.4974365234375 L 241.5050506591797 145.10400390625 L 271.2525329589844 68.42391967773438 L 301 71.77626037597656 L 330.7474670410156 36.28213119506836 L 360.4949645996094 33.49676513671875 L 390.242431640625 35.40138244628906 L 419.9898986816406 49.92271041870117 L 449.73736572265625 125.25415802001953 L 479.48486328125 288.7484436035156 L 509.2323303222656 213.78030395507812 L 538.9797973632812 216.69227600097656 L 568.727294921875 289.1392822265625" stroke-opacity="0.14901960784313725" stroke-linejoin="bevel" stroke-miterlimit="10" stroke-width="2" stroke-dasharray="" clip-path="url(#aWCLJubaMGyn)"/><path fill="none" stroke="rgb(0,0,0)" paint-order="fill" d="M 33.272727966308594 459.9822998046875 L 63.02020263671875 289.1392822265625 L 92.7676773071289 216.69227600097656 L 122.51515197753906 213.78030395507812 L 152.2626190185547 288.7484436035156 L 182.01010131835938 125.25415802001953 L 211.757568359375 142.5718536376953 L 241.5050506591797 118.1366195678711 L 271.2525329589844 102.8776626586914 L 301 130.34597778320312 L 330.7474670410156 102.10150146484375 L 360.4949645996094 59.35771942138672 L 390.242431640625 53.07138442993164 L 419.9898986816406 49.92271041870117 L 449.73736572265625 125.25415802001953 L 479.48486328125 288.7484436035156 L 509.2323303222656 213.78030395507812 L 538.9797973632812 216.69227600097656 L 568.727294921875 289.1392822265625" stroke-opacity="0.14901960784313725" stroke-linejoin="bevel" stroke-miterlimit="10" stroke-width="2" stroke-dasharray="" clip-path="url(#VTQltQMDxrQJ)"/><path fill="none" stroke="rgb(0,0,0)" paint-order="fill" d="M 33.272727966308594 459.9822998046875 L 63.02020263671875 289.1392822265625 L 92.7676773071289 216.69227600097656 L 122.51515197753906 213.78030395507812 L 152.2626190185547 288.7484436035156 L 182.01010131835938 125.25415802001953 L 211.757568359375 49.92271041870117 L 241.5050506591797 133.46713256835938 L 271.2525329589844 186.967041015625 L 301 245.75144958496094 L 330.7474670410156 297.60546875 L 360.4949645996094 220.60610961914062 L 390.242431640625 300.6990966796875 L 419.9898986816406 304.3211669921875 L 449.73736572265625 125.25415802001953 L 479.48486328125 288.7484436035156 L 509.2323303222656 213.78030395507812 L 538.9797973632812 216.69227600097656 L 568.727294921875 289.1392822265625" stroke-opacity="0.14901960784313725" stroke-linejoin="bevel" stroke-miterlimit="10" stroke-width="2" stroke-dasharray="" clip-path="url(#JvnGGkgWpUmn)"/><path fill="none" stroke="rgb(0,0,0)" paint-order="fill" d="M 33.272727966308594 459.9822998046875 L 63.02020263671875 289.1392822265625 L 92.7676773071289 216.69227600097656 L 122.51515197753906 213.78030395507812 L 152.2626190185547 288.7484436035156 L 182.01010131835938 125.25415802001953 L 211.757568359375 49.92271041870117 L 241.5050506591797 35.40138244628906 L 271.2525329589844 37.01975631713867 L 301 49.91170120239258 L 330.7474670410156 179.96510314941406 L 360.4949645996094 195.51580810546875 L 390.242431640625 316.0020751953125 L 419.9898986816406 324.52880859375 L 449.73736572265625 349.9769287109375 L 479.48486328125 288.7484436035156 L 509.2323303222656 213.78030395507812 L 538.9797973632812 216.69227600097656 L 568.727294921875 289.1392822265625" stroke-opacity="0.14901960784313725" stroke-linejoin="bevel" stroke-miterlimit="10" stroke-width="2" stroke-dasharray="" clip-path="url(#GPEwTTshzOZK)"/><path fill="none" stroke="rgb(0,0,0)" paint-order="fill" d="M 33.272727966308594 444.8004150390625 L 63.02020263671875 295.4476318359375 L 92.7676773071289 239.47061157226562 L 122.51515197753906 337.195068359375 L 152.2626190185547 318.3746032714844 L 182.01010131835938 173.65675354003906 L 211.757568359375 48.161216735839844 L 241.5050506591797 35.40138244628906 L 271.2525329589844 33.49676513671875 L 301 35.307804107666016 L 330.7474670410156 35.307804107666016 L 360.4949645996094 33.49676513671875 L 390.242431640625 35.40138244628906 L 419.9898986816406 49.92271041870117 L 449.73736572265625 125.25415802001953 L 479.48486328125 288.7484436035156 L 509.2323303222656 213.78030395507812 L 538.9797973632812 216.69227600097656 L 568.727294921875 289.1392822265625" stroke-opacity="0.14901960784313725" stroke-linejoin="bevel" stroke-miterlimit="10" stroke-width="2" stroke-dasharray="" clip-path="url(#zdXNwoorTqfN)"/><path fill="none" stroke="rgb(0,0,0)" paint-order="fill" d="M 33.272727966308594 459.9822998046875 L 63.02020263671875 289.1392822265625 L 92.7676773071289 216.69227600097656 L 122.51515197753906 213.78030395507812 L 152.2626190185547 305.31201171875 L 182.01010131835938 298.4862060546875 L 211.757568359375 245.05235290527344 L 241.5050506591797 175.2476043701172 L 271.2525329589844 73.30105590820312 L 301 61.801795959472656 L 330.7474670410156 35.274776458740234 L 360.4949645996094 33.49676513671875 L 390.242431640625 35.40138244628906 L 419.9898986816406 49.92271041870117 L 449.73736572265625 125.25415802001953 L 479.48486328125 288.7484436035156 L 509.2323303222656 213.78030395507812 L 538.9797973632812 216.69227600097656 L 568.727294921875 289.1392822265625" stroke-opacity="0.14901960784313725" stroke-linejoin="bevel" stroke-miterlimit="10" stroke-width="2" stroke-dasharray="" clip-path="url(#ZzqVTyBPbawg)"/><path fill="none" stroke="rgb(0,0,0)" paint-order="fill" d="M 33.272727966308594 459.9822998046875 L 63.02020263671875 289.1392822265625 L 92.7676773071289 216.69227600097656 L 122.51515197753906 287.0254821777344 L 152.2626190185547 385.1352844238281 L 182.01010131835938 347.96221923828125 L 211.757568359375 348.1273498535156 L 241.5050506591797 192.11392211914062 L 271.2525329589844 84.77279663085938 L 301 76.6258773803711 L 330.7474670410156 35.307804107666016 L 360.4949645996094 33.49676513671875 L 390.242431640625 35.40138244628906 L 419.9898986816406 49.92271041870117 L 449.73736572265625 125.25415802001953 L 479.48486328125 288.7484436035156 L 509.2323303222656 213.78030395507812 L 538.9797973632812 216.69227600097656 L 568.727294921875 289.1392822265625" stroke-opacity="0.14901960784313725" stroke-linejoin="bevel" stroke-miterlimit="10" stroke-width="2" stroke-dasharray="" clip-path="url(#gSvADRMhNRCe)"/><path fill="none" stroke="rgb(0,0,0)" paint-order="fill" d="M 33.272727966308594 459.9822998046875 L 63.02020263671875 289.1392822265625 L 92.7676773071289 344.3291320800781 L 122.51515197753906 327.6279602050781 L 152.2626190185547 310.3542785644531 L 182.01010131835938 222.16943359375 L 211.757568359375 55.0640754699707 L 241.5050506591797 35.35184097290039 L 271.2525329589844 33.37566375732422 L 301 35.307804107666016 L 330.7474670410156 35.307804107666016 L 360.4949645996094 33.49676513671875 L 390.242431640625 35.40138244628906 L 419.9898986816406 49.92271041870117 L 449.73736572265625 125.25415802001953 L 479.48486328125 288.7484436035156 L 509.2323303222656 213.78030395507812 L 538.9797973632812 216.69227600097656 L 568.727294921875 289.1392822265625" stroke-opacity="0.14901960784313725" stroke-linejoin="bevel" stroke-miterlimit="10" stroke-width="2" stroke-dasharray="" clip-path="url(#MuEKkLPMtdeQ)"/><path fill="none" stroke="rgb(0,0,0)" paint-order="fill" d="M 33.272727966308594 459.9822998046875 L 63.02020263671875 289.1392822265625 L 92.7676773071289 216.69227600097656 L 122.51515197753906 213.78030395507812 L 152.2626190185547 288.7484436035156 L 182.01010131835938 125.25415802001953 L 211.757568359375 49.92271041870117 L 241.5050506591797 35.40138244628906 L 271.2525329589844 33.49676513671875 L 301 35.307804107666016 L 330.7474670410156 35.307804107666016 L 360.4949645996094 33.37566375732422 L 390.242431640625 35.35184097290039 L 419.9898986816406 55.0640754699707 L 449.73736572265625 222.16943359375 L 479.48486328125 310.3542785644531 L 509.2323303222656 327.6279602050781 L 538.9797973632812 344.3291320800781 L 568.727294921875 289.1392822265625" stroke-opacity="0.14901960784313725" stroke-linejoin="bevel" stroke-miterlimit="10" stroke-width="2" stroke-dasharray="" clip-path="url(#FctpIbdToUew)"/><path fill="none" stroke="rgb(0,0,0)" paint-order="fill" d="M 33.272727966308594 459.9822998046875 L 63.02020263671875 289.1392822265625 L 92.7676773071289 266.21783447265625 L 122.51515197753906 232.22096252441406 L 152.2626190185547 232.622802734375 L 182.01010131835938 167.31536865234375 L 211.757568359375 129.34413146972656 L 241.5050506591797 118.49992370605469 L 271.2525329589844 52.90624237060547 L 301 35.307804107666016 L 330.7474670410156 35.307804107666016 L 360.4949645996094 33.49676513671875 L 390.242431640625 35.40138244628906 L 419.9898986816406 49.92271041870117 L 449.73736572265625 125.25415802001953 L 479.48486328125 288.7484436035156 L 509.2323303222656 213.78030395507812 L 538.9797973632812 216.69227600097656 L 568.727294921875 289.1392822265625" stroke-opacity="0.14901960784313725" stroke-linejoin="bevel" stroke-miterlimit="10" stroke-width="2" stroke-dasharray="" clip-path="url(#CPKuCfZdEJCA)"/><path fill="none" stroke="rgb(0,0,0)" paint-order="fill" d="M 33.272727966308594 459.9822998046875 L 63.02020263671875 289.1392822265625 L 92.7676773071289 216.69227600097656 L 122.51515197753906 192.96163940429688 L 152.2626190185547 310.1506042480469 L 182.01010131835938 301.83856201171875 L 211.757568359375 269.95550537109375 L 241.5050506591797 197.7672119140625 L 271.2525329589844 105.5639419555664 L 301 78.92683410644531 L 330.7474670410156 35.307804107666016 L 360.4949645996094 33.49676513671875 L 390.242431640625 35.40138244628906 L 419.9898986816406 49.92271041870117 L 449.73736572265625 125.25415802001953 L 479.48486328125 288.7484436035156 L 509.2323303222656 213.78030395507812 L 538.9797973632812 216.69227600097656 L 568.727294921875 289.1392822265625" stroke-opacity="0.14901960784313725" stroke-linejoin="bevel" stroke-miterlimit="10" stroke-width="2" stroke-dasharray="" clip-path="url(#CocTtksOSXkA)"/><path fill="none" stroke="rgb(0,0,0)" paint-order="fill" d="M 33.272727966308594 459.9822998046875 L 63.02020263671875 289.1392822265625 L 92.7676773071289 216.69227600097656 L 122.51515197753906 213.78030395507812 L 152.2626190185547 288.7484436035156 L 182.01010131835938 125.25415802001953 L 211.757568359375 304.3211669921875 L 241.5050506591797 300.6990966796875 L 271.2525329589844 220.60610961914062 L 301 297.60546875 L 330.7474670410156 245.75144958496094 L 360.4949645996094 186.967041015625 L 390.242431640625 133.46713256835938 L 419.9898986816406 49.92271041870117 L 449.73736572265625 125.25415802001953 L 479.48486328125 288.7484436035156 L 509.2323303222656 213.78030395507812 L 538.9797973632812 216.69227600097656 L 568.727294921875 289.1392822265625" stroke-opacity="0.14901960784313725" stroke-linejoin="bevel" stroke-miterlimit="10" stroke-width="2" stroke-dasharray="" clip-path="url(#ASQiBfQRxnHr)"/><path fill="none" stroke="rgb(0,0,0)" paint-order="fill" d="M 33.272727966308594 459.9822998046875 L 63.02020263671875 289.1392822265625 L 92.7676773071289 216.69227600097656 L 122.51515197753906 213.78030395507812 L 152.2626190185547 288.7484436035156 L 182.01010131835938 125.25415802001953 L 211.757568359375 49.92271041870117 L 241.5050506591797 35.40138244628906 L 271.2525329589844 33.49676513671875 L 301 35.307804107666016 L 330.7474670410156 35.307804107666016 L 360.4949645996094 33.49676513671875 L 390.242431640625 36.9647102355957 L 419.9898986816406 59.159549713134766 L 449.73736572265625 252.3185272216797 L 479.48486328125 314.8681335449219 L 509.2323303222656 236.1623077392578 L 538.9797973632812 336.58404541015625 L 568.727294921875 226.91445922851562" stroke-opacity="0.14901960784313725" stroke-linejoin="bevel" stroke-miterlimit="10" stroke-width="2" stroke-dasharray="" clip-path="url(#xkBTVXCRXdpO)"/><path fill="none" stroke="rgb(0,0,0)" paint-order="fill" d="M 33.272727966308594 459.9822998046875 L 63.02020263671875 289.1392822265625 L 92.7676773071289 216.69227600097656 L 122.51515197753906 213.78030395507812 L 152.2626190185547 288.7484436035156 L 182.01010131835938 125.25415802001953 L 211.757568359375 49.92271041870117 L 241.5050506591797 35.40138244628906 L 271.2525329589844 33.49676513671875 L 301 36.28213119506836 L 330.7474670410156 71.77626037597656 L 360.4949645996094 68.42391967773438 L 390.242431640625 145.10400390625 L 419.9898986816406 194.4974365234375 L 449.73736572265625 227.9768524169922 L 479.48486328125 194.58551025390625 L 509.2323303222656 213.78030395507812 L 538.9797973632812 216.69227600097656 L 568.727294921875 289.1392822265625" stroke-opacity="0.14901960784313725" stroke-linejoin="bevel" stroke-miterlimit="10" stroke-width="2" stroke-dasharray="" clip-path="url(#kmuwIFuoOFTT)"/><path fill="none" stroke="rgb(0,0,0)" paint-order="fill" d="M 33.272727966308594 459.9822998046875 L 63.02020263671875 289.1392822265625 L 92.7676773071289 216.69227600097656 L 122.51515197753906 213.78030395507812 L 152.2626190185547 288.7484436035156 L 182.01010131835938 125.25415802001953 L 211.757568359375 49.92271041870117 L 241.5050506591797 35.40138244628906 L 271.2525329589844 33.49676513671875 L 301 35.307804107666016 L 330.7474670410156 35.307804107666016 L 360.4949645996094 33.49676513671875 L 390.242431640625 35.40138244628906 L 419.9898986816406 49.92271041870117 L 449.73736572265625 126.31655883789062 L 479.48486328125 232.51821899414062 L 509.2323303222656 205.45724487304688 L 538.9797973632812 205.45724487304688 L 568.727294921875 232.51821899414062" stroke-opacity="0.14901960784313725" stroke-linejoin="bevel" stroke-miterlimit="10" stroke-width="2" stroke-dasharray="" clip-path="url(#RckrQcgKbbIa)"/><path fill="none" stroke="rgb(0,0,0)" paint-order="fill" d="M 33.272727966308594 459.9822998046875 L 63.02020263671875 289.1392822265625 L 92.7676773071289 216.69227600097656 L 122.51515197753906 213.78030395507812 L 152.2626190185547 288.7484436035156 L 182.01010131835938 125.25415802001953 L 211.757568359375 49.92271041870117 L 241.5050506591797 35.40138244628906 L 271.2525329589844 33.49676513671875 L 301 35.307804107666016 L 330.7474670410156 35.307804107666016 L 360.4949645996094 33.49676513671875 L 390.242431640625 35.40138244628906 L 419.9898986816406 49.92271041870117 L 449.73736572265625 151.30776977539062 L 479.48486328125 289.92645263671875 L 509.2323303222656 271.689453125 L 538.9797973632812 303.64959716796875 L 568.727294921875 324.3031311035156" stroke-opacity="0.14901960784313725" stroke-linejoin="bevel" stroke-miterlimit="10" stroke-width="2" stroke-dasharray="" clip-path="url(#nludkCAmDrKm)"/><path fill="none" stroke="rgb(0,0,0)" paint-order="fill" d="M 33.272727966308594 459.9822998046875 L 63.02020263671875 289.1392822265625 L 92.7676773071289 216.69227600097656 L 122.51515197753906 213.78030395507812 L 152.2626190185547 288.7484436035156 L 182.01010131835938 125.25415802001953 L 211.757568359375 49.92271041870117 L 241.5050506591797 35.40138244628906 L 271.2525329589844 33.49676513671875 L 301 35.307804107666016 L 330.7474670410156 35.307804107666016 L 360.4949645996094 33.49676513671875 L 390.242431640625 35.40138244628906 L 419.9898986816406 49.92271041870117 L 449.73736572265625 85.45537567138672 L 479.48486328125 178.32470703125 L 509.2323303222656 141.92230224609375 L 538.9797973632812 157.58309936523438 L 568.727294921875 193.6221923828125" stroke-opacity="0.14901960784313725" stroke-linejoin="bevel" stroke-miterlimit="10" stroke-width="2" stroke-dasharray="" clip-path="url(#kQnxXrPPtLXh)"/><path fill="none" stroke="rgb(0,0,0)" paint-order="fill" d="M 33.272727966308594 459.9822998046875 L 63.02020263671875 289.1392822265625 L 92.7676773071289 216.69227600097656 L 122.51515197753906 213.78030395507812 L 152.2626190185547 288.7484436035156 L 182.01010131835938 125.25415802001953 L 211.757568359375 49.92271041870117 L 241.5050506591797 35.40138244628906 L 271.2525329589844 33.49676513671875 L 301 35.307804107666016 L 330.7474670410156 35.307804107666016 L 360.4949645996094 33.49676513671875 L 390.242431640625 37.10783004760742 L 419.9898986816406 52.73009490966797 L 449.73736572265625 195.26258850097656 L 479.48486328125 317.7635803222656 L 509.2323303222656 332.3069152832031 L 538.9797973632812 443.42425537109375 L 568.727294921875 424.44415283203125" stroke-opacity="0.14901960784313725" stroke-linejoin="bevel" stroke-miterlimit="10" stroke-width="2" stroke-dasharray="" clip-path="url(#WXoeMPEPcSsG)"/><path fill="none" stroke="rgb(0,0,0)" paint-order="fill" d="M 33.272727966308594 459.9822998046875 L 63.02020263671875 226.91445922851562 L 92.7676773071289 336.58404541015625 L 122.51515197753906 236.1623077392578 L 152.2626190185547 314.8681335449219 L 182.01010131835938 252.3185272216797 L 211.757568359375 59.159549713134766 L 241.5050506591797 36.9647102355957 L 271.2525329589844 33.49676513671875 L 301 35.307804107666016 L 330.7474670410156 35.307804107666016 L 360.4949645996094 33.49676513671875 L 390.242431640625 35.40138244628906 L 419.9898986816406 49.92271041870117 L 449.73736572265625 125.25415802001953 L 479.48486328125 288.7484436035156 L 509.2323303222656 213.78030395507812 L 538.9797973632812 216.69227600097656 L 568.727294921875 289.1392822265625" stroke-opacity="0.14901960784313725" stroke-linejoin="bevel" stroke-miterlimit="10" stroke-width="2" stroke-dasharray="" clip-path="url(#TXrWtxZNleEi)"/><path fill="none" stroke="rgb(0,0,0)" paint-order="fill" d="M 33.272727966308594 459.9822998046875 L 63.02020263671875 289.1392822265625 L 92.7676773071289 216.69227600097656 L 122.51515197753906 213.78030395507812 L 152.2626190185547 288.7484436035156 L 182.01010131835938 339.8373107910156 L 211.757568359375 486.2506103515625 L 241.5050506591797 363.1330871582031 L 271.2525329589844 282.9300231933594 L 301 257.96630859375 L 330.7474670410156 90.78389739990234 L 360.4949645996094 54.61268997192383 L 390.242431640625 35.40138244628906 L 419.9898986816406 49.92271041870117 L 449.73736572265625 125.25415802001953 L 479.48486328125 288.7484436035156 L 509.2323303222656 213.78030395507812 L 538.9797973632812 216.69227600097656 L 568.727294921875 289.1392822265625" stroke-opacity="0.14901960784313725" stroke-linejoin="bevel" stroke-miterlimit="10" stroke-width="2" stroke-dasharray="" clip-path="url(#ECZoSznHyzRi)"/><path fill="none" stroke="rgb(0,0,0)" paint-order="fill" d="M 33.272727966308594 459.9822998046875 L 63.02020263671875 289.1392822265625 L 92.7676773071289 216.69227600097656 L 122.51515197753906 213.78030395507812 L 152.2626190185547 288.7484436035156 L 182.01010131835938 125.25415802001953 L 211.757568359375 49.92271041870117 L 241.5050506591797 35.40138244628906 L 271.2525329589844 54.61268997192383 L 301 90.78389739990234 L 330.7474670410156 257.96630859375 L 360.4949645996094 282.9300231933594 L 390.242431640625 363.1330871582031 L 419.9898986816406 486.2506103515625 L 449.73736572265625 339.8373107910156 L 479.48486328125 288.7484436035156 L 509.2323303222656 213.78030395507812 L 538.9797973632812 216.69227600097656 L 568.727294921875 289.1392822265625" stroke-opacity="0.14901960784313725" stroke-linejoin="bevel" stroke-miterlimit="10" stroke-width="2" stroke-dasharray="" clip-path="url(#CzRkgdzgCZAx)"/><path fill="none" stroke="rgb(0,0,0)" paint-order="fill" d="M 33.272727966308594 459.9822998046875 L 63.02020263671875 289.1392822265625 L 92.7676773071289 216.69227600097656 L 122.51515197753906 213.78030395507812 L 152.2626190185547 288.7484436035156 L 182.01010131835938 125.25415802001953 L 211.757568359375 49.92271041870117 L 241.5050506591797 35.40138244628906 L 271.2525329589844 33.49676513671875 L 301 35.307804107666016 L 330.7474670410156 35.307804107666016 L 360.4949645996094 33.49676513671875 L 390.242431640625 35.40138244628906 L 419.9898986816406 48.161216735839844 L 449.73736572265625 173.65675354003906 L 479.48486328125 318.3746032714844 L 509.2323303222656 337.195068359375 L 538.9797973632812 239.47061157226562 L 568.727294921875 295.4476318359375" stroke-opacity="0.14901960784313725" stroke-linejoin="bevel" stroke-miterlimit="10" stroke-width="2" stroke-dasharray="" clip-path="url(#VnQRwSooMMFN)"/><path fill="none" stroke="rgb(0,0,0)" paint-order="fill" d="M 33.272727966308594 459.9822998046875 L 63.02020263671875 289.1392822265625 L 92.7676773071289 216.69227600097656 L 122.51515197753906 213.78030395507812 L 152.2626190185547 288.7484436035156 L 182.01010131835938 125.25415802001953 L 211.757568359375 49.92271041870117 L 241.5050506591797 35.40138244628906 L 271.2525329589844 33.49676513671875 L 301 35.307804107666016 L 330.7474670410156 35.307804107666016 L 360.4949645996094 33.49676513671875 L 390.242431640625 38.72620391845703 L 419.9898986816406 64.93946075439453 L 449.73736572265625 150.83438110351562 L 479.48486328125 302.3725280761719 L 509.2323303222656 212.68487548828125 L 538.9797973632812 240.02659606933594 L 568.727294921875 309.6772155761719" stroke-opacity="0.14901960784313725" stroke-linejoin="bevel" stroke-miterlimit="10" stroke-width="2" stroke-dasharray="" clip-path="url(#NyUMBqPwSHOv)"/><path fill="none" stroke="rgb(0,0,0)" paint-order="fill" d="M 33.272727966308594 459.9822998046875 L 63.02020263671875 289.1392822265625 L 92.7676773071289 282.9134826660156 L 122.51515197753906 341.7914733886719 L 152.2626190185547 386.472900390625 L 182.01010131835938 308.8294982910156 L 211.757568359375 231.3622283935547 L 241.5050506591797 55.26774597167969 L 271.2525329589844 40.61430740356445 L 301 35.307804107666016 L 330.7474670410156 35.307804107666016 L 360.4949645996094 33.49676513671875 L 390.242431640625 35.40138244628906 L 419.9898986816406 49.92271041870117 L 449.73736572265625 125.25415802001953 L 479.48486328125 288.7484436035156 L 509.2323303222656 213.78030395507812 L 538.9797973632812 216.69227600097656 L 568.727294921875 289.1392822265625" stroke-opacity="0.14901960784313725" stroke-linejoin="bevel" stroke-miterlimit="10" stroke-width="2" stroke-dasharray="" clip-path="url(#dZJkuNRBCRSz)"/><path fill="none" stroke="rgb(0,0,0)" paint-order="fill" d="M 33.272727966308594 459.9822998046875 L 63.02020263671875 424.44415283203125 L 92.7676773071289 443.42425537109375 L 122.51515197753906 332.3069152832031 L 152.2626190185547 317.7635803222656 L 182.01010131835938 195.26258850097656 L 211.757568359375 52.73009490966797 L 241.5050506591797 37.10783004760742 L 271.2525329589844 33.49676513671875 L 301 35.307804107666016 L 330.7474670410156 35.307804107666016 L 360.4949645996094 33.49676513671875 L 390.242431640625 35.40138244628906 L 419.9898986816406 49.92271041870117 L 449.73736572265625 125.25415802001953 L 479.48486328125 288.7484436035156 L 509.2323303222656 213.78030395507812 L 538.9797973632812 216.69227600097656 L 568.727294921875 289.1392822265625" stroke-opacity="0.14901960784313725" stroke-linejoin="bevel" stroke-miterlimit="10" stroke-width="2" stroke-dasharray="" clip-path="url(#GoFiIMRXiJPZ)"/><path fill="none" stroke="rgb(0,0,0)" paint-order="fill" d="M 33.272727966308594 459.9822998046875 L 63.02020263671875 289.1392822265625 L 92.7676773071289 216.69227600097656 L 122.51515197753906 213.78030395507812 L 152.2626190185547 288.7484436035156 L 182.01010131835938 288.7484436035156 L 211.757568359375 173.9429931640625 L 241.5050506591797 174.80722045898438 L 271.2525329589844 96.21701049804688 L 301 70.43862915039062 L 330.7474670410156 46.68596267700195 L 360.4949645996094 46.92816925048828 L 390.242431640625 35.40138244628906 L 419.9898986816406 49.92271041870117 L 449.73736572265625 125.25415802001953 L 479.48486328125 288.7484436035156 L 509.2323303222656 213.78030395507812 L 538.9797973632812 216.69227600097656 L 568.727294921875 289.1392822265625" stroke-opacity="0.14901960784313725" stroke-linejoin="bevel" stroke-miterlimit="10" stroke-width="2" stroke-dasharray="" clip-path="url(#oduQizXsOXbN)"/><path fill="none" stroke="rgb(0,0,0)" paint-order="fill" d="M 33.272727966308594 459.9822998046875 L 63.02020263671875 289.1392822265625 L 92.7676773071289 216.69227600097656 L 122.51515197753906 213.78030395507812 L 152.2626190185547 288.7484436035156 L 182.01010131835938 125.25415802001953 L 211.757568359375 49.92271041870117 L 241.5050506591797 35.40138244628906 L 271.2525329589844 33.49676513671875 L 301 35.307804107666016 L 330.7474670410156 78.92683410644531 L 360.4949645996094 105.5639419555664 L 390.242431640625 197.7672119140625 L 419.9898986816406 269.95550537109375 L 449.73736572265625 301.83856201171875 L 479.48486328125 310.1506042480469 L 509.2323303222656 192.96163940429688 L 538.9797973632812 216.69227600097656 L 568.727294921875 289.1392822265625" stroke-opacity="0.14901960784313725" stroke-linejoin="bevel" stroke-miterlimit="10" stroke-width="2" stroke-dasharray="" clip-path="url(#fnwgfgaRurNd)"/><path fill="none" stroke="rgb(0,0,0)" paint-order="fill" d="M 33.272727966308594 77.64424133300781 L 63.02020263671875 44.35198211669922 L 92.7676773071289 43.069393157958984 L 122.51515197753906 43.069393157958984 L 152.2626190185547 44.35198211669922 L 182.01010131835938 64.33944702148438 L 211.757568359375 41.80331802368164 L 241.5050506591797 35.40138244628906 L 271.2525329589844 33.49676513671875 L 301 35.307804107666016 L 330.7474670410156 35.307804107666016 L 360.4949645996094 33.49676513671875 L 390.242431640625 35.40138244628906 L 419.9898986816406 49.92271041870117 L 449.73736572265625 125.25415802001953 L 479.48486328125 288.7484436035156 L 509.2323303222656 213.78030395507812 L 538.9797973632812 216.69227600097656 L 568.727294921875 289.1392822265625" stroke-opacity="0.14901960784313725" stroke-linejoin="bevel" stroke-miterlimit="10" stroke-width="2" stroke-dasharray="" clip-path="url(#JvTmwOeGEFPQ)"/><path fill="none" stroke="rgb(0,0,0)" paint-order="fill" d="M 33.272727966308594 459.9822998046875 L 63.02020263671875 289.1392822265625 L 92.7676773071289 216.69227600097656 L 122.51515197753906 213.78030395507812 L 152.2626190185547 205.42420959472656 L 182.01010131835938 125.27067565917969 L 211.757568359375 90.81692504882812 L 241.5050506591797 51.39796447753906 L 271.2525329589844 42.81617736816406 L 301 42.4638786315918 L 330.7474670410156 33.260066986083984 L 360.4949645996094 33.49676513671875 L 390.242431640625 35.40138244628906 L 419.9898986816406 49.92271041870117 L 449.73736572265625 125.25415802001953 L 479.48486328125 288.7484436035156 L 509.2323303222656 213.78030395507812 L 538.9797973632812 216.69227600097656 L 568.727294921875 289.1392822265625" stroke-opacity="0.14901960784313725" stroke-linejoin="bevel" stroke-miterlimit="10" stroke-width="2" stroke-dasharray="" clip-path="url(#VXqJZSUPxTNI)"/><path fill="none" stroke="rgb(0,0,0)" paint-order="fill" d="M 33.272727966308594 459.9822998046875 L 63.02020263671875 289.1392822265625 L 92.7676773071289 216.69227600097656 L 122.51515197753906 213.78030395507812 L 152.2626190185547 288.7484436035156 L 182.01010131835938 125.25415802001953 L 211.757568359375 49.92271041870117 L 241.5050506591797 53.07138442993164 L 271.2525329589844 59.35771942138672 L 301 102.10150146484375 L 330.7474670410156 130.34597778320312 L 360.4949645996094 102.8776626586914 L 390.242431640625 118.1366195678711 L 419.9898986816406 142.5718536376953 L 449.73736572265625 125.25415802001953 L 479.48486328125 288.7484436035156 L 509.2323303222656 213.78030395507812 L 538.9797973632812 216.69227600097656 L 568.727294921875 289.1392822265625" stroke-opacity="0.14901960784313725" stroke-linejoin="bevel" stroke-miterlimit="10" stroke-width="2" stroke-dasharray="" clip-path="url(#WgPIqHDQaIgZ)"/><path fill="none" stroke="rgb(0,0,0)" paint-order="fill" d="M 33.272727966308594 459.9822998046875 L 63.02020263671875 289.1392822265625 L 92.7676773071289 216.69227600097656 L 122.51515197753906 213.78030395507812 L 152.2626190185547 288.7484436035156 L 182.01010131835938 125.25415802001953 L 211.757568359375 49.92271041870117 L 241.5050506591797 35.40138244628906 L 271.2525329589844 33.49676513671875 L 301 35.274776458740234 L 330.7474670410156 61.801795959472656 L 360.4949645996094 73.30105590820312 L 390.242431640625 175.2476043701172 L 419.9898986816406 245.05235290527344 L 449.73736572265625 298.4862060546875 L 479.48486328125 305.31201171875 L 509.2323303222656 213.78030395507812 L 538.9797973632812 216.69227600097656 L 568.727294921875 289.1392822265625" stroke-opacity="0.14901960784313725" stroke-linejoin="bevel" stroke-miterlimit="10" stroke-width="2" stroke-dasharray="" clip-path="url(#lJxtoMlOExJo)"/><path fill="none" stroke="rgb(0,0,0)" paint-order="fill" d="M 6.5 594.5 L 595.5 594.5" stroke-opacity="1" stroke-linejoin="bevel" stroke-miterlimit="10" stroke-dasharray=""/><path fill="none" stroke="rgb(0,0,0)" paint-order="fill" d="M 33.5 600.5 L 33.5 592.5 M 182.5 600.5 L 182.5 592.5 M 330.5 600.5 L 330.5 592.5 M 479.5 600.5 L 479.5 592.5" stroke-opacity="1" stroke-linejoin="bevel" stroke-miterlimit="10" stroke-dasharray=""/><text fill="rgb(68,68,68)" stroke="none" font-family="helvetica" font-size="0pt" font-style="normal" font-weight="normal" text-decoration="normal" x="32.772727966308594" y="605" text-anchor="start" dominant-baseline="alphabetic" transform="matrix(1, 0, 0, 1, 0.5, 0.5)" fill-opacity="1">0</text><text fill="rgb(68,68,68)" stroke="none" font-family="helvetica" font-size="0pt" font-style="normal" font-weight="normal" text-decoration="normal" x="181.51010131835938" y="605" text-anchor="start" dominant-baseline="alphabetic" transform="matrix(1, 0, 0, 1, 0.5, 0.5)" fill-opacity="1">5</text><text fill="rgb(68,68,68)" stroke="none" font-family="helvetica" font-size="0pt" font-style="normal" font-weight="normal" text-decoration="normal" x="330.2474670410156" y="605" text-anchor="start" dominant-baseline="alphabetic" transform="matrix(1, 0, 0, 1, 0.5, 0.5)" fill-opacity="1">10</text><text fill="rgb(68,68,68)" stroke="none" font-family="helvetica" font-size="0pt" font-style="normal" font-weight="normal" text-decoration="normal" x="478.98486328125" y="605" text-anchor="start" dominant-baseline="alphabetic" transform="matrix(1, 0, 0, 1, 0.5, 0.5)" fill-opacity="1">15</text><path fill="none" stroke="rgb(0,0,0)" paint-order="fill" d="M 6.5 594.5 L 6.5 5.5" stroke-opacity="1" stroke-linejoin="bevel" stroke-miterlimit="10" stroke-dasharray=""/><path fill="none" stroke="rgb(0,0,0)" paint-order="fill" d="M 0.5 528.5 L 8.5 528.5 M 0.5 418.5 L 8.5 418.5 M 0.5 308.5 L 8.5 308.5 M 0.5 198.5 L 8.5 198.5 M 0.5 88.5 L 8.5 88.5" stroke-opacity="1" stroke-linejoin="bevel" stroke-miterlimit="10" stroke-dasharray=""/><text fill="rgb(68,68,68)" stroke="none" font-family="helvetica" font-size="0pt" font-style="normal" font-weight="normal" text-decoration="normal" x="-5" y="527.9439086914062" text-anchor="start" dominant-baseline="alphabetic" transform="matrix(1, 0, 0, 1, 0.5, 0.5)" fill-opacity="1">0.4</text><text fill="rgb(68,68,68)" stroke="none" font-family="helvetica" font-size="0pt" font-style="normal" font-weight="normal" text-decoration="normal" x="-5" y="417.8504638671875" text-anchor="start" dominant-baseline="alphabetic" transform="matrix(1, 0, 0, 1, 0.5, 0.5)" fill-opacity="1">0.2</text><text fill="rgb(68,68,68)" stroke="none" font-family="helvetica" font-size="0pt" font-style="normal" font-weight="normal" text-decoration="normal" x="-5" y="307.75701904296875" text-anchor="start" dominant-baseline="alphabetic" transform="matrix(1, 0, 0, 1, 0.5, 0.5)" fill-opacity="1">0</text><text fill="rgb(68,68,68)" stroke="none" font-family="helvetica" font-size="0pt" font-style="normal" font-weight="normal" text-decoration="normal" x="-5" y="197.66355895996094" text-anchor="start" dominant-baseline="alphabetic" transform="matrix(1, 0, 0, 1, 0.5, 0.5)" fill-opacity="1">0.2</text><text fill="rgb(68,68,68)" stroke="none" font-family="helvetica" font-size="0pt" font-style="normal" font-weight="normal" text-decoration="normal" x="-5" y="87.5700912475586" text-anchor="start" dominant-baseline="alphabetic" transform="matrix(1, 0, 0, 1, 0.5, 0.5)" fill-opacity="1">0.4</text><path fill="none" stroke="rgb(0,0,0)" paint-order="fill" d="M 6.5 115.59345794392527 L 595.5 115.59345794392527" stroke-opacity="1" stroke-linejoin="bevel" stroke-miterlimit="10" stroke-width="3" stroke-dasharray="6" clip-path="url(#mdGUBfKPZHDL)"/><path fill="none" stroke="rgb(0,0,0)" paint-order="fill" d="M 6.5 33.02336448598135 L 595.5 33.02336448598135" stroke-opacity="1" stroke-linejoin="bevel" stroke-miterlimit="10" stroke-width="3" stroke-dasharray="6" clip-path="url(#hXNUFTtDnXad)"/></svg>