<svg version="1.1" xmlns="http://www.w3.org/2000/svg" width="600" height="600"><defs><clipPath id="VPPoBdLkkPEX"><path fill="none" stroke="none" d="M 6.5 5.5 L 595.5 5.5 L 595.5 594.5 L 6.5 594.5 L 6.5 5.5"/></clipPath><clipPath id="VOpXkrwGDgza"><path fill="none" stroke="none" d="M 6.5 5.5 L 595.5 5.5 L 595.5 594.5 L 6.5 594.5 L 6.5 5.5"/></clipPath><clipPath id="VvtCxDJNyfSh"><path fill="none" stroke="none" d="M 6.5 5.5 L 595.5 5.5 L 595.5 594.5 L 6.5 594.5 L 6.5 5.5"/></clipPath><clipPath id="GETFUuqvyJke"><path fill="none" stroke="none" d="M 6.5 5.5 L 595.5 5.5 L 595.5 594.5 L 6.5 594.5 L 6.5 5.5"/></clipPath><clipPath id="WtPBvkkeNnBH"><path fill="none" stroke="none" d="M 6.5 5.5 L 595.5 5.5 L 595.5 594.5 L 6.5 594.5 L 6.5 5.5"/></clipPath><clipPath id="NKcIAiTLbFEW"><path fill="none" stroke="none" d="M 6.5 5.5 L 595.5 5.5 L 595.5 594.5 L 6.5 594.5 L 6.5 5.5"/></clipPath><clipPath id="yqwJRHdwUgPx"><path fill="none" stroke="none" d="M 6.5 5.5 L 595.5 5.5 L 595.5 594.5 L 6.5 594.5 L 6.5 5.5"/></clipPath><clipPath id="iFCgFIKkSLvZ"><path fill="none" stroke="none" d="M 6.5 5.5 L 595.5 5.5 L 595.5 594.5 L 6.5 594.5 L 6.5 5.5"/></clipPath><clipPath id="hqLdETTImemp"><path fill="none" stroke="none" d="M 6.5 5.5 L 595.5 5.5 L 595.5 594.5 L 6.5 594.5 L 6.5 5.5"/></clipPath><clipPath id="GXxsTpPgBZDX"><path fill="none" stroke="none" d="M 6.5 5.5 L 595.5 5.5 L 595.5 594.5 L 6.5 594.5 L 6.5 5.5"/></clipPath><clipPath id="RiNXNNOZmtgQ"><path fill="none" stroke="none" d="M 6.5 5.5 L 595.5 5.5 L 595.5 594.5 L 6.5 594.5 L 6.5 5.5"/></clipPath><clipPath id="CJfdUgZCVgTA"><path fill="none" stroke="none" d="M 6.5 5.5 L 595.5 5.5 L 595.5 594.5 L 6.5 594.5 L 6.5 5.5"/></clipPath><clipPath id="FenWDpbFfSKw"><path fill="none" stroke="none" d="M 6.5 5.5 L 595.5 5.5 L 595.5 594.5 L 6.5 594.5 L 6.5 5.5"/></clipPath><clipPath id="gJXONJgQkiCX"><path fill="none" stroke="none" d="M 6.5 5.5 L 595.5 5.5 L 595.5 594.5 L 6.5 594.5 L 6.5 5.5"/></clipPath><clipPath id="QVuhdGwpnhMB"><path fill="none" stroke="none" d="M 6.5 5.5 L 595.5 5.5 L 595.5 594.5 L 6.5 594.5 L 6.5 5.5"/></clipPath><clipPath id="aQsFRDEIrBeS"><path fill="none" stroke="none" d="M 6.5 5.5 L 595.5 5.5 L 595.5 594.5 L 6.5 594.5 L 6.5 5.5"/></clipPath><clipPath id="nVawVuNCKUOT"><path fill="none" stroke="none" d="M 6.5 5.5 L 595.5 5.5 L 595.5 594.5 L 6.5 594.5 L 6.5 5.5"/></clipPath><clipPath id="OKomJHnJLNQM"><path fill="none" stroke="none" d="M 6.5 5.5 L 595.5 5.5 L 595.5 594.5 L 6.5 594.5 L 6.5 5.5"/></clipPath><clipPath id="KcbWrilllAxV"><path fill="none" stroke="none" d="M 6.5 5.5 L 595.5 5.5 L 595.5 594.5 L 6.5 594.5 L 6.5 5.5"/></clipPath><clipPath id="qQWWKZxBbisF"><path fill="none" stroke="none" d="M 6.5 5.5 L 595.5 5.5 L 595.5 594.5 L 6.5 594.5 L 6.5 5.5"/></clipPath><clipPath id="yLredLkMWVtW"><path fill="none" stroke="none" d="M 6.5 5.5 L 595.5 5.5 L 595.5 594.5 L 6.5 594.5 L 6.5 5.5"/></clipPath><clipPath id="HRZqBZrGJQbt"><path fill="none" stroke="none" d="M 6.5 5.5 L 595.5 5.5 L 595.5 594.5 L 6.5 594.5 L 6.5 5.5"/></clipPath><clipPath id="kzSGBAHIiKBo"><path fill="none" stroke="none" d="M 6.5 5.5 L 595.5 5.5 L 595.5 594.5 L 6.5 594.5 L 6.5 5.5"/></clipPath><clipPath id="dkMwbrQNCgAm"><path fill="none" stroke="none" d="M 6.5 5.5 L 595.5 5.5 L 595.5 594.5 L 6.5 594.5 L 6.5 5.5"/></clipPath><clipPath id="ETtgnumoStCL"><path fill="none" stroke="none" d="M 6.5 5.5 L 595.5 5.5 L 595.5 594.5 L 6.5 594.5 L 6.5 5.5"/></clipPath><clipPath id="URQJLLDdhOVE"><path fill="none" stroke="none" d="M 6.5 5.5 L 595.5 5.5 L 595.5 594.5 L 6.5 594.5 L 6.5 5.5"/></clipPath><clipPath id="sTexyUpbwIEa"><path fill="none" stroke="none" d="M 6.5 5.5 L 595.5 5.5 L 595.5 594.5 L 6.5 594.5 L 6.5 5.5"/></clipPath><clipPath id="yrTmxGyyTAwX"><path fill="none" stroke="none" d="M 6.5 5.5 L 595.5 5.5 L 595.5 594.5 L 6.5 594.5 L 6.5 5.5"/></clipPath><clipPath id="vkncncnEPJeZ"><path fill="none" stroke="none" d="M 6.5 5.5 L 595.5 5.5 L 595.5 594.5 L 6.5 594.5 L 6.5 5.5"/></clipPath><clipPath id="ofELCbXfozIR"><path fill="none" stroke="none" d="M 6.5 5.5 L 595.5 5.5 L 595.5 594.5 L 6.5 594.5 L 6.5 5.5"/></clipPath><clipPath id="CTWHafTcbKQK"><path fill="none" stroke="none" d="M 6.5 5.5 L 595.5 5.5 L 595.5 594.5 L 6.5 594.5 L 6.5 5.5"/></clipPath><clipPath id="WaLEPUArsZgs"><path fill="none" stroke="none" d="M 6.5 5.5 L 595.5 5.5 L 595.5 594.5 L 6.5 594.5 L 6.5 5.5"/></clipPath><clipPath id="HDWMmODETXvJ"><path fill="none" stroke="none" d="M 6.5 5.5 L 595.5 5.5 L 595.5 594.5 L 6.5 594.5 L 6.5 5.5"/></clipPath><clipPath id="CNfxTWJnwcau"><path fill="none" stroke="none" d="M 6.5 5.5 L 595.5 5.5 L 595.5 594.5 L 6.5 594.5 L 6.5 5.5"/></clipPath><clipPath id="LzwALmEwHmZb"><path fill="none" stroke="none" d="M 6.5 5.5 L 595.5 5.5 L 595.5 594.5 L 6.5 594.5 L 6.5 5.5"/></clipPath><clipPath id="KBZZKEPbPiPL"><path fill="none" stroke="none" d="M 6.5 5.5 L 595.5 5.5 L 595.5 594.5 L 6.5 594.5 L 6.5 5.5"/></clipPath><clipPath id="bepbPdNzbCwa"><path fill="none" stroke="none" d="M 6.5 5.5 L 595.5 5.5 L 595.5 594.5 L 6.5 594.5 L 6.5 5.5"/></clipPath><clipPath id="gqxMlMcdMEyn"><path fill="none" stroke="none" d="M 6.5 5.5 L 595.5 5.5 L 595.5 594.5 L 6.5 594.5 L 6.5 5.5"/></clipPath><clipPath id="TswTUsvxeiWL"><path fill="none" stroke="none" d="M 6.5 5.5 L 595.5 5.5 L 595.5 594.5 L 6.5 594.5 L 6.5 5.5"/></clipPath><clipPath id="HgAOtTmCfnqQ"><path fill="none" stroke="none" d="M 6.5 5.5 L 595.5 5.5 L 595.5 594.5 L 6.5 594.5 L 6.5 5.5"/></clipPath><clipPath id="ylGJJqduBOLv"><path fill="none" stroke="none" d="M 6.5 5.5 L 595.5 5.5 L 595.5 594.5 L 6.5 594.5 L 6.5 5.5"/></clipPath><clipPath id="oaTuNWgGKWJp"><path fill="none" stroke="none" d="M 6.5 5.5 L 595.5 5.5 L 595.5 594.5 L 6.5 594.5 L 6.5 5.5"/></clipPath><clipPath id="iOGAOnMrHNOx"><path fill="none" stroke="none" d="M 6.5 5.5 L 595.5 5.5 L 595.5 594.5 L 6.5 594.5 L 6.5 5.5"/></clipPath><clipPath id="pKSOKVTtKUoV"><path fill="none" stroke="none" d="M 6.5 5.5 L 595.5 5.5 L 595.5 594.5 L 6.5 594.5 L 6.5 5.5"/></clipPath><clipPath id="txwHfpfqcOkm"><path fill="none" stroke="none" d="M 6.5 5.5 L 595.5 5.5 L 595.5 594.5 L 6.5 594.5 L 6.5 5.5"/></clipPath><clipPath id="xZewShSxsTbn"><path fill="none" stroke="none" d="M 6.5 5.5 L 595.5 5.5 L 595.5 594.5 L 6.5 594.5 L 6.5 5.5"/></clipPath><clipPath id="eTOZCzihFolp"><path fill="none" stroke="none" d="M 6.5 5.5 L 595.5 5.5 L 595.5 594.5 L 6.5 594.5 L 6.5 5.5"/></clipPath><clipPath id="KaOEbOAicDro"><path fill="none" stroke="none" d="M 6.5 5.5 L 595.5 5.5 L 595.5 594.5 L 6.5 594.5 L 6.5 5.5"/></clipPath><clipPath id="tHbNxRwyJTnt"><path fill="none" stroke="none" d="M 6.5 5.5 L 595.5 5.5 L 595.5 594.5 L 6.5 594.5 L 6.5 5.5"/></clipPath><clipPath id="egnfKutucsTz"><path fill="none" stroke="none" d="M 6.5 5.5 L 595.5 5.5 L 595.5 594.5 L 6.5 594.5 L 6.5 5.5"/></clipPath><clipPath id="xCucSfpTTVRO"><path fill="none" stroke="none" d="M 6.5 5.5 L 595.5 5.5 L 595.5 594.5 L 6.5 594.5 L 6.5 5.5"/></clipPath><clipPath id="tRhBMAyCmrTs"><path fill="none" stroke="none" d="M 6.5 5.5 L 595.5 5.5 L 595.5 594.5 L 6.5 594.5 L 6.5 5.5"/></clipPath><clipPath id="KcswPEZnIuTQ"><path fill="none" stroke="none" d="M 6.5 5.5 L 595.5 5.5 L 595.5 594.5 L 6.5 594.5 L 6.5 5.5"/></clipPath></defs><path fill="rgb(255,255,255)" stroke="none" paint-order="stroke" d="M 0.5 0.5 L 600.5 0.5 L 600.5 600.5 L 0.5 600.5 L 0.5 0.5" fill-opacity="1"/><rect fill="#FFFFFF" stroke="none" x="6" y="5" width="589" height="589" transform="matrix(1, 0, 0, 1, 0.5, 0.5)"/><path fill="rgb(255,255,255)" stroke="none" paint-order="stroke" d="M 6.5 5.5 L 595.5 5.5 L 595.5 594.5 L 6.5 594.5 L 6.5 5.5" fill-opacity="1"/><path fill="none" stroke="rgb(0,0,0)" paint-order="fill" d="M 6.5 5.5 L 595.5 5.5 L 595.5 594.5 L 6.5 594.5 L 6.5 5.5" stroke-opacity="1" stroke-linejoin="bevel" stroke-miterlimit="10" stroke-dasharray=""/><path fill="none" stroke="rgb(0,0,0)" paint-order="fill" d="M 33.272727966308594 285.61077880859375 L 63.02020263671875 310.5249328613281 L 92.7676773071289 363.0780334472656 L 122.51515197753906 429.1396179199219 L 152.2626190185547 412.48248291015625 L 182.01010131835938 174.05859375 L 211.757568359375 120.14582061767578 L 241.5050506591797 59.57240295410156 L 271.2525329589844 93.10136413574219 L 301 65.01101684570312 L 330.7474670410156 95.00047302246094 L 360.4949645996094 81.4699935913086 L 390.242431640625 125.8321533203125 L 419.9898986816406 252.84146118164062 L 449.73736572265625 283.1722106933594 L 479.48486328125 234.73660278320312 L 509.2323303222656 303.148681640625 L 538.9797973632812 364.5312805175781 L 568.727294921875 337.75103759765625" stroke-opacity="0.14901960784313725" stroke-linejoin="bevel" stroke-miterlimit="10" stroke-width="2" stroke-dasharray="" clip-path="url(#VvtCxDJNyfSh)"/><path fill="none" stroke="rgb(0,0,0)" paint-order="fill" d="M 33.272727966308594 285.61077880859375 L 63.02020263671875 310.5249328613281 L 92.7676773071289 363.0780334472656 L 122.51515197753906 429.1396179199219 L 152.2626190185547 412.48248291015625 L 182.01010131835938 174.05859375 L 211.757568359375 120.14582061767578 L 241.5050506591797 59.57240295410156 L 271.2525329589844 66.33213806152344 L 301 35.26927185058594 L 330.7474670410156 36.139007568359375 L 360.4949645996094 34.71880340576172 L 390.242431640625 40.317054748535156 L 419.9898986816406 76.27908325195312 L 449.73736572265625 180.04217529296875 L 479.48486328125 224.43736267089844 L 509.2323303222656 192.05335998535156 L 538.9797973632812 259.1278076171875 L 568.727294921875 275.4381408691406" stroke-opacity="0.14901960784313725" stroke-linejoin="bevel" stroke-miterlimit="10" stroke-width="2" stroke-dasharray="" clip-path="url(#GETFUuqvyJke)"/><path fill="none" stroke="rgb(0,0,0)" paint-order="fill" d="M 33.272727966308594 285.61077880859375 L 63.02020263671875 310.5249328613281 L 92.7676773071289 363.0780334472656 L 122.51515197753906 429.1396179199219 L 152.2626190185547 412.48248291015625 L 182.01010131835938 174.05859375 L 211.757568359375 120.14582061767578 L 241.5050506591797 59.57240295410156 L 271.2525329589844 53.03835678100586 L 301 36.7995719909668 L 330.7474670410156 42.30424118041992 L 360.4949645996094 38.649139404296875 L 390.242431640625 45.084102630615234 L 419.9898986816406 79.17454528808594 L 449.73736572265625 133.8579559326172 L 479.48486328125 234.73660278320312 L 509.2323303222656 303.148681640625 L 538.9797973632812 364.5312805175781 L 568.727294921875 337.75103759765625" stroke-opacity="0.14901960784313725" stroke-linejoin="bevel" stroke-miterlimit="10" stroke-width="2" stroke-dasharray="" clip-path="url(#WtPBvkkeNnBH)"/><path fill="none" stroke="rgb(0,0,0)" paint-order="fill" d="M 33.272727966308594 347.1915588378906 L 63.02020263671875 278.6088562011719 L 92.7676773071289 291.04388427734375 L 122.51515197753906 162.86758422851562 L 152.2626190185547 104.36392211914062 L 182.01010131835938 54.56865310668945 L 211.757568359375 47.847450256347656 L 241.5050506591797 59.57240295410156 L 271.2525329589844 66.33213806152344 L 301 35.26927185058594 L 330.7474670410156 36.139007568359375 L 360.4949645996094 34.71880340576172 L 390.242431640625 40.317054748535156 L 419.9898986816406 76.27908325195312 L 449.73736572265625 180.04217529296875 L 479.48486328125 234.73660278320312 L 509.2323303222656 303.148681640625 L 538.9797973632812 364.5312805175781 L 568.727294921875 337.75103759765625" stroke-opacity="0.14901960784313725" stroke-linejoin="bevel" stroke-miterlimit="10" stroke-width="2" stroke-dasharray="" clip-path="url(#NKcIAiTLbFEW)"/><path fill="none" stroke="rgb(0,0,0)" paint-order="fill" d="M 33.272727966308594 285.61077880859375 L 63.02020263671875 310.5249328613281 L 92.7676773071289 363.0780334472656 L 122.51515197753906 479.56243896484375 L 152.2626190185547 459.8116760253906 L 182.01010131835938 414.1448974609375 L 211.757568359375 286.36492919921875 L 241.5050506591797 168.31170654296875 L 271.2525329589844 193.02218627929688 L 301 41.84185028076172 L 330.7474670410156 36.139007568359375 L 360.4949645996094 34.71880340576172 L 390.242431640625 40.317054748535156 L 419.9898986816406 76.27908325195312 L 449.73736572265625 180.04217529296875 L 479.48486328125 234.73660278320312 L 509.2323303222656 303.148681640625 L 538.9797973632812 364.5312805175781 L 568.727294921875 337.75103759765625" stroke-opacity="0.14901960784313725" stroke-linejoin="bevel" stroke-miterlimit="10" stroke-width="2" stroke-dasharray="" clip-path="url(#yqwJRHdwUgPx)"/><path fill="none" stroke="rgb(0,0,0)" paint-order="fill" d="M 33.272727966308594 285.61077880859375 L 63.02020263671875 310.5249328613281 L 92.7676773071289 363.0780334472656 L 122.51515197753906 429.1396179199219 L 152.2626190185547 412.48248291015625 L 182.01010131835938 174.05859375 L 211.757568359375 120.14582061767578 L 241.5050506591797 59.57240295410156 L 271.2525329589844 66.33213806152344 L 301 35.26927185058594 L 330.7474670410156 36.139007568359375 L 360.4949645996094 34.71880340576172 L 390.242431640625 40.317054748535156 L 419.9898986816406 76.27908325195312 L 449.73736572265625 194.60752868652344 L 479.48486328125 331.6958923339844 L 509.2323303222656 314.4883117675781 L 538.9797973632812 387.25457763671875 L 568.727294921875 300.7210998535156" stroke-opacity="0.14901960784313725" stroke-linejoin="bevel" stroke-miterlimit="10" stroke-width="2" stroke-dasharray="" clip-path="url(#iFCgFIKkSLvZ)"/><path fill="none" stroke="rgb(0,0,0)" paint-order="fill" d="M 33.272727966308594 285.61077880859375 L 63.02020263671875 310.5249328613281 L 92.7676773071289 363.0780334472656 L 122.51515197753906 429.1396179199219 L 152.2626190185547 412.48248291015625 L 182.01010131835938 174.05859375 L 211.757568359375 120.14582061767578 L 241.5050506591797 59.57240295410156 L 271.2525329589844 66.33213806152344 L 301 35.26927185058594 L 330.7474670410156 36.139007568359375 L 360.4949645996094 50.65483093261719 L 390.242431640625 63.078880310058594 L 419.9898986816406 247.7056121826172 L 449.73736572265625 385.7518005371094 L 479.48486328125 330.7601013183594 L 509.2323303222656 161.7061004638672 L 538.9797973632812 177.66415405273438 L 568.727294921875 337.75103759765625" stroke-opacity="0.14901960784313725" stroke-linejoin="bevel" stroke-miterlimit="10" stroke-width="2" stroke-dasharray="" clip-path="url(#hqLdETTImemp)"/><path fill="none" stroke="rgb(0,0,0)" paint-order="fill" d="M 33.272727966308594 285.61077880859375 L 63.02020263671875 310.5249328613281 L 92.7676773071289 363.0780334472656 L 122.51515197753906 429.1396179199219 L 152.2626190185547 412.48248291015625 L 182.01010131835938 174.05859375 L 211.757568359375 120.14582061767578 L 241.5050506591797 59.57240295410156 L 271.2525329589844 66.33213806152344 L 301 35.26927185058594 L 330.7474670410156 45.91530990600586 L 360.4949645996094 41.78680419921875 L 390.242431640625 111.58055114746094 L 419.9898986816406 262.9095153808594 L 449.73736572265625 377.70947265625 L 479.48486328125 351.6833801269531 L 509.2323303222656 346.2557678222656 L 538.9797973632812 364.5312805175781 L 568.727294921875 337.75103759765625" stroke-opacity="0.14901960784313725" stroke-linejoin="bevel" stroke-miterlimit="10" stroke-width="2" stroke-dasharray="" clip-path="url(#GXxsTpPgBZDX)"/><path fill="none" stroke="rgb(0,0,0)" paint-order="fill" d="M 33.272727966308594 285.61077880859375 L 63.02020263671875 310.5249328613281 L 92.7676773071289 363.0780334472656 L 122.51515197753906 429.1396179199219 L 152.2626190185547 412.48248291015625 L 182.01010131835938 174.05859375 L 211.757568359375 120.14582061767578 L 241.5050506591797 59.57240295410156 L 271.2525329589844 66.33213806152344 L 301 35.26927185058594 L 330.7474670410156 36.139007568359375 L 360.4949645996094 52.48788833618164 L 390.242431640625 135.817626953125 L 419.9898986816406 274.28216552734375 L 449.73736572265625 363.6285095214844 L 479.48486328125 416.21466064453125 L 509.2323303222656 271.12249755859375 L 538.9797973632812 305.5982666015625 L 568.727294921875 337.75103759765625" stroke-opacity="0.14901960784313725" stroke-linejoin="bevel" stroke-miterlimit="10" stroke-width="2" stroke-dasharray="" clip-path="url(#RiNXNNOZmtgQ)"/><path fill="none" stroke="rgb(0,0,0)" paint-order="fill" d="M 33.272727966308594 285.61077880859375 L 63.02020263671875 310.5249328613281 L 92.7676773071289 363.0780334472656 L 122.51515197753906 418.1523132324219 L 152.2626190185547 257.86724853515625 L 182.01010131835938 264.8306579589844 L 211.757568359375 344.0208740234375 L 241.5050506591797 284.4217834472656 L 271.2525329589844 247.2542266845703 L 301 46.29513168334961 L 330.7474670410156 36.139007568359375 L 360.4949645996094 34.71880340576172 L 390.242431640625 40.317054748535156 L 419.9898986816406 76.27908325195312 L 449.73736572265625 180.04217529296875 L 479.48486328125 234.73660278320312 L 509.2323303222656 303.148681640625 L 538.9797973632812 364.5312805175781 L 568.727294921875 337.75103759765625" stroke-opacity="0.14901960784313725" stroke-linejoin="bevel" stroke-miterlimit="10" stroke-width="2" stroke-dasharray="" clip-path="url(#CJfdUgZCVgTA)"/><path fill="none" stroke="rgb(0,0,0)" paint-order="fill" d="M 33.272727966308594 285.61077880859375 L 63.02020263671875 310.5249328613281 L 92.7676773071289 363.0780334472656 L 122.51515197753906 429.1396179199219 L 152.2626190185547 412.48248291015625 L 182.01010131835938 452.12713623046875 L 211.757568359375 311.2185363769531 L 241.5050506591797 220.3033447265625 L 271.2525329589844 259.27642822265625 L 301 100.92900848388672 L 330.7474670410156 67.82390594482422 L 360.4949645996094 42.51342010498047 L 390.242431640625 40.317054748535156 L 419.9898986816406 76.27908325195312 L 449.73736572265625 180.04217529296875 L 479.48486328125 234.73660278320312 L 509.2323303222656 303.148681640625 L 538.9797973632812 364.5312805175781 L 568.727294921875 337.75103759765625" stroke-opacity="0.14901960784313725" stroke-linejoin="bevel" stroke-miterlimit="10" stroke-width="2" stroke-dasharray="" clip-path="url(#FenWDpbFfSKw)"/><path fill="none" stroke="rgb(0,0,0)" paint-order="fill" d="M 33.272727966308594 285.61077880859375 L 63.02020263671875 310.5249328613281 L 92.7676773071289 448.2353515625 L 122.51515197753906 507.8729553222656 L 152.2626190185547 416.4183349609375 L 182.01010131835938 354.9311218261719 L 211.757568359375 159.5042266845703 L 241.5050506591797 99.21705627441406 L 271.2525329589844 128.81568908691406 L 301 35.26927185058594 L 330.7474670410156 36.139007568359375 L 360.4949645996094 34.71880340576172 L 390.242431640625 40.317054748535156 L 419.9898986816406 76.27908325195312 L 449.73736572265625 180.04217529296875 L 479.48486328125 234.73660278320312 L 509.2323303222656 303.148681640625 L 538.9797973632812 364.5312805175781 L 568.727294921875 337.75103759765625" stroke-opacity="0.14901960784313725" stroke-linejoin="bevel" stroke-miterlimit="10" stroke-width="2" stroke-dasharray="" clip-path="url(#gJXONJgQkiCX)"/><path fill="none" stroke="rgb(0,0,0)" paint-order="fill" d="M 33.272727966308594 285.61077880859375 L 63.02020263671875 310.5249328613281 L 92.7676773071289 363.0780334472656 L 122.51515197753906 429.1396179199219 L 152.2626190185547 412.48248291015625 L 182.01010131835938 174.05859375 L 211.757568359375 120.14582061767578 L 241.5050506591797 126.10738372802734 L 271.2525329589844 279.3464660644531 L 301 155.4913330078125 L 330.7474670410156 152.30963134765625 L 360.4949645996094 120.49812316894531 L 390.242431640625 161.77215576171875 L 419.9898986816406 194.60752868652344 L 449.73736572265625 180.04217529296875 L 479.48486328125 234.73660278320312 L 509.2323303222656 303.148681640625 L 538.9797973632812 364.5312805175781 L 568.727294921875 337.75103759765625" stroke-opacity="0.14901960784313725" stroke-linejoin="bevel" stroke-miterlimit="10" stroke-width="2" stroke-dasharray="" clip-path="url(#QVuhdGwpnhMB)"/><path fill="none" stroke="rgb(0,0,0)" paint-order="fill" d="M 33.272727966308594 285.61077880859375 L 63.02020263671875 310.5249328613281 L 92.7676773071289 187.3523712158203 L 122.51515197753906 234.15859985351562 L 152.2626190185547 109.00987243652344 L 182.01010131835938 107.94196319580078 L 211.757568359375 104.24832916259766 L 241.5050506591797 86.8205337524414 L 271.2525329589844 108.30526733398438 L 301 35.26927185058594 L 330.7474670410156 36.139007568359375 L 360.4949645996094 34.71880340576172 L 390.242431640625 40.317054748535156 L 419.9898986816406 76.27908325195312 L 449.73736572265625 180.04217529296875 L 479.48486328125 234.73660278320312 L 509.2323303222656 303.148681640625 L 538.9797973632812 364.5312805175781 L 568.727294921875 337.75103759765625" stroke-opacity="0.14901960784313725" stroke-linejoin="bevel" stroke-miterlimit="10" stroke-width="2" stroke-dasharray="" clip-path="url(#aQsFRDEIrBeS)"/><path fill="none" stroke="rgb(0,0,0)" paint-order="fill" d="M 33.272727966308594 285.61077880859375 L 63.02020263671875 310.5249328613281 L 92.7676773071289 363.0780334472656 L 122.51515197753906 429.1396179199219 L 152.2626190185547 412.48248291015625 L 182.01010131835938 174.05859375 L 211.757568359375 120.14582061767578 L 241.5050506591797 59.57240295410156 L 271.2525329589844 66.33213806152344 L 301 35.26927185058594 L 330.7474670410156 36.139007568359375 L 360.4949645996094 34.71880340576172 L 390.242431640625 47.847450256347656 L 419.9898986816406 84.55811309814453 L 449.73736572265625 131.92031860351562 L 479.48486328125 227.5034637451172 L 509.2323303222656 378.8379211425781 L 538.9797973632812 353.131103515625 L 568.727294921875 402.02911376953125" stroke-opacity="0.14901960784313725" stroke-linejoin="bevel" stroke-miterlimit="10" stroke-width="2" stroke-dasharray="" clip-path="url(#nVawVuNCKUOT)"/><path fill="none" stroke="rgb(0,0,0)" paint-order="fill" d="M 33.272727966308594 285.61077880859375 L 63.02020263671875 310.5249328613281 L 92.7676773071289 363.0780334472656 L 122.51515197753906 429.1396179199219 L 152.2626190185547 412.48248291015625 L 182.01010131835938 174.05859375 L 211.757568359375 120.14582061767578 L 241.5050506591797 59.57240295410156 L 271.2525329589844 66.33213806152344 L 301 35.26927185058594 L 330.7474670410156 36.139007568359375 L 360.4949645996094 34.71880340576172 L 390.242431640625 40.317054748535156 L 419.9898986816406 76.27908325195312 L 449.73736572265625 180.04217529296875 L 479.48486328125 177.6256103515625 L 509.2323303222656 287.1631164550781 L 538.9797973632812 238.35867309570312 L 568.727294921875 234.7861328125" stroke-opacity="0.14901960784313725" stroke-linejoin="bevel" stroke-miterlimit="10" stroke-width="2" stroke-dasharray="" clip-path="url(#OKomJHnJLNQM)"/><path fill="none" stroke="rgb(0,0,0)" paint-order="fill" d="M 33.272727966308594 285.61077880859375 L 63.02020263671875 310.5249328613281 L 92.7676773071289 363.0780334472656 L 122.51515197753906 429.1396179199219 L 152.2626190185547 440.1324462890625 L 182.01010131835938 394.4767150878906 L 211.757568359375 150.24537658691406 L 241.5050506591797 93.5582504272461 L 271.2525329589844 123.69083404541016 L 301 38.33537292480469 L 330.7474670410156 41.417991638183594 L 360.4949645996094 34.71880340576172 L 390.242431640625 40.317054748535156 L 419.9898986816406 76.27908325195312 L 449.73736572265625 180.04217529296875 L 479.48486328125 234.73660278320312 L 509.2323303222656 303.148681640625 L 538.9797973632812 364.5312805175781 L 568.727294921875 337.75103759765625" stroke-opacity="0.14901960784313725" stroke-linejoin="bevel" stroke-miterlimit="10" stroke-width="2" stroke-dasharray="" clip-path="url(#KcbWrilllAxV)"/><path fill="none" stroke="rgb(0,0,0)" paint-order="fill" d="M 33.272727966308594 285.61077880859375 L 63.02020263671875 310.5249328613281 L 92.7676773071289 363.0780334472656 L 122.51515197753906 429.1396179199219 L 152.2626190185547 412.48248291015625 L 182.01010131835938 174.05859375 L 211.757568359375 120.14582061767578 L 241.5050506591797 59.57240295410156 L 271.2525329589844 66.33213806152344 L 301 35.26927185058594 L 330.7474670410156 36.139007568359375 L 360.4949645996094 40.317054748535156 L 390.242431640625 62.33574676513672 L 419.9898986816406 123.17339324951172 L 449.73736572265625 287.7575988769531 L 479.48486328125 304.7450256347656 L 509.2323303222656 260.5425109863281 L 538.9797973632812 331.9216003417969 L 568.727294921875 337.75103759765625" stroke-opacity="0.14901960784313725" stroke-linejoin="bevel" stroke-miterlimit="10" stroke-width="2" stroke-dasharray="" clip-path="url(#qQWWKZxBbisF)"/><path fill="none" stroke="rgb(0,0,0)" paint-order="fill" d="M 33.272727966308594 285.61077880859375 L 63.02020263671875 310.5249328613281 L 92.7676773071289 363.0780334472656 L 122.51515197753906 429.1396179199219 L 152.2626190185547 412.48248291015625 L 182.01010131835938 174.05859375 L 211.757568359375 120.14582061767578 L 241.5050506591797 59.57240295410156 L 271.2525329589844 66.33213806152344 L 301 35.26927185058594 L 330.7474670410156 36.139007568359375 L 360.4949645996094 34.71880340576172 L 390.242431640625 49.55940246582031 L 419.9898986816406 121.84126281738281 L 449.73736572265625 270.8197326660156 L 479.48486328125 309.1872863769531 L 509.2323303222656 324.8756103515625 L 538.9797973632812 306.5340576171875 L 568.727294921875 371.5332336425781" stroke-opacity="0.14901960784313725" stroke-linejoin="bevel" stroke-miterlimit="10" stroke-width="2" stroke-dasharray="" clip-path="url(#yLredLkMWVtW)"/><path fill="none" stroke="rgb(0,0,0)" paint-order="fill" d="M 33.272727966308594 285.61077880859375 L 63.02020263671875 310.5249328613281 L 92.7676773071289 363.0780334472656 L 122.51515197753906 429.1396179199219 L 152.2626190185547 412.48248291015625 L 182.01010131835938 174.05859375 L 211.757568359375 120.14582061767578 L 241.5050506591797 59.57240295410156 L 271.2525329589844 66.33213806152344 L 301 35.26927185058594 L 330.7474670410156 46.4822883605957 L 360.4949645996094 41.13725280761719 L 390.242431640625 88.5159683227539 L 419.9898986816406 144.38839721679688 L 449.73736572265625 284.5263671875 L 479.48486328125 130.6982879638672 L 509.2323303222656 285.61077880859375 L 538.9797973632812 364.5312805175781 L 568.727294921875 337.75103759765625" stroke-opacity="0.14901960784313725" stroke-linejoin="bevel" stroke-miterlimit="10" stroke-width="2" stroke-dasharray="" clip-path="url(#HRZqBZrGJQbt)"/><path fill="none" stroke="rgb(0,0,0)" paint-order="fill" d="M 33.272727966308594 285.61077880859375 L 63.02020263671875 310.5249328613281 L 92.7676773071289 363.0780334472656 L 122.51515197753906 429.1396179199219 L 152.2626190185547 412.48248291015625 L 182.01010131835938 368.63226318359375 L 211.757568359375 330.12158203125 L 241.5050506591797 291.7705078125 L 271.2525329589844 400.8456115722656 L 301 179.42013549804688 L 330.7474670410156 117.91642761230469 L 360.4949645996094 66.50829315185547 L 390.242431640625 40.317054748535156 L 419.9898986816406 76.27908325195312 L 449.73736572265625 180.04217529296875 L 479.48486328125 234.73660278320312 L 509.2323303222656 303.148681640625 L 538.9797973632812 364.5312805175781 L 568.727294921875 337.75103759765625" stroke-opacity="0.14901960784313725" stroke-linejoin="bevel" stroke-miterlimit="10" stroke-width="2" stroke-dasharray="" clip-path="url(#kzSGBAHIiKBo)"/><path fill="none" stroke="rgb(0,0,0)" paint-order="fill" d="M 33.272727966308594 285.61077880859375 L 63.02020263671875 310.5249328613281 L 92.7676773071289 363.0780334472656 L 122.51515197753906 429.1396179199219 L 152.2626190185547 412.48248291015625 L 182.01010131835938 174.05859375 L 211.757568359375 120.14582061767578 L 241.5050506591797 59.57240295410156 L 271.2525329589844 66.33213806152344 L 301 35.26927185058594 L 330.7474670410156 36.139007568359375 L 360.4949645996094 34.71880340576172 L 390.242431640625 40.317054748535156 L 419.9898986816406 76.27908325195312 L 449.73736572265625 180.04217529296875 L 479.48486328125 88.50495910644531 L 509.2323303222656 48.43644714355469 L 538.9797973632812 76.96717071533203 L 568.727294921875 137.0836944580078" stroke-opacity="0.14901960784313725" stroke-linejoin="bevel" stroke-miterlimit="10" stroke-width="2" stroke-dasharray="" clip-path="url(#dkMwbrQNCgAm)"/><path fill="none" stroke="rgb(0,0,0)" paint-order="fill" d="M 33.272727966308594 285.61077880859375 L 63.02020263671875 310.5249328613281 L 92.7676773071289 363.0780334472656 L 122.51515197753906 429.1396179199219 L 152.2626190185547 412.48248291015625 L 182.01010131835938 174.05859375 L 211.757568359375 186.13034057617188 L 241.5050506591797 87.92697143554688 L 271.2525329589844 211.57293701171875 L 301 150.25088500976562 L 330.7474670410156 200.11221313476562 L 360.4949645996094 113.05030059814453 L 390.242431640625 168.22914123535156 L 419.9898986816406 76.27908325195312 L 449.73736572265625 180.04217529296875 L 479.48486328125 234.73660278320312 L 509.2323303222656 303.148681640625 L 538.9797973632812 364.5312805175781 L 568.727294921875 337.75103759765625" stroke-opacity="0.14901960784313725" stroke-linejoin="bevel" stroke-miterlimit="10" stroke-width="2" stroke-dasharray="" clip-path="url(#ETtgnumoStCL)"/><path fill="none" stroke="rgb(0,0,0)" paint-order="fill" d="M 33.272727966308594 291.50079345703125 L 63.02020263671875 284.1190185546875 L 92.7676773071289 402.4804992675781 L 122.51515197753906 390.65093994140625 L 152.2626190185547 319.9764709472656 L 182.01010131835938 239.73484802246094 L 211.757568359375 163.55567932128906 L 241.5050506591797 59.57240295410156 L 271.2525329589844 66.33213806152344 L 301 35.26927185058594 L 330.7474670410156 36.139007568359375 L 360.4949645996094 34.71880340576172 L 390.242431640625 40.317054748535156 L 419.9898986816406 76.27908325195312 L 449.73736572265625 180.04217529296875 L 479.48486328125 234.73660278320312 L 509.2323303222656 303.148681640625 L 538.9797973632812 364.5312805175781 L 568.727294921875 337.75103759765625" stroke-opacity="0.14901960784313725" stroke-linejoin="bevel" stroke-miterlimit="10" stroke-width="2" stroke-dasharray="" clip-path="url(#URQJLLDdhOVE)"/><path fill="none" stroke="rgb(0,0,0)" paint-order="fill" d="M 33.272727966308594 285.61077880859375 L 63.02020263671875 310.5249328613281 L 92.7676773071289 363.0780334472656 L 122.51515197753906 429.1396179199219 L 152.2626190185547 412.48248291015625 L 182.01010131835938 174.05859375 L 211.757568359375 120.14582061767578 L 241.5050506591797 59.57240295410156 L 271.2525329589844 66.33213806152344 L 301 35.26927185058594 L 330.7474670410156 36.139007568359375 L 360.4949645996094 34.71880340576172 L 390.242431640625 40.317054748535156 L 419.9898986816406 91.98391723632812 L 449.73736572265625 160.6932373046875 L 479.48486328125 109.00987243652344 L 509.2323303222656 187.82577514648438 L 538.9797973632812 214.67205810546875 L 568.727294921875 314.70849609375" stroke-opacity="0.14901960784313725" stroke-linejoin="bevel" stroke-miterlimit="10" stroke-width="2" stroke-dasharray="" clip-path="url(#sTexyUpbwIEa)"/><path fill="none" stroke="rgb(0,0,0)" paint-order="fill" d="M 33.272727966308594 285.61077880859375 L 63.02020263671875 310.5249328613281 L 92.7676773071289 363.0780334472656 L 122.51515197753906 429.1396179199219 L 152.2626190185547 412.48248291015625 L 182.01010131835938 174.05859375 L 211.757568359375 120.14582061767578 L 241.5050506591797 59.57240295410156 L 271.2525329589844 66.33213806152344 L 301 134.2653045654297 L 330.7474670410156 302.88995361328125 L 360.4949645996094 289.4145202636719 L 390.242431640625 328.079345703125 L 419.9898986816406 234.22467041015625 L 449.73736572265625 276.5831298828125 L 479.48486328125 464.56219482421875 L 509.2323303222656 303.148681640625 L 538.9797973632812 364.5312805175781 L 568.727294921875 337.75103759765625" stroke-opacity="0.14901960784313725" stroke-linejoin="bevel" stroke-miterlimit="10" stroke-width="2" stroke-dasharray="" clip-path="url(#yrTmxGyyTAwX)"/><path fill="none" stroke="rgb(0,0,0)" paint-order="fill" d="M 33.272727966308594 285.61077880859375 L 63.02020263671875 310.5249328613281 L 92.7676773071289 363.0780334472656 L 122.51515197753906 429.1396179199219 L 152.2626190185547 412.48248291015625 L 182.01010131835938 174.05859375 L 211.757568359375 120.14582061767578 L 241.5050506591797 59.57240295410156 L 271.2525329589844 66.33213806152344 L 301 169.43466186523438 L 330.7474670410156 271.0234069824219 L 360.4949645996094 254.71856689453125 L 390.242431640625 295.70635986328125 L 419.9898986816406 205.2425537109375 L 449.73736572265625 138.4818878173828 L 479.48486328125 142.56085205078125 L 509.2323303222656 303.148681640625 L 538.9797973632812 364.5312805175781 L 568.727294921875 337.75103759765625" stroke-opacity="0.14901960784313725" stroke-linejoin="bevel" stroke-miterlimit="10" stroke-width="2" stroke-dasharray="" clip-path="url(#vkncncnEPJeZ)"/><path fill="none" stroke="rgb(0,0,0)" paint-order="fill" d="M 33.272727966308594 285.61077880859375 L 63.02020263671875 310.5249328613281 L 92.7676773071289 363.0780334472656 L 122.51515197753906 429.1396179199219 L 152.2626190185547 412.48248291015625 L 182.01010131835938 174.05859375 L 211.757568359375 120.14582061767578 L 241.5050506591797 59.57240295410156 L 271.2525329589844 66.33213806152344 L 301 108.12911987304688 L 330.7474670410156 187.2808074951172 L 360.4949645996094 147.68569946289062 L 390.242431640625 194.21119689941406 L 419.9898986816406 194.1231231689453 L 449.73736572265625 202.9856414794922 L 479.48486328125 293.66412353515625 L 509.2323303222656 303.148681640625 L 538.9797973632812 364.5312805175781 L 568.727294921875 337.75103759765625" stroke-opacity="0.14901960784313725" stroke-linejoin="bevel" stroke-miterlimit="10" stroke-width="2" stroke-dasharray="" clip-path="url(#ofELCbXfozIR)"/><path fill="none" stroke="rgb(0,0,0)" paint-order="fill" d="M 33.272727966308594 285.61077880859375 L 63.02020263671875 386.9242858886719 L 92.7676773071289 315.6883239746094 L 122.51515197753906 333.1491394042969 L 152.2626190185547 346.4649353027344 L 182.01010131835938 352.6466979980469 L 211.757568359375 184.91380310058594 L 241.5050506591797 65.25322723388672 L 271.2525329589844 66.33213806152344 L 301 35.26927185058594 L 330.7474670410156 36.139007568359375 L 360.4949645996094 34.71880340576172 L 390.242431640625 40.317054748535156 L 419.9898986816406 76.27908325195312 L 449.73736572265625 180.04217529296875 L 479.48486328125 234.73660278320312 L 509.2323303222656 303.148681640625 L 538.9797973632812 364.5312805175781 L 568.727294921875 337.75103759765625" stroke-opacity="0.14901960784313725" stroke-linejoin="bevel" stroke-miterlimit="10" stroke-width="2" stroke-dasharray="" clip-path="url(#CTWHafTcbKQK)"/><path fill="none" stroke="rgb(0,0,0)" paint-order="fill" d="M 33.272727966308594 285.61077880859375 L 63.02020263671875 310.5249328613281 L 92.7676773071289 363.0780334472656 L 122.51515197753906 429.1396179199219 L 152.2626190185547 412.48248291015625 L 182.01010131835938 390.5078430175781 L 211.757568359375 249.08177185058594 L 241.5050506591797 151.3242950439453 L 271.2525329589844 318.4406433105469 L 301 157.11520385742188 L 330.7474670410156 99.70697021484375 L 360.4949645996094 54.56865310668945 L 390.242431640625 40.317054748535156 L 419.9898986816406 76.27908325195312 L 449.73736572265625 180.04217529296875 L 479.48486328125 234.73660278320312 L 509.2323303222656 303.148681640625 L 538.9797973632812 364.5312805175781 L 568.727294921875 337.75103759765625" stroke-opacity="0.14901960784313725" stroke-linejoin="bevel" stroke-miterlimit="10" stroke-width="2" stroke-dasharray="" clip-path="url(#WaLEPUArsZgs)"/><path fill="none" stroke="rgb(0,0,0)" paint-order="fill" d="M 33.272727966308594 285.61077880859375 L 63.02020263671875 310.5249328613281 L 92.7676773071289 363.0780334472656 L 122.51515197753906 429.1396179199219 L 152.2626190185547 412.48248291015625 L 182.01010131835938 174.05859375 L 211.757568359375 120.14582061767578 L 241.5050506591797 59.57240295410156 L 271.2525329589844 66.33213806152344 L 301 35.26927185058594 L 330.7474670410156 36.139007568359375 L 360.4949645996094 34.71880340576172 L 390.242431640625 36.342681884765625 L 419.9898986816406 67.96702575683594 L 449.73736572265625 123.06330108642578 L 479.48486328125 239.81741333007812 L 509.2323303222656 409.0255432128906 L 538.9797973632812 356.7972106933594 L 568.727294921875 386.5774841308594" stroke-opacity="0.14901960784313725" stroke-linejoin="bevel" stroke-miterlimit="10" stroke-width="2" stroke-dasharray="" clip-path="url(#HDWMmODETXvJ)"/><path fill="none" stroke="rgb(0,0,0)" paint-order="fill" d="M 33.272727966308594 285.61077880859375 L 63.02020263671875 310.5249328613281 L 92.7676773071289 363.0780334472656 L 122.51515197753906 429.1396179199219 L 152.2626190185547 412.48248291015625 L 182.01010131835938 174.05859375 L 211.757568359375 120.14582061767578 L 241.5050506591797 59.57240295410156 L 271.2525329589844 66.33213806152344 L 301 35.26927185058594 L 330.7474670410156 45.876773834228516 L 360.4949645996094 45.172176361083984 L 390.242431640625 97.54363250732422 L 419.9898986816406 198.6644744873047 L 449.73736572265625 298.4366760253906 L 479.48486328125 238.94216918945312 L 509.2323303222656 397.6914367675781 L 538.9797973632812 364.5312805175781 L 568.727294921875 337.75103759765625" stroke-opacity="0.14901960784313725" stroke-linejoin="bevel" stroke-miterlimit="10" stroke-width="2" stroke-dasharray="" clip-path="url(#CNfxTWJnwcau)"/><path fill="none" stroke="rgb(0,0,0)" paint-order="fill" d="M 33.272727966308594 285.61077880859375 L 63.02020263671875 310.5249328613281 L 92.7676773071289 363.0780334472656 L 122.51515197753906 429.1396179199219 L 152.2626190185547 412.48248291015625 L 182.01010131835938 174.05859375 L 211.757568359375 117.91642761230469 L 241.5050506591797 63.89907455444336 L 271.2525329589844 111.89431762695312 L 301 105.20063781738281 L 330.7474670410156 185.61289978027344 L 360.4949645996094 84.2168197631836 L 390.242431640625 138.82318115234375 L 419.9898986816406 76.27908325195312 L 449.73736572265625 180.04217529296875 L 479.48486328125 234.73660278320312 L 509.2323303222656 303.148681640625 L 538.9797973632812 364.5312805175781 L 568.727294921875 337.75103759765625" stroke-opacity="0.14901960784313725" stroke-linejoin="bevel" stroke-miterlimit="10" stroke-width="2" stroke-dasharray="" clip-path="url(#LzwALmEwHmZb)"/><path fill="none" stroke="rgb(0,0,0)" paint-order="fill" d="M 33.272727966308594 285.61077880859375 L 63.02020263671875 310.5249328613281 L 92.7676773071289 363.0780334472656 L 122.51515197753906 429.1396179199219 L 152.2626190185547 412.48248291015625 L 182.01010131835938 174.05859375 L 211.757568359375 120.14582061767578 L 241.5050506591797 59.57240295410156 L 271.2525329589844 66.33213806152344 L 301 35.26927185058594 L 330.7474670410156 36.139007568359375 L 360.4949645996094 34.71880340576172 L 390.242431640625 40.317054748535156 L 419.9898986816406 76.27908325195312 L 449.73736572265625 76.27908325195312 L 479.48486328125 138.82318115234375 L 509.2323303222656 84.2168197631836 L 538.9797973632812 156.019775390625 L 568.727294921875 191.91574096679688" stroke-opacity="0.14901960784313725" stroke-linejoin="bevel" stroke-miterlimit="10" stroke-width="2" stroke-dasharray="" clip-path="url(#KBZZKEPbPiPL)"/><path fill="none" stroke="rgb(0,0,0)" paint-order="fill" d="M 33.272727966308594 285.61077880859375 L 63.02020263671875 310.5249328613281 L 92.7676773071289 363.0780334472656 L 122.51515197753906 429.1396179199219 L 152.2626190185547 412.48248291015625 L 182.01010131835938 174.05859375 L 211.757568359375 120.14582061767578 L 241.5050506591797 59.57240295410156 L 271.2525329589844 104.02263641357422 L 301 54.79434585571289 L 330.7474670410156 84.75077819824219 L 360.4949645996094 62.96878433227539 L 390.242431640625 108.59701538085938 L 419.9898986816406 112.29615783691406 L 449.73736572265625 194.7066192626953 L 479.48486328125 234.73660278320312 L 509.2323303222656 303.148681640625 L 538.9797973632812 364.5312805175781 L 568.727294921875 337.75103759765625" stroke-opacity="0.14901960784313725" stroke-linejoin="bevel" stroke-miterlimit="10" stroke-width="2" stroke-dasharray="" clip-path="url(#bepbPdNzbCwa)"/><path fill="none" stroke="rgb(0,0,0)" paint-order="fill" d="M 33.272727966308594 285.61077880859375 L 63.02020263671875 310.5249328613281 L 92.7676773071289 363.0780334472656 L 122.51515197753906 498.2067565917969 L 152.2626190185547 474.71832275390625 L 182.01010131835938 401.6052551269531 L 211.757568359375 376.4268798828125 L 241.5050506591797 225.48324584960938 L 271.2525329589844 290.6090393066406 L 301 50.467674255371094 L 330.7474670410156 36.139007568359375 L 360.4949645996094 34.71880340576172 L 390.242431640625 40.317054748535156 L 419.9898986816406 76.27908325195312 L 449.73736572265625 180.04217529296875 L 479.48486328125 234.73660278320312 L 509.2323303222656 303.148681640625 L 538.9797973632812 364.5312805175781 L 568.727294921875 337.75103759765625" stroke-opacity="0.14901960784313725" stroke-linejoin="bevel" stroke-miterlimit="10" stroke-width="2" stroke-dasharray="" clip-path="url(#gqxMlMcdMEyn)"/><path fill="none" stroke="rgb(0,0,0)" paint-order="fill" d="M 33.272727966308594 280.00152587890625 L 63.02020263671875 272.6087341308594 L 92.7676773071289 348.49615478515625 L 122.51515197753906 306.1156921386719 L 152.2626190185547 304.7450256347656 L 182.01010131835938 181.51742553710938 L 211.757568359375 106.39514923095703 L 241.5050506591797 59.57240295410156 L 271.2525329589844 66.33213806152344 L 301 35.26927185058594 L 330.7474670410156 36.139007568359375 L 360.4949645996094 34.71880340576172 L 390.242431640625 40.317054748535156 L 419.9898986816406 76.27908325195312 L 449.73736572265625 180.04217529296875 L 479.48486328125 234.73660278320312 L 509.2323303222656 303.148681640625 L 538.9797973632812 364.5312805175781 L 568.727294921875 337.75103759765625" stroke-opacity="0.14901960784313725" stroke-linejoin="bevel" stroke-miterlimit="10" stroke-width="2" stroke-dasharray="" clip-path="url(#TswTUsvxeiWL)"/><path fill="none" stroke="rgb(0,0,0)" paint-order="fill" d="M 33.272727966308594 285.61077880859375 L 63.02020263671875 310.5249328613281 L 92.7676773071289 363.0780334472656 L 122.51515197753906 429.1396179199219 L 152.2626190185547 412.48248291015625 L 182.01010131835938 174.05859375 L 211.757568359375 136.80296325683594 L 241.5050506591797 91.98391723632812 L 271.2525329589844 160.6932373046875 L 301 110.79338073730469 L 330.7474670410156 169.94110107421875 L 360.4949645996094 90.29398345947266 L 390.242431640625 136.80296325683594 L 419.9898986816406 76.27908325195312 L 449.73736572265625 180.04217529296875 L 479.48486328125 234.73660278320312 L 509.2323303222656 303.148681640625 L 538.9797973632812 364.5312805175781 L 568.727294921875 337.75103759765625" stroke-opacity="0.14901960784313725" stroke-linejoin="bevel" stroke-miterlimit="10" stroke-width="2" stroke-dasharray="" clip-path="url(#HgAOtTmCfnqQ)"/><path fill="none" stroke="rgb(0,0,0)" paint-order="fill" d="M 33.272727966308594 285.61077880859375 L 63.02020263671875 310.5249328613281 L 92.7676773071289 358.88897705078125 L 122.51515197753906 185.4257354736328 L 152.2626190185547 256.35894775390625 L 182.01010131835938 135.33322143554688 L 211.757568359375 98.37483978271484 L 241.5050506591797 55.52096176147461 L 271.2525329589844 66.65141296386719 L 301 35.26927185058594 L 330.7474670410156 36.139007568359375 L 360.4949645996094 34.71880340576172 L 390.242431640625 40.317054748535156 L 419.9898986816406 76.27908325195312 L 449.73736572265625 180.04217529296875 L 479.48486328125 234.73660278320312 L 509.2323303222656 303.148681640625 L 538.9797973632812 364.5312805175781 L 568.727294921875 337.75103759765625" stroke-opacity="0.14901960784313725" stroke-linejoin="bevel" stroke-miterlimit="10" stroke-width="2" stroke-dasharray="" clip-path="url(#ylGJJqduBOLv)"/><path fill="none" stroke="rgb(0,0,0)" paint-order="fill" d="M 33.272727966308594 285.61077880859375 L 63.02020263671875 246.70925903320312 L 92.7676773071289 289.1998291015625 L 122.51515197753906 428.9744873046875 L 152.2626190185547 426.55792236328125 L 182.01010131835938 262.804931640625 L 211.757568359375 166.4456329345703 L 241.5050506591797 70.05329895019531 L 271.2525329589844 66.33213806152344 L 301 35.26927185058594 L 330.7474670410156 36.139007568359375 L 360.4949645996094 34.71880340576172 L 390.242431640625 40.317054748535156 L 419.9898986816406 76.27908325195312 L 449.73736572265625 180.04217529296875 L 479.48486328125 234.73660278320312 L 509.2323303222656 303.148681640625 L 538.9797973632812 364.5312805175781 L 568.727294921875 337.75103759765625" stroke-opacity="0.14901960784313725" stroke-linejoin="bevel" stroke-miterlimit="10" stroke-width="2" stroke-dasharray="" clip-path="url(#oaTuNWgGKWJp)"/><path fill="none" stroke="rgb(0,0,0)" paint-order="fill" d="M 33.272727966308594 285.61077880859375 L 63.02020263671875 310.5249328613281 L 92.7676773071289 363.0780334472656 L 122.51515197753906 429.1396179199219 L 152.2626190185547 412.48248291015625 L 182.01010131835938 174.05859375 L 211.757568359375 120.14582061767578 L 241.5050506591797 84.55811309814453 L 271.2525329589844 131.92031860351562 L 301 49.13554382324219 L 330.7474670410156 57.640262603759766 L 360.4949645996094 48.43644714355469 L 390.242431640625 88.50495910644531 L 419.9898986816406 180.04217529296875 L 449.73736572265625 180.04217529296875 L 479.48486328125 234.73660278320312 L 509.2323303222656 303.148681640625 L 538.9797973632812 364.5312805175781 L 568.727294921875 337.75103759765625" stroke-opacity="0.14901960784313725" stroke-linejoin="bevel" stroke-miterlimit="10" stroke-width="2" stroke-dasharray="" clip-path="url(#iOGAOnMrHNOx)"/><path fill="none" stroke="rgb(0,0,0)" paint-order="fill" d="M 33.272727966308594 285.61077880859375 L 63.02020263671875 310.5249328613281 L 92.7676773071289 363.0780334472656 L 122.51515197753906 429.1396179199219 L 152.2626190185547 412.48248291015625 L 182.01010131835938 174.05859375 L 211.757568359375 120.14582061767578 L 241.5050506591797 111.6466064453125 L 271.2525329589844 229.00624084472656 L 301 88.40037536621094 L 330.7474670410156 143.92601013183594 L 360.4949645996094 93.95458984375 L 390.242431640625 150.54263305664062 L 419.9898986816406 167.94839477539062 L 449.73736572265625 180.04217529296875 L 479.48486328125 234.73660278320312 L 509.2323303222656 303.148681640625 L 538.9797973632812 364.5312805175781 L 568.727294921875 337.75103759765625" stroke-opacity="0.14901960784313725" stroke-linejoin="bevel" stroke-miterlimit="10" stroke-width="2" stroke-dasharray="" clip-path="url(#pKSOKVTtKUoV)"/><path fill="none" stroke="rgb(0,0,0)" paint-order="fill" d="M 33.272727966308594 285.61077880859375 L 63.02020263671875 310.5249328613281 L 92.7676773071289 363.0780334472656 L 122.51515197753906 429.1396179199219 L 152.2626190185547 412.48248291015625 L 182.01010131835938 174.05859375 L 211.757568359375 120.14582061767578 L 241.5050506591797 59.57240295410156 L 271.2525329589844 66.33213806152344 L 301 35.26927185058594 L 330.7474670410156 36.139007568359375 L 360.4949645996094 34.71880340576172 L 390.242431640625 40.317054748535156 L 419.9898986816406 76.27908325195312 L 449.73736572265625 167.94839477539062 L 479.48486328125 190.3854522705078 L 509.2323303222656 264.59393310546875 L 538.9797973632812 325.72332763671875 L 568.727294921875 404.2585144042969" stroke-opacity="0.14901960784313725" stroke-linejoin="bevel" stroke-miterlimit="10" stroke-width="2" stroke-dasharray="" clip-path="url(#txwHfpfqcOkm)"/><path fill="none" stroke="rgb(0,0,0)" paint-order="fill" d="M 33.272727966308594 285.61077880859375 L 63.02020263671875 310.5249328613281 L 92.7676773071289 363.0780334472656 L 122.51515197753906 429.1396179199219 L 152.2626190185547 382.17926025390625 L 182.01010131835938 139.1259307861328 L 211.757568359375 65.91378784179688 L 241.5050506591797 39.83815002441406 L 271.2525329589844 49.5814208984375 L 301 38.252803802490234 L 330.7474670410156 47.21991729736328 L 360.4949645996094 34.71880340576172 L 390.242431640625 40.317054748535156 L 419.9898986816406 76.27908325195312 L 449.73736572265625 180.04217529296875 L 479.48486328125 234.73660278320312 L 509.2323303222656 303.148681640625 L 538.9797973632812 364.5312805175781 L 568.727294921875 337.75103759765625" stroke-opacity="0.14901960784313725" stroke-linejoin="bevel" stroke-miterlimit="10" stroke-width="2" stroke-dasharray="" clip-path="url(#xZewShSxsTbn)"/><path fill="none" stroke="rgb(0,0,0)" paint-order="fill" d="M 33.272727966308594 285.61077880859375 L 63.02020263671875 310.5249328613281 L 92.7676773071289 363.0780334472656 L 122.51515197753906 429.1396179199219 L 152.2626190185547 412.48248291015625 L 182.01010131835938 174.05859375 L 211.757568359375 120.14582061767578 L 241.5050506591797 59.57240295410156 L 271.2525329589844 66.33213806152344 L 301 35.26927185058594 L 330.7474670410156 36.139007568359375 L 360.4949645996094 34.71880340576172 L 390.242431640625 40.317054748535156 L 419.9898986816406 125.96426391601562 L 449.73736572265625 189.52671813964844 L 479.48486328125 285.6383056640625 L 509.2323303222656 259.85992431640625 L 538.9797973632812 405.6071472167969 L 568.727294921875 390.1665344238281" stroke-opacity="0.14901960784313725" stroke-linejoin="bevel" stroke-miterlimit="10" stroke-width="2" stroke-dasharray="" clip-path="url(#eTOZCzihFolp)"/><path fill="none" stroke="rgb(0,0,0)" paint-order="fill" d="M 33.272727966308594 285.61077880859375 L 63.02020263671875 364.5312805175781 L 92.7676773071289 337.75103759765625 L 122.51515197753906 419.89727783203125 L 152.2626190185547 342.1988220214844 L 182.01010131835938 194.73963928222656 L 211.757568359375 135.4873504638672 L 241.5050506591797 67.80188751220703 L 271.2525329589844 66.33213806152344 L 301 35.26927185058594 L 330.7474670410156 36.139007568359375 L 360.4949645996094 34.71880340576172 L 390.242431640625 40.317054748535156 L 419.9898986816406 76.27908325195312 L 449.73736572265625 180.04217529296875 L 479.48486328125 234.73660278320312 L 509.2323303222656 303.148681640625 L 538.9797973632812 364.5312805175781 L 568.727294921875 337.75103759765625" stroke-opacity="0.14901960784313725" stroke-linejoin="bevel" stroke-miterlimit="10" stroke-width="2" stroke-dasharray="" clip-path="url(#KaOEbOAicDro)"/><path fill="none" stroke="rgb(0,0,0)" paint-order="fill" d="M 33.272727966308594 285.61077880859375 L 63.02020263671875 310.5249328613281 L 92.7676773071289 363.0780334472656 L 122.51515197753906 429.1396179199219 L 152.2626190185547 412.48248291015625 L 182.01010131835938 174.05859375 L 211.757568359375 120.14582061767578 L 241.5050506591797 59.57240295410156 L 271.2525329589844 66.33213806152344 L 301 35.26927185058594 L 330.7474670410156 36.139007568359375 L 360.4949645996094 34.71880340576172 L 390.242431640625 40.317054748535156 L 419.9898986816406 112.58240509033203 L 449.73736572265625 203.43702697753906 L 479.48486328125 246.74778747558594 L 509.2323303222656 221.42079162597656 L 538.9797973632812 312.2699279785156 L 568.727294921875 250.60105895996094" stroke-opacity="0.14901960784313725" stroke-linejoin="bevel" stroke-miterlimit="10" stroke-width="2" stroke-dasharray="" clip-path="url(#tHbNxRwyJTnt)"/><path fill="none" stroke="rgb(0,0,0)" paint-order="fill" d="M 33.272727966308594 285.61077880859375 L 63.02020263671875 310.5249328613281 L 92.7676773071289 363.0780334472656 L 122.51515197753906 429.1396179199219 L 152.2626190185547 514.21435546875 L 182.01010131835938 417.4532165527344 L 211.757568359375 234.8632049560547 L 241.5050506591797 102.66297912597656 L 271.2525329589844 138.7185821533203 L 301 43.28407287597656 L 330.7474670410156 44.36849594116211 L 360.4949645996094 34.71880340576172 L 390.242431640625 40.317054748535156 L 419.9898986816406 76.27908325195312 L 449.73736572265625 180.04217529296875 L 479.48486328125 234.73660278320312 L 509.2323303222656 303.148681640625 L 538.9797973632812 364.5312805175781 L 568.727294921875 337.75103759765625" stroke-opacity="0.14901960784313725" stroke-linejoin="bevel" stroke-miterlimit="10" stroke-width="2" stroke-dasharray="" clip-path="url(#egnfKutucsTz)"/><path fill="none" stroke="rgb(0,0,0)" paint-order="fill" d="M 6.5 594.5 L 595.5 594.5" stroke-opacity="1" stroke-linejoin="bevel" stroke-miterlimit="10" stroke-dasharray=""/><path fill="none" stroke="rgb(0,0,0)" paint-order="fill" d="M 33.5 600.5 L 33.5 592.5 M 182.5 600.5 L 182.5 592.5 M 330.5 600.5 L 330.5 592.5 M 479.5 600.5 L 479.5 592.5" stroke-opacity="1" stroke-linejoin="bevel" stroke-miterlimit="10" stroke-dasharray=""/><text fill="rgb(68,68,68)" stroke="none" font-family="helvetica" font-size="0pt" font-style="normal" font-weight="normal" text-decoration="normal" x="32.772727966308594" y="605" text-anchor="start" dominant-baseline="alphabetic" transform="matrix(1, 0, 0, 1, 0.5, 0.5)" fill-opacity="1">0</text><text fill="rgb(68,68,68)" stroke="none" font-family="helvetica" font-size="0pt" font-style="normal" font-weight="normal" text-decoration="normal" x="181.51010131835938" y="605" text-anchor="start" dominant-baseline="alphabetic" transform="matrix(1, 0, 0, 1, 0.5, 0.5)" fill-opacity="1">5</text><text fill="rgb(68,68,68)" stroke="none" font-family="helvetica" font-size="0pt" font-style="normal" font-weight="normal" text-decoration="normal" x="330.2474670410156" y="605" text-anchor="start" dominant-baseline="alphabetic" transform="matrix(1, 0, 0, 1, 0.5, 0.5)" fill-opacity="1">10</text><text fill="rgb(68,68,68)" stroke="none" font-family="helvetica" font-size="0pt" font-style="normal" font-weight="normal" text-decoration="normal" x="478.98486328125" y="605" text-anchor="start" dominant-baseline="alphabetic" transform="matrix(1, 0, 0, 1, 0.5, 0.5)" fill-opacity="1">15</text><path fill="none" stroke="rgb(0,0,0)" paint-order="fill" d="M 6.5 594.5 L 6.5 5.5" stroke-opacity="1" stroke-linejoin="bevel" stroke-miterlimit="10" stroke-dasharray=""/><path fill="none" stroke="rgb(0,0,0)" paint-order="fill" d="M 0.5 528.5 L 8.5 528.5 M 0.5 418.5 L 8.5 418.5 M 0.5 308.5 L 8.5 308.5 M 0.5 198.5 L 8.5 198.5 M 0.5 88.5 L 8.5 88.5" stroke-opacity="1" stroke-linejoin="bevel" stroke-miterlimit="10" stroke-dasharray=""/><text fill="rgb(68,68,68)" stroke="none" font-family="helvetica" font-size="0pt" font-style="normal" font-weight="normal" text-decoration="normal" x="-5" y="527.9439086914062" text-anchor="start" dominant-baseline="alphabetic" transform="matrix(1, 0, 0, 1, 0.5, 0.5)" fill-opacity="1">0.4</text><text fill="rgb(68,68,68)" stroke="none" font-family="helvetica" font-size="0pt" font-style="normal" font-weight="normal" text-decoration="normal" x="-5" y="417.8504638671875" text-anchor="start" dominant-baseline="alphabetic" transform="matrix(1, 0, 0, 1, 0.5, 0.5)" fill-opacity="1">0.2</text><text fill="rgb(68,68,68)" stroke="none" font-family="helvetica" font-size="0pt" font-style="normal" font-weight="normal" text-decoration="normal" x="-5" y="307.75701904296875" text-anchor="start" dominant-baseline="alphabetic" transform="matrix(1, 0, 0, 1, 0.5, 0.5)" fill-opacity="1">0</text><text fill="rgb(68,68,68)" stroke="none" font-family="helvetica" font-size="0pt" font-style="normal" font-weight="normal" text-decoration="normal" x="-5" y="197.66355895996094" text-anchor="start" dominant-baseline="alphabetic" transform="matrix(1, 0, 0, 1, 0.5, 0.5)" fill-opacity="1">0.2</text><text fill="rgb(68,68,68)" stroke="none" font-family="helvetica" font-size="0pt" font-style="normal" font-weight="normal" text-decoration="normal" x="-5" y="87.5700912475586" text-anchor="start" dominant-baseline="alphabetic" transform="matrix(1, 0, 0, 1, 0.5, 0.5)" fill-opacity="1">0.4</text><path fill="none" stroke="rgb(0,0,0)" paint-order="fill" d="M 6.5 115.59345794392527 L 595.5 115.59345794392527" stroke-opacity="1" stroke-linejoin="bevel" stroke-miterlimit="10" stroke-width="3" stroke-dasharray="6" clip-path="url(#xCucSfpTTVRO)"/><path fill="none" stroke="rgb(0,0,0)" paint-order="fill" d="M 6.5 33.02336448598135 L 595.5 33.02336448598135" stroke-opacity="1" stroke-linejoin="bevel" stroke-miterlimit="10" stroke-width="3" stroke-dasharray="6" clip-path="url(#tRhBMAyCmrTs)"/></svg>