<svg version="1.1" xmlns="http://www.w3.org/2000/svg" width="600" height="600"><defs><clipPath id="gvZxMyFDuNBT"><path fill="none" stroke="none" d="M 6.5 5.5 L 595.5 5.5 L 595.5 594.5 L 6.5 594.5 L 6.5 5.5"/></clipPath><clipPath id="qCtUvdoFgeKG"><path fill="none" stroke="none" d="M 6.5 5.5 L 595.5 5.5 L 595.5 594.5 L 6.5 594.5 L 6.5 5.5"/></clipPath><clipPath id="JaGUhzwKdlAH"><path fill="none" stroke="none" d="M 6.5 5.5 L 595.5 5.5 L 595.5 594.5 L 6.5 594.5 L 6.5 5.5"/></clipPath><clipPath id="MndiauCHkAPK"><path fill="none" stroke="none" d="M 6.5 5.5 L 595.5 5.5 L 595.5 594.5 L 6.5 594.5 L 6.5 5.5"/></clipPath><clipPath id="ocrELozIoGln"><path fill="none" stroke="none" d="M 6.5 5.5 L 595.5 5.5 L 595.5 594.5 L 6.5 594.5 L 6.5 5.5"/></clipPath><clipPath id="sJQiwSAwJpnE"><path fill="none" stroke="none" d="M 6.5 5.5 L 595.5 5.5 L 595.5 594.5 L 6.5 594.5 L 6.5 5.5"/></clipPath><clipPath id="tVPlLOBENMBJ"><path fill="none" stroke="none" d="M 6.5 5.5 L 595.5 5.5 L 595.5 594.5 L 6.5 594.5 L 6.5 5.5"/></clipPath><clipPath id="aySoZWlEvBQw"><path fill="none" stroke="none" d="M 6.5 5.5 L 595.5 5.5 L 595.5 594.5 L 6.5 594.5 L 6.5 5.5"/></clipPath><clipPath id="fGNQmUtgQwOv"><path fill="none" stroke="none" d="M 6.5 5.5 L 595.5 5.5 L 595.5 594.5 L 6.5 594.5 L 6.5 5.5"/></clipPath><clipPath id="HARUIUuGmVZu"><path fill="none" stroke="none" d="M 6.5 5.5 L 595.5 5.5 L 595.5 594.5 L 6.5 594.5 L 6.5 5.5"/></clipPath><clipPath id="dMPFZrOeTnMR"><path fill="none" stroke="none" d="M 6.5 5.5 L 595.5 5.5 L 595.5 594.5 L 6.5 594.5 L 6.5 5.5"/></clipPath><clipPath id="dWkZTqOuZhzE"><path fill="none" stroke="none" d="M 6.5 5.5 L 595.5 5.5 L 595.5 594.5 L 6.5 594.5 L 6.5 5.5"/></clipPath><clipPath id="pIosJGSyONod"><path fill="none" stroke="none" d="M 6.5 5.5 L 595.5 5.5 L 595.5 594.5 L 6.5 594.5 L 6.5 5.5"/></clipPath><clipPath id="CattzTqKGsPF"><path fill="none" stroke="none" d="M 6.5 5.5 L 595.5 5.5 L 595.5 594.5 L 6.5 594.5 L 6.5 5.5"/></clipPath><clipPath id="ThkWsTQRTITA"><path fill="none" stroke="none" d="M 6.5 5.5 L 595.5 5.5 L 595.5 594.5 L 6.5 594.5 L 6.5 5.5"/></clipPath><clipPath id="qKWgTTmCyhcG"><path fill="none" stroke="none" d="M 6.5 5.5 L 595.5 5.5 L 595.5 594.5 L 6.5 594.5 L 6.5 5.5"/></clipPath><clipPath id="zaOtLiHSlqLM"><path fill="none" stroke="none" d="M 6.5 5.5 L 595.5 5.5 L 595.5 594.5 L 6.5 594.5 L 6.5 5.5"/></clipPath><clipPath id="SAZHqsgrfrCv"><path fill="none" stroke="none" d="M 6.5 5.5 L 595.5 5.5 L 595.5 594.5 L 6.5 594.5 L 6.5 5.5"/></clipPath><clipPath id="dLxEbzdrIcgJ"><path fill="none" stroke="none" d="M 6.5 5.5 L 595.5 5.5 L 595.5 594.5 L 6.5 594.5 L 6.5 5.5"/></clipPath><clipPath id="uEWSpyNLdCJB"><path fill="none" stroke="none" d="M 6.5 5.5 L 595.5 5.5 L 595.5 594.5 L 6.5 594.5 L 6.5 5.5"/></clipPath><clipPath id="ZrntyIGXaEaf"><path fill="none" stroke="none" d="M 6.5 5.5 L 595.5 5.5 L 595.5 594.5 L 6.5 594.5 L 6.5 5.5"/></clipPath><clipPath id="qubnmEXqDFDG"><path fill="none" stroke="none" d="M 6.5 5.5 L 595.5 5.5 L 595.5 594.5 L 6.5 594.5 L 6.5 5.5"/></clipPath><clipPath id="POCaPrCUbpEc"><path fill="none" stroke="none" d="M 6.5 5.5 L 595.5 5.5 L 595.5 594.5 L 6.5 594.5 L 6.5 5.5"/></clipPath><clipPath id="XpDQQgwmnIaH"><path fill="none" stroke="none" d="M 6.5 5.5 L 595.5 5.5 L 595.5 594.5 L 6.5 594.5 L 6.5 5.5"/></clipPath><clipPath id="WwTLFhuKnrkL"><path fill="none" stroke="none" d="M 6.5 5.5 L 595.5 5.5 L 595.5 594.5 L 6.5 594.5 L 6.5 5.5"/></clipPath><clipPath id="LwPEKrIpcptX"><path fill="none" stroke="none" d="M 6.5 5.5 L 595.5 5.5 L 595.5 594.5 L 6.5 594.5 L 6.5 5.5"/></clipPath><clipPath id="ibLfNaQidHXt"><path fill="none" stroke="none" d="M 6.5 5.5 L 595.5 5.5 L 595.5 594.5 L 6.5 594.5 L 6.5 5.5"/></clipPath><clipPath id="iToaJTmTPmiF"><path fill="none" stroke="none" d="M 6.5 5.5 L 595.5 5.5 L 595.5 594.5 L 6.5 594.5 L 6.5 5.5"/></clipPath><clipPath id="PxyeWDsCaKTv"><path fill="none" stroke="none" d="M 6.5 5.5 L 595.5 5.5 L 595.5 594.5 L 6.5 594.5 L 6.5 5.5"/></clipPath><clipPath id="qBiKImZhTShS"><path fill="none" stroke="none" d="M 6.5 5.5 L 595.5 5.5 L 595.5 594.5 L 6.5 594.5 L 6.5 5.5"/></clipPath><clipPath id="uuEFCWHwNeQQ"><path fill="none" stroke="none" d="M 6.5 5.5 L 595.5 5.5 L 595.5 594.5 L 6.5 594.5 L 6.5 5.5"/></clipPath><clipPath id="gQtyGMNgCKts"><path fill="none" stroke="none" d="M 6.5 5.5 L 595.5 5.5 L 595.5 594.5 L 6.5 594.5 L 6.5 5.5"/></clipPath><clipPath id="TFhvwqlDmSKX"><path fill="none" stroke="none" d="M 6.5 5.5 L 595.5 5.5 L 595.5 594.5 L 6.5 594.5 L 6.5 5.5"/></clipPath><clipPath id="rPrarTdtzUnU"><path fill="none" stroke="none" d="M 6.5 5.5 L 595.5 5.5 L 595.5 594.5 L 6.5 594.5 L 6.5 5.5"/></clipPath><clipPath id="BoTreyTBLQIU"><path fill="none" stroke="none" d="M 6.5 5.5 L 595.5 5.5 L 595.5 594.5 L 6.5 594.5 L 6.5 5.5"/></clipPath><clipPath id="dTielWOvpusT"><path fill="none" stroke="none" d="M 6.5 5.5 L 595.5 5.5 L 595.5 594.5 L 6.5 594.5 L 6.5 5.5"/></clipPath><clipPath id="LEddbUJotnzW"><path fill="none" stroke="none" d="M 6.5 5.5 L 595.5 5.5 L 595.5 594.5 L 6.5 594.5 L 6.5 5.5"/></clipPath><clipPath id="BGhMQATfvQBa"><path fill="none" stroke="none" d="M 6.5 5.5 L 595.5 5.5 L 595.5 594.5 L 6.5 594.5 L 6.5 5.5"/></clipPath><clipPath id="dWBvvGqfLTTu"><path fill="none" stroke="none" d="M 6.5 5.5 L 595.5 5.5 L 595.5 594.5 L 6.5 594.5 L 6.5 5.5"/></clipPath><clipPath id="nouLofrxMZuQ"><path fill="none" stroke="none" d="M 6.5 5.5 L 595.5 5.5 L 595.5 594.5 L 6.5 594.5 L 6.5 5.5"/></clipPath><clipPath id="SPqsrHLgxyND"><path fill="none" stroke="none" d="M 6.5 5.5 L 595.5 5.5 L 595.5 594.5 L 6.5 594.5 L 6.5 5.5"/></clipPath><clipPath id="ENZEEgrKpnIT"><path fill="none" stroke="none" d="M 6.5 5.5 L 595.5 5.5 L 595.5 594.5 L 6.5 594.5 L 6.5 5.5"/></clipPath><clipPath id="LQxSpDiNxkCT"><path fill="none" stroke="none" d="M 6.5 5.5 L 595.5 5.5 L 595.5 594.5 L 6.5 594.5 L 6.5 5.5"/></clipPath><clipPath id="TSRoFKrLdxCA"><path fill="none" stroke="none" d="M 6.5 5.5 L 595.5 5.5 L 595.5 594.5 L 6.5 594.5 L 6.5 5.5"/></clipPath><clipPath id="PvbbDeWutixt"><path fill="none" stroke="none" d="M 6.5 5.5 L 595.5 5.5 L 595.5 594.5 L 6.5 594.5 L 6.5 5.5"/></clipPath><clipPath id="dzCvWETRygcW"><path fill="none" stroke="none" d="M 6.5 5.5 L 595.5 5.5 L 595.5 594.5 L 6.5 594.5 L 6.5 5.5"/></clipPath><clipPath id="fFCzZhxPZbff"><path fill="none" stroke="none" d="M 6.5 5.5 L 595.5 5.5 L 595.5 594.5 L 6.5 594.5 L 6.5 5.5"/></clipPath><clipPath id="AOJiItsBOWbX"><path fill="none" stroke="none" d="M 6.5 5.5 L 595.5 5.5 L 595.5 594.5 L 6.5 594.5 L 6.5 5.5"/></clipPath><clipPath id="rFeicyftvVcr"><path fill="none" stroke="none" d="M 6.5 5.5 L 595.5 5.5 L 595.5 594.5 L 6.5 594.5 L 6.5 5.5"/></clipPath><clipPath id="nBiBJLSpOgWL"><path fill="none" stroke="none" d="M 6.5 5.5 L 595.5 5.5 L 595.5 594.5 L 6.5 594.5 L 6.5 5.5"/></clipPath><clipPath id="JmknnKJZsHQi"><path fill="none" stroke="none" d="M 6.5 5.5 L 595.5 5.5 L 595.5 594.5 L 6.5 594.5 L 6.5 5.5"/></clipPath><clipPath id="MTiIxcQGUErw"><path fill="none" stroke="none" d="M 6.5 5.5 L 595.5 5.5 L 595.5 594.5 L 6.5 594.5 L 6.5 5.5"/></clipPath><clipPath id="rJCuZtORGnbf"><path fill="none" stroke="none" d="M 6.5 5.5 L 595.5 5.5 L 595.5 594.5 L 6.5 594.5 L 6.5 5.5"/></clipPath></defs><path fill="rgb(255,255,255)" stroke="none" paint-order="stroke" d="M 0.5 0.5 L 600.5 0.5 L 600.5 600.5 L 0.5 600.5 L 0.5 0.5" fill-opacity="1"/><rect fill="#FFFFFF" stroke="none" x="6" y="5" width="589" height="589" transform="matrix(1, 0, 0, 1, 0.5, 0.5)"/><path fill="rgb(255,255,255)" stroke="none" paint-order="stroke" d="M 6.5 5.5 L 595.5 5.5 L 595.5 594.5 L 6.5 594.5 L 6.5 5.5" fill-opacity="1"/><path fill="none" stroke="rgb(0,0,0)" paint-order="fill" d="M 6.5 5.5 L 595.5 5.5 L 595.5 594.5 L 6.5 594.5 L 6.5 5.5" stroke-opacity="1" stroke-linejoin="bevel" stroke-miterlimit="10" stroke-dasharray=""/><path fill="none" stroke="rgb(0,0,0)" paint-order="fill" d="M 33.272727966308594 451.65374755859375 L 63.02020263671875 501.63616943359375 L 92.7676773071289 527.3870239257812 L 122.51515197753906 504.0747375488281 L 152.2626190185547 479.2596740722656 L 182.01010131835938 320.3342590332031 L 211.757568359375 305.1964111328125 L 241.5050506591797 73.27903747558594 L 271.2525329589844 119.1659927368164 L 301 72.82765197753906 L 330.7474670410156 132.3331756591797 L 360.4949645996094 129.34963989257812 L 390.242431640625 264.58843994140625 L 419.9898986816406 414.2219543457031 L 449.73736572265625 451.45556640625 L 479.48486328125 414.12286376953125 L 509.2323303222656 473.6889343261719 L 538.9797973632812 471.38800048828125 L 568.727294921875 436.2351379394531" stroke-opacity="0.14901960784313725" stroke-linejoin="bevel" stroke-miterlimit="10" stroke-width="2" stroke-dasharray="" clip-path="url(#JaGUhzwKdlAH)"/><path fill="none" stroke="rgb(0,0,0)" paint-order="fill" d="M 33.272727966308594 451.65374755859375 L 63.02020263671875 501.63616943359375 L 92.7676773071289 527.3870239257812 L 122.51515197753906 504.0747375488281 L 152.2626190185547 479.2596740722656 L 182.01010131835938 320.3342590332031 L 211.757568359375 305.1964111328125 L 241.5050506591797 73.27903747558594 L 271.2525329589844 86.75997924804688 L 301 37.17388916015625 L 330.7474670410156 39.40878677368164 L 360.4949645996094 35.53900146484375 L 390.242431640625 46.339168548583984 L 419.9898986816406 125.35874938964844 L 449.73736572265625 294.1099853515625 L 479.48486328125 385.4049987792969 L 509.2323303222656 401.97406005859375 L 538.9797973632812 413.4898376464844 L 568.727294921875 362.1367492675781" stroke-opacity="0.14901960784313725" stroke-linejoin="bevel" stroke-miterlimit="10" stroke-width="2" stroke-dasharray="" clip-path="url(#MndiauCHkAPK)"/><path fill="none" stroke="rgb(0,0,0)" paint-order="fill" d="M 33.272727966308594 451.65374755859375 L 63.02020263671875 501.63616943359375 L 92.7676773071289 527.3870239257812 L 122.51515197753906 504.0747375488281 L 152.2626190185547 479.2596740722656 L 182.01010131835938 320.3342590332031 L 211.757568359375 305.1964111328125 L 241.5050506591797 73.27903747558594 L 271.2525329589844 60.381587982177734 L 301 48.16672134399414 L 330.7474670410156 63.11741256713867 L 360.4949645996094 51.656681060791016 L 390.242431640625 68.00005340576172 L 419.9898986816406 108.34931182861328 L 449.73736572265625 278.8235168457031 L 479.48486328125 414.12286376953125 L 509.2323303222656 473.6889343261719 L 538.9797973632812 471.38800048828125 L 568.727294921875 436.2351379394531" stroke-opacity="0.14901960784313725" stroke-linejoin="bevel" stroke-miterlimit="10" stroke-width="2" stroke-dasharray="" clip-path="url(#ocrELozIoGln)"/><path fill="none" stroke="rgb(0,0,0)" paint-order="fill" d="M 33.272727966308594 462.894287109375 L 63.02020263671875 348.84295654296875 L 92.7676773071289 353.9072570800781 L 122.51515197753906 186.80191040039062 L 152.2626190185547 143.49664306640625 L 182.01010131835938 62.203636169433594 L 211.757568359375 51.06217575073242 L 241.5050506591797 73.27903747558594 L 271.2525329589844 86.75997924804688 L 301 37.17388916015625 L 330.7474670410156 39.40878677368164 L 360.4949645996094 35.53900146484375 L 390.242431640625 46.339168548583984 L 419.9898986816406 125.35874938964844 L 449.73736572265625 294.1099853515625 L 479.48486328125 414.12286376953125 L 509.2323303222656 473.6889343261719 L 538.9797973632812 471.38800048828125 L 568.727294921875 436.2351379394531" stroke-opacity="0.14901960784313725" stroke-linejoin="bevel" stroke-miterlimit="10" stroke-width="2" stroke-dasharray="" clip-path="url(#sJQiwSAwJpnE)"/><path fill="none" stroke="rgb(0,0,0)" paint-order="fill" d="M 33.272727966308594 451.65374755859375 L 63.02020263671875 501.63616943359375 L 92.7676773071289 527.3870239257812 L 122.51515197753906 536.5853271484375 L 152.2626190185547 574.4519653320312 L 182.01010131835938 578.211669921875 L 211.757568359375 472.76416015625 L 241.5050506591797 259.7057800292969 L 271.2525329589844 275.10235595703125 L 301 63.21099090576172 L 330.7474670410156 39.40878677368164 L 360.4949645996094 35.53900146484375 L 390.242431640625 46.339168548583984 L 419.9898986816406 125.35874938964844 L 449.73736572265625 294.1099853515625 L 479.48486328125 414.12286376953125 L 509.2323303222656 473.6889343261719 L 538.9797973632812 471.38800048828125 L 568.727294921875 436.2351379394531" stroke-opacity="0.14901960784313725" stroke-linejoin="bevel" stroke-miterlimit="10" stroke-width="2" stroke-dasharray="" clip-path="url(#tVPlLOBENMBJ)"/><path fill="none" stroke="rgb(0,0,0)" paint-order="fill" d="M 33.272727966308594 451.65374755859375 L 63.02020263671875 501.63616943359375 L 92.7676773071289 527.3870239257812 L 122.51515197753906 504.0747375488281 L 152.2626190185547 479.2596740722656 L 182.01010131835938 320.3342590332031 L 211.757568359375 305.1964111328125 L 241.5050506591797 73.27903747558594 L 271.2525329589844 86.75997924804688 L 301 37.17388916015625 L 330.7474670410156 39.40878677368164 L 360.4949645996094 35.53900146484375 L 390.242431640625 46.339168548583984 L 419.9898986816406 125.35874938964844 L 449.73736572265625 296.6256408691406 L 479.48486328125 411.7613830566406 L 509.2323303222656 399.6731262207031 L 538.9797973632812 475.852294921875 L 568.727294921875 447.1343994140625" stroke-opacity="0.14901960784313725" stroke-linejoin="bevel" stroke-miterlimit="10" stroke-width="2" stroke-dasharray="" clip-path="url(#aySoZWlEvBQw)"/><path fill="none" stroke="rgb(0,0,0)" paint-order="fill" d="M 33.272727966308594 451.65374755859375 L 63.02020263671875 501.63616943359375 L 92.7676773071289 527.3870239257812 L 122.51515197753906 504.0747375488281 L 152.2626190185547 479.2596740722656 L 182.01010131835938 320.3342590332031 L 211.757568359375 305.1964111328125 L 241.5050506591797 73.27903747558594 L 271.2525329589844 86.75997924804688 L 301 37.17388916015625 L 330.7474670410156 39.40878677368164 L 360.4949645996094 61.669681549072266 L 390.242431640625 123.905517578125 L 419.9898986816406 275.2895202636719 L 449.73736572265625 339.7437438964844 L 479.48486328125 264.3407287597656 L 509.2323303222656 267.5829772949219 L 538.9797973632812 223.45201110839844 L 568.727294921875 436.2351379394531" stroke-opacity="0.14901960784313725" stroke-linejoin="bevel" stroke-miterlimit="10" stroke-width="2" stroke-dasharray="" clip-path="url(#fGNQmUtgQwOv)"/><path fill="none" stroke="rgb(0,0,0)" paint-order="fill" d="M 33.272727966308594 451.65374755859375 L 63.02020263671875 501.63616943359375 L 92.7676773071289 527.3870239257812 L 122.51515197753906 504.0747375488281 L 152.2626190185547 479.2596740722656 L 182.01010131835938 320.3342590332031 L 211.757568359375 305.1964111328125 L 241.5050506591797 73.27903747558594 L 271.2525329589844 86.75997924804688 L 301 37.17388916015625 L 330.7474670410156 80.78190612792969 L 360.4949645996094 78.66260528564453 L 390.242431640625 191.17262268066406 L 419.9898986816406 439.1195983886719 L 449.73736572265625 447.3050537109375 L 479.48486328125 495.0801086425781 L 509.2323303222656 410.7760314941406 L 538.9797973632812 471.38800048828125 L 568.727294921875 436.2351379394531" stroke-opacity="0.14901960784313725" stroke-linejoin="bevel" stroke-miterlimit="10" stroke-width="2" stroke-dasharray="" clip-path="url(#HARUIUuGmVZu)"/><path fill="none" stroke="rgb(0,0,0)" paint-order="fill" d="M 33.272727966308594 451.65374755859375 L 63.02020263671875 501.63616943359375 L 92.7676773071289 527.3870239257812 L 122.51515197753906 504.0747375488281 L 152.2626190185547 479.2596740722656 L 182.01010131835938 320.3342590332031 L 211.757568359375 305.1964111328125 L 241.5050506591797 73.27903747558594 L 271.2525329589844 86.75997924804688 L 301 37.17388916015625 L 330.7474670410156 39.40878677368164 L 360.4949645996094 72.78361511230469 L 390.242431640625 240.9348602294922 L 419.9898986816406 398.1923522949219 L 449.73736572265625 405.2218322753906 L 479.48486328125 431.2369079589844 L 509.2323303222656 391.22344970703125 L 538.9797973632812 448.6041564941406 L 568.727294921875 436.2351379394531" stroke-opacity="0.14901960784313725" stroke-linejoin="bevel" stroke-miterlimit="10" stroke-width="2" stroke-dasharray="" clip-path="url(#dMPFZrOeTnMR)"/><path fill="none" stroke="rgb(0,0,0)" paint-order="fill" d="M 33.272727966308594 451.65374755859375 L 63.02020263671875 501.63616943359375 L 92.7676773071289 527.3870239257812 L 122.51515197753906 538.7761840820312 L 152.2626190185547 449.73809814453125 L 182.01010131835938 431.09930419921875 L 211.757568359375 397.680419921875 L 241.5050506591797 338.33453369140625 L 271.2525329589844 185.91015625 L 301 50.72639083862305 L 330.7474670410156 39.40878677368164 L 360.4949645996094 35.53900146484375 L 390.242431640625 46.339168548583984 L 419.9898986816406 125.35874938964844 L 449.73736572265625 294.1099853515625 L 479.48486328125 414.12286376953125 L 509.2323303222656 473.6889343261719 L 538.9797973632812 471.38800048828125 L 568.727294921875 436.2351379394531" stroke-opacity="0.14901960784313725" stroke-linejoin="bevel" stroke-miterlimit="10" stroke-width="2" stroke-dasharray="" clip-path="url(#dWkZTqOuZhzE)"/><path fill="none" stroke="rgb(0,0,0)" paint-order="fill" d="M 33.272727966308594 451.65374755859375 L 63.02020263671875 501.63616943359375 L 92.7676773071289 527.3870239257812 L 122.51515197753906 504.0747375488281 L 152.2626190185547 479.2596740722656 L 182.01010131835938 542.475341796875 L 211.757568359375 381.3370361328125 L 241.5050506591797 239.9550323486328 L 271.2525329589844 285.0658264160156 L 301 115.16960144042969 L 330.7474670410156 78.49746704101562 L 360.4949645996094 42.502410888671875 L 390.242431640625 46.339168548583984 L 419.9898986816406 125.35874938964844 L 449.73736572265625 294.1099853515625 L 479.48486328125 414.12286376953125 L 509.2323303222656 473.6889343261719 L 538.9797973632812 471.38800048828125 L 568.727294921875 436.2351379394531" stroke-opacity="0.14901960784313725" stroke-linejoin="bevel" stroke-miterlimit="10" stroke-width="2" stroke-dasharray="" clip-path="url(#pIosJGSyONod)"/><path fill="none" stroke="rgb(0,0,0)" paint-order="fill" d="M 33.272727966308594 451.65374755859375 L 63.02020263671875 501.63616943359375 L 92.7676773071289 502.45086669921875 L 122.51515197753906 521.0676879882812 L 152.2626190185547 521.1722412109375 L 182.01010131835938 499.7480773925781 L 211.757568359375 231.46131896972656 L 241.5050506591797 116.63384246826172 L 271.2525329589844 114.1677474975586 L 301 37.17388916015625 L 330.7474670410156 39.40878677368164 L 360.4949645996094 35.53900146484375 L 390.242431640625 46.339168548583984 L 419.9898986816406 125.35874938964844 L 449.73736572265625 294.1099853515625 L 479.48486328125 414.12286376953125 L 509.2323303222656 473.6889343261719 L 538.9797973632812 471.38800048828125 L 568.727294921875 436.2351379394531" stroke-opacity="0.14901960784313725" stroke-linejoin="bevel" stroke-miterlimit="10" stroke-width="2" stroke-dasharray="" clip-path="url(#CattzTqKGsPF)"/><path fill="none" stroke="rgb(0,0,0)" paint-order="fill" d="M 33.272727966308594 451.65374755859375 L 63.02020263671875 501.63616943359375 L 92.7676773071289 527.3870239257812 L 122.51515197753906 504.0747375488281 L 152.2626190185547 479.2596740722656 L 182.01010131835938 320.3342590332031 L 211.757568359375 305.1964111328125 L 241.5050506591797 170.1833038330078 L 271.2525329589844 371.87451171875 L 301 330.15460205078125 L 330.7474670410156 232.8209686279297 L 360.4949645996094 209.0352783203125 L 390.242431640625 300.0385437011719 L 419.9898986816406 296.6256408691406 L 449.73736572265625 294.1099853515625 L 479.48486328125 414.12286376953125 L 509.2323303222656 473.6889343261719 L 538.9797973632812 471.38800048828125 L 568.727294921875 436.2351379394531" stroke-opacity="0.14901960784313725" stroke-linejoin="bevel" stroke-miterlimit="10" stroke-width="2" stroke-dasharray="" clip-path="url(#ThkWsTQRTITA)"/><path fill="none" stroke="rgb(0,0,0)" paint-order="fill" d="M 33.272727966308594 451.65374755859375 L 63.02020263671875 501.63616943359375 L 92.7676773071289 343.3272705078125 L 122.51515197753906 371.7148742675781 L 152.2626190185547 172.41268920898438 L 182.01010131835938 177.3063507080078 L 211.757568359375 189.27349853515625 L 241.5050506591797 116.23200225830078 L 271.2525329589844 119.9256362915039 L 301 37.17388916015625 L 330.7474670410156 39.40878677368164 L 360.4949645996094 35.53900146484375 L 390.242431640625 46.339168548583984 L 419.9898986816406 125.35874938964844 L 449.73736572265625 294.1099853515625 L 479.48486328125 414.12286376953125 L 509.2323303222656 473.6889343261719 L 538.9797973632812 471.38800048828125 L 568.727294921875 436.2351379394531" stroke-opacity="0.14901960784313725" stroke-linejoin="bevel" stroke-miterlimit="10" stroke-width="2" stroke-dasharray="" clip-path="url(#qKWgTTmCyhcG)"/><path fill="none" stroke="rgb(0,0,0)" paint-order="fill" d="M 33.272727966308594 451.65374755859375 L 63.02020263671875 501.63616943359375 L 92.7676773071289 527.3870239257812 L 122.51515197753906 504.0747375488281 L 152.2626190185547 479.2596740722656 L 182.01010131835938 320.3342590332031 L 211.757568359375 305.1964111328125 L 241.5050506591797 73.27903747558594 L 271.2525329589844 86.75997924804688 L 301 37.17388916015625 L 330.7474670410156 39.40878677368164 L 360.4949645996094 35.53900146484375 L 390.242431640625 51.06217575073242 L 419.9898986816406 147.608642578125 L 449.73736572265625 167.056640625 L 479.48486328125 254.15158081054688 L 509.2323303222656 389.6325988769531 L 538.9797973632812 364.4542236328125 L 568.727294921875 469.87420654296875" stroke-opacity="0.14901960784313725" stroke-linejoin="bevel" stroke-miterlimit="10" stroke-width="2" stroke-dasharray="" clip-path="url(#zaOtLiHSlqLM)"/><path fill="none" stroke="rgb(0,0,0)" paint-order="fill" d="M 33.272727966308594 451.65374755859375 L 63.02020263671875 501.63616943359375 L 92.7676773071289 527.3870239257812 L 122.51515197753906 504.0747375488281 L 152.2626190185547 479.2596740722656 L 182.01010131835938 320.3342590332031 L 211.757568359375 305.1964111328125 L 241.5050506591797 73.27903747558594 L 271.2525329589844 86.75997924804688 L 301 37.17388916015625 L 330.7474670410156 39.40878677368164 L 360.4949645996094 35.53900146484375 L 390.242431640625 46.339168548583984 L 419.9898986816406 125.35874938964844 L 449.73736572265625 294.1099853515625 L 479.48486328125 251.93870544433594 L 509.2323303222656 403.01995849609375 L 538.9797973632812 367.9661865234375 L 568.727294921875 384.8269958496094" stroke-opacity="0.14901960784313725" stroke-linejoin="bevel" stroke-miterlimit="10" stroke-width="2" stroke-dasharray="" clip-path="url(#SAZHqsgrfrCv)"/><path fill="none" stroke="rgb(0,0,0)" paint-order="fill" d="M 33.272727966308594 451.65374755859375 L 63.02020263671875 501.63616943359375 L 92.7676773071289 527.3870239257812 L 122.51515197753906 504.0747375488281 L 152.2626190185547 507.3390197753906 L 182.01010131835938 471.80633544921875 L 211.757568359375 203.90492248535156 L 241.5050506591797 94.46652221679688 L 271.2525329589844 143.52967834472656 L 301 41.36845016479492 L 330.7474670410156 45.34282302856445 L 360.4949645996094 35.53900146484375 L 390.242431640625 46.339168548583984 L 419.9898986816406 125.35874938964844 L 449.73736572265625 294.1099853515625 L 479.48486328125 414.12286376953125 L 509.2323303222656 473.6889343261719 L 538.9797973632812 471.38800048828125 L 568.727294921875 436.2351379394531" stroke-opacity="0.14901960784313725" stroke-linejoin="bevel" stroke-miterlimit="10" stroke-width="2" stroke-dasharray="" clip-path="url(#dLxEbzdrIcgJ)"/><path fill="none" stroke="rgb(0,0,0)" paint-order="fill" d="M 33.272727966308594 451.65374755859375 L 63.02020263671875 501.63616943359375 L 92.7676773071289 527.3870239257812 L 122.51515197753906 504.0747375488281 L 152.2626190185547 479.2596740722656 L 182.01010131835938 320.3342590332031 L 211.757568359375 305.1964111328125 L 241.5050506591797 73.27903747558594 L 271.2525329589844 86.75997924804688 L 301 37.17388916015625 L 330.7474670410156 39.40878677368164 L 360.4949645996094 53.258541107177734 L 390.242431640625 98.73815155029297 L 419.9898986816406 248.80104064941406 L 449.73736572265625 456.0794982910156 L 479.48486328125 420.56884765625 L 509.2323303222656 384.8985595703125 L 538.9797973632812 478.51104736328125 L 568.727294921875 436.2351379394531" stroke-opacity="0.14901960784313725" stroke-linejoin="bevel" stroke-miterlimit="10" stroke-width="2" stroke-dasharray="" clip-path="url(#uEWSpyNLdCJB)"/><path fill="none" stroke="rgb(0,0,0)" paint-order="fill" d="M 33.272727966308594 451.65374755859375 L 63.02020263671875 501.63616943359375 L 92.7676773071289 527.3870239257812 L 122.51515197753906 504.0747375488281 L 152.2626190185547 479.2596740722656 L 182.01010131835938 320.3342590332031 L 211.757568359375 305.1964111328125 L 241.5050506591797 73.27903747558594 L 271.2525329589844 86.75997924804688 L 301 37.17388916015625 L 330.7474670410156 39.40878677368164 L 360.4949645996094 35.53900146484375 L 390.242431640625 57.056766510009766 L 419.9898986816406 258.23052978515625 L 449.73736572265625 390.66748046875 L 479.48486328125 350.00994873046875 L 509.2323303222656 370.5423889160156 L 538.9797973632812 325.5692138671875 L 568.727294921875 399.40338134765625" stroke-opacity="0.14901960784313725" stroke-linejoin="bevel" stroke-miterlimit="10" stroke-width="2" stroke-dasharray="" clip-path="url(#ZrntyIGXaEaf)"/><path fill="none" stroke="rgb(0,0,0)" paint-order="fill" d="M 33.272727966308594 451.65374755859375 L 63.02020263671875 501.63616943359375 L 92.7676773071289 527.3870239257812 L 122.51515197753906 504.0747375488281 L 152.2626190185547 479.2596740722656 L 182.01010131835938 320.3342590332031 L 211.757568359375 305.1964111328125 L 241.5050506591797 73.27903747558594 L 271.2525329589844 86.75997924804688 L 301 37.17388916015625 L 330.7474670410156 58.708168029785156 L 360.4949645996094 45.83273696899414 L 390.242431640625 115.75308990478516 L 419.9898986816406 326.268310546875 L 449.73736572265625 429.5579833984375 L 479.48486328125 205.59486389160156 L 509.2323303222656 451.65374755859375 L 538.9797973632812 471.38800048828125 L 568.727294921875 436.2351379394531" stroke-opacity="0.14901960784313725" stroke-linejoin="bevel" stroke-miterlimit="10" stroke-width="2" stroke-dasharray="" clip-path="url(#qubnmEXqDFDG)"/><path fill="none" stroke="rgb(0,0,0)" paint-order="fill" d="M 33.272727966308594 451.65374755859375 L 63.02020263671875 501.63616943359375 L 92.7676773071289 527.3870239257812 L 122.51515197753906 504.0747375488281 L 152.2626190185547 479.2596740722656 L 182.01010131835938 502.9297790527344 L 211.757568359375 449.8977355957031 L 241.5050506591797 321.2095031738281 L 271.2525329589844 356.8852844238281 L 301 169.07135009765625 L 330.7474670410156 116.88705444335938 L 360.4949645996094 64.32293319702148 L 390.242431640625 46.339168548583984 L 419.9898986816406 125.35874938964844 L 449.73736572265625 294.1099853515625 L 479.48486328125 414.12286376953125 L 509.2323303222656 473.6889343261719 L 538.9797973632812 471.38800048828125 L 568.727294921875 436.2351379394531" stroke-opacity="0.14901960784313725" stroke-linejoin="bevel" stroke-miterlimit="10" stroke-width="2" stroke-dasharray="" clip-path="url(#POCaPrCUbpEc)"/><path fill="none" stroke="rgb(0,0,0)" paint-order="fill" d="M 33.272727966308594 451.65374755859375 L 63.02020263671875 501.63616943359375 L 92.7676773071289 527.3870239257812 L 122.51515197753906 504.0747375488281 L 152.2626190185547 479.2596740722656 L 182.01010131835938 320.3342590332031 L 211.757568359375 305.1964111328125 L 241.5050506591797 73.27903747558594 L 271.2525329589844 86.75997924804688 L 301 37.17388916015625 L 330.7474670410156 39.40878677368164 L 360.4949645996094 35.53900146484375 L 390.242431640625 46.339168548583984 L 419.9898986816406 125.35874938964844 L 449.73736572265625 294.1099853515625 L 479.48486328125 150.17381286621094 L 509.2323303222656 46.1905403137207 L 538.9797973632812 120.53665161132812 L 568.727294921875 220.84280395507812" stroke-opacity="0.14901960784313725" stroke-linejoin="bevel" stroke-miterlimit="10" stroke-width="2" stroke-dasharray="" clip-path="url(#XpDQQgwmnIaH)"/><path fill="none" stroke="rgb(0,0,0)" paint-order="fill" d="M 33.272727966308594 451.65374755859375 L 63.02020263671875 501.63616943359375 L 92.7676773071289 527.3870239257812 L 122.51515197753906 504.0747375488281 L 152.2626190185547 479.2596740722656 L 182.01010131835938 320.3342590332031 L 211.757568359375 347.9236755371094 L 241.5050506591797 157.35191345214844 L 271.2525329589844 401.65478515625 L 301 371.5387268066406 L 330.7474670410156 383.75360107421875 L 360.4949645996094 306.7652282714844 L 390.242431640625 284.1685485839844 L 419.9898986816406 125.35874938964844 L 449.73736572265625 294.1099853515625 L 479.48486328125 414.12286376953125 L 509.2323303222656 473.6889343261719 L 538.9797973632812 471.38800048828125 L 568.727294921875 436.2351379394531" stroke-opacity="0.14901960784313725" stroke-linejoin="bevel" stroke-miterlimit="10" stroke-width="2" stroke-dasharray="" clip-path="url(#WwTLFhuKnrkL)"/><path fill="none" stroke="rgb(0,0,0)" paint-order="fill" d="M 33.272727966308594 371.7754211425781 L 63.02020263671875 329.5876159667969 L 92.7676773071289 414.28802490234375 L 122.51515197753906 330.0224914550781 L 152.2626190185547 334.3491516113281 L 182.01010131835938 312.2093505859375 L 211.757568359375 154.57754516601562 L 241.5050506591797 73.27903747558594 L 271.2525329589844 86.75997924804688 L 301 37.17388916015625 L 330.7474670410156 39.40878677368164 L 360.4949645996094 35.53900146484375 L 390.242431640625 46.339168548583984 L 419.9898986816406 125.35874938964844 L 449.73736572265625 294.1099853515625 L 479.48486328125 414.12286376953125 L 509.2323303222656 473.6889343261719 L 538.9797973632812 471.38800048828125 L 568.727294921875 436.2351379394531" stroke-opacity="0.14901960784313725" stroke-linejoin="bevel" stroke-miterlimit="10" stroke-width="2" stroke-dasharray="" clip-path="url(#LwPEKrIpcptX)"/><path fill="none" stroke="rgb(0,0,0)" paint-order="fill" d="M 33.272727966308594 451.65374755859375 L 63.02020263671875 501.63616943359375 L 92.7676773071289 527.3870239257812 L 122.51515197753906 504.0747375488281 L 152.2626190185547 479.2596740722656 L 182.01010131835938 320.3342590332031 L 211.757568359375 305.1964111328125 L 241.5050506591797 73.27903747558594 L 271.2525329589844 86.75997924804688 L 301 37.17388916015625 L 330.7474670410156 39.40878677368164 L 360.4949645996094 35.53900146484375 L 390.242431640625 46.339168548583984 L 419.9898986816406 103.40611267089844 L 449.73736572265625 349.3824157714844 L 479.48486328125 172.41268920898438 L 509.2323303222656 298.7284240722656 L 538.9797973632812 385.68023681640625 L 568.727294921875 440.10491943359375" stroke-opacity="0.14901960784313725" stroke-linejoin="bevel" stroke-miterlimit="10" stroke-width="2" stroke-dasharray="" clip-path="url(#ibLfNaQidHXt)"/><path fill="none" stroke="rgb(0,0,0)" paint-order="fill" d="M 33.272727966308594 451.65374755859375 L 63.02020263671875 501.63616943359375 L 92.7676773071289 527.3870239257812 L 122.51515197753906 504.0747375488281 L 152.2626190185547 479.2596740722656 L 182.01010131835938 320.3342590332031 L 211.757568359375 305.1964111328125 L 241.5050506591797 73.27903747558594 L 271.2525329589844 86.75997924804688 L 301 222.97862243652344 L 330.7474670410156 296.2127990722656 L 360.4949645996094 327.3802490234375 L 390.242431640625 367.4432373046875 L 419.9898986816406 375.34246826171875 L 449.73736572265625 446.8426513671875 L 479.48486328125 563.1674194335938 L 509.2323303222656 473.6889343261719 L 538.9797973632812 471.38800048828125 L 568.727294921875 436.2351379394531" stroke-opacity="0.14901960784313725" stroke-linejoin="bevel" stroke-miterlimit="10" stroke-width="2" stroke-dasharray="" clip-path="url(#iToaJTmTPmiF)"/><path fill="none" stroke="rgb(0,0,0)" paint-order="fill" d="M 33.272727966308594 451.65374755859375 L 63.02020263671875 501.63616943359375 L 92.7676773071289 527.3870239257812 L 122.51515197753906 504.0747375488281 L 152.2626190185547 479.2596740722656 L 182.01010131835938 320.3342590332031 L 211.757568359375 305.1964111328125 L 241.5050506591797 73.27903747558594 L 271.2525329589844 86.75997924804688 L 301 274.8271179199219 L 330.7474670410156 272.52618408203125 L 360.4949645996094 241.97525024414062 L 390.242431640625 334.4537353515625 L 419.9898986816406 305.2459411621094 L 449.73736572265625 204.87374877929688 L 479.48486328125 203.37648010253906 L 509.2323303222656 473.6889343261719 L 538.9797973632812 471.38800048828125 L 568.727294921875 436.2351379394531" stroke-opacity="0.14901960784313725" stroke-linejoin="bevel" stroke-miterlimit="10" stroke-width="2" stroke-dasharray="" clip-path="url(#PxyeWDsCaKTv)"/><path fill="none" stroke="rgb(0,0,0)" paint-order="fill" d="M 33.272727966308594 451.65374755859375 L 63.02020263671875 501.63616943359375 L 92.7676773071289 527.3870239257812 L 122.51515197753906 504.0747375488281 L 152.2626190185547 479.2596740722656 L 182.01010131835938 320.3342590332031 L 211.757568359375 305.1964111328125 L 241.5050506591797 73.27903747558594 L 271.2525329589844 86.75997924804688 L 301 124.26332092285156 L 330.7474670410156 263.0581359863281 L 360.4949645996094 235.0503692626953 L 390.242431640625 277.3592834472656 L 419.9898986816406 362.246826171875 L 449.73736572265625 425.2257995605469 L 479.48486328125 472.03204345703125 L 509.2323303222656 473.6889343261719 L 538.9797973632812 471.38800048828125 L 568.727294921875 436.2351379394531" stroke-opacity="0.14901960784313725" stroke-linejoin="bevel" stroke-miterlimit="10" stroke-width="2" stroke-dasharray="" clip-path="url(#qBiKImZhTShS)"/><path fill="none" stroke="rgb(0,0,0)" paint-order="fill" d="M 33.272727966308594 451.65374755859375 L 63.02020263671875 386.31878662109375 L 92.7676773071289 298.2605285644531 L 122.51515197753906 257.57550048828125 L 152.2626190185547 298.8275146484375 L 182.01010131835938 379.3278503417969 L 211.757568359375 217.5234832763672 L 241.5050506591797 77.81488800048828 L 271.2525329589844 86.75997924804688 L 301 37.17388916015625 L 330.7474670410156 39.40878677368164 L 360.4949645996094 35.53900146484375 L 390.242431640625 46.339168548583984 L 419.9898986816406 125.35874938964844 L 449.73736572265625 294.1099853515625 L 479.48486328125 414.12286376953125 L 509.2323303222656 473.6889343261719 L 538.9797973632812 471.38800048828125 L 568.727294921875 436.2351379394531" stroke-opacity="0.14901960784313725" stroke-linejoin="bevel" stroke-miterlimit="10" stroke-width="2" stroke-dasharray="" clip-path="url(#uuEFCWHwNeQQ)"/><path fill="none" stroke="rgb(0,0,0)" paint-order="fill" d="M 33.272727966308594 451.65374755859375 L 63.02020263671875 501.63616943359375 L 92.7676773071289 527.3870239257812 L 122.51515197753906 504.0747375488281 L 152.2626190185547 479.2596740722656 L 182.01010131835938 442.49395751953125 L 211.757568359375 325.8499450683594 L 241.5050506591797 245.86705017089844 L 271.2525329589844 380.83062744140625 L 301 234.4668731689453 L 330.7474670410156 109.27409362792969 L 360.4949645996094 62.203636169433594 L 390.242431640625 46.339168548583984 L 419.9898986816406 125.35874938964844 L 449.73736572265625 294.1099853515625 L 479.48486328125 414.12286376953125 L 509.2323303222656 473.6889343261719 L 538.9797973632812 471.38800048828125 L 568.727294921875 436.2351379394531" stroke-opacity="0.14901960784313725" stroke-linejoin="bevel" stroke-miterlimit="10" stroke-width="2" stroke-dasharray="" clip-path="url(#gQtyGMNgCKts)"/><path fill="none" stroke="rgb(0,0,0)" paint-order="fill" d="M 33.272727966308594 451.65374755859375 L 63.02020263671875 501.63616943359375 L 92.7676773071289 527.3870239257812 L 122.51515197753906 504.0747375488281 L 152.2626190185547 479.2596740722656 L 182.01010131835938 320.3342590332031 L 211.757568359375 305.1964111328125 L 241.5050506591797 73.27903747558594 L 271.2525329589844 86.75997924804688 L 301 37.17388916015625 L 330.7474670410156 39.40878677368164 L 360.4949645996094 35.53900146484375 L 390.242431640625 38.77574920654297 L 419.9898986816406 115.54391479492188 L 449.73736572265625 241.435791015625 L 479.48486328125 354.8320617675781 L 509.2323303222656 465.8062438964844 L 538.9797973632812 497.32049560546875 L 568.727294921875 422.792724609375" stroke-opacity="0.14901960784313725" stroke-linejoin="bevel" stroke-miterlimit="10" stroke-width="2" stroke-dasharray="" clip-path="url(#TFhvwqlDmSKX)"/><path fill="none" stroke="rgb(0,0,0)" paint-order="fill" d="M 33.272727966308594 451.65374755859375 L 63.02020263671875 501.63616943359375 L 92.7676773071289 527.3870239257812 L 122.51515197753906 504.0747375488281 L 152.2626190185547 479.2596740722656 L 182.01010131835938 320.3342590332031 L 211.757568359375 305.1964111328125 L 241.5050506591797 73.27903747558594 L 271.2525329589844 86.75997924804688 L 301 37.17388916015625 L 330.7474670410156 58.471466064453125 L 360.4949645996094 48.8272819519043 L 390.242431640625 122.66146087646484 L 419.9898986816406 255.62132263183594 L 449.73736572265625 333.6115417480469 L 479.48486328125 341.4997253417969 L 509.2323303222656 432.2882995605469 L 538.9797973632812 471.38800048828125 L 568.727294921875 436.2351379394531" stroke-opacity="0.14901960784313725" stroke-linejoin="bevel" stroke-miterlimit="10" stroke-width="2" stroke-dasharray="" clip-path="url(#rPrarTdtzUnU)"/><path fill="none" stroke="rgb(0,0,0)" paint-order="fill" d="M 33.272727966308594 451.65374755859375 L 63.02020263671875 501.63616943359375 L 92.7676773071289 527.3870239257812 L 122.51515197753906 504.0747375488281 L 152.2626190185547 479.2596740722656 L 182.01010131835938 320.3342590332031 L 211.757568359375 129.9991912841797 L 241.5050506591797 54.93746566772461 L 271.2525329589844 189.68084716796875 L 301 164.55752563476562 L 330.7474670410156 306.3138732910156 L 360.4949645996094 141.49295043945312 L 390.242431640625 221.20611572265625 L 419.9898986816406 125.35874938964844 L 449.73736572265625 294.1099853515625 L 479.48486328125 414.12286376953125 L 509.2323303222656 473.6889343261719 L 538.9797973632812 471.38800048828125 L 568.727294921875 436.2351379394531" stroke-opacity="0.14901960784313725" stroke-linejoin="bevel" stroke-miterlimit="10" stroke-width="2" stroke-dasharray="" clip-path="url(#BoTreyTBLQIU)"/><path fill="none" stroke="rgb(0,0,0)" paint-order="fill" d="M 33.272727966308594 451.65374755859375 L 63.02020263671875 501.63616943359375 L 92.7676773071289 527.3870239257812 L 122.51515197753906 504.0747375488281 L 152.2626190185547 479.2596740722656 L 182.01010131835938 320.3342590332031 L 211.757568359375 305.1964111328125 L 241.5050506591797 73.27903747558594 L 271.2525329589844 86.75997924804688 L 301 37.17388916015625 L 330.7474670410156 39.40878677368164 L 360.4949645996094 35.53900146484375 L 390.242431640625 46.339168548583984 L 419.9898986816406 125.35874938964844 L 449.73736572265625 125.35874938964844 L 479.48486328125 221.20611572265625 L 509.2323303222656 141.49295043945312 L 538.9797973632812 376.1791687011719 L 568.727294921875 378.53515625" stroke-opacity="0.14901960784313725" stroke-linejoin="bevel" stroke-miterlimit="10" stroke-width="2" stroke-dasharray="" clip-path="url(#dTielWOvpusT)"/><path fill="none" stroke="rgb(0,0,0)" paint-order="fill" d="M 33.272727966308594 451.65374755859375 L 63.02020263671875 501.63616943359375 L 92.7676773071289 527.3870239257812 L 122.51515197753906 504.0747375488281 L 152.2626190185547 479.2596740722656 L 182.01010131835938 320.3342590332031 L 211.757568359375 305.1964111328125 L 241.5050506591797 73.27903747558594 L 271.2525329589844 125.777099609375 L 301 60.89902877807617 L 330.7474670410156 95.49589538574219 L 360.4949645996094 83.33056640625 L 390.242431640625 159.8950653076172 L 419.9898986816406 167.00160217285156 L 449.73736572265625 294.6934814453125 L 479.48486328125 414.12286376953125 L 509.2323303222656 473.6889343261719 L 538.9797973632812 471.38800048828125 L 568.727294921875 436.2351379394531" stroke-opacity="0.14901960784313725" stroke-linejoin="bevel" stroke-miterlimit="10" stroke-width="2" stroke-dasharray="" clip-path="url(#LEddbUJotnzW)"/><path fill="none" stroke="rgb(0,0,0)" paint-order="fill" d="M 33.272727966308594 451.65374755859375 L 63.02020263671875 501.63616943359375 L 92.7676773071289 527.3870239257812 L 122.51515197753906 537.2789306640625 L 152.2626190185547 521.9429321289062 L 182.01010131835938 516.961181640625 L 211.757568359375 420.6183776855469 L 241.5050506591797 178.77609252929688 L 271.2525329589844 233.8118133544922 L 301 64.5376205444336 L 330.7474670410156 39.40878677368164 L 360.4949645996094 35.53900146484375 L 390.242431640625 46.339168548583984 L 419.9898986816406 125.35874938964844 L 449.73736572265625 294.1099853515625 L 479.48486328125 414.12286376953125 L 509.2323303222656 473.6889343261719 L 538.9797973632812 471.38800048828125 L 568.727294921875 436.2351379394531" stroke-opacity="0.14901960784313725" stroke-linejoin="bevel" stroke-miterlimit="10" stroke-width="2" stroke-dasharray="" clip-path="url(#BGhMQATfvQBa)"/><path fill="none" stroke="rgb(0,0,0)" paint-order="fill" d="M 33.272727966308594 369.4579772949219 L 63.02020263671875 425.5726013183594 L 92.7676773071289 466.8521423339844 L 122.51515197753906 501.5646057128906 L 152.2626190185547 420.56884765625 L 182.01010131835938 299.35595703125 L 211.757568359375 180.90089416503906 L 241.5050506591797 73.27903747558594 L 271.2525329589844 86.75997924804688 L 301 37.17388916015625 L 330.7474670410156 39.40878677368164 L 360.4949645996094 35.53900146484375 L 390.242431640625 46.339168548583984 L 419.9898986816406 125.35874938964844 L 449.73736572265625 294.1099853515625 L 479.48486328125 414.12286376953125 L 509.2323303222656 473.6889343261719 L 538.9797973632812 471.38800048828125 L 568.727294921875 436.2351379394531" stroke-opacity="0.14901960784313725" stroke-linejoin="bevel" stroke-miterlimit="10" stroke-width="2" stroke-dasharray="" clip-path="url(#dWBvvGqfLTTu)"/><path fill="none" stroke="rgb(0,0,0)" paint-order="fill" d="M 33.272727966308594 451.65374755859375 L 63.02020263671875 501.63616943359375 L 92.7676773071289 527.3870239257812 L 122.51515197753906 504.0747375488281 L 152.2626190185547 479.2596740722656 L 182.01010131835938 320.3342590332031 L 211.757568359375 181.56146240234375 L 241.5050506591797 103.40611267089844 L 271.2525329589844 349.3824157714844 L 301 171.1190948486328 L 330.7474670410156 278.8840637207031 L 360.4949645996094 98.72714233398438 L 390.242431640625 181.56146240234375 L 419.9898986816406 125.35874938964844 L 449.73736572265625 294.1099853515625 L 479.48486328125 414.12286376953125 L 509.2323303222656 473.6889343261719 L 538.9797973632812 471.38800048828125 L 568.727294921875 436.2351379394531" stroke-opacity="0.14901960784313725" stroke-linejoin="bevel" stroke-miterlimit="10" stroke-width="2" stroke-dasharray="" clip-path="url(#nouLofrxMZuQ)"/><path fill="none" stroke="rgb(0,0,0)" paint-order="fill" d="M 33.272727966308594 451.65374755859375 L 63.02020263671875 501.63616943359375 L 92.7676773071289 505.95184326171875 L 122.51515197753906 214.71060180664062 L 152.2626190185547 208.55087280273438 L 182.01010131835938 159.70790100097656 L 211.757568359375 114.81729888916016 L 241.5050506591797 54.733795166015625 L 271.2525329589844 90.92151641845703 L 301 37.17388916015625 L 330.7474670410156 39.40878677368164 L 360.4949645996094 35.53900146484375 L 390.242431640625 46.339168548583984 L 419.9898986816406 125.35874938964844 L 449.73736572265625 294.1099853515625 L 479.48486328125 414.12286376953125 L 509.2323303222656 473.6889343261719 L 538.9797973632812 471.38800048828125 L 568.727294921875 436.2351379394531" stroke-opacity="0.14901960784313725" stroke-linejoin="bevel" stroke-miterlimit="10" stroke-width="2" stroke-dasharray="" clip-path="url(#SPqsrHLgxyND)"/><path fill="none" stroke="rgb(0,0,0)" paint-order="fill" d="M 33.272727966308594 451.65374755859375 L 63.02020263671875 371.4726867675781 L 92.7676773071289 334.4647521972656 L 122.51515197753906 358.9495544433594 L 152.2626190185547 395.3904724121094 L 182.01010131835938 295.76690673828125 L 211.757568359375 141.33331298828125 L 241.5050506591797 82.02045440673828 L 271.2525329589844 86.75997924804688 L 301 37.17388916015625 L 330.7474670410156 39.40878677368164 L 360.4949645996094 35.53900146484375 L 390.242431640625 46.339168548583984 L 419.9898986816406 125.35874938964844 L 449.73736572265625 294.1099853515625 L 479.48486328125 414.12286376953125 L 509.2323303222656 473.6889343261719 L 538.9797973632812 471.38800048828125 L 568.727294921875 436.2351379394531" stroke-opacity="0.14901960784313725" stroke-linejoin="bevel" stroke-miterlimit="10" stroke-width="2" stroke-dasharray="" clip-path="url(#ENZEEgrKpnIT)"/><path fill="none" stroke="rgb(0,0,0)" paint-order="fill" d="M 33.272727966308594 451.65374755859375 L 63.02020263671875 501.63616943359375 L 92.7676773071289 527.3870239257812 L 122.51515197753906 504.0747375488281 L 152.2626190185547 479.2596740722656 L 182.01010131835938 320.3342590332031 L 211.757568359375 305.1964111328125 L 241.5050506591797 147.608642578125 L 271.2525329589844 167.056640625 L 301 47.84194564819336 L 330.7474670410156 58.77422332763672 L 360.4949645996094 46.1905403137207 L 390.242431640625 150.17381286621094 L 419.9898986816406 294.1099853515625 L 449.73736572265625 294.1099853515625 L 479.48486328125 414.12286376953125 L 509.2323303222656 473.6889343261719 L 538.9797973632812 471.38800048828125 L 568.727294921875 436.2351379394531" stroke-opacity="0.14901960784313725" stroke-linejoin="bevel" stroke-miterlimit="10" stroke-width="2" stroke-dasharray="" clip-path="url(#LQxSpDiNxkCT)"/><path fill="none" stroke="rgb(0,0,0)" paint-order="fill" d="M 33.272727966308594 451.65374755859375 L 63.02020263671875 501.63616943359375 L 92.7676773071289 527.3870239257812 L 122.51515197753906 504.0747375488281 L 152.2626190185547 479.2596740722656 L 182.01010131835938 320.3342590332031 L 211.757568359375 305.1964111328125 L 241.5050506591797 159.0308380126953 L 271.2525329589844 292.32647705078125 L 301 127.84686279296875 L 330.7474670410156 158.01246643066406 L 360.4949645996094 128.28173065185547 L 390.242431640625 355.2393798828125 L 419.9898986816406 327.94171142578125 L 449.73736572265625 294.1099853515625 L 479.48486328125 414.12286376953125 L 509.2323303222656 473.6889343261719 L 538.9797973632812 471.38800048828125 L 568.727294921875 436.2351379394531" stroke-opacity="0.14901960784313725" stroke-linejoin="bevel" stroke-miterlimit="10" stroke-width="2" stroke-dasharray="" clip-path="url(#TSRoFKrLdxCA)"/><path fill="none" stroke="rgb(0,0,0)" paint-order="fill" d="M 33.272727966308594 451.65374755859375 L 63.02020263671875 501.63616943359375 L 92.7676773071289 527.3870239257812 L 122.51515197753906 504.0747375488281 L 152.2626190185547 479.2596740722656 L 182.01010131835938 320.3342590332031 L 211.757568359375 305.1964111328125 L 241.5050506591797 73.27903747558594 L 271.2525329589844 86.75997924804688 L 301 37.17388916015625 L 330.7474670410156 39.40878677368164 L 360.4949645996094 35.53900146484375 L 390.242431640625 46.339168548583984 L 419.9898986816406 125.35874938964844 L 449.73736572265625 327.94171142578125 L 479.48486328125 268.8765869140625 L 509.2323303222656 375.8433837890625 L 538.9797973632812 358.7458801269531 L 568.727294921875 380.3406982421875" stroke-opacity="0.14901960784313725" stroke-linejoin="bevel" stroke-miterlimit="10" stroke-width="2" stroke-dasharray="" clip-path="url(#PvbbDeWutixt)"/><path fill="none" stroke="rgb(0,0,0)" paint-order="fill" d="M 33.272727966308594 451.65374755859375 L 63.02020263671875 501.63616943359375 L 92.7676773071289 527.3870239257812 L 122.51515197753906 504.0747375488281 L 152.2626190185547 454.0923156738281 L 182.01010131835938 252.52220153808594 L 211.757568359375 89.10497283935547 L 241.5050506591797 56.51730728149414 L 271.2525329589844 82.50486755371094 L 301 45.463924407958984 L 330.7474670410156 52.65302658081055 L 360.4949645996094 35.53900146484375 L 390.242431640625 46.339168548583984 L 419.9898986816406 125.35874938964844 L 449.73736572265625 294.1099853515625 L 479.48486328125 414.12286376953125 L 509.2323303222656 473.6889343261719 L 538.9797973632812 471.38800048828125 L 568.727294921875 436.2351379394531" stroke-opacity="0.14901960784313725" stroke-linejoin="bevel" stroke-miterlimit="10" stroke-width="2" stroke-dasharray="" clip-path="url(#dzCvWETRygcW)"/><path fill="none" stroke="rgb(0,0,0)" paint-order="fill" d="M 33.272727966308594 451.65374755859375 L 63.02020263671875 501.63616943359375 L 92.7676773071289 527.3870239257812 L 122.51515197753906 504.0747375488281 L 152.2626190185547 479.2596740722656 L 182.01010131835938 320.3342590332031 L 211.757568359375 305.1964111328125 L 241.5050506591797 73.27903747558594 L 271.2525329589844 86.75997924804688 L 301 37.17388916015625 L 330.7474670410156 39.40878677368164 L 360.4949645996094 35.53900146484375 L 390.242431640625 46.339168548583984 L 419.9898986816406 291.04388427734375 L 449.73736572265625 448.51055908203125 L 479.48486328125 393.21063232421875 L 509.2323303222656 317.7360534667969 L 538.9797973632812 506.5518493652344 L 568.727294921875 464.9420166015625" stroke-opacity="0.14901960784313725" stroke-linejoin="bevel" stroke-miterlimit="10" stroke-width="2" stroke-dasharray="" clip-path="url(#fFCzZhxPZbff)"/><path fill="none" stroke="rgb(0,0,0)" paint-order="fill" d="M 33.272727966308594 451.65374755859375 L 63.02020263671875 471.38800048828125 L 92.7676773071289 436.2351379394531 L 122.51515197753906 436.4333190917969 L 152.2626190185547 445.1582336425781 L 182.01010131835938 374.4617004394531 L 211.757568359375 229.18788146972656 L 241.5050506591797 87.706787109375 L 271.2525329589844 86.75997924804688 L 301 37.17388916015625 L 330.7474670410156 39.40878677368164 L 360.4949645996094 35.53900146484375 L 390.242431640625 46.339168548583984 L 419.9898986816406 125.35874938964844 L 449.73736572265625 294.1099853515625 L 479.48486328125 414.12286376953125 L 509.2323303222656 473.6889343261719 L 538.9797973632812 471.38800048828125 L 568.727294921875 436.2351379394531" stroke-opacity="0.14901960784313725" stroke-linejoin="bevel" stroke-miterlimit="10" stroke-width="2" stroke-dasharray="" clip-path="url(#AOJiItsBOWbX)"/><path fill="none" stroke="rgb(0,0,0)" paint-order="fill" d="M 33.272727966308594 451.65374755859375 L 63.02020263671875 501.63616943359375 L 92.7676773071289 527.3870239257812 L 122.51515197753906 504.0747375488281 L 152.2626190185547 479.2596740722656 L 182.01010131835938 320.3342590332031 L 211.757568359375 305.1964111328125 L 241.5050506591797 73.27903747558594 L 271.2525329589844 86.75997924804688 L 301 37.17388916015625 L 330.7474670410156 39.40878677368164 L 360.4949645996094 35.53900146484375 L 390.242431640625 46.339168548583984 L 419.9898986816406 146.57376098632812 L 449.73736572265625 315.1653747558594 L 479.48486328125 367.22857666015625 L 509.2323303222656 275.2289733886719 L 538.9797973632812 414.7669372558594 L 568.727294921875 342.0777282714844" stroke-opacity="0.14901960784313725" stroke-linejoin="bevel" stroke-miterlimit="10" stroke-width="2" stroke-dasharray="" clip-path="url(#rFeicyftvVcr)"/><path fill="none" stroke="rgb(0,0,0)" paint-order="fill" d="M 33.272727966308594 451.65374755859375 L 63.02020263671875 501.63616943359375 L 92.7676773071289 527.3870239257812 L 122.51515197753906 504.0747375488281 L 152.2626190185547 570.6097412109375 L 182.01010131835938 523.561279296875 L 211.757568359375 326.7967529296875 L 241.5050506591797 114.48702239990234 L 271.2525329589844 152.97018432617188 L 301 68.48997497558594 L 330.7474670410156 78.38186645507812 L 360.4949645996094 35.53900146484375 L 390.242431640625 46.339168548583984 L 419.9898986816406 125.35874938964844 L 449.73736572265625 294.1099853515625 L 479.48486328125 414.12286376953125 L 509.2323303222656 473.6889343261719 L 538.9797973632812 471.38800048828125 L 568.727294921875 436.2351379394531" stroke-opacity="0.14901960784313725" stroke-linejoin="bevel" stroke-miterlimit="10" stroke-width="2" stroke-dasharray="" clip-path="url(#nBiBJLSpOgWL)"/><path fill="none" stroke="rgb(0,0,0)" paint-order="fill" d="M 6.5 594.5 L 595.5 594.5" stroke-opacity="1" stroke-linejoin="bevel" stroke-miterlimit="10" stroke-dasharray=""/><path fill="none" stroke="rgb(0,0,0)" paint-order="fill" d="M 33.5 600.5 L 33.5 592.5 M 182.5 600.5 L 182.5 592.5 M 330.5 600.5 L 330.5 592.5 M 479.5 600.5 L 479.5 592.5" stroke-opacity="1" stroke-linejoin="bevel" stroke-miterlimit="10" stroke-dasharray=""/><text fill="rgb(68,68,68)" stroke="none" font-family="helvetica" font-size="0pt" font-style="normal" font-weight="normal" text-decoration="normal" x="32.772727966308594" y="605" text-anchor="start" dominant-baseline="alphabetic" transform="matrix(1, 0, 0, 1, 0.5, 0.5)" fill-opacity="1">0</text><text fill="rgb(68,68,68)" stroke="none" font-family="helvetica" font-size="0pt" font-style="normal" font-weight="normal" text-decoration="normal" x="181.51010131835938" y="605" text-anchor="start" dominant-baseline="alphabetic" transform="matrix(1, 0, 0, 1, 0.5, 0.5)" fill-opacity="1">5</text><text fill="rgb(68,68,68)" stroke="none" font-family="helvetica" font-size="0pt" font-style="normal" font-weight="normal" text-decoration="normal" x="330.2474670410156" y="605" text-anchor="start" dominant-baseline="alphabetic" transform="matrix(1, 0, 0, 1, 0.5, 0.5)" fill-opacity="1">10</text><text fill="rgb(68,68,68)" stroke="none" font-family="helvetica" font-size="0pt" font-style="normal" font-weight="normal" text-decoration="normal" x="478.98486328125" y="605" text-anchor="start" dominant-baseline="alphabetic" transform="matrix(1, 0, 0, 1, 0.5, 0.5)" fill-opacity="1">15</text><path fill="none" stroke="rgb(0,0,0)" paint-order="fill" d="M 6.5 594.5 L 6.5 5.5" stroke-opacity="1" stroke-linejoin="bevel" stroke-miterlimit="10" stroke-dasharray=""/><path fill="none" stroke="rgb(0,0,0)" paint-order="fill" d="M 0.5 528.5 L 8.5 528.5 M 0.5 418.5 L 8.5 418.5 M 0.5 308.5 L 8.5 308.5 M 0.5 198.5 L 8.5 198.5 M 0.5 88.5 L 8.5 88.5" stroke-opacity="1" stroke-linejoin="bevel" stroke-miterlimit="10" stroke-dasharray=""/><text fill="rgb(68,68,68)" stroke="none" font-family="helvetica" font-size="0pt" font-style="normal" font-weight="normal" text-decoration="normal" x="-5" y="527.9439086914062" text-anchor="start" dominant-baseline="alphabetic" transform="matrix(1, 0, 0, 1, 0.5, 0.5)" fill-opacity="1">0.4</text><text fill="rgb(68,68,68)" stroke="none" font-family="helvetica" font-size="0pt" font-style="normal" font-weight="normal" text-decoration="normal" x="-5" y="417.8504638671875" text-anchor="start" dominant-baseline="alphabetic" transform="matrix(1, 0, 0, 1, 0.5, 0.5)" fill-opacity="1">0.2</text><text fill="rgb(68,68,68)" stroke="none" font-family="helvetica" font-size="0pt" font-style="normal" font-weight="normal" text-decoration="normal" x="-5" y="307.75701904296875" text-anchor="start" dominant-baseline="alphabetic" transform="matrix(1, 0, 0, 1, 0.5, 0.5)" fill-opacity="1">0</text><text fill="rgb(68,68,68)" stroke="none" font-family="helvetica" font-size="0pt" font-style="normal" font-weight="normal" text-decoration="normal" x="-5" y="197.66355895996094" text-anchor="start" dominant-baseline="alphabetic" transform="matrix(1, 0, 0, 1, 0.5, 0.5)" fill-opacity="1">0.2</text><text fill="rgb(68,68,68)" stroke="none" font-family="helvetica" font-size="0pt" font-style="normal" font-weight="normal" text-decoration="normal" x="-5" y="87.5700912475586" text-anchor="start" dominant-baseline="alphabetic" transform="matrix(1, 0, 0, 1, 0.5, 0.5)" fill-opacity="1">0.4</text><path fill="none" stroke="rgb(0,0,0)" paint-order="fill" d="M 6.5 115.59345794392527 L 595.5 115.59345794392527" stroke-opacity="1" stroke-linejoin="bevel" stroke-miterlimit="10" stroke-width="3" stroke-dasharray="6" clip-path="url(#JmknnKJZsHQi)"/><path fill="none" stroke="rgb(0,0,0)" paint-order="fill" d="M 6.5 33.02336448598135 L 595.5 33.02336448598135" stroke-opacity="1" stroke-linejoin="bevel" stroke-miterlimit="10" stroke-width="3" stroke-dasharray="6" clip-path="url(#MTiIxcQGUErw)"/></svg>