<svg version="1.1" xmlns="http://www.w3.org/2000/svg" width="800" height="800"><defs><clipPath id="vhrSeUfvBpsx"><path fill="none" stroke="none" d="M 6.5 5.5 L 795.5 5.5 L 795.5 794.5 L 6.5 794.5 L 6.5 5.5"/></clipPath><clipPath id="MrADTreiFiaN"><path fill="none" stroke="none" d="M 6.5 5.5 L 795.5 5.5 L 795.5 794.5 L 6.5 794.5 L 6.5 5.5"/></clipPath><clipPath id="fdOHXMfESBOT"><path fill="none" stroke="none" d="M 6.5 5.5 L 795.5 5.5 L 795.5 794.5 L 6.5 794.5 L 6.5 5.5"/></clipPath><clipPath id="mrQBVnovMeKD"><path fill="none" stroke="none" d="M 6.5 5.5 L 795.5 5.5 L 795.5 794.5 L 6.5 794.5 L 6.5 5.5"/></clipPath><clipPath id="bHqaUBZTVIvA"><path fill="none" stroke="none" d="M 6.5 5.5 L 795.5 5.5 L 795.5 794.5 L 6.5 794.5 L 6.5 5.5"/></clipPath><clipPath id="MlQlIqznNWwe"><path fill="none" stroke="none" d="M 6.5 5.5 L 795.5 5.5 L 795.5 794.5 L 6.5 794.5 L 6.5 5.5"/></clipPath><clipPath id="lUalguyxdhlU"><path fill="none" stroke="none" d="M 6.5 5.5 L 795.5 5.5 L 795.5 794.5 L 6.5 794.5 L 6.5 5.5"/></clipPath><clipPath id="qXBwEaxgygIe"><path fill="none" stroke="none" d="M 6.5 5.5 L 795.5 5.5 L 795.5 794.5 L 6.5 794.5 L 6.5 5.5"/></clipPath></defs><path fill="rgb(255,255,255)" stroke="none" paint-order="stroke" d="M 0.5 0.5 L 800.5 0.5 L 800.5 800.5 L 0.5 800.5 L 0.5 0.5" fill-opacity="1"/><rect fill="#FFFFFF" stroke="none" x="6" y="5" width="789" height="789" transform="matrix(1, 0, 0, 1, 0.5, 0.5)"/><path fill="rgb(255,255,255)" stroke="none" paint-order="stroke" d="M 6.5 5.5 L 795.5 5.5 L 795.5 794.5 L 6.5 794.5 L 6.5 5.5" fill-opacity="1"/><path fill="none" stroke="rgb(229,229,229)" paint-order="fill" d="M 6.5 5.5 L 795.5 5.5 L 795.5 794.5 L 6.5 794.5 L 6.5 5.5" stroke-opacity="1" stroke-linejoin="bevel" stroke-miterlimit="10" stroke-dasharray=""/><path fill="rgb(31,120,180)" stroke="rgb(31,120,180)" paint-order="fill" d="M 784.2573852539062 426.92559814453125 A 10 10 0 0 1 764.2573852539062 426.92559814453125 A 10 10 0 0 1 784.2573852539062 426.92559814453125" fill-opacity="1" clip-path="url(#fdOHXMfESBOT)" stroke-opacity="1" stroke-linejoin="bevel" stroke-miterlimit="10" stroke-dasharray=""/><path fill="rgb(31,120,180)" stroke="rgb(31,120,180)" paint-order="fill" d="M 784.2573852539062 153.13978576660156 A 10 10 0 0 1 764.2573852539062 153.13978576660156 A 10 10 0 0 1 784.2573852539062 153.13978576660156" fill-opacity="1" clip-path="url(#fdOHXMfESBOT)" stroke-opacity="1" stroke-linejoin="bevel" stroke-miterlimit="10" stroke-dasharray=""/><path fill="rgb(31,120,180)" stroke="rgb(31,120,180)" paint-order="fill" d="M 784.2573852539062 390.2381286621094 A 10 10 0 0 1 764.2573852539062 390.2381286621094 A 10 10 0 0 1 784.2573852539062 390.2381286621094" fill-opacity="1" clip-path="url(#fdOHXMfESBOT)" stroke-opacity="1" stroke-linejoin="bevel" stroke-miterlimit="10" stroke-dasharray=""/><path fill="rgb(31,120,180)" stroke="rgb(31,120,180)" paint-order="fill" d="M 784.2573852539062 257.2130126953125 A 10 10 0 0 1 764.2573852539062 257.2130126953125 A 10 10 0 0 1 784.2573852539062 257.2130126953125" fill-opacity="1" clip-path="url(#fdOHXMfESBOT)" stroke-opacity="1" stroke-linejoin="bevel" stroke-miterlimit="10" stroke-dasharray=""/><path fill="rgb(31,120,180)" stroke="rgb(31,120,180)" paint-order="fill" d="M 696.1455688476562 693.8992919921875 A 10 10 0 0 1 676.1455688476562 693.8992919921875 A 10 10 0 0 1 696.1455688476562 693.8992919921875" fill-opacity="1" clip-path="url(#fdOHXMfESBOT)" stroke-opacity="1" stroke-linejoin="bevel" stroke-miterlimit="10" stroke-dasharray=""/><path fill="rgb(31,120,180)" stroke="rgb(31,120,180)" paint-order="fill" d="M 784.2573852539062 304.4602355957031 A 10 10 0 0 1 764.2573852539062 304.4602355957031 A 10 10 0 0 1 784.2573852539062 304.4602355957031" fill-opacity="1" clip-path="url(#fdOHXMfESBOT)" stroke-opacity="1" stroke-linejoin="bevel" stroke-miterlimit="10" stroke-dasharray=""/><path fill="rgb(31,120,180)" stroke="rgb(31,120,180)" paint-order="fill" d="M 767.0944213867188 634.6580200195312 A 10 10 0 0 1 747.0944213867188 634.6580200195312 A 10 10 0 0 1 767.0944213867188 634.6580200195312" fill-opacity="1" clip-path="url(#fdOHXMfESBOT)" stroke-opacity="1" stroke-linejoin="bevel" stroke-miterlimit="10" stroke-dasharray=""/><path fill="rgb(31,120,180)" stroke="rgb(31,120,180)" paint-order="fill" d="M 784.2573852539062 482.86737060546875 A 10 10 0 0 1 764.2573852539062 482.86737060546875 A 10 10 0 0 1 784.2573852539062 482.86737060546875" fill-opacity="1" clip-path="url(#fdOHXMfESBOT)" stroke-opacity="1" stroke-linejoin="bevel" stroke-miterlimit="10" stroke-dasharray=""/><path fill="rgb(31,120,180)" stroke="rgb(31,120,180)" paint-order="fill" d="M 784.2573852539062 281.700927734375 A 10 10 0 0 1 764.2573852539062 281.700927734375 A 10 10 0 0 1 784.2573852539062 281.700927734375" fill-opacity="1" clip-path="url(#fdOHXMfESBOT)" stroke-opacity="1" stroke-linejoin="bevel" stroke-miterlimit="10" stroke-dasharray=""/><path fill="rgb(31,120,180)" stroke="rgb(31,120,180)" paint-order="fill" d="M 784.2573852539062 67.45962524414062 A 10 10 0 0 1 764.2573852539062 67.45962524414062 A 10 10 0 0 1 784.2573852539062 67.45962524414062" fill-opacity="1" clip-path="url(#fdOHXMfESBOT)" stroke-opacity="1" stroke-linejoin="bevel" stroke-miterlimit="10" stroke-dasharray=""/><path fill="rgb(31,120,180)" stroke="rgb(31,120,180)" paint-order="fill" d="M 784.2573852539062 245.57565307617188 A 10 10 0 0 1 764.2573852539062 245.57565307617188 A 10 10 0 0 1 784.2573852539062 245.57565307617188" fill-opacity="1" clip-path="url(#fdOHXMfESBOT)" stroke-opacity="1" stroke-linejoin="bevel" stroke-miterlimit="10" stroke-dasharray=""/><path fill="rgb(31,120,180)" stroke="rgb(31,120,180)" paint-order="fill" d="M 784.2573852539062 143.2437744140625 A 10 10 0 0 1 764.2573852539062 143.2437744140625 A 10 10 0 0 1 784.2573852539062 143.2437744140625" fill-opacity="1" clip-path="url(#fdOHXMfESBOT)" stroke-opacity="1" stroke-linejoin="bevel" stroke-miterlimit="10" stroke-dasharray=""/><path fill="rgb(31,120,180)" stroke="rgb(31,120,180)" paint-order="fill" d="M 704.8499755859375 663.4890747070312 A 10 10 0 0 1 684.8499755859375 663.4890747070312 A 10 10 0 0 1 704.8499755859375 663.4890747070312" fill-opacity="1" clip-path="url(#fdOHXMfESBOT)" stroke-opacity="1" stroke-linejoin="bevel" stroke-miterlimit="10" stroke-dasharray=""/><path fill="rgb(31,120,180)" stroke="rgb(31,120,180)" paint-order="fill" d="M 784.2573852539062 319.392333984375 A 10 10 0 0 1 764.2573852539062 319.392333984375 A 10 10 0 0 1 784.2573852539062 319.392333984375" fill-opacity="1" clip-path="url(#fdOHXMfESBOT)" stroke-opacity="1" stroke-linejoin="bevel" stroke-miterlimit="10" stroke-dasharray=""/><path fill="rgb(31,120,180)" stroke="rgb(31,120,180)" paint-order="fill" d="M 726.3296508789062 655.1713256835938 A 10 10 0 0 1 706.3296508789062 655.1713256835938 A 10 10 0 0 1 726.3296508789062 655.1713256835938" fill-opacity="1" clip-path="url(#fdOHXMfESBOT)" stroke-opacity="1" stroke-linejoin="bevel" stroke-miterlimit="10" stroke-dasharray=""/><path fill="rgb(31,120,180)" stroke="rgb(31,120,180)" paint-order="fill" d="M 784.0084838867188 494.7424621582031 A 10 10 0 0 1 764.0084838867188 494.7424621582031 A 10 10 0 0 1 784.0084838867188 494.7424621582031" fill-opacity="1" clip-path="url(#fdOHXMfESBOT)" stroke-opacity="1" stroke-linejoin="bevel" stroke-miterlimit="10" stroke-dasharray=""/><path fill="rgb(51,160,44)" stroke="rgb(51,160,44)" paint-order="fill" d="M 738.0860595703125 284.4576721191406 A 10 10 0 0 1 718.0860595703125 284.4576721191406 A 10 10 0 0 1 738.0860595703125 284.4576721191406" fill-opacity="1" clip-path="url(#mrQBVnovMeKD)" stroke-opacity="1" stroke-linejoin="bevel" stroke-miterlimit="10" stroke-dasharray=""/><path fill="rgb(51,160,44)" stroke="rgb(51,160,44)" paint-order="fill" d="M 749.809326171875 216.4624786376953 A 10 10 0 0 1 729.809326171875 216.4624786376953 A 10 10 0 0 1 749.809326171875 216.4624786376953" fill-opacity="1" clip-path="url(#mrQBVnovMeKD)" stroke-opacity="1" stroke-linejoin="bevel" stroke-miterlimit="10" stroke-dasharray=""/><path fill="rgb(51,160,44)" stroke="rgb(51,160,44)" paint-order="fill" d="M 754.1812744140625 258.80743408203125 A 10 10 0 0 1 734.1812744140625 258.80743408203125 A 10 10 0 0 1 754.1812744140625 258.80743408203125" fill-opacity="1" clip-path="url(#mrQBVnovMeKD)" stroke-opacity="1" stroke-linejoin="bevel" stroke-miterlimit="10" stroke-dasharray=""/><path fill="rgb(51,160,44)" stroke="rgb(51,160,44)" paint-order="fill" d="M 781.8117065429688 179.91136169433594 A 10 10 0 0 1 761.8117065429688 179.91136169433594 A 10 10 0 0 1 781.8117065429688 179.91136169433594" fill-opacity="1" clip-path="url(#mrQBVnovMeKD)" stroke-opacity="1" stroke-linejoin="bevel" stroke-miterlimit="10" stroke-dasharray=""/><path fill="rgb(51,160,44)" stroke="rgb(51,160,44)" paint-order="fill" d="M 648.993896484375 453.2149658203125 A 10 10 0 0 1 628.993896484375 453.2149658203125 A 10 10 0 0 1 648.993896484375 453.2149658203125" fill-opacity="1" clip-path="url(#mrQBVnovMeKD)" stroke-opacity="1" stroke-linejoin="bevel" stroke-miterlimit="10" stroke-dasharray=""/><path fill="rgb(51,160,44)" stroke="rgb(51,160,44)" paint-order="fill" d="M 659.2807006835938 371.10791015625 A 10 10 0 0 1 639.2807006835938 371.10791015625 A 10 10 0 0 1 659.2807006835938 371.10791015625" fill-opacity="1" clip-path="url(#mrQBVnovMeKD)" stroke-opacity="1" stroke-linejoin="bevel" stroke-miterlimit="10" stroke-dasharray=""/><path fill="rgb(51,160,44)" stroke="rgb(51,160,44)" paint-order="fill" d="M 670.7896728515625 438.57720947265625 A 10 10 0 0 1 650.7896728515625 438.57720947265625 A 10 10 0 0 1 670.7896728515625 438.57720947265625" fill-opacity="1" clip-path="url(#mrQBVnovMeKD)" stroke-opacity="1" stroke-linejoin="bevel" stroke-miterlimit="10" stroke-dasharray=""/><path fill="rgb(51,160,44)" stroke="rgb(51,160,44)" paint-order="fill" d="M 709.0833740234375 316.1927490234375 A 10 10 0 0 1 689.0833740234375 316.1927490234375 A 10 10 0 0 1 709.0833740234375 316.1927490234375" fill-opacity="1" clip-path="url(#mrQBVnovMeKD)" stroke-opacity="1" stroke-linejoin="bevel" stroke-miterlimit="10" stroke-dasharray=""/><path fill="rgb(51,160,44)" stroke="rgb(51,160,44)" paint-order="fill" d="M 614.347900390625 415.69342041015625 A 10 10 0 0 1 594.347900390625 415.69342041015625 A 10 10 0 0 1 614.347900390625 415.69342041015625" fill-opacity="1" clip-path="url(#mrQBVnovMeKD)" stroke-opacity="1" stroke-linejoin="bevel" stroke-miterlimit="10" stroke-dasharray=""/><path fill="rgb(51,160,44)" stroke="rgb(51,160,44)" paint-order="fill" d="M 606.3963012695312 337.52783203125 A 10 10 0 0 1 586.3963012695312 337.52783203125 A 10 10 0 0 1 606.3963012695312 337.52783203125" fill-opacity="1" clip-path="url(#mrQBVnovMeKD)" stroke-opacity="1" stroke-linejoin="bevel" stroke-miterlimit="10" stroke-dasharray=""/><path fill="rgb(51,160,44)" stroke="rgb(51,160,44)" paint-order="fill" d="M 650.1243286132812 366.78076171875 A 10 10 0 0 1 630.1243286132812 366.78076171875 A 10 10 0 0 1 650.1243286132812 366.78076171875" fill-opacity="1" clip-path="url(#mrQBVnovMeKD)" stroke-opacity="1" stroke-linejoin="bevel" stroke-miterlimit="10" stroke-dasharray=""/><path fill="rgb(51,160,44)" stroke="rgb(51,160,44)" paint-order="fill" d="M 696.3577270507812 255.65200805664062 A 10 10 0 0 1 676.3577270507812 255.65200805664062 A 10 10 0 0 1 696.3577270507812 255.65200805664062" fill-opacity="1" clip-path="url(#mrQBVnovMeKD)" stroke-opacity="1" stroke-linejoin="bevel" stroke-miterlimit="10" stroke-dasharray=""/><path fill="rgb(51,160,44)" stroke="rgb(51,160,44)" paint-order="fill" d="M 679.741943359375 473.69384765625 A 10 10 0 0 1 659.741943359375 473.69384765625 A 10 10 0 0 1 679.741943359375 473.69384765625" fill-opacity="1" clip-path="url(#mrQBVnovMeKD)" stroke-opacity="1" stroke-linejoin="bevel" stroke-miterlimit="10" stroke-dasharray=""/><path fill="rgb(51,160,44)" stroke="rgb(51,160,44)" paint-order="fill" d="M 678.6556396484375 405.6226806640625 A 10 10 0 0 1 658.6556396484375 405.6226806640625 A 10 10 0 0 1 678.6556396484375 405.6226806640625" fill-opacity="1" clip-path="url(#mrQBVnovMeKD)" stroke-opacity="1" stroke-linejoin="bevel" stroke-miterlimit="10" stroke-dasharray=""/><path fill="rgb(51,160,44)" stroke="rgb(51,160,44)" paint-order="fill" d="M 675.6912841796875 438.4810485839844 A 10 10 0 0 1 655.6912841796875 438.4810485839844 A 10 10 0 0 1 675.6912841796875 438.4810485839844" fill-opacity="1" clip-path="url(#mrQBVnovMeKD)" stroke-opacity="1" stroke-linejoin="bevel" stroke-miterlimit="10" stroke-dasharray=""/><path fill="rgb(51,160,44)" stroke="rgb(51,160,44)" paint-order="fill" d="M 705.5368041992188 344.38446044921875 A 10 10 0 0 1 685.5368041992188 344.38446044921875 A 10 10 0 0 1 705.5368041992188 344.38446044921875" fill-opacity="1" clip-path="url(#mrQBVnovMeKD)" stroke-opacity="1" stroke-linejoin="bevel" stroke-miterlimit="10" stroke-dasharray=""/><path fill="rgb(211,211,211)" stroke="rgb(211,211,211)" paint-order="fill" d="M 224.33615112304688 679.5016479492188 A 10 10 0 0 1 204.33615112304688 679.5016479492188 A 10 10 0 0 1 224.33615112304688 679.5016479492188" fill-opacity="1" clip-path="url(#bHqaUBZTVIvA)" stroke-opacity="1" stroke-linejoin="bevel" stroke-miterlimit="10" stroke-dasharray=""/><path fill="rgb(211,211,211)" stroke="rgb(211,211,211)" paint-order="fill" d="M 180.8626708984375 720.7965698242188 A 10 10 0 0 1 160.8626708984375 720.7965698242188 A 10 10 0 0 1 180.8626708984375 720.7965698242188" fill-opacity="1" clip-path="url(#bHqaUBZTVIvA)" stroke-opacity="1" stroke-linejoin="bevel" stroke-miterlimit="10" stroke-dasharray=""/><path fill="rgb(211,211,211)" stroke="rgb(211,211,211)" paint-order="fill" d="M 634.248291015625 177.6575164794922 A 10 10 0 0 1 614.248291015625 177.6575164794922 A 10 10 0 0 1 634.248291015625 177.6575164794922" fill-opacity="1" clip-path="url(#bHqaUBZTVIvA)" stroke-opacity="1" stroke-linejoin="bevel" stroke-miterlimit="10" stroke-dasharray=""/><path fill="rgb(211,211,211)" stroke="rgb(211,211,211)" paint-order="fill" d="M 428.0611267089844 461.1221008300781 A 10 10 0 0 1 408.0611267089844 461.1221008300781 A 10 10 0 0 1 428.0611267089844 461.1221008300781" fill-opacity="1" clip-path="url(#bHqaUBZTVIvA)" stroke-opacity="1" stroke-linejoin="bevel" stroke-miterlimit="10" stroke-dasharray=""/><path fill="rgb(211,211,211)" stroke="rgb(211,211,211)" paint-order="fill" d="M 196.22312927246094 671.1268310546875 A 10 10 0 0 1 176.22312927246094 671.1268310546875 A 10 10 0 0 1 196.22312927246094 671.1268310546875" fill-opacity="1" clip-path="url(#bHqaUBZTVIvA)" stroke-opacity="1" stroke-linejoin="bevel" stroke-miterlimit="10" stroke-dasharray=""/><path fill="rgb(211,211,211)" stroke="rgb(211,211,211)" paint-order="fill" d="M 321.6707458496094 468.832763671875 A 10 10 0 0 1 301.6707458496094 468.832763671875 A 10 10 0 0 1 321.6707458496094 468.832763671875" fill-opacity="1" clip-path="url(#bHqaUBZTVIvA)" stroke-opacity="1" stroke-linejoin="bevel" stroke-miterlimit="10" stroke-dasharray=""/><path fill="rgb(211,211,211)" stroke="rgb(211,211,211)" paint-order="fill" d="M 107.29646301269531 726.178466796875 A 10 10 0 0 1 87.29646301269531 726.178466796875 A 10 10 0 0 1 107.29646301269531 726.178466796875" fill-opacity="1" clip-path="url(#bHqaUBZTVIvA)" stroke-opacity="1" stroke-linejoin="bevel" stroke-miterlimit="10" stroke-dasharray=""/><path fill="rgb(211,211,211)" stroke="rgb(211,211,211)" paint-order="fill" d="M 209.5719451904297 674.0709228515625 A 10 10 0 0 1 189.5719451904297 674.0709228515625 A 10 10 0 0 1 209.5719451904297 674.0709228515625" fill-opacity="1" clip-path="url(#bHqaUBZTVIvA)" stroke-opacity="1" stroke-linejoin="bevel" stroke-miterlimit="10" stroke-dasharray=""/><path fill="rgb(211,211,211)" stroke="rgb(211,211,211)" paint-order="fill" d="M 189.5455322265625 707.6475830078125 A 10 10 0 0 1 169.5455322265625 707.6475830078125 A 10 10 0 0 1 189.5455322265625 707.6475830078125" fill-opacity="1" clip-path="url(#bHqaUBZTVIvA)" stroke-opacity="1" stroke-linejoin="bevel" stroke-miterlimit="10" stroke-dasharray=""/><path fill="rgb(211,211,211)" stroke="rgb(211,211,211)" paint-order="fill" d="M 431.032470703125 435.9355163574219 A 10 10 0 0 1 411.032470703125 435.9355163574219 A 10 10 0 0 1 431.032470703125 435.9355163574219" fill-opacity="1" clip-path="url(#bHqaUBZTVIvA)" stroke-opacity="1" stroke-linejoin="bevel" stroke-miterlimit="10" stroke-dasharray=""/><path fill="rgb(211,211,211)" stroke="rgb(211,211,211)" paint-order="fill" d="M 217.1490478515625 567.594482421875 A 10 10 0 0 1 197.1490478515625 567.594482421875 A 10 10 0 0 1 217.1490478515625 567.594482421875" fill-opacity="1" clip-path="url(#bHqaUBZTVIvA)" stroke-opacity="1" stroke-linejoin="bevel" stroke-miterlimit="10" stroke-dasharray=""/><path fill="rgb(211,211,211)" stroke="rgb(211,211,211)" paint-order="fill" d="M 174.00665283203125 613.32470703125 A 10 10 0 0 1 154.00665283203125 613.32470703125 A 10 10 0 0 1 174.00665283203125 613.32470703125" fill-opacity="1" clip-path="url(#bHqaUBZTVIvA)" stroke-opacity="1" stroke-linejoin="bevel" stroke-miterlimit="10" stroke-dasharray=""/><path fill="rgb(211,211,211)" stroke="rgb(211,211,211)" paint-order="fill" d="M 130.45375061035156 591.1652221679688 A 10 10 0 0 1 110.45375061035156 591.1652221679688 A 10 10 0 0 1 130.45375061035156 591.1652221679688" fill-opacity="1" clip-path="url(#bHqaUBZTVIvA)" stroke-opacity="1" stroke-linejoin="bevel" stroke-miterlimit="10" stroke-dasharray=""/><path fill="rgb(211,211,211)" stroke="rgb(211,211,211)" paint-order="fill" d="M 178.4039764404297 566.943603515625 A 10 10 0 0 1 158.4039764404297 566.943603515625 A 10 10 0 0 1 178.4039764404297 566.943603515625" fill-opacity="1" clip-path="url(#bHqaUBZTVIvA)" stroke-opacity="1" stroke-linejoin="bevel" stroke-miterlimit="10" stroke-dasharray=""/><path fill="rgb(211,211,211)" stroke="rgb(211,211,211)" paint-order="fill" d="M 139.4329833984375 569.4296264648438 A 10 10 0 0 1 119.4329833984375 569.4296264648438 A 10 10 0 0 1 139.4329833984375 569.4296264648438" fill-opacity="1" clip-path="url(#bHqaUBZTVIvA)" stroke-opacity="1" stroke-linejoin="bevel" stroke-miterlimit="10" stroke-dasharray=""/><path fill="rgb(211,211,211)" stroke="rgb(211,211,211)" paint-order="fill" d="M 221.10598754882812 564.9617919921875 A 10 10 0 0 1 201.10598754882812 564.9617919921875 A 10 10 0 0 1 221.10598754882812 564.9617919921875" fill-opacity="1" clip-path="url(#bHqaUBZTVIvA)" stroke-opacity="1" stroke-linejoin="bevel" stroke-miterlimit="10" stroke-dasharray=""/><path fill="rgb(211,211,211)" stroke="rgb(211,211,211)" paint-order="fill" d="M 238.29661560058594 563.0862426757812 A 10 10 0 0 1 218.29661560058594 563.0862426757812 A 10 10 0 0 1 238.29661560058594 563.0862426757812" fill-opacity="1" clip-path="url(#bHqaUBZTVIvA)" stroke-opacity="1" stroke-linejoin="bevel" stroke-miterlimit="10" stroke-dasharray=""/><path fill="rgb(211,211,211)" stroke="rgb(211,211,211)" paint-order="fill" d="M 96.96868133544922 626.36181640625 A 10 10 0 0 1 76.96868133544922 626.36181640625 A 10 10 0 0 1 96.96868133544922 626.36181640625" fill-opacity="1" clip-path="url(#bHqaUBZTVIvA)" stroke-opacity="1" stroke-linejoin="bevel" stroke-miterlimit="10" stroke-dasharray=""/><path fill="rgb(211,211,211)" stroke="rgb(211,211,211)" paint-order="fill" d="M 165.31590270996094 539.1422729492188 A 10 10 0 0 1 145.31590270996094 539.1422729492188 A 10 10 0 0 1 165.31590270996094 539.1422729492188" fill-opacity="1" clip-path="url(#bHqaUBZTVIvA)" stroke-opacity="1" stroke-linejoin="bevel" stroke-miterlimit="10" stroke-dasharray=""/><path fill="rgb(211,211,211)" stroke="rgb(211,211,211)" paint-order="fill" d="M 92.36803436279297 615.0663452148438 A 10 10 0 0 1 72.36803436279297 615.0663452148438 A 10 10 0 0 1 92.36803436279297 615.0663452148438" fill-opacity="1" clip-path="url(#bHqaUBZTVIvA)" stroke-opacity="1" stroke-linejoin="bevel" stroke-miterlimit="10" stroke-dasharray=""/><path fill="rgb(211,211,211)" stroke="rgb(211,211,211)" paint-order="fill" d="M 276.6502685546875 548.818603515625 A 10 10 0 0 1 256.6502685546875 548.818603515625 A 10 10 0 0 1 276.6502685546875 548.818603515625" fill-opacity="1" clip-path="url(#bHqaUBZTVIvA)" stroke-opacity="1" stroke-linejoin="bevel" stroke-miterlimit="10" stroke-dasharray=""/><path fill="rgb(211,211,211)" stroke="rgb(211,211,211)" paint-order="fill" d="M 416.2167663574219 444.24310302734375 A 10 10 0 0 1 396.2167663574219 444.24310302734375 A 10 10 0 0 1 416.2167663574219 444.24310302734375" fill-opacity="1" clip-path="url(#bHqaUBZTVIvA)" stroke-opacity="1" stroke-linejoin="bevel" stroke-miterlimit="10" stroke-dasharray=""/><path fill="rgb(211,211,211)" stroke="rgb(211,211,211)" paint-order="fill" d="M 281.9030456542969 506.6692810058594 A 10 10 0 0 1 261.9030456542969 506.6692810058594 A 10 10 0 0 1 281.9030456542969 506.6692810058594" fill-opacity="1" clip-path="url(#bHqaUBZTVIvA)" stroke-opacity="1" stroke-linejoin="bevel" stroke-miterlimit="10" stroke-dasharray=""/><path fill="rgb(211,211,211)" stroke="rgb(211,211,211)" paint-order="fill" d="M 249.6935577392578 588.4876098632812 A 10 10 0 0 1 229.6935577392578 588.4876098632812 A 10 10 0 0 1 249.6935577392578 588.4876098632812" fill-opacity="1" clip-path="url(#bHqaUBZTVIvA)" stroke-opacity="1" stroke-linejoin="bevel" stroke-miterlimit="10" stroke-dasharray=""/><path fill="rgb(211,211,211)" stroke="rgb(211,211,211)" paint-order="fill" d="M 184.85903930664062 629.482177734375 A 10 10 0 0 1 164.85903930664062 629.482177734375 A 10 10 0 0 1 184.85903930664062 629.482177734375" fill-opacity="1" clip-path="url(#bHqaUBZTVIvA)" stroke-opacity="1" stroke-linejoin="bevel" stroke-miterlimit="10" stroke-dasharray=""/><path fill="rgb(211,211,211)" stroke="rgb(211,211,211)" paint-order="fill" d="M 269.7411804199219 652.7936401367188 A 10 10 0 0 1 249.74118041992188 652.7936401367188 A 10 10 0 0 1 269.7411804199219 652.7936401367188" fill-opacity="1" clip-path="url(#bHqaUBZTVIvA)" stroke-opacity="1" stroke-linejoin="bevel" stroke-miterlimit="10" stroke-dasharray=""/><path fill="rgb(211,211,211)" stroke="rgb(211,211,211)" paint-order="fill" d="M 298.0083923339844 602.4200439453125 A 10 10 0 0 1 278.0083923339844 602.4200439453125 A 10 10 0 0 1 298.0083923339844 602.4200439453125" fill-opacity="1" clip-path="url(#bHqaUBZTVIvA)" stroke-opacity="1" stroke-linejoin="bevel" stroke-miterlimit="10" stroke-dasharray=""/><path fill="rgb(211,211,211)" stroke="rgb(211,211,211)" paint-order="fill" d="M 254.59434509277344 586.4024658203125 A 10 10 0 0 1 234.59434509277344 586.4024658203125 A 10 10 0 0 1 254.59434509277344 586.4024658203125" fill-opacity="1" clip-path="url(#bHqaUBZTVIvA)" stroke-opacity="1" stroke-linejoin="bevel" stroke-miterlimit="10" stroke-dasharray=""/><path fill="rgb(211,211,211)" stroke="rgb(211,211,211)" paint-order="fill" d="M 330.4026794433594 555.3648071289062 A 10 10 0 0 1 310.4026794433594 555.3648071289062 A 10 10 0 0 1 330.4026794433594 555.3648071289062" fill-opacity="1" clip-path="url(#bHqaUBZTVIvA)" stroke-opacity="1" stroke-linejoin="bevel" stroke-miterlimit="10" stroke-dasharray=""/><path fill="rgb(211,211,211)" stroke="rgb(211,211,211)" paint-order="fill" d="M 431.9130554199219 457.1492004394531 A 10 10 0 0 1 411.9130554199219 457.1492004394531 A 10 10 0 0 1 431.9130554199219 457.1492004394531" fill-opacity="1" clip-path="url(#bHqaUBZTVIvA)" stroke-opacity="1" stroke-linejoin="bevel" stroke-miterlimit="10" stroke-dasharray=""/><path fill="rgb(211,211,211)" stroke="rgb(211,211,211)" paint-order="fill" d="M 399.1694641113281 449.0355224609375 A 10 10 0 0 1 379.1694641113281 449.0355224609375 A 10 10 0 0 1 399.1694641113281 449.0355224609375" fill-opacity="1" clip-path="url(#bHqaUBZTVIvA)" stroke-opacity="1" stroke-linejoin="bevel" stroke-miterlimit="10" stroke-dasharray=""/><path fill="rgb(211,211,211)" stroke="rgb(211,211,211)" paint-order="fill" d="M 282.3402404785156 567.3555297851562 A 10 10 0 0 1 262.3402404785156 567.3555297851562 A 10 10 0 0 1 282.3402404785156 567.3555297851562" fill-opacity="1" clip-path="url(#bHqaUBZTVIvA)" stroke-opacity="1" stroke-linejoin="bevel" stroke-miterlimit="10" stroke-dasharray=""/><path fill="rgb(211,211,211)" stroke="rgb(211,211,211)" paint-order="fill" d="M 419.1373291015625 479.1155090332031 A 10 10 0 0 1 399.1373291015625 479.1155090332031 A 10 10 0 0 1 419.1373291015625 479.1155090332031" fill-opacity="1" clip-path="url(#bHqaUBZTVIvA)" stroke-opacity="1" stroke-linejoin="bevel" stroke-miterlimit="10" stroke-dasharray=""/><path fill="rgb(211,211,211)" stroke="rgb(211,211,211)" paint-order="fill" d="M 229.7123260498047 685.0581665039062 A 10 10 0 0 1 209.7123260498047 685.0581665039062 A 10 10 0 0 1 229.7123260498047 685.0581665039062" fill-opacity="1" clip-path="url(#bHqaUBZTVIvA)" stroke-opacity="1" stroke-linejoin="bevel" stroke-miterlimit="10" stroke-dasharray=""/><path fill="rgb(211,211,211)" stroke="rgb(211,211,211)" paint-order="fill" d="M 203.49581909179688 656.3010864257812 A 10 10 0 0 1 183.49581909179688 656.3010864257812 A 10 10 0 0 1 203.49581909179688 656.3010864257812" fill-opacity="1" clip-path="url(#bHqaUBZTVIvA)" stroke-opacity="1" stroke-linejoin="bevel" stroke-miterlimit="10" stroke-dasharray=""/><path fill="rgb(211,211,211)" stroke="rgb(211,211,211)" paint-order="fill" d="M 313.8382873535156 463.521240234375 A 10 10 0 0 1 293.8382873535156 463.521240234375 A 10 10 0 0 1 313.8382873535156 463.521240234375" fill-opacity="1" clip-path="url(#bHqaUBZTVIvA)" stroke-opacity="1" stroke-linejoin="bevel" stroke-miterlimit="10" stroke-dasharray=""/><path fill="rgb(211,211,211)" stroke="rgb(211,211,211)" paint-order="fill" d="M 167.68475341796875 668.532470703125 A 10 10 0 0 1 147.68475341796875 668.532470703125 A 10 10 0 0 1 167.68475341796875 668.532470703125" fill-opacity="1" clip-path="url(#bHqaUBZTVIvA)" stroke-opacity="1" stroke-linejoin="bevel" stroke-miterlimit="10" stroke-dasharray=""/><path fill="rgb(211,211,211)" stroke="rgb(211,211,211)" paint-order="fill" d="M 277.61297607421875 637.3182983398438 A 10 10 0 0 1 257.61297607421875 637.3182983398438 A 10 10 0 0 1 277.61297607421875 637.3182983398438" fill-opacity="1" clip-path="url(#bHqaUBZTVIvA)" stroke-opacity="1" stroke-linejoin="bevel" stroke-miterlimit="10" stroke-dasharray=""/><path fill="rgb(211,211,211)" stroke="rgb(211,211,211)" paint-order="fill" d="M 230.28050231933594 632.439453125 A 10 10 0 0 1 210.28050231933594 632.439453125 A 10 10 0 0 1 230.28050231933594 632.439453125" fill-opacity="1" clip-path="url(#bHqaUBZTVIvA)" stroke-opacity="1" stroke-linejoin="bevel" stroke-miterlimit="10" stroke-dasharray=""/><path fill="rgb(211,211,211)" stroke="rgb(211,211,211)" paint-order="fill" d="M 661.648681640625 186.08241271972656 A 10 10 0 0 1 641.648681640625 186.08241271972656 A 10 10 0 0 1 661.648681640625 186.08241271972656" fill-opacity="1" clip-path="url(#bHqaUBZTVIvA)" stroke-opacity="1" stroke-linejoin="bevel" stroke-miterlimit="10" stroke-dasharray=""/><path fill="rgb(211,211,211)" stroke="rgb(211,211,211)" paint-order="fill" d="M 635.9367065429688 160.1144256591797 A 10 10 0 0 1 615.9367065429688 160.1144256591797 A 10 10 0 0 1 635.9367065429688 160.1144256591797" fill-opacity="1" clip-path="url(#bHqaUBZTVIvA)" stroke-opacity="1" stroke-linejoin="bevel" stroke-miterlimit="10" stroke-dasharray=""/><path fill="rgb(211,211,211)" stroke="rgb(211,211,211)" paint-order="fill" d="M 507.67010498046875 289.7414855957031 A 10 10 0 0 1 487.67010498046875 289.7414855957031 A 10 10 0 0 1 507.67010498046875 289.7414855957031" fill-opacity="1" clip-path="url(#bHqaUBZTVIvA)" stroke-opacity="1" stroke-linejoin="bevel" stroke-miterlimit="10" stroke-dasharray=""/><path fill="rgb(211,211,211)" stroke="rgb(211,211,211)" paint-order="fill" d="M 618.0123901367188 154.9504852294922 A 10 10 0 0 1 598.0123901367188 154.9504852294922 A 10 10 0 0 1 618.0123901367188 154.9504852294922" fill-opacity="1" clip-path="url(#bHqaUBZTVIvA)" stroke-opacity="1" stroke-linejoin="bevel" stroke-miterlimit="10" stroke-dasharray=""/><path fill="rgb(211,211,211)" stroke="rgb(211,211,211)" paint-order="fill" d="M 648.7725219726562 145.255615234375 A 10 10 0 0 1 628.7725219726562 145.255615234375 A 10 10 0 0 1 648.7725219726562 145.255615234375" fill-opacity="1" clip-path="url(#bHqaUBZTVIvA)" stroke-opacity="1" stroke-linejoin="bevel" stroke-miterlimit="10" stroke-dasharray=""/><path fill="rgb(211,211,211)" stroke="rgb(211,211,211)" paint-order="fill" d="M 633.9302978515625 160.5188751220703 A 10 10 0 0 1 613.9302978515625 160.5188751220703 A 10 10 0 0 1 633.9302978515625 160.5188751220703" fill-opacity="1" clip-path="url(#bHqaUBZTVIvA)" stroke-opacity="1" stroke-linejoin="bevel" stroke-miterlimit="10" stroke-dasharray=""/><path fill="rgb(211,211,211)" stroke="rgb(211,211,211)" paint-order="fill" d="M 630.3156127929688 165.27261352539062 A 10 10 0 0 1 610.3156127929688 165.27261352539062 A 10 10 0 0 1 630.3156127929688 165.27261352539062" fill-opacity="1" clip-path="url(#bHqaUBZTVIvA)" stroke-opacity="1" stroke-linejoin="bevel" stroke-miterlimit="10" stroke-dasharray=""/><path fill="rgb(211,211,211)" stroke="rgb(211,211,211)" paint-order="fill" d="M 630.73974609375 185.856201171875 A 10 10 0 0 1 610.73974609375 185.856201171875 A 10 10 0 0 1 630.73974609375 185.856201171875" fill-opacity="1" clip-path="url(#bHqaUBZTVIvA)" stroke-opacity="1" stroke-linejoin="bevel" stroke-miterlimit="10" stroke-dasharray=""/><path fill="rgb(211,211,211)" stroke="rgb(211,211,211)" paint-order="fill" d="M 620.9000244140625 173.0707550048828 A 10 10 0 0 1 600.9000244140625 173.0707550048828 A 10 10 0 0 1 620.9000244140625 173.0707550048828" fill-opacity="1" clip-path="url(#bHqaUBZTVIvA)" stroke-opacity="1" stroke-linejoin="bevel" stroke-miterlimit="10" stroke-dasharray=""/><path fill="rgb(211,211,211)" stroke="rgb(211,211,211)" paint-order="fill" d="M 592.7720947265625 189.71914672851562 A 10 10 0 0 1 572.7720947265625 189.71914672851562 A 10 10 0 0 1 592.7720947265625 189.71914672851562" fill-opacity="1" clip-path="url(#bHqaUBZTVIvA)" stroke-opacity="1" stroke-linejoin="bevel" stroke-miterlimit="10" stroke-dasharray=""/><path fill="rgb(211,211,211)" stroke="rgb(211,211,211)" paint-order="fill" d="M 546.5684814453125 200.8302764892578 A 10 10 0 0 1 526.5684814453125 200.8302764892578 A 10 10 0 0 1 546.5684814453125 200.8302764892578" fill-opacity="1" clip-path="url(#bHqaUBZTVIvA)" stroke-opacity="1" stroke-linejoin="bevel" stroke-miterlimit="10" stroke-dasharray=""/><path fill="rgb(211,211,211)" stroke="rgb(211,211,211)" paint-order="fill" d="M 589.296875 202.29183959960938 A 10 10 0 0 1 569.296875 202.29183959960938 A 10 10 0 0 1 589.296875 202.29183959960938" fill-opacity="1" clip-path="url(#bHqaUBZTVIvA)" stroke-opacity="1" stroke-linejoin="bevel" stroke-miterlimit="10" stroke-dasharray=""/><path fill="rgb(211,211,211)" stroke="rgb(211,211,211)" paint-order="fill" d="M 728.8126831054688 115.45691680908203 A 10 10 0 0 1 708.8126831054688 115.45691680908203 A 10 10 0 0 1 728.8126831054688 115.45691680908203" fill-opacity="1" clip-path="url(#bHqaUBZTVIvA)" stroke-opacity="1" stroke-linejoin="bevel" stroke-miterlimit="10" stroke-dasharray=""/><path fill="rgb(211,211,211)" stroke="rgb(211,211,211)" paint-order="fill" d="M 666.628173828125 134.13888549804688 A 10 10 0 0 1 646.628173828125 134.13888549804688 A 10 10 0 0 1 666.628173828125 134.13888549804688" fill-opacity="1" clip-path="url(#bHqaUBZTVIvA)" stroke-opacity="1" stroke-linejoin="bevel" stroke-miterlimit="10" stroke-dasharray=""/><path fill="rgb(211,211,211)" stroke="rgb(211,211,211)" paint-order="fill" d="M 611.3003540039062 229.4839324951172 A 10 10 0 0 1 591.3003540039062 229.4839324951172 A 10 10 0 0 1 611.3003540039062 229.4839324951172" fill-opacity="1" clip-path="url(#bHqaUBZTVIvA)" stroke-opacity="1" stroke-linejoin="bevel" stroke-miterlimit="10" stroke-dasharray=""/><path fill="rgb(211,211,211)" stroke="rgb(211,211,211)" paint-order="fill" d="M 542.2986450195312 268.39013671875 A 10 10 0 0 1 522.2986450195312 268.39013671875 A 10 10 0 0 1 542.2986450195312 268.39013671875" fill-opacity="1" clip-path="url(#bHqaUBZTVIvA)" stroke-opacity="1" stroke-linejoin="bevel" stroke-miterlimit="10" stroke-dasharray=""/><path fill="rgb(211,211,211)" stroke="rgb(211,211,211)" paint-order="fill" d="M 258.1299591064453 645.274169921875 A 10 10 0 0 1 238.1299591064453 645.274169921875 A 10 10 0 0 1 258.1299591064453 645.274169921875" fill-opacity="1" clip-path="url(#bHqaUBZTVIvA)" stroke-opacity="1" stroke-linejoin="bevel" stroke-miterlimit="10" stroke-dasharray=""/><path fill="rgb(211,211,211)" stroke="rgb(211,211,211)" paint-order="fill" d="M 319.8692932128906 622.9401245117188 A 10 10 0 0 1 299.8692932128906 622.9401245117188 A 10 10 0 0 1 319.8692932128906 622.9401245117188" fill-opacity="1" clip-path="url(#bHqaUBZTVIvA)" stroke-opacity="1" stroke-linejoin="bevel" stroke-miterlimit="10" stroke-dasharray=""/><path fill="rgb(211,211,211)" stroke="rgb(211,211,211)" paint-order="fill" d="M 351.1903991699219 449.6024169921875 A 10 10 0 0 1 331.1903991699219 449.6024169921875 A 10 10 0 0 1 351.1903991699219 449.6024169921875" fill-opacity="1" clip-path="url(#bHqaUBZTVIvA)" stroke-opacity="1" stroke-linejoin="bevel" stroke-miterlimit="10" stroke-dasharray=""/><path fill="rgb(211,211,211)" stroke="rgb(211,211,211)" paint-order="fill" d="M 176.6483612060547 616.6254272460938 A 10 10 0 0 1 156.6483612060547 616.6254272460938 A 10 10 0 0 1 176.6483612060547 616.6254272460938" fill-opacity="1" clip-path="url(#bHqaUBZTVIvA)" stroke-opacity="1" stroke-linejoin="bevel" stroke-miterlimit="10" stroke-dasharray=""/><path fill="rgb(211,211,211)" stroke="rgb(211,211,211)" paint-order="fill" d="M 627.5775146484375 161.8704376220703 A 10 10 0 0 1 607.5775146484375 161.8704376220703 A 10 10 0 0 1 627.5775146484375 161.8704376220703" fill-opacity="1" clip-path="url(#bHqaUBZTVIvA)" stroke-opacity="1" stroke-linejoin="bevel" stroke-miterlimit="10" stroke-dasharray=""/><path fill="rgb(211,211,211)" stroke="rgb(211,211,211)" paint-order="fill" d="M 641.423583984375 161.79818725585938 A 10 10 0 0 1 621.423583984375 161.79818725585938 A 10 10 0 0 1 641.423583984375 161.79818725585938" fill-opacity="1" clip-path="url(#bHqaUBZTVIvA)" stroke-opacity="1" stroke-linejoin="bevel" stroke-miterlimit="10" stroke-dasharray=""/><path fill="rgb(211,211,211)" stroke="rgb(211,211,211)" paint-order="fill" d="M 318.2325134277344 440.8570251464844 A 10 10 0 0 1 298.2325134277344 440.8570251464844 A 10 10 0 0 1 318.2325134277344 440.8570251464844" fill-opacity="1" clip-path="url(#bHqaUBZTVIvA)" stroke-opacity="1" stroke-linejoin="bevel" stroke-miterlimit="10" stroke-dasharray=""/><path fill="rgb(211,211,211)" stroke="rgb(211,211,211)" paint-order="fill" d="M 411.9300231933594 456.4993591308594 A 10 10 0 0 1 391.9300231933594 456.4993591308594 A 10 10 0 0 1 411.9300231933594 456.4993591308594" fill-opacity="1" clip-path="url(#bHqaUBZTVIvA)" stroke-opacity="1" stroke-linejoin="bevel" stroke-miterlimit="10" stroke-dasharray=""/><path fill="rgb(211,211,211)" stroke="rgb(211,211,211)" paint-order="fill" d="M 208.133056640625 678.5784912109375 A 10 10 0 0 1 188.133056640625 678.5784912109375 A 10 10 0 0 1 208.133056640625 678.5784912109375" fill-opacity="1" clip-path="url(#bHqaUBZTVIvA)" stroke-opacity="1" stroke-linejoin="bevel" stroke-miterlimit="10" stroke-dasharray=""/><path fill="rgb(211,211,211)" stroke="rgb(211,211,211)" paint-order="fill" d="M 137.5462875366211 748.8673095703125 A 10 10 0 0 1 117.5462875366211 748.8673095703125 A 10 10 0 0 1 137.5462875366211 748.8673095703125" fill-opacity="1" clip-path="url(#bHqaUBZTVIvA)" stroke-opacity="1" stroke-linejoin="bevel" stroke-miterlimit="10" stroke-dasharray=""/><path fill="rgb(211,211,211)" stroke="rgb(211,211,211)" paint-order="fill" d="M 306.24725341796875 555.0196533203125 A 10 10 0 0 1 286.24725341796875 555.0196533203125 A 10 10 0 0 1 306.24725341796875 555.0196533203125" fill-opacity="1" clip-path="url(#bHqaUBZTVIvA)" stroke-opacity="1" stroke-linejoin="bevel" stroke-miterlimit="10" stroke-dasharray=""/><path fill="rgb(211,211,211)" stroke="rgb(211,211,211)" paint-order="fill" d="M 301.9891357421875 556.7724609375 A 10 10 0 0 1 281.9891357421875 556.7724609375 A 10 10 0 0 1 301.9891357421875 556.7724609375" fill-opacity="1" clip-path="url(#bHqaUBZTVIvA)" stroke-opacity="1" stroke-linejoin="bevel" stroke-miterlimit="10" stroke-dasharray=""/><path fill="rgb(211,211,211)" stroke="rgb(211,211,211)" paint-order="fill" d="M 262.3828582763672 631.1705322265625 A 10 10 0 0 1 242.3828582763672 631.1705322265625 A 10 10 0 0 1 262.3828582763672 631.1705322265625" fill-opacity="1" clip-path="url(#bHqaUBZTVIvA)" stroke-opacity="1" stroke-linejoin="bevel" stroke-miterlimit="10" stroke-dasharray=""/><path fill="rgb(211,211,211)" stroke="rgb(211,211,211)" paint-order="fill" d="M 295.3243408203125 606.5474243164062 A 10 10 0 0 1 275.3243408203125 606.5474243164062 A 10 10 0 0 1 295.3243408203125 606.5474243164062" fill-opacity="1" clip-path="url(#bHqaUBZTVIvA)" stroke-opacity="1" stroke-linejoin="bevel" stroke-miterlimit="10" stroke-dasharray=""/><path fill="rgb(211,211,211)" stroke="rgb(211,211,211)" paint-order="fill" d="M 385.75146484375 503.5866394042969 A 10 10 0 0 1 365.75146484375 503.5866394042969 A 10 10 0 0 1 385.75146484375 503.5866394042969" fill-opacity="1" clip-path="url(#bHqaUBZTVIvA)" stroke-opacity="1" stroke-linejoin="bevel" stroke-miterlimit="10" stroke-dasharray=""/><path fill="rgb(211,211,211)" stroke="rgb(211,211,211)" paint-order="fill" d="M 296.0196838378906 545.1317138671875 A 10 10 0 0 1 276.0196838378906 545.1317138671875 A 10 10 0 0 1 296.0196838378906 545.1317138671875" fill-opacity="1" clip-path="url(#bHqaUBZTVIvA)" stroke-opacity="1" stroke-linejoin="bevel" stroke-miterlimit="10" stroke-dasharray=""/><path fill="rgb(211,211,211)" stroke="rgb(211,211,211)" paint-order="fill" d="M 175.8490447998047 616.483154296875 A 10 10 0 0 1 155.8490447998047 616.483154296875 A 10 10 0 0 1 175.8490447998047 616.483154296875" fill-opacity="1" clip-path="url(#bHqaUBZTVIvA)" stroke-opacity="1" stroke-linejoin="bevel" stroke-miterlimit="10" stroke-dasharray=""/><path fill="rgb(211,211,211)" stroke="rgb(211,211,211)" paint-order="fill" d="M 238.45054626464844 523.6858520507812 A 10 10 0 0 1 218.45054626464844 523.6858520507812 A 10 10 0 0 1 238.45054626464844 523.6858520507812" fill-opacity="1" clip-path="url(#bHqaUBZTVIvA)" stroke-opacity="1" stroke-linejoin="bevel" stroke-miterlimit="10" stroke-dasharray=""/><path fill="rgb(211,211,211)" stroke="rgb(211,211,211)" paint-order="fill" d="M 241.27134704589844 521.3621215820312 A 10 10 0 0 1 221.27134704589844 521.3621215820312 A 10 10 0 0 1 241.27134704589844 521.3621215820312" fill-opacity="1" clip-path="url(#bHqaUBZTVIvA)" stroke-opacity="1" stroke-linejoin="bevel" stroke-miterlimit="10" stroke-dasharray=""/><path fill="rgb(211,211,211)" stroke="rgb(211,211,211)" paint-order="fill" d="M 164.1488037109375 567.4423828125 A 10 10 0 0 1 144.1488037109375 567.4423828125 A 10 10 0 0 1 164.1488037109375 567.4423828125" fill-opacity="1" clip-path="url(#bHqaUBZTVIvA)" stroke-opacity="1" stroke-linejoin="bevel" stroke-miterlimit="10" stroke-dasharray=""/><path fill="rgb(211,211,211)" stroke="rgb(211,211,211)" paint-order="fill" d="M 266.1695098876953 531.6595458984375 A 10 10 0 0 1 246.1695098876953 531.6595458984375 A 10 10 0 0 1 266.1695098876953 531.6595458984375" fill-opacity="1" clip-path="url(#bHqaUBZTVIvA)" stroke-opacity="1" stroke-linejoin="bevel" stroke-miterlimit="10" stroke-dasharray=""/><path fill="rgb(211,211,211)" stroke="rgb(211,211,211)" paint-order="fill" d="M 306.147216796875 532.8765258789062 A 10 10 0 0 1 286.147216796875 532.8765258789062 A 10 10 0 0 1 306.147216796875 532.8765258789062" fill-opacity="1" clip-path="url(#bHqaUBZTVIvA)" stroke-opacity="1" stroke-linejoin="bevel" stroke-miterlimit="10" stroke-dasharray=""/><path fill="rgb(211,211,211)" stroke="rgb(211,211,211)" paint-order="fill" d="M 168.94569396972656 574.9129638671875 A 10 10 0 0 1 148.94569396972656 574.9129638671875 A 10 10 0 0 1 168.94569396972656 574.9129638671875" fill-opacity="1" clip-path="url(#bHqaUBZTVIvA)" stroke-opacity="1" stroke-linejoin="bevel" stroke-miterlimit="10" stroke-dasharray=""/><path fill="rgb(211,211,211)" stroke="rgb(211,211,211)" paint-order="fill" d="M 181.80242919921875 563.00146484375 A 10 10 0 0 1 161.80242919921875 563.00146484375 A 10 10 0 0 1 181.80242919921875 563.00146484375" fill-opacity="1" clip-path="url(#bHqaUBZTVIvA)" stroke-opacity="1" stroke-linejoin="bevel" stroke-miterlimit="10" stroke-dasharray=""/><path fill="rgb(211,211,211)" stroke="rgb(211,211,211)" paint-order="fill" d="M 135.1186065673828 576.6181640625 A 10 10 0 0 1 115.11860656738281 576.6181640625 A 10 10 0 0 1 135.1186065673828 576.6181640625" fill-opacity="1" clip-path="url(#bHqaUBZTVIvA)" stroke-opacity="1" stroke-linejoin="bevel" stroke-miterlimit="10" stroke-dasharray=""/><path fill="rgb(211,211,211)" stroke="rgb(211,211,211)" paint-order="fill" d="M 291.8282775878906 500.5253601074219 A 10 10 0 0 1 271.8282775878906 500.5253601074219 A 10 10 0 0 1 291.8282775878906 500.5253601074219" fill-opacity="1" clip-path="url(#bHqaUBZTVIvA)" stroke-opacity="1" stroke-linejoin="bevel" stroke-miterlimit="10" stroke-dasharray=""/><path fill="rgb(211,211,211)" stroke="rgb(211,211,211)" paint-order="fill" d="M 412.84759521484375 454.44696044921875 A 10 10 0 0 1 392.84759521484375 454.44696044921875 A 10 10 0 0 1 412.84759521484375 454.44696044921875" fill-opacity="1" clip-path="url(#bHqaUBZTVIvA)" stroke-opacity="1" stroke-linejoin="bevel" stroke-miterlimit="10" stroke-dasharray=""/><path fill="rgb(211,211,211)" stroke="rgb(211,211,211)" paint-order="fill" d="M 251.61561584472656 528.6875 A 10 10 0 0 1 231.61561584472656 528.6875 A 10 10 0 0 1 251.61561584472656 528.6875" fill-opacity="1" clip-path="url(#bHqaUBZTVIvA)" stroke-opacity="1" stroke-linejoin="bevel" stroke-miterlimit="10" stroke-dasharray=""/><path fill="rgb(211,211,211)" stroke="rgb(211,211,211)" paint-order="fill" d="M 453.4004821777344 433.601806640625 A 10 10 0 0 1 433.4004821777344 433.601806640625 A 10 10 0 0 1 453.4004821777344 433.601806640625" fill-opacity="1" clip-path="url(#bHqaUBZTVIvA)" stroke-opacity="1" stroke-linejoin="bevel" stroke-miterlimit="10" stroke-dasharray=""/><path fill="rgb(211,211,211)" stroke="rgb(211,211,211)" paint-order="fill" d="M 245.0046844482422 589.9566040039062 A 10 10 0 0 1 225.0046844482422 589.9566040039062 A 10 10 0 0 1 245.0046844482422 589.9566040039062" fill-opacity="1" clip-path="url(#bHqaUBZTVIvA)" stroke-opacity="1" stroke-linejoin="bevel" stroke-miterlimit="10" stroke-dasharray=""/><path fill="rgb(211,211,211)" stroke="rgb(211,211,211)" paint-order="fill" d="M 184.3717803955078 685.5982666015625 A 10 10 0 0 1 164.3717803955078 685.5982666015625 A 10 10 0 0 1 184.3717803955078 685.5982666015625" fill-opacity="1" clip-path="url(#bHqaUBZTVIvA)" stroke-opacity="1" stroke-linejoin="bevel" stroke-miterlimit="10" stroke-dasharray=""/><path fill="rgb(211,211,211)" stroke="rgb(211,211,211)" paint-order="fill" d="M 193.0224151611328 659.40869140625 A 10 10 0 0 1 173.0224151611328 659.40869140625 A 10 10 0 0 1 193.0224151611328 659.40869140625" fill-opacity="1" clip-path="url(#bHqaUBZTVIvA)" stroke-opacity="1" stroke-linejoin="bevel" stroke-miterlimit="10" stroke-dasharray=""/><path fill="rgb(211,211,211)" stroke="rgb(211,211,211)" paint-order="fill" d="M 269.1092834472656 585.5367431640625 A 10 10 0 0 1 249.10928344726562 585.5367431640625 A 10 10 0 0 1 269.1092834472656 585.5367431640625" fill-opacity="1" clip-path="url(#bHqaUBZTVIvA)" stroke-opacity="1" stroke-linejoin="bevel" stroke-miterlimit="10" stroke-dasharray=""/><path fill="rgb(211,211,211)" stroke="rgb(211,211,211)" paint-order="fill" d="M 206.96299743652344 658.7972412109375 A 10 10 0 0 1 186.96299743652344 658.7972412109375 A 10 10 0 0 1 206.96299743652344 658.7972412109375" fill-opacity="1" clip-path="url(#bHqaUBZTVIvA)" stroke-opacity="1" stroke-linejoin="bevel" stroke-miterlimit="10" stroke-dasharray=""/><path fill="rgb(211,211,211)" stroke="rgb(211,211,211)" paint-order="fill" d="M 414.57891845703125 458.96929931640625 A 10 10 0 0 1 394.57891845703125 458.96929931640625 A 10 10 0 0 1 414.57891845703125 458.96929931640625" fill-opacity="1" clip-path="url(#bHqaUBZTVIvA)" stroke-opacity="1" stroke-linejoin="bevel" stroke-miterlimit="10" stroke-dasharray=""/><path fill="rgb(211,211,211)" stroke="rgb(211,211,211)" paint-order="fill" d="M 548.8349609375 250.0150604248047 A 10 10 0 0 1 528.8349609375 250.0150604248047 A 10 10 0 0 1 548.8349609375 250.0150604248047" fill-opacity="1" clip-path="url(#bHqaUBZTVIvA)" stroke-opacity="1" stroke-linejoin="bevel" stroke-miterlimit="10" stroke-dasharray=""/><path fill="rgb(211,211,211)" stroke="rgb(211,211,211)" paint-order="fill" d="M 623.7423095703125 214.1510467529297 A 10 10 0 0 1 603.7423095703125 214.1510467529297 A 10 10 0 0 1 623.7423095703125 214.1510467529297" fill-opacity="1" clip-path="url(#bHqaUBZTVIvA)" stroke-opacity="1" stroke-linejoin="bevel" stroke-miterlimit="10" stroke-dasharray=""/><path fill="rgb(211,211,211)" stroke="rgb(211,211,211)" paint-order="fill" d="M 534.1143798828125 319.37567138671875 A 10 10 0 0 1 514.1143798828125 319.37567138671875 A 10 10 0 0 1 534.1143798828125 319.37567138671875" fill-opacity="1" clip-path="url(#bHqaUBZTVIvA)" stroke-opacity="1" stroke-linejoin="bevel" stroke-miterlimit="10" stroke-dasharray=""/><path fill="rgb(211,211,211)" stroke="rgb(211,211,211)" paint-order="fill" d="M 653.5724487304688 237.71580505371094 A 10 10 0 0 1 633.5724487304688 237.71580505371094 A 10 10 0 0 1 653.5724487304688 237.71580505371094" fill-opacity="1" clip-path="url(#bHqaUBZTVIvA)" stroke-opacity="1" stroke-linejoin="bevel" stroke-miterlimit="10" stroke-dasharray=""/><path fill="rgb(211,211,211)" stroke="rgb(211,211,211)" paint-order="fill" d="M 637.6376953125 166.42335510253906 A 10 10 0 0 1 617.6376953125 166.42335510253906 A 10 10 0 0 1 637.6376953125 166.42335510253906" fill-opacity="1" clip-path="url(#bHqaUBZTVIvA)" stroke-opacity="1" stroke-linejoin="bevel" stroke-miterlimit="10" stroke-dasharray=""/><path fill="rgb(211,211,211)" stroke="rgb(211,211,211)" paint-order="fill" d="M 632.201171875 165.65538024902344 A 10 10 0 0 1 612.201171875 165.65538024902344 A 10 10 0 0 1 632.201171875 165.65538024902344" fill-opacity="1" clip-path="url(#bHqaUBZTVIvA)" stroke-opacity="1" stroke-linejoin="bevel" stroke-miterlimit="10" stroke-dasharray=""/><path fill="rgb(211,211,211)" stroke="rgb(211,211,211)" paint-order="fill" d="M 501.858154296875 266.04693603515625 A 10 10 0 0 1 481.858154296875 266.04693603515625 A 10 10 0 0 1 501.858154296875 266.04693603515625" fill-opacity="1" clip-path="url(#bHqaUBZTVIvA)" stroke-opacity="1" stroke-linejoin="bevel" stroke-miterlimit="10" stroke-dasharray=""/><path fill="rgb(211,211,211)" stroke="rgb(211,211,211)" paint-order="fill" d="M 662.4683227539062 180.9258575439453 A 10 10 0 0 1 642.4683227539062 180.9258575439453 A 10 10 0 0 1 662.4683227539062 180.9258575439453" fill-opacity="1" clip-path="url(#bHqaUBZTVIvA)" stroke-opacity="1" stroke-linejoin="bevel" stroke-miterlimit="10" stroke-dasharray=""/><path fill="rgb(211,211,211)" stroke="rgb(211,211,211)" paint-order="fill" d="M 632.5950927734375 225.25247192382812 A 10 10 0 0 1 612.5950927734375 225.25247192382812 A 10 10 0 0 1 632.5950927734375 225.25247192382812" fill-opacity="1" clip-path="url(#bHqaUBZTVIvA)" stroke-opacity="1" stroke-linejoin="bevel" stroke-miterlimit="10" stroke-dasharray=""/><path fill="rgb(211,211,211)" stroke="rgb(211,211,211)" paint-order="fill" d="M 537.01708984375 272.8383483886719 A 10 10 0 0 1 517.01708984375 272.8383483886719 A 10 10 0 0 1 537.01708984375 272.8383483886719" fill-opacity="1" clip-path="url(#bHqaUBZTVIvA)" stroke-opacity="1" stroke-linejoin="bevel" stroke-miterlimit="10" stroke-dasharray=""/><path fill="rgb(211,211,211)" stroke="rgb(211,211,211)" paint-order="fill" d="M 645.2890625 260.6125183105469 A 10 10 0 0 1 625.2890625 260.6125183105469 A 10 10 0 0 1 645.2890625 260.6125183105469" fill-opacity="1" clip-path="url(#bHqaUBZTVIvA)" stroke-opacity="1" stroke-linejoin="bevel" stroke-miterlimit="10" stroke-dasharray=""/><path fill="rgb(211,211,211)" stroke="rgb(211,211,211)" paint-order="fill" d="M 633.908447265625 253.82955932617188 A 10 10 0 0 1 613.908447265625 253.82955932617188 A 10 10 0 0 1 633.908447265625 253.82955932617188" fill-opacity="1" clip-path="url(#bHqaUBZTVIvA)" stroke-opacity="1" stroke-linejoin="bevel" stroke-miterlimit="10" stroke-dasharray=""/><path fill="rgb(211,211,211)" stroke="rgb(211,211,211)" paint-order="fill" d="M 736.5662841796875 119.48605346679688 A 10 10 0 0 1 716.5662841796875 119.48605346679688 A 10 10 0 0 1 736.5662841796875 119.48605346679688" fill-opacity="1" clip-path="url(#bHqaUBZTVIvA)" stroke-opacity="1" stroke-linejoin="bevel" stroke-miterlimit="10" stroke-dasharray=""/><path fill="rgb(211,211,211)" stroke="rgb(211,211,211)" paint-order="fill" d="M 727.5743408203125 109.9162368774414 A 10 10 0 0 1 707.5743408203125 109.9162368774414 A 10 10 0 0 1 727.5743408203125 109.9162368774414" fill-opacity="1" clip-path="url(#bHqaUBZTVIvA)" stroke-opacity="1" stroke-linejoin="bevel" stroke-miterlimit="10" stroke-dasharray=""/><path fill="rgb(211,211,211)" stroke="rgb(211,211,211)" paint-order="fill" d="M 717.2545776367188 167.95225524902344 A 10 10 0 0 1 697.2545776367188 167.95225524902344 A 10 10 0 0 1 717.2545776367188 167.95225524902344" fill-opacity="1" clip-path="url(#bHqaUBZTVIvA)" stroke-opacity="1" stroke-linejoin="bevel" stroke-miterlimit="10" stroke-dasharray=""/><path fill="rgb(211,211,211)" stroke="rgb(211,211,211)" paint-order="fill" d="M 668.0091552734375 162.88722229003906 A 10 10 0 0 1 648.0091552734375 162.88722229003906 A 10 10 0 0 1 668.0091552734375 162.88722229003906" fill-opacity="1" clip-path="url(#bHqaUBZTVIvA)" stroke-opacity="1" stroke-linejoin="bevel" stroke-miterlimit="10" stroke-dasharray=""/><path fill="rgb(211,211,211)" stroke="rgb(211,211,211)" paint-order="fill" d="M 701.0161743164062 146.05296325683594 A 10 10 0 0 1 681.0161743164062 146.05296325683594 A 10 10 0 0 1 701.0161743164062 146.05296325683594" fill-opacity="1" clip-path="url(#bHqaUBZTVIvA)" stroke-opacity="1" stroke-linejoin="bevel" stroke-miterlimit="10" stroke-dasharray=""/><path fill="rgb(211,211,211)" stroke="rgb(211,211,211)" paint-order="fill" d="M 566.9154663085938 369.0626220703125 A 10 10 0 0 1 546.9154663085938 369.0626220703125 A 10 10 0 0 1 566.9154663085938 369.0626220703125" fill-opacity="1" clip-path="url(#bHqaUBZTVIvA)" stroke-opacity="1" stroke-linejoin="bevel" stroke-miterlimit="10" stroke-dasharray=""/><path fill="rgb(211,211,211)" stroke="rgb(211,211,211)" paint-order="fill" d="M 631.9327392578125 176.72427368164062 A 10 10 0 0 1 611.9327392578125 176.72427368164062 A 10 10 0 0 1 631.9327392578125 176.72427368164062" fill-opacity="1" clip-path="url(#bHqaUBZTVIvA)" stroke-opacity="1" stroke-linejoin="bevel" stroke-miterlimit="10" stroke-dasharray=""/><path fill="rgb(211,211,211)" stroke="rgb(211,211,211)" paint-order="fill" d="M 494.4142150878906 274.0140686035156 A 10 10 0 0 1 474.4142150878906 274.0140686035156 A 10 10 0 0 1 494.4142150878906 274.0140686035156" fill-opacity="1" clip-path="url(#bHqaUBZTVIvA)" stroke-opacity="1" stroke-linejoin="bevel" stroke-miterlimit="10" stroke-dasharray=""/><path fill="rgb(211,211,211)" stroke="rgb(211,211,211)" paint-order="fill" d="M 465.45947265625 310.8445739746094 A 10 10 0 0 1 445.45947265625 310.8445739746094 A 10 10 0 0 1 465.45947265625 310.8445739746094" fill-opacity="1" clip-path="url(#bHqaUBZTVIvA)" stroke-opacity="1" stroke-linejoin="bevel" stroke-miterlimit="10" stroke-dasharray=""/><path fill="rgb(211,211,211)" stroke="rgb(211,211,211)" paint-order="fill" d="M 461.3766784667969 278.29840087890625 A 10 10 0 0 1 441.3766784667969 278.29840087890625 A 10 10 0 0 1 461.3766784667969 278.29840087890625" fill-opacity="1" clip-path="url(#bHqaUBZTVIvA)" stroke-opacity="1" stroke-linejoin="bevel" stroke-miterlimit="10" stroke-dasharray=""/><path fill="rgb(211,211,211)" stroke="rgb(211,211,211)" paint-order="fill" d="M 757.7371215820312 73.14887237548828 A 10 10 0 0 1 737.7371215820312 73.14887237548828 A 10 10 0 0 1 757.7371215820312 73.14887237548828" fill-opacity="1" clip-path="url(#bHqaUBZTVIvA)" stroke-opacity="1" stroke-linejoin="bevel" stroke-miterlimit="10" stroke-dasharray=""/><path fill="rgb(211,211,211)" stroke="rgb(211,211,211)" paint-order="fill" d="M 743.5457763671875 67.45962524414062 A 10 10 0 0 1 723.5457763671875 67.45962524414062 A 10 10 0 0 1 743.5457763671875 67.45962524414062" fill-opacity="1" clip-path="url(#bHqaUBZTVIvA)" stroke-opacity="1" stroke-linejoin="bevel" stroke-miterlimit="10" stroke-dasharray=""/><path fill="rgb(211,211,211)" stroke="rgb(211,211,211)" paint-order="fill" d="M 720.5567016601562 102.90782165527344 A 10 10 0 0 1 700.5567016601562 102.90782165527344 A 10 10 0 0 1 720.5567016601562 102.90782165527344" fill-opacity="1" clip-path="url(#bHqaUBZTVIvA)" stroke-opacity="1" stroke-linejoin="bevel" stroke-miterlimit="10" stroke-dasharray=""/><path fill="rgb(211,211,211)" stroke="rgb(211,211,211)" paint-order="fill" d="M 614.1710815429688 167.65121459960938 A 10 10 0 0 1 594.1710815429688 167.65121459960938 A 10 10 0 0 1 614.1710815429688 167.65121459960938" fill-opacity="1" clip-path="url(#bHqaUBZTVIvA)" stroke-opacity="1" stroke-linejoin="bevel" stroke-miterlimit="10" stroke-dasharray=""/><path fill="none" stroke="rgb(0,0,0)" paint-order="fill" d="M 82.36803436279297 555.9774780273438 L 86.96868133544922 551.3841552734375 L 97.29646301269531 541.0719604492188 L 120.45375061035156 517.9454956054688 L 125.11860656738281 513.2861328125 L 127.5462875366211 510.86126708984375 L 129.4329833984375 508.9766540527344 L 154.1488037109375 484.2850036621094 L 155.31590270996094 483.118896484375 L 157.68475341796875 480.7519836425781 L 158.94569396972656 479.4920654296875 L 164.00665283203125 474.4349670410156 L 165.8490447998047 472.5939025878906 L 166.6483612060547 471.795166015625 L 168.4039764404297 470.0408020019531 L 170.8626708984375 467.5837707519531 L 171.80242919921875 466.6446228027344 L 174.3717803955078 464.076904296875 L 174.85903930664062 463.5899658203125 L 179.5455322265625 458.9062805175781 L 183.0224151611328 455.4313049316406 L 186.22312927246094 452.23223876953125 L 193.49581909179688 444.962890625 L 196.96299743652344 441.49713134765625 L 198.133056640625 440.3275146484375 L 199.5719451904297 438.88916015625 L 207.1490478515625 431.314453125 L 211.10598754882812 427.3584899902344 L 214.33615112304688 424.1290283203125 L 219.7123260498047 418.7537536621094 L 220.28050231933594 418.1856689453125 L 228.29661560058594 410.1702880859375 L 228.45054626464844 410.016357421875 L 231.27134704589844 407.1956481933594 L 235.0046844482422 403.4622802734375 L 239.6935577392578 398.773193359375 L 241.61561584472656 396.8509521484375 L 244.59434509277344 393.87188720703125 L 248.1299591064453 390.33575439453125 L 252.3828582763672 386.0820617675781 L 256.1695098876953 382.2945251464844 L 259.1092834472656 379.3539733886719 L 259.7411804199219 378.7218933105469 L 266.6502685546875 371.810546875 L 267.61297607421875 370.84747314453125 L 271.9030456542969 366.5556945800781 L 272.3402404785156 366.1183166503906 L 281.8282775878906 356.625732421875 L 285.3243408203125 353.1277770996094 L 286.0196838378906 352.43206787109375 L 288.0083923339844 350.4421691894531 L 291.9891357421875 346.458984375 L 296.147216796875 342.29815673828125 L 296.24725341796875 342.1980285644531 L 303.8382873535156 334.60150146484375 L 308.2325134277344 330.2038269042969 L 309.8692932128906 328.5657043457031 L 311.6707458496094 326.7627258300781 L 320.4026794433594 318.0229797363281 L 341.1903991699219 297.2133483886719 L 375.75146484375 262.6055908203125 L 389.1694641113281 249.16598510742188 L 401.9300231933594 236.38308715820312 L 402.84759521484375 235.46383666992188 L 404.57891845703125 233.72935485839844 L 406.2167663574219 232.0884552001953 L 409.1373291015625 229.16241455078125 L 418.0611267089844 220.22128295898438 L 421.032470703125 217.2439727783203 L 421.9130554199219 216.3616180419922 L 443.4004821777344 194.8280487060547 L 451.3766784667969 186.83346557617188 L 455.45947265625 182.74098205566406 L 484.4142150878906 153.71253967285156 L 491.858154296875 146.24819946289062 L 497.67010498046875 140.41989135742188 L 524.1143798828125 113.8967056274414 L 527.01708984375 110.98487091064453 L 532.2986450195312 105.6865463256836 L 536.5684814453125 101.40289306640625 L 538.8349609375 99.12898254394531 L 556.9154663085938 80.98741149902344 L 579.296875 58.52558135986328 L 582.7720947265625 55.037384033203125 L 596.3963012695312 41.36109924316406 L 601.3003540039062 36.43785095214844 L 604.1710815429688 33.55574035644531 L 604.347900390625 33.37822723388672 L 608.0123901367188 29.69911766052246 L 610.9000244140625 26.799821853637695 L 613.7423095703125 23.945964813232422 L 617.5775146484375 20.095062255859375 L 620.3156127929688 17.345659255981445 L 620.73974609375 16.919742584228516 L 621.9327392578125 15.72181224822998 L 622.201171875 15.452254295349121 L 622.5950927734375 15.056676864624023 L 623.908447265625 13.737862586975098 L 623.9302978515625 13.715923309326172 L 624.248291015625 13.396574020385742 L 625.9367065429688 11.701077461242676 L 627.6376953125 9.992923736572266 L 631.423583984375 6.190967559814453 L 635.2890625 2.308898687362671 L 638.7725219726562 -1.1896088123321533 L 638.993896484375 -1.4119524955749512 L 640.1243286132812 -2.5472986698150635 L 643.5724487304688 -6.010500431060791 L 649.2807006835938 -11.743985176086426 L 651.648681640625 -14.122541427612305 L 652.4683227539062 -14.94588565826416 L 656.628173828125 -19.124492645263672 L 658.0091552734375 -20.511741638183594 L 660.7896728515625 -23.30491828918457 L 665.6912841796875 -28.2291259765625 L 668.6556396484375 -31.20721435546875 L 669.741943359375 -32.29859161376953 L 686.1455688476562 -48.78022003173828 L 686.3577270507812 -48.993438720703125 L 691.0161743164062 -53.674556732177734 L 694.8499755859375 -57.5272216796875 L 695.5368041992188 -58.2173957824707 L 699.0833740234375 -61.78160095214844 L 707.2545776367188 -69.99382019042969 L 710.5567016601562 -73.31271362304688 L 716.3296508789062 -79.11531829833984 L 717.5743408203125 -80.36644744873047 L 718.8126831054688 -81.6112060546875 L 726.5662841796875 -89.40532684326172 L 728.0860595703125 -90.93313598632812 L 733.5457763671875 -96.42179870605469 L 739.809326171875 -102.71905517578125 L 744.1812744140625 -107.11470794677734 L 747.7371215820312 -110.69001007080078 L 757.0944213867188 -120.0991439819336 L 771.8117065429688 -134.89979553222656 L 774.0084838867188 -137.10923767089844 L 774.2573852539062 -137.35955810546875 L 774.2573852539062 -137.35955810546875 L 774.2573852539062 -137.35955810546875 L 774.2573852539062 -137.35955810546875 L 774.2573852539062 -137.35955810546875 L 774.2573852539062 -137.35955810546875 L 774.2573852539062 -137.35955810546875 L 774.2573852539062 -137.35955810546875 L 774.2573852539062 -137.35955810546875 L 774.2573852539062 -137.35955810546875 L 774.2573852539062 -137.35955810546875" stroke-opacity="1" stroke-linejoin="bevel" stroke-miterlimit="10" stroke-width="3" stroke-dasharray="6" clip-path="url(#MlQlIqznNWwe)"/><path fill="none" stroke="rgb(0,0,0)" paint-order="fill" d="M 82.36803436279297 881.2864379882812 L 86.96868133544922 876.678466796875 L 97.29646301269531 866.3350830078125 L 120.45375061035156 843.14697265625 L 125.11860656738281 838.4766235351562 L 127.5462875366211 836.046142578125 L 129.4329833984375 834.1573486328125 L 154.1488037109375 809.4173583984375 L 155.31590270996094 808.2493286132812 L 157.68475341796875 805.8784790039062 L 158.94569396972656 804.6165771484375 L 164.00665283203125 799.5516967773438 L 165.8490447998047 797.7080078125 L 166.6483612060547 796.9080810546875 L 168.4039764404297 795.1512451171875 L 170.8626708984375 792.69091796875 L 171.80242919921875 791.75048828125 L 174.3717803955078 789.1795043945312 L 174.85903930664062 788.6919555664062 L 179.5455322265625 784.002685546875 L 183.0224151611328 780.5238647460938 L 186.22312927246094 777.3214721679688 L 193.49581909179688 770.0454711914062 L 196.96299743652344 766.576904296875 L 198.133056640625 765.4063720703125 L 199.5719451904297 763.9669799804688 L 207.1490478515625 756.387451171875 L 211.10598754882812 752.4295043945312 L 214.33615112304688 749.1986694335938 L 219.7123260498047 743.8215942382812 L 220.28050231933594 743.2533569335938 L 228.29661560058594 735.2365112304688 L 228.45054626464844 735.0825805664062 L 231.27134704589844 732.2616577148438 L 235.0046844482422 728.5283203125 L 239.6935577392578 723.8397216796875 L 241.61561584472656 721.9177856445312 L 244.59434509277344 718.9393920898438 L 248.1299591064453 715.404296875 L 252.3828582763672 711.1522216796875 L 256.1695098876953 707.366455078125 L 259.1092834472656 704.4274291992188 L 259.7411804199219 703.7957763671875 L 266.6502685546875 696.888916015625 L 267.61297607421875 695.9265747070312 L 271.9030456542969 691.63818359375 L 272.3402404785156 691.201171875 L 281.8282775878906 681.7177124023438 L 285.3243408203125 678.2235107421875 L 286.0196838378906 677.5286254882812 L 288.0083923339844 675.541015625 L 291.9891357421875 671.562744140625 L 296.147216796875 667.4074096679688 L 296.24725341796875 667.3074340820312 L 303.8382873535156 659.721923828125 L 308.2325134277344 655.3311157226562 L 309.8692932128906 653.6956787109375 L 311.6707458496094 651.895751953125 L 320.4026794433594 643.171630859375 L 341.1903991699219 622.4058837890625 L 375.75146484375 587.8914794921875 L 389.1694641113281 574.4951171875 L 401.9300231933594 561.7568359375 L 402.84759521484375 560.8409423828125 L 404.57891845703125 559.11279296875 L 406.2167663574219 557.4779663085938 L 409.1373291015625 554.5629272460938 L 418.0611267089844 545.656494140625 L 421.032470703125 542.6911010742188 L 421.9130554199219 541.8123168945312 L 443.4004821777344 520.3710327148438 L 451.3766784667969 512.4132080078125 L 455.45947265625 508.3400573730469 L 484.4142150878906 479.45904541015625 L 491.858154296875 472.0355224609375 L 497.67010498046875 466.2398986816406 L 524.1143798828125 439.87451171875 L 527.01708984375 436.98089599609375 L 532.2986450195312 431.7162170410156 L 536.5684814453125 427.4601745605469 L 538.8349609375 425.2010803222656 L 556.9154663085938 407.1816711425781 L 579.296875 384.88067626953125 L 582.7720947265625 381.41839599609375 L 596.3963012695312 367.84625244140625 L 601.3003540039062 362.96142578125 L 604.1710815429688 360.1020812988281 L 604.347900390625 359.92596435546875 L 608.0123901367188 356.2761535644531 L 610.9000244140625 353.400146484375 L 613.7423095703125 350.5693664550781 L 617.5775146484375 346.7499084472656 L 620.3156127929688 344.02313232421875 L 620.73974609375 343.6007385253906 L 621.9327392578125 342.4127197265625 L 622.201171875 342.1454162597656 L 622.5950927734375 341.75311279296875 L 623.908447265625 340.4452819824219 L 623.9302978515625 340.42352294921875 L 624.248291015625 340.1068420410156 L 625.9367065429688 338.4255065917969 L 627.6376953125 336.731689453125 L 631.423583984375 332.9618835449219 L 635.2890625 329.1129455566406 L 638.7725219726562 325.6445617675781 L 638.993896484375 325.4241638183594 L 640.1243286132812 324.29864501953125 L 643.5724487304688 320.8656005859375 L 649.2807006835938 315.1826171875 L 651.648681640625 312.8252258300781 L 652.4683227539062 312.00921630859375 L 656.628173828125 307.8681335449219 L 658.0091552734375 306.4934387207031 L 660.7896728515625 303.7256164550781 L 665.6912841796875 298.8465270996094 L 668.6556396484375 295.8959655761719 L 669.741943359375 294.814697265625 L 686.1455688476562 278.4891357421875 L 686.3577270507812 278.2779541015625 L 691.0161743164062 273.6422119140625 L 694.8499755859375 269.8272399902344 L 695.5368041992188 269.1438293457031 L 699.0833740234375 265.6148376464844 L 707.2545776367188 257.48468017578125 L 710.5567016601562 254.19935607910156 L 716.3296508789062 248.4559783935547 L 717.5743408203125 247.21771240234375 L 718.8126831054688 245.98577880859375 L 726.5662841796875 238.27272033691406 L 728.0860595703125 236.76095581054688 L 733.5457763671875 231.33030700683594 L 739.809326171875 225.10037231445312 L 744.1812744140625 220.752197265625 L 747.7371215820312 217.21580505371094 L 757.0944213867188 207.9103240966797 L 771.8117065429688 193.27642822265625 L 774.0084838867188 191.09226989746094 L 774.2573852539062 190.84481811523438 L 774.2573852539062 190.84481811523438 L 774.2573852539062 190.84481811523438 L 774.2573852539062 190.84481811523438 L 774.2573852539062 190.84481811523438 L 774.2573852539062 190.84481811523438 L 774.2573852539062 190.84481811523438 L 774.2573852539062 190.84481811523438 L 774.2573852539062 190.84481811523438 L 774.2573852539062 190.84481811523438 L 774.2573852539062 190.84481811523438" stroke-opacity="1" stroke-linejoin="bevel" stroke-miterlimit="10" stroke-width="3" stroke-dasharray="6" clip-path="url(#lUalguyxdhlU)"/><path fill="none" stroke="rgb(0,0,0)" paint-order="fill" d="M 6.5 794.5 L 795.5 794.5" stroke-opacity="1" stroke-linejoin="bevel" stroke-miterlimit="10" stroke-dasharray=""/><path fill="none" stroke="rgb(0,0,0)" paint-order="fill" d="M 6.5 800.5 L 6.5 792.5 M 369.5 800.5 L 369.5 792.5 M 731.5 800.5 L 731.5 792.5" stroke-opacity="1" stroke-linejoin="bevel" stroke-miterlimit="10" stroke-dasharray=""/><text fill="rgb(68,68,68)" stroke="none" font-family="helvetica" font-size="0pt" font-style="normal" font-weight="normal" text-decoration="normal" x="6" y="805" text-anchor="start" dominant-baseline="alphabetic" transform="matrix(1, 0, 0, 1, 0.5, 0.5)" fill-opacity="1">6.215</text><text fill="rgb(68,68,68)" stroke="none" font-family="helvetica" font-size="0pt" font-style="normal" font-weight="normal" text-decoration="normal" x="368.5766906738281" y="805" text-anchor="start" dominant-baseline="alphabetic" transform="matrix(1, 0, 0, 1, 0.5, 0.5)" fill-opacity="1">8.517</text><text fill="rgb(68,68,68)" stroke="none" font-family="helvetica" font-size="0pt" font-style="normal" font-weight="normal" text-decoration="normal" x="731.1533813476562" y="805" text-anchor="start" dominant-baseline="alphabetic" transform="matrix(1, 0, 0, 1, 0.5, 0.5)" fill-opacity="1">10.82</text><path fill="none" stroke="rgb(0,0,0)" paint-order="fill" d="M 6.5 794.5 L 6.5 5.5" stroke-opacity="1" stroke-linejoin="bevel" stroke-miterlimit="10" stroke-dasharray=""/><path fill="none" stroke="rgb(0,0,0)" paint-order="fill" d="M 0.5 794.5 L 8.5 794.5 M 0.5 431.5 L 8.5 431.5 M 0.5 69.5 L 8.5 69.5" stroke-opacity="1" stroke-linejoin="bevel" stroke-miterlimit="10" stroke-dasharray=""/><text fill="rgb(68,68,68)" stroke="none" font-family="helvetica" font-size="0pt" font-style="normal" font-weight="normal" text-decoration="normal" x="-5" y="794" text-anchor="start" dominant-baseline="alphabetic" transform="matrix(1, 0, 0, 1, 0.5, 0.5)" fill-opacity="1">6.215</text><text fill="rgb(68,68,68)" stroke="none" font-family="helvetica" font-size="0pt" font-style="normal" font-weight="normal" text-decoration="normal" x="-5" y="431.4233093261719" text-anchor="start" dominant-baseline="alphabetic" transform="matrix(1, 0, 0, 1, 0.5, 0.5)" fill-opacity="1">8.517</text><text fill="rgb(68,68,68)" stroke="none" font-family="helvetica" font-size="0pt" font-style="normal" font-weight="normal" text-decoration="normal" x="-5" y="68.84658813476562" text-anchor="start" dominant-baseline="alphabetic" transform="matrix(1, 0, 0, 1, 0.5, 0.5)" fill-opacity="1">10.82</text></svg>