<svg version="1.1" xmlns="http://www.w3.org/2000/svg" width="800" height="800"><defs><clipPath id="qzLFrNokUcrE"><path fill="none" stroke="none" d="M 6.5 5.5 L 795.5 5.5 L 795.5 794.5 L 6.5 794.5 L 6.5 5.5"/></clipPath><clipPath id="tyJxwJkcuIXM"><path fill="none" stroke="none" d="M 6.5 5.5 L 795.5 5.5 L 795.5 794.5 L 6.5 794.5 L 6.5 5.5"/></clipPath><clipPath id="ocvSlzHIAdlk"><path fill="none" stroke="none" d="M 6.5 5.5 L 795.5 5.5 L 795.5 794.5 L 6.5 794.5 L 6.5 5.5"/></clipPath><clipPath id="IeGDNfOVizVi"><path fill="none" stroke="none" d="M 6.5 5.5 L 795.5 5.5 L 795.5 794.5 L 6.5 794.5 L 6.5 5.5"/></clipPath><clipPath id="aNGoHoHIluJa"><path fill="none" stroke="none" d="M 6.5 5.5 L 795.5 5.5 L 795.5 794.5 L 6.5 794.5 L 6.5 5.5"/></clipPath><clipPath id="ICvumKdUFCET"><path fill="none" stroke="none" d="M 6.5 5.5 L 795.5 5.5 L 795.5 794.5 L 6.5 794.5 L 6.5 5.5"/></clipPath><clipPath id="qnoqwKCNnHQX"><path fill="none" stroke="none" d="M 6.5 5.5 L 795.5 5.5 L 795.5 794.5 L 6.5 794.5 L 6.5 5.5"/></clipPath></defs><path fill="rgb(255,255,255)" stroke="none" paint-order="stroke" d="M 0.5 0.5 L 800.5 0.5 L 800.5 800.5 L 0.5 800.5 L 0.5 0.5" fill-opacity="1"/><rect fill="#FFFFFF" stroke="none" x="6" y="5" width="789" height="789" transform="matrix(1, 0, 0, 1, 0.5, 0.5)"/><path fill="rgb(255,255,255)" stroke="none" paint-order="stroke" d="M 6.5 5.5 L 795.5 5.5 L 795.5 794.5 L 6.5 794.5 L 6.5 5.5" fill-opacity="1"/><path fill="none" stroke="rgb(229,229,229)" paint-order="fill" d="M 6.5 5.5 L 795.5 5.5 L 795.5 794.5 L 6.5 794.5 L 6.5 5.5" stroke-opacity="1" stroke-linejoin="bevel" stroke-miterlimit="10" stroke-dasharray=""/><path fill="rgb(244,152,122)" stroke="rgb(244,152,122)" paint-order="fill" d="M 343.7831726074219 625.6116333007812 A 10 10 0 0 1 323.7831726074219 625.6116333007812 A 10 10 0 0 1 343.7831726074219 625.6116333007812" fill-opacity="1" clip-path="url(#ocvSlzHIAdlk)" stroke-opacity="1" stroke-linejoin="bevel" stroke-miterlimit="10" stroke-dasharray=""/><path fill="rgb(244,152,122)" stroke="rgb(244,152,122)" paint-order="fill" d="M 701.8963623046875 347.01812744140625 A 10 10 0 0 1 681.8963623046875 347.01812744140625 A 10 10 0 0 1 701.8963623046875 347.01812744140625" fill-opacity="1" clip-path="url(#ocvSlzHIAdlk)" stroke-opacity="1" stroke-linejoin="bevel" stroke-miterlimit="10" stroke-dasharray=""/><path fill="rgb(244,152,122)" stroke="rgb(244,152,122)" paint-order="fill" d="M 589.6630859375 474.5105285644531 A 10 10 0 0 1 569.6630859375 474.5105285644531 A 10 10 0 0 1 589.6630859375 474.5105285644531" fill-opacity="1" clip-path="url(#ocvSlzHIAdlk)" stroke-opacity="1" stroke-linejoin="bevel" stroke-miterlimit="10" stroke-dasharray=""/><path fill="rgb(244,152,122)" stroke="rgb(244,152,122)" paint-order="fill" d="M 747.2512817382812 222.66879272460938 A 10 10 0 0 1 727.2512817382812 222.66879272460938 A 10 10 0 0 1 747.2512817382812 222.66879272460938" fill-opacity="1" clip-path="url(#ocvSlzHIAdlk)" stroke-opacity="1" stroke-linejoin="bevel" stroke-miterlimit="10" stroke-dasharray=""/><path fill="rgb(244,152,122)" stroke="rgb(244,152,122)" paint-order="fill" d="M 703.6441650390625 405.382080078125 A 10 10 0 0 1 683.6441650390625 405.382080078125 A 10 10 0 0 1 703.6441650390625 405.382080078125" fill-opacity="1" clip-path="url(#ocvSlzHIAdlk)" stroke-opacity="1" stroke-linejoin="bevel" stroke-miterlimit="10" stroke-dasharray=""/><path fill="rgb(244,152,122)" stroke="rgb(244,152,122)" paint-order="fill" d="M 610.318359375 460.1759948730469 A 10 10 0 0 1 590.318359375 460.1759948730469 A 10 10 0 0 1 610.318359375 460.1759948730469" fill-opacity="1" clip-path="url(#ocvSlzHIAdlk)" stroke-opacity="1" stroke-linejoin="bevel" stroke-miterlimit="10" stroke-dasharray=""/><path fill="rgb(244,152,122)" stroke="rgb(244,152,122)" paint-order="fill" d="M 398.24945068359375 597.317138671875 A 10 10 0 0 1 378.24945068359375 597.317138671875 A 10 10 0 0 1 398.24945068359375 597.317138671875" fill-opacity="1" clip-path="url(#ocvSlzHIAdlk)" stroke-opacity="1" stroke-linejoin="bevel" stroke-miterlimit="10" stroke-dasharray=""/><path fill="rgb(128,128,128)" stroke="rgb(128,128,128)" paint-order="fill" d="M 121.9524154663086 721.3915405273438 A 10 10 0 0 1 101.9524154663086 721.3915405273438 A 10 10 0 0 1 121.9524154663086 721.3915405273438" fill-opacity="1" clip-path="url(#IeGDNfOVizVi)" stroke-opacity="1" stroke-linejoin="bevel" stroke-miterlimit="10" stroke-dasharray=""/><path fill="rgb(128,128,128)" stroke="rgb(128,128,128)" paint-order="fill" d="M 250.56884765625 637.0301513671875 A 10 10 0 0 1 230.56884765625 637.0301513671875 A 10 10 0 0 1 250.56884765625 637.0301513671875" fill-opacity="1" clip-path="url(#IeGDNfOVizVi)" stroke-opacity="1" stroke-linejoin="bevel" stroke-miterlimit="10" stroke-dasharray=""/><path fill="rgb(128,128,128)" stroke="rgb(128,128,128)" paint-order="fill" d="M 436.7616882324219 408.001220703125 A 10 10 0 0 1 416.7616882324219 408.001220703125 A 10 10 0 0 1 436.7616882324219 408.001220703125" fill-opacity="1" clip-path="url(#IeGDNfOVizVi)" stroke-opacity="1" stroke-linejoin="bevel" stroke-miterlimit="10" stroke-dasharray=""/><path fill="rgb(128,128,128)" stroke="rgb(128,128,128)" paint-order="fill" d="M 135.93377685546875 734.7686157226562 A 10 10 0 0 1 115.93377685546875 734.7686157226562 A 10 10 0 0 1 135.93377685546875 734.7686157226562" fill-opacity="1" clip-path="url(#IeGDNfOVizVi)" stroke-opacity="1" stroke-linejoin="bevel" stroke-miterlimit="10" stroke-dasharray=""/><path fill="rgb(128,128,128)" stroke="rgb(128,128,128)" paint-order="fill" d="M 99.16364288330078 746.9837036132812 A 10 10 0 0 1 79.16364288330078 746.9837036132812 A 10 10 0 0 1 99.16364288330078 746.9837036132812" fill-opacity="1" clip-path="url(#IeGDNfOVizVi)" stroke-opacity="1" stroke-linejoin="bevel" stroke-miterlimit="10" stroke-dasharray=""/><path fill="rgb(128,128,128)" stroke="rgb(128,128,128)" paint-order="fill" d="M 162.86190795898438 669.628173828125 A 10 10 0 0 1 142.86190795898438 669.628173828125 A 10 10 0 0 1 162.86190795898438 669.628173828125" fill-opacity="1" clip-path="url(#IeGDNfOVizVi)" stroke-opacity="1" stroke-linejoin="bevel" stroke-miterlimit="10" stroke-dasharray=""/><path fill="rgb(128,128,128)" stroke="rgb(128,128,128)" paint-order="fill" d="M 135.62369537353516 764.4920043945312 A 10 10 0 0 1 115.62369537353516 764.4920043945312 A 10 10 0 0 1 135.62369537353516 764.4920043945312" fill-opacity="1" clip-path="url(#IeGDNfOVizVi)" stroke-opacity="1" stroke-linejoin="bevel" stroke-miterlimit="10" stroke-dasharray=""/><path fill="rgb(128,128,128)" stroke="rgb(128,128,128)" paint-order="fill" d="M 132.16761016845703 724.2330322265625 A 10 10 0 0 1 112.16761016845703 724.2330322265625 A 10 10 0 0 1 132.16761016845703 724.2330322265625" fill-opacity="1" clip-path="url(#IeGDNfOVizVi)" stroke-opacity="1" stroke-linejoin="bevel" stroke-miterlimit="10" stroke-dasharray=""/><path fill="rgb(128,128,128)" stroke="rgb(128,128,128)" paint-order="fill" d="M 330.7410888671875 515.3746948242188 A 10 10 0 0 1 310.7410888671875 515.3746948242188 A 10 10 0 0 1 330.7410888671875 515.3746948242188" fill-opacity="1" clip-path="url(#IeGDNfOVizVi)" stroke-opacity="1" stroke-linejoin="bevel" stroke-miterlimit="10" stroke-dasharray=""/><path fill="rgb(128,128,128)" stroke="rgb(128,128,128)" paint-order="fill" d="M 165.65643310546875 700.0859375 A 10 10 0 0 1 145.65643310546875 700.0859375 A 10 10 0 0 1 165.65643310546875 700.0859375" fill-opacity="1" clip-path="url(#IeGDNfOVizVi)" stroke-opacity="1" stroke-linejoin="bevel" stroke-miterlimit="10" stroke-dasharray=""/><path fill="rgb(128,128,128)" stroke="rgb(128,128,128)" paint-order="fill" d="M 163.4592742919922 709.7213745117188 A 10 10 0 0 1 143.4592742919922 709.7213745117188 A 10 10 0 0 1 163.4592742919922 709.7213745117188" fill-opacity="1" clip-path="url(#IeGDNfOVizVi)" stroke-opacity="1" stroke-linejoin="bevel" stroke-miterlimit="10" stroke-dasharray=""/><path fill="rgb(128,128,128)" stroke="rgb(128,128,128)" paint-order="fill" d="M 177.01686096191406 704.6159057617188 A 10 10 0 0 1 157.01686096191406 704.6159057617188 A 10 10 0 0 1 177.01686096191406 704.6159057617188" fill-opacity="1" clip-path="url(#IeGDNfOVizVi)" stroke-opacity="1" stroke-linejoin="bevel" stroke-miterlimit="10" stroke-dasharray=""/><path fill="rgb(128,128,128)" stroke="rgb(128,128,128)" paint-order="fill" d="M 130.35403442382812 721.8732299804688 A 10 10 0 0 1 110.35403442382812 721.8732299804688 A 10 10 0 0 1 130.35403442382812 721.8732299804688" fill-opacity="1" clip-path="url(#IeGDNfOVizVi)" stroke-opacity="1" stroke-linejoin="bevel" stroke-miterlimit="10" stroke-dasharray=""/><path fill="rgb(128,128,128)" stroke="rgb(128,128,128)" paint-order="fill" d="M 105.0503921508789 717.4537353515625 A 10 10 0 0 1 85.0503921508789 717.4537353515625 A 10 10 0 0 1 105.0503921508789 717.4537353515625" fill-opacity="1" clip-path="url(#IeGDNfOVizVi)" stroke-opacity="1" stroke-linejoin="bevel" stroke-miterlimit="10" stroke-dasharray=""/><path fill="rgb(128,128,128)" stroke="rgb(128,128,128)" paint-order="fill" d="M 125.10550689697266 724.93359375 A 10 10 0 0 1 105.10550689697266 724.93359375 A 10 10 0 0 1 125.10550689697266 724.93359375" fill-opacity="1" clip-path="url(#IeGDNfOVizVi)" stroke-opacity="1" stroke-linejoin="bevel" stroke-miterlimit="10" stroke-dasharray=""/><path fill="rgb(128,128,128)" stroke="rgb(128,128,128)" paint-order="fill" d="M 454.8822021484375 435.2983093261719 A 10 10 0 0 1 434.8822021484375 435.2983093261719 A 10 10 0 0 1 454.8822021484375 435.2983093261719" fill-opacity="1" clip-path="url(#IeGDNfOVizVi)" stroke-opacity="1" stroke-linejoin="bevel" stroke-miterlimit="10" stroke-dasharray=""/><path fill="rgb(128,128,128)" stroke="rgb(128,128,128)" paint-order="fill" d="M 288.5185241699219 597.3818969726562 A 10 10 0 0 1 268.5185241699219 597.3818969726562 A 10 10 0 0 1 288.5185241699219 597.3818969726562" fill-opacity="1" clip-path="url(#IeGDNfOVizVi)" stroke-opacity="1" stroke-linejoin="bevel" stroke-miterlimit="10" stroke-dasharray=""/><path fill="rgb(128,128,128)" stroke="rgb(128,128,128)" paint-order="fill" d="M 200.06982421875 683.6622314453125 A 10 10 0 0 1 180.06982421875 683.6622314453125 A 10 10 0 0 1 200.06982421875 683.6622314453125" fill-opacity="1" clip-path="url(#IeGDNfOVizVi)" stroke-opacity="1" stroke-linejoin="bevel" stroke-miterlimit="10" stroke-dasharray=""/><path fill="rgb(128,128,128)" stroke="rgb(128,128,128)" paint-order="fill" d="M 144.3537139892578 732.3277587890625 A 10 10 0 0 1 124.35371398925781 732.3277587890625 A 10 10 0 0 1 144.3537139892578 732.3277587890625" fill-opacity="1" clip-path="url(#IeGDNfOVizVi)" stroke-opacity="1" stroke-linejoin="bevel" stroke-miterlimit="10" stroke-dasharray=""/><path fill="rgb(128,128,128)" stroke="rgb(128,128,128)" paint-order="fill" d="M 110.21060180664062 746.3429565429688 A 10 10 0 0 1 90.21060180664062 746.3429565429688 A 10 10 0 0 1 110.21060180664062 746.3429565429688" fill-opacity="1" clip-path="url(#IeGDNfOVizVi)" stroke-opacity="1" stroke-linejoin="bevel" stroke-miterlimit="10" stroke-dasharray=""/><path fill="rgb(128,128,128)" stroke="rgb(128,128,128)" paint-order="fill" d="M 113.14694213867188 734.025146484375 A 10 10 0 0 1 93.14694213867188 734.025146484375 A 10 10 0 0 1 113.14694213867188 734.025146484375" fill-opacity="1" clip-path="url(#IeGDNfOVizVi)" stroke-opacity="1" stroke-linejoin="bevel" stroke-miterlimit="10" stroke-dasharray=""/><path fill="rgb(128,128,128)" stroke="rgb(128,128,128)" paint-order="fill" d="M 282.98211669921875 622.1878662109375 A 10 10 0 0 1 262.98211669921875 622.1878662109375 A 10 10 0 0 1 282.98211669921875 622.1878662109375" fill-opacity="1" clip-path="url(#IeGDNfOVizVi)" stroke-opacity="1" stroke-linejoin="bevel" stroke-miterlimit="10" stroke-dasharray=""/><path fill="rgb(128,128,128)" stroke="rgb(128,128,128)" paint-order="fill" d="M 191.65370178222656 696.6795654296875 A 10 10 0 0 1 171.65370178222656 696.6795654296875 A 10 10 0 0 1 191.65370178222656 696.6795654296875" fill-opacity="1" clip-path="url(#IeGDNfOVizVi)" stroke-opacity="1" stroke-linejoin="bevel" stroke-miterlimit="10" stroke-dasharray=""/><path fill="rgb(128,128,128)" stroke="rgb(128,128,128)" paint-order="fill" d="M 128.62586212158203 728.6968994140625 A 10 10 0 0 1 108.62586212158203 728.6968994140625 A 10 10 0 0 1 128.62586212158203 728.6968994140625" fill-opacity="1" clip-path="url(#IeGDNfOVizVi)" stroke-opacity="1" stroke-linejoin="bevel" stroke-miterlimit="10" stroke-dasharray=""/><path fill="rgb(128,128,128)" stroke="rgb(128,128,128)" paint-order="fill" d="M 165.1523895263672 708.509521484375 A 10 10 0 0 1 145.1523895263672 708.509521484375 A 10 10 0 0 1 165.1523895263672 708.509521484375" fill-opacity="1" clip-path="url(#IeGDNfOVizVi)" stroke-opacity="1" stroke-linejoin="bevel" stroke-miterlimit="10" stroke-dasharray=""/><path fill="rgb(128,128,128)" stroke="rgb(128,128,128)" paint-order="fill" d="M 259.1910705566406 596.09130859375 A 10 10 0 0 1 239.19107055664062 596.09130859375 A 10 10 0 0 1 259.1910705566406 596.09130859375" fill-opacity="1" clip-path="url(#IeGDNfOVizVi)" stroke-opacity="1" stroke-linejoin="bevel" stroke-miterlimit="10" stroke-dasharray=""/><path fill="rgb(128,128,128)" stroke="rgb(128,128,128)" paint-order="fill" d="M 159.4872589111328 710.6200561523438 A 10 10 0 0 1 139.4872589111328 710.6200561523438 A 10 10 0 0 1 159.4872589111328 710.6200561523438" fill-opacity="1" clip-path="url(#IeGDNfOVizVi)" stroke-opacity="1" stroke-linejoin="bevel" stroke-miterlimit="10" stroke-dasharray=""/><path fill="rgb(128,128,128)" stroke="rgb(128,128,128)" paint-order="fill" d="M 169.05397033691406 714.7918090820312 A 10 10 0 0 1 149.05397033691406 714.7918090820312 A 10 10 0 0 1 169.05397033691406 714.7918090820312" fill-opacity="1" clip-path="url(#IeGDNfOVizVi)" stroke-opacity="1" stroke-linejoin="bevel" stroke-miterlimit="10" stroke-dasharray=""/><path fill="rgb(128,128,128)" stroke="rgb(128,128,128)" paint-order="fill" d="M 186.16659545898438 691.383056640625 A 10 10 0 0 1 166.16659545898438 691.383056640625 A 10 10 0 0 1 186.16659545898438 691.383056640625" fill-opacity="1" clip-path="url(#IeGDNfOVizVi)" stroke-opacity="1" stroke-linejoin="bevel" stroke-miterlimit="10" stroke-dasharray=""/><path fill="rgb(128,128,128)" stroke="rgb(128,128,128)" paint-order="fill" d="M 130.46135711669922 722.7715454101562 A 10 10 0 0 1 110.46135711669922 722.7715454101562 A 10 10 0 0 1 130.46135711669922 722.7715454101562" fill-opacity="1" clip-path="url(#IeGDNfOVizVi)" stroke-opacity="1" stroke-linejoin="bevel" stroke-miterlimit="10" stroke-dasharray=""/><path fill="rgb(128,128,128)" stroke="rgb(128,128,128)" paint-order="fill" d="M 359.3250427246094 421.1467590332031 A 10 10 0 0 1 339.3250427246094 421.1467590332031 A 10 10 0 0 1 359.3250427246094 421.1467590332031" fill-opacity="1" clip-path="url(#IeGDNfOVizVi)" stroke-opacity="1" stroke-linejoin="bevel" stroke-miterlimit="10" stroke-dasharray=""/><path fill="rgb(128,128,128)" stroke="rgb(128,128,128)" paint-order="fill" d="M 176.24024963378906 693.1683349609375 A 10 10 0 0 1 156.24024963378906 693.1683349609375 A 10 10 0 0 1 176.24024963378906 693.1683349609375" fill-opacity="1" clip-path="url(#IeGDNfOVizVi)" stroke-opacity="1" stroke-linejoin="bevel" stroke-miterlimit="10" stroke-dasharray=""/><path fill="rgb(128,128,128)" stroke="rgb(128,128,128)" paint-order="fill" d="M 193.73577880859375 710.7488403320312 A 10 10 0 0 1 173.73577880859375 710.7488403320312 A 10 10 0 0 1 193.73577880859375 710.7488403320312" fill-opacity="1" clip-path="url(#IeGDNfOVizVi)" stroke-opacity="1" stroke-linejoin="bevel" stroke-miterlimit="10" stroke-dasharray=""/><path fill="rgb(128,128,128)" stroke="rgb(128,128,128)" paint-order="fill" d="M 172.69227600097656 730.4297485351562 A 10 10 0 0 1 152.69227600097656 730.4297485351562 A 10 10 0 0 1 172.69227600097656 730.4297485351562" fill-opacity="1" clip-path="url(#IeGDNfOVizVi)" stroke-opacity="1" stroke-linejoin="bevel" stroke-miterlimit="10" stroke-dasharray=""/><path fill="rgb(128,128,128)" stroke="rgb(128,128,128)" paint-order="fill" d="M 163.2035675048828 721.8732299804688 A 10 10 0 0 1 143.2035675048828 721.8732299804688 A 10 10 0 0 1 163.2035675048828 721.8732299804688" fill-opacity="1" clip-path="url(#IeGDNfOVizVi)" stroke-opacity="1" stroke-linejoin="bevel" stroke-miterlimit="10" stroke-dasharray=""/><path fill="rgb(128,128,128)" stroke="rgb(128,128,128)" paint-order="fill" d="M 135.20919799804688 720.1593627929688 A 10 10 0 0 1 115.20919799804688 720.1593627929688 A 10 10 0 0 1 135.20919799804688 720.1593627929688" fill-opacity="1" clip-path="url(#IeGDNfOVizVi)" stroke-opacity="1" stroke-linejoin="bevel" stroke-miterlimit="10" stroke-dasharray=""/><path fill="rgb(128,128,128)" stroke="rgb(128,128,128)" paint-order="fill" d="M 158.4326629638672 675.869140625 A 10 10 0 0 1 138.4326629638672 675.869140625 A 10 10 0 0 1 158.4326629638672 675.869140625" fill-opacity="1" clip-path="url(#IeGDNfOVizVi)" stroke-opacity="1" stroke-linejoin="bevel" stroke-miterlimit="10" stroke-dasharray=""/><path fill="rgb(128,128,128)" stroke="rgb(128,128,128)" paint-order="fill" d="M 183.4530487060547 695.6183471679688 A 10 10 0 0 1 163.4530487060547 695.6183471679688 A 10 10 0 0 1 183.4530487060547 695.6183471679688" fill-opacity="1" clip-path="url(#IeGDNfOVizVi)" stroke-opacity="1" stroke-linejoin="bevel" stroke-miterlimit="10" stroke-dasharray=""/><path fill="rgb(128,128,128)" stroke="rgb(128,128,128)" paint-order="fill" d="M 226.693115234375 607.1911010742188 A 10 10 0 0 1 206.693115234375 607.1911010742188 A 10 10 0 0 1 226.693115234375 607.1911010742188" fill-opacity="1" clip-path="url(#IeGDNfOVizVi)" stroke-opacity="1" stroke-linejoin="bevel" stroke-miterlimit="10" stroke-dasharray=""/><path fill="rgb(128,128,128)" stroke="rgb(128,128,128)" paint-order="fill" d="M 197.8780059814453 645.8728637695312 A 10 10 0 0 1 177.8780059814453 645.8728637695312 A 10 10 0 0 1 197.8780059814453 645.8728637695312" fill-opacity="1" clip-path="url(#IeGDNfOVizVi)" stroke-opacity="1" stroke-linejoin="bevel" stroke-miterlimit="10" stroke-dasharray=""/><path fill="rgb(128,128,128)" stroke="rgb(128,128,128)" paint-order="fill" d="M 229.34896850585938 653.1597290039062 A 10 10 0 0 1 209.34896850585938 653.1597290039062 A 10 10 0 0 1 229.34896850585938 653.1597290039062" fill-opacity="1" clip-path="url(#IeGDNfOVizVi)" stroke-opacity="1" stroke-linejoin="bevel" stroke-miterlimit="10" stroke-dasharray=""/><path fill="rgb(128,128,128)" stroke="rgb(128,128,128)" paint-order="fill" d="M 163.11822509765625 699.9652099609375 A 10 10 0 0 1 143.11822509765625 699.9652099609375 A 10 10 0 0 1 163.11822509765625 699.9652099609375" fill-opacity="1" clip-path="url(#IeGDNfOVizVi)" stroke-opacity="1" stroke-linejoin="bevel" stroke-miterlimit="10" stroke-dasharray=""/><path fill="rgb(128,128,128)" stroke="rgb(128,128,128)" paint-order="fill" d="M 131.5301513671875 713.4112548828125 A 10 10 0 0 1 111.5301513671875 713.4112548828125 A 10 10 0 0 1 131.5301513671875 713.4112548828125" fill-opacity="1" clip-path="url(#IeGDNfOVizVi)" stroke-opacity="1" stroke-linejoin="bevel" stroke-miterlimit="10" stroke-dasharray=""/><path fill="rgb(128,128,128)" stroke="rgb(128,128,128)" paint-order="fill" d="M 174.59547424316406 683.6075439453125 A 10 10 0 0 1 154.59547424316406 683.6075439453125 A 10 10 0 0 1 174.59547424316406 683.6075439453125" fill-opacity="1" clip-path="url(#IeGDNfOVizVi)" stroke-opacity="1" stroke-linejoin="bevel" stroke-miterlimit="10" stroke-dasharray=""/><path fill="rgb(128,128,128)" stroke="rgb(128,128,128)" paint-order="fill" d="M 326.4512023925781 578.86474609375 A 10 10 0 0 1 306.4512023925781 578.86474609375 A 10 10 0 0 1 326.4512023925781 578.86474609375" fill-opacity="1" clip-path="url(#IeGDNfOVizVi)" stroke-opacity="1" stroke-linejoin="bevel" stroke-miterlimit="10" stroke-dasharray=""/><path fill="rgb(128,128,128)" stroke="rgb(128,128,128)" paint-order="fill" d="M 260.9667510986328 609.4408569335938 A 10 10 0 0 1 240.9667510986328 609.4408569335938 A 10 10 0 0 1 260.9667510986328 609.4408569335938" fill-opacity="1" clip-path="url(#IeGDNfOVizVi)" stroke-opacity="1" stroke-linejoin="bevel" stroke-miterlimit="10" stroke-dasharray=""/><path fill="rgb(128,128,128)" stroke="rgb(128,128,128)" paint-order="fill" d="M 311.24420166015625 587.9705810546875 A 10 10 0 0 1 291.24420166015625 587.9705810546875 A 10 10 0 0 1 311.24420166015625 587.9705810546875" fill-opacity="1" clip-path="url(#IeGDNfOVizVi)" stroke-opacity="1" stroke-linejoin="bevel" stroke-miterlimit="10" stroke-dasharray=""/><path fill="rgb(128,128,128)" stroke="rgb(128,128,128)" paint-order="fill" d="M 165.99147033691406 693.6322021484375 A 10 10 0 0 1 145.99147033691406 693.6322021484375 A 10 10 0 0 1 165.99147033691406 693.6322021484375" fill-opacity="1" clip-path="url(#IeGDNfOVizVi)" stroke-opacity="1" stroke-linejoin="bevel" stroke-miterlimit="10" stroke-dasharray=""/><path fill="rgb(128,128,128)" stroke="rgb(128,128,128)" paint-order="fill" d="M 158.0793914794922 701.1764526367188 A 10 10 0 0 1 138.0793914794922 701.1764526367188 A 10 10 0 0 1 158.0793914794922 701.1764526367188" fill-opacity="1" clip-path="url(#IeGDNfOVizVi)" stroke-opacity="1" stroke-linejoin="bevel" stroke-miterlimit="10" stroke-dasharray=""/><path fill="rgb(128,128,128)" stroke="rgb(128,128,128)" paint-order="fill" d="M 283.49774169921875 574.4373168945312 A 10 10 0 0 1 263.49774169921875 574.4373168945312 A 10 10 0 0 1 283.49774169921875 574.4373168945312" fill-opacity="1" clip-path="url(#IeGDNfOVizVi)" stroke-opacity="1" stroke-linejoin="bevel" stroke-miterlimit="10" stroke-dasharray=""/><path fill="rgb(128,128,128)" stroke="rgb(128,128,128)" paint-order="fill" d="M 215.7240753173828 660.4508666992188 A 10 10 0 0 1 195.7240753173828 660.4508666992188 A 10 10 0 0 1 215.7240753173828 660.4508666992188" fill-opacity="1" clip-path="url(#IeGDNfOVizVi)" stroke-opacity="1" stroke-linejoin="bevel" stroke-miterlimit="10" stroke-dasharray=""/><path fill="rgb(128,128,128)" stroke="rgb(128,128,128)" paint-order="fill" d="M 147.2445068359375 685.9185791015625 A 10 10 0 0 1 127.2445068359375 685.9185791015625 A 10 10 0 0 1 147.2445068359375 685.9185791015625" fill-opacity="1" clip-path="url(#IeGDNfOVizVi)" stroke-opacity="1" stroke-linejoin="bevel" stroke-miterlimit="10" stroke-dasharray=""/><path fill="rgb(128,128,128)" stroke="rgb(128,128,128)" paint-order="fill" d="M 193.6668701171875 651.1280517578125 A 10 10 0 0 1 173.6668701171875 651.1280517578125 A 10 10 0 0 1 193.6668701171875 651.1280517578125" fill-opacity="1" clip-path="url(#IeGDNfOVizVi)" stroke-opacity="1" stroke-linejoin="bevel" stroke-miterlimit="10" stroke-dasharray=""/><path fill="rgb(128,128,128)" stroke="rgb(128,128,128)" paint-order="fill" d="M 675.7814331054688 232.43089294433594 A 10 10 0 0 1 655.7814331054688 232.43089294433594 A 10 10 0 0 1 675.7814331054688 232.43089294433594" fill-opacity="1" clip-path="url(#IeGDNfOVizVi)" stroke-opacity="1" stroke-linejoin="bevel" stroke-miterlimit="10" stroke-dasharray=""/><path fill="rgb(128,128,128)" stroke="rgb(128,128,128)" paint-order="fill" d="M 674.957275390625 169.37557983398438 A 10 10 0 0 1 654.957275390625 169.37557983398438 A 10 10 0 0 1 674.957275390625 169.37557983398438" fill-opacity="1" clip-path="url(#IeGDNfOVizVi)" stroke-opacity="1" stroke-linejoin="bevel" stroke-miterlimit="10" stroke-dasharray=""/><path fill="rgb(128,128,128)" stroke="rgb(128,128,128)" paint-order="fill" d="M 219.8578643798828 646.8318481445312 A 10 10 0 0 1 199.8578643798828 646.8318481445312 A 10 10 0 0 1 219.8578643798828 646.8318481445312" fill-opacity="1" clip-path="url(#IeGDNfOVizVi)" stroke-opacity="1" stroke-linejoin="bevel" stroke-miterlimit="10" stroke-dasharray=""/><path fill="rgb(128,128,128)" stroke="rgb(128,128,128)" paint-order="fill" d="M 198.4791259765625 629.1079711914062 A 10 10 0 0 1 178.4791259765625 629.1079711914062 A 10 10 0 0 1 198.4791259765625 629.1079711914062" fill-opacity="1" clip-path="url(#IeGDNfOVizVi)" stroke-opacity="1" stroke-linejoin="bevel" stroke-miterlimit="10" stroke-dasharray=""/><path fill="rgb(128,128,128)" stroke="rgb(128,128,128)" paint-order="fill" d="M 183.52706909179688 641.0330810546875 A 10 10 0 0 1 163.52706909179688 641.0330810546875 A 10 10 0 0 1 183.52706909179688 641.0330810546875" fill-opacity="1" clip-path="url(#IeGDNfOVizVi)" stroke-opacity="1" stroke-linejoin="bevel" stroke-miterlimit="10" stroke-dasharray=""/><path fill="rgb(128,128,128)" stroke="rgb(128,128,128)" paint-order="fill" d="M 775.3239135742188 77.16177368164062 A 10 10 0 0 1 755.3239135742188 77.16177368164062 A 10 10 0 0 1 775.3239135742188 77.16177368164062" fill-opacity="1" clip-path="url(#IeGDNfOVizVi)" stroke-opacity="1" stroke-linejoin="bevel" stroke-miterlimit="10" stroke-dasharray=""/><path fill="rgb(128,128,128)" stroke="rgb(128,128,128)" paint-order="fill" d="M 651.6240844726562 145.81005859375 A 10 10 0 0 1 631.6240844726562 145.81005859375 A 10 10 0 0 1 651.6240844726562 145.81005859375" fill-opacity="1" clip-path="url(#IeGDNfOVizVi)" stroke-opacity="1" stroke-linejoin="bevel" stroke-miterlimit="10" stroke-dasharray=""/><path fill="rgb(128,128,128)" stroke="rgb(128,128,128)" paint-order="fill" d="M 658.8141479492188 148.8632354736328 A 10 10 0 0 1 638.8141479492188 148.8632354736328 A 10 10 0 0 1 658.8141479492188 148.8632354736328" fill-opacity="1" clip-path="url(#IeGDNfOVizVi)" stroke-opacity="1" stroke-linejoin="bevel" stroke-miterlimit="10" stroke-dasharray=""/><path fill="rgb(128,128,128)" stroke="rgb(128,128,128)" paint-order="fill" d="M 672.8228149414062 129.85997009277344 A 10 10 0 0 1 652.8228149414062 129.85997009277344 A 10 10 0 0 1 672.8228149414062 129.85997009277344" fill-opacity="1" clip-path="url(#IeGDNfOVizVi)" stroke-opacity="1" stroke-linejoin="bevel" stroke-miterlimit="10" stroke-dasharray=""/><path fill="rgb(128,128,128)" stroke="rgb(128,128,128)" paint-order="fill" d="M 582.7420043945312 327.1886901855469 A 10 10 0 0 1 562.7420043945312 327.1886901855469 A 10 10 0 0 1 582.7420043945312 327.1886901855469" fill-opacity="1" clip-path="url(#IeGDNfOVizVi)" stroke-opacity="1" stroke-linejoin="bevel" stroke-miterlimit="10" stroke-dasharray=""/><path fill="rgb(128,128,128)" stroke="rgb(128,128,128)" paint-order="fill" d="M 609.8621215820312 223.51902770996094 A 10 10 0 0 1 589.8621215820312 223.51902770996094 A 10 10 0 0 1 609.8621215820312 223.51902770996094" fill-opacity="1" clip-path="url(#IeGDNfOVizVi)" stroke-opacity="1" stroke-linejoin="bevel" stroke-miterlimit="10" stroke-dasharray=""/><path fill="rgb(128,128,128)" stroke="rgb(128,128,128)" paint-order="fill" d="M 663.61474609375 187.28155517578125 A 10 10 0 0 1 643.61474609375 187.28155517578125 A 10 10 0 0 1 663.61474609375 187.28155517578125" fill-opacity="1" clip-path="url(#IeGDNfOVizVi)" stroke-opacity="1" stroke-linejoin="bevel" stroke-miterlimit="10" stroke-dasharray=""/><path fill="rgb(128,128,128)" stroke="rgb(128,128,128)" paint-order="fill" d="M 535.2242431640625 263.4444885253906 A 10 10 0 0 1 515.2242431640625 263.4444885253906 A 10 10 0 0 1 535.2242431640625 263.4444885253906" fill-opacity="1" clip-path="url(#IeGDNfOVizVi)" stroke-opacity="1" stroke-linejoin="bevel" stroke-miterlimit="10" stroke-dasharray=""/><path fill="rgb(128,128,128)" stroke="rgb(128,128,128)" paint-order="fill" d="M 609.9557495117188 204.29336547851562 A 10 10 0 0 1 589.9557495117188 204.29336547851562 A 10 10 0 0 1 609.9557495117188 204.29336547851562" fill-opacity="1" clip-path="url(#IeGDNfOVizVi)" stroke-opacity="1" stroke-linejoin="bevel" stroke-miterlimit="10" stroke-dasharray=""/><path fill="rgb(128,128,128)" stroke="rgb(128,128,128)" paint-order="fill" d="M 591.7870483398438 204.39195251464844 A 10 10 0 0 1 571.7870483398438 204.39195251464844 A 10 10 0 0 1 591.7870483398438 204.39195251464844" fill-opacity="1" clip-path="url(#IeGDNfOVizVi)" stroke-opacity="1" stroke-linejoin="bevel" stroke-miterlimit="10" stroke-dasharray=""/><path fill="rgb(128,128,128)" stroke="rgb(128,128,128)" paint-order="fill" d="M 633.2557373046875 150.38113403320312 A 10 10 0 0 1 613.2557373046875 150.38113403320312 A 10 10 0 0 1 633.2557373046875 150.38113403320312" fill-opacity="1" clip-path="url(#IeGDNfOVizVi)" stroke-opacity="1" stroke-linejoin="bevel" stroke-miterlimit="10" stroke-dasharray=""/><path fill="rgb(128,128,128)" stroke="rgb(128,128,128)" paint-order="fill" d="M 635.3580322265625 141.1238555908203 A 10 10 0 0 1 615.3580322265625 141.1238555908203 A 10 10 0 0 1 635.3580322265625 141.1238555908203" fill-opacity="1" clip-path="url(#IeGDNfOVizVi)" stroke-opacity="1" stroke-linejoin="bevel" stroke-miterlimit="10" stroke-dasharray=""/><path fill="rgb(128,128,128)" stroke="rgb(128,128,128)" paint-order="fill" d="M 631.1607666015625 161.3774871826172 A 10 10 0 0 1 611.1607666015625 161.3774871826172 A 10 10 0 0 1 631.1607666015625 161.3774871826172" fill-opacity="1" clip-path="url(#IeGDNfOVizVi)" stroke-opacity="1" stroke-linejoin="bevel" stroke-miterlimit="10" stroke-dasharray=""/><path fill="rgb(128,128,128)" stroke="rgb(128,128,128)" paint-order="fill" d="M 642.0427856445312 157.93934631347656 A 10 10 0 0 1 622.0427856445312 157.93934631347656 A 10 10 0 0 1 642.0427856445312 157.93934631347656" fill-opacity="1" clip-path="url(#IeGDNfOVizVi)" stroke-opacity="1" stroke-linejoin="bevel" stroke-miterlimit="10" stroke-dasharray=""/><path fill="rgb(128,128,128)" stroke="rgb(128,128,128)" paint-order="fill" d="M 635.1385498046875 151.6003875732422 A 10 10 0 0 1 615.1385498046875 151.6003875732422 A 10 10 0 0 1 635.1385498046875 151.6003875732422" fill-opacity="1" clip-path="url(#IeGDNfOVizVi)" stroke-opacity="1" stroke-linejoin="bevel" stroke-miterlimit="10" stroke-dasharray=""/><path fill="rgb(128,128,128)" stroke="rgb(128,128,128)" paint-order="fill" d="M 638.843505859375 173.9132843017578 A 10 10 0 0 1 618.843505859375 173.9132843017578 A 10 10 0 0 1 638.843505859375 173.9132843017578" fill-opacity="1" clip-path="url(#IeGDNfOVizVi)" stroke-opacity="1" stroke-linejoin="bevel" stroke-miterlimit="10" stroke-dasharray=""/><path fill="rgb(128,128,128)" stroke="rgb(128,128,128)" paint-order="fill" d="M 644.893798828125 151.585205078125 A 10 10 0 0 1 624.893798828125 151.585205078125 A 10 10 0 0 1 644.893798828125 151.585205078125" fill-opacity="1" clip-path="url(#IeGDNfOVizVi)" stroke-opacity="1" stroke-linejoin="bevel" stroke-miterlimit="10" stroke-dasharray=""/><path fill="rgb(128,128,128)" stroke="rgb(128,128,128)" paint-order="fill" d="M 663.2723999023438 132.325927734375 A 10 10 0 0 1 643.2723999023438 132.325927734375 A 10 10 0 0 1 663.2723999023438 132.325927734375" fill-opacity="1" clip-path="url(#IeGDNfOVizVi)" stroke-opacity="1" stroke-linejoin="bevel" stroke-miterlimit="10" stroke-dasharray=""/><path fill="rgb(128,128,128)" stroke="rgb(128,128,128)" paint-order="fill" d="M 634.1781005859375 174.88998413085938 A 10 10 0 0 1 614.1781005859375 174.88998413085938 A 10 10 0 0 1 634.1781005859375 174.88998413085938" fill-opacity="1" clip-path="url(#IeGDNfOVizVi)" stroke-opacity="1" stroke-linejoin="bevel" stroke-miterlimit="10" stroke-dasharray=""/><path fill="rgb(128,128,128)" stroke="rgb(128,128,128)" paint-order="fill" d="M 665.1747436523438 132.07516479492188 A 10 10 0 0 1 645.1747436523438 132.07516479492188 A 10 10 0 0 1 665.1747436523438 132.07516479492188" fill-opacity="1" clip-path="url(#IeGDNfOVizVi)" stroke-opacity="1" stroke-linejoin="bevel" stroke-miterlimit="10" stroke-dasharray=""/><path fill="rgb(128,128,128)" stroke="rgb(128,128,128)" paint-order="fill" d="M 663.2208251953125 158.52438354492188 A 10 10 0 0 1 643.2208251953125 158.52438354492188 A 10 10 0 0 1 663.2208251953125 158.52438354492188" fill-opacity="1" clip-path="url(#IeGDNfOVizVi)" stroke-opacity="1" stroke-linejoin="bevel" stroke-miterlimit="10" stroke-dasharray=""/><path fill="rgb(128,128,128)" stroke="rgb(128,128,128)" paint-order="fill" d="M 647.4301147460938 146.96632385253906 A 10 10 0 0 1 627.4301147460938 146.96632385253906 A 10 10 0 0 1 647.4301147460938 146.96632385253906" fill-opacity="1" clip-path="url(#IeGDNfOVizVi)" stroke-opacity="1" stroke-linejoin="bevel" stroke-miterlimit="10" stroke-dasharray=""/><path fill="rgb(128,128,128)" stroke="rgb(128,128,128)" paint-order="fill" d="M 653.5158081054688 151.79144287109375 A 10 10 0 0 1 633.5158081054688 151.79144287109375 A 10 10 0 0 1 653.5158081054688 151.79144287109375" fill-opacity="1" clip-path="url(#IeGDNfOVizVi)" stroke-opacity="1" stroke-linejoin="bevel" stroke-miterlimit="10" stroke-dasharray=""/><path fill="rgb(128,128,128)" stroke="rgb(128,128,128)" paint-order="fill" d="M 634.9249877929688 178.15573120117188 A 10 10 0 0 1 614.9249877929688 178.15573120117188 A 10 10 0 0 1 634.9249877929688 178.15573120117188" fill-opacity="1" clip-path="url(#IeGDNfOVizVi)" stroke-opacity="1" stroke-linejoin="bevel" stroke-miterlimit="10" stroke-dasharray=""/><path fill="rgb(128,128,128)" stroke="rgb(128,128,128)" paint-order="fill" d="M 630.8377075195312 170.30624389648438 A 10 10 0 0 1 610.8377075195312 170.30624389648438 A 10 10 0 0 1 630.8377075195312 170.30624389648438" fill-opacity="1" clip-path="url(#IeGDNfOVizVi)" stroke-opacity="1" stroke-linejoin="bevel" stroke-miterlimit="10" stroke-dasharray=""/><path fill="rgb(128,128,128)" stroke="rgb(128,128,128)" paint-order="fill" d="M 647.4214477539062 152.95118713378906 A 10 10 0 0 1 627.4214477539062 152.95118713378906 A 10 10 0 0 1 647.4214477539062 152.95118713378906" fill-opacity="1" clip-path="url(#IeGDNfOVizVi)" stroke-opacity="1" stroke-linejoin="bevel" stroke-miterlimit="10" stroke-dasharray=""/><path fill="rgb(128,128,128)" stroke="rgb(128,128,128)" paint-order="fill" d="M 649.8032836914062 146.1770782470703 A 10 10 0 0 1 629.8032836914062 146.1770782470703 A 10 10 0 0 1 649.8032836914062 146.1770782470703" fill-opacity="1" clip-path="url(#IeGDNfOVizVi)" stroke-opacity="1" stroke-linejoin="bevel" stroke-miterlimit="10" stroke-dasharray=""/><path fill="rgb(128,128,128)" stroke="rgb(128,128,128)" paint-order="fill" d="M 644.4799194335938 165.3551788330078 A 10 10 0 0 1 624.4799194335938 165.3551788330078 A 10 10 0 0 1 644.4799194335938 165.3551788330078" fill-opacity="1" clip-path="url(#IeGDNfOVizVi)" stroke-opacity="1" stroke-linejoin="bevel" stroke-miterlimit="10" stroke-dasharray=""/><path fill="rgb(128,128,128)" stroke="rgb(128,128,128)" paint-order="fill" d="M 644.7852783203125 166.72645568847656 A 10 10 0 0 1 624.7852783203125 166.72645568847656 A 10 10 0 0 1 644.7852783203125 166.72645568847656" fill-opacity="1" clip-path="url(#IeGDNfOVizVi)" stroke-opacity="1" stroke-linejoin="bevel" stroke-miterlimit="10" stroke-dasharray=""/><path fill="rgb(128,128,128)" stroke="rgb(128,128,128)" paint-order="fill" d="M 637.901611328125 175.06500244140625 A 10 10 0 0 1 617.901611328125 175.06500244140625 A 10 10 0 0 1 637.901611328125 175.06500244140625" fill-opacity="1" clip-path="url(#IeGDNfOVizVi)" stroke-opacity="1" stroke-linejoin="bevel" stroke-miterlimit="10" stroke-dasharray=""/><path fill="rgb(128,128,128)" stroke="rgb(128,128,128)" paint-order="fill" d="M 644.4063720703125 164.45899963378906 A 10 10 0 0 1 624.4063720703125 164.45899963378906 A 10 10 0 0 1 644.4063720703125 164.45899963378906" fill-opacity="1" clip-path="url(#IeGDNfOVizVi)" stroke-opacity="1" stroke-linejoin="bevel" stroke-miterlimit="10" stroke-dasharray=""/><path fill="rgb(128,128,128)" stroke="rgb(128,128,128)" paint-order="fill" d="M 654.0831909179688 166.4626922607422 A 10 10 0 0 1 634.0831909179688 166.4626922607422 A 10 10 0 0 1 654.0831909179688 166.4626922607422" fill-opacity="1" clip-path="url(#IeGDNfOVizVi)" stroke-opacity="1" stroke-linejoin="bevel" stroke-miterlimit="10" stroke-dasharray=""/><path fill="rgb(128,128,128)" stroke="rgb(128,128,128)" paint-order="fill" d="M 646.5230102539062 150.49102783203125 A 10 10 0 0 1 626.5230102539062 150.49102783203125 A 10 10 0 0 1 646.5230102539062 150.49102783203125" fill-opacity="1" clip-path="url(#IeGDNfOVizVi)" stroke-opacity="1" stroke-linejoin="bevel" stroke-miterlimit="10" stroke-dasharray=""/><path fill="rgb(128,128,128)" stroke="rgb(128,128,128)" paint-order="fill" d="M 639.2587890625 170.55433654785156 A 10 10 0 0 1 619.2587890625 170.55433654785156 A 10 10 0 0 1 639.2587890625 170.55433654785156" fill-opacity="1" clip-path="url(#IeGDNfOVizVi)" stroke-opacity="1" stroke-linejoin="bevel" stroke-miterlimit="10" stroke-dasharray=""/><path fill="rgb(128,128,128)" stroke="rgb(128,128,128)" paint-order="fill" d="M 650.6251220703125 154.74383544921875 A 10 10 0 0 1 630.6251220703125 154.74383544921875 A 10 10 0 0 1 650.6251220703125 154.74383544921875" fill-opacity="1" clip-path="url(#IeGDNfOVizVi)" stroke-opacity="1" stroke-linejoin="bevel" stroke-miterlimit="10" stroke-dasharray=""/><path fill="rgb(128,128,128)" stroke="rgb(128,128,128)" paint-order="fill" d="M 656.4114379882812 157.0937042236328 A 10 10 0 0 1 636.4114379882812 157.0937042236328 A 10 10 0 0 1 656.4114379882812 157.0937042236328" fill-opacity="1" clip-path="url(#IeGDNfOVizVi)" stroke-opacity="1" stroke-linejoin="bevel" stroke-miterlimit="10" stroke-dasharray=""/><path fill="rgb(128,128,128)" stroke="rgb(128,128,128)" paint-order="fill" d="M 646.907958984375 169.1702880859375 A 10 10 0 0 1 626.907958984375 169.1702880859375 A 10 10 0 0 1 646.907958984375 169.1702880859375" fill-opacity="1" clip-path="url(#IeGDNfOVizVi)" stroke-opacity="1" stroke-linejoin="bevel" stroke-miterlimit="10" stroke-dasharray=""/><path fill="rgb(128,128,128)" stroke="rgb(128,128,128)" paint-order="fill" d="M 643.7194213867188 152.01535034179688 A 10 10 0 0 1 623.7194213867188 152.01535034179688 A 10 10 0 0 1 643.7194213867188 152.01535034179688" fill-opacity="1" clip-path="url(#IeGDNfOVizVi)" stroke-opacity="1" stroke-linejoin="bevel" stroke-miterlimit="10" stroke-dasharray=""/><path fill="rgb(128,128,128)" stroke="rgb(128,128,128)" paint-order="fill" d="M 653.4716796875 147.17742919921875 A 10 10 0 0 1 633.4716796875 147.17742919921875 A 10 10 0 0 1 653.4716796875 147.17742919921875" fill-opacity="1" clip-path="url(#IeGDNfOVizVi)" stroke-opacity="1" stroke-linejoin="bevel" stroke-miterlimit="10" stroke-dasharray=""/><path fill="rgb(128,128,128)" stroke="rgb(128,128,128)" paint-order="fill" d="M 632.3753662109375 153.96719360351562 A 10 10 0 0 1 612.3753662109375 153.96719360351562 A 10 10 0 0 1 632.3753662109375 153.96719360351562" fill-opacity="1" clip-path="url(#IeGDNfOVizVi)" stroke-opacity="1" stroke-linejoin="bevel" stroke-miterlimit="10" stroke-dasharray=""/><path fill="rgb(128,128,128)" stroke="rgb(128,128,128)" paint-order="fill" d="M 650.6588745117188 163.11102294921875 A 10 10 0 0 1 630.6588745117188 163.11102294921875 A 10 10 0 0 1 650.6588745117188 163.11102294921875" fill-opacity="1" clip-path="url(#IeGDNfOVizVi)" stroke-opacity="1" stroke-linejoin="bevel" stroke-miterlimit="10" stroke-dasharray=""/><path fill="rgb(128,128,128)" stroke="rgb(128,128,128)" paint-order="fill" d="M 654.173828125 154.6686553955078 A 10 10 0 0 1 634.173828125 154.6686553955078 A 10 10 0 0 1 654.173828125 154.6686553955078" fill-opacity="1" clip-path="url(#IeGDNfOVizVi)" stroke-opacity="1" stroke-linejoin="bevel" stroke-miterlimit="10" stroke-dasharray=""/><path fill="rgb(128,128,128)" stroke="rgb(128,128,128)" paint-order="fill" d="M 637.978515625 157.56771850585938 A 10 10 0 0 1 617.978515625 157.56771850585938 A 10 10 0 0 1 637.978515625 157.56771850585938" fill-opacity="1" clip-path="url(#IeGDNfOVizVi)" stroke-opacity="1" stroke-linejoin="bevel" stroke-miterlimit="10" stroke-dasharray=""/><path fill="rgb(128,128,128)" stroke="rgb(128,128,128)" paint-order="fill" d="M 636.4848022460938 155.1401824951172 A 10 10 0 0 1 616.4848022460938 155.1401824951172 A 10 10 0 0 1 636.4848022460938 155.1401824951172" fill-opacity="1" clip-path="url(#IeGDNfOVizVi)" stroke-opacity="1" stroke-linejoin="bevel" stroke-miterlimit="10" stroke-dasharray=""/><path fill="rgb(128,128,128)" stroke="rgb(128,128,128)" paint-order="fill" d="M 643.379150390625 175.85488891601562 A 10 10 0 0 1 623.379150390625 175.85488891601562 A 10 10 0 0 1 643.379150390625 175.85488891601562" fill-opacity="1" clip-path="url(#IeGDNfOVizVi)" stroke-opacity="1" stroke-linejoin="bevel" stroke-miterlimit="10" stroke-dasharray=""/><path fill="rgb(128,128,128)" stroke="rgb(128,128,128)" paint-order="fill" d="M 633.8269653320312 158.85508728027344 A 10 10 0 0 1 613.8269653320312 158.85508728027344 A 10 10 0 0 1 633.8269653320312 158.85508728027344" fill-opacity="1" clip-path="url(#IeGDNfOVizVi)" stroke-opacity="1" stroke-linejoin="bevel" stroke-miterlimit="10" stroke-dasharray=""/><path fill="rgb(128,128,128)" stroke="rgb(128,128,128)" paint-order="fill" d="M 637.9385375976562 135.67034912109375 A 10 10 0 0 1 617.9385375976562 135.67034912109375 A 10 10 0 0 1 637.9385375976562 135.67034912109375" fill-opacity="1" clip-path="url(#IeGDNfOVizVi)" stroke-opacity="1" stroke-linejoin="bevel" stroke-miterlimit="10" stroke-dasharray=""/><path fill="rgb(128,128,128)" stroke="rgb(128,128,128)" paint-order="fill" d="M 631.9556274414062 155.2333221435547 A 10 10 0 0 1 611.9556274414062 155.2333221435547 A 10 10 0 0 1 631.9556274414062 155.2333221435547" fill-opacity="1" clip-path="url(#IeGDNfOVizVi)" stroke-opacity="1" stroke-linejoin="bevel" stroke-miterlimit="10" stroke-dasharray=""/><path fill="rgb(128,128,128)" stroke="rgb(128,128,128)" paint-order="fill" d="M 581.6692504882812 165.9387664794922 A 10 10 0 0 1 561.6692504882812 165.9387664794922 A 10 10 0 0 1 581.6692504882812 165.9387664794922" fill-opacity="1" clip-path="url(#IeGDNfOVizVi)" stroke-opacity="1" stroke-linejoin="bevel" stroke-miterlimit="10" stroke-dasharray=""/><path fill="rgb(128,128,128)" stroke="rgb(128,128,128)" paint-order="fill" d="M 628.3748168945312 117.80879974365234 A 10 10 0 0 1 608.3748168945312 117.80879974365234 A 10 10 0 0 1 628.3748168945312 117.80879974365234" fill-opacity="1" clip-path="url(#IeGDNfOVizVi)" stroke-opacity="1" stroke-linejoin="bevel" stroke-miterlimit="10" stroke-dasharray=""/><path fill="rgb(128,128,128)" stroke="rgb(128,128,128)" paint-order="fill" d="M 612.4529418945312 172.6758575439453 A 10 10 0 0 1 592.4529418945312 172.6758575439453 A 10 10 0 0 1 612.4529418945312 172.6758575439453" fill-opacity="1" clip-path="url(#IeGDNfOVizVi)" stroke-opacity="1" stroke-linejoin="bevel" stroke-miterlimit="10" stroke-dasharray=""/><path fill="rgb(128,128,128)" stroke="rgb(128,128,128)" paint-order="fill" d="M 539.31396484375 194.69798278808594 A 10 10 0 0 1 519.31396484375 194.69798278808594 A 10 10 0 0 1 539.31396484375 194.69798278808594" fill-opacity="1" clip-path="url(#IeGDNfOVizVi)" stroke-opacity="1" stroke-linejoin="bevel" stroke-miterlimit="10" stroke-dasharray=""/><path fill="rgb(128,128,128)" stroke="rgb(128,128,128)" paint-order="fill" d="M 570.5238647460938 182.75901794433594 A 10 10 0 0 1 550.5238647460938 182.75901794433594 A 10 10 0 0 1 570.5238647460938 182.75901794433594" fill-opacity="1" clip-path="url(#IeGDNfOVizVi)" stroke-opacity="1" stroke-linejoin="bevel" stroke-miterlimit="10" stroke-dasharray=""/><path fill="rgb(128,128,128)" stroke="rgb(128,128,128)" paint-order="fill" d="M 558.9387817382812 185.0845184326172 A 10 10 0 0 1 538.9387817382812 185.0845184326172 A 10 10 0 0 1 558.9387817382812 185.0845184326172" fill-opacity="1" clip-path="url(#IeGDNfOVizVi)" stroke-opacity="1" stroke-linejoin="bevel" stroke-miterlimit="10" stroke-dasharray=""/><path fill="rgb(128,128,128)" stroke="rgb(128,128,128)" paint-order="fill" d="M 573.1871337890625 152.65830993652344 A 10 10 0 0 1 553.1871337890625 152.65830993652344 A 10 10 0 0 1 573.1871337890625 152.65830993652344" fill-opacity="1" clip-path="url(#IeGDNfOVizVi)" stroke-opacity="1" stroke-linejoin="bevel" stroke-miterlimit="10" stroke-dasharray=""/><path fill="rgb(128,128,128)" stroke="rgb(128,128,128)" paint-order="fill" d="M 533.201904296875 203.224609375 A 10 10 0 0 1 513.201904296875 203.224609375 A 10 10 0 0 1 533.201904296875 203.224609375" fill-opacity="1" clip-path="url(#IeGDNfOVizVi)" stroke-opacity="1" stroke-linejoin="bevel" stroke-miterlimit="10" stroke-dasharray=""/><path fill="rgb(128,128,128)" stroke="rgb(128,128,128)" paint-order="fill" d="M 538.1741943359375 162.27322387695312 A 10 10 0 0 1 518.1741943359375 162.27322387695312 A 10 10 0 0 1 538.1741943359375 162.27322387695312" fill-opacity="1" clip-path="url(#IeGDNfOVizVi)" stroke-opacity="1" stroke-linejoin="bevel" stroke-miterlimit="10" stroke-dasharray=""/><path fill="rgb(128,128,128)" stroke="rgb(128,128,128)" paint-order="fill" d="M 555.7857055664062 168.9748992919922 A 10 10 0 0 1 535.7857055664062 168.9748992919922 A 10 10 0 0 1 555.7857055664062 168.9748992919922" fill-opacity="1" clip-path="url(#IeGDNfOVizVi)" stroke-opacity="1" stroke-linejoin="bevel" stroke-miterlimit="10" stroke-dasharray=""/><path fill="rgb(128,128,128)" stroke="rgb(128,128,128)" paint-order="fill" d="M 651.375 147.03384399414062 A 10 10 0 0 1 631.375 147.03384399414062 A 10 10 0 0 1 651.375 147.03384399414062" fill-opacity="1" clip-path="url(#IeGDNfOVizVi)" stroke-opacity="1" stroke-linejoin="bevel" stroke-miterlimit="10" stroke-dasharray=""/><path fill="rgb(128,128,128)" stroke="rgb(128,128,128)" paint-order="fill" d="M 609.2991943359375 184.0853729248047 A 10 10 0 0 1 589.2991943359375 184.0853729248047 A 10 10 0 0 1 609.2991943359375 184.0853729248047" fill-opacity="1" clip-path="url(#IeGDNfOVizVi)" stroke-opacity="1" stroke-linejoin="bevel" stroke-miterlimit="10" stroke-dasharray=""/><path fill="rgb(128,128,128)" stroke="rgb(128,128,128)" paint-order="fill" d="M 650.461669921875 126.88217163085938 A 10 10 0 0 1 630.461669921875 126.88217163085938 A 10 10 0 0 1 650.461669921875 126.88217163085938" fill-opacity="1" clip-path="url(#IeGDNfOVizVi)" stroke-opacity="1" stroke-linejoin="bevel" stroke-miterlimit="10" stroke-dasharray=""/><path fill="rgb(128,128,128)" stroke="rgb(128,128,128)" paint-order="fill" d="M 715.3930053710938 112.09302520751953 A 10 10 0 0 1 695.3930053710938 112.09302520751953 A 10 10 0 0 1 715.3930053710938 112.09302520751953" fill-opacity="1" clip-path="url(#IeGDNfOVizVi)" stroke-opacity="1" stroke-linejoin="bevel" stroke-miterlimit="10" stroke-dasharray=""/><path fill="rgb(128,128,128)" stroke="rgb(128,128,128)" paint-order="fill" d="M 689.468994140625 127.69477844238281 A 10 10 0 0 1 669.468994140625 127.69477844238281 A 10 10 0 0 1 689.468994140625 127.69477844238281" fill-opacity="1" clip-path="url(#IeGDNfOVizVi)" stroke-opacity="1" stroke-linejoin="bevel" stroke-miterlimit="10" stroke-dasharray=""/><path fill="rgb(128,128,128)" stroke="rgb(128,128,128)" paint-order="fill" d="M 735.9075317382812 105.28410339355469 A 10 10 0 0 1 715.9075317382812 105.28410339355469 A 10 10 0 0 1 735.9075317382812 105.28410339355469" fill-opacity="1" clip-path="url(#IeGDNfOVizVi)" stroke-opacity="1" stroke-linejoin="bevel" stroke-miterlimit="10" stroke-dasharray=""/><path fill="rgb(128,128,128)" stroke="rgb(128,128,128)" paint-order="fill" d="M 678.7725219726562 127.60658264160156 A 10 10 0 0 1 658.7725219726562 127.60658264160156 A 10 10 0 0 1 678.7725219726562 127.60658264160156" fill-opacity="1" clip-path="url(#IeGDNfOVizVi)" stroke-opacity="1" stroke-linejoin="bevel" stroke-miterlimit="10" stroke-dasharray=""/><path fill="rgb(128,128,128)" stroke="rgb(128,128,128)" paint-order="fill" d="M 631.5313720703125 183.03709411621094 A 10 10 0 0 1 611.5313720703125 183.03709411621094 A 10 10 0 0 1 631.5313720703125 183.03709411621094" fill-opacity="1" clip-path="url(#IeGDNfOVizVi)" stroke-opacity="1" stroke-linejoin="bevel" stroke-miterlimit="10" stroke-dasharray=""/><path fill="rgb(128,128,128)" stroke="rgb(128,128,128)" paint-order="fill" d="M 680.9617919921875 134.96658325195312 A 10 10 0 0 1 660.9617919921875 134.96658325195312 A 10 10 0 0 1 680.9617919921875 134.96658325195312" fill-opacity="1" clip-path="url(#IeGDNfOVizVi)" stroke-opacity="1" stroke-linejoin="bevel" stroke-miterlimit="10" stroke-dasharray=""/><path fill="rgb(128,128,128)" stroke="rgb(128,128,128)" paint-order="fill" d="M 671.767822265625 161.3567657470703 A 10 10 0 0 1 651.767822265625 161.3567657470703 A 10 10 0 0 1 671.767822265625 161.3567657470703" fill-opacity="1" clip-path="url(#IeGDNfOVizVi)" stroke-opacity="1" stroke-linejoin="bevel" stroke-miterlimit="10" stroke-dasharray=""/><path fill="rgb(128,128,128)" stroke="rgb(128,128,128)" paint-order="fill" d="M 622.500732421875 164.44961547851562 A 10 10 0 0 1 602.500732421875 164.44961547851562 A 10 10 0 0 1 622.500732421875 164.44961547851562" fill-opacity="1" clip-path="url(#IeGDNfOVizVi)" stroke-opacity="1" stroke-linejoin="bevel" stroke-miterlimit="10" stroke-dasharray=""/><path fill="rgb(128,128,128)" stroke="rgb(128,128,128)" paint-order="fill" d="M 679.47607421875 122.23768615722656 A 10 10 0 0 1 659.47607421875 122.23768615722656 A 10 10 0 0 1 679.47607421875 122.23768615722656" fill-opacity="1" clip-path="url(#IeGDNfOVizVi)" stroke-opacity="1" stroke-linejoin="bevel" stroke-miterlimit="10" stroke-dasharray=""/><path fill="rgb(128,128,128)" stroke="rgb(128,128,128)" paint-order="fill" d="M 728.4725341796875 103.40567016601562 A 10 10 0 0 1 708.4725341796875 103.40567016601562 A 10 10 0 0 1 728.4725341796875 103.40567016601562" fill-opacity="1" clip-path="url(#IeGDNfOVizVi)" stroke-opacity="1" stroke-linejoin="bevel" stroke-miterlimit="10" stroke-dasharray=""/><path fill="rgb(128,128,128)" stroke="rgb(128,128,128)" paint-order="fill" d="M 646.9021606445312 167.16224670410156 A 10 10 0 0 1 626.9021606445312 167.16224670410156 A 10 10 0 0 1 646.9021606445312 167.16224670410156" fill-opacity="1" clip-path="url(#IeGDNfOVizVi)" stroke-opacity="1" stroke-linejoin="bevel" stroke-miterlimit="10" stroke-dasharray=""/><path fill="rgb(128,128,128)" stroke="rgb(128,128,128)" paint-order="fill" d="M 679.9424438476562 110.45848846435547 A 10 10 0 0 1 659.9424438476562 110.45848846435547 A 10 10 0 0 1 679.9424438476562 110.45848846435547" fill-opacity="1" clip-path="url(#IeGDNfOVizVi)" stroke-opacity="1" stroke-linejoin="bevel" stroke-miterlimit="10" stroke-dasharray=""/><path fill="rgb(128,128,128)" stroke="rgb(128,128,128)" paint-order="fill" d="M 628.6410522460938 192.28392028808594 A 10 10 0 0 1 608.6410522460938 192.28392028808594 A 10 10 0 0 1 628.6410522460938 192.28392028808594" fill-opacity="1" clip-path="url(#IeGDNfOVizVi)" stroke-opacity="1" stroke-linejoin="bevel" stroke-miterlimit="10" stroke-dasharray=""/><path fill="rgb(128,128,128)" stroke="rgb(128,128,128)" paint-order="fill" d="M 691.4232177734375 166.0145263671875 A 10 10 0 0 1 671.4232177734375 166.0145263671875 A 10 10 0 0 1 691.4232177734375 166.0145263671875" fill-opacity="1" clip-path="url(#IeGDNfOVizVi)" stroke-opacity="1" stroke-linejoin="bevel" stroke-miterlimit="10" stroke-dasharray=""/><path fill="rgb(128,128,128)" stroke="rgb(128,128,128)" paint-order="fill" d="M 749.4384155273438 198.85272216796875 A 10 10 0 0 1 729.4384155273438 198.85272216796875 A 10 10 0 0 1 749.4384155273438 198.85272216796875" fill-opacity="1" clip-path="url(#IeGDNfOVizVi)" stroke-opacity="1" stroke-linejoin="bevel" stroke-miterlimit="10" stroke-dasharray=""/><path fill="rgb(128,128,128)" stroke="rgb(128,128,128)" paint-order="fill" d="M 629.2670288085938 208.76174926757812 A 10 10 0 0 1 609.2670288085938 208.76174926757812 A 10 10 0 0 1 629.2670288085938 208.76174926757812" fill-opacity="1" clip-path="url(#IeGDNfOVizVi)" stroke-opacity="1" stroke-linejoin="bevel" stroke-miterlimit="10" stroke-dasharray=""/><path fill="rgb(128,128,128)" stroke="rgb(128,128,128)" paint-order="fill" d="M 631.0380859375 287.572265625 A 10 10 0 0 1 611.0380859375 287.572265625 A 10 10 0 0 1 631.0380859375 287.572265625" fill-opacity="1" clip-path="url(#IeGDNfOVizVi)" stroke-opacity="1" stroke-linejoin="bevel" stroke-miterlimit="10" stroke-dasharray=""/><path fill="rgb(128,128,128)" stroke="rgb(128,128,128)" paint-order="fill" d="M 597.3682250976562 216.47625732421875 A 10 10 0 0 1 577.3682250976562 216.47625732421875 A 10 10 0 0 1 597.3682250976562 216.47625732421875" fill-opacity="1" clip-path="url(#IeGDNfOVizVi)" stroke-opacity="1" stroke-linejoin="bevel" stroke-miterlimit="10" stroke-dasharray=""/><path fill="rgb(128,128,128)" stroke="rgb(128,128,128)" paint-order="fill" d="M 583.3700561523438 247.05670166015625 A 10 10 0 0 1 563.3700561523438 247.05670166015625 A 10 10 0 0 1 583.3700561523438 247.05670166015625" fill-opacity="1" clip-path="url(#IeGDNfOVizVi)" stroke-opacity="1" stroke-linejoin="bevel" stroke-miterlimit="10" stroke-dasharray=""/><path fill="rgb(128,128,128)" stroke="rgb(128,128,128)" paint-order="fill" d="M 764.1572265625 78.49764251708984 A 10 10 0 0 1 744.1572265625 78.49764251708984 A 10 10 0 0 1 764.1572265625 78.49764251708984" fill-opacity="1" clip-path="url(#IeGDNfOVizVi)" stroke-opacity="1" stroke-linejoin="bevel" stroke-miterlimit="10" stroke-dasharray=""/><path fill="rgb(128,128,128)" stroke="rgb(128,128,128)" paint-order="fill" d="M 566.6490478515625 244.06849670410156 A 10 10 0 0 1 546.6490478515625 244.06849670410156 A 10 10 0 0 1 566.6490478515625 244.06849670410156" fill-opacity="1" clip-path="url(#IeGDNfOVizVi)" stroke-opacity="1" stroke-linejoin="bevel" stroke-miterlimit="10" stroke-dasharray=""/><path fill="rgb(128,128,128)" stroke="rgb(128,128,128)" paint-order="fill" d="M 607.2311401367188 309.3711242675781 A 10 10 0 0 1 587.2311401367188 309.3711242675781 A 10 10 0 0 1 607.2311401367188 309.3711242675781" fill-opacity="1" clip-path="url(#IeGDNfOVizVi)" stroke-opacity="1" stroke-linejoin="bevel" stroke-miterlimit="10" stroke-dasharray=""/><path fill="rgb(128,128,128)" stroke="rgb(128,128,128)" paint-order="fill" d="M 144.6454315185547 662.6495971679688 A 10 10 0 0 1 124.64543151855469 662.6495971679688 A 10 10 0 0 1 144.6454315185547 662.6495971679688" fill-opacity="1" clip-path="url(#IeGDNfOVizVi)" stroke-opacity="1" stroke-linejoin="bevel" stroke-miterlimit="10" stroke-dasharray=""/><path fill="rgb(128,128,128)" stroke="rgb(128,128,128)" paint-order="fill" d="M 176.4736785888672 686.9747924804688 A 10 10 0 0 1 156.4736785888672 686.9747924804688 A 10 10 0 0 1 176.4736785888672 686.9747924804688" fill-opacity="1" clip-path="url(#IeGDNfOVizVi)" stroke-opacity="1" stroke-linejoin="bevel" stroke-miterlimit="10" stroke-dasharray=""/><path fill="rgb(128,128,128)" stroke="rgb(128,128,128)" paint-order="fill" d="M 308.7706604003906 586.0845336914062 A 10 10 0 0 1 288.7706604003906 586.0845336914062 A 10 10 0 0 1 308.7706604003906 586.0845336914062" fill-opacity="1" clip-path="url(#IeGDNfOVizVi)" stroke-opacity="1" stroke-linejoin="bevel" stroke-miterlimit="10" stroke-dasharray=""/><path fill="rgb(128,128,128)" stroke="rgb(128,128,128)" paint-order="fill" d="M 152.94805908203125 634.3333740234375 A 10 10 0 0 1 132.94805908203125 634.3333740234375 A 10 10 0 0 1 152.94805908203125 634.3333740234375" fill-opacity="1" clip-path="url(#IeGDNfOVizVi)" stroke-opacity="1" stroke-linejoin="bevel" stroke-miterlimit="10" stroke-dasharray=""/><path fill="rgb(128,128,128)" stroke="rgb(128,128,128)" paint-order="fill" d="M 122.86042022705078 709.6573486328125 A 10 10 0 0 1 102.86042022705078 709.6573486328125 A 10 10 0 0 1 122.86042022705078 709.6573486328125" fill-opacity="1" clip-path="url(#IeGDNfOVizVi)" stroke-opacity="1" stroke-linejoin="bevel" stroke-miterlimit="10" stroke-dasharray=""/><path fill="rgb(128,128,128)" stroke="rgb(128,128,128)" paint-order="fill" d="M 164.22364807128906 679.4530029296875 A 10 10 0 0 1 144.22364807128906 679.4530029296875 A 10 10 0 0 1 164.22364807128906 679.4530029296875" fill-opacity="1" clip-path="url(#IeGDNfOVizVi)" stroke-opacity="1" stroke-linejoin="bevel" stroke-miterlimit="10" stroke-dasharray=""/><path fill="rgb(128,128,128)" stroke="rgb(128,128,128)" paint-order="fill" d="M 195.78794860839844 684.209716796875 A 10 10 0 0 1 175.78794860839844 684.209716796875 A 10 10 0 0 1 195.78794860839844 684.209716796875" fill-opacity="1" clip-path="url(#IeGDNfOVizVi)" stroke-opacity="1" stroke-linejoin="bevel" stroke-miterlimit="10" stroke-dasharray=""/><path fill="rgb(128,128,128)" stroke="rgb(128,128,128)" paint-order="fill" d="M 178.4042205810547 672.9750366210938 A 10 10 0 0 1 158.4042205810547 672.9750366210938 A 10 10 0 0 1 178.4042205810547 672.9750366210938" fill-opacity="1" clip-path="url(#IeGDNfOVizVi)" stroke-opacity="1" stroke-linejoin="bevel" stroke-miterlimit="10" stroke-dasharray=""/><path fill="rgb(128,128,128)" stroke="rgb(128,128,128)" paint-order="fill" d="M 364.798095703125 565.8167724609375 A 10 10 0 0 1 344.798095703125 565.8167724609375 A 10 10 0 0 1 364.798095703125 565.8167724609375" fill-opacity="1" clip-path="url(#IeGDNfOVizVi)" stroke-opacity="1" stroke-linejoin="bevel" stroke-miterlimit="10" stroke-dasharray=""/><path fill="rgb(128,128,128)" stroke="rgb(128,128,128)" paint-order="fill" d="M 130.9967498779297 680.3077392578125 A 10 10 0 0 1 110.99674987792969 680.3077392578125 A 10 10 0 0 1 130.9967498779297 680.3077392578125" fill-opacity="1" clip-path="url(#IeGDNfOVizVi)" stroke-opacity="1" stroke-linejoin="bevel" stroke-miterlimit="10" stroke-dasharray=""/><path fill="rgb(128,128,128)" stroke="rgb(128,128,128)" paint-order="fill" d="M 165.65643310546875 680.0401611328125 A 10 10 0 0 1 145.65643310546875 680.0401611328125 A 10 10 0 0 1 165.65643310546875 680.0401611328125" fill-opacity="1" clip-path="url(#IeGDNfOVizVi)" stroke-opacity="1" stroke-linejoin="bevel" stroke-miterlimit="10" stroke-dasharray=""/><path fill="rgb(128,128,128)" stroke="rgb(128,128,128)" paint-order="fill" d="M 128.40835571289062 697.0941162109375 A 10 10 0 0 1 108.40835571289062 697.0941162109375 A 10 10 0 0 1 128.40835571289062 697.0941162109375" fill-opacity="1" clip-path="url(#IeGDNfOVizVi)" stroke-opacity="1" stroke-linejoin="bevel" stroke-miterlimit="10" stroke-dasharray=""/><path fill="rgb(128,128,128)" stroke="rgb(128,128,128)" paint-order="fill" d="M 202.5527801513672 690.8683471679688 A 10 10 0 0 1 182.5527801513672 690.8683471679688 A 10 10 0 0 1 202.5527801513672 690.8683471679688" fill-opacity="1" clip-path="url(#IeGDNfOVizVi)" stroke-opacity="1" stroke-linejoin="bevel" stroke-miterlimit="10" stroke-dasharray=""/><path fill="rgb(128,128,128)" stroke="rgb(128,128,128)" paint-order="fill" d="M 165.3206024169922 708.6366577148438 A 10 10 0 0 1 145.3206024169922 708.6366577148438 A 10 10 0 0 1 165.3206024169922 708.6366577148438" fill-opacity="1" clip-path="url(#IeGDNfOVizVi)" stroke-opacity="1" stroke-linejoin="bevel" stroke-miterlimit="10" stroke-dasharray=""/><path fill="rgb(128,128,128)" stroke="rgb(128,128,128)" paint-order="fill" d="M 198.4791259765625 690.8683471679688 A 10 10 0 0 1 178.4791259765625 690.8683471679688 A 10 10 0 0 1 198.4791259765625 690.8683471679688" fill-opacity="1" clip-path="url(#IeGDNfOVizVi)" stroke-opacity="1" stroke-linejoin="bevel" stroke-miterlimit="10" stroke-dasharray=""/><path fill="rgb(128,128,128)" stroke="rgb(128,128,128)" paint-order="fill" d="M 248.75204467773438 631.9993896484375 A 10 10 0 0 1 228.75204467773438 631.9993896484375 A 10 10 0 0 1 248.75204467773438 631.9993896484375" fill-opacity="1" clip-path="url(#IeGDNfOVizVi)" stroke-opacity="1" stroke-linejoin="bevel" stroke-miterlimit="10" stroke-dasharray=""/><path fill="rgb(128,128,128)" stroke="rgb(128,128,128)" paint-order="fill" d="M 393.2214660644531 408.5156555175781 A 10 10 0 0 1 373.2214660644531 408.5156555175781 A 10 10 0 0 1 393.2214660644531 408.5156555175781" fill-opacity="1" clip-path="url(#IeGDNfOVizVi)" stroke-opacity="1" stroke-linejoin="bevel" stroke-miterlimit="10" stroke-dasharray=""/><path fill="rgb(128,128,128)" stroke="rgb(128,128,128)" paint-order="fill" d="M 151.38128662109375 696.0302124023438 A 10 10 0 0 1 131.38128662109375 696.0302124023438 A 10 10 0 0 1 151.38128662109375 696.0302124023438" fill-opacity="1" clip-path="url(#IeGDNfOVizVi)" stroke-opacity="1" stroke-linejoin="bevel" stroke-miterlimit="10" stroke-dasharray=""/><path fill="rgb(128,128,128)" stroke="rgb(128,128,128)" paint-order="fill" d="M 130.56859588623047 674.2091674804688 A 10 10 0 0 1 110.56859588623047 674.2091674804688 A 10 10 0 0 1 130.56859588623047 674.2091674804688" fill-opacity="1" clip-path="url(#IeGDNfOVizVi)" stroke-opacity="1" stroke-linejoin="bevel" stroke-miterlimit="10" stroke-dasharray=""/><path fill="rgb(128,128,128)" stroke="rgb(128,128,128)" paint-order="fill" d="M 160.09886169433594 691.7844848632812 A 10 10 0 0 1 140.09886169433594 691.7844848632812 A 10 10 0 0 1 160.09886169433594 691.7844848632812" fill-opacity="1" clip-path="url(#IeGDNfOVizVi)" stroke-opacity="1" stroke-linejoin="bevel" stroke-miterlimit="10" stroke-dasharray=""/><path fill="rgb(128,128,128)" stroke="rgb(128,128,128)" paint-order="fill" d="M 165.57254028320312 697.7476806640625 A 10 10 0 0 1 145.57254028320312 697.7476806640625 A 10 10 0 0 1 165.57254028320312 697.7476806640625" fill-opacity="1" clip-path="url(#IeGDNfOVizVi)" stroke-opacity="1" stroke-linejoin="bevel" stroke-miterlimit="10" stroke-dasharray=""/><path fill="rgb(128,128,128)" stroke="rgb(128,128,128)" paint-order="fill" d="M 234.82745361328125 560.0863037109375 A 10 10 0 0 1 214.82745361328125 560.0863037109375 A 10 10 0 0 1 234.82745361328125 560.0863037109375" fill-opacity="1" clip-path="url(#IeGDNfOVizVi)" stroke-opacity="1" stroke-linejoin="bevel" stroke-miterlimit="10" stroke-dasharray=""/><path fill="rgb(128,128,128)" stroke="rgb(128,128,128)" paint-order="fill" d="M 143.76846313476562 740.917724609375 A 10 10 0 0 1 123.76846313476562 740.917724609375 A 10 10 0 0 1 143.76846313476562 740.917724609375" fill-opacity="1" clip-path="url(#IeGDNfOVizVi)" stroke-opacity="1" stroke-linejoin="bevel" stroke-miterlimit="10" stroke-dasharray=""/><path fill="rgb(128,128,128)" stroke="rgb(128,128,128)" paint-order="fill" d="M 644.0382690429688 147.4036102294922 A 10 10 0 0 1 624.0382690429688 147.4036102294922 A 10 10 0 0 1 644.0382690429688 147.4036102294922" fill-opacity="1" clip-path="url(#IeGDNfOVizVi)" stroke-opacity="1" stroke-linejoin="bevel" stroke-miterlimit="10" stroke-dasharray=""/><path fill="none" stroke="rgb(0,0,0)" paint-order="fill" d="M 89.16364288330078 564.11376953125 L 95.0503921508789 558.2404174804688 L 100.21060180664062 553.0916748046875 L 103.14694213867188 550.1616821289062 L 111.9524154663086 541.3746948242188 L 112.86042022705078 540.468505859375 L 115.10550689697266 538.2279663085938 L 118.40835571289062 534.9317016601562 L 118.62586212158203 534.714599609375 L 120.35403442382812 532.9898071289062 L 120.46135711669922 532.8826904296875 L 120.56859588623047 532.7756958007812 L 120.99674987792969 532.348388671875 L 121.5301513671875 531.8159790039062 L 122.16761016845703 531.1797485351562 L 125.20919799804688 528.1439819335938 L 125.62369537353516 527.7302856445312 L 125.93377685546875 527.4207763671875 L 133.76846313476562 519.6004638671875 L 134.3537139892578 519.0162353515625 L 134.6454315185547 518.7250366210938 L 137.2445068359375 516.1305541992188 L 141.38128662109375 512.0008850097656 L 142.94805908203125 510.436767578125 L 148.0793914794922 505.31390380859375 L 148.4326629638672 504.961181640625 L 149.4872589111328 503.9082946777344 L 150.09886169433594 503.29766845703125 L 152.86190795898438 500.5389709472656 L 153.11822509765625 500.2830505371094 L 153.2035675048828 500.1978759765625 L 153.4592742919922 499.94256591796875 L 154.22364807128906 499.1793518066406 L 155.1523895263672 498.2520446777344 L 155.3206024169922 498.0841064453125 L 155.57254028320312 497.8325500488281 L 155.65643310546875 497.748779296875 L 155.65643310546875 497.748779296875 L 155.99147033691406 497.41424560546875 L 159.05397033691406 494.35638427734375 L 162.69227600097656 490.723388671875 L 164.59547424316406 488.82293701171875 L 166.24024963378906 487.18048095703125 L 166.4736785888672 486.9473876953125 L 167.01686096191406 486.40496826171875 L 168.4042205810547 485.01953125 L 173.4530487060547 479.9775085449219 L 173.52706909179688 479.9035949707031 L 176.16659545898438 477.2674865722656 L 181.65370178222656 471.7872619628906 L 183.6668701171875 469.77655029296875 L 183.73577880859375 469.70770263671875 L 185.78794860839844 467.657958984375 L 187.8780059814453 465.5703430175781 L 188.4791259765625 464.96990966796875 L 188.4791259765625 464.96990966796875 L 190.06982421875 463.3810119628906 L 192.5527801513672 460.9007873535156 L 205.7240753173828 447.74285888671875 L 209.8578643798828 443.61285400390625 L 216.693115234375 436.78338623046875 L 219.34896850585938 434.129638671875 L 224.82745361328125 428.65521240234375 L 238.75204467773438 414.7393798828125 L 240.56884765625 412.92352294921875 L 249.19107055664062 404.3053894042969 L 250.9667510986328 402.5304260253906 L 272.98211669921875 380.5210266113281 L 273.49774169921875 380.0054931640625 L 278.5185241699219 374.9852294921875 L 298.7706604003906 354.7321472167969 L 301.24420166015625 352.2581787109375 L 316.4512023925781 337.0468444824219 L 320.7410888671875 332.7552185058594 L 333.7831726074219 319.7065734863281 L 349.3250427246094 304.15423583984375 L 354.798095703125 298.67681884765625 L 383.2214660644531 270.22509765625 L 388.24945068359375 265.19110107421875 L 426.7616882324219 226.62289428710938 L 444.8822021484375 208.469970703125 L 523.201904296875 129.9656524658203 L 525.2242431640625 127.93759155273438 L 528.1741943359375 124.979248046875 L 529.31396484375 123.83615112304688 L 545.7857055664062 107.3152084350586 L 548.9387817382812 104.15234375 L 556.6490478515625 96.41764831542969 L 560.5238647460938 92.53030395507812 L 563.1871337890625 89.8582992553711 L 571.6692504882812 81.34786987304688 L 572.7420043945312 80.27151489257812 L 573.3700561523438 79.64131927490234 L 579.6630859375 73.32662963867188 L 581.7870483398438 71.19519805908203 L 587.3682250976562 65.59430694580078 L 597.2311401367188 55.69554138183594 L 599.2991943359375 53.61984634399414 L 599.8621215820312 53.054813385009766 L 599.9557495117188 52.96085739135742 L 600.318359375 52.596885681152344 L 602.4529418945312 50.45436477661133 L 612.500732421875 40.36829376220703 L 618.3748168945312 34.471317291259766 L 618.6410522460938 34.2039909362793 L 619.2670288085938 33.575592041015625 L 620.8377075195312 31.998659133911133 L 621.0380859375 31.797483444213867 L 621.1607666015625 31.6743221282959 L 621.5313720703125 31.30223846435547 L 621.9556274414062 30.87633514404297 L 622.3753662109375 30.45490074157715 L 623.2557373046875 29.571022033691406 L 623.8269653320312 28.997493743896484 L 624.1781005859375 28.644954681396484 L 624.9249877929688 27.89512062072754 L 625.1385498046875 27.68069839477539 L 625.3580322265625 27.460302352905273 L 626.4848022460938 26.329030990600586 L 627.901611328125 24.906484603881836 L 627.9385375976562 24.869401931762695 L 627.978515625 24.829238891601562 L 628.843505859375 23.960765838623047 L 629.2587890625 23.54379653930664 L 632.0427856445312 20.748451232910156 L 633.379150390625 19.406597137451172 L 633.7194213867188 19.06492042541504 L 634.0382690429688 18.744779586791992 L 634.4063720703125 18.37513542175293 L 634.4799194335938 18.301319122314453 L 634.7852783203125 17.99465560913086 L 634.893798828125 17.885711669921875 L 636.5230102539062 16.249740600585938 L 636.9021606445312 15.869034767150879 L 636.907958984375 15.863229751586914 L 637.4214477539062 15.347565650939941 L 637.4301147460938 15.338890075683594 L 639.8032836914062 12.955815315246582 L 640.461669921875 12.294668197631836 L 640.6251220703125 12.130562782287598 L 640.6588745117188 12.096632957458496 L 641.375 11.377517700195312 L 641.6240844726562 11.127376556396484 L 643.4716796875 9.271998405456543 L 643.5158081054688 9.227651596069336 L 644.0831909179688 8.657902717590332 L 644.173828125 8.566842079162598 L 646.4114379882812 6.31973123550415 L 648.8141479492188 3.906777858734131 L 653.2208251953125 -0.5189279317855835 L 653.2723999023438 -0.5707104206085205 L 653.61474609375 -0.9145896434783936 L 655.1747436523438 -2.4813268184661865 L 661.767822265625 -9.103466033935547 L 662.8228149414062 -10.163164138793945 L 664.957275390625 -12.307134628295898 L 665.7814331054688 -13.134978294372559 L 668.7725219726562 -16.139556884765625 L 669.47607421875 -16.846323013305664 L 669.9424438476562 -17.314809799194336 L 670.9617919921875 -18.33876609802246 L 679.468994140625 -26.88507652282715 L 681.4232177734375 -28.848390579223633 L 691.8963623046875 -39.37113571166992 L 693.6441650390625 -41.12730026245117 L 705.3930053710938 -52.93350601196289 L 718.4725341796875 -66.0787124633789 L 725.9075317382812 -73.55199432373047 L 737.2512817382812 -84.95530700683594 L 739.4384155273438 -87.15409088134766 L 754.1572265625 -101.9527816772461 L 765.3239135742188 -113.18177795410156" stroke-opacity="1" stroke-linejoin="bevel" stroke-miterlimit="10" stroke-width="3" stroke-dasharray="6" clip-path="url(#aNGoHoHIluJa)"/><path fill="none" stroke="rgb(0,0,0)" paint-order="fill" d="M 89.16364288330078 859.5589599609375 L 95.0503921508789 853.6587524414062 L 100.21060180664062 848.4871215820312 L 103.14694213867188 845.54443359375 L 111.9524154663086 836.720458984375 L 112.86042022705078 835.8106079101562 L 115.10550689697266 833.5609741210938 L 118.40835571289062 830.2515869140625 L 118.62586212158203 830.0336303710938 L 120.35403442382812 828.3021240234375 L 120.46135711669922 828.194580078125 L 120.56859588623047 828.0870971679688 L 120.99674987792969 827.6581420898438 L 121.5301513671875 827.1237182617188 L 122.16761016845703 826.4849853515625 L 125.20919799804688 823.4376220703125 L 125.62369537353516 823.0223388671875 L 125.93377685546875 822.711669921875 L 133.76846313476562 814.8626098632812 L 134.3537139892578 814.2763061523438 L 134.6454315185547 813.9840698242188 L 137.2445068359375 811.3804321289062 L 141.38128662109375 807.2365112304688 L 142.94805908203125 805.6671142578125 L 148.0793914794922 800.52734375 L 148.4326629638672 800.1734619140625 L 149.4872589111328 799.1171875 L 150.09886169433594 798.5045776367188 L 152.86190795898438 795.7371826171875 L 153.11822509765625 795.48046875 L 153.2035675048828 795.39501953125 L 153.4592742919922 795.138916015625 L 154.22364807128906 794.3733520507812 L 155.1523895263672 793.4431762695312 L 155.3206024169922 793.2747192382812 L 155.57254028320312 793.0223999023438 L 155.65643310546875 792.9383544921875 L 155.65643310546875 792.9383544921875 L 155.99147033691406 792.602783203125 L 159.05397033691406 789.5357055664062 L 162.69227600097656 785.8920288085938 L 164.59547424316406 783.986083984375 L 166.24024963378906 782.3390502929688 L 166.4736785888672 782.1052856445312 L 167.01686096191406 781.5613403320312 L 168.4042205810547 780.1720581054688 L 173.4530487060547 775.1163940429688 L 173.52706909179688 775.0422973632812 L 176.16659545898438 772.3993530273438 L 181.65370178222656 766.9053344726562 L 183.6668701171875 764.8897094726562 L 183.73577880859375 764.8207397460938 L 185.78794860839844 762.76611328125 L 187.8780059814453 760.6736450195312 L 188.4791259765625 760.0718383789062 L 188.4791259765625 760.0718383789062 L 190.06982421875 758.4793701171875 L 192.5527801513672 755.99365234375 L 205.7240753173828 742.8090209960938 L 209.8578643798828 738.6714477539062 L 216.693115234375 731.8303833007812 L 219.34896850585938 729.1724243164062 L 224.82745361328125 723.6898803710938 L 238.75204467773438 709.7565307617188 L 240.56884765625 707.9387817382812 L 249.19107055664062 699.3124389648438 L 250.9667510986328 697.5360717773438 L 272.98211669921875 675.5147094726562 L 273.49774169921875 674.9990844726562 L 278.5185241699219 669.977783203125 L 298.7706604003906 649.7265625 L 301.24420166015625 647.25341796875 L 316.4512023925781 632.05078125 L 320.7410888671875 627.7625732421875 L 333.7831726074219 614.7271118164062 L 349.3250427246094 599.1956787109375 L 354.798095703125 593.7269897460938 L 383.2214660644531 565.3319702148438 L 388.24945068359375 560.3099975585938 L 426.7616882324219 521.8536987304688 L 444.8822021484375 503.7655944824219 L 523.201904296875 425.6305236816406 L 525.2242431640625 423.6138916015625 L 528.1741943359375 420.67242431640625 L 529.31396484375 419.5359191894531 L 545.7857055664062 403.1133728027344 L 548.9387817382812 399.9700927734375 L 556.6490478515625 392.2842102050781 L 560.5238647460938 388.42193603515625 L 563.1871337890625 385.7673645019531 L 571.6692504882812 377.3135681152344 L 572.7420043945312 376.2445068359375 L 573.3700561523438 375.61859130859375 L 579.6630859375 369.3472595214844 L 581.7870483398438 367.2306823730469 L 587.3682250976562 361.6692810058594 L 597.2311401367188 351.8421325683594 L 599.2991943359375 349.78173828125 L 599.8621215820312 349.22088623046875 L 599.9557495117188 349.12762451171875 L 600.318359375 348.766357421875 L 602.4529418945312 346.6398010253906 L 612.500732421875 336.6302490234375 L 618.3748168945312 330.7790832519531 L 618.6410522460938 330.51385498046875 L 619.2670288085938 329.8904113769531 L 620.8377075195312 328.3258972167969 L 621.0380859375 328.1263122558594 L 621.1607666015625 328.0041198730469 L 621.5313720703125 327.6349792480469 L 621.9556274414062 327.2124328613281 L 622.3753662109375 326.7943420410156 L 623.2557373046875 325.91748046875 L 623.8269653320312 325.3485107421875 L 624.1781005859375 324.9988098144531 L 624.9249877929688 324.25494384765625 L 625.1385498046875 324.042236328125 L 625.3580322265625 323.8236083984375 L 626.4848022460938 322.7013854980469 L 627.901611328125 321.290283203125 L 627.9385375976562 321.2535095214844 L 627.978515625 321.21368408203125 L 628.843505859375 320.3522033691406 L 629.2587890625 319.9386291503906 L 632.0427856445312 317.1659851074219 L 633.379150390625 315.8350830078125 L 633.7194213867188 315.4962158203125 L 634.0382690429688 315.1787109375 L 634.4063720703125 314.81207275390625 L 634.4799194335938 314.7388916015625 L 634.7852783203125 314.4347229003906 L 634.893798828125 314.3266906738281 L 636.5230102539062 312.7041931152344 L 636.9021606445312 312.3266296386719 L 636.907958984375 312.3208923339844 L 637.4214477539062 311.8094787597656 L 637.4301147460938 311.8008728027344 L 639.8032836914062 309.4376220703125 L 640.461669921875 308.781982421875 L 640.6251220703125 308.6192321777344 L 640.6588745117188 308.5856018066406 L 641.375 307.87249755859375 L 641.6240844726562 307.62445068359375 L 643.4716796875 305.78466796875 L 643.5158081054688 305.7406921386719 L 644.0831909179688 305.1757507324219 L 644.173828125 305.08544921875 L 646.4114379882812 302.85736083984375 L 648.8141479492188 300.4649353027344 L 653.2208251953125 296.0772705078125 L 653.2723999023438 296.02593994140625 L 653.61474609375 295.68505859375 L 655.1747436523438 294.13189697265625 L 661.767822265625 287.56781005859375 L 662.8228149414062 286.51751708984375 L 664.957275390625 284.3926086425781 L 665.7814331054688 283.5721435546875 L 668.7725219726562 280.59454345703125 L 669.47607421875 279.8941345214844 L 669.9424438476562 279.42987060546875 L 670.9617919921875 278.4151916503906 L 679.468994140625 269.9471130371094 L 681.4232177734375 268.00201416015625 L 691.8963623046875 257.578369140625 L 693.6441650390625 255.8389892578125 L 705.3930053710938 244.1474609375 L 718.4725341796875 231.13369750976562 L 725.9075317382812 223.73690795898438 L 737.2512817382812 212.4527587890625 L 739.4384155273438 210.2772979736328 L 754.1572265625 195.6383819580078 L 765.3239135742188 184.53396606445312" stroke-opacity="1" stroke-linejoin="bevel" stroke-miterlimit="10" stroke-width="3" stroke-dasharray="6" clip-path="url(#ICvumKdUFCET)"/><path fill="none" stroke="rgb(0,0,0)" paint-order="fill" d="M 6.5 794.5 L 795.5 794.5" stroke-opacity="1" stroke-linejoin="bevel" stroke-miterlimit="10" stroke-dasharray=""/><path fill="none" stroke="rgb(0,0,0)" paint-order="fill" d="M 79.5 800.5 L 79.5 792.5 M 408.5 800.5 L 408.5 792.5 M 737.5 800.5 L 737.5 792.5" stroke-opacity="1" stroke-linejoin="bevel" stroke-miterlimit="10" stroke-dasharray=""/><text fill="rgb(68,68,68)" stroke="none" font-family="helvetica" font-size="0pt" font-style="normal" font-weight="normal" text-decoration="normal" x="78.99542999267578" y="805" text-anchor="start" dominant-baseline="alphabetic" transform="matrix(1, 0, 0, 1, 0.5, 0.5)" fill-opacity="1">6.215</text><text fill="rgb(68,68,68)" stroke="none" font-family="helvetica" font-size="0pt" font-style="normal" font-weight="normal" text-decoration="normal" x="408.0278625488281" y="805" text-anchor="start" dominant-baseline="alphabetic" transform="matrix(1, 0, 0, 1, 0.5, 0.5)" fill-opacity="1">8.517</text><text fill="rgb(68,68,68)" stroke="none" font-family="helvetica" font-size="0pt" font-style="normal" font-weight="normal" text-decoration="normal" x="737.0602416992188" y="805" text-anchor="start" dominant-baseline="alphabetic" transform="matrix(1, 0, 0, 1, 0.5, 0.5)" fill-opacity="1">10.82</text><path fill="none" stroke="rgb(0,0,0)" paint-order="fill" d="M 6.5 794.5 L 6.5 5.5" stroke-opacity="1" stroke-linejoin="bevel" stroke-miterlimit="10" stroke-dasharray=""/><path fill="none" stroke="rgb(0,0,0)" paint-order="fill" d="M 0.5 721.5 L 8.5 721.5 M 0.5 392.5 L 8.5 392.5 M 0.5 63.5 L 8.5 63.5" stroke-opacity="1" stroke-linejoin="bevel" stroke-miterlimit="10" stroke-dasharray=""/><text fill="rgb(68,68,68)" stroke="none" font-family="helvetica" font-size="0pt" font-style="normal" font-weight="normal" text-decoration="normal" x="-5" y="721.0045776367188" text-anchor="start" dominant-baseline="alphabetic" transform="matrix(1, 0, 0, 1, 0.5, 0.5)" fill-opacity="1">6.215</text><text fill="rgb(68,68,68)" stroke="none" font-family="helvetica" font-size="0pt" font-style="normal" font-weight="normal" text-decoration="normal" x="-5" y="391.9721374511719" text-anchor="start" dominant-baseline="alphabetic" transform="matrix(1, 0, 0, 1, 0.5, 0.5)" fill-opacity="1">8.517</text><text fill="rgb(68,68,68)" stroke="none" font-family="helvetica" font-size="0pt" font-style="normal" font-weight="normal" text-decoration="normal" x="-5" y="62.93973159790039" text-anchor="start" dominant-baseline="alphabetic" transform="matrix(1, 0, 0, 1, 0.5, 0.5)" fill-opacity="1">10.82</text></svg>