<svg version="1.1" xmlns="http://www.w3.org/2000/svg" width="600" height="230"><defs><clipPath id="virPDTHfZkiC"><path fill="none" stroke="none" d="M 6.5 5.5 L 145.5 5.5 L 145.5 194.5 L 6.5 194.5 L 6.5 5.5"/></clipPath><clipPath id="wvdXHeWpXpFW"><path fill="none" stroke="none" d="M 6.5 5.5 L 145.5 5.5 L 145.5 194.5 L 6.5 194.5 L 6.5 5.5"/></clipPath><clipPath id="OZESAZdqEidr"><path fill="none" stroke="none" d="M 6.5 5.5 L 145.5 5.5 L 145.5 194.5 L 6.5 194.5 L 6.5 5.5"/></clipPath><clipPath id="KQEogRhAPaNi"><path fill="none" stroke="none" d="M 6.5 5.5 L 145.5 5.5 L 145.5 194.5 L 6.5 194.5 L 6.5 5.5"/></clipPath><clipPath id="kBTOfpwDgNDk"><path fill="none" stroke="none" d="M 6.5 5.5 L 145.5 5.5 L 145.5 194.5 L 6.5 194.5 L 6.5 5.5"/></clipPath><clipPath id="qeKPRVsZMszV"><path fill="none" stroke="none" d="M 6.5 5.5 L 145.5 5.5 L 145.5 194.5 L 6.5 194.5 L 6.5 5.5"/></clipPath><clipPath id="IWopSFClheNo"><path fill="none" stroke="none" d="M 6.5 5.5 L 145.5 5.5 L 145.5 194.5 L 6.5 194.5 L 6.5 5.5"/></clipPath><clipPath id="zgDrmgpovgEk"><path fill="none" stroke="none" d="M 6.5 5.5 L 145.5 5.5 L 145.5 194.5 L 6.5 194.5 L 6.5 5.5"/></clipPath><clipPath id="trQIgMvFRrzV"><path fill="none" stroke="none" d="M 6.5 5.5 L 145.5 5.5 L 145.5 194.5 L 6.5 194.5 L 6.5 5.5"/></clipPath><clipPath id="vpWKoPJKwPZL"><path fill="none" stroke="none" d="M 6.5 5.5 L 145.5 5.5 L 145.5 194.5 L 6.5 194.5 L 6.5 5.5"/></clipPath><clipPath id="DfdFaovZegSC"><path fill="none" stroke="none" d="M 6.5 5.5 L 145.5 5.5 L 145.5 194.5 L 6.5 194.5 L 6.5 5.5"/></clipPath><clipPath id="ZPqyIMvJLQlO"><path fill="none" stroke="none" d="M 6.5 5.5 L 145.5 5.5 L 145.5 194.5 L 6.5 194.5 L 6.5 5.5"/></clipPath><clipPath id="RNnkKyeVTxpL"><path fill="none" stroke="none" d="M 6.5 5.5 L 145.5 5.5 L 145.5 194.5 L 6.5 194.5 L 6.5 5.5"/></clipPath><clipPath id="xROAdIeiWdPM"><path fill="none" stroke="none" d="M 6.5 5.5 L 145.5 5.5 L 145.5 194.5 L 6.5 194.5 L 6.5 5.5"/></clipPath><clipPath id="pmHJPxtTzUUp"><path fill="none" stroke="none" d="M 6.5 5.5 L 145.5 5.5 L 145.5 194.5 L 6.5 194.5 L 6.5 5.5"/></clipPath><clipPath id="EuuEyMiLFNIJ"><path fill="none" stroke="none" d="M 6.5 5.5 L 145.5 5.5 L 145.5 194.5 L 6.5 194.5 L 6.5 5.5"/></clipPath><clipPath id="fNltObARCEUB"><path fill="none" stroke="none" d="M 6.5 5.5 L 145.5 5.5 L 145.5 194.5 L 6.5 194.5 L 6.5 5.5"/></clipPath><clipPath id="urmHAJuHbLBw"><path fill="none" stroke="none" d="M 6.5 5.5 L 145.5 5.5 L 145.5 194.5 L 6.5 194.5 L 6.5 5.5"/></clipPath><clipPath id="acQLfJUciiio"><path fill="none" stroke="none" d="M 6.5 5.5 L 145.5 5.5 L 145.5 194.5 L 6.5 194.5 L 6.5 5.5"/></clipPath><clipPath id="sSwwuaTqJrwR"><path fill="none" stroke="none" d="M 6.5 5.5 L 145.5 5.5 L 145.5 194.5 L 6.5 194.5 L 6.5 5.5"/></clipPath><clipPath id="GgMvgitJHrDn"><path fill="none" stroke="none" d="M 6.5 5.5 L 145.5 5.5 L 145.5 194.5 L 6.5 194.5 L 6.5 5.5"/></clipPath><clipPath id="aXgExllRPOSX"><path fill="none" stroke="none" d="M 6.5 5.5 L 145.5 5.5 L 145.5 194.5 L 6.5 194.5 L 6.5 5.5"/></clipPath><clipPath id="obTglrtNUPtT"><path fill="none" stroke="none" d="M 6.5 5.5 L 145.5 5.5 L 145.5 194.5 L 6.5 194.5 L 6.5 5.5"/></clipPath><clipPath id="VavGIHqSxmqi"><path fill="none" stroke="none" d="M 6.5 5.5 L 145.5 5.5 L 145.5 194.5 L 6.5 194.5 L 6.5 5.5"/></clipPath><clipPath id="hodtBJIvzADr"><path fill="none" stroke="none" d="M 6.5 5.5 L 145.5 5.5 L 145.5 194.5 L 6.5 194.5 L 6.5 5.5"/></clipPath><clipPath id="zmdpgInSbaEB"><path fill="none" stroke="none" d="M 6.5 5.5 L 145.5 5.5 L 145.5 194.5 L 6.5 194.5 L 6.5 5.5"/></clipPath><clipPath id="MLFuBVMHcAoL"><path fill="none" stroke="none" d="M 6.5 5.5 L 145.5 5.5 L 145.5 194.5 L 6.5 194.5 L 6.5 5.5"/></clipPath><clipPath id="WmcVILETmQKH"><path fill="none" stroke="none" d="M 6.5 5.5 L 145.5 5.5 L 145.5 194.5 L 6.5 194.5 L 6.5 5.5"/></clipPath><clipPath id="verEUUteMHUS"><path fill="none" stroke="none" d="M 6.5 5.5 L 145.5 5.5 L 145.5 194.5 L 6.5 194.5 L 6.5 5.5"/></clipPath><clipPath id="ECQhrhnTfRSt"><path fill="none" stroke="none" d="M 6.5 5.5 L 145.5 5.5 L 145.5 194.5 L 6.5 194.5 L 6.5 5.5"/></clipPath><clipPath id="NUcmioxWZBcf"><path fill="none" stroke="none" d="M 6.5 5.5 L 145.5 5.5 L 145.5 194.5 L 6.5 194.5 L 6.5 5.5"/></clipPath><clipPath id="HhMdzKBUhTcW"><path fill="none" stroke="none" d="M 6.5 5.5 L 145.5 5.5 L 145.5 194.5 L 6.5 194.5 L 6.5 5.5"/></clipPath><clipPath id="GHDQPUWhJcCm"><path fill="none" stroke="none" d="M 6.5 5.5 L 145.5 5.5 L 145.5 194.5 L 6.5 194.5 L 6.5 5.5"/></clipPath><clipPath id="qyxGOTSruZhw"><path fill="none" stroke="none" d="M 6.5 5.5 L 145.5 5.5 L 145.5 194.5 L 6.5 194.5 L 6.5 5.5"/></clipPath><clipPath id="GUmDksogAfvN"><path fill="none" stroke="none" d="M 6.5 5.5 L 145.5 5.5 L 145.5 194.5 L 6.5 194.5 L 6.5 5.5"/></clipPath><clipPath id="pHNlVmQotlJF"><path fill="none" stroke="none" d="M 6.5 5.5 L 145.5 5.5 L 145.5 194.5 L 6.5 194.5 L 6.5 5.5"/></clipPath></defs><g transform="matrix(1, 0, 0, 1, 0, 30)"><path fill="rgb(255,255,255)" stroke="none" paint-order="stroke" d="M 0.5 0.5 L 150.5 0.5 L 150.5 200.5 L 0.5 200.5 L 0.5 0.5" fill-opacity="1"/><rect fill="#FFFFFF" stroke="none" x="6" y="5" width="139" height="189" transform="matrix(1, 0, 0, 1, 0.5, 0.5)"/><path fill="rgb(255,255,255)" stroke="none" paint-order="stroke" d="M 6.5 5.5 L 145.5 5.5 L 145.5 194.5 L 6.5 194.5 L 6.5 5.5" fill-opacity="1"/><path fill="none" stroke="rgb(0,0,0)" paint-order="fill" d="M 6.5 5.5 L 145.5 5.5 L 145.5 194.5 L 6.5 194.5 L 6.5 5.5" stroke-opacity="1" stroke-linejoin="bevel" stroke-miterlimit="10" stroke-dasharray=""/><path fill="rgb(0,0,0)" stroke="rgb(0,0,0)" paint-order="fill" d="M 17.81818199157715 181.80140686035156 A 5 5 0 0 1 7.818181991577148 181.80140686035156 A 5 5 0 0 1 17.81818199157715 181.80140686035156" fill-opacity="1" clip-path="url(#OZESAZdqEidr)" stroke-opacity="1" stroke-linejoin="bevel" stroke-miterlimit="10" stroke-dasharray=""/><path fill="rgb(0,0,0)" stroke="rgb(0,0,0)" paint-order="fill" d="M 59.93939208984375 124.25202178955078 A 5 5 0 0 1 49.93939208984375 124.25202178955078 A 5 5 0 0 1 59.93939208984375 124.25202178955078" fill-opacity="1" clip-path="url(#OZESAZdqEidr)" stroke-opacity="1" stroke-linejoin="bevel" stroke-miterlimit="10" stroke-dasharray=""/><path fill="rgb(0,0,0)" stroke="rgb(0,0,0)" paint-order="fill" d="M 102.06060791015625 107.6627426147461 A 5 5 0 0 1 92.06060791015625 107.6627426147461 A 5 5 0 0 1 102.06060791015625 107.6627426147461" fill-opacity="1" clip-path="url(#OZESAZdqEidr)" stroke-opacity="1" stroke-linejoin="bevel" stroke-miterlimit="10" stroke-dasharray=""/><path fill="rgb(0,0,0)" stroke="rgb(0,0,0)" paint-order="fill" d="M 144.18182373046875 86.0992660522461 A 5 5 0 0 1 134.18182373046875 86.0992660522461 A 5 5 0 0 1 144.18182373046875 86.0992660522461" fill-opacity="1" clip-path="url(#OZESAZdqEidr)" stroke-opacity="1" stroke-linejoin="bevel" stroke-miterlimit="10" stroke-dasharray=""/><path fill="none" stroke="rgb(0,0,0)" paint-order="fill" d="M 12.818181991577148 181.80140686035156 L 54.93939208984375 124.25202178955078 L 97.06060791015625 107.6627426147461 L 139.18182373046875 86.0992660522461" stroke-opacity="1" stroke-linejoin="bevel" stroke-miterlimit="10" stroke-width="2" stroke-dasharray="" clip-path="url(#KQEogRhAPaNi)"/><path fill="rgb(214,124,53)" stroke="rgb(214,124,53)" paint-order="fill" d="M 17.81818199157715 159.96127319335938 A 5 5 0 0 1 7.818181991577148 159.96127319335938 A 5 5 0 0 1 17.81818199157715 159.96127319335938" fill-opacity="1" clip-path="url(#kBTOfpwDgNDk)" stroke-opacity="1" stroke-linejoin="bevel" stroke-miterlimit="10" stroke-dasharray=""/><path fill="rgb(214,124,53)" stroke="rgb(214,124,53)" paint-order="fill" d="M 59.93939208984375 111.38648223876953 A 5 5 0 0 1 49.93939208984375 111.38648223876953 A 5 5 0 0 1 59.93939208984375 111.38648223876953" fill-opacity="1" clip-path="url(#kBTOfpwDgNDk)" stroke-opacity="1" stroke-linejoin="bevel" stroke-miterlimit="10" stroke-dasharray=""/><path fill="rgb(214,124,53)" stroke="rgb(214,124,53)" paint-order="fill" d="M 102.06060791015625 88.18688201904297 A 5 5 0 0 1 92.06060791015625 88.18688201904297 A 5 5 0 0 1 102.06060791015625 88.18688201904297" fill-opacity="1" clip-path="url(#kBTOfpwDgNDk)" stroke-opacity="1" stroke-linejoin="bevel" stroke-miterlimit="10" stroke-dasharray=""/><path fill="rgb(214,124,53)" stroke="rgb(214,124,53)" paint-order="fill" d="M 144.18182373046875 61.2491455078125 A 5 5 0 0 1 134.18182373046875 61.2491455078125 A 5 5 0 0 1 144.18182373046875 61.2491455078125" fill-opacity="1" clip-path="url(#kBTOfpwDgNDk)" stroke-opacity="1" stroke-linejoin="bevel" stroke-miterlimit="10" stroke-dasharray=""/><path fill="none" stroke="rgb(214,124,53)" paint-order="fill" d="M 12.818181991577148 159.96127319335938 L 54.93939208984375 111.38648223876953 L 97.06060791015625 88.18688201904297 L 139.18182373046875 61.2491455078125" stroke-opacity="1" stroke-linejoin="bevel" stroke-miterlimit="10" stroke-width="2" stroke-dasharray="" clip-path="url(#qeKPRVsZMszV)"/><path fill="rgb(18,143,203)" stroke="rgb(18,143,203)" paint-order="fill" d="M 17.81818199157715 169.01377868652344 A 5 5 0 0 1 7.818181991577148 169.01377868652344 A 5 5 0 0 1 17.81818199157715 169.01377868652344" fill-opacity="1" clip-path="url(#IWopSFClheNo)" stroke-opacity="1" stroke-linejoin="bevel" stroke-miterlimit="10" stroke-dasharray=""/><path fill="rgb(18,143,203)" stroke="rgb(18,143,203)" paint-order="fill" d="M 59.93939208984375 108.45340728759766 A 5 5 0 0 1 49.93939208984375 108.45340728759766 A 5 5 0 0 1 59.93939208984375 108.45340728759766" fill-opacity="1" clip-path="url(#IWopSFClheNo)" stroke-opacity="1" stroke-linejoin="bevel" stroke-miterlimit="10" stroke-dasharray=""/><path fill="rgb(18,143,203)" stroke="rgb(18,143,203)" paint-order="fill" d="M 102.06060791015625 83.6327896118164 A 5 5 0 0 1 92.06060791015625 83.6327896118164 A 5 5 0 0 1 102.06060791015625 83.6327896118164" fill-opacity="1" clip-path="url(#IWopSFClheNo)" stroke-opacity="1" stroke-linejoin="bevel" stroke-miterlimit="10" stroke-dasharray=""/><path fill="rgb(18,143,203)" stroke="rgb(18,143,203)" paint-order="fill" d="M 144.18182373046875 33.737247467041016 A 5 5 0 0 1 134.18182373046875 33.737247467041016 A 5 5 0 0 1 144.18182373046875 33.737247467041016" fill-opacity="1" clip-path="url(#IWopSFClheNo)" stroke-opacity="1" stroke-linejoin="bevel" stroke-miterlimit="10" stroke-dasharray=""/><path fill="none" stroke="rgb(18,143,203)" paint-order="fill" d="M 12.818181991577148 169.01377868652344 L 54.93939208984375 108.45340728759766 L 97.06060791015625 83.6327896118164 L 139.18182373046875 33.737247467041016" stroke-opacity="1" stroke-linejoin="bevel" stroke-miterlimit="10" stroke-width="2" stroke-dasharray="" clip-path="url(#zgDrmgpovgEk)"/><path fill="none" stroke="rgb(0,0,0)" paint-order="fill" d="M 6.5 194.5 L 145.5 194.5" stroke-opacity="1" stroke-linejoin="bevel" stroke-miterlimit="10" stroke-dasharray=""/><path fill="none" stroke="rgb(0,0,0)" paint-order="fill" d="" stroke-opacity="1" stroke-linejoin="bevel" stroke-miterlimit="10" stroke-dasharray=""/><path fill="none" stroke="rgb(0,0,0)" paint-order="fill" d="" stroke-opacity="1" stroke-linejoin="bevel" stroke-miterlimit="10" stroke-dasharray=""/><path fill="none" stroke="rgb(0,0,0)" paint-order="fill" d="M 6.5 194.5 L 6.5 5.5" stroke-opacity="1" stroke-linejoin="bevel" stroke-miterlimit="10" stroke-dasharray=""/><path fill="none" stroke="rgb(0,0,0)" paint-order="fill" d="M 0.5 165.5 L 8.5 165.5 M 0.5 101.5 L 8.5 101.5 M 0.5 32.5 L 8.5 32.5" stroke-opacity="1" stroke-linejoin="bevel" stroke-miterlimit="10" stroke-dasharray=""/><path fill="none" stroke="rgb(0,0,0)" paint-order="fill" d="" stroke-opacity="1" stroke-linejoin="bevel" stroke-miterlimit="10" stroke-dasharray=""/><text fill="rgb(68,68,68)" stroke="none" font-family="helvetica" font-size="0pt" font-style="normal" font-weight="normal" text-decoration="normal" x="-5" y="164.59584045410156" text-anchor="start" dominant-baseline="alphabetic" transform="matrix(1, 0, 0, 1, 0.5, 0.5)" fill-opacity="1">8.517</text><text fill="rgb(68,68,68)" stroke="none" font-family="helvetica" font-size="0pt" font-style="normal" font-weight="normal" text-decoration="normal" x="-5" y="101.35748291015625" text-anchor="start" dominant-baseline="alphabetic" transform="matrix(1, 0, 0, 1, 0.5, 0.5)" fill-opacity="1">9.616</text><text fill="rgb(68,68,68)" stroke="none" font-family="helvetica" font-size="0pt" font-style="normal" font-weight="normal" text-decoration="normal" x="-5" y="32.05436325073242" text-anchor="start" dominant-baseline="alphabetic" transform="matrix(1, 0, 0, 1, 0.5, 0.5)" fill-opacity="1">10.82</text><g transform="matrix(1, 0, 0, 1, 150, 0)"><path fill="rgb(255,255,255)" stroke="none" paint-order="stroke" d="M 0.5 0.5 L 150.5 0.5 L 150.5 200.5 L 0.5 200.5 L 0.5 0.5" fill-opacity="1"/><rect fill="#FFFFFF" stroke="none" x="6" y="5" width="139" height="189" transform="matrix(1, 0, 0, 1, 0.5, 0.5)"/><path fill="rgb(255,255,255)" stroke="none" paint-order="stroke" d="M 6.5 5.5 L 145.5 5.5 L 145.5 194.5 L 6.5 194.5 L 6.5 5.5" fill-opacity="1"/><path fill="none" stroke="rgb(0,0,0)" paint-order="fill" d="M 6.5 5.5 L 145.5 5.5 L 145.5 194.5 L 6.5 194.5 L 6.5 5.5" stroke-opacity="1" stroke-linejoin="bevel" stroke-miterlimit="10" stroke-dasharray=""/><path fill="rgb(0,0,0)" stroke="rgb(0,0,0)" paint-order="fill" d="M 17.81818199157715 181.80140686035156 A 5 5 0 0 1 7.818181991577148 181.80140686035156 A 5 5 0 0 1 17.81818199157715 181.80140686035156" fill-opacity="1" clip-path="url(#ZPqyIMvJLQlO)" stroke-opacity="1" stroke-linejoin="bevel" stroke-miterlimit="10" stroke-dasharray=""/><path fill="rgb(0,0,0)" stroke="rgb(0,0,0)" paint-order="fill" d="M 59.93939208984375 120.26801300048828 A 5 5 0 0 1 49.93939208984375 120.26801300048828 A 5 5 0 0 1 59.93939208984375 120.26801300048828" fill-opacity="1" clip-path="url(#ZPqyIMvJLQlO)" stroke-opacity="1" stroke-linejoin="bevel" stroke-miterlimit="10" stroke-dasharray=""/><path fill="rgb(0,0,0)" stroke="rgb(0,0,0)" paint-order="fill" d="M 102.06060791015625 73.21820068359375 A 5 5 0 0 1 92.06060791015625 73.21820068359375 A 5 5 0 0 1 102.06060791015625 73.21820068359375" fill-opacity="1" clip-path="url(#ZPqyIMvJLQlO)" stroke-opacity="1" stroke-linejoin="bevel" stroke-miterlimit="10" stroke-dasharray=""/><path fill="rgb(0,0,0)" stroke="rgb(0,0,0)" paint-order="fill" d="M 144.18182373046875 45.634727478027344 A 5 5 0 0 1 134.18182373046875 45.634727478027344 A 5 5 0 0 1 144.18182373046875 45.634727478027344" fill-opacity="1" clip-path="url(#ZPqyIMvJLQlO)" stroke-opacity="1" stroke-linejoin="bevel" stroke-miterlimit="10" stroke-dasharray=""/><path fill="none" stroke="rgb(0,0,0)" paint-order="fill" d="M 12.818181991577148 181.80140686035156 L 54.93939208984375 120.26801300048828 L 97.06060791015625 73.21820068359375 L 139.18182373046875 45.634727478027344" stroke-opacity="1" stroke-linejoin="bevel" stroke-miterlimit="10" stroke-width="2" stroke-dasharray="" clip-path="url(#RNnkKyeVTxpL)"/><path fill="rgb(214,124,53)" stroke="rgb(214,124,53)" paint-order="fill" d="M 17.81818199157715 159.96127319335938 A 5 5 0 0 1 7.818181991577148 159.96127319335938 A 5 5 0 0 1 17.81818199157715 159.96127319335938" fill-opacity="1" clip-path="url(#xROAdIeiWdPM)" stroke-opacity="1" stroke-linejoin="bevel" stroke-miterlimit="10" stroke-dasharray=""/><path fill="rgb(214,124,53)" stroke="rgb(214,124,53)" paint-order="fill" d="M 59.93939208984375 93.49967956542969 A 5 5 0 0 1 49.93939208984375 93.49967956542969 A 5 5 0 0 1 59.93939208984375 93.49967956542969" fill-opacity="1" clip-path="url(#xROAdIeiWdPM)" stroke-opacity="1" stroke-linejoin="bevel" stroke-miterlimit="10" stroke-dasharray=""/><path fill="rgb(214,124,53)" stroke="rgb(214,124,53)" paint-order="fill" d="M 102.06060791015625 62.73118209838867 A 5 5 0 0 1 92.06060791015625 62.73118209838867 A 5 5 0 0 1 102.06060791015625 62.73118209838867" fill-opacity="1" clip-path="url(#xROAdIeiWdPM)" stroke-opacity="1" stroke-linejoin="bevel" stroke-miterlimit="10" stroke-dasharray=""/><path fill="rgb(214,124,53)" stroke="rgb(214,124,53)" paint-order="fill" d="M 144.18182373046875 16.980302810668945 A 5 5 0 0 1 134.18182373046875 16.980302810668945 A 5 5 0 0 1 144.18182373046875 16.980302810668945" fill-opacity="1" clip-path="url(#xROAdIeiWdPM)" stroke-opacity="1" stroke-linejoin="bevel" stroke-miterlimit="10" stroke-dasharray=""/><path fill="none" stroke="rgb(214,124,53)" paint-order="fill" d="M 12.818181991577148 159.96127319335938 L 54.93939208984375 93.49967956542969 L 97.06060791015625 62.73118209838867 L 139.18182373046875 16.980302810668945" stroke-opacity="1" stroke-linejoin="bevel" stroke-miterlimit="10" stroke-width="2" stroke-dasharray="" clip-path="url(#pmHJPxtTzUUp)"/><path fill="rgb(18,143,203)" stroke="rgb(18,143,203)" paint-order="fill" d="M 17.81818199157715 169.01377868652344 A 5 5 0 0 1 7.818181991577148 169.01377868652344 A 5 5 0 0 1 17.81818199157715 169.01377868652344" fill-opacity="1" clip-path="url(#EuuEyMiLFNIJ)" stroke-opacity="1" stroke-linejoin="bevel" stroke-miterlimit="10" stroke-dasharray=""/><path fill="rgb(18,143,203)" stroke="rgb(18,143,203)" paint-order="fill" d="M 59.93939208984375 83.10675048828125 A 5 5 0 0 1 49.93939208984375 83.10675048828125 A 5 5 0 0 1 59.93939208984375 83.10675048828125" fill-opacity="1" clip-path="url(#EuuEyMiLFNIJ)" stroke-opacity="1" stroke-linejoin="bevel" stroke-miterlimit="10" stroke-dasharray=""/><path fill="rgb(18,143,203)" stroke="rgb(18,143,203)" paint-order="fill" d="M 102.06060791015625 45.05604934692383 A 5 5 0 0 1 92.06060791015625 45.05604934692383 A 5 5 0 0 1 102.06060791015625 45.05604934692383" fill-opacity="1" clip-path="url(#EuuEyMiLFNIJ)" stroke-opacity="1" stroke-linejoin="bevel" stroke-miterlimit="10" stroke-dasharray=""/><path fill="rgb(18,143,203)" stroke="rgb(18,143,203)" paint-order="fill" d="M 144.18182373046875 16.980302810668945 A 5 5 0 0 1 134.18182373046875 16.980302810668945 A 5 5 0 0 1 144.18182373046875 16.980302810668945" fill-opacity="1" clip-path="url(#EuuEyMiLFNIJ)" stroke-opacity="1" stroke-linejoin="bevel" stroke-miterlimit="10" stroke-dasharray=""/><path fill="none" stroke="rgb(18,143,203)" paint-order="fill" d="M 12.818181991577148 169.01377868652344 L 54.93939208984375 83.10675048828125 L 97.06060791015625 45.05604934692383 L 139.18182373046875 16.980302810668945" stroke-opacity="1" stroke-linejoin="bevel" stroke-miterlimit="10" stroke-width="2" stroke-dasharray="" clip-path="url(#fNltObARCEUB)"/><path fill="none" stroke="rgb(0,0,0)" paint-order="fill" d="M 6.5 194.5 L 145.5 194.5" stroke-opacity="1" stroke-linejoin="bevel" stroke-miterlimit="10" stroke-dasharray=""/><path fill="none" stroke="rgb(0,0,0)" paint-order="fill" d="" stroke-opacity="1" stroke-linejoin="bevel" stroke-miterlimit="10" stroke-dasharray=""/><path fill="none" stroke="rgb(0,0,0)" paint-order="fill" d="" stroke-opacity="1" stroke-linejoin="bevel" stroke-miterlimit="10" stroke-dasharray=""/><path fill="none" stroke="rgb(0,0,0)" paint-order="fill" d="M 6.5 194.5 L 6.5 5.5" stroke-opacity="1" stroke-linejoin="bevel" stroke-miterlimit="10" stroke-dasharray=""/><path fill="none" stroke="rgb(0,0,0)" paint-order="fill" d="" stroke-opacity="1" stroke-linejoin="bevel" stroke-miterlimit="10" stroke-dasharray=""/><path fill="none" stroke="rgb(0,0,0)" paint-order="fill" d="" stroke-opacity="1" stroke-linejoin="bevel" stroke-miterlimit="10" stroke-dasharray=""/></g><g transform="matrix(1, 0, 0, 1, 300, 0)"><path fill="rgb(255,255,255)" stroke="none" paint-order="stroke" d="M 0.5 0.5 L 150.5 0.5 L 150.5 200.5 L 0.5 200.5 L 0.5 0.5" fill-opacity="1"/><rect fill="#FFFFFF" stroke="none" x="6" y="5" width="139" height="189" transform="matrix(1, 0, 0, 1, 0.5, 0.5)"/><path fill="rgb(255,255,255)" stroke="none" paint-order="stroke" d="M 6.5 5.5 L 145.5 5.5 L 145.5 194.5 L 6.5 194.5 L 6.5 5.5" fill-opacity="1"/><path fill="none" stroke="rgb(0,0,0)" paint-order="fill" d="M 6.5 5.5 L 145.5 5.5 L 145.5 194.5 L 6.5 194.5 L 6.5 5.5" stroke-opacity="1" stroke-linejoin="bevel" stroke-miterlimit="10" stroke-dasharray=""/><path fill="rgb(0,0,0)" stroke="rgb(0,0,0)" paint-order="fill" d="M 17.81818199157715 181.80140686035156 A 5 5 0 0 1 7.818181991577148 181.80140686035156 A 5 5 0 0 1 17.81818199157715 181.80140686035156" fill-opacity="1" clip-path="url(#GgMvgitJHrDn)" stroke-opacity="1" stroke-linejoin="bevel" stroke-miterlimit="10" stroke-dasharray=""/><path fill="rgb(0,0,0)" stroke="rgb(0,0,0)" paint-order="fill" d="M 59.93939208984375 158.40306091308594 A 5 5 0 0 1 49.93939208984375 158.40306091308594 A 5 5 0 0 1 59.93939208984375 158.40306091308594" fill-opacity="1" clip-path="url(#GgMvgitJHrDn)" stroke-opacity="1" stroke-linejoin="bevel" stroke-miterlimit="10" stroke-dasharray=""/><path fill="rgb(0,0,0)" stroke="rgb(0,0,0)" paint-order="fill" d="M 102.06060791015625 156.83103942871094 A 5 5 0 0 1 92.06060791015625 156.83103942871094 A 5 5 0 0 1 102.06060791015625 156.83103942871094" fill-opacity="1" clip-path="url(#GgMvgitJHrDn)" stroke-opacity="1" stroke-linejoin="bevel" stroke-miterlimit="10" stroke-dasharray=""/><path fill="rgb(0,0,0)" stroke="rgb(0,0,0)" paint-order="fill" d="M 144.18182373046875 153.0721435546875 A 5 5 0 0 1 134.18182373046875 153.0721435546875 A 5 5 0 0 1 144.18182373046875 153.0721435546875" fill-opacity="1" clip-path="url(#GgMvgitJHrDn)" stroke-opacity="1" stroke-linejoin="bevel" stroke-miterlimit="10" stroke-dasharray=""/><path fill="none" stroke="rgb(0,0,0)" paint-order="fill" d="M 12.818181991577148 181.80140686035156 L 54.93939208984375 158.40306091308594 L 97.06060791015625 156.83103942871094 L 139.18182373046875 153.0721435546875" stroke-opacity="1" stroke-linejoin="bevel" stroke-miterlimit="10" stroke-width="2" stroke-dasharray="" clip-path="url(#aXgExllRPOSX)"/><path fill="rgb(214,124,53)" stroke="rgb(214,124,53)" paint-order="fill" d="M 17.81818199157715 159.96127319335938 A 5 5 0 0 1 7.818181991577148 159.96127319335938 A 5 5 0 0 1 17.81818199157715 159.96127319335938" fill-opacity="1" clip-path="url(#obTglrtNUPtT)" stroke-opacity="1" stroke-linejoin="bevel" stroke-miterlimit="10" stroke-dasharray=""/><path fill="rgb(214,124,53)" stroke="rgb(214,124,53)" paint-order="fill" d="M 59.93939208984375 150.8366241455078 A 5 5 0 0 1 49.93939208984375 150.8366241455078 A 5 5 0 0 1 59.93939208984375 150.8366241455078" fill-opacity="1" clip-path="url(#obTglrtNUPtT)" stroke-opacity="1" stroke-linejoin="bevel" stroke-miterlimit="10" stroke-dasharray=""/><path fill="rgb(214,124,53)" stroke="rgb(214,124,53)" paint-order="fill" d="M 102.06060791015625 149.3770294189453 A 5 5 0 0 1 92.06060791015625 149.3770294189453 A 5 5 0 0 1 102.06060791015625 149.3770294189453" fill-opacity="1" clip-path="url(#obTglrtNUPtT)" stroke-opacity="1" stroke-linejoin="bevel" stroke-miterlimit="10" stroke-dasharray=""/><path fill="rgb(214,124,53)" stroke="rgb(214,124,53)" paint-order="fill" d="M 144.18182373046875 130.73638916015625 A 5 5 0 0 1 134.18182373046875 130.73638916015625 A 5 5 0 0 1 144.18182373046875 130.73638916015625" fill-opacity="1" clip-path="url(#obTglrtNUPtT)" stroke-opacity="1" stroke-linejoin="bevel" stroke-miterlimit="10" stroke-dasharray=""/><path fill="none" stroke="rgb(214,124,53)" paint-order="fill" d="M 12.818181991577148 159.96127319335938 L 54.93939208984375 150.8366241455078 L 97.06060791015625 149.3770294189453 L 139.18182373046875 130.73638916015625" stroke-opacity="1" stroke-linejoin="bevel" stroke-miterlimit="10" stroke-width="2" stroke-dasharray="" clip-path="url(#VavGIHqSxmqi)"/><path fill="rgb(18,143,203)" stroke="rgb(18,143,203)" paint-order="fill" d="M 17.81818199157715 169.01377868652344 A 5 5 0 0 1 7.818181991577148 169.01377868652344 A 5 5 0 0 1 17.81818199157715 169.01377868652344" fill-opacity="1" clip-path="url(#hodtBJIvzADr)" stroke-opacity="1" stroke-linejoin="bevel" stroke-miterlimit="10" stroke-dasharray=""/><path fill="rgb(18,143,203)" stroke="rgb(18,143,203)" paint-order="fill" d="M 59.93939208984375 164.69430541992188 A 5 5 0 0 1 49.93939208984375 164.69430541992188 A 5 5 0 0 1 59.93939208984375 164.69430541992188" fill-opacity="1" clip-path="url(#hodtBJIvzADr)" stroke-opacity="1" stroke-linejoin="bevel" stroke-miterlimit="10" stroke-dasharray=""/><path fill="rgb(18,143,203)" stroke="rgb(18,143,203)" paint-order="fill" d="M 102.06060791015625 142.72779846191406 A 5 5 0 0 1 92.06060791015625 142.72779846191406 A 5 5 0 0 1 102.06060791015625 142.72779846191406" fill-opacity="1" clip-path="url(#hodtBJIvzADr)" stroke-opacity="1" stroke-linejoin="bevel" stroke-miterlimit="10" stroke-dasharray=""/><path fill="rgb(18,143,203)" stroke="rgb(18,143,203)" paint-order="fill" d="M 144.18182373046875 132.10565185546875 A 5 5 0 0 1 134.18182373046875 132.10565185546875 A 5 5 0 0 1 144.18182373046875 132.10565185546875" fill-opacity="1" clip-path="url(#hodtBJIvzADr)" stroke-opacity="1" stroke-linejoin="bevel" stroke-miterlimit="10" stroke-dasharray=""/><path fill="none" stroke="rgb(18,143,203)" paint-order="fill" d="M 12.818181991577148 169.01377868652344 L 54.93939208984375 164.69430541992188 L 97.06060791015625 142.72779846191406 L 139.18182373046875 132.10565185546875" stroke-opacity="1" stroke-linejoin="bevel" stroke-miterlimit="10" stroke-width="2" stroke-dasharray="" clip-path="url(#zmdpgInSbaEB)"/><path fill="none" stroke="rgb(0,0,0)" paint-order="fill" d="M 6.5 194.5 L 145.5 194.5" stroke-opacity="1" stroke-linejoin="bevel" stroke-miterlimit="10" stroke-dasharray=""/><path fill="none" stroke="rgb(0,0,0)" paint-order="fill" d="" stroke-opacity="1" stroke-linejoin="bevel" stroke-miterlimit="10" stroke-dasharray=""/><path fill="none" stroke="rgb(0,0,0)" paint-order="fill" d="" stroke-opacity="1" stroke-linejoin="bevel" stroke-miterlimit="10" stroke-dasharray=""/><path fill="none" stroke="rgb(0,0,0)" paint-order="fill" d="M 6.5 194.5 L 6.5 5.5" stroke-opacity="1" stroke-linejoin="bevel" stroke-miterlimit="10" stroke-dasharray=""/><path fill="none" stroke="rgb(0,0,0)" paint-order="fill" d="" stroke-opacity="1" stroke-linejoin="bevel" stroke-miterlimit="10" stroke-dasharray=""/><path fill="none" stroke="rgb(0,0,0)" paint-order="fill" d="" stroke-opacity="1" stroke-linejoin="bevel" stroke-miterlimit="10" stroke-dasharray=""/></g><g transform="matrix(1, 0, 0, 1, 450, 0)"><path fill="rgb(255,255,255)" stroke="none" paint-order="stroke" d="M 0.5 0.5 L 150.5 0.5 L 150.5 200.5 L 0.5 200.5 L 0.5 0.5" fill-opacity="1"/><rect fill="#FFFFFF" stroke="none" x="6" y="5" width="139" height="189" transform="matrix(1, 0, 0, 1, 0.5, 0.5)"/><path fill="rgb(255,255,255)" stroke="none" paint-order="stroke" d="M 6.5 5.5 L 145.5 5.5 L 145.5 194.5 L 6.5 194.5 L 6.5 5.5" fill-opacity="1"/><path fill="none" stroke="rgb(0,0,0)" paint-order="fill" d="M 6.5 5.5 L 145.5 5.5 L 145.5 194.5 L 6.5 194.5 L 6.5 5.5" stroke-opacity="1" stroke-linejoin="bevel" stroke-miterlimit="10" stroke-dasharray=""/><path fill="rgb(0,0,0)" stroke="rgb(0,0,0)" paint-order="fill" d="M 17.81818199157715 181.80140686035156 A 5 5 0 0 1 7.818181991577148 181.80140686035156 A 5 5 0 0 1 17.81818199157715 181.80140686035156" fill-opacity="1" clip-path="url(#ECQhrhnTfRSt)" stroke-opacity="1" stroke-linejoin="bevel" stroke-miterlimit="10" stroke-dasharray=""/><path fill="rgb(0,0,0)" stroke="rgb(0,0,0)" paint-order="fill" d="M 59.93939208984375 153.9713134765625 A 5 5 0 0 1 49.93939208984375 153.9713134765625 A 5 5 0 0 1 59.93939208984375 153.9713134765625" fill-opacity="1" clip-path="url(#ECQhrhnTfRSt)" stroke-opacity="1" stroke-linejoin="bevel" stroke-miterlimit="10" stroke-dasharray=""/><path fill="rgb(0,0,0)" stroke="rgb(0,0,0)" paint-order="fill" d="M 102.06060791015625 140.9864501953125 A 5 5 0 0 1 92.06060791015625 140.9864501953125 A 5 5 0 0 1 102.06060791015625 140.9864501953125" fill-opacity="1" clip-path="url(#ECQhrhnTfRSt)" stroke-opacity="1" stroke-linejoin="bevel" stroke-miterlimit="10" stroke-dasharray=""/><path fill="rgb(0,0,0)" stroke="rgb(0,0,0)" paint-order="fill" d="M 144.18182373046875 122.04953002929688 A 5 5 0 0 1 134.18182373046875 122.04953002929688 A 5 5 0 0 1 144.18182373046875 122.04953002929688" fill-opacity="1" clip-path="url(#ECQhrhnTfRSt)" stroke-opacity="1" stroke-linejoin="bevel" stroke-miterlimit="10" stroke-dasharray=""/><path fill="none" stroke="rgb(0,0,0)" paint-order="fill" d="M 12.818181991577148 181.80140686035156 L 54.93939208984375 153.9713134765625 L 97.06060791015625 140.9864501953125 L 139.18182373046875 122.04953002929688" stroke-opacity="1" stroke-linejoin="bevel" stroke-miterlimit="10" stroke-width="2" stroke-dasharray="" clip-path="url(#NUcmioxWZBcf)"/><path fill="rgb(214,124,53)" stroke="rgb(214,124,53)" paint-order="fill" d="M 17.81818199157715 159.96127319335938 A 5 5 0 0 1 7.818181991577148 159.96127319335938 A 5 5 0 0 1 17.81818199157715 159.96127319335938" fill-opacity="1" clip-path="url(#HhMdzKBUhTcW)" stroke-opacity="1" stroke-linejoin="bevel" stroke-miterlimit="10" stroke-dasharray=""/><path fill="rgb(214,124,53)" stroke="rgb(214,124,53)" paint-order="fill" d="M 59.93939208984375 141.2825469970703 A 5 5 0 0 1 49.93939208984375 141.2825469970703 A 5 5 0 0 1 59.93939208984375 141.2825469970703" fill-opacity="1" clip-path="url(#HhMdzKBUhTcW)" stroke-opacity="1" stroke-linejoin="bevel" stroke-miterlimit="10" stroke-dasharray=""/><path fill="rgb(214,124,53)" stroke="rgb(214,124,53)" paint-order="fill" d="M 102.06060791015625 129.44541931152344 A 5 5 0 0 1 92.06060791015625 129.44541931152344 A 5 5 0 0 1 102.06060791015625 129.44541931152344" fill-opacity="1" clip-path="url(#HhMdzKBUhTcW)" stroke-opacity="1" stroke-linejoin="bevel" stroke-miterlimit="10" stroke-dasharray=""/><path fill="rgb(214,124,53)" stroke="rgb(214,124,53)" paint-order="fill" d="M 144.18182373046875 108.34378051757812 A 5 5 0 0 1 134.18182373046875 108.34378051757812 A 5 5 0 0 1 144.18182373046875 108.34378051757812" fill-opacity="1" clip-path="url(#HhMdzKBUhTcW)" stroke-opacity="1" stroke-linejoin="bevel" stroke-miterlimit="10" stroke-dasharray=""/><path fill="none" stroke="rgb(214,124,53)" paint-order="fill" d="M 12.818181991577148 159.96127319335938 L 54.93939208984375 141.2825469970703 L 97.06060791015625 129.44541931152344 L 139.18182373046875 108.34378051757812" stroke-opacity="1" stroke-linejoin="bevel" stroke-miterlimit="10" stroke-width="2" stroke-dasharray="" clip-path="url(#GHDQPUWhJcCm)"/><path fill="rgb(18,143,203)" stroke="rgb(18,143,203)" paint-order="fill" d="M 17.81818199157715 169.01377868652344 A 5 5 0 0 1 7.818181991577148 169.01377868652344 A 5 5 0 0 1 17.81818199157715 169.01377868652344" fill-opacity="1" clip-path="url(#qyxGOTSruZhw)" stroke-opacity="1" stroke-linejoin="bevel" stroke-miterlimit="10" stroke-dasharray=""/><path fill="rgb(18,143,203)" stroke="rgb(18,143,203)" paint-order="fill" d="M 59.93939208984375 134.83352661132812 A 5 5 0 0 1 49.93939208984375 134.83352661132812 A 5 5 0 0 1 59.93939208984375 134.83352661132812" fill-opacity="1" clip-path="url(#qyxGOTSruZhw)" stroke-opacity="1" stroke-linejoin="bevel" stroke-miterlimit="10" stroke-dasharray=""/><path fill="rgb(18,143,203)" stroke="rgb(18,143,203)" paint-order="fill" d="M 102.06060791015625 120.0359878540039 A 5 5 0 0 1 92.06060791015625 120.0359878540039 A 5 5 0 0 1 102.06060791015625 120.0359878540039" fill-opacity="1" clip-path="url(#qyxGOTSruZhw)" stroke-opacity="1" stroke-linejoin="bevel" stroke-miterlimit="10" stroke-dasharray=""/><path fill="rgb(18,143,203)" stroke="rgb(18,143,203)" paint-order="fill" d="M 144.18182373046875 94.46015930175781 A 5 5 0 0 1 134.18182373046875 94.46015930175781 A 5 5 0 0 1 144.18182373046875 94.46015930175781" fill-opacity="1" clip-path="url(#qyxGOTSruZhw)" stroke-opacity="1" stroke-linejoin="bevel" stroke-miterlimit="10" stroke-dasharray=""/><path fill="none" stroke="rgb(18,143,203)" paint-order="fill" d="M 12.818181991577148 169.01377868652344 L 54.93939208984375 134.83352661132812 L 97.06060791015625 120.0359878540039 L 139.18182373046875 94.46015930175781" stroke-opacity="1" stroke-linejoin="bevel" stroke-miterlimit="10" stroke-width="2" stroke-dasharray="" clip-path="url(#GUmDksogAfvN)"/><path fill="none" stroke="rgb(0,0,0)" paint-order="fill" d="M 6.5 194.5 L 145.5 194.5" stroke-opacity="1" stroke-linejoin="bevel" stroke-miterlimit="10" stroke-dasharray=""/><path fill="none" stroke="rgb(0,0,0)" paint-order="fill" d="" stroke-opacity="1" stroke-linejoin="bevel" stroke-miterlimit="10" stroke-dasharray=""/><path fill="none" stroke="rgb(0,0,0)" paint-order="fill" d="" stroke-opacity="1" stroke-linejoin="bevel" stroke-miterlimit="10" stroke-dasharray=""/><path fill="none" stroke="rgb(0,0,0)" paint-order="fill" d="M 6.5 194.5 L 6.5 5.5" stroke-opacity="1" stroke-linejoin="bevel" stroke-miterlimit="10" stroke-dasharray=""/><path fill="none" stroke="rgb(0,0,0)" paint-order="fill" d="" stroke-opacity="1" stroke-linejoin="bevel" stroke-miterlimit="10" stroke-dasharray=""/><path fill="none" stroke="rgb(0,0,0)" paint-order="fill" d="" stroke-opacity="1" stroke-linejoin="bevel" stroke-miterlimit="10" stroke-dasharray=""/></g></g></svg>