<svg version="1.1" xmlns="http://www.w3.org/2000/svg" width="600" height="230"><defs><clipPath id="VqNHpLWITKqF"><path fill="none" stroke="none" d="M 6.5 5.5 L 145.5 5.5 L 145.5 194.5 L 6.5 194.5 L 6.5 5.5"/></clipPath><clipPath id="virCngwqpAdp"><path fill="none" stroke="none" d="M 6.5 5.5 L 145.5 5.5 L 145.5 194.5 L 6.5 194.5 L 6.5 5.5"/></clipPath><clipPath id="mMUilnlThTwS"><path fill="none" stroke="none" d="M 6.5 5.5 L 145.5 5.5 L 145.5 194.5 L 6.5 194.5 L 6.5 5.5"/></clipPath><clipPath id="EoTztGmycmxd"><path fill="none" stroke="none" d="M 6.5 5.5 L 145.5 5.5 L 145.5 194.5 L 6.5 194.5 L 6.5 5.5"/></clipPath><clipPath id="XddwaBBeOrne"><path fill="none" stroke="none" d="M 6.5 5.5 L 145.5 5.5 L 145.5 194.5 L 6.5 194.5 L 6.5 5.5"/></clipPath><clipPath id="ZZyqANkxyFPg"><path fill="none" stroke="none" d="M 6.5 5.5 L 145.5 5.5 L 145.5 194.5 L 6.5 194.5 L 6.5 5.5"/></clipPath><clipPath id="IiffqhsvZZUl"><path fill="none" stroke="none" d="M 6.5 5.5 L 145.5 5.5 L 145.5 194.5 L 6.5 194.5 L 6.5 5.5"/></clipPath><clipPath id="resrzOPLiGVA"><path fill="none" stroke="none" d="M 6.5 5.5 L 145.5 5.5 L 145.5 194.5 L 6.5 194.5 L 6.5 5.5"/></clipPath><clipPath id="zuBIkNvScwoJ"><path fill="none" stroke="none" d="M 6.5 5.5 L 145.5 5.5 L 145.5 194.5 L 6.5 194.5 L 6.5 5.5"/></clipPath><clipPath id="WoTVtXRqKIrq"><path fill="none" stroke="none" d="M 6.5 5.5 L 145.5 5.5 L 145.5 194.5 L 6.5 194.5 L 6.5 5.5"/></clipPath><clipPath id="sCalWMxqPFlw"><path fill="none" stroke="none" d="M 6.5 5.5 L 145.5 5.5 L 145.5 194.5 L 6.5 194.5 L 6.5 5.5"/></clipPath><clipPath id="xzogOTNsIPvK"><path fill="none" stroke="none" d="M 6.5 5.5 L 145.5 5.5 L 145.5 194.5 L 6.5 194.5 L 6.5 5.5"/></clipPath><clipPath id="GexwyxSrqcss"><path fill="none" stroke="none" d="M 6.5 5.5 L 145.5 5.5 L 145.5 194.5 L 6.5 194.5 L 6.5 5.5"/></clipPath><clipPath id="oeNoQAmTViiq"><path fill="none" stroke="none" d="M 6.5 5.5 L 145.5 5.5 L 145.5 194.5 L 6.5 194.5 L 6.5 5.5"/></clipPath><clipPath id="aXRQipmIyiGu"><path fill="none" stroke="none" d="M 6.5 5.5 L 145.5 5.5 L 145.5 194.5 L 6.5 194.5 L 6.5 5.5"/></clipPath><clipPath id="UkGmvnbTObkV"><path fill="none" stroke="none" d="M 6.5 5.5 L 145.5 5.5 L 145.5 194.5 L 6.5 194.5 L 6.5 5.5"/></clipPath><clipPath id="AVSHiauNDpON"><path fill="none" stroke="none" d="M 6.5 5.5 L 145.5 5.5 L 145.5 194.5 L 6.5 194.5 L 6.5 5.5"/></clipPath><clipPath id="yDAzDSWQWKuQ"><path fill="none" stroke="none" d="M 6.5 5.5 L 145.5 5.5 L 145.5 194.5 L 6.5 194.5 L 6.5 5.5"/></clipPath><clipPath id="gPraeaBiISkb"><path fill="none" stroke="none" d="M 6.5 5.5 L 145.5 5.5 L 145.5 194.5 L 6.5 194.5 L 6.5 5.5"/></clipPath><clipPath id="heRCtCZqCJJh"><path fill="none" stroke="none" d="M 6.5 5.5 L 145.5 5.5 L 145.5 194.5 L 6.5 194.5 L 6.5 5.5"/></clipPath><clipPath id="SFBBsMrgsMPg"><path fill="none" stroke="none" d="M 6.5 5.5 L 145.5 5.5 L 145.5 194.5 L 6.5 194.5 L 6.5 5.5"/></clipPath><clipPath id="xElMDVmAWNEk"><path fill="none" stroke="none" d="M 6.5 5.5 L 145.5 5.5 L 145.5 194.5 L 6.5 194.5 L 6.5 5.5"/></clipPath><clipPath id="oZxJQuzMndLE"><path fill="none" stroke="none" d="M 6.5 5.5 L 145.5 5.5 L 145.5 194.5 L 6.5 194.5 L 6.5 5.5"/></clipPath><clipPath id="JGSsAoeCOgfl"><path fill="none" stroke="none" d="M 6.5 5.5 L 145.5 5.5 L 145.5 194.5 L 6.5 194.5 L 6.5 5.5"/></clipPath><clipPath id="cBBqsJWJbxdt"><path fill="none" stroke="none" d="M 6.5 5.5 L 145.5 5.5 L 145.5 194.5 L 6.5 194.5 L 6.5 5.5"/></clipPath><clipPath id="QUxxzfphOatM"><path fill="none" stroke="none" d="M 6.5 5.5 L 145.5 5.5 L 145.5 194.5 L 6.5 194.5 L 6.5 5.5"/></clipPath><clipPath id="trswEpVmWCOm"><path fill="none" stroke="none" d="M 6.5 5.5 L 145.5 5.5 L 145.5 194.5 L 6.5 194.5 L 6.5 5.5"/></clipPath><clipPath id="ewAHHEOUZMsK"><path fill="none" stroke="none" d="M 6.5 5.5 L 145.5 5.5 L 145.5 194.5 L 6.5 194.5 L 6.5 5.5"/></clipPath><clipPath id="KsNWDEKuWtcc"><path fill="none" stroke="none" d="M 6.5 5.5 L 145.5 5.5 L 145.5 194.5 L 6.5 194.5 L 6.5 5.5"/></clipPath><clipPath id="MiCycIkUpQrq"><path fill="none" stroke="none" d="M 6.5 5.5 L 145.5 5.5 L 145.5 194.5 L 6.5 194.5 L 6.5 5.5"/></clipPath><clipPath id="owpPetTGcqVh"><path fill="none" stroke="none" d="M 6.5 5.5 L 145.5 5.5 L 145.5 194.5 L 6.5 194.5 L 6.5 5.5"/></clipPath><clipPath id="cOvCVfhbXiNw"><path fill="none" stroke="none" d="M 6.5 5.5 L 145.5 5.5 L 145.5 194.5 L 6.5 194.5 L 6.5 5.5"/></clipPath><clipPath id="syadrNlhLCuy"><path fill="none" stroke="none" d="M 6.5 5.5 L 145.5 5.5 L 145.5 194.5 L 6.5 194.5 L 6.5 5.5"/></clipPath><clipPath id="TbVrdTrdEgba"><path fill="none" stroke="none" d="M 6.5 5.5 L 145.5 5.5 L 145.5 194.5 L 6.5 194.5 L 6.5 5.5"/></clipPath><clipPath id="EWbKvPrTvekI"><path fill="none" stroke="none" d="M 6.5 5.5 L 145.5 5.5 L 145.5 194.5 L 6.5 194.5 L 6.5 5.5"/></clipPath><clipPath id="nwvdWWhWwykd"><path fill="none" stroke="none" d="M 6.5 5.5 L 145.5 5.5 L 145.5 194.5 L 6.5 194.5 L 6.5 5.5"/></clipPath></defs><g transform="matrix(1, 0, 0, 1, 0, 30)"><path fill="rgb(255,255,255)" stroke="none" paint-order="stroke" d="M 0.5 0.5 L 150.5 0.5 L 150.5 200.5 L 0.5 200.5 L 0.5 0.5" fill-opacity="1"/><rect fill="#FFFFFF" stroke="none" x="6" y="5" width="139" height="189" transform="matrix(1, 0, 0, 1, 0.5, 0.5)"/><path fill="rgb(255,255,255)" stroke="none" paint-order="stroke" d="M 6.5 5.5 L 145.5 5.5 L 145.5 194.5 L 6.5 194.5 L 6.5 5.5" fill-opacity="1"/><path fill="none" stroke="rgb(0,0,0)" paint-order="fill" d="M 6.5 5.5 L 145.5 5.5 L 145.5 194.5 L 6.5 194.5 L 6.5 5.5" stroke-opacity="1" stroke-linejoin="bevel" stroke-miterlimit="10" stroke-dasharray=""/><path fill="rgb(0,0,0)" stroke="rgb(0,0,0)" paint-order="fill" d="M 17.81818199157715 177.67327880859375 A 5 5 0 0 1 7.818181991577148 177.67327880859375 A 5 5 0 0 1 17.81818199157715 177.67327880859375" fill-opacity="1" clip-path="url(#mMUilnlThTwS)" stroke-opacity="1" stroke-linejoin="bevel" stroke-miterlimit="10" stroke-dasharray=""/><path fill="rgb(0,0,0)" stroke="rgb(0,0,0)" paint-order="fill" d="M 59.93939208984375 90.41122436523438 A 5 5 0 0 1 49.93939208984375 90.41122436523438 A 5 5 0 0 1 59.93939208984375 90.41122436523438" fill-opacity="1" clip-path="url(#mMUilnlThTwS)" stroke-opacity="1" stroke-linejoin="bevel" stroke-miterlimit="10" stroke-dasharray=""/><path fill="rgb(0,0,0)" stroke="rgb(0,0,0)" paint-order="fill" d="M 102.06060791015625 68.68938446044922 A 5 5 0 0 1 92.06060791015625 68.68938446044922 A 5 5 0 0 1 102.06060791015625 68.68938446044922" fill-opacity="1" clip-path="url(#mMUilnlThTwS)" stroke-opacity="1" stroke-linejoin="bevel" stroke-miterlimit="10" stroke-dasharray=""/><path fill="rgb(0,0,0)" stroke="rgb(0,0,0)" paint-order="fill" d="M 144.18182373046875 38.33015823364258 A 5 5 0 0 1 134.18182373046875 38.33015823364258 A 5 5 0 0 1 144.18182373046875 38.33015823364258" fill-opacity="1" clip-path="url(#mMUilnlThTwS)" stroke-opacity="1" stroke-linejoin="bevel" stroke-miterlimit="10" stroke-dasharray=""/><path fill="none" stroke="rgb(0,0,0)" paint-order="fill" d="M 12.818181991577148 177.67327880859375 L 54.93939208984375 90.41122436523438 L 97.06060791015625 68.68938446044922 L 139.18182373046875 38.33015823364258" stroke-opacity="1" stroke-linejoin="bevel" stroke-miterlimit="10" stroke-width="2" stroke-dasharray="" clip-path="url(#EoTztGmycmxd)"/><path fill="rgb(214,124,53)" stroke="rgb(214,124,53)" paint-order="fill" d="M 17.81818199157715 159.5797576904297 A 5 5 0 0 1 7.818181991577148 159.5797576904297 A 5 5 0 0 1 17.81818199157715 159.5797576904297" fill-opacity="1" clip-path="url(#XddwaBBeOrne)" stroke-opacity="1" stroke-linejoin="bevel" stroke-miterlimit="10" stroke-dasharray=""/><path fill="rgb(214,124,53)" stroke="rgb(214,124,53)" paint-order="fill" d="M 59.93939208984375 72.07466125488281 A 5 5 0 0 1 49.93939208984375 72.07466125488281 A 5 5 0 0 1 59.93939208984375 72.07466125488281" fill-opacity="1" clip-path="url(#XddwaBBeOrne)" stroke-opacity="1" stroke-linejoin="bevel" stroke-miterlimit="10" stroke-dasharray=""/><path fill="rgb(214,124,53)" stroke="rgb(214,124,53)" paint-order="fill" d="M 102.06060791015625 61.19215774536133 A 5 5 0 0 1 92.06060791015625 61.19215774536133 A 5 5 0 0 1 102.06060791015625 61.19215774536133" fill-opacity="1" clip-path="url(#XddwaBBeOrne)" stroke-opacity="1" stroke-linejoin="bevel" stroke-miterlimit="10" stroke-dasharray=""/><path fill="rgb(214,124,53)" stroke="rgb(214,124,53)" paint-order="fill" d="M 144.18182373046875 25.22296142578125 A 5 5 0 0 1 134.18182373046875 25.22296142578125 A 5 5 0 0 1 144.18182373046875 25.22296142578125" fill-opacity="1" clip-path="url(#XddwaBBeOrne)" stroke-opacity="1" stroke-linejoin="bevel" stroke-miterlimit="10" stroke-dasharray=""/><path fill="none" stroke="rgb(214,124,53)" paint-order="fill" d="M 12.818181991577148 159.5797576904297 L 54.93939208984375 72.07466125488281 L 97.06060791015625 61.19215774536133 L 139.18182373046875 25.22296142578125" stroke-opacity="1" stroke-linejoin="bevel" stroke-miterlimit="10" stroke-width="2" stroke-dasharray="" clip-path="url(#ZZyqANkxyFPg)"/><path fill="rgb(18,143,203)" stroke="rgb(18,143,203)" paint-order="fill" d="M 17.81818199157715 175.038330078125 A 5 5 0 0 1 7.818181991577148 175.038330078125 A 5 5 0 0 1 17.81818199157715 175.038330078125" fill-opacity="1" clip-path="url(#IiffqhsvZZUl)" stroke-opacity="1" stroke-linejoin="bevel" stroke-miterlimit="10" stroke-dasharray=""/><path fill="rgb(18,143,203)" stroke="rgb(18,143,203)" paint-order="fill" d="M 59.93939208984375 86.8292465209961 A 5 5 0 0 1 49.93939208984375 86.8292465209961 A 5 5 0 0 1 59.93939208984375 86.8292465209961" fill-opacity="1" clip-path="url(#IiffqhsvZZUl)" stroke-opacity="1" stroke-linejoin="bevel" stroke-miterlimit="10" stroke-dasharray=""/><path fill="rgb(18,143,203)" stroke="rgb(18,143,203)" paint-order="fill" d="M 102.06060791015625 41.85615539550781 A 5 5 0 0 1 92.06060791015625 41.85615539550781 A 5 5 0 0 1 102.06060791015625 41.85615539550781" fill-opacity="1" clip-path="url(#IiffqhsvZZUl)" stroke-opacity="1" stroke-linejoin="bevel" stroke-miterlimit="10" stroke-dasharray=""/><path fill="rgb(18,143,203)" stroke="rgb(18,143,203)" paint-order="fill" d="M 144.18182373046875 12.237876892089844 A 5 5 0 0 1 134.18182373046875 12.237876892089844 A 5 5 0 0 1 144.18182373046875 12.237876892089844" fill-opacity="1" clip-path="url(#IiffqhsvZZUl)" stroke-opacity="1" stroke-linejoin="bevel" stroke-miterlimit="10" stroke-dasharray=""/><path fill="none" stroke="rgb(18,143,203)" paint-order="fill" d="M 12.818181991577148 175.038330078125 L 54.93939208984375 86.8292465209961 L 97.06060791015625 41.85615539550781 L 139.18182373046875 12.237876892089844" stroke-opacity="1" stroke-linejoin="bevel" stroke-miterlimit="10" stroke-width="2" stroke-dasharray="" clip-path="url(#resrzOPLiGVA)"/><path fill="none" stroke="rgb(0,0,0)" paint-order="fill" d="M 6.5 194.5 L 145.5 194.5" stroke-opacity="1" stroke-linejoin="bevel" stroke-miterlimit="10" stroke-dasharray=""/><path fill="none" stroke="rgb(0,0,0)" paint-order="fill" d="" stroke-opacity="1" stroke-linejoin="bevel" stroke-miterlimit="10" stroke-dasharray=""/><path fill="none" stroke="rgb(0,0,0)" paint-order="fill" d="" stroke-opacity="1" stroke-linejoin="bevel" stroke-miterlimit="10" stroke-dasharray=""/><path fill="none" stroke="rgb(0,0,0)" paint-order="fill" d="M 6.5 194.5 L 6.5 5.5" stroke-opacity="1" stroke-linejoin="bevel" stroke-miterlimit="10" stroke-dasharray=""/><path fill="none" stroke="rgb(0,0,0)" paint-order="fill" d="M 0.5 148.5 L 8.5 148.5 M 0.5 105.5 L 8.5 105.5 M 0.5 37.5 L 8.5 37.5" stroke-opacity="1" stroke-linejoin="bevel" stroke-miterlimit="10" stroke-dasharray=""/><path fill="none" stroke="rgb(0,0,0)" paint-order="fill" d="" stroke-opacity="1" stroke-linejoin="bevel" stroke-miterlimit="10" stroke-dasharray=""/><text fill="rgb(68,68,68)" stroke="none" font-family="helvetica" font-size="0pt" font-style="normal" font-weight="normal" text-decoration="normal" x="-5" y="148.31658935546875" text-anchor="start" dominant-baseline="alphabetic" transform="matrix(1, 0, 0, 1, 0.5, 0.5)" fill-opacity="1">7.824</text><text fill="rgb(68,68,68)" stroke="none" font-family="helvetica" font-size="0pt" font-style="normal" font-weight="normal" text-decoration="normal" x="-5" y="105.17399597167969" text-anchor="start" dominant-baseline="alphabetic" transform="matrix(1, 0, 0, 1, 0.5, 0.5)" fill-opacity="1">8.517</text><text fill="rgb(68,68,68)" stroke="none" font-family="helvetica" font-size="0pt" font-style="normal" font-weight="normal" text-decoration="normal" x="-5" y="36.79460525512695" text-anchor="start" dominant-baseline="alphabetic" transform="matrix(1, 0, 0, 1, 0.5, 0.5)" fill-opacity="1">9.616</text><g transform="matrix(1, 0, 0, 1, 150, 0)"><path fill="rgb(255,255,255)" stroke="none" paint-order="stroke" d="M 0.5 0.5 L 150.5 0.5 L 150.5 200.5 L 0.5 200.5 L 0.5 0.5" fill-opacity="1"/><rect fill="#FFFFFF" stroke="none" x="6" y="5" width="139" height="189" transform="matrix(1, 0, 0, 1, 0.5, 0.5)"/><path fill="rgb(255,255,255)" stroke="none" paint-order="stroke" d="M 6.5 5.5 L 145.5 5.5 L 145.5 194.5 L 6.5 194.5 L 6.5 5.5" fill-opacity="1"/><path fill="none" stroke="rgb(0,0,0)" paint-order="fill" d="M 6.5 5.5 L 145.5 5.5 L 145.5 194.5 L 6.5 194.5 L 6.5 5.5" stroke-opacity="1" stroke-linejoin="bevel" stroke-miterlimit="10" stroke-dasharray=""/><path fill="rgb(0,0,0)" stroke="rgb(0,0,0)" paint-order="fill" d="M 17.81818199157715 177.67327880859375 A 5 5 0 0 1 7.818181991577148 177.67327880859375 A 5 5 0 0 1 17.81818199157715 177.67327880859375" fill-opacity="1" clip-path="url(#xzogOTNsIPvK)" stroke-opacity="1" stroke-linejoin="bevel" stroke-miterlimit="10" stroke-dasharray=""/><path fill="rgb(0,0,0)" stroke="rgb(0,0,0)" paint-order="fill" d="M 59.93939208984375 154.79615783691406 A 5 5 0 0 1 49.93939208984375 154.79615783691406 A 5 5 0 0 1 59.93939208984375 154.79615783691406" fill-opacity="1" clip-path="url(#xzogOTNsIPvK)" stroke-opacity="1" stroke-linejoin="bevel" stroke-miterlimit="10" stroke-dasharray=""/><path fill="rgb(0,0,0)" stroke="rgb(0,0,0)" paint-order="fill" d="M 102.06060791015625 137.51010131835938 A 5 5 0 0 1 92.06060791015625 137.51010131835938 A 5 5 0 0 1 102.06060791015625 137.51010131835938" fill-opacity="1" clip-path="url(#xzogOTNsIPvK)" stroke-opacity="1" stroke-linejoin="bevel" stroke-miterlimit="10" stroke-dasharray=""/><path fill="rgb(0,0,0)" stroke="rgb(0,0,0)" paint-order="fill" d="M 144.18182373046875 122.27405548095703 A 5 5 0 0 1 134.18182373046875 122.27405548095703 A 5 5 0 0 1 144.18182373046875 122.27405548095703" fill-opacity="1" clip-path="url(#xzogOTNsIPvK)" stroke-opacity="1" stroke-linejoin="bevel" stroke-miterlimit="10" stroke-dasharray=""/><path fill="none" stroke="rgb(0,0,0)" paint-order="fill" d="M 12.818181991577148 177.67327880859375 L 54.93939208984375 154.79615783691406 L 97.06060791015625 137.51010131835938 L 139.18182373046875 122.27405548095703" stroke-opacity="1" stroke-linejoin="bevel" stroke-miterlimit="10" stroke-width="2" stroke-dasharray="" clip-path="url(#GexwyxSrqcss)"/><path fill="rgb(214,124,53)" stroke="rgb(214,124,53)" paint-order="fill" d="M 17.81818199157715 159.5797576904297 A 5 5 0 0 1 7.818181991577148 159.5797576904297 A 5 5 0 0 1 17.81818199157715 159.5797576904297" fill-opacity="1" clip-path="url(#oeNoQAmTViiq)" stroke-opacity="1" stroke-linejoin="bevel" stroke-miterlimit="10" stroke-dasharray=""/><path fill="rgb(214,124,53)" stroke="rgb(214,124,53)" paint-order="fill" d="M 59.93939208984375 113.58812713623047 A 5 5 0 0 1 49.93939208984375 113.58812713623047 A 5 5 0 0 1 59.93939208984375 113.58812713623047" fill-opacity="1" clip-path="url(#oeNoQAmTViiq)" stroke-opacity="1" stroke-linejoin="bevel" stroke-miterlimit="10" stroke-dasharray=""/><path fill="rgb(214,124,53)" stroke="rgb(214,124,53)" paint-order="fill" d="M 102.06060791015625 113.85729217529297 A 5 5 0 0 1 92.06060791015625 113.85729217529297 A 5 5 0 0 1 102.06060791015625 113.85729217529297" fill-opacity="1" clip-path="url(#oeNoQAmTViiq)" stroke-opacity="1" stroke-linejoin="bevel" stroke-miterlimit="10" stroke-dasharray=""/><path fill="rgb(214,124,53)" stroke="rgb(214,124,53)" paint-order="fill" d="M 144.18182373046875 105.25836181640625 A 5 5 0 0 1 134.18182373046875 105.25836181640625 A 5 5 0 0 1 144.18182373046875 105.25836181640625" fill-opacity="1" clip-path="url(#oeNoQAmTViiq)" stroke-opacity="1" stroke-linejoin="bevel" stroke-miterlimit="10" stroke-dasharray=""/><path fill="none" stroke="rgb(214,124,53)" paint-order="fill" d="M 12.818181991577148 159.5797576904297 L 54.93939208984375 113.58812713623047 L 97.06060791015625 113.85729217529297 L 139.18182373046875 105.25836181640625" stroke-opacity="1" stroke-linejoin="bevel" stroke-miterlimit="10" stroke-width="2" stroke-dasharray="" clip-path="url(#aXRQipmIyiGu)"/><path fill="rgb(18,143,203)" stroke="rgb(18,143,203)" paint-order="fill" d="M 17.81818199157715 175.038330078125 A 5 5 0 0 1 7.818181991577148 175.038330078125 A 5 5 0 0 1 17.81818199157715 175.038330078125" fill-opacity="1" clip-path="url(#UkGmvnbTObkV)" stroke-opacity="1" stroke-linejoin="bevel" stroke-miterlimit="10" stroke-dasharray=""/><path fill="rgb(18,143,203)" stroke="rgb(18,143,203)" paint-order="fill" d="M 59.93939208984375 152.45628356933594 A 5 5 0 0 1 49.93939208984375 152.45628356933594 A 5 5 0 0 1 59.93939208984375 152.45628356933594" fill-opacity="1" clip-path="url(#UkGmvnbTObkV)" stroke-opacity="1" stroke-linejoin="bevel" stroke-miterlimit="10" stroke-dasharray=""/><path fill="rgb(18,143,203)" stroke="rgb(18,143,203)" paint-order="fill" d="M 102.06060791015625 111.29829406738281 A 5 5 0 0 1 92.06060791015625 111.29829406738281 A 5 5 0 0 1 102.06060791015625 111.29829406738281" fill-opacity="1" clip-path="url(#UkGmvnbTObkV)" stroke-opacity="1" stroke-linejoin="bevel" stroke-miterlimit="10" stroke-dasharray=""/><path fill="rgb(18,143,203)" stroke="rgb(18,143,203)" paint-order="fill" d="M 144.18182373046875 119.02056121826172 A 5 5 0 0 1 134.18182373046875 119.02056121826172 A 5 5 0 0 1 144.18182373046875 119.02056121826172" fill-opacity="1" clip-path="url(#UkGmvnbTObkV)" stroke-opacity="1" stroke-linejoin="bevel" stroke-miterlimit="10" stroke-dasharray=""/><path fill="none" stroke="rgb(18,143,203)" paint-order="fill" d="M 12.818181991577148 175.038330078125 L 54.93939208984375 152.45628356933594 L 97.06060791015625 111.29829406738281 L 139.18182373046875 119.02056121826172" stroke-opacity="1" stroke-linejoin="bevel" stroke-miterlimit="10" stroke-width="2" stroke-dasharray="" clip-path="url(#AVSHiauNDpON)"/><path fill="none" stroke="rgb(0,0,0)" paint-order="fill" d="M 6.5 194.5 L 145.5 194.5" stroke-opacity="1" stroke-linejoin="bevel" stroke-miterlimit="10" stroke-dasharray=""/><path fill="none" stroke="rgb(0,0,0)" paint-order="fill" d="" stroke-opacity="1" stroke-linejoin="bevel" stroke-miterlimit="10" stroke-dasharray=""/><path fill="none" stroke="rgb(0,0,0)" paint-order="fill" d="" stroke-opacity="1" stroke-linejoin="bevel" stroke-miterlimit="10" stroke-dasharray=""/><path fill="none" stroke="rgb(0,0,0)" paint-order="fill" d="M 6.5 194.5 L 6.5 5.5" stroke-opacity="1" stroke-linejoin="bevel" stroke-miterlimit="10" stroke-dasharray=""/><path fill="none" stroke="rgb(0,0,0)" paint-order="fill" d="" stroke-opacity="1" stroke-linejoin="bevel" stroke-miterlimit="10" stroke-dasharray=""/><path fill="none" stroke="rgb(0,0,0)" paint-order="fill" d="" stroke-opacity="1" stroke-linejoin="bevel" stroke-miterlimit="10" stroke-dasharray=""/></g><g transform="matrix(1, 0, 0, 1, 300, 0)"><path fill="rgb(255,255,255)" stroke="none" paint-order="stroke" d="M 0.5 0.5 L 150.5 0.5 L 150.5 200.5 L 0.5 200.5 L 0.5 0.5" fill-opacity="1"/><rect fill="#FFFFFF" stroke="none" x="6" y="5" width="139" height="189" transform="matrix(1, 0, 0, 1, 0.5, 0.5)"/><path fill="rgb(255,255,255)" stroke="none" paint-order="stroke" d="M 6.5 5.5 L 145.5 5.5 L 145.5 194.5 L 6.5 194.5 L 6.5 5.5" fill-opacity="1"/><path fill="none" stroke="rgb(0,0,0)" paint-order="fill" d="M 6.5 5.5 L 145.5 5.5 L 145.5 194.5 L 6.5 194.5 L 6.5 5.5" stroke-opacity="1" stroke-linejoin="bevel" stroke-miterlimit="10" stroke-dasharray=""/><path fill="rgb(0,0,0)" stroke="rgb(0,0,0)" paint-order="fill" d="M 17.81818199157715 177.67327880859375 A 5 5 0 0 1 7.818181991577148 177.67327880859375 A 5 5 0 0 1 17.81818199157715 177.67327880859375" fill-opacity="1" clip-path="url(#SFBBsMrgsMPg)" stroke-opacity="1" stroke-linejoin="bevel" stroke-miterlimit="10" stroke-dasharray=""/><path fill="rgb(0,0,0)" stroke="rgb(0,0,0)" paint-order="fill" d="M 59.93939208984375 131.25405883789062 A 5 5 0 0 1 49.93939208984375 131.25405883789062 A 5 5 0 0 1 59.93939208984375 131.25405883789062" fill-opacity="1" clip-path="url(#SFBBsMrgsMPg)" stroke-opacity="1" stroke-linejoin="bevel" stroke-miterlimit="10" stroke-dasharray=""/><path fill="rgb(0,0,0)" stroke="rgb(0,0,0)" paint-order="fill" d="M 102.06060791015625 132.20953369140625 A 5 5 0 0 1 92.06060791015625 132.20953369140625 A 5 5 0 0 1 102.06060791015625 132.20953369140625" fill-opacity="1" clip-path="url(#SFBBsMrgsMPg)" stroke-opacity="1" stroke-linejoin="bevel" stroke-miterlimit="10" stroke-dasharray=""/><path fill="rgb(0,0,0)" stroke="rgb(0,0,0)" paint-order="fill" d="M 144.18182373046875 116.20085144042969 A 5 5 0 0 1 134.18182373046875 116.20085144042969 A 5 5 0 0 1 144.18182373046875 116.20085144042969" fill-opacity="1" clip-path="url(#SFBBsMrgsMPg)" stroke-opacity="1" stroke-linejoin="bevel" stroke-miterlimit="10" stroke-dasharray=""/><path fill="none" stroke="rgb(0,0,0)" paint-order="fill" d="M 12.818181991577148 177.67327880859375 L 54.93939208984375 131.25405883789062 L 97.06060791015625 132.20953369140625 L 139.18182373046875 116.20085144042969" stroke-opacity="1" stroke-linejoin="bevel" stroke-miterlimit="10" stroke-width="2" stroke-dasharray="" clip-path="url(#xElMDVmAWNEk)"/><path fill="rgb(214,124,53)" stroke="rgb(214,124,53)" paint-order="fill" d="M 17.81818199157715 159.5797576904297 A 5 5 0 0 1 7.818181991577148 159.5797576904297 A 5 5 0 0 1 17.81818199157715 159.5797576904297" fill-opacity="1" clip-path="url(#oZxJQuzMndLE)" stroke-opacity="1" stroke-linejoin="bevel" stroke-miterlimit="10" stroke-dasharray=""/><path fill="rgb(214,124,53)" stroke="rgb(214,124,53)" paint-order="fill" d="M 59.93939208984375 122.57546997070312 A 5 5 0 0 1 49.93939208984375 122.57546997070312 A 5 5 0 0 1 59.93939208984375 122.57546997070312" fill-opacity="1" clip-path="url(#oZxJQuzMndLE)" stroke-opacity="1" stroke-linejoin="bevel" stroke-miterlimit="10" stroke-dasharray=""/><path fill="rgb(214,124,53)" stroke="rgb(214,124,53)" paint-order="fill" d="M 102.06060791015625 120.4087905883789 A 5 5 0 0 1 92.06060791015625 120.4087905883789 A 5 5 0 0 1 102.06060791015625 120.4087905883789" fill-opacity="1" clip-path="url(#oZxJQuzMndLE)" stroke-opacity="1" stroke-linejoin="bevel" stroke-miterlimit="10" stroke-dasharray=""/><path fill="rgb(214,124,53)" stroke="rgb(214,124,53)" paint-order="fill" d="M 144.18182373046875 96.31280517578125 A 5 5 0 0 1 134.18182373046875 96.31280517578125 A 5 5 0 0 1 144.18182373046875 96.31280517578125" fill-opacity="1" clip-path="url(#oZxJQuzMndLE)" stroke-opacity="1" stroke-linejoin="bevel" stroke-miterlimit="10" stroke-dasharray=""/><path fill="none" stroke="rgb(214,124,53)" paint-order="fill" d="M 12.818181991577148 159.5797576904297 L 54.93939208984375 122.57546997070312 L 97.06060791015625 120.4087905883789 L 139.18182373046875 96.31280517578125" stroke-opacity="1" stroke-linejoin="bevel" stroke-miterlimit="10" stroke-width="2" stroke-dasharray="" clip-path="url(#JGSsAoeCOgfl)"/><path fill="rgb(18,143,203)" stroke="rgb(18,143,203)" paint-order="fill" d="M 17.81818199157715 175.038330078125 A 5 5 0 0 1 7.818181991577148 175.038330078125 A 5 5 0 0 1 17.81818199157715 175.038330078125" fill-opacity="1" clip-path="url(#cBBqsJWJbxdt)" stroke-opacity="1" stroke-linejoin="bevel" stroke-miterlimit="10" stroke-dasharray=""/><path fill="rgb(18,143,203)" stroke="rgb(18,143,203)" paint-order="fill" d="M 59.93939208984375 155.19483947753906 A 5 5 0 0 1 49.93939208984375 155.19483947753906 A 5 5 0 0 1 59.93939208984375 155.19483947753906" fill-opacity="1" clip-path="url(#cBBqsJWJbxdt)" stroke-opacity="1" stroke-linejoin="bevel" stroke-miterlimit="10" stroke-dasharray=""/><path fill="rgb(18,143,203)" stroke="rgb(18,143,203)" paint-order="fill" d="M 102.06060791015625 129.13145446777344 A 5 5 0 0 1 92.06060791015625 129.13145446777344 A 5 5 0 0 1 102.06060791015625 129.13145446777344" fill-opacity="1" clip-path="url(#cBBqsJWJbxdt)" stroke-opacity="1" stroke-linejoin="bevel" stroke-miterlimit="10" stroke-dasharray=""/><path fill="rgb(18,143,203)" stroke="rgb(18,143,203)" paint-order="fill" d="M 144.18182373046875 99.20650482177734 A 5 5 0 0 1 134.18182373046875 99.20650482177734 A 5 5 0 0 1 144.18182373046875 99.20650482177734" fill-opacity="1" clip-path="url(#cBBqsJWJbxdt)" stroke-opacity="1" stroke-linejoin="bevel" stroke-miterlimit="10" stroke-dasharray=""/><path fill="none" stroke="rgb(18,143,203)" paint-order="fill" d="M 12.818181991577148 175.038330078125 L 54.93939208984375 155.19483947753906 L 97.06060791015625 129.13145446777344 L 139.18182373046875 99.20650482177734" stroke-opacity="1" stroke-linejoin="bevel" stroke-miterlimit="10" stroke-width="2" stroke-dasharray="" clip-path="url(#QUxxzfphOatM)"/><path fill="none" stroke="rgb(0,0,0)" paint-order="fill" d="M 6.5 194.5 L 145.5 194.5" stroke-opacity="1" stroke-linejoin="bevel" stroke-miterlimit="10" stroke-dasharray=""/><path fill="none" stroke="rgb(0,0,0)" paint-order="fill" d="" stroke-opacity="1" stroke-linejoin="bevel" stroke-miterlimit="10" stroke-dasharray=""/><path fill="none" stroke="rgb(0,0,0)" paint-order="fill" d="" stroke-opacity="1" stroke-linejoin="bevel" stroke-miterlimit="10" stroke-dasharray=""/><path fill="none" stroke="rgb(0,0,0)" paint-order="fill" d="M 6.5 194.5 L 6.5 5.5" stroke-opacity="1" stroke-linejoin="bevel" stroke-miterlimit="10" stroke-dasharray=""/><path fill="none" stroke="rgb(0,0,0)" paint-order="fill" d="" stroke-opacity="1" stroke-linejoin="bevel" stroke-miterlimit="10" stroke-dasharray=""/><path fill="none" stroke="rgb(0,0,0)" paint-order="fill" d="" stroke-opacity="1" stroke-linejoin="bevel" stroke-miterlimit="10" stroke-dasharray=""/></g><g transform="matrix(1, 0, 0, 1, 450, 0)"><path fill="rgb(255,255,255)" stroke="none" paint-order="stroke" d="M 0.5 0.5 L 150.5 0.5 L 150.5 200.5 L 0.5 200.5 L 0.5 0.5" fill-opacity="1"/><rect fill="#FFFFFF" stroke="none" x="6" y="5" width="139" height="189" transform="matrix(1, 0, 0, 1, 0.5, 0.5)"/><path fill="rgb(255,255,255)" stroke="none" paint-order="stroke" d="M 6.5 5.5 L 145.5 5.5 L 145.5 194.5 L 6.5 194.5 L 6.5 5.5" fill-opacity="1"/><path fill="none" stroke="rgb(0,0,0)" paint-order="fill" d="M 6.5 5.5 L 145.5 5.5 L 145.5 194.5 L 6.5 194.5 L 6.5 5.5" stroke-opacity="1" stroke-linejoin="bevel" stroke-miterlimit="10" stroke-dasharray=""/><path fill="rgb(0,0,0)" stroke="rgb(0,0,0)" paint-order="fill" d="M 17.81818199157715 177.67327880859375 A 5 5 0 0 1 7.818181991577148 177.67327880859375 A 5 5 0 0 1 17.81818199157715 177.67327880859375" fill-opacity="1" clip-path="url(#MiCycIkUpQrq)" stroke-opacity="1" stroke-linejoin="bevel" stroke-miterlimit="10" stroke-dasharray=""/><path fill="rgb(0,0,0)" stroke="rgb(0,0,0)" paint-order="fill" d="M 59.93939208984375 175.07627868652344 A 5 5 0 0 1 49.93939208984375 175.07627868652344 A 5 5 0 0 1 59.93939208984375 175.07627868652344" fill-opacity="1" clip-path="url(#MiCycIkUpQrq)" stroke-opacity="1" stroke-linejoin="bevel" stroke-miterlimit="10" stroke-dasharray=""/><path fill="rgb(0,0,0)" stroke="rgb(0,0,0)" paint-order="fill" d="M 102.06060791015625 184.2640838623047 A 5 5 0 0 1 92.06060791015625 184.2640838623047 A 5 5 0 0 1 102.06060791015625 184.2640838623047" fill-opacity="1" clip-path="url(#MiCycIkUpQrq)" stroke-opacity="1" stroke-linejoin="bevel" stroke-miterlimit="10" stroke-dasharray=""/><path fill="rgb(0,0,0)" stroke="rgb(0,0,0)" paint-order="fill" d="M 144.18182373046875 165.45729064941406 A 5 5 0 0 1 134.18182373046875 165.45729064941406 A 5 5 0 0 1 144.18182373046875 165.45729064941406" fill-opacity="1" clip-path="url(#MiCycIkUpQrq)" stroke-opacity="1" stroke-linejoin="bevel" stroke-miterlimit="10" stroke-dasharray=""/><path fill="none" stroke="rgb(0,0,0)" paint-order="fill" d="M 12.818181991577148 177.67327880859375 L 54.93939208984375 175.07627868652344 L 97.06060791015625 184.2640838623047 L 139.18182373046875 165.45729064941406" stroke-opacity="1" stroke-linejoin="bevel" stroke-miterlimit="10" stroke-width="2" stroke-dasharray="" clip-path="url(#owpPetTGcqVh)"/><path fill="rgb(214,124,53)" stroke="rgb(214,124,53)" paint-order="fill" d="M 17.81818199157715 159.5797576904297 A 5 5 0 0 1 7.818181991577148 159.5797576904297 A 5 5 0 0 1 17.81818199157715 159.5797576904297" fill-opacity="1" clip-path="url(#cOvCVfhbXiNw)" stroke-opacity="1" stroke-linejoin="bevel" stroke-miterlimit="10" stroke-dasharray=""/><path fill="rgb(214,124,53)" stroke="rgb(214,124,53)" paint-order="fill" d="M 59.93939208984375 148.91624450683594 A 5 5 0 0 1 49.93939208984375 148.91624450683594 A 5 5 0 0 1 59.93939208984375 148.91624450683594" fill-opacity="1" clip-path="url(#cOvCVfhbXiNw)" stroke-opacity="1" stroke-linejoin="bevel" stroke-miterlimit="10" stroke-dasharray=""/><path fill="rgb(214,124,53)" stroke="rgb(214,124,53)" paint-order="fill" d="M 102.06060791015625 162.58103942871094 A 5 5 0 0 1 92.06060791015625 162.58103942871094 A 5 5 0 0 1 102.06060791015625 162.58103942871094" fill-opacity="1" clip-path="url(#cOvCVfhbXiNw)" stroke-opacity="1" stroke-linejoin="bevel" stroke-miterlimit="10" stroke-dasharray=""/><path fill="rgb(214,124,53)" stroke="rgb(214,124,53)" paint-order="fill" d="M 144.18182373046875 157.0140838623047 A 5 5 0 0 1 134.18182373046875 157.0140838623047 A 5 5 0 0 1 144.18182373046875 157.0140838623047" fill-opacity="1" clip-path="url(#cOvCVfhbXiNw)" stroke-opacity="1" stroke-linejoin="bevel" stroke-miterlimit="10" stroke-dasharray=""/><path fill="none" stroke="rgb(214,124,53)" paint-order="fill" d="M 12.818181991577148 159.5797576904297 L 54.93939208984375 148.91624450683594 L 97.06060791015625 162.58103942871094 L 139.18182373046875 157.0140838623047" stroke-opacity="1" stroke-linejoin="bevel" stroke-miterlimit="10" stroke-width="2" stroke-dasharray="" clip-path="url(#syadrNlhLCuy)"/><path fill="rgb(18,143,203)" stroke="rgb(18,143,203)" paint-order="fill" d="M 17.81818199157715 175.038330078125 A 5 5 0 0 1 7.818181991577148 175.038330078125 A 5 5 0 0 1 17.81818199157715 175.038330078125" fill-opacity="1" clip-path="url(#TbVrdTrdEgba)" stroke-opacity="1" stroke-linejoin="bevel" stroke-miterlimit="10" stroke-dasharray=""/><path fill="rgb(18,143,203)" stroke="rgb(18,143,203)" paint-order="fill" d="M 59.93939208984375 170.80357360839844 A 5 5 0 0 1 49.93939208984375 170.80357360839844 A 5 5 0 0 1 59.93939208984375 170.80357360839844" fill-opacity="1" clip-path="url(#TbVrdTrdEgba)" stroke-opacity="1" stroke-linejoin="bevel" stroke-miterlimit="10" stroke-dasharray=""/><path fill="rgb(18,143,203)" stroke="rgb(18,143,203)" paint-order="fill" d="M 102.06060791015625 156.49085998535156 A 5 5 0 0 1 92.06060791015625 156.49085998535156 A 5 5 0 0 1 102.06060791015625 156.49085998535156" fill-opacity="1" clip-path="url(#TbVrdTrdEgba)" stroke-opacity="1" stroke-linejoin="bevel" stroke-miterlimit="10" stroke-dasharray=""/><path fill="rgb(18,143,203)" stroke="rgb(18,143,203)" paint-order="fill" d="M 144.18182373046875 165.18142700195312 A 5 5 0 0 1 134.18182373046875 165.18142700195312 A 5 5 0 0 1 144.18182373046875 165.18142700195312" fill-opacity="1" clip-path="url(#TbVrdTrdEgba)" stroke-opacity="1" stroke-linejoin="bevel" stroke-miterlimit="10" stroke-dasharray=""/><path fill="none" stroke="rgb(18,143,203)" paint-order="fill" d="M 12.818181991577148 175.038330078125 L 54.93939208984375 170.80357360839844 L 97.06060791015625 156.49085998535156 L 139.18182373046875 165.18142700195312" stroke-opacity="1" stroke-linejoin="bevel" stroke-miterlimit="10" stroke-width="2" stroke-dasharray="" clip-path="url(#EWbKvPrTvekI)"/><path fill="none" stroke="rgb(0,0,0)" paint-order="fill" d="M 6.5 194.5 L 145.5 194.5" stroke-opacity="1" stroke-linejoin="bevel" stroke-miterlimit="10" stroke-dasharray=""/><path fill="none" stroke="rgb(0,0,0)" paint-order="fill" d="" stroke-opacity="1" stroke-linejoin="bevel" stroke-miterlimit="10" stroke-dasharray=""/><path fill="none" stroke="rgb(0,0,0)" paint-order="fill" d="" stroke-opacity="1" stroke-linejoin="bevel" stroke-miterlimit="10" stroke-dasharray=""/><path fill="none" stroke="rgb(0,0,0)" paint-order="fill" d="M 6.5 194.5 L 6.5 5.5" stroke-opacity="1" stroke-linejoin="bevel" stroke-miterlimit="10" stroke-dasharray=""/><path fill="none" stroke="rgb(0,0,0)" paint-order="fill" d="" stroke-opacity="1" stroke-linejoin="bevel" stroke-miterlimit="10" stroke-dasharray=""/><path fill="none" stroke="rgb(0,0,0)" paint-order="fill" d="" stroke-opacity="1" stroke-linejoin="bevel" stroke-miterlimit="10" stroke-dasharray=""/></g></g></svg>