<?xml version="1.0" encoding="utf-8" standalone="no"?>
<!DOCTYPE svg PUBLIC "-//W3C//DTD SVG 1.1//EN"
  "http://www.w3.org/Graphics/SVG/1.1/DTD/svg11.dtd">
<svg xmlns:xlink="http://www.w3.org/1999/xlink" width="720pt" height="720pt" viewBox="0 0 720 720" xmlns="http://www.w3.org/2000/svg" version="1.1">
 <metadata>
  <rdf:RDF xmlns:dc="http://purl.org/dc/elements/1.1/" xmlns:cc="http://creativecommons.org/ns#" xmlns:rdf="http://www.w3.org/1999/02/22-rdf-syntax-ns#">
   <cc:Work>
    <dc:type rdf:resource="http://purl.org/dc/dcmitype/StillImage"/>
    <dc:date>2022-10-13T15:40:51.949710</dc:date>
    <dc:format>image/svg+xml</dc:format>
    <dc:creator>
     <cc:Agent>
      <dc:title>Matplotlib v3.5.1, https://matplotlib.org/</dc:title>
     </cc:Agent>
    </dc:creator>
   </cc:Work>
  </rdf:RDF>
 </metadata>
 <defs>
  <style type="text/css">*{stroke-linejoin: round; stroke-linecap: butt}</style>
 </defs>
 <g id="figure_1">
  <g id="patch_1">
   <path d="M 0 720 
L 720 720 
L 720 0 
L 0 0 
L 0 720 
z
" style="fill: none"/>
  </g>
  <g id="axes_1">
   <g id="patch_2">
    <path d="M 90 222.29999 
L 648 222.29999 
L 648 86.4 
L 90 86.4 
z
" style="fill: #ffffff"/>
   </g>
   <g id="PathCollection_1"/>
   <g id="PathCollection_2"/>
   <g id="matplotlib.axis_1"/>
   <g id="matplotlib.axis_2"/>
   <g id="patch_3">
    <path d="M 90 222.29999 
L 90 86.4 
" style="fill: none; stroke: #000000; stroke-width: 0.8; stroke-linejoin: miter; stroke-linecap: square"/>
   </g>
   <g id="patch_4">
    <path d="M 648 222.29999 
L 648 86.4 
" style="fill: none; stroke: #000000; stroke-width: 0.8; stroke-linejoin: miter; stroke-linecap: square"/>
   </g>
   <g id="patch_5">
    <path d="M 90 222.29999 
L 648 222.29999 
" style="fill: none; stroke: #000000; stroke-width: 0.8; stroke-linejoin: miter; stroke-linecap: square"/>
   </g>
   <g id="patch_6">
    <path d="M 90 86.4 
L 648 86.4 
" style="fill: none; stroke: #000000; stroke-width: 0.8; stroke-linejoin: miter; stroke-linecap: square"/>
   </g>
   <g id="PathCollection_3">
    <defs>
     <path id="C0_0_64e266b9e8" d="M 0 7.5 
C 1.989023 7.5 3.896849 6.709753 5.303301 5.303301 
C 6.709753 3.896849 7.5 1.989023 7.5 -0 
C 7.5 -1.989023 6.709753 -3.896849 5.303301 -5.303301 
C 3.896849 -6.709753 1.989023 -7.5 0 -7.5 
C -1.989023 -7.5 -3.896849 -6.709753 -5.303301 -5.303301 
C -6.709753 -3.896849 -7.5 -1.989023 -7.5 0 
C -7.5 1.989023 -6.709753 3.896849 -5.303301 5.303301 
C -3.896849 6.709753 -1.989023 7.5 0 7.5 
z
"/>
    </defs>
    <g clip-path="url(#p98bdccedb0)">
     <use xlink:href="#C0_0_64e266b9e8" x="139.425753" y="109.049998" style="fill: #0000ff; fill-opacity: 0.5"/>
    </g>
    <g clip-path="url(#p98bdccedb0)">
     <use xlink:href="#C0_0_64e266b9e8" x="404.212609" y="109.049998" style="fill: #ff0000; fill-opacity: 0.5"/>
    </g>
   </g>
   <g id="PathCollection_4">
    <defs>
     <path id="C1_0_00e321f63d" d="M 0 7.5 
C 1.989023 7.5 3.896849 6.709753 5.303301 5.303301 
C 6.709753 3.896849 7.5 1.989023 7.5 -0 
C 7.5 -1.989023 6.709753 -3.896849 5.303301 -5.303301 
C 3.896849 -6.709753 1.989023 -7.5 0 -7.5 
C -1.989023 -7.5 -3.896849 -6.709753 -5.303301 -5.303301 
C -6.709753 -3.896849 -7.5 -1.989023 -7.5 0 
C -7.5 1.989023 -6.709753 3.896849 -5.303301 5.303301 
C -3.896849 6.709753 -1.989023 7.5 0 7.5 
z
"/>
    </defs>
    <g clip-path="url(#p98bdccedb0)">
     <use xlink:href="#C1_0_00e321f63d" x="200.305415" y="154.349995" style="fill: #0000ff; fill-opacity: 0.5"/>
    </g>
    <g clip-path="url(#p98bdccedb0)">
     <use xlink:href="#C1_0_00e321f63d" x="396.503853" y="154.349995" style="fill: #ff0000; fill-opacity: 0.5"/>
    </g>
   </g>
   <g id="PathCollection_5">
    <defs>
     <path id="C2_0_7a69d68b92" d="M 0 7.5 
C 1.989023 7.5 3.896849 6.709753 5.303301 5.303301 
C 6.709753 3.896849 7.5 1.989023 7.5 -0 
C 7.5 -1.989023 6.709753 -3.896849 5.303301 -5.303301 
C 3.896849 -6.709753 1.989023 -7.5 0 -7.5 
C -1.989023 -7.5 -3.896849 -6.709753 -5.303301 -5.303301 
C -6.709753 -3.896849 -7.5 -1.989023 -7.5 0 
C -7.5 1.989023 -6.709753 3.896849 -5.303301 5.303301 
C -3.896849 6.709753 -1.989023 7.5 0 7.5 
z
"/>
    </defs>
    <g clip-path="url(#p98bdccedb0)">
     <use xlink:href="#C2_0_7a69d68b92" x="391.286508" y="199.649992" style="fill: #0000ff; fill-opacity: 0.5"/>
    </g>
    <g clip-path="url(#p98bdccedb0)">
     <use xlink:href="#C2_0_7a69d68b92" x="459.334658" y="199.649992" style="fill: #ff0000; fill-opacity: 0.5"/>
    </g>
   </g>
  </g>
  <g id="axes_2">
   <g id="patch_7">
    <path d="M 90 358.199993 
L 648 358.199993 
L 648 222.300003 
L 90 222.300003 
z
" style="fill: #ffffff"/>
   </g>
   <g id="PolyCollection_1">
    <defs>
     <path id="m957c39dbfd" d="M 245.041553 -361.801948 
L 245.041553 -361.800007 
L 246.201185 -361.800007 
L 247.360817 -361.800007 
L 248.520448 -361.800007 
L 249.68008 -361.800007 
L 250.839712 -361.800007 
L 251.999343 -361.800007 
L 253.158975 -361.800007 
L 254.318606 -361.800007 
L 255.478238 -361.800007 
L 256.63787 -361.800007 
L 257.797501 -361.800007 
L 258.957133 -361.800007 
L 260.116765 -361.800007 
L 261.276396 -361.800007 
L 262.436028 -361.800007 
L 263.595659 -361.800007 
L 264.755291 -361.800007 
L 265.914923 -361.800007 
L 267.074554 -361.800007 
L 268.234186 -361.800007 
L 269.393818 -361.800007 
L 270.553449 -361.800007 
L 271.713081 -361.800007 
L 272.872712 -361.800007 
L 274.032344 -361.800007 
L 275.191976 -361.800007 
L 276.351607 -361.800007 
L 277.511239 -361.800007 
L 278.670871 -361.800007 
L 279.830502 -361.800007 
L 280.990134 -361.800007 
L 282.149765 -361.800007 
L 283.309397 -361.800007 
L 284.469029 -361.800007 
L 285.62866 -361.800007 
L 286.788292 -361.800007 
L 287.947923 -361.800007 
L 289.107555 -361.800007 
L 290.267187 -361.800007 
L 291.426818 -361.800007 
L 292.58645 -361.800007 
L 293.746082 -361.800007 
L 294.905713 -361.800007 
L 296.065345 -361.800007 
L 297.224976 -361.800007 
L 298.384608 -361.800007 
L 299.54424 -361.800007 
L 300.703871 -361.800007 
L 301.863503 -361.800007 
L 303.023135 -361.800007 
L 304.182766 -361.800007 
L 305.342398 -361.800007 
L 306.502029 -361.800007 
L 307.661661 -361.800007 
L 308.821293 -361.800007 
L 309.980924 -361.800007 
L 311.140556 -361.800007 
L 312.300188 -361.800007 
L 313.459819 -361.800007 
L 314.619451 -361.800007 
L 315.779082 -361.800007 
L 316.938714 -361.800007 
L 318.098346 -361.800007 
L 319.257977 -361.800007 
L 320.417609 -361.800007 
L 321.577241 -361.800007 
L 322.736872 -361.800007 
L 323.896504 -361.800007 
L 325.056135 -361.800007 
L 326.215767 -361.800007 
L 327.375399 -361.800007 
L 328.53503 -361.800007 
L 329.694662 -361.800007 
L 330.854294 -361.800007 
L 332.013925 -361.800007 
L 333.173557 -361.800007 
L 334.333188 -361.800007 
L 335.49282 -361.800007 
L 336.652452 -361.800007 
L 337.812083 -361.800007 
L 338.971715 -361.800007 
L 340.131347 -361.800007 
L 341.290978 -361.800007 
L 342.45061 -361.800007 
L 343.610241 -361.800007 
L 344.769873 -361.800007 
L 345.929505 -361.800007 
L 347.089136 -361.800007 
L 348.248768 -361.800007 
L 349.4084 -361.800007 
L 350.568031 -361.800007 
L 351.727663 -361.800007 
L 352.887294 -361.800007 
L 354.046926 -361.800007 
L 355.206558 -361.800007 
L 356.366189 -361.800007 
L 357.525821 -361.800007 
L 358.685452 -361.800007 
L 359.845084 -361.800007 
L 361.004716 -361.800007 
L 362.164347 -361.800007 
L 363.323979 -361.800007 
L 364.483611 -361.800007 
L 365.643242 -361.800007 
L 366.802874 -361.800007 
L 367.962505 -361.800007 
L 369.122137 -361.800007 
L 370.281769 -361.800007 
L 371.4414 -361.800007 
L 372.601032 -361.800007 
L 373.760664 -361.800007 
L 374.920295 -361.800007 
L 376.079927 -361.800007 
L 377.239558 -361.800007 
L 378.39919 -361.800007 
L 379.558822 -361.800007 
L 380.718453 -361.800007 
L 381.878085 -361.800007 
L 383.037717 -361.800007 
L 384.197348 -361.800007 
L 385.35698 -361.800007 
L 386.516611 -361.800007 
L 387.676243 -361.800007 
L 388.835875 -361.800007 
L 389.995506 -361.800007 
L 391.155138 -361.800007 
L 392.31477 -361.800007 
L 393.474401 -361.800007 
L 394.634033 -361.800007 
L 395.793664 -361.800007 
L 396.953296 -361.800007 
L 398.112928 -361.800007 
L 399.272559 -361.800007 
L 400.432191 -361.800007 
L 401.591823 -361.800007 
L 402.751454 -361.800007 
L 403.911086 -361.800007 
L 405.070717 -361.800007 
L 406.230349 -361.800007 
L 407.389981 -361.800007 
L 408.549612 -361.800007 
L 409.709244 -361.800007 
L 410.868876 -361.800007 
L 412.028507 -361.800007 
L 413.188139 -361.800007 
L 414.34777 -361.800007 
L 415.507402 -361.800007 
L 416.667034 -361.800007 
L 417.826665 -361.800007 
L 418.986297 -361.800007 
L 420.145929 -361.800007 
L 421.30556 -361.800007 
L 422.465192 -361.800007 
L 423.624823 -361.800007 
L 424.784455 -361.800007 
L 425.944087 -361.800007 
L 427.103718 -361.800007 
L 428.26335 -361.800007 
L 429.422981 -361.800007 
L 430.582613 -361.800007 
L 431.742245 -361.800007 
L 432.901876 -361.800007 
L 434.061508 -361.800007 
L 435.22114 -361.800007 
L 436.380771 -361.800007 
L 437.540403 -361.800007 
L 438.700034 -361.800007 
L 439.859666 -361.800007 
L 441.019298 -361.800007 
L 442.178929 -361.800007 
L 443.338561 -361.800007 
L 444.498193 -361.800007 
L 445.657824 -361.800007 
L 446.817456 -361.800007 
L 447.977087 -361.800007 
L 449.136719 -361.800007 
L 450.296351 -361.800007 
L 451.455982 -361.800007 
L 452.615614 -361.800007 
L 453.775246 -361.800007 
L 454.934877 -361.800007 
L 456.094509 -361.800007 
L 457.25414 -361.800007 
L 458.413772 -361.800007 
L 459.573404 -361.800007 
L 460.733035 -361.800007 
L 461.892667 -361.800007 
L 463.052299 -361.800007 
L 464.21193 -361.800007 
L 465.371562 -361.800007 
L 466.531193 -361.800007 
L 467.690825 -361.800007 
L 468.850457 -361.800007 
L 470.010088 -361.800007 
L 471.16972 -361.800007 
L 472.329352 -361.800007 
L 473.488983 -361.800007 
L 474.648615 -361.800007 
L 475.808246 -361.800007 
L 475.808246 -361.801904 
L 475.808246 -361.801904 
L 474.648615 -361.803503 
L 473.488983 -361.806169 
L 472.329352 -361.810393 
L 471.16972 -361.81675 
L 470.010088 -361.82582 
L 468.850457 -361.838072 
L 467.690825 -361.853698 
L 466.531193 -361.872451 
L 465.371562 -361.893532 
L 464.21193 -361.915574 
L 463.052299 -361.936789 
L 461.892667 -361.955268 
L 460.733035 -361.969424 
L 459.573404 -361.978472 
L 458.413772 -361.982852 
L 457.25414 -361.984468 
L 456.094509 -361.98668 
L 454.934877 -361.99399 
L 453.775246 -362.011478 
L 452.615614 -362.044033 
L 451.455982 -362.095519 
L 450.296351 -362.168008 
L 449.136719 -362.261241 
L 447.977087 -362.372447 
L 446.817456 -362.496606 
L 445.657824 -362.627149 
L 444.498193 -362.756961 
L 443.338561 -362.879475 
L 442.178929 -362.989618 
L 441.019298 -363.084415 
L 439.859666 -363.163176 
L 438.700034 -363.227362 
L 437.540403 -363.28027 
L 436.380771 -363.326724 
L 435.22114 -363.372847 
L 434.061508 -363.425865 
L 432.901876 -363.493783 
L 431.742245 -363.584794 
L 430.582613 -363.706313 
L 429.422981 -363.863746 
L 428.26335 -364.05919 
L 427.103718 -364.29042 
L 425.944087 -364.550447 
L 424.784455 -364.827894 
L 423.624823 -365.108204 
L 422.465192 -365.375582 
L 421.30556 -365.615341 
L 420.145929 -365.816292 
L 418.986297 -365.97272 
L 417.826665 -366.085615 
L 416.667034 -366.162916 
L 415.507402 -366.218742 
L 414.34777 -366.271781 
L 413.188139 -366.343164 
L 412.028507 -366.454211 
L 410.868876 -366.624425 
L 409.709244 -366.870012 
L 408.549612 -367.20308 
L 407.389981 -367.631505 
L 406.230349 -368.159372 
L 405.070717 -368.787796 
L 403.911086 -369.515877 
L 402.751454 -370.341524 
L 401.591823 -371.261962 
L 400.432191 -372.273763 
L 399.272559 -373.372446 
L 398.112928 -374.551775 
L 396.953296 -375.803007 
L 395.793664 -377.114376 
L 394.634033 -378.471074 
L 393.474401 -379.855908 
L 392.31477 -381.250663 
L 391.155138 -382.638077 
L 389.995506 -384.004156 
L 388.835875 -385.340449 
L 387.676243 -386.645829 
L 386.516611 -387.927369 
L 385.35698 -389.200038 
L 384.197348 -390.485144 
L 383.037717 -391.807732 
L 381.878085 -393.193406 
L 380.718453 -394.665189 
L 379.558822 -396.241079 
L 378.39919 -397.932777 
L 377.239558 -399.745678 
L 376.079927 -401.679832 
L 374.920295 -403.731165 
L 373.760664 -405.892225 
L 372.601032 -408.151911 
L 371.4414 -410.494227 
L 370.281769 -412.896685 
L 369.122137 -415.329418 
L 367.962505 -417.756043 
L 366.802874 -420.136832 
L 365.643242 -422.433905 
L 364.483611 -424.617273 
L 363.323979 -426.669998 
L 362.164347 -428.590809 
L 361.004716 -430.393203 
L 359.845084 -432.101256 
L 358.685452 -433.743612 
L 357.525821 -435.347797 
L 356.366189 -436.93695 
L 355.206558 -438.530027 
L 354.046926 -440.144995 
L 352.887294 -441.803121 
L 351.727663 -443.531712 
L 350.568031 -445.363145 
L 349.4084 -447.329418 
L 348.248768 -449.453446 
L 347.089136 -451.739888 
L 345.929505 -454.168973 
L 344.769873 -456.695991 
L 343.610241 -459.257287 
L 342.45061 -461.781257 
L 341.290978 -464.200961 
L 340.131347 -466.464283 
L 338.971715 -468.538417 
L 337.812083 -470.407457 
L 336.652452 -472.064454 
L 335.49282 -473.501226 
L 334.333188 -474.70004 
L 333.173557 -475.630448 
L 332.013925 -476.252626 
L 330.854294 -476.526122 
L 329.694662 -476.420976 
L 328.53503 -475.92728 
L 327.375399 -475.059819 
L 326.215767 -473.855978 
L 325.056135 -472.367304 
L 323.896504 -470.647005 
L 322.736872 -468.736936 
L 321.577241 -466.657774 
L 320.417609 -464.405246 
L 319.257977 -461.953693 
L 318.098346 -459.266254 
L 316.938714 -456.309083 
L 315.779082 -453.065796 
L 314.619451 -449.548069 
L 313.459819 -445.799267 
L 312.300188 -441.88992 
L 311.140556 -437.906251 
L 309.980924 -433.935019 
L 308.821293 -430.048892 
L 307.661661 -426.296163 
L 306.502029 -422.696959 
L 305.342398 -419.245948 
L 304.182766 -415.919714 
L 303.023135 -412.686059 
L 301.863503 -409.51275 
L 300.703871 -406.374169 
L 299.54424 -403.255481 
L 298.384608 -400.154737 
L 297.224976 -397.083459 
L 296.065345 -394.066014 
L 294.905713 -391.137618 
L 293.746082 -388.34072 
L 292.58645 -385.719703 
L 291.426818 -383.314409 
L 290.267187 -381.153616 
L 289.107555 -379.249863 
L 287.947923 -377.596937 
L 286.788292 -376.170746 
L 285.62866 -374.933446 
L 284.469029 -373.839874 
L 283.309397 -372.844791 
L 282.149765 -371.909331 
L 280.990134 -371.005417 
L 279.830502 -370.11752 
L 278.670871 -369.241894 
L 277.511239 -368.383958 
L 276.351607 -367.554775 
L 275.191976 -366.767547 
L 274.032344 -366.034771 
L 272.872712 -365.366369 
L 271.713081 -364.768779 
L 270.553449 -364.244807 
L 269.393818 -363.793952 
L 268.234186 -363.412974 
L 267.074554 -363.096518 
L 265.914923 -362.837723 
L 264.755291 -362.628814 
L 263.595659 -362.461672 
L 262.436028 -362.328386 
L 261.276396 -362.221756 
L 260.116765 -362.135678 
L 258.957133 -362.065357 
L 257.797501 -362.007319 
L 256.63787 -361.959234 
L 255.478238 -361.919614 
L 254.318606 -361.887471 
L 253.158975 -361.862029 
L 251.999343 -361.842519 
L 250.839712 -361.828102 
L 249.68008 -361.817875 
L 248.520448 -361.810926 
L 247.360817 -361.806411 
L 246.201185 -361.803609 
L 245.041553 -361.801948 
z
" style="stroke: #ff0000; stroke-width: 8"/>
    </defs>
    <g clip-path="url(#pf2d30b0c6d)">
     <use xlink:href="#m957c39dbfd" x="0" y="720" style="fill: #ff0000; fill-opacity: 0.5; stroke: #ff0000; stroke-width: 8"/>
    </g>
   </g>
   <g id="PolyCollection_2">
    <defs>
     <path id="mfa41c6221f" d="M 91.690852 -361.80458 
L 91.690852 -361.800007 
L 93.352115 -361.800007 
L 95.013377 -361.800007 
L 96.67464 -361.800007 
L 98.335902 -361.800007 
L 99.997165 -361.800007 
L 101.658427 -361.800007 
L 103.31969 -361.800007 
L 104.980952 -361.800007 
L 106.642215 -361.800007 
L 108.303477 -361.800007 
L 109.96474 -361.800007 
L 111.626002 -361.800007 
L 113.287265 -361.800007 
L 114.948527 -361.800007 
L 116.60979 -361.800007 
L 118.271052 -361.800007 
L 119.932315 -361.800007 
L 121.593577 -361.800007 
L 123.25484 -361.800007 
L 124.916102 -361.800007 
L 126.577365 -361.800007 
L 128.238627 -361.800007 
L 129.89989 -361.800007 
L 131.561152 -361.800007 
L 133.222415 -361.800007 
L 134.883677 -361.800007 
L 136.544939 -361.800007 
L 138.206202 -361.800007 
L 139.867464 -361.800007 
L 141.528727 -361.800007 
L 143.189989 -361.800007 
L 144.851252 -361.800007 
L 146.512514 -361.800007 
L 148.173777 -361.800007 
L 149.835039 -361.800007 
L 151.496302 -361.800007 
L 153.157564 -361.800007 
L 154.818827 -361.800007 
L 156.480089 -361.800007 
L 158.141352 -361.800007 
L 159.802614 -361.800007 
L 161.463877 -361.800007 
L 163.125139 -361.800007 
L 164.786402 -361.800007 
L 166.447664 -361.800007 
L 168.108927 -361.800007 
L 169.770189 -361.800007 
L 171.431452 -361.800007 
L 173.092714 -361.800007 
L 174.753977 -361.800007 
L 176.415239 -361.800007 
L 178.076502 -361.800007 
L 179.737764 -361.800007 
L 181.399027 -361.800007 
L 183.060289 -361.800007 
L 184.721552 -361.800007 
L 186.382814 -361.800007 
L 188.044077 -361.800007 
L 189.705339 -361.800007 
L 191.366602 -361.800007 
L 193.027864 -361.800007 
L 194.689127 -361.800007 
L 196.350389 -361.800007 
L 198.011652 -361.800007 
L 199.672914 -361.800007 
L 201.334177 -361.800007 
L 202.995439 -361.800007 
L 204.656702 -361.800007 
L 206.317964 -361.800007 
L 207.979227 -361.800007 
L 209.640489 -361.800007 
L 211.301752 -361.800007 
L 212.963014 -361.800007 
L 214.624277 -361.800007 
L 216.285539 -361.800007 
L 217.946802 -361.800007 
L 219.608064 -361.800007 
L 221.269327 -361.800007 
L 222.930589 -361.800007 
L 224.591852 -361.800007 
L 226.253114 -361.800007 
L 227.914377 -361.800007 
L 229.575639 -361.800007 
L 231.236902 -361.800007 
L 232.898164 -361.800007 
L 234.559427 -361.800007 
L 236.220689 -361.800007 
L 237.881952 -361.800007 
L 239.543214 -361.800007 
L 241.204477 -361.800007 
L 242.865739 -361.800007 
L 244.527002 -361.800007 
L 246.188264 -361.800007 
L 247.849527 -361.800007 
L 249.510789 -361.800007 
L 251.172052 -361.800007 
L 252.833314 -361.800007 
L 254.494577 -361.800007 
L 256.155839 -361.800007 
L 257.817102 -361.800007 
L 259.478364 -361.800007 
L 261.139627 -361.800007 
L 262.800889 -361.800007 
L 264.462152 -361.800007 
L 266.123414 -361.800007 
L 267.784677 -361.800007 
L 269.445939 -361.800007 
L 271.107201 -361.800007 
L 272.768464 -361.800007 
L 274.429726 -361.800007 
L 276.090989 -361.800007 
L 277.752251 -361.800007 
L 279.413514 -361.800007 
L 281.074776 -361.800007 
L 282.736039 -361.800007 
L 284.397301 -361.800007 
L 286.058564 -361.800007 
L 287.719826 -361.800007 
L 289.381089 -361.800007 
L 291.042351 -361.800007 
L 292.703614 -361.800007 
L 294.364876 -361.800007 
L 296.026139 -361.800007 
L 297.687401 -361.800007 
L 299.348664 -361.800007 
L 301.009926 -361.800007 
L 302.671189 -361.800007 
L 304.332451 -361.800007 
L 305.993714 -361.800007 
L 307.654976 -361.800007 
L 309.316239 -361.800007 
L 310.977501 -361.800007 
L 312.638764 -361.800007 
L 314.300026 -361.800007 
L 315.961289 -361.800007 
L 317.622551 -361.800007 
L 319.283814 -361.800007 
L 320.945076 -361.800007 
L 322.606339 -361.800007 
L 324.267601 -361.800007 
L 325.928864 -361.800007 
L 327.590126 -361.800007 
L 329.251389 -361.800007 
L 330.912651 -361.800007 
L 332.573914 -361.800007 
L 334.235176 -361.800007 
L 335.896439 -361.800007 
L 337.557701 -361.800007 
L 339.218964 -361.800007 
L 340.880226 -361.800007 
L 342.541489 -361.800007 
L 344.202751 -361.800007 
L 345.864014 -361.800007 
L 347.525276 -361.800007 
L 349.186539 -361.800007 
L 350.847801 -361.800007 
L 352.509064 -361.800007 
L 354.170326 -361.800007 
L 355.831589 -361.800007 
L 357.492851 -361.800007 
L 359.154114 -361.800007 
L 360.815376 -361.800007 
L 362.476639 -361.800007 
L 364.137901 -361.800007 
L 365.799164 -361.800007 
L 367.460426 -361.800007 
L 369.121689 -361.800007 
L 370.782951 -361.800007 
L 372.444214 -361.800007 
L 374.105476 -361.800007 
L 375.766739 -361.800007 
L 377.428001 -361.800007 
L 379.089264 -361.800007 
L 380.750526 -361.800007 
L 382.411789 -361.800007 
L 384.073051 -361.800007 
L 385.734314 -361.800007 
L 387.395576 -361.800007 
L 389.056839 -361.800007 
L 390.718101 -361.800007 
L 392.379364 -361.800007 
L 394.040626 -361.800007 
L 395.701889 -361.800007 
L 397.363151 -361.800007 
L 399.024414 -361.800007 
L 400.685676 -361.800007 
L 402.346938 -361.800007 
L 404.008201 -361.800007 
L 405.669463 -361.800007 
L 407.330726 -361.800007 
L 408.991988 -361.800007 
L 410.653251 -361.800007 
L 412.314513 -361.800007 
L 413.975776 -361.800007 
L 415.637038 -361.800007 
L 417.298301 -361.800007 
L 418.959563 -361.800007 
L 420.620826 -361.800007 
L 422.282088 -361.800007 
L 422.282088 -361.802327 
L 422.282088 -361.802327 
L 420.620826 -361.804039 
L 418.959563 -361.806794 
L 417.298301 -361.811074 
L 415.637038 -361.81749 
L 413.975776 -361.826772 
L 412.314513 -361.83973 
L 410.653251 -361.857179 
L 408.991988 -361.879846 
L 407.330726 -361.908246 
L 405.669463 -361.942567 
L 404.008201 -361.982583 
L 402.346938 -362.027611 
L 400.685676 -362.076557 
L 399.024414 -362.128028 
L 397.363151 -362.180511 
L 395.701889 -362.232584 
L 394.040626 -362.283112 
L 392.379364 -362.331383 
L 390.718101 -362.377161 
L 389.056839 -362.420638 
L 387.395576 -362.462322 
L 385.734314 -362.502881 
L 384.073051 -362.543007 
L 382.411789 -362.583309 
L 380.750526 -362.624266 
L 379.089264 -362.666214 
L 377.428001 -362.709352 
L 375.766739 -362.753743 
L 374.105476 -362.799304 
L 372.444214 -362.845821 
L 370.782951 -362.893005 
L 369.121689 -362.940641 
L 367.460426 -362.988819 
L 365.799164 -363.038209 
L 364.137901 -363.090299 
L 362.476639 -363.147495 
L 360.815376 -363.212994 
L 359.154114 -363.290409 
L 357.492851 -363.383188 
L 355.831589 -363.493948 
L 354.170326 -363.623885 
L 352.509064 -363.772434 
L 350.847801 -363.937266 
L 349.186539 -364.114673 
L 347.525276 -364.300262 
L 345.864014 -364.489829 
L 344.202751 -364.680219 
L 342.541489 -364.870021 
L 340.880226 -365.059935 
L 339.218964 -365.252768 
L 337.557701 -365.453054 
L 335.896439 -365.666351 
L 334.235176 -365.898358 
L 332.573914 -366.153977 
L 330.912651 -366.436469 
L 329.251389 -366.746852 
L 327.590126 -367.083651 
L 325.928864 -367.443035 
L 324.267601 -367.819374 
L 322.606339 -368.206123 
L 320.945076 -368.596925 
L 319.283814 -368.986738 
L 317.622551 -369.372813 
L 315.961289 -369.755323 
L 314.300026 -370.13753 
L 312.638764 -370.525438 
L 310.977501 -370.926958 
L 309.316239 -371.350733 
L 307.654976 -371.804794 
L 305.993714 -372.295258 
L 304.332451 -372.825298 
L 302.671189 -373.394507 
L 301.009926 -373.998774 
L 299.348664 -374.63065 
L 297.687401 -375.280134 
L 296.026139 -375.935716 
L 294.364876 -376.585497 
L 292.703614 -377.218225 
L 291.042351 -377.82411 
L 289.381089 -378.395389 
L 287.719826 -378.926668 
L 286.058564 -379.415116 
L 284.397301 -379.860618 
L 282.736039 -380.265928 
L 281.074776 -380.63682 
L 279.413514 -380.982155 
L 277.752251 -381.31375 
L 276.090989 -381.645906 
L 274.429726 -381.994504 
L 272.768464 -382.37565 
L 271.107201 -382.803905 
L 269.445939 -383.29031 
L 267.784677 -383.84044 
L 266.123414 -384.452859 
L 264.462152 -385.118341 
L 262.800889 -385.820172 
L 261.139627 -386.535719 
L 259.478364 -387.239177 
L 257.817102 -387.905179 
L 256.155839 -388.512659 
L 254.494577 -389.048283 
L 252.833314 -389.508773 
L 251.172052 -389.901682 
L 249.510789 -390.244548 
L 247.849527 -390.562692 
L 246.188264 -390.88623 
L 244.527002 -391.246971 
L 242.865739 -391.675746 
L 241.204477 -392.200487 
L 239.543214 -392.845038 
L 237.881952 -393.628457 
L 236.220689 -394.564442 
L 234.559427 -395.660624 
L 232.898164 -396.917659 
L 231.236902 -398.328318 
L 229.575639 -399.876989 
L 227.914377 -401.540002 
L 226.253114 -403.287139 
L 224.591852 -405.084347 
L 222.930589 -406.897443 
L 221.269327 -408.696239 
L 219.608064 -410.458422 
L 217.946802 -412.172496 
L 216.285539 -413.839282 
L 214.624277 -415.47172 
L 212.963014 -417.09304 
L 211.301752 -418.733601 
L 209.640489 -420.426859 
L 207.979227 -422.204965 
L 206.317964 -424.094432 
L 204.656702 -426.112223 
L 202.995439 -428.262512 
L 201.334177 -430.534334 
L 199.672914 -432.900322 
L 198.011652 -435.316766 
L 196.350389 -437.725189 
L 194.689127 -440.05553 
L 193.027864 -442.230818 
L 191.366602 -444.172923 
L 189.705339 -445.808693 
L 188.044077 -447.075627 
L 186.382814 -447.926237 
L 184.721552 -448.330503 
L 183.060289 -448.276206 
L 181.399027 -447.767351 
L 179.737764 -446.821272 
L 178.076502 -445.465136 
L 176.415239 -443.732544 
L 174.753977 -441.660704 
L 173.092714 -439.28836 
L 171.431452 -436.654419 
L 169.770189 -433.797095 
L 168.108927 -430.753323 
L 166.447664 -427.558333 
L 164.786402 -424.245289 
L 163.125139 -420.84506 
L 161.463877 -417.386153 
L 159.802614 -413.89487 
L 158.141352 -410.395683 
L 156.480089 -406.911793 
L 154.818827 -403.465765 
L 153.157564 -400.080123 
L 151.496302 -396.777738 
L 149.835039 -393.581873 
L 148.173777 -390.515773 
L 146.512514 -387.601781 
L 144.851252 -384.860066 
L 143.189989 -382.307168 
L 141.528727 -379.954651 
L 139.867464 -377.808138 
L 138.206202 -375.86696 
L 136.544939 -374.124506 
L 134.883677 -372.569207 
L 133.222415 -371.185957 
L 131.561152 -369.957719 
L 129.89989 -368.867048 
L 128.238627 -367.897353 
L 126.577365 -367.033775 
L 124.916102 -366.263693 
L 123.25484 -365.576874 
L 121.593577 -364.96535 
L 119.932315 -364.423096 
L 118.271052 -363.945564 
L 116.60979 -363.529161 
L 114.948527 -363.170705 
L 113.287265 -362.866961 
L 111.626002 -362.614279 
L 109.96474 -362.408409 
L 108.303477 -362.244476 
L 106.642215 -362.117121 
L 104.980952 -362.020737 
L 103.31969 -361.949762 
L 101.658427 -361.89896 
L 99.997165 -361.863642 
L 98.335902 -361.839811 
L 96.67464 -361.824211 
L 95.013377 -361.814308 
L 93.352115 -361.808214 
L 91.690852 -361.80458 
z
" style="stroke: #0000ff; stroke-width: 8"/>
    </defs>
    <g clip-path="url(#pf2d30b0c6d)">
     <use xlink:href="#mfa41c6221f" x="0" y="720" style="fill: #0000ff; fill-opacity: 0.5; stroke: #0000ff; stroke-width: 8"/>
    </g>
   </g>
   <g id="matplotlib.axis_3"/>
   <g id="matplotlib.axis_4"/>
   <g id="patch_8">
    <path d="M 90 358.199993 
L 90 222.300003 
" style="fill: none; stroke: #000000; stroke-width: 0.8; stroke-linejoin: miter; stroke-linecap: square"/>
   </g>
   <g id="patch_9">
    <path d="M 648 358.199993 
L 648 222.300003 
" style="fill: none; stroke: #000000; stroke-width: 0.8; stroke-linejoin: miter; stroke-linecap: square"/>
   </g>
   <g id="patch_10">
    <path d="M 90 358.199993 
L 648 358.199993 
" style="fill: none; stroke: #000000; stroke-width: 0.8; stroke-linejoin: miter; stroke-linecap: square"/>
   </g>
   <g id="patch_11">
    <path d="M 90 222.300003 
L 648 222.300003 
" style="fill: none; stroke: #000000; stroke-width: 0.8; stroke-linejoin: miter; stroke-linecap: square"/>
   </g>
  </g>
  <g id="axes_3">
   <g id="patch_12">
    <path d="M 90 494.099997 
L 648 494.099997 
L 648 358.200007 
L 90 358.200007 
z
" style="fill: #ffffff"/>
   </g>
   <g id="PolyCollection_3">
    <defs>
     <path id="m22e4c2447a" d="M 156.876948 -225.949861 
L 156.876948 -225.900003 
L 158.976336 -225.900003 
L 161.075724 -225.900003 
L 163.175111 -225.900003 
L 165.274499 -225.900003 
L 167.373887 -225.900003 
L 169.473275 -225.900003 
L 171.572662 -225.900003 
L 173.67205 -225.900003 
L 175.771438 -225.900003 
L 177.870825 -225.900003 
L 179.970213 -225.900003 
L 182.069601 -225.900003 
L 184.168988 -225.900003 
L 186.268376 -225.900003 
L 188.367764 -225.900003 
L 190.467151 -225.900003 
L 192.566539 -225.900003 
L 194.665927 -225.900003 
L 196.765315 -225.900003 
L 198.864702 -225.900003 
L 200.96409 -225.900003 
L 203.063478 -225.900003 
L 205.162865 -225.900003 
L 207.262253 -225.900003 
L 209.361641 -225.900003 
L 211.461028 -225.900003 
L 213.560416 -225.900003 
L 215.659804 -225.900003 
L 217.759191 -225.900003 
L 219.858579 -225.900003 
L 221.957967 -225.900003 
L 224.057355 -225.900003 
L 226.156742 -225.900003 
L 228.25613 -225.900003 
L 230.355518 -225.900003 
L 232.454905 -225.900003 
L 234.554293 -225.900003 
L 236.653681 -225.900003 
L 238.753068 -225.900003 
L 240.852456 -225.900003 
L 242.951844 -225.900003 
L 245.051231 -225.900003 
L 247.150619 -225.900003 
L 249.250007 -225.900003 
L 251.349395 -225.900003 
L 253.448782 -225.900003 
L 255.54817 -225.900003 
L 257.647558 -225.900003 
L 259.746945 -225.900003 
L 261.846333 -225.900003 
L 263.945721 -225.900003 
L 266.045108 -225.900003 
L 268.144496 -225.900003 
L 270.243884 -225.900003 
L 272.343271 -225.900003 
L 274.442659 -225.900003 
L 276.542047 -225.900003 
L 278.641435 -225.900003 
L 280.740822 -225.900003 
L 282.84021 -225.900003 
L 284.939598 -225.900003 
L 287.038985 -225.900003 
L 289.138373 -225.900003 
L 291.237761 -225.900003 
L 293.337148 -225.900003 
L 295.436536 -225.900003 
L 297.535924 -225.900003 
L 299.635311 -225.900003 
L 301.734699 -225.900003 
L 303.834087 -225.900003 
L 305.933475 -225.900003 
L 308.032862 -225.900003 
L 310.13225 -225.900003 
L 312.231638 -225.900003 
L 314.331025 -225.900003 
L 316.430413 -225.900003 
L 318.529801 -225.900003 
L 320.629188 -225.900003 
L 322.728576 -225.900003 
L 324.827964 -225.900003 
L 326.927352 -225.900003 
L 329.026739 -225.900003 
L 331.126127 -225.900003 
L 333.225515 -225.900003 
L 335.324902 -225.900003 
L 337.42429 -225.900003 
L 339.523678 -225.900003 
L 341.623065 -225.900003 
L 343.722453 -225.900003 
L 345.821841 -225.900003 
L 347.921228 -225.900003 
L 350.020616 -225.900003 
L 352.120004 -225.900003 
L 354.219392 -225.900003 
L 356.318779 -225.900003 
L 358.418167 -225.900003 
L 360.517555 -225.900003 
L 362.616942 -225.900003 
L 364.71633 -225.900003 
L 366.815718 -225.900003 
L 368.915105 -225.900003 
L 371.014493 -225.900003 
L 373.113881 -225.900003 
L 375.213268 -225.900003 
L 377.312656 -225.900003 
L 379.412044 -225.900003 
L 381.511432 -225.900003 
L 383.610819 -225.900003 
L 385.710207 -225.900003 
L 387.809595 -225.900003 
L 389.908982 -225.900003 
L 392.00837 -225.900003 
L 394.107758 -225.900003 
L 396.207145 -225.900003 
L 398.306533 -225.900003 
L 400.405921 -225.900003 
L 402.505308 -225.900003 
L 404.604696 -225.900003 
L 406.704084 -225.900003 
L 408.803472 -225.900003 
L 410.902859 -225.900003 
L 413.002247 -225.900003 
L 415.101635 -225.900003 
L 417.201022 -225.900003 
L 419.30041 -225.900003 
L 421.399798 -225.900003 
L 423.499185 -225.900003 
L 425.598573 -225.900003 
L 427.697961 -225.900003 
L 429.797348 -225.900003 
L 431.896736 -225.900003 
L 433.996124 -225.900003 
L 436.095512 -225.900003 
L 438.194899 -225.900003 
L 440.294287 -225.900003 
L 442.393675 -225.900003 
L 444.493062 -225.900003 
L 446.59245 -225.900003 
L 448.691838 -225.900003 
L 450.791225 -225.900003 
L 452.890613 -225.900003 
L 454.990001 -225.900003 
L 457.089388 -225.900003 
L 459.188776 -225.900003 
L 461.288164 -225.900003 
L 463.387552 -225.900003 
L 465.486939 -225.900003 
L 467.586327 -225.900003 
L 469.685715 -225.900003 
L 471.785102 -225.900003 
L 473.88449 -225.900003 
L 475.983878 -225.900003 
L 478.083265 -225.900003 
L 480.182653 -225.900003 
L 482.282041 -225.900003 
L 484.381428 -225.900003 
L 486.480816 -225.900003 
L 488.580204 -225.900003 
L 490.679592 -225.900003 
L 492.778979 -225.900003 
L 494.878367 -225.900003 
L 496.977755 -225.900003 
L 499.077142 -225.900003 
L 501.17653 -225.900003 
L 503.275918 -225.900003 
L 505.375305 -225.900003 
L 507.474693 -225.900003 
L 509.574081 -225.900003 
L 511.673468 -225.900003 
L 513.772856 -225.900003 
L 515.872244 -225.900003 
L 517.971632 -225.900003 
L 520.071019 -225.900003 
L 522.170407 -225.900003 
L 524.269795 -225.900003 
L 526.369182 -225.900003 
L 528.46857 -225.900003 
L 530.567958 -225.900003 
L 532.667345 -225.900003 
L 534.766733 -225.900003 
L 536.866121 -225.900003 
L 538.965508 -225.900003 
L 541.064896 -225.900003 
L 543.164284 -225.900003 
L 545.263672 -225.900003 
L 547.363059 -225.900003 
L 549.462447 -225.900003 
L 551.561835 -225.900003 
L 553.661222 -225.900003 
L 555.76061 -225.900003 
L 557.859998 -225.900003 
L 559.959385 -225.900003 
L 562.058773 -225.900003 
L 564.158161 -225.900003 
L 566.257548 -225.900003 
L 568.356936 -225.900003 
L 570.456324 -225.900003 
L 572.555712 -225.900003 
L 574.655099 -225.900003 
L 574.655099 -225.918673 
L 574.655099 -225.918673 
L 572.555712 -225.923806 
L 570.456324 -225.930169 
L 568.356936 -225.938001 
L 566.257548 -225.94758 
L 564.158161 -225.959216 
L 562.058773 -225.973258 
L 559.959385 -225.990092 
L 557.859998 -226.010136 
L 555.76061 -226.033846 
L 553.661222 -226.061706 
L 551.561835 -226.094223 
L 549.462447 -226.131926 
L 547.363059 -226.175352 
L 545.263672 -226.225041 
L 543.164284 -226.281524 
L 541.064896 -226.345311 
L 538.965508 -226.416885 
L 536.866121 -226.496684 
L 534.766733 -226.585096 
L 532.667345 -226.682451 
L 530.567958 -226.789012 
L 528.46857 -226.904976 
L 526.369182 -227.030473 
L 524.269795 -227.165572 
L 522.170407 -227.310295 
L 520.071019 -227.464628 
L 517.971632 -227.628551 
L 515.872244 -227.802057 
L 513.772856 -227.98519 
L 511.673468 -228.178079 
L 509.574081 -228.38098 
L 507.474693 -228.594314 
L 505.375305 -228.818709 
L 503.275918 -229.055042 
L 501.17653 -229.304471 
L 499.077142 -229.568464 
L 496.977755 -229.848825 
L 494.878367 -230.147702 
L 492.778979 -230.467584 
L 490.679592 -230.811295 
L 488.580204 -231.181958 
L 486.480816 -231.582962 
L 484.381428 -232.017898 
L 482.282041 -232.490491 
L 480.182653 -233.004519 
L 478.083265 -233.563713 
L 475.983878 -234.171655 
L 473.88449 -234.831664 
L 471.785102 -235.546683 
L 469.685715 -236.319158 
L 467.586327 -237.150921 
L 465.486939 -238.043085 
L 463.387552 -238.995935 
L 461.288164 -240.008842 
L 459.188776 -241.080181 
L 457.089388 -242.207278 
L 454.990001 -243.386367 
L 452.890613 -244.612569 
L 450.791225 -245.879901 
L 448.691838 -247.181302 
L 446.59245 -248.50869 
L 444.493062 -249.853033 
L 442.393675 -251.204459 
L 440.294287 -252.552377 
L 438.194899 -253.885625 
L 436.095512 -255.192636 
L 433.996124 -256.461618 
L 431.896736 -257.680756 
L 429.797348 -258.83841 
L 427.697961 -259.923329 
L 425.598573 -260.924865 
L 423.499185 -261.833177 
L 421.399798 -262.639434 
L 419.30041 -263.336007 
L 417.201022 -263.916632 
L 415.101635 -264.37657 
L 413.002247 -264.712726 
L 410.902859 -264.923753 
L 408.803472 -265.010115 
L 406.704084 -264.974125 
L 404.604696 -264.819948 
L 402.505308 -264.553565 
L 400.405921 -264.182711 
L 398.306533 -263.716769 
L 396.207145 -263.166642 
L 394.107758 -262.544587 
L 392.00837 -261.86403 
L 389.908982 -261.139347 
L 387.809595 -260.385629 
L 385.710207 -259.618437 
L 383.610819 -258.853527 
L 381.511432 -258.106586 
L 379.412044 -257.392952 
L 377.312656 -256.727339 
L 375.213268 -256.12357 
L 373.113881 -255.594317 
L 371.014493 -255.150861 
L 368.915105 -254.802873 
L 366.815718 -254.558213 
L 364.71633 -254.422771 
L 362.616942 -254.400331 
L 360.517555 -254.492482 
L 358.418167 -254.698558 
L 356.318779 -255.015631 
L 354.219392 -255.438545 
L 352.120004 -255.959993 
L 350.020616 -256.570643 
L 347.921228 -257.259299 
L 345.821841 -258.013113 
L 343.722453 -258.81783 
L 341.623065 -259.658062 
L 339.523678 -260.517591 
L 337.42429 -261.379701 
L 335.324902 -262.227506 
L 333.225515 -263.044303 
L 331.126127 -263.813906 
L 329.026739 -264.520979 
L 326.927352 -265.15135 
L 324.827964 -265.692291 
L 322.728576 -266.132772 
L 320.629188 -266.463672 
L 318.529801 -266.677941 
L 316.430413 -266.77072 
L 314.331025 -266.7394 
L 312.231638 -266.583632 
L 310.13225 -266.305286 
L 308.032862 -265.908345 
L 305.933475 -265.398768 
L 303.834087 -264.784288 
L 301.734699 -264.074189 
L 299.635311 -263.279035 
L 297.535924 -262.410384 
L 295.436536 -261.480477 
L 293.337148 -260.501924 
L 291.237761 -259.487388 
L 289.138373 -258.449276 
L 287.038985 -257.399452 
L 284.939598 -256.348971 
L 282.84021 -255.307846 
L 280.740822 -254.284854 
L 278.641435 -253.287383 
L 276.542047 -252.321331 
L 274.442659 -251.391045 
L 272.343271 -250.499313 
L 270.243884 -249.647406 
L 268.144496 -248.83516 
L 266.045108 -248.0611 
L 263.945721 -247.322605 
L 261.846333 -246.616095 
L 259.746945 -245.937243 
L 257.647558 -245.2812 
L 255.54817 -244.642829 
L 253.448782 -244.016934 
L 251.349395 -243.398473 
L 249.250007 -242.782766 
L 247.150619 -242.165666 
L 245.051231 -241.543706 
L 242.951844 -240.914212 
L 240.852456 -240.275379 
L 238.753068 -239.626312 
L 236.653681 -238.967021 
L 234.554293 -238.298394 
L 232.454905 -237.622129 
L 230.355518 -236.940639 
L 228.25613 -236.256941 
L 226.156742 -235.574524 
L 224.057355 -234.897204 
L 221.957967 -234.228983 
L 219.858579 -233.573908 
L 217.759191 -232.935929 
L 215.659804 -232.318783 
L 213.560416 -231.725885 
L 211.461028 -231.16024 
L 209.361641 -230.624377 
L 207.262253 -230.120306 
L 205.162865 -229.649491 
L 203.063478 -229.212848 
L 200.96409 -228.810758 
L 198.864702 -228.443101 
L 196.765315 -228.109293 
L 194.665927 -227.808346 
L 192.566539 -227.538922 
L 190.467151 -227.299401 
L 188.367764 -227.087941 
L 186.268376 -226.902547 
L 184.168988 -226.741125 
L 182.069601 -226.60154 
L 179.970213 -226.481662 
L 177.870825 -226.379411 
L 175.771438 -226.292787 
L 173.67205 -226.219897 
L 171.572662 -226.158977 
L 169.473275 -226.108404 
L 167.373887 -226.066701 
L 165.274499 -226.032542 
L 163.175111 -226.004748 
L 161.075724 -225.982284 
L 158.976336 -225.964247 
L 156.876948 -225.949861 
z
" style="stroke: #ff0000; stroke-width: 8"/>
    </defs>
    <g clip-path="url(#pfe4b56a9ed)">
     <use xlink:href="#m22e4c2447a" x="0" y="720" style="fill: #ff0000; fill-opacity: 0.5; stroke: #ff0000; stroke-width: 8"/>
    </g>
   </g>
   <g id="PolyCollection_4">
    <defs>
     <path id="ma444464e49" d="M 106.066526 -225.933077 
L 106.066526 -225.900003 
L 108.521287 -225.900003 
L 110.976048 -225.900003 
L 113.430809 -225.900003 
L 115.88557 -225.900003 
L 118.340331 -225.900003 
L 120.795092 -225.900003 
L 123.249853 -225.900003 
L 125.704614 -225.900003 
L 128.159375 -225.900003 
L 130.614136 -225.900003 
L 133.068897 -225.900003 
L 135.523658 -225.900003 
L 137.978419 -225.900003 
L 140.43318 -225.900003 
L 142.887941 -225.900003 
L 145.342702 -225.900003 
L 147.797463 -225.900003 
L 150.252224 -225.900003 
L 152.706985 -225.900003 
L 155.161746 -225.900003 
L 157.616507 -225.900003 
L 160.071268 -225.900003 
L 162.526029 -225.900003 
L 164.98079 -225.900003 
L 167.435551 -225.900003 
L 169.890312 -225.900003 
L 172.345073 -225.900003 
L 174.799834 -225.900003 
L 177.254595 -225.900003 
L 179.709356 -225.900003 
L 182.164117 -225.900003 
L 184.618878 -225.900003 
L 187.073639 -225.900003 
L 189.5284 -225.900003 
L 191.983161 -225.900003 
L 194.437922 -225.900003 
L 196.892683 -225.900003 
L 199.347444 -225.900003 
L 201.802205 -225.900003 
L 204.256966 -225.900003 
L 206.711727 -225.900003 
L 209.166488 -225.900003 
L 211.621249 -225.900003 
L 214.07601 -225.900003 
L 216.530771 -225.900003 
L 218.985532 -225.900003 
L 221.440293 -225.900003 
L 223.895054 -225.900003 
L 226.349815 -225.900003 
L 228.804576 -225.900003 
L 231.259337 -225.900003 
L 233.714098 -225.900003 
L 236.168859 -225.900003 
L 238.62362 -225.900003 
L 241.078381 -225.900003 
L 243.533142 -225.900003 
L 245.987903 -225.900003 
L 248.442664 -225.900003 
L 250.897425 -225.900003 
L 253.352187 -225.900003 
L 255.806948 -225.900003 
L 258.261709 -225.900003 
L 260.71647 -225.900003 
L 263.171231 -225.900003 
L 265.625992 -225.900003 
L 268.080753 -225.900003 
L 270.535514 -225.900003 
L 272.990275 -225.900003 
L 275.445036 -225.900003 
L 277.899797 -225.900003 
L 280.354558 -225.900003 
L 282.809319 -225.900003 
L 285.26408 -225.900003 
L 287.718841 -225.900003 
L 290.173602 -225.900003 
L 292.628363 -225.900003 
L 295.083124 -225.900003 
L 297.537885 -225.900003 
L 299.992646 -225.900003 
L 302.447407 -225.900003 
L 304.902168 -225.900003 
L 307.356929 -225.900003 
L 309.81169 -225.900003 
L 312.266451 -225.900003 
L 314.721212 -225.900003 
L 317.175973 -225.900003 
L 319.630734 -225.900003 
L 322.085495 -225.900003 
L 324.540256 -225.900003 
L 326.995017 -225.900003 
L 329.449778 -225.900003 
L 331.904539 -225.900003 
L 334.3593 -225.900003 
L 336.814061 -225.900003 
L 339.268822 -225.900003 
L 341.723583 -225.900003 
L 344.178344 -225.900003 
L 346.633105 -225.900003 
L 349.087866 -225.900003 
L 351.542627 -225.900003 
L 353.997388 -225.900003 
L 356.452149 -225.900003 
L 358.90691 -225.900003 
L 361.361671 -225.900003 
L 363.816432 -225.900003 
L 366.271193 -225.900003 
L 368.725954 -225.900003 
L 371.180715 -225.900003 
L 373.635476 -225.900003 
L 376.090237 -225.900003 
L 378.544998 -225.900003 
L 380.999759 -225.900003 
L 383.45452 -225.900003 
L 385.909281 -225.900003 
L 388.364042 -225.900003 
L 390.818803 -225.900003 
L 393.273564 -225.900003 
L 395.728325 -225.900003 
L 398.183086 -225.900003 
L 400.637847 -225.900003 
L 403.092608 -225.900003 
L 405.547369 -225.900003 
L 408.00213 -225.900003 
L 410.456891 -225.900003 
L 412.911652 -225.900003 
L 415.366413 -225.900003 
L 417.821174 -225.900003 
L 420.275935 -225.900003 
L 422.730696 -225.900003 
L 425.185457 -225.900003 
L 427.640218 -225.900003 
L 430.094979 -225.900003 
L 432.54974 -225.900003 
L 435.004501 -225.900003 
L 437.459263 -225.900003 
L 439.914024 -225.900003 
L 442.368785 -225.900003 
L 444.823546 -225.900003 
L 447.278307 -225.900003 
L 449.733068 -225.900003 
L 452.187829 -225.900003 
L 454.64259 -225.900003 
L 457.097351 -225.900003 
L 459.552112 -225.900003 
L 462.006873 -225.900003 
L 464.461634 -225.900003 
L 466.916395 -225.900003 
L 469.371156 -225.900003 
L 471.825917 -225.900003 
L 474.280678 -225.900003 
L 476.735439 -225.900003 
L 479.1902 -225.900003 
L 481.644961 -225.900003 
L 484.099722 -225.900003 
L 486.554483 -225.900003 
L 489.009244 -225.900003 
L 491.464005 -225.900003 
L 493.918766 -225.900003 
L 496.373527 -225.900003 
L 498.828288 -225.900003 
L 501.283049 -225.900003 
L 503.73781 -225.900003 
L 506.192571 -225.900003 
L 508.647332 -225.900003 
L 511.102093 -225.900003 
L 513.556854 -225.900003 
L 516.011615 -225.900003 
L 518.466376 -225.900003 
L 520.921137 -225.900003 
L 523.375898 -225.900003 
L 525.830659 -225.900003 
L 528.28542 -225.900003 
L 530.740181 -225.900003 
L 533.194942 -225.900003 
L 535.649703 -225.900003 
L 538.104464 -225.900003 
L 540.559225 -225.900003 
L 543.013986 -225.900003 
L 545.468747 -225.900003 
L 547.923508 -225.900003 
L 550.378269 -225.900003 
L 552.83303 -225.900003 
L 555.287791 -225.900003 
L 557.742552 -225.900003 
L 560.197313 -225.900003 
L 562.652074 -225.900003 
L 565.106835 -225.900003 
L 567.561596 -225.900003 
L 570.016357 -225.900003 
L 572.471118 -225.900003 
L 574.925879 -225.900003 
L 577.38064 -225.900003 
L 579.835401 -225.900003 
L 582.290162 -225.900003 
L 584.744923 -225.900003 
L 587.199684 -225.900003 
L 589.654445 -225.900003 
L 592.109206 -225.900003 
L 594.563967 -225.900003 
L 594.563967 -225.920391 
L 594.563967 -225.920391 
L 592.109206 -225.925836 
L 589.654445 -225.932573 
L 587.199684 -225.940869 
L 584.744923 -225.95103 
L 582.290162 -225.963413 
L 579.835401 -225.97843 
L 577.38064 -225.996551 
L 574.925879 -226.018312 
L 572.471118 -226.044319 
L 570.016357 -226.075255 
L 567.561596 -226.111884 
L 565.106835 -226.155056 
L 562.652074 -226.205712 
L 560.197313 -226.264889 
L 557.742552 -226.333722 
L 555.287791 -226.413449 
L 552.83303 -226.505412 
L 550.378269 -226.611058 
L 547.923508 -226.731938 
L 545.468747 -226.869708 
L 543.013986 -227.026125 
L 540.559225 -227.20304 
L 538.104464 -227.402393 
L 535.649703 -227.626202 
L 533.194942 -227.876551 
L 530.740181 -228.155572 
L 528.28542 -228.465428 
L 525.830659 -228.808286 
L 523.375898 -229.186291 
L 520.921137 -229.601531 
L 518.466376 -230.055999 
L 516.011615 -230.551556 
L 513.556854 -231.089876 
L 511.102093 -231.672404 
L 508.647332 -232.300297 
L 506.192571 -232.974372 
L 503.73781 -233.695047 
L 501.283049 -234.462289 
L 498.828288 -235.275558 
L 496.373527 -236.133762 
L 493.918766 -237.035213 
L 491.464005 -237.977593 
L 489.009244 -238.957933 
L 486.554483 -239.972604 
L 484.099722 -241.017315 
L 481.644961 -242.087134 
L 479.1902 -243.176526 
L 476.735439 -244.279393 
L 474.280678 -245.38915 
L 471.825917 -246.498796 
L 469.371156 -247.601011 
L 466.916395 -248.688257 
L 464.461634 -249.752889 
L 462.006873 -250.787274 
L 459.552112 -251.783906 
L 457.097351 -252.735528 
L 454.64259 -253.635236 
L 452.187829 -254.476596 
L 449.733068 -255.253726 
L 447.278307 -255.961389 
L 444.823546 -256.595055 
L 442.368785 -257.150955 
L 439.914024 -257.626122 
L 437.459263 -258.018407 
L 435.004501 -258.326489 
L 432.54974 -258.549872 
L 430.094979 -258.688862 
L 427.640218 -258.744546 
L 425.185457 -258.718753 
L 422.730696 -258.614016 
L 420.275935 -258.433531 
L 417.821174 -258.181111 
L 415.366413 -257.861144 
L 412.911652 -257.478544 
L 410.456891 -257.038717 
L 408.00213 -256.547515 
L 405.547369 -256.011196 
L 403.092608 -255.436386 
L 400.637847 -254.830041 
L 398.183086 -254.199398 
L 395.728325 -253.551937 
L 393.273564 -252.895325 
L 390.818803 -252.237362 
L 388.364042 -251.585922 
L 385.909281 -250.948879 
L 383.45452 -250.334034 
L 380.999759 -249.749035 
L 378.544998 -249.201286 
L 376.090237 -248.697856 
L 373.635476 -248.245384 
L 371.180715 -247.849985 
L 368.725954 -247.517152 
L 366.271193 -247.251668 
L 363.816432 -247.057516 
L 361.361671 -246.937801 
L 358.90691 -246.894687 
L 356.452149 -246.929328 
L 353.997388 -247.041836 
L 351.542627 -247.231243 
L 349.087866 -247.495486 
L 346.633105 -247.831416 
L 344.178344 -248.234806 
L 341.723583 -248.700393 
L 339.268822 -249.221928 
L 336.814061 -249.792241 
L 334.3593 -250.403327 
L 331.904539 -251.046445 
L 329.449778 -251.71223 
L 326.995017 -252.390821 
L 324.540256 -253.071996 
L 322.085495 -253.745324 
L 319.630734 -254.400319 
L 317.175973 -255.026603 
L 314.721212 -255.614072 
L 312.266451 -256.153066 
L 309.81169 -256.634528 
L 307.356929 -257.050167 
L 304.902168 -257.392604 
L 302.447407 -257.65551 
L 299.992646 -257.833723 
L 297.537885 -257.923345 
L 295.083124 -257.921818 
L 292.628363 -257.827965 
L 290.173602 -257.642016 
L 287.718841 -257.365585 
L 285.26408 -257.00163 
L 282.809319 -256.554375 
L 280.354558 -256.029205 
L 277.899797 -255.43253 
L 275.445036 -254.771627 
L 272.990275 -254.054465 
L 270.535514 -253.289511 
L 268.080753 -252.485527 
L 265.625992 -251.651368 
L 263.171231 -250.79578 
L 260.71647 -249.927208 
L 258.261709 -249.053617 
L 255.806948 -248.182342 
L 253.352187 -247.319948 
L 250.897425 -246.472135 
L 248.442664 -245.643658 
L 245.987903 -244.838294 
L 243.533142 -244.058828 
L 241.078381 -243.307076 
L 238.62362 -242.583939 
L 236.168859 -241.889475 
L 233.714098 -241.223002 
L 231.259337 -240.583207 
L 228.804576 -239.968278 
L 226.349815 -239.37603 
L 223.895054 -238.804046 
L 221.440293 -238.249805 
L 218.985532 -237.710802 
L 216.530771 -237.184661 
L 214.07601 -236.669229 
L 211.621249 -236.162654 
L 209.166488 -235.663444 
L 206.711727 -235.170501 
L 204.256966 -234.683145 
L 201.802205 -234.201111 
L 199.347444 -233.724532 
L 196.892683 -233.253906 
L 194.437922 -232.790052 
L 191.983161 -232.334056 
L 189.5284 -231.887209 
L 187.073639 -231.450943 
L 184.618878 -231.026766 
L 182.164117 -230.616198 
L 179.709356 -230.220712 
L 177.254595 -229.841682 
L 174.799834 -229.480337 
L 172.345073 -229.137723 
L 169.890312 -228.814677 
L 167.435551 -228.511811 
L 164.98079 -228.229497 
L 162.526029 -227.967871 
L 160.071268 -227.726838 
L 157.616507 -227.506087 
L 155.161746 -227.305107 
L 152.706985 -227.123214 
L 150.252224 -226.959573 
L 147.797463 -226.813228 
L 145.342702 -226.683129 
L 142.887941 -226.568159 
L 140.43318 -226.467163 
L 137.978419 -226.378967 
L 135.523658 -226.302406 
L 133.068897 -226.236336 
L 130.614136 -226.179657 
L 128.159375 -226.131319 
L 125.704614 -226.090338 
L 123.249853 -226.055798 
L 120.795092 -226.026856 
L 118.340331 -226.002747 
L 115.88557 -225.982781 
L 113.430809 -225.966343 
L 110.976048 -225.952887 
L 108.521287 -225.941936 
L 106.066526 -225.933077 
z
" style="stroke: #0000ff; stroke-width: 8"/>
    </defs>
    <g clip-path="url(#pfe4b56a9ed)">
     <use xlink:href="#ma444464e49" x="0" y="720" style="fill: #0000ff; fill-opacity: 0.5; stroke: #0000ff; stroke-width: 8"/>
    </g>
   </g>
   <g id="matplotlib.axis_5"/>
   <g id="matplotlib.axis_6"/>
   <g id="patch_13">
    <path d="M 90 494.099997 
L 90 358.200007 
" style="fill: none; stroke: #000000; stroke-width: 0.8; stroke-linejoin: miter; stroke-linecap: square"/>
   </g>
   <g id="patch_14">
    <path d="M 648 494.099997 
L 648 358.200007 
" style="fill: none; stroke: #000000; stroke-width: 0.8; stroke-linejoin: miter; stroke-linecap: square"/>
   </g>
   <g id="patch_15">
    <path d="M 90 494.099997 
L 648 494.099997 
" style="fill: none; stroke: #000000; stroke-width: 0.8; stroke-linejoin: miter; stroke-linecap: square"/>
   </g>
   <g id="patch_16">
    <path d="M 90 358.200007 
L 648 358.200007 
" style="fill: none; stroke: #000000; stroke-width: 0.8; stroke-linejoin: miter; stroke-linecap: square"/>
   </g>
  </g>
  <g id="axes_4">
   <g id="patch_17">
    <path d="M 90 630 
L 648 630 
L 648 494.10001 
L 90 494.10001 
z
" style="fill: #ffffff"/>
   </g>
   <g id="PolyCollection_5">
    <defs>
     <path id="maa7af80891" d="M 292.578716 -90.012269 
L 292.578716 -90 
L 294.068785 -90 
L 295.558855 -90 
L 297.048924 -90 
L 298.538993 -90 
L 300.029062 -90 
L 301.519131 -90 
L 303.0092 -90 
L 304.499269 -90 
L 305.989338 -90 
L 307.479407 -90 
L 308.969476 -90 
L 310.459546 -90 
L 311.949615 -90 
L 313.439684 -90 
L 314.929753 -90 
L 316.419822 -90 
L 317.909891 -90 
L 319.39996 -90 
L 320.890029 -90 
L 322.380098 -90 
L 323.870167 -90 
L 325.360237 -90 
L 326.850306 -90 
L 328.340375 -90 
L 329.830444 -90 
L 331.320513 -90 
L 332.810582 -90 
L 334.300651 -90 
L 335.79072 -90 
L 337.280789 -90 
L 338.770858 -90 
L 340.260927 -90 
L 341.750997 -90 
L 343.241066 -90 
L 344.731135 -90 
L 346.221204 -90 
L 347.711273 -90 
L 349.201342 -90 
L 350.691411 -90 
L 352.18148 -90 
L 353.671549 -90 
L 355.161618 -90 
L 356.651688 -90 
L 358.141757 -90 
L 359.631826 -90 
L 361.121895 -90 
L 362.611964 -90 
L 364.102033 -90 
L 365.592102 -90 
L 367.082171 -90 
L 368.57224 -90 
L 370.062309 -90 
L 371.552379 -90 
L 373.042448 -90 
L 374.532517 -90 
L 376.022586 -90 
L 377.512655 -90 
L 379.002724 -90 
L 380.492793 -90 
L 381.982862 -90 
L 383.472931 -90 
L 384.963 -90 
L 386.45307 -90 
L 387.943139 -90 
L 389.433208 -90 
L 390.923277 -90 
L 392.413346 -90 
L 393.903415 -90 
L 395.393484 -90 
L 396.883553 -90 
L 398.373622 -90 
L 399.863691 -90 
L 401.35376 -90 
L 402.84383 -90 
L 404.333899 -90 
L 405.823968 -90 
L 407.314037 -90 
L 408.804106 -90 
L 410.294175 -90 
L 411.784244 -90 
L 413.274313 -90 
L 414.764382 -90 
L 416.254451 -90 
L 417.744521 -90 
L 419.23459 -90 
L 420.724659 -90 
L 422.214728 -90 
L 423.704797 -90 
L 425.194866 -90 
L 426.684935 -90 
L 428.175004 -90 
L 429.665073 -90 
L 431.155142 -90 
L 432.645212 -90 
L 434.135281 -90 
L 435.62535 -90 
L 437.115419 -90 
L 438.605488 -90 
L 440.095557 -90 
L 441.585626 -90 
L 443.075695 -90 
L 444.565764 -90 
L 446.055833 -90 
L 447.545902 -90 
L 449.035972 -90 
L 450.526041 -90 
L 452.01611 -90 
L 453.506179 -90 
L 454.996248 -90 
L 456.486317 -90 
L 457.976386 -90 
L 459.466455 -90 
L 460.956524 -90 
L 462.446593 -90 
L 463.936663 -90 
L 465.426732 -90 
L 466.916801 -90 
L 468.40687 -90 
L 469.896939 -90 
L 471.387008 -90 
L 472.877077 -90 
L 474.367146 -90 
L 475.857215 -90 
L 477.347284 -90 
L 478.837354 -90 
L 480.327423 -90 
L 481.817492 -90 
L 483.307561 -90 
L 484.79763 -90 
L 486.287699 -90 
L 487.777768 -90 
L 489.267837 -90 
L 490.757906 -90 
L 492.247975 -90 
L 493.738045 -90 
L 495.228114 -90 
L 496.718183 -90 
L 498.208252 -90 
L 499.698321 -90 
L 501.18839 -90 
L 502.678459 -90 
L 504.168528 -90 
L 505.658597 -90 
L 507.148666 -90 
L 508.638735 -90 
L 510.128805 -90 
L 511.618874 -90 
L 513.108943 -90 
L 514.599012 -90 
L 516.089081 -90 
L 517.57915 -90 
L 519.069219 -90 
L 520.559288 -90 
L 522.049357 -90 
L 523.539426 -90 
L 525.029496 -90 
L 526.519565 -90 
L 528.009634 -90 
L 529.499703 -90 
L 530.989772 -90 
L 532.479841 -90 
L 533.96991 -90 
L 535.459979 -90 
L 536.950048 -90 
L 538.440117 -90 
L 539.930187 -90 
L 541.420256 -90 
L 542.910325 -90 
L 544.400394 -90 
L 545.890463 -90 
L 547.380532 -90 
L 548.870601 -90 
L 550.36067 -90 
L 551.850739 -90 
L 553.340808 -90 
L 554.830877 -90 
L 556.320947 -90 
L 557.811016 -90 
L 559.301085 -90 
L 560.791154 -90 
L 562.281223 -90 
L 563.771292 -90 
L 565.261361 -90 
L 566.75143 -90 
L 568.241499 -90 
L 569.731568 -90 
L 571.221638 -90 
L 572.711707 -90 
L 574.201776 -90 
L 575.691845 -90 
L 577.181914 -90 
L 578.671983 -90 
L 580.162052 -90 
L 581.652121 -90 
L 583.14219 -90 
L 584.632259 -90 
L 586.122329 -90 
L 587.612398 -90 
L 589.102467 -90 
L 589.102467 -90.239528 
L 589.102467 -90.239528 
L 587.612398 -90.309398 
L 586.122329 -90.397167 
L 584.632259 -90.506677 
L 583.14219 -90.642388 
L 581.652121 -90.809424 
L 580.162052 -91.01362 
L 578.671983 -91.261539 
L 577.181914 -91.560482 
L 575.691845 -91.918477 
L 574.201776 -92.344233 
L 572.711707 -92.847072 
L 571.221638 -93.436822 
L 569.731568 -94.123669 
L 568.241499 -94.917975 
L 566.75143 -95.830052 
L 565.261361 -96.869894 
L 563.771292 -98.046875 
L 562.281223 -99.369413 
L 560.791154 -100.844611 
L 559.301085 -102.477878 
L 557.811016 -104.272552 
L 556.320947 -106.229525 
L 554.830877 -108.346901 
L 553.340808 -110.619687 
L 551.850739 -113.039541 
L 550.36067 -115.594602 
L 548.870601 -118.269391 
L 547.380532 -121.044825 
L 545.890463 -123.898333 
L 544.400394 -126.804089 
L 542.910325 -129.733363 
L 541.420256 -132.654983 
L 539.930187 -135.535909 
L 538.440117 -138.341896 
L 536.950048 -141.038237 
L 535.459979 -143.590557 
L 533.96991 -145.965648 
L 532.479841 -148.132292 
L 530.989772 -150.062076 
L 529.499703 -151.730135 
L 528.009634 -153.115835 
L 526.519565 -154.203328 
L 525.029496 -154.981992 
L 523.539426 -155.446727 
L 522.049357 -155.598084 
L 520.559288 -155.442243 
L 519.069219 -154.990825 
L 517.57915 -154.260546 
L 516.089081 -153.272741 
L 514.599012 -152.052753 
L 513.108943 -150.629229 
L 511.618874 -149.033337 
L 510.128805 -147.297944 
L 508.638735 -145.456767 
L 507.148666 -143.543545 
L 505.658597 -141.591247 
L 504.168528 -139.631342 
L 502.678459 -137.69316 
L 501.18839 -135.803344 
L 499.698321 -133.985432 
L 498.208252 -132.259543 
L 496.718183 -130.642199 
L 495.228114 -129.146261 
L 493.738045 -127.780978 
L 492.247975 -126.552139 
L 490.757906 -125.462315 
L 489.267837 -124.511169 
L 487.777768 -123.695823 
L 486.287699 -123.011261 
L 484.79763 -122.450751 
L 483.307561 -122.006265 
L 481.817492 -121.668889 
L 480.327423 -121.429207 
L 478.837354 -121.277648 
L 477.347284 -121.204784 
L 475.857215 -121.201584 
L 474.367146 -121.25961 
L 472.877077 -121.371167 
L 471.387008 -121.529398 
L 469.896939 -121.728336 
L 468.40687 -121.962911 
L 466.916801 -122.228926 
L 465.426732 -122.523002 
L 463.936663 -122.842507 
L 462.446593 -123.185457 
L 460.956524 -123.550416 
L 459.466455 -123.936388 
L 457.976386 -124.342703 
L 456.486317 -124.7689 
L 454.996248 -125.214617 
L 453.506179 -125.679476 
L 452.01611 -126.162972 
L 450.526041 -126.664365 
L 449.035972 -127.182569 
L 447.545902 -127.716048 
L 446.055833 -128.262718 
L 444.565764 -128.819851 
L 443.075695 -129.383995 
L 441.585626 -129.950906 
L 440.095557 -130.515495 
L 438.605488 -131.071814 
L 437.115419 -131.613055 
L 435.62535 -132.131595 
L 434.135281 -132.619072 
L 432.645212 -133.066509 
L 431.155142 -133.464469 
L 429.665073 -133.803255 
L 428.175004 -134.073139 
L 426.684935 -134.264627 
L 425.194866 -134.36873 
L 423.704797 -134.377254 
L 422.214728 -134.28308 
L 420.724659 -134.080433 
L 419.23459 -133.765115 
L 417.744521 -133.334706 
L 416.254451 -132.788705 
L 414.764382 -132.128618 
L 413.274313 -131.35798 
L 411.784244 -130.482307 
L 410.294175 -129.50898 
L 408.804106 -128.44707 
L 407.314037 -127.307105 
L 405.823968 -126.100786 
L 404.333899 -124.84067 
L 402.84383 -123.539835 
L 401.35376 -122.211526 
L 399.863691 -120.868817 
L 398.373622 -119.524286 
L 396.883553 -118.189719 
L 395.393484 -116.875858 
L 393.903415 -115.592195 
L 392.413346 -114.346818 
L 390.923277 -113.146315 
L 389.433208 -111.995734 
L 387.943139 -110.898589 
L 386.45307 -109.856925 
L 384.963 -108.871419 
L 383.472931 -107.941514 
L 381.982862 -107.065584 
L 380.492793 -106.241115 
L 379.002724 -105.464896 
L 377.512655 -104.733208 
L 376.022586 -104.042013 
L 374.532517 -103.387127 
L 373.042448 -102.764373 
L 371.552379 -102.169725 
L 370.062309 -101.599416 
L 368.57224 -101.050027 
L 367.082171 -100.518555 
L 365.592102 -100.002452 
L 364.102033 -99.499647 
L 362.611964 -99.008542 
L 361.121895 -98.528002 
L 359.631826 -98.057317 
L 358.141757 -97.596165 
L 356.651688 -97.144563 
L 355.161618 -96.702811 
L 353.671549 -96.271437 
L 352.18148 -95.851136 
L 350.691411 -95.442723 
L 349.201342 -95.047074 
L 347.711273 -94.665081 
L 346.221204 -94.297615 
L 344.731135 -93.945485 
L 343.241066 -93.60941 
L 341.750997 -93.29 
L 340.260927 -92.987733 
L 338.770858 -92.70295 
L 337.280789 -92.435844 
L 335.79072 -92.186465 
L 334.300651 -91.954714 
L 332.810582 -91.740358 
L 331.320513 -91.543036 
L 329.830444 -91.362269 
L 328.340375 -91.197474 
L 326.850306 -91.047982 
L 325.360237 -90.913047 
L 323.870167 -90.791867 
L 322.380098 -90.683594 
L 320.890029 -90.587354 
L 319.39996 -90.502255 
L 317.909891 -90.427406 
L 316.419822 -90.361923 
L 314.929753 -90.304945 
L 313.439684 -90.255639 
L 311.949615 -90.213207 
L 310.459546 -90.176895 
L 308.969476 -90.145996 
L 307.479407 -90.119853 
L 305.989338 -90.097862 
L 304.499269 -90.079471 
L 303.0092 -90.064182 
L 301.519131 -90.051546 
L 300.029062 -90.041165 
L 298.538993 -90.032689 
L 297.048924 -90.02581 
L 295.558855 -90.020261 
L 294.068785 -90.015813 
L 292.578716 -90.012269 
z
" style="stroke: #ff0000; stroke-width: 8"/>
    </defs>
    <g clip-path="url(#p49de5a6b0a)">
     <use xlink:href="#maa7af80891" x="0" y="720" style="fill: #ff0000; fill-opacity: 0.5; stroke: #ff0000; stroke-width: 8"/>
    </g>
   </g>
   <g id="PolyCollection_6">
    <defs>
     <path id="mf7babea7fa" d="M 337.396328 -90.01494 
L 337.396328 -90 
L 338.402165 -90 
L 339.408002 -90 
L 340.413839 -90 
L 341.419676 -90 
L 342.425513 -90 
L 343.43135 -90 
L 344.437187 -90 
L 345.443024 -90 
L 346.448861 -90 
L 347.454698 -90 
L 348.460535 -90 
L 349.466372 -90 
L 350.472209 -90 
L 351.478046 -90 
L 352.483883 -90 
L 353.48972 -90 
L 354.495557 -90 
L 355.501394 -90 
L 356.507231 -90 
L 357.513068 -90 
L 358.518905 -90 
L 359.524742 -90 
L 360.530579 -90 
L 361.536416 -90 
L 362.542253 -90 
L 363.54809 -90 
L 364.553927 -90 
L 365.559764 -90 
L 366.565601 -90 
L 367.571438 -90 
L 368.577275 -90 
L 369.583112 -90 
L 370.588949 -90 
L 371.594786 -90 
L 372.600623 -90 
L 373.60646 -90 
L 374.612297 -90 
L 375.618134 -90 
L 376.623971 -90 
L 377.629808 -90 
L 378.635645 -90 
L 379.641482 -90 
L 380.647319 -90 
L 381.653156 -90 
L 382.658993 -90 
L 383.66483 -90 
L 384.670667 -90 
L 385.676504 -90 
L 386.682341 -90 
L 387.688178 -90 
L 388.694015 -90 
L 389.699852 -90 
L 390.705689 -90 
L 391.711526 -90 
L 392.717363 -90 
L 393.7232 -90 
L 394.729037 -90 
L 395.734874 -90 
L 396.740711 -90 
L 397.746548 -90 
L 398.752385 -90 
L 399.758222 -90 
L 400.764059 -90 
L 401.769896 -90 
L 402.775733 -90 
L 403.78157 -90 
L 404.787407 -90 
L 405.793244 -90 
L 406.799081 -90 
L 407.804918 -90 
L 408.810755 -90 
L 409.816592 -90 
L 410.822429 -90 
L 411.828266 -90 
L 412.834103 -90 
L 413.83994 -90 
L 414.845777 -90 
L 415.851614 -90 
L 416.857451 -90 
L 417.863288 -90 
L 418.869125 -90 
L 419.874962 -90 
L 420.880799 -90 
L 421.886636 -90 
L 422.892473 -90 
L 423.89831 -90 
L 424.904147 -90 
L 425.909984 -90 
L 426.915821 -90 
L 427.921658 -90 
L 428.927495 -90 
L 429.933332 -90 
L 430.939169 -90 
L 431.945006 -90 
L 432.950843 -90 
L 433.95668 -90 
L 434.962517 -90 
L 435.968354 -90 
L 436.974191 -90 
L 437.980028 -90 
L 438.985865 -90 
L 439.991702 -90 
L 440.997539 -90 
L 442.003376 -90 
L 443.009213 -90 
L 444.01505 -90 
L 445.020887 -90 
L 446.026724 -90 
L 447.032561 -90 
L 448.038398 -90 
L 449.044235 -90 
L 450.050072 -90 
L 451.055909 -90 
L 452.061746 -90 
L 453.067583 -90 
L 454.07342 -90 
L 455.079257 -90 
L 456.085094 -90 
L 457.090931 -90 
L 458.096768 -90 
L 459.102605 -90 
L 460.108442 -90 
L 461.114279 -90 
L 462.120116 -90 
L 463.125953 -90 
L 464.13179 -90 
L 465.137627 -90 
L 466.143464 -90 
L 467.149301 -90 
L 468.155138 -90 
L 469.160975 -90 
L 470.166812 -90 
L 471.172649 -90 
L 472.178486 -90 
L 473.184323 -90 
L 474.19016 -90 
L 475.195997 -90 
L 476.201834 -90 
L 477.207671 -90 
L 478.213508 -90 
L 479.219345 -90 
L 480.225182 -90 
L 481.231019 -90 
L 482.236856 -90 
L 483.242693 -90 
L 484.24853 -90 
L 485.254367 -90 
L 486.260204 -90 
L 487.266041 -90 
L 488.271878 -90 
L 489.277715 -90 
L 490.283552 -90 
L 491.289389 -90 
L 492.295226 -90 
L 493.301063 -90 
L 494.3069 -90 
L 495.312737 -90 
L 496.318574 -90 
L 497.324411 -90 
L 498.330248 -90 
L 499.336085 -90 
L 500.341922 -90 
L 501.347759 -90 
L 502.353596 -90 
L 503.359433 -90 
L 504.36527 -90 
L 505.371107 -90 
L 506.376944 -90 
L 507.382781 -90 
L 508.388618 -90 
L 509.394455 -90 
L 510.400292 -90 
L 511.406129 -90 
L 512.411966 -90 
L 513.417803 -90 
L 514.42364 -90 
L 515.429477 -90 
L 516.435314 -90 
L 517.441151 -90 
L 518.446988 -90 
L 519.452825 -90 
L 520.458662 -90 
L 521.464499 -90 
L 522.470335 -90 
L 523.476172 -90 
L 524.482009 -90 
L 525.487846 -90 
L 526.493683 -90 
L 527.49952 -90 
L 528.505357 -90 
L 529.511194 -90 
L 530.517031 -90 
L 531.522868 -90 
L 532.528705 -90 
L 533.534542 -90 
L 534.540379 -90 
L 535.546216 -90 
L 536.552053 -90 
L 537.55789 -90 
L 537.55789 -91.017415 
L 537.55789 -91.017415 
L 536.552053 -91.292237 
L 535.546216 -91.630808 
L 534.540379 -92.044946 
L 533.534542 -92.547885 
L 532.528705 -93.154265 
L 531.522868 -93.880059 
L 530.517031 -94.742438 
L 529.511194 -95.759566 
L 528.505357 -96.950314 
L 527.49952 -98.333884 
L 526.493683 -99.929352 
L 525.487846 -101.755116 
L 524.482009 -103.828272 
L 523.476172 -106.163914 
L 522.470335 -108.774381 
L 521.464499 -111.668476 
L 520.458662 -114.850676 
L 519.452825 -118.320375 
L 518.446988 -122.071182 
L 517.441151 -126.090327 
L 516.435314 -130.358198 
L 515.429477 -134.848058 
L 514.42364 -139.525964 
L 513.417803 -144.350928 
L 512.411966 -149.275318 
L 511.406129 -154.245534 
L 510.400292 -159.202937 
L 509.394455 -164.085024 
L 508.388618 -168.826821 
L 507.382781 -173.362453 
L 506.376944 -177.626848 
L 505.371107 -181.5575 
L 504.36527 -185.096245 
L 503.359433 -188.190965 
L 502.353596 -190.797157 
L 501.347759 -192.879305 
L 500.341922 -194.411984 
L 499.336085 -195.380665 
L 498.330248 -195.782165 
L 497.324411 -195.624746 
L 496.318574 -194.92783 
L 495.312737 -193.721365 
L 494.3069 -192.044861 
L 493.301063 -189.946128 
L 492.295226 -187.479787 
L 491.289389 -184.705606 
L 490.283552 -181.68672 
L 489.277715 -178.487828 
L 488.271878 -175.173414 
L 487.266041 -171.806065 
L 486.260204 -168.444948 
L 485.254367 -165.144476 
L 484.24853 -161.953221 
L 483.242693 -158.913084 
L 482.236856 -156.058726 
L 481.231019 -153.417286 
L 480.225182 -151.008341 
L 479.219345 -148.844116 
L 478.213508 -146.929894 
L 477.207671 -145.264603 
L 476.201834 -143.841543 
L 475.195997 -142.649204 
L 474.19016 -141.672145 
L 473.184323 -140.891896 
L 472.178486 -140.28784 
L 471.172649 -139.838064 
L 470.166812 -139.52013 
L 469.160975 -139.311776 
L 468.155138 -139.191508 
L 467.149301 -139.139096 
L 466.143464 -139.135951 
L 465.137627 -139.165409 
L 464.13179 -139.21291 
L 463.125953 -139.266086 
L 462.120116 -139.314775 
L 461.114279 -139.350964 
L 460.108442 -139.368686 
L 459.102605 -139.363873 
L 458.096768 -139.33419 
L 457.090931 -139.278851 
L 456.085094 -139.198431 
L 455.079257 -139.094684 
L 454.07342 -138.970374 
L 453.067583 -138.829108 
L 452.061746 -138.675198 
L 451.055909 -138.513522 
L 450.050072 -138.34941 
L 449.044235 -138.188526 
L 448.038398 -138.036757 
L 447.032561 -137.900107 
L 446.026724 -137.784575 
L 445.020887 -137.69603 
L 444.01505 -137.640073 
L 443.009213 -137.621884 
L 442.003376 -137.646066 
L 440.997539 -137.716465 
L 439.991702 -137.836003 
L 438.985865 -138.006499 
L 437.980028 -138.228503 
L 436.974191 -138.501154 
L 435.968354 -138.82205 
L 434.962517 -139.187171 
L 433.95668 -139.590826 
L 432.950843 -140.025659 
L 431.945006 -140.482712 
L 430.939169 -140.951532 
L 429.933332 -141.420348 
L 428.927495 -141.876292 
L 427.921658 -142.305675 
L 426.915821 -142.694296 
L 425.909984 -143.027794 
L 424.904147 -143.292007 
L 423.89831 -143.473343 
L 422.892473 -143.559145 
L 421.886636 -143.538032 
L 420.880799 -143.400206 
L 419.874962 -143.137717 
L 418.869125 -142.74467 
L 417.863288 -142.217374 
L 416.857451 -141.55442 
L 415.851614 -140.756695 
L 414.845777 -139.827329 
L 413.83994 -138.771575 
L 412.834103 -137.59664 
L 411.828266 -136.311459 
L 410.822429 -134.926444 
L 409.816592 -133.453186 
L 408.810755 -131.904167 
L 407.804918 -130.292442 
L 406.799081 -128.631347 
L 405.793244 -126.934214 
L 404.787407 -125.21411 
L 403.78157 -123.483606 
L 402.775733 -121.754588 
L 401.769896 -120.038095 
L 400.764059 -118.344202 
L 399.758222 -116.681942 
L 398.752385 -115.059255 
L 397.746548 -113.482978 
L 396.740711 -111.958853 
L 395.734874 -110.491571 
L 394.729037 -109.084818 
L 393.7232 -107.741345 
L 392.717363 -106.463043 
L 391.711526 -105.251022 
L 390.705689 -104.105691 
L 389.699852 -103.026839 
L 388.694015 -102.013707 
L 387.688178 -101.065065 
L 386.682341 -100.179274 
L 385.676504 -99.354348 
L 384.670667 -98.588012 
L 383.66483 -97.877755 
L 382.658993 -97.220877 
L 381.653156 -96.614536 
L 380.647319 -96.055792 
L 379.641482 -95.541647 
L 378.635645 -95.069086 
L 377.629808 -94.635113 
L 376.623971 -94.236787 
L 375.618134 -93.871255 
L 374.612297 -93.535778 
L 373.60646 -93.227761 
L 372.600623 -92.944767 
L 371.594786 -92.684539 
L 370.588949 -92.445008 
L 369.583112 -92.224299 
L 368.577275 -92.02073 
L 367.571438 -91.832809 
L 366.565601 -91.659223 
L 365.559764 -91.498829 
L 364.553927 -91.350635 
L 363.54809 -91.213782 
L 362.542253 -91.087527 
L 361.536416 -90.971223 
L 360.530579 -90.8643 
L 359.524742 -90.766247 
L 358.518905 -90.676596 
L 357.513068 -90.59491 
L 356.507231 -90.520767 
L 355.501394 -90.453758 
L 354.495557 -90.393474 
L 353.48972 -90.339508 
L 352.483883 -90.291448 
L 351.478046 -90.24888 
L 350.472209 -90.21139 
L 349.466372 -90.178566 
L 348.460535 -90.149998 
L 347.454698 -90.125288 
L 346.448861 -90.104047 
L 345.443024 -90.085905 
L 344.437187 -90.07051 
L 343.43135 -90.05753 
L 342.425513 -90.046659 
L 341.419676 -90.037613 
L 340.413839 -90.030137 
L 339.408002 -90.023999 
L 338.402165 -90.018994 
L 337.396328 -90.01494 
z
" style="stroke: #0000ff; stroke-width: 8"/>
    </defs>
    <g clip-path="url(#p49de5a6b0a)">
     <use xlink:href="#mf7babea7fa" x="0" y="720" style="fill: #0000ff; fill-opacity: 0.5; stroke: #0000ff; stroke-width: 8"/>
    </g>
   </g>
   <g id="matplotlib.axis_7">
    <g id="xtick_1">
     <g id="line2d_1">
      <defs>
       <path id="m404fd923bc" d="M 0 0 
L 0 3.5 
" style="stroke: #000000; stroke-width: 0.8"/>
      </defs>
      <g>
       <use xlink:href="#m404fd923bc" x="175.851034" y="630" style="stroke: #000000; stroke-width: 0.8"/>
      </g>
     </g>
     <g id="text_1">
      <!-- 1000 -->
      <g transform="translate(163.126034 644.598437)scale(0.1 -0.1)">
       <defs>
        <path id="DejaVuSans-31" d="M 794 531 
L 1825 531 
L 1825 4091 
L 703 3866 
L 703 4441 
L 1819 4666 
L 2450 4666 
L 2450 531 
L 3481 531 
L 3481 0 
L 794 0 
L 794 531 
z
" transform="scale(0.015625)"/>
        <path id="DejaVuSans-30" d="M 2034 4250 
Q 1547 4250 1301 3770 
Q 1056 3291 1056 2328 
Q 1056 1369 1301 889 
Q 1547 409 2034 409 
Q 2525 409 2770 889 
Q 3016 1369 3016 2328 
Q 3016 3291 2770 3770 
Q 2525 4250 2034 4250 
z
M 2034 4750 
Q 2819 4750 3233 4129 
Q 3647 3509 3647 2328 
Q 3647 1150 3233 529 
Q 2819 -91 2034 -91 
Q 1250 -91 836 529 
Q 422 1150 422 2328 
Q 422 3509 836 4129 
Q 1250 4750 2034 4750 
z
" transform="scale(0.015625)"/>
       </defs>
       <use xlink:href="#DejaVuSans-31"/>
       <use xlink:href="#DejaVuSans-30" x="63.623047"/>
       <use xlink:href="#DejaVuSans-30" x="127.246094"/>
       <use xlink:href="#DejaVuSans-30" x="190.869141"/>
      </g>
     </g>
    </g>
    <g id="xtick_2">
     <g id="line2d_2">
      <g>
       <use xlink:href="#m404fd923bc" x="354.301379" y="630" style="stroke: #000000; stroke-width: 0.8"/>
      </g>
     </g>
     <g id="text_2">
      <!-- 10000 -->
      <g transform="translate(338.395129 644.598437)scale(0.1 -0.1)">
       <use xlink:href="#DejaVuSans-31"/>
       <use xlink:href="#DejaVuSans-30" x="63.623047"/>
       <use xlink:href="#DejaVuSans-30" x="127.246094"/>
       <use xlink:href="#DejaVuSans-30" x="190.869141"/>
       <use xlink:href="#DejaVuSans-30" x="254.492188"/>
      </g>
     </g>
    </g>
    <g id="xtick_3">
     <g id="line2d_3">
      <g>
       <use xlink:href="#m404fd923bc" x="532.751724" y="630" style="stroke: #000000; stroke-width: 0.8"/>
      </g>
     </g>
     <g id="text_3">
      <!-- 100000 -->
      <g transform="translate(513.664224 644.598437)scale(0.1 -0.1)">
       <use xlink:href="#DejaVuSans-31"/>
       <use xlink:href="#DejaVuSans-30" x="63.623047"/>
       <use xlink:href="#DejaVuSans-30" x="127.246094"/>
       <use xlink:href="#DejaVuSans-30" x="190.869141"/>
       <use xlink:href="#DejaVuSans-30" x="254.492188"/>
       <use xlink:href="#DejaVuSans-30" x="318.115234"/>
      </g>
     </g>
    </g>
   </g>
   <g id="matplotlib.axis_8"/>
   <g id="patch_18">
    <path d="M 90 630 
L 90 494.10001 
" style="fill: none; stroke: #000000; stroke-width: 0.8; stroke-linejoin: miter; stroke-linecap: square"/>
   </g>
   <g id="patch_19">
    <path d="M 648 630 
L 648 494.10001 
" style="fill: none; stroke: #000000; stroke-width: 0.8; stroke-linejoin: miter; stroke-linecap: square"/>
   </g>
   <g id="patch_20">
    <path d="M 90 630 
L 648 630 
" style="fill: none; stroke: #000000; stroke-width: 0.8; stroke-linejoin: miter; stroke-linecap: square"/>
   </g>
   <g id="patch_21">
    <path d="M 90 494.10001 
L 648 494.10001 
" style="fill: none; stroke: #000000; stroke-width: 0.8; stroke-linejoin: miter; stroke-linecap: square"/>
   </g>
   <g id="legend_1"/>
  </g>
 </g>
 <defs>
  <clipPath id="p98bdccedb0">
   <rect x="90" y="86.4" width="558" height="135.89999"/>
  </clipPath>
  <clipPath id="pf2d30b0c6d">
   <rect x="90" y="222.300003" width="558" height="135.89999"/>
  </clipPath>
  <clipPath id="pfe4b56a9ed">
   <rect x="90" y="358.200007" width="558" height="135.89999"/>
  </clipPath>
  <clipPath id="p49de5a6b0a">
   <rect x="90" y="494.10001" width="558" height="135.89999"/>
  </clipPath>
 </defs>
</svg>
