<?xml version="1.0" encoding="utf-8" standalone="no"?>
<!DOCTYPE svg PUBLIC "-//W3C//DTD SVG 1.1//EN"
  "http://www.w3.org/Graphics/SVG/1.1/DTD/svg11.dtd">
<svg xmlns:xlink="http://www.w3.org/1999/xlink" width="720pt" height="720pt" viewBox="0 0 720 720" xmlns="http://www.w3.org/2000/svg" version="1.1">
 <metadata>
  <rdf:RDF xmlns:dc="http://purl.org/dc/elements/1.1/" xmlns:cc="http://creativecommons.org/ns#" xmlns:rdf="http://www.w3.org/1999/02/22-rdf-syntax-ns#">
   <cc:Work>
    <dc:type rdf:resource="http://purl.org/dc/dcmitype/StillImage"/>
    <dc:date>2022-10-13T15:40:52.105842</dc:date>
    <dc:format>image/svg+xml</dc:format>
    <dc:creator>
     <cc:Agent>
      <dc:title>Matplotlib v3.5.1, https://matplotlib.org/</dc:title>
     </cc:Agent>
    </dc:creator>
   </cc:Work>
  </rdf:RDF>
 </metadata>
 <defs>
  <style type="text/css">*{stroke-linejoin: round; stroke-linecap: butt}</style>
 </defs>
 <g id="figure_1">
  <g id="patch_1">
   <path d="M 0 720 
L 720 720 
L 720 0 
L 0 0 
z
" style="fill: #ffffff"/>
  </g>
  <g id="axes_1">
   <g id="patch_2">
    <path d="M 90 222.29999 
L 648 222.29999 
L 648 86.4 
L 90 86.4 
z
" style="fill: #ffffff"/>
   </g>
   <g id="matplotlib.axis_1"/>
   <g id="matplotlib.axis_2"/>
   <g id="PathCollection_1"/>
   <g id="PathCollection_2"/>
   <g id="patch_3">
    <path d="M 90 222.29999 
L 90 86.4 
" style="fill: none; stroke: #262626; stroke-width: 0.8; stroke-linejoin: miter; stroke-linecap: square"/>
   </g>
   <g id="patch_4">
    <path d="M 648 222.29999 
L 648 86.4 
" style="fill: none; stroke: #262626; stroke-width: 0.8; stroke-linejoin: miter; stroke-linecap: square"/>
   </g>
   <g id="patch_5">
    <path d="M 90 222.29999 
L 648 222.29999 
" style="fill: none; stroke: #262626; stroke-width: 0.8; stroke-linejoin: miter; stroke-linecap: square"/>
   </g>
   <g id="patch_6">
    <path d="M 90 86.4 
L 648 86.4 
" style="fill: none; stroke: #262626; stroke-width: 0.8; stroke-linejoin: miter; stroke-linecap: square"/>
   </g>
   <g id="PathCollection_3">
    <defs>
     <path id="C0_0_914f652d57" d="M 0 7.5 
C 1.989023 7.5 3.896849 6.709753 5.303301 5.303301 
C 6.709753 3.896849 7.5 1.989023 7.5 -0 
C 7.5 -1.989023 6.709753 -3.896849 5.303301 -5.303301 
C 3.896849 -6.709753 1.989023 -7.5 0 -7.5 
C -1.989023 -7.5 -3.896849 -6.709753 -5.303301 -5.303301 
C -6.709753 -3.896849 -7.5 -1.989023 -7.5 0 
C -7.5 1.989023 -6.709753 3.896849 -5.303301 5.303301 
C -3.896849 6.709753 -1.989023 7.5 0 7.5 
z
"/>
    </defs>
    <g clip-path="url(#p7cfc23a5c2)">
     <use xlink:href="#C0_0_914f652d57" x="205.550545" y="109.049998" style="fill: #0000ff; fill-opacity: 0.5"/>
    </g>
    <g clip-path="url(#p7cfc23a5c2)">
     <use xlink:href="#C0_0_914f652d57" x="427.370694" y="109.049998" style="fill: #ff0000; fill-opacity: 0.5"/>
    </g>
   </g>
   <g id="PathCollection_4">
    <defs>
     <path id="C1_0_dbfc9c976d" d="M 0 7.5 
C 1.989023 7.5 3.896849 6.709753 5.303301 5.303301 
C 6.709753 3.896849 7.5 1.989023 7.5 -0 
C 7.5 -1.989023 6.709753 -3.896849 5.303301 -5.303301 
C 3.896849 -6.709753 1.989023 -7.5 0 -7.5 
C -1.989023 -7.5 -3.896849 -6.709753 -5.303301 -5.303301 
C -6.709753 -3.896849 -7.5 -1.989023 -7.5 0 
C -7.5 1.989023 -6.709753 3.896849 -5.303301 5.303301 
C -3.896849 6.709753 -1.989023 7.5 0 7.5 
z
"/>
    </defs>
    <g clip-path="url(#p7cfc23a5c2)">
     <use xlink:href="#C1_0_dbfc9c976d" x="314.99604" y="154.349995" style="fill: #0000ff; fill-opacity: 0.5"/>
    </g>
    <g clip-path="url(#p7cfc23a5c2)">
     <use xlink:href="#C1_0_dbfc9c976d" x="486.310325" y="154.349995" style="fill: #ff0000; fill-opacity: 0.5"/>
    </g>
   </g>
   <g id="PathCollection_5">
    <defs>
     <path id="C2_0_0abde679aa" d="M 0 7.5 
C 1.989023 7.5 3.896849 6.709753 5.303301 5.303301 
C 6.709753 3.896849 7.5 1.989023 7.5 -0 
C 7.5 -1.989023 6.709753 -3.896849 5.303301 -5.303301 
C 3.896849 -6.709753 1.989023 -7.5 0 -7.5 
C -1.989023 -7.5 -3.896849 -6.709753 -5.303301 -5.303301 
C -6.709753 -3.896849 -7.5 -1.989023 -7.5 0 
C -7.5 1.989023 -6.709753 3.896849 -5.303301 5.303301 
C -3.896849 6.709753 -1.989023 7.5 0 7.5 
z
"/>
    </defs>
    <g clip-path="url(#p7cfc23a5c2)">
     <use xlink:href="#C2_0_0abde679aa" x="375.038937" y="199.649992" style="fill: #0000ff; fill-opacity: 0.5"/>
    </g>
    <g clip-path="url(#p7cfc23a5c2)">
     <use xlink:href="#C2_0_0abde679aa" x="522.786737" y="199.649992" style="fill: #ff0000; fill-opacity: 0.5"/>
    </g>
   </g>
  </g>
  <g id="axes_2">
   <g id="patch_7">
    <path d="M 90 358.199993 
L 648 358.199993 
L 648 222.300003 
L 90 222.300003 
z
" style="fill: #ffffff"/>
   </g>
   <g id="matplotlib.axis_3"/>
   <g id="matplotlib.axis_4"/>
   <g id="PolyCollection_1">
    <defs>
     <path id="m89db19d12f" d="M 183.498441 -361.80077 
L 183.498441 -361.800007 
L 185.327636 -361.800007 
L 187.156832 -361.800007 
L 188.986027 -361.800007 
L 190.815223 -361.800007 
L 192.644418 -361.800007 
L 194.473613 -361.800007 
L 196.302809 -361.800007 
L 198.132004 -361.800007 
L 199.961199 -361.800007 
L 201.790395 -361.800007 
L 203.61959 -361.800007 
L 205.448786 -361.800007 
L 207.277981 -361.800007 
L 209.107176 -361.800007 
L 210.936372 -361.800007 
L 212.765567 -361.800007 
L 214.594763 -361.800007 
L 216.423958 -361.800007 
L 218.253153 -361.800007 
L 220.082349 -361.800007 
L 221.911544 -361.800007 
L 223.74074 -361.800007 
L 225.569935 -361.800007 
L 227.39913 -361.800007 
L 229.228326 -361.800007 
L 231.057521 -361.800007 
L 232.886717 -361.800007 
L 234.715912 -361.800007 
L 236.545107 -361.800007 
L 238.374303 -361.800007 
L 240.203498 -361.800007 
L 242.032693 -361.800007 
L 243.861889 -361.800007 
L 245.691084 -361.800007 
L 247.52028 -361.800007 
L 249.349475 -361.800007 
L 251.17867 -361.800007 
L 253.007866 -361.800007 
L 254.837061 -361.800007 
L 256.666257 -361.800007 
L 258.495452 -361.800007 
L 260.324647 -361.800007 
L 262.153843 -361.800007 
L 263.983038 -361.800007 
L 265.812234 -361.800007 
L 267.641429 -361.800007 
L 269.470624 -361.800007 
L 271.29982 -361.800007 
L 273.129015 -361.800007 
L 274.958211 -361.800007 
L 276.787406 -361.800007 
L 278.616601 -361.800007 
L 280.445797 -361.800007 
L 282.274992 -361.800007 
L 284.104187 -361.800007 
L 285.933383 -361.800007 
L 287.762578 -361.800007 
L 289.591774 -361.800007 
L 291.420969 -361.800007 
L 293.250164 -361.800007 
L 295.07936 -361.800007 
L 296.908555 -361.800007 
L 298.737751 -361.800007 
L 300.566946 -361.800007 
L 302.396141 -361.800007 
L 304.225337 -361.800007 
L 306.054532 -361.800007 
L 307.883728 -361.800007 
L 309.712923 -361.800007 
L 311.542118 -361.800007 
L 313.371314 -361.800007 
L 315.200509 -361.800007 
L 317.029705 -361.800007 
L 318.8589 -361.800007 
L 320.688095 -361.800007 
L 322.517291 -361.800007 
L 324.346486 -361.800007 
L 326.175682 -361.800007 
L 328.004877 -361.800007 
L 329.834072 -361.800007 
L 331.663268 -361.800007 
L 333.492463 -361.800007 
L 335.321658 -361.800007 
L 337.150854 -361.800007 
L 338.980049 -361.800007 
L 340.809245 -361.800007 
L 342.63844 -361.800007 
L 344.467635 -361.800007 
L 346.296831 -361.800007 
L 348.126026 -361.800007 
L 349.955222 -361.800007 
L 351.784417 -361.800007 
L 353.613612 -361.800007 
L 355.442808 -361.800007 
L 357.272003 -361.800007 
L 359.101199 -361.800007 
L 360.930394 -361.800007 
L 362.759589 -361.800007 
L 364.588785 -361.800007 
L 366.41798 -361.800007 
L 368.247176 -361.800007 
L 370.076371 -361.800007 
L 371.905566 -361.800007 
L 373.734762 -361.800007 
L 375.563957 -361.800007 
L 377.393152 -361.800007 
L 379.222348 -361.800007 
L 381.051543 -361.800007 
L 382.880739 -361.800007 
L 384.709934 -361.800007 
L 386.539129 -361.800007 
L 388.368325 -361.800007 
L 390.19752 -361.800007 
L 392.026716 -361.800007 
L 393.855911 -361.800007 
L 395.685106 -361.800007 
L 397.514302 -361.800007 
L 399.343497 -361.800007 
L 401.172693 -361.800007 
L 403.001888 -361.800007 
L 404.831083 -361.800007 
L 406.660279 -361.800007 
L 408.489474 -361.800007 
L 410.31867 -361.800007 
L 412.147865 -361.800007 
L 413.97706 -361.800007 
L 415.806256 -361.800007 
L 417.635451 -361.800007 
L 419.464646 -361.800007 
L 421.293842 -361.800007 
L 423.123037 -361.800007 
L 424.952233 -361.800007 
L 426.781428 -361.800007 
L 428.610623 -361.800007 
L 430.439819 -361.800007 
L 432.269014 -361.800007 
L 434.09821 -361.800007 
L 435.927405 -361.800007 
L 437.7566 -361.800007 
L 439.585796 -361.800007 
L 441.414991 -361.800007 
L 443.244187 -361.800007 
L 445.073382 -361.800007 
L 446.902577 -361.800007 
L 448.731773 -361.800007 
L 450.560968 -361.800007 
L 452.390164 -361.800007 
L 454.219359 -361.800007 
L 456.048554 -361.800007 
L 457.87775 -361.800007 
L 459.706945 -361.800007 
L 461.53614 -361.800007 
L 463.365336 -361.800007 
L 465.194531 -361.800007 
L 467.023727 -361.800007 
L 468.852922 -361.800007 
L 470.682117 -361.800007 
L 472.511313 -361.800007 
L 474.340508 -361.800007 
L 476.169704 -361.800007 
L 477.998899 -361.800007 
L 479.828094 -361.800007 
L 481.65729 -361.800007 
L 483.486485 -361.800007 
L 485.315681 -361.800007 
L 487.144876 -361.800007 
L 488.974071 -361.800007 
L 490.803267 -361.800007 
L 492.632462 -361.800007 
L 494.461658 -361.800007 
L 496.290853 -361.800007 
L 498.120048 -361.800007 
L 499.949244 -361.800007 
L 501.778439 -361.800007 
L 503.607635 -361.800007 
L 505.43683 -361.800007 
L 507.266025 -361.800007 
L 509.095221 -361.800007 
L 510.924416 -361.800007 
L 512.753611 -361.800007 
L 514.582807 -361.800007 
L 516.412002 -361.800007 
L 518.241198 -361.800007 
L 520.070393 -361.800007 
L 521.899588 -361.800007 
L 523.728784 -361.800007 
L 525.557979 -361.800007 
L 527.387175 -361.800007 
L 529.21637 -361.800007 
L 531.045565 -361.800007 
L 532.874761 -361.800007 
L 534.703956 -361.800007 
L 536.533152 -361.800007 
L 538.362347 -361.800007 
L 540.191542 -361.800007 
L 542.020738 -361.800007 
L 543.849933 -361.800007 
L 545.679129 -361.800007 
L 547.508324 -361.800007 
L 547.508324 -361.800907 
L 547.508324 -361.800907 
L 545.679129 -361.801763 
L 543.849933 -361.803282 
L 542.020738 -361.80585 
L 540.191542 -361.809988 
L 538.362347 -361.816345 
L 536.533152 -361.825665 
L 534.703956 -361.838708 
L 532.874761 -361.856152 
L 531.045565 -361.878463 
L 529.21637 -361.905775 
L 527.387175 -361.937797 
L 525.557979 -361.973766 
L 523.728784 -362.012458 
L 521.899588 -362.052266 
L 520.070393 -362.091334 
L 518.241198 -362.127745 
L 516.412002 -362.159753 
L 514.582807 -362.186053 
L 512.753611 -362.206028 
L 510.924416 -362.219939 
L 509.095221 -362.228981 
L 507.266025 -362.235153 
L 505.43683 -362.240934 
L 503.607635 -362.248809 
L 501.778439 -362.26074 
L 499.949244 -362.277704 
L 498.120048 -362.299407 
L 496.290853 -362.324256 
L 494.461658 -362.349594 
L 492.632462 -362.372149 
L 490.803267 -362.388613 
L 488.974071 -362.39622 
L 487.144876 -362.393224 
L 485.315681 -362.379186 
L 483.486485 -362.355041 
L 481.65729 -362.322959 
L 479.828094 -362.286038 
L 477.998899 -362.247895 
L 476.169704 -362.212202 
L 474.340508 -362.182225 
L 472.511313 -362.160396 
L 470.682117 -362.147986 
L 468.852922 -362.144915 
L 467.023727 -362.149765 
L 465.194531 -362.160027 
L 463.365336 -362.172562 
L 461.53614 -362.184194 
L 459.706945 -362.192339 
L 457.87775 -362.195485 
L 456.048554 -362.193443 
L 454.219359 -362.187278 
L 452.390164 -362.178984 
L 450.560968 -362.170988 
L 448.731773 -362.165646 
L 446.902577 -362.164841 
L 445.073382 -362.169793 
L 443.244187 -362.181061 
L 441.414991 -362.198717 
L 439.585796 -362.222612 
L 437.7566 -362.252647 
L 435.927405 -362.288982 
L 434.09821 -362.332112 
L 432.269014 -362.382769 
L 430.439819 -362.441652 
L 428.610623 -362.509011 
L 426.781428 -362.584185 
L 424.952233 -362.665223 
L 423.123037 -362.748734 
L 421.293842 -362.830067 
L 419.464646 -362.90387 
L 417.635451 -362.964967 
L 415.806256 -363.009397 
L 413.97706 -363.035368 
L 412.147865 -363.043866 
L 410.31867 -363.038706 
L 408.489474 -363.025933 
L 406.660279 -363.012686 
L 404.831083 -363.00581 
L 403.001888 -363.010606 
L 401.172693 -363.030109 
L 399.343497 -363.065122 
L 397.514302 -363.114962 
L 395.685106 -363.178642 
L 393.855911 -363.256032 
L 392.026716 -363.34856 
L 390.19752 -363.459165 
L 388.368325 -363.591512 
L 386.539129 -363.748739 
L 384.709934 -363.932191 
L 382.880739 -364.14062 
L 381.051543 -364.370179 
L 379.222348 -364.615275 
L 377.393152 -364.870093 
L 375.563957 -365.13036 
L 373.734762 -365.394849 
L 371.905566 -365.66623 
L 370.076371 -365.951037 
L 368.247176 -366.25881 
L 366.41798 -366.600715 
L 364.588785 -366.98806 
L 362.759589 -367.431134 
L 360.930394 -367.938658 
L 359.101199 -368.517884 
L 357.272003 -369.17514 
L 355.442808 -369.916448 
L 353.613612 -370.747783 
L 351.784417 -371.674674 
L 349.955222 -372.701048 
L 348.126026 -373.827523 
L 346.296831 -375.049601 
L 344.467635 -376.356373 
L 342.63844 -377.730378 
L 340.809245 -379.14901 
L 338.980049 -380.587472 
L 337.150854 -382.022744 
L 335.321658 -383.437509 
L 333.492463 -384.822804 
L 331.663268 -386.178331 
L 329.834072 -387.51004 
L 328.004877 -388.825495 
L 326.175682 -390.128408 
L 324.346486 -391.414097 
L 322.517291 -392.667434 
L 320.688095 -393.863967 
L 318.8589 -394.973816 
L 317.029705 -395.96689 
L 315.200509 -396.817621 
L 313.371314 -397.507693 
L 311.542118 -398.026143 
L 309.712923 -398.367353 
L 307.883728 -398.528203 
L 306.054532 -398.505875 
L 304.225337 -398.297287 
L 302.396141 -397.90028 
L 300.566946 -397.31585 
L 298.737751 -396.550312 
L 296.908555 -395.616424 
L 295.07936 -394.533028 
L 293.250164 -393.323427 
L 291.420969 -392.013114 
L 289.591774 -390.62755 
L 287.762578 -389.190484 
L 285.933383 -387.722977 
L 284.104187 -386.243055 
L 282.274992 -384.765808 
L 280.445797 -383.303762 
L 278.616601 -381.867362 
L 276.787406 -380.465475 
L 274.958211 -379.105756 
L 273.129015 -377.794814 
L 271.29982 -376.538161 
L 269.470624 -375.340047 
L 267.641429 -374.20333 
L 265.812234 -373.129535 
L 263.983038 -372.119116 
L 262.153843 -371.171829 
L 260.324647 -370.287074 
L 258.495452 -369.464064 
L 256.666257 -368.701801 
L 254.837061 -367.998943 
L 253.007866 -367.353684 
L 251.17867 -366.763754 
L 249.349475 -366.226543 
L 247.52028 -365.739297 
L 245.691084 -365.299281 
L 243.861889 -364.903814 
L 242.032693 -364.550166 
L 240.203498 -364.235347 
L 238.374303 -363.955888 
L 236.545107 -363.707746 
L 234.715912 -363.486412 
L 232.886717 -363.287248 
L 231.057521 -363.105996 
L 229.228326 -362.939291 
L 227.39913 -362.785029 
L 225.569935 -362.642453 
L 223.74074 -362.511924 
L 221.911544 -362.394442 
L 220.082349 -362.291076 
L 218.253153 -362.202448 
L 216.423958 -362.128407 
L 214.594763 -362.067943 
L 212.765567 -362.019327 
L 210.936372 -361.980397 
L 209.107176 -361.948906 
L 207.277981 -361.922845 
L 205.448786 -361.900658 
L 203.61959 -361.881326 
L 201.790395 -361.864326 
L 199.961199 -361.849496 
L 198.132004 -361.836854 
L 196.302809 -361.826445 
L 194.473613 -361.818231 
L 192.644418 -361.812045 
L 190.815223 -361.807615 
L 188.986027 -361.804601 
L 187.156832 -361.802655 
L 185.327636 -361.801463 
L 183.498441 -361.80077 
z
" style="stroke: #ff0000; stroke-width: 8"/>
    </defs>
    <g clip-path="url(#p27559c72aa)">
     <use xlink:href="#m89db19d12f" x="0" y="720" style="fill: #ff0000; fill-opacity: 0.5; stroke: #ff0000; stroke-width: 8"/>
    </g>
   </g>
   <g id="PolyCollection_2">
    <defs>
     <path id="mff06bb7534" d="M 91.713579 -361.801799 
L 91.713579 -361.800007 
L 93.560345 -361.800007 
L 95.40711 -361.800007 
L 97.253876 -361.800007 
L 99.100641 -361.800007 
L 100.947407 -361.800007 
L 102.794173 -361.800007 
L 104.640938 -361.800007 
L 106.487704 -361.800007 
L 108.334469 -361.800007 
L 110.181235 -361.800007 
L 112.028001 -361.800007 
L 113.874766 -361.800007 
L 115.721532 -361.800007 
L 117.568297 -361.800007 
L 119.415063 -361.800007 
L 121.261829 -361.800007 
L 123.108594 -361.800007 
L 124.95536 -361.800007 
L 126.802125 -361.800007 
L 128.648891 -361.800007 
L 130.495657 -361.800007 
L 132.342422 -361.800007 
L 134.189188 -361.800007 
L 136.035953 -361.800007 
L 137.882719 -361.800007 
L 139.729485 -361.800007 
L 141.57625 -361.800007 
L 143.423016 -361.800007 
L 145.269781 -361.800007 
L 147.116547 -361.800007 
L 148.963313 -361.800007 
L 150.810078 -361.800007 
L 152.656844 -361.800007 
L 154.503609 -361.800007 
L 156.350375 -361.800007 
L 158.197141 -361.800007 
L 160.043906 -361.800007 
L 161.890672 -361.800007 
L 163.737438 -361.800007 
L 165.584203 -361.800007 
L 167.430969 -361.800007 
L 169.277734 -361.800007 
L 171.1245 -361.800007 
L 172.971266 -361.800007 
L 174.818031 -361.800007 
L 176.664797 -361.800007 
L 178.511562 -361.800007 
L 180.358328 -361.800007 
L 182.205094 -361.800007 
L 184.051859 -361.800007 
L 185.898625 -361.800007 
L 187.74539 -361.800007 
L 189.592156 -361.800007 
L 191.438922 -361.800007 
L 193.285687 -361.800007 
L 195.132453 -361.800007 
L 196.979218 -361.800007 
L 198.825984 -361.800007 
L 200.67275 -361.800007 
L 202.519515 -361.800007 
L 204.366281 -361.800007 
L 206.213046 -361.800007 
L 208.059812 -361.800007 
L 209.906578 -361.800007 
L 211.753343 -361.800007 
L 213.600109 -361.800007 
L 215.446874 -361.800007 
L 217.29364 -361.800007 
L 219.140406 -361.800007 
L 220.987171 -361.800007 
L 222.833937 -361.800007 
L 224.680702 -361.800007 
L 226.527468 -361.800007 
L 228.374234 -361.800007 
L 230.220999 -361.800007 
L 232.067765 -361.800007 
L 233.91453 -361.800007 
L 235.761296 -361.800007 
L 237.608062 -361.800007 
L 239.454827 -361.800007 
L 241.301593 -361.800007 
L 243.148358 -361.800007 
L 244.995124 -361.800007 
L 246.84189 -361.800007 
L 248.688655 -361.800007 
L 250.535421 -361.800007 
L 252.382186 -361.800007 
L 254.228952 -361.800007 
L 256.075718 -361.800007 
L 257.922483 -361.800007 
L 259.769249 -361.800007 
L 261.616014 -361.800007 
L 263.46278 -361.800007 
L 265.309546 -361.800007 
L 267.156311 -361.800007 
L 269.003077 -361.800007 
L 270.849842 -361.800007 
L 272.696608 -361.800007 
L 274.543374 -361.800007 
L 276.390139 -361.800007 
L 278.236905 -361.800007 
L 280.083671 -361.800007 
L 281.930436 -361.800007 
L 283.777202 -361.800007 
L 285.623967 -361.800007 
L 287.470733 -361.800007 
L 289.317499 -361.800007 
L 291.164264 -361.800007 
L 293.01103 -361.800007 
L 294.857795 -361.800007 
L 296.704561 -361.800007 
L 298.551327 -361.800007 
L 300.398092 -361.800007 
L 302.244858 -361.800007 
L 304.091623 -361.800007 
L 305.938389 -361.800007 
L 307.785155 -361.800007 
L 309.63192 -361.800007 
L 311.478686 -361.800007 
L 313.325451 -361.800007 
L 315.172217 -361.800007 
L 317.018983 -361.800007 
L 318.865748 -361.800007 
L 320.712514 -361.800007 
L 322.559279 -361.800007 
L 324.406045 -361.800007 
L 326.252811 -361.800007 
L 328.099576 -361.800007 
L 329.946342 -361.800007 
L 331.793107 -361.800007 
L 333.639873 -361.800007 
L 335.486639 -361.800007 
L 337.333404 -361.800007 
L 339.18017 -361.800007 
L 341.026935 -361.800007 
L 342.873701 -361.800007 
L 344.720467 -361.800007 
L 346.567232 -361.800007 
L 348.413998 -361.800007 
L 350.260763 -361.800007 
L 352.107529 -361.800007 
L 353.954295 -361.800007 
L 355.80106 -361.800007 
L 357.647826 -361.800007 
L 359.494591 -361.800007 
L 361.341357 -361.800007 
L 363.188123 -361.800007 
L 365.034888 -361.800007 
L 366.881654 -361.800007 
L 368.728419 -361.800007 
L 370.575185 -361.800007 
L 372.421951 -361.800007 
L 374.268716 -361.800007 
L 376.115482 -361.800007 
L 377.962247 -361.800007 
L 379.809013 -361.800007 
L 381.655779 -361.800007 
L 383.502544 -361.800007 
L 385.34931 -361.800007 
L 387.196075 -361.800007 
L 389.042841 -361.800007 
L 390.889607 -361.800007 
L 392.736372 -361.800007 
L 394.583138 -361.800007 
L 396.429903 -361.800007 
L 398.276669 -361.800007 
L 400.123435 -361.800007 
L 401.9702 -361.800007 
L 403.816966 -361.800007 
L 405.663732 -361.800007 
L 407.510497 -361.800007 
L 409.357263 -361.800007 
L 411.204028 -361.800007 
L 413.050794 -361.800007 
L 414.89756 -361.800007 
L 416.744325 -361.800007 
L 418.591091 -361.800007 
L 420.437856 -361.800007 
L 422.284622 -361.800007 
L 424.131388 -361.800007 
L 425.978153 -361.800007 
L 427.824919 -361.800007 
L 429.671684 -361.800007 
L 431.51845 -361.800007 
L 433.365216 -361.800007 
L 435.211981 -361.800007 
L 437.058747 -361.800007 
L 438.905512 -361.800007 
L 440.752278 -361.800007 
L 442.599044 -361.800007 
L 444.445809 -361.800007 
L 446.292575 -361.800007 
L 448.13934 -361.800007 
L 449.986106 -361.800007 
L 451.832872 -361.800007 
L 453.679637 -361.800007 
L 455.526403 -361.800007 
L 457.373168 -361.800007 
L 459.219934 -361.800007 
L 459.219934 -361.800806 
L 459.219934 -361.800806 
L 457.373168 -361.801593 
L 455.526403 -361.802982 
L 453.679637 -361.805282 
L 451.832872 -361.808847 
L 449.986106 -361.814011 
L 448.13934 -361.820982 
L 446.292575 -361.829723 
L 444.445809 -361.839854 
L 442.599044 -361.850636 
L 440.752278 -361.861066 
L 438.905512 -361.870099 
L 437.058747 -361.876936 
L 435.211981 -361.881287 
L 433.365216 -361.883492 
L 431.51845 -361.88446 
L 429.671684 -361.885412 
L 427.824919 -361.887534 
L 425.978153 -361.891682 
L 424.131388 -361.898234 
L 422.284622 -361.907159 
L 420.437856 -361.918245 
L 418.591091 -361.931371 
L 416.744325 -361.946699 
L 414.89756 -361.96471 
L 413.050794 -361.986066 
L 411.204028 -362.011364 
L 409.357263 -362.04088 
L 407.510497 -362.074379 
L 405.663732 -362.111067 
L 403.816966 -362.149671 
L 401.9702 -362.188628 
L 400.123435 -362.226333 
L 398.276669 -362.26136 
L 396.429903 -362.292615 
L 394.583138 -362.319379 
L 392.736372 -362.341261 
L 390.889607 -362.358137 
L 389.042841 -362.370117 
L 387.196075 -362.377647 
L 385.34931 -362.381676 
L 383.502544 -362.383831 
L 381.655779 -362.386404 
L 379.809013 -362.392042 
L 377.962247 -362.403097 
L 376.115482 -362.420794 
L 374.268716 -362.444486 
L 372.421951 -362.471309 
L 370.575185 -362.496449 
L 368.728419 -362.514044 
L 366.881654 -362.518487 
L 365.034888 -362.505769 
L 363.188123 -362.474446 
L 361.341357 -362.425974 
L 359.494591 -362.364324 
L 357.647826 -362.295056 
L 355.80106 -362.224151 
L 353.954295 -362.156915 
L 352.107529 -362.097228 
L 350.260763 -362.047214 
L 348.413998 -362.007325 
L 346.567232 -361.976708 
L 344.720467 -361.953724 
L 342.873701 -361.936512 
L 341.026935 -361.923518 
L 339.18017 -361.913919 
L 337.333404 -361.907893 
L 335.486639 -361.906655 
L 333.639873 -361.912243 
L 331.793107 -361.927033 
L 329.946342 -361.953086 
L 328.099576 -361.991455 
L 326.252811 -362.041612 
L 324.406045 -362.101175 
L 322.559279 -362.166041 
L 320.712514 -362.230945 
L 318.865748 -362.290363 
L 317.018983 -362.339553 
L 315.172217 -362.375495 
L 313.325451 -362.397456 
L 311.478686 -362.407036 
L 309.63192 -362.407675 
L 307.785155 -362.403766 
L 305.938389 -362.399638 
L 304.091623 -362.398722 
L 302.244858 -362.403099 
L 300.398092 -362.413501 
L 298.551327 -362.429647 
L 296.704561 -362.450684 
L 294.857795 -362.475504 
L 293.01103 -362.502819 
L 291.164264 -362.530989 
L 289.317499 -362.557801 
L 287.470733 -362.580388 
L 285.623967 -362.595453 
L 283.777202 -362.59985 
L 281.930436 -362.591358 
L 280.083671 -362.569406 
L 278.236905 -362.535462 
L 276.390139 -362.492892 
L 274.543374 -362.4463 
L 272.696608 -362.400539 
L 270.849842 -362.359739 
L 269.003077 -362.326662 
L 267.156311 -362.302611 
L 265.309546 -362.28788 
L 263.46278 -362.282579 
L 261.616014 -362.287501 
L 259.769249 -362.304719 
L 257.922483 -362.337653 
L 256.075718 -362.390527 
L 254.228952 -362.46736 
L 252.382186 -362.570784 
L 250.535421 -362.701125 
L 248.688655 -362.856116 
L 246.84189 -363.031433 
L 244.995124 -363.222004 
L 243.148358 -363.423738 
L 241.301593 -363.635177 
L 239.454827 -363.858587 
L 237.608062 -364.100151 
L 235.761296 -364.369218 
L 233.91453 -364.676794 
L 232.067765 -365.033685 
L 230.220999 -365.448775 
L 228.374234 -365.927952 
L 226.527468 -366.474041 
L 224.680702 -367.08788 
L 222.833937 -367.770331 
L 220.987171 -368.524636 
L 219.140406 -369.358353 
L 217.29364 -370.2841 
L 215.446874 -371.318724 
L 213.600109 -372.48104 
L 211.753343 -373.788835 
L 209.906578 -375.256111 
L 208.059812 -376.891396 
L 206.213046 -378.697385 
L 204.366281 -380.671485 
L 202.519515 -382.806292 
L 200.67275 -385.08912 
L 198.825984 -387.500313 
L 196.979218 -390.010954 
L 195.132453 -392.581211 
L 193.285687 -395.160514 
L 191.438922 -397.690042 
L 189.592156 -400.107008 
L 187.74539 -402.34949 
L 185.898625 -404.360499 
L 184.051859 -406.090476 
L 182.205094 -407.498192 
L 180.358328 -408.550726 
L 178.511562 -409.223358 
L 176.664797 -409.500071 
L 174.818031 -409.374836 
L 172.971266 -408.853293 
L 171.1245 -407.954069 
L 169.277734 -406.708789 
L 167.430969 -405.160163 
L 165.584203 -403.358034 
L 163.737438 -401.354131 
L 161.890672 -399.196811 
L 160.043906 -396.927292 
L 158.197141 -394.578393 
L 156.350375 -392.175898 
L 154.503609 -389.741662 
L 152.656844 -387.297063 
L 150.810078 -384.865496 
L 148.963313 -382.473225 
L 147.116547 -380.148713 
L 145.269781 -377.921014 
L 143.423016 -375.817927 
L 141.57625 -373.864346 
L 139.729485 -372.080922 
L 137.882719 -370.482959 
L 136.035953 -369.079424 
L 134.189188 -367.87208 
L 132.342422 -366.854901 
L 130.495657 -366.014063 
L 128.648891 -365.328808 
L 126.802125 -364.773343 
L 124.95536 -364.319661 
L 123.108594 -363.94083 
L 121.261829 -363.614058 
L 119.415063 -363.322831 
L 117.568297 -363.057636 
L 115.721532 -362.815195 
L 113.874766 -362.596581 
L 112.028001 -362.40485 
L 110.181235 -362.242866 
L 108.334469 -362.111833 
L 106.487704 -362.01071 
L 104.640938 -361.936411 
L 102.794173 -361.884497 
L 100.947407 -361.850026 
L 99.100641 -361.828282 
L 97.253876 -361.815257 
L 95.40711 -361.807848 
L 93.560345 -361.803848 
L 91.713579 -361.801799 
z
" style="stroke: #0000ff; stroke-width: 8"/>
    </defs>
    <g clip-path="url(#p27559c72aa)">
     <use xlink:href="#mff06bb7534" x="0" y="720" style="fill: #0000ff; fill-opacity: 0.5; stroke: #0000ff; stroke-width: 8"/>
    </g>
   </g>
   <g id="patch_8">
    <path d="M 90 358.199993 
L 90 222.300003 
" style="fill: none; stroke: #262626; stroke-width: 0.8; stroke-linejoin: miter; stroke-linecap: square"/>
   </g>
   <g id="patch_9">
    <path d="M 648 358.199993 
L 648 222.300003 
" style="fill: none; stroke: #262626; stroke-width: 0.8; stroke-linejoin: miter; stroke-linecap: square"/>
   </g>
   <g id="patch_10">
    <path d="M 90 358.199993 
L 648 358.199993 
" style="fill: none; stroke: #262626; stroke-width: 0.8; stroke-linejoin: miter; stroke-linecap: square"/>
   </g>
   <g id="patch_11">
    <path d="M 90 222.300003 
L 648 222.300003 
" style="fill: none; stroke: #262626; stroke-width: 0.8; stroke-linejoin: miter; stroke-linecap: square"/>
   </g>
  </g>
  <g id="axes_3">
   <g id="patch_12">
    <path d="M 90 494.099997 
L 648 494.099997 
L 648 358.200007 
L 90 358.200007 
z
" style="fill: #ffffff"/>
   </g>
   <g id="matplotlib.axis_5"/>
   <g id="matplotlib.axis_6"/>
   <g id="PolyCollection_3">
    <defs>
     <path id="m6e878cbf8e" d="M 158.716319 -225.910118 
L 158.716319 -225.900003 
L 160.609493 -225.900003 
L 162.502666 -225.900003 
L 164.39584 -225.900003 
L 166.289013 -225.900003 
L 168.182187 -225.900003 
L 170.07536 -225.900003 
L 171.968534 -225.900003 
L 173.861707 -225.900003 
L 175.754881 -225.900003 
L 177.648055 -225.900003 
L 179.541228 -225.900003 
L 181.434402 -225.900003 
L 183.327575 -225.900003 
L 185.220749 -225.900003 
L 187.113922 -225.900003 
L 189.007096 -225.900003 
L 190.900269 -225.900003 
L 192.793443 -225.900003 
L 194.686616 -225.900003 
L 196.57979 -225.900003 
L 198.472964 -225.900003 
L 200.366137 -225.900003 
L 202.259311 -225.900003 
L 204.152484 -225.900003 
L 206.045658 -225.900003 
L 207.938831 -225.900003 
L 209.832005 -225.900003 
L 211.725178 -225.900003 
L 213.618352 -225.900003 
L 215.511525 -225.900003 
L 217.404699 -225.900003 
L 219.297873 -225.900003 
L 221.191046 -225.900003 
L 223.08422 -225.900003 
L 224.977393 -225.900003 
L 226.870567 -225.900003 
L 228.76374 -225.900003 
L 230.656914 -225.900003 
L 232.550087 -225.900003 
L 234.443261 -225.900003 
L 236.336434 -225.900003 
L 238.229608 -225.900003 
L 240.122782 -225.900003 
L 242.015955 -225.900003 
L 243.909129 -225.900003 
L 245.802302 -225.900003 
L 247.695476 -225.900003 
L 249.588649 -225.900003 
L 251.481823 -225.900003 
L 253.374996 -225.900003 
L 255.26817 -225.900003 
L 257.161343 -225.900003 
L 259.054517 -225.900003 
L 260.94769 -225.900003 
L 262.840864 -225.900003 
L 264.734038 -225.900003 
L 266.627211 -225.900003 
L 268.520385 -225.900003 
L 270.413558 -225.900003 
L 272.306732 -225.900003 
L 274.199905 -225.900003 
L 276.093079 -225.900003 
L 277.986252 -225.900003 
L 279.879426 -225.900003 
L 281.772599 -225.900003 
L 283.665773 -225.900003 
L 285.558947 -225.900003 
L 287.45212 -225.900003 
L 289.345294 -225.900003 
L 291.238467 -225.900003 
L 293.131641 -225.900003 
L 295.024814 -225.900003 
L 296.917988 -225.900003 
L 298.811161 -225.900003 
L 300.704335 -225.900003 
L 302.597508 -225.900003 
L 304.490682 -225.900003 
L 306.383856 -225.900003 
L 308.277029 -225.900003 
L 310.170203 -225.900003 
L 312.063376 -225.900003 
L 313.95655 -225.900003 
L 315.849723 -225.900003 
L 317.742897 -225.900003 
L 319.63607 -225.900003 
L 321.529244 -225.900003 
L 323.422417 -225.900003 
L 325.315591 -225.900003 
L 327.208765 -225.900003 
L 329.101938 -225.900003 
L 330.995112 -225.900003 
L 332.888285 -225.900003 
L 334.781459 -225.900003 
L 336.674632 -225.900003 
L 338.567806 -225.900003 
L 340.460979 -225.900003 
L 342.354153 -225.900003 
L 344.247326 -225.900003 
L 346.1405 -225.900003 
L 348.033673 -225.900003 
L 349.926847 -225.900003 
L 351.820021 -225.900003 
L 353.713194 -225.900003 
L 355.606368 -225.900003 
L 357.499541 -225.900003 
L 359.392715 -225.900003 
L 361.285888 -225.900003 
L 363.179062 -225.900003 
L 365.072235 -225.900003 
L 366.965409 -225.900003 
L 368.858582 -225.900003 
L 370.751756 -225.900003 
L 372.64493 -225.900003 
L 374.538103 -225.900003 
L 376.431277 -225.900003 
L 378.32445 -225.900003 
L 380.217624 -225.900003 
L 382.110797 -225.900003 
L 384.003971 -225.900003 
L 385.897144 -225.900003 
L 387.790318 -225.900003 
L 389.683491 -225.900003 
L 391.576665 -225.900003 
L 393.469839 -225.900003 
L 395.363012 -225.900003 
L 397.256186 -225.900003 
L 399.149359 -225.900003 
L 401.042533 -225.900003 
L 402.935706 -225.900003 
L 404.82888 -225.900003 
L 406.722053 -225.900003 
L 408.615227 -225.900003 
L 410.5084 -225.900003 
L 412.401574 -225.900003 
L 414.294748 -225.900003 
L 416.187921 -225.900003 
L 418.081095 -225.900003 
L 419.974268 -225.900003 
L 421.867442 -225.900003 
L 423.760615 -225.900003 
L 425.653789 -225.900003 
L 427.546962 -225.900003 
L 429.440136 -225.900003 
L 431.333309 -225.900003 
L 433.226483 -225.900003 
L 435.119657 -225.900003 
L 437.01283 -225.900003 
L 438.906004 -225.900003 
L 440.799177 -225.900003 
L 442.692351 -225.900003 
L 444.585524 -225.900003 
L 446.478698 -225.900003 
L 448.371871 -225.900003 
L 450.265045 -225.900003 
L 452.158218 -225.900003 
L 454.051392 -225.900003 
L 455.944565 -225.900003 
L 457.837739 -225.900003 
L 459.730913 -225.900003 
L 461.624086 -225.900003 
L 463.51726 -225.900003 
L 465.410433 -225.900003 
L 467.303607 -225.900003 
L 469.19678 -225.900003 
L 471.089954 -225.900003 
L 472.983127 -225.900003 
L 474.876301 -225.900003 
L 476.769474 -225.900003 
L 478.662648 -225.900003 
L 480.555822 -225.900003 
L 482.448995 -225.900003 
L 484.342169 -225.900003 
L 486.235342 -225.900003 
L 488.128516 -225.900003 
L 490.021689 -225.900003 
L 491.914863 -225.900003 
L 493.808036 -225.900003 
L 495.70121 -225.900003 
L 497.594383 -225.900003 
L 499.487557 -225.900003 
L 501.380731 -225.900003 
L 503.273904 -225.900003 
L 505.167078 -225.900003 
L 507.060251 -225.900003 
L 508.953425 -225.900003 
L 510.846598 -225.900003 
L 512.739772 -225.900003 
L 514.632945 -225.900003 
L 516.526119 -225.900003 
L 518.419292 -225.900003 
L 520.312466 -225.900003 
L 522.20564 -225.900003 
L 524.098813 -225.900003 
L 525.991987 -225.900003 
L 527.88516 -225.900003 
L 529.778334 -225.900003 
L 531.671507 -225.900003 
L 533.564681 -225.900003 
L 535.457854 -225.900003 
L 535.457854 -225.908228 
L 535.457854 -225.908228 
L 533.564681 -225.910862 
L 531.671507 -225.914258 
L 529.778334 -225.918612 
L 527.88516 -225.924162 
L 525.991987 -225.931199 
L 524.098813 -225.94007 
L 522.20564 -225.951193 
L 520.312466 -225.965066 
L 518.419292 -225.982275 
L 516.526119 -226.003513 
L 514.632945 -226.029583 
L 512.739772 -226.061421 
L 510.846598 -226.1001 
L 508.953425 -226.14685 
L 507.060251 -226.203062 
L 505.167078 -226.270302 
L 503.273904 -226.350315 
L 501.380731 -226.445029 
L 499.487557 -226.556553 
L 497.594383 -226.687171 
L 495.70121 -226.839324 
L 493.808036 -227.015592 
L 491.914863 -227.218663 
L 490.021689 -227.45129 
L 488.128516 -227.716243 
L 486.235342 -228.016251 
L 484.342169 -228.353929 
L 482.448995 -228.731699 
L 480.555822 -229.151711 
L 478.662648 -229.615744 
L 476.769474 -230.125118 
L 474.876301 -230.680602 
L 472.983127 -231.282322 
L 471.089954 -231.929685 
L 469.19678 -232.621309 
L 467.303607 -233.354977 
L 465.410433 -234.127604 
L 463.51726 -234.935234 
L 461.624086 -235.773059 
L 459.730913 -236.635475 
L 457.837739 -237.516154 
L 455.944565 -238.408155 
L 454.051392 -239.304058 
L 452.158218 -240.196117 
L 450.265045 -241.076435 
L 448.371871 -241.937148 
L 446.478698 -242.770612 
L 444.585524 -243.569588 
L 442.692351 -244.327421 
L 440.799177 -245.03819 
L 438.906004 -245.696844 
L 437.01283 -246.299296 
L 435.119657 -246.842493 
L 433.226483 -247.324437 
L 431.333309 -247.744175 
L 429.440136 -248.101744 
L 427.546962 -248.398088 
L 425.653789 -248.634939 
L 423.760615 -248.814678 
L 421.867442 -248.940181 
L 419.974268 -249.01465 
L 418.081095 -249.041457 
L 416.187921 -249.023987 
L 414.294748 -248.965503 
L 412.401574 -248.86903 
L 410.5084 -248.737278 
L 408.615227 -248.572576 
L 406.722053 -248.376859 
L 404.82888 -248.151671 
L 402.935706 -247.898201 
L 401.042533 -247.617339 
L 399.149359 -247.309755 
L 397.256186 -246.975982 
L 395.363012 -246.616507 
L 393.469839 -246.231857 
L 391.576665 -245.822679 
L 389.683491 -245.389802 
L 387.790318 -244.934289 
L 385.897144 -244.457463 
L 384.003971 -243.960917 
L 382.110797 -243.446505 
L 380.217624 -242.916315 
L 378.32445 -242.372631 
L 376.431277 -241.817885 
L 374.538103 -241.254603 
L 372.64493 -240.685349 
L 370.751756 -240.112679 
L 368.858582 -239.539091 
L 366.965409 -238.96699 
L 365.072235 -238.398666 
L 363.179062 -237.836272 
L 361.285888 -237.281823 
L 359.392715 -236.737193 
L 357.499541 -236.20413 
L 355.606368 -235.684266 
L 353.713194 -235.179132 
L 351.820021 -234.690173 
L 349.926847 -234.218756 
L 348.033673 -233.766184 
L 346.1405 -233.333689 
L 344.247326 -232.922434 
L 342.354153 -232.533499 
L 340.460979 -232.167865 
L 338.567806 -231.826397 
L 336.674632 -231.509819 
L 334.781459 -231.218693 
L 332.888285 -230.953393 
L 330.995112 -230.714091 
L 329.101938 -230.500733 
L 327.208765 -230.313034 
L 325.315591 -230.150468 
L 323.422417 -230.012267 
L 321.529244 -229.897431 
L 319.63607 -229.804731 
L 317.742897 -229.732734 
L 315.849723 -229.679813 
L 313.95655 -229.644178 
L 312.063376 -229.623898 
L 310.170203 -229.616927 
L 308.277029 -229.621137 
L 306.383856 -229.634347 
L 304.490682 -229.65435 
L 302.597508 -229.67895 
L 300.704335 -229.705987 
L 298.811161 -229.733374 
L 296.917988 -229.759122 
L 295.024814 -229.781379 
L 293.131641 -229.798453 
L 291.238467 -229.808845 
L 289.345294 -229.811277 
L 287.45212 -229.804713 
L 285.558947 -229.788381 
L 283.665773 -229.761788 
L 281.772599 -229.724729 
L 279.879426 -229.677289 
L 277.986252 -229.619834 
L 276.093079 -229.552999 
L 274.199905 -229.477665 
L 272.306732 -229.394923 
L 270.413558 -229.30604 
L 268.520385 -229.212408 
L 266.627211 -229.115495 
L 264.734038 -229.016791 
L 262.840864 -228.917756 
L 260.94769 -228.819759 
L 259.054517 -228.724037 
L 257.161343 -228.631647 
L 255.26817 -228.543432 
L 253.374996 -228.459995 
L 251.481823 -228.381683 
L 249.588649 -228.308588 
L 247.695476 -228.240549 
L 245.802302 -228.177175 
L 243.909129 -228.117873 
L 242.015955 -228.061884 
L 240.122782 -228.008327 
L 238.229608 -227.956246 
L 236.336434 -227.904659 
L 234.443261 -227.852607 
L 232.550087 -227.799196 
L 230.656914 -227.743641 
L 228.76374 -227.685296 
L 226.870567 -227.623682 
L 224.977393 -227.5585 
L 223.08422 -227.489643 
L 221.191046 -227.417189 
L 219.297873 -227.341393 
L 217.404699 -227.262673 
L 215.511525 -227.181581 
L 213.618352 -227.098778 
L 211.725178 -227.015004 
L 209.832005 -226.931044 
L 207.938831 -226.847699 
L 206.045658 -226.765753 
L 204.152484 -226.685949 
L 202.259311 -226.608966 
L 200.366137 -226.5354 
L 198.472964 -226.46575 
L 196.57979 -226.400411 
L 194.686616 -226.339672 
L 192.793443 -226.283713 
L 190.900269 -226.232614 
L 189.007096 -226.186361 
L 187.113922 -226.144855 
L 185.220749 -226.107929 
L 183.327575 -226.075355 
L 181.434402 -226.046861 
L 179.541228 -226.022145 
L 177.648055 -226.000881 
L 175.754881 -225.982738 
L 173.861707 -225.967384 
L 171.968534 -225.954495 
L 170.07536 -225.943762 
L 168.182187 -225.934896 
L 166.289013 -225.92763 
L 164.39584 -225.921723 
L 162.502666 -225.916958 
L 160.609493 -225.913145 
L 158.716319 -225.910118 
z
" style="stroke: #ff0000; stroke-width: 8"/>
    </defs>
    <g clip-path="url(#pa8e0572d4b)">
     <use xlink:href="#m6e878cbf8e" x="0" y="720" style="fill: #ff0000; fill-opacity: 0.5; stroke: #ff0000; stroke-width: 8"/>
    </g>
   </g>
   <g id="PolyCollection_4">
    <defs>
     <path id="mb1481d3176" d="M 183.184903 -225.906684 
L 183.184903 -225.900003 
L 184.890004 -225.900003 
L 186.595104 -225.900003 
L 188.300205 -225.900003 
L 190.005306 -225.900003 
L 191.710407 -225.900003 
L 193.415507 -225.900003 
L 195.120608 -225.900003 
L 196.825709 -225.900003 
L 198.53081 -225.900003 
L 200.23591 -225.900003 
L 201.941011 -225.900003 
L 203.646112 -225.900003 
L 205.351213 -225.900003 
L 207.056313 -225.900003 
L 208.761414 -225.900003 
L 210.466515 -225.900003 
L 212.171616 -225.900003 
L 213.876716 -225.900003 
L 215.581817 -225.900003 
L 217.286918 -225.900003 
L 218.992019 -225.900003 
L 220.697119 -225.900003 
L 222.40222 -225.900003 
L 224.107321 -225.900003 
L 225.812422 -225.900003 
L 227.517522 -225.900003 
L 229.222623 -225.900003 
L 230.927724 -225.900003 
L 232.632825 -225.900003 
L 234.337925 -225.900003 
L 236.043026 -225.900003 
L 237.748127 -225.900003 
L 239.453228 -225.900003 
L 241.158328 -225.900003 
L 242.863429 -225.900003 
L 244.56853 -225.900003 
L 246.273631 -225.900003 
L 247.978731 -225.900003 
L 249.683832 -225.900003 
L 251.388933 -225.900003 
L 253.094034 -225.900003 
L 254.799134 -225.900003 
L 256.504235 -225.900003 
L 258.209336 -225.900003 
L 259.914437 -225.900003 
L 261.619537 -225.900003 
L 263.324638 -225.900003 
L 265.029739 -225.900003 
L 266.73484 -225.900003 
L 268.43994 -225.900003 
L 270.145041 -225.900003 
L 271.850142 -225.900003 
L 273.555243 -225.900003 
L 275.260343 -225.900003 
L 276.965444 -225.900003 
L 278.670545 -225.900003 
L 280.375646 -225.900003 
L 282.080746 -225.900003 
L 283.785847 -225.900003 
L 285.490948 -225.900003 
L 287.196049 -225.900003 
L 288.901149 -225.900003 
L 290.60625 -225.900003 
L 292.311351 -225.900003 
L 294.016452 -225.900003 
L 295.721552 -225.900003 
L 297.426653 -225.900003 
L 299.131754 -225.900003 
L 300.836855 -225.900003 
L 302.541955 -225.900003 
L 304.247056 -225.900003 
L 305.952157 -225.900003 
L 307.657258 -225.900003 
L 309.362358 -225.900003 
L 311.067459 -225.900003 
L 312.77256 -225.900003 
L 314.477661 -225.900003 
L 316.182761 -225.900003 
L 317.887862 -225.900003 
L 319.592963 -225.900003 
L 321.298064 -225.900003 
L 323.003164 -225.900003 
L 324.708265 -225.900003 
L 326.413366 -225.900003 
L 328.118467 -225.900003 
L 329.823567 -225.900003 
L 331.528668 -225.900003 
L 333.233769 -225.900003 
L 334.93887 -225.900003 
L 336.64397 -225.900003 
L 338.349071 -225.900003 
L 340.054172 -225.900003 
L 341.759273 -225.900003 
L 343.464373 -225.900003 
L 345.169474 -225.900003 
L 346.874575 -225.900003 
L 348.579676 -225.900003 
L 350.284776 -225.900003 
L 351.989877 -225.900003 
L 353.694978 -225.900003 
L 355.400079 -225.900003 
L 357.105179 -225.900003 
L 358.81028 -225.900003 
L 360.515381 -225.900003 
L 362.220482 -225.900003 
L 363.925582 -225.900003 
L 365.630683 -225.900003 
L 367.335784 -225.900003 
L 369.040885 -225.900003 
L 370.745985 -225.900003 
L 372.451086 -225.900003 
L 374.156187 -225.900003 
L 375.861288 -225.900003 
L 377.566388 -225.900003 
L 379.271489 -225.900003 
L 380.97659 -225.900003 
L 382.681691 -225.900003 
L 384.386791 -225.900003 
L 386.091892 -225.900003 
L 387.796993 -225.900003 
L 389.502094 -225.900003 
L 391.207194 -225.900003 
L 392.912295 -225.900003 
L 394.617396 -225.900003 
L 396.322497 -225.900003 
L 398.027597 -225.900003 
L 399.732698 -225.900003 
L 401.437799 -225.900003 
L 403.1429 -225.900003 
L 404.848 -225.900003 
L 406.553101 -225.900003 
L 408.258202 -225.900003 
L 409.963303 -225.900003 
L 411.668403 -225.900003 
L 413.373504 -225.900003 
L 415.078605 -225.900003 
L 416.783706 -225.900003 
L 418.488806 -225.900003 
L 420.193907 -225.900003 
L 421.899008 -225.900003 
L 423.604109 -225.900003 
L 425.309209 -225.900003 
L 427.01431 -225.900003 
L 428.719411 -225.900003 
L 430.424512 -225.900003 
L 432.129612 -225.900003 
L 433.834713 -225.900003 
L 435.539814 -225.900003 
L 437.244915 -225.900003 
L 438.950015 -225.900003 
L 440.655116 -225.900003 
L 442.360217 -225.900003 
L 444.065318 -225.900003 
L 445.770418 -225.900003 
L 447.475519 -225.900003 
L 449.18062 -225.900003 
L 450.885721 -225.900003 
L 452.590821 -225.900003 
L 454.295922 -225.900003 
L 456.001023 -225.900003 
L 457.706124 -225.900003 
L 459.411224 -225.900003 
L 461.116325 -225.900003 
L 462.821426 -225.900003 
L 464.526527 -225.900003 
L 466.231627 -225.900003 
L 467.936728 -225.900003 
L 469.641829 -225.900003 
L 471.34693 -225.900003 
L 473.05203 -225.900003 
L 474.757131 -225.900003 
L 476.462232 -225.900003 
L 478.167333 -225.900003 
L 479.872433 -225.900003 
L 481.577534 -225.900003 
L 483.282635 -225.900003 
L 484.987736 -225.900003 
L 486.692836 -225.900003 
L 488.397937 -225.900003 
L 490.103038 -225.900003 
L 491.808139 -225.900003 
L 493.513239 -225.900003 
L 495.21834 -225.900003 
L 496.923441 -225.900003 
L 498.628542 -225.900003 
L 500.333642 -225.900003 
L 502.038743 -225.900003 
L 503.743844 -225.900003 
L 505.448945 -225.900003 
L 507.154045 -225.900003 
L 508.859146 -225.900003 
L 510.564247 -225.900003 
L 512.269348 -225.900003 
L 513.974448 -225.900003 
L 515.679549 -225.900003 
L 517.38465 -225.900003 
L 519.089751 -225.900003 
L 520.794851 -225.900003 
L 522.499952 -225.900003 
L 522.499952 -225.92505 
L 522.499952 -225.92505 
L 520.794851 -225.933844 
L 519.089751 -225.945434 
L 517.38465 -225.960604 
L 515.679549 -225.980322 
L 513.974448 -226.00578 
L 512.269348 -226.038421 
L 510.564247 -226.079986 
L 508.859146 -226.132549 
L 507.154045 -226.198563 
L 505.448945 -226.280894 
L 503.743844 -226.382862 
L 502.038743 -226.508267 
L 500.333642 -226.661412 
L 498.628542 -226.847114 
L 496.923441 -227.070691 
L 495.21834 -227.33794 
L 493.513239 -227.655088 
L 491.808139 -228.028712 
L 490.103038 -228.465637 
L 488.397937 -228.972794 
L 486.692836 -229.557056 
L 484.987736 -230.22503 
L 483.282635 -230.982832 
L 481.577534 -231.835819 
L 479.872433 -232.78832 
L 478.167333 -233.843337 
L 476.462232 -235.002257 
L 474.757131 -236.264564 
L 473.05203 -237.627581 
L 471.34693 -239.086242 
L 469.641829 -240.632921 
L 467.936728 -242.25732 
L 466.231627 -243.946443 
L 464.526527 -245.684649 
L 462.821426 -247.453806 
L 461.116325 -249.233542 
L 459.411224 -251.001599 
L 457.706124 -252.73427 
L 456.001023 -254.406935 
L 454.295922 -255.994647 
L 452.590821 -257.472779 
L 450.885721 -258.817697 
L 449.18062 -260.007421 
L 447.475519 -261.022276 
L 445.770418 -261.84548 
L 444.065318 -262.463654 
L 442.360217 -262.867235 
L 440.655116 -263.050768 
L 438.950015 -263.013065 
L 437.244915 -262.757227 
L 435.539814 -262.290525 
L 433.834713 -261.624149 
L 432.129612 -260.77283 
L 430.424512 -259.754361 
L 428.719411 -258.589036 
L 427.01431 -257.299025 
L 425.309209 -255.907723 
L 423.604109 -254.439092 
L 421.899008 -252.917017 
L 420.193907 -251.364718 
L 418.488806 -249.804212 
L 416.783706 -248.255865 
L 415.078605 -246.738023 
L 413.373504 -245.266747 
L 411.668403 -243.85564 
L 409.963303 -242.515761 
L 408.258202 -241.255637 
L 406.553101 -240.081339 
L 404.848 -238.996623 
L 403.1429 -238.003128 
L 401.437799 -237.100598 
L 399.732698 -236.287142 
L 398.027597 -235.559489 
L 396.322497 -234.913253 
L 394.617396 -234.343194 
L 392.912295 -233.843448 
L 391.207194 -233.407756 
L 389.502094 -233.029657 
L 387.796993 -232.70266 
L 386.091892 -232.420396 
L 384.386791 -232.176739 
L 382.681691 -231.965907 
L 380.97659 -231.782545 
L 379.271489 -231.62178 
L 377.566388 -231.479268 
L 375.861288 -231.351216 
L 374.156187 -231.234395 
L 372.451086 -231.126136 
L 370.745985 -231.024313 
L 369.040885 -230.92732 
L 367.335784 -230.834029 
L 365.630683 -230.743747 
L 363.925582 -230.656164 
L 362.220482 -230.571289 
L 360.515381 -230.489392 
L 358.81028 -230.410936 
L 357.105179 -230.33651 
L 355.400079 -230.26677 
L 353.694978 -230.202373 
L 351.989877 -230.143928 
L 350.284776 -230.091945 
L 348.579676 -230.046798 
L 346.874575 -230.00869 
L 345.169474 -229.977641 
L 343.464373 -229.953468 
L 341.759273 -229.935788 
L 340.054172 -229.924025 
L 338.349071 -229.917423 
L 336.64397 -229.915071 
L 334.93887 -229.915927 
L 333.233769 -229.91885 
L 331.528668 -229.922635 
L 329.823567 -229.926049 
L 328.118467 -229.927866 
L 326.413366 -229.926901 
L 324.708265 -229.922043 
L 323.003164 -229.912287 
L 321.298064 -229.896758 
L 319.592963 -229.874734 
L 317.887862 -229.84566 
L 316.182761 -229.809165 
L 314.477661 -229.765064 
L 312.77256 -229.713361 
L 311.067459 -229.65424 
L 309.362358 -229.58806 
L 307.657258 -229.515336 
L 305.952157 -229.436718 
L 304.247056 -229.352968 
L 302.541955 -229.264932 
L 300.836855 -229.173512 
L 299.131754 -229.079632 
L 297.426653 -228.984212 
L 295.721552 -228.888138 
L 294.016452 -228.792237 
L 292.311351 -228.697256 
L 290.60625 -228.603842 
L 288.901149 -228.512535 
L 287.196049 -228.423757 
L 285.490948 -228.337817 
L 283.785847 -228.25491 
L 282.080746 -228.175127 
L 280.375646 -228.098472 
L 278.670545 -228.024872 
L 276.965444 -227.954195 
L 275.260343 -227.886266 
L 273.555243 -227.820887 
L 271.850142 -227.757845 
L 270.145041 -227.696926 
L 268.43994 -227.637926 
L 266.73484 -227.580651 
L 265.029739 -227.524925 
L 263.324638 -227.470587 
L 261.619537 -227.417489 
L 259.914437 -227.365494 
L 258.209336 -227.314469 
L 256.504235 -227.264285 
L 254.799134 -227.214811 
L 253.094034 -227.165916 
L 251.388933 -227.117465 
L 249.683832 -227.069325 
L 247.978731 -227.021367 
L 246.273631 -226.973472 
L 244.56853 -226.925536 
L 242.863429 -226.877479 
L 241.158328 -226.829253 
L 239.453228 -226.780843 
L 237.748127 -226.732274 
L 236.043026 -226.683615 
L 234.337925 -226.634979 
L 232.632825 -226.586516 
L 230.927724 -226.538417 
L 229.222623 -226.4909 
L 227.517522 -226.444209 
L 225.812422 -226.398599 
L 224.107321 -226.354328 
L 222.40222 -226.31165 
L 220.697119 -226.2708 
L 218.992019 -226.231991 
L 217.286918 -226.195405 
L 215.581817 -226.161184 
L 213.876716 -226.129433 
L 212.171616 -226.100213 
L 210.466515 -226.073544 
L 208.761414 -226.049404 
L 207.056313 -226.027736 
L 205.351213 -226.008451 
L 203.646112 -225.991429 
L 201.941011 -225.976532 
L 200.23591 -225.963605 
L 198.53081 -225.952481 
L 196.825709 -225.942988 
L 195.120608 -225.934957 
L 193.415507 -225.928218 
L 191.710407 -225.922611 
L 190.005306 -225.917985 
L 188.300205 -225.9142 
L 186.595104 -225.911128 
L 184.890004 -225.908657 
L 183.184903 -225.906684 
z
" style="stroke: #0000ff; stroke-width: 8"/>
    </defs>
    <g clip-path="url(#pa8e0572d4b)">
     <use xlink:href="#mb1481d3176" x="0" y="720" style="fill: #0000ff; fill-opacity: 0.5; stroke: #0000ff; stroke-width: 8"/>
    </g>
   </g>
   <g id="patch_13">
    <path d="M 90 494.099997 
L 90 358.200007 
" style="fill: none; stroke: #262626; stroke-width: 0.8; stroke-linejoin: miter; stroke-linecap: square"/>
   </g>
   <g id="patch_14">
    <path d="M 648 494.099997 
L 648 358.200007 
" style="fill: none; stroke: #262626; stroke-width: 0.8; stroke-linejoin: miter; stroke-linecap: square"/>
   </g>
   <g id="patch_15">
    <path d="M 90 494.099997 
L 648 494.099997 
" style="fill: none; stroke: #262626; stroke-width: 0.8; stroke-linejoin: miter; stroke-linecap: square"/>
   </g>
   <g id="patch_16">
    <path d="M 90 358.200007 
L 648 358.200007 
" style="fill: none; stroke: #262626; stroke-width: 0.8; stroke-linejoin: miter; stroke-linecap: square"/>
   </g>
  </g>
  <g id="axes_4">
   <g id="patch_17">
    <path d="M 90 630 
L 648 630 
L 648 494.10001 
L 90 494.10001 
z
" style="fill: #ffffff"/>
   </g>
   <g id="matplotlib.axis_7">
    <g id="xtick_1">
     <g id="line2d_1">
      <defs>
       <path id="mdf1084dbca" d="M 0 0 
L 0 3.5 
" style="stroke: #262626; stroke-width: 0.8"/>
      </defs>
      <g>
       <use xlink:href="#mdf1084dbca" x="175.851034" y="630" style="fill: #262626; stroke: #262626; stroke-width: 0.8"/>
      </g>
     </g>
     <g id="text_1">
      <!-- 1000 -->
      <g style="fill: #262626" transform="translate(163.126034 644.598437)scale(0.1 -0.1)">
       <defs>
        <path id="DejaVuSans-31" d="M 794 531 
L 1825 531 
L 1825 4091 
L 703 3866 
L 703 4441 
L 1819 4666 
L 2450 4666 
L 2450 531 
L 3481 531 
L 3481 0 
L 794 0 
L 794 531 
z
" transform="scale(0.015625)"/>
        <path id="DejaVuSans-30" d="M 2034 4250 
Q 1547 4250 1301 3770 
Q 1056 3291 1056 2328 
Q 1056 1369 1301 889 
Q 1547 409 2034 409 
Q 2525 409 2770 889 
Q 3016 1369 3016 2328 
Q 3016 3291 2770 3770 
Q 2525 4250 2034 4250 
z
M 2034 4750 
Q 2819 4750 3233 4129 
Q 3647 3509 3647 2328 
Q 3647 1150 3233 529 
Q 2819 -91 2034 -91 
Q 1250 -91 836 529 
Q 422 1150 422 2328 
Q 422 3509 836 4129 
Q 1250 4750 2034 4750 
z
" transform="scale(0.015625)"/>
       </defs>
       <use xlink:href="#DejaVuSans-31"/>
       <use xlink:href="#DejaVuSans-30" x="63.623047"/>
       <use xlink:href="#DejaVuSans-30" x="127.246094"/>
       <use xlink:href="#DejaVuSans-30" x="190.869141"/>
      </g>
     </g>
    </g>
    <g id="xtick_2">
     <g id="line2d_2">
      <g>
       <use xlink:href="#mdf1084dbca" x="354.301379" y="630" style="fill: #262626; stroke: #262626; stroke-width: 0.8"/>
      </g>
     </g>
     <g id="text_2">
      <!-- 10000 -->
      <g style="fill: #262626" transform="translate(338.395129 644.598437)scale(0.1 -0.1)">
       <use xlink:href="#DejaVuSans-31"/>
       <use xlink:href="#DejaVuSans-30" x="63.623047"/>
       <use xlink:href="#DejaVuSans-30" x="127.246094"/>
       <use xlink:href="#DejaVuSans-30" x="190.869141"/>
       <use xlink:href="#DejaVuSans-30" x="254.492188"/>
      </g>
     </g>
    </g>
    <g id="xtick_3">
     <g id="line2d_3">
      <g>
       <use xlink:href="#mdf1084dbca" x="532.751724" y="630" style="fill: #262626; stroke: #262626; stroke-width: 0.8"/>
      </g>
     </g>
     <g id="text_3">
      <!-- 100000 -->
      <g style="fill: #262626" transform="translate(513.664224 644.598437)scale(0.1 -0.1)">
       <use xlink:href="#DejaVuSans-31"/>
       <use xlink:href="#DejaVuSans-30" x="63.623047"/>
       <use xlink:href="#DejaVuSans-30" x="127.246094"/>
       <use xlink:href="#DejaVuSans-30" x="190.869141"/>
       <use xlink:href="#DejaVuSans-30" x="254.492188"/>
       <use xlink:href="#DejaVuSans-30" x="318.115234"/>
      </g>
     </g>
    </g>
   </g>
   <g id="matplotlib.axis_8"/>
   <g id="PolyCollection_5">
    <defs>
     <path id="mbc040d9241" d="M 389.047617 -90.016428 
L 389.047617 -90 
L 389.906179 -90 
L 390.76474 -90 
L 391.623302 -90 
L 392.481864 -90 
L 393.340425 -90 
L 394.198987 -90 
L 395.057548 -90 
L 395.91611 -90 
L 396.774671 -90 
L 397.633233 -90 
L 398.491794 -90 
L 399.350356 -90 
L 400.208917 -90 
L 401.067479 -90 
L 401.92604 -90 
L 402.784602 -90 
L 403.643163 -90 
L 404.501725 -90 
L 405.360286 -90 
L 406.218848 -90 
L 407.077409 -90 
L 407.935971 -90 
L 408.794533 -90 
L 409.653094 -90 
L 410.511656 -90 
L 411.370217 -90 
L 412.228779 -90 
L 413.08734 -90 
L 413.945902 -90 
L 414.804463 -90 
L 415.663025 -90 
L 416.521586 -90 
L 417.380148 -90 
L 418.238709 -90 
L 419.097271 -90 
L 419.955832 -90 
L 420.814394 -90 
L 421.672955 -90 
L 422.531517 -90 
L 423.390079 -90 
L 424.24864 -90 
L 425.107202 -90 
L 425.965763 -90 
L 426.824325 -90 
L 427.682886 -90 
L 428.541448 -90 
L 429.400009 -90 
L 430.258571 -90 
L 431.117132 -90 
L 431.975694 -90 
L 432.834255 -90 
L 433.692817 -90 
L 434.551378 -90 
L 435.40994 -90 
L 436.268501 -90 
L 437.127063 -90 
L 437.985625 -90 
L 438.844186 -90 
L 439.702748 -90 
L 440.561309 -90 
L 441.419871 -90 
L 442.278432 -90 
L 443.136994 -90 
L 443.995555 -90 
L 444.854117 -90 
L 445.712678 -90 
L 446.57124 -90 
L 447.429801 -90 
L 448.288363 -90 
L 449.146924 -90 
L 450.005486 -90 
L 450.864047 -90 
L 451.722609 -90 
L 452.581171 -90 
L 453.439732 -90 
L 454.298294 -90 
L 455.156855 -90 
L 456.015417 -90 
L 456.873978 -90 
L 457.73254 -90 
L 458.591101 -90 
L 459.449663 -90 
L 460.308224 -90 
L 461.166786 -90 
L 462.025347 -90 
L 462.883909 -90 
L 463.74247 -90 
L 464.601032 -90 
L 465.459593 -90 
L 466.318155 -90 
L 467.176716 -90 
L 468.035278 -90 
L 468.89384 -90 
L 469.752401 -90 
L 470.610963 -90 
L 471.469524 -90 
L 472.328086 -90 
L 473.186647 -90 
L 474.045209 -90 
L 474.90377 -90 
L 475.762332 -90 
L 476.620893 -90 
L 477.479455 -90 
L 478.338016 -90 
L 479.196578 -90 
L 480.055139 -90 
L 480.913701 -90 
L 481.772262 -90 
L 482.630824 -90 
L 483.489386 -90 
L 484.347947 -90 
L 485.206509 -90 
L 486.06507 -90 
L 486.923632 -90 
L 487.782193 -90 
L 488.640755 -90 
L 489.499316 -90 
L 490.357878 -90 
L 491.216439 -90 
L 492.075001 -90 
L 492.933562 -90 
L 493.792124 -90 
L 494.650685 -90 
L 495.509247 -90 
L 496.367808 -90 
L 497.22637 -90 
L 498.084932 -90 
L 498.943493 -90 
L 499.802055 -90 
L 500.660616 -90 
L 501.519178 -90 
L 502.377739 -90 
L 503.236301 -90 
L 504.094862 -90 
L 504.953424 -90 
L 505.811985 -90 
L 506.670547 -90 
L 507.529108 -90 
L 508.38767 -90 
L 509.246231 -90 
L 510.104793 -90 
L 510.963354 -90 
L 511.821916 -90 
L 512.680477 -90 
L 513.539039 -90 
L 514.397601 -90 
L 515.256162 -90 
L 516.114724 -90 
L 516.973285 -90 
L 517.831847 -90 
L 518.690408 -90 
L 519.54897 -90 
L 520.407531 -90 
L 521.266093 -90 
L 522.124654 -90 
L 522.983216 -90 
L 523.841777 -90 
L 524.700339 -90 
L 525.5589 -90 
L 526.417462 -90 
L 527.276023 -90 
L 528.134585 -90 
L 528.993147 -90 
L 529.851708 -90 
L 530.71027 -90 
L 531.568831 -90 
L 532.427393 -90 
L 533.285954 -90 
L 534.144516 -90 
L 535.003077 -90 
L 535.861639 -90 
L 536.7202 -90 
L 537.578762 -90 
L 538.437323 -90 
L 539.295885 -90 
L 540.154446 -90 
L 541.013008 -90 
L 541.871569 -90 
L 542.730131 -90 
L 543.588693 -90 
L 544.447254 -90 
L 545.305816 -90 
L 546.164377 -90 
L 547.022939 -90 
L 547.8815 -90 
L 548.740062 -90 
L 549.598623 -90 
L 550.457185 -90 
L 551.315746 -90 
L 552.174308 -90 
L 553.032869 -90 
L 553.891431 -90 
L 554.749992 -90 
L 555.608554 -90 
L 556.467115 -90 
L 557.325677 -90 
L 558.184238 -90 
L 559.0428 -90 
L 559.901362 -90 
L 559.901362 -90.008784 
L 559.901362 -90.008784 
L 559.0428 -90.012415 
L 558.184238 -90.017306 
L 557.325677 -90.023793 
L 556.467115 -90.032261 
L 555.608554 -90.043142 
L 554.749992 -90.056902 
L 553.891431 -90.07402 
L 553.032869 -90.094967 
L 552.174308 -90.120173 
L 551.315746 -90.149984 
L 550.457185 -90.18463 
L 549.598623 -90.224173 
L 548.740062 -90.268473 
L 547.8815 -90.317153 
L 547.022939 -90.369578 
L 546.164377 -90.424855 
L 545.305816 -90.481848 
L 544.447254 -90.539213 
L 543.588693 -90.595467 
L 542.730131 -90.649066 
L 541.871569 -90.698505 
L 541.013008 -90.742428 
L 540.154446 -90.779736 
L 539.295885 -90.809695 
L 538.437323 -90.832013 
L 537.578762 -90.846904 
L 536.7202 -90.855112 
L 535.861639 -90.857898 
L 535.003077 -90.856988 
L 534.144516 -90.854491 
L 533.285954 -90.852777 
L 532.427393 -90.854341 
L 531.568831 -90.861655 
L 530.71027 -90.877017 
L 529.851708 -90.902419 
L 528.993147 -90.939433 
L 528.134585 -90.989139 
L 527.276023 -91.052088 
L 526.417462 -91.128306 
L 525.5589 -91.217352 
L 524.700339 -91.318401 
L 523.841777 -91.430371 
L 522.983216 -91.552062 
L 522.124654 -91.68231 
L 521.266093 -91.820128 
L 520.407531 -91.964832 
L 519.54897 -92.116132 
L 518.690408 -92.274182 
L 517.831847 -92.439585 
L 516.973285 -92.613342 
L 516.114724 -92.796767 
L 515.256162 -92.991363 
L 514.397601 -93.198671 
L 513.539039 -93.420127 
L 512.680477 -93.65692 
L 511.821916 -93.909888 
L 510.963354 -94.179449 
L 510.104793 -94.465593 
L 509.246231 -94.767921 
L 508.38767 -95.085743 
L 507.529108 -95.418215 
L 506.670547 -95.764507 
L 505.811985 -96.123981 
L 504.953424 -96.496361 
L 504.094862 -96.881879 
L 503.236301 -97.281385 
L 502.377739 -97.696403 
L 501.519178 -98.129142 
L 500.660616 -98.582452 
L 499.802055 -99.059747 
L 498.943493 -99.56489 
L 498.084932 -100.102071 
L 497.22637 -100.675675 
L 496.367808 -101.290159 
L 495.509247 -101.949952 
L 494.650685 -102.659362 
L 493.792124 -103.422509 
L 492.933562 -104.243258 
L 492.075001 -105.125164 
L 491.216439 -106.071391 
L 490.357878 -107.08463 
L 489.499316 -108.166967 
L 488.640755 -109.319741 
L 487.782193 -110.543358 
L 486.923632 -111.837091 
L 486.06507 -113.198883 
L 485.206509 -114.625154 
L 484.347947 -116.11066 
L 483.489386 -117.648408 
L 482.630824 -119.22966 
L 481.772262 -120.844037 
L 480.913701 -122.479726 
L 480.055139 -124.123796 
L 479.196578 -125.762599 
L 478.338016 -127.382232 
L 477.479455 -128.969029 
L 476.620893 -130.510044 
L 475.762332 -131.993475 
L 474.90377 -133.409003 
L 474.045209 -134.748011 
L 473.186647 -136.00366 
L 472.328086 -137.170819 
L 471.469524 -138.245869 
L 470.610963 -139.226382 
L 469.752401 -140.11073 
L 468.89384 -140.897657 
L 468.035278 -141.585859 
L 467.176716 -142.173622 
L 466.318155 -142.658554 
L 465.459593 -143.037437 
L 464.601032 -143.306228 
L 463.74247 -143.460198 
L 462.883909 -143.494207 
L 462.025347 -143.403105 
L 461.166786 -143.182197 
L 460.308224 -142.827771 
L 459.449663 -142.337618 
L 458.591101 -141.711509 
L 457.73254 -140.951598 
L 456.873978 -140.062698 
L 456.015417 -139.052416 
L 455.156855 -137.93112 
L 454.298294 -136.711741 
L 453.439732 -135.409408 
L 452.581171 -134.040935 
L 451.722609 -132.624199 
L 450.864047 -131.177446 
L 450.005486 -129.718563 
L 449.146924 -128.264387 
L 448.288363 -126.830077 
L 447.429801 -125.428608 
L 446.57124 -124.070412 
L 445.712678 -122.763185 
L 444.854117 -121.511853 
L 443.995555 -120.318707 
L 443.136994 -119.183655 
L 442.278432 -118.104571 
L 441.419871 -117.077696 
L 440.561309 -116.098063 
L 439.702748 -115.159894 
L 438.844186 -114.25697 
L 437.985625 -113.382939 
L 437.127063 -112.531577 
L 436.268501 -111.696997 
L 435.40994 -110.873828 
L 434.551378 -110.057365 
L 433.692817 -109.243704 
L 432.834255 -108.429877 
L 431.975694 -107.613957 
L 431.117132 -106.795156 
L 430.258571 -105.973874 
L 429.400009 -105.151709 
L 428.541448 -104.33139 
L 427.682886 -103.516644 
L 426.824325 -102.711995 
L 425.965763 -101.922496 
L 425.107202 -101.153419 
L 424.24864 -100.409921 
L 423.390079 -99.696729 
L 422.531517 -99.017843 
L 421.672955 -98.376308 
L 420.814394 -97.77406 
L 419.955832 -97.211853 
L 419.097271 -96.689277 
L 418.238709 -96.204854 
L 417.380148 -95.756202 
L 416.521586 -95.34025 
L 415.663025 -94.953479 
L 414.804463 -94.592176 
L 413.945902 -94.252675 
L 413.08734 -93.931574 
L 412.228779 -93.625914 
L 411.370217 -93.333304 
L 410.511656 -93.051997 
L 409.653094 -92.780916 
L 408.794533 -92.519619 
L 407.935971 -92.268231 
L 407.077409 -92.027336 
L 406.218848 -91.797846 
L 405.360286 -91.580859 
L 404.501725 -91.377516 
L 403.643163 -91.188873 
L 402.784602 -91.015793 
L 401.92604 -90.858857 
L 401.067479 -90.71832 
L 400.208917 -90.594087 
L 399.350356 -90.48572 
L 398.491794 -90.392474 
L 397.633233 -90.313343 
L 396.774671 -90.247128 
L 395.91611 -90.192503 
L 395.057548 -90.14808 
L 394.198987 -90.112469 
L 393.340425 -90.084331 
L 392.481864 -90.062419 
L 391.623302 -90.045602 
L 390.76474 -90.03288 
L 389.906179 -90.023396 
L 389.047617 -90.016428 
z
" style="stroke: #ff0000; stroke-width: 8"/>
    </defs>
    <g clip-path="url(#p7182d5b16c)">
     <use xlink:href="#mbc040d9241" x="0" y="720" style="fill: #ff0000; fill-opacity: 0.5; stroke: #ff0000; stroke-width: 8"/>
    </g>
   </g>
   <g id="PolyCollection_6">
    <defs>
     <path id="me84191f282" d="M 424.044958 -90.019951 
L 424.044958 -90 
L 424.47553 -90 
L 424.906102 -90 
L 425.336674 -90 
L 425.767245 -90 
L 426.197817 -90 
L 426.628389 -90 
L 427.05896 -90 
L 427.489532 -90 
L 427.920104 -90 
L 428.350675 -90 
L 428.781247 -90 
L 429.211819 -90 
L 429.642391 -90 
L 430.072962 -90 
L 430.503534 -90 
L 430.934106 -90 
L 431.364677 -90 
L 431.795249 -90 
L 432.225821 -90 
L 432.656393 -90 
L 433.086964 -90 
L 433.517536 -90 
L 433.948108 -90 
L 434.378679 -90 
L 434.809251 -90 
L 435.239823 -90 
L 435.670395 -90 
L 436.100966 -90 
L 436.531538 -90 
L 436.96211 -90 
L 437.392681 -90 
L 437.823253 -90 
L 438.253825 -90 
L 438.684397 -90 
L 439.114968 -90 
L 439.54554 -90 
L 439.976112 -90 
L 440.406683 -90 
L 440.837255 -90 
L 441.267827 -90 
L 441.698399 -90 
L 442.12897 -90 
L 442.559542 -90 
L 442.990114 -90 
L 443.420685 -90 
L 443.851257 -90 
L 444.281829 -90 
L 444.7124 -90 
L 445.142972 -90 
L 445.573544 -90 
L 446.004116 -90 
L 446.434687 -90 
L 446.865259 -90 
L 447.295831 -90 
L 447.726402 -90 
L 448.156974 -90 
L 448.587546 -90 
L 449.018118 -90 
L 449.448689 -90 
L 449.879261 -90 
L 450.309833 -90 
L 450.740404 -90 
L 451.170976 -90 
L 451.601548 -90 
L 452.03212 -90 
L 452.462691 -90 
L 452.893263 -90 
L 453.323835 -90 
L 453.754406 -90 
L 454.184978 -90 
L 454.61555 -90 
L 455.046122 -90 
L 455.476693 -90 
L 455.907265 -90 
L 456.337837 -90 
L 456.768408 -90 
L 457.19898 -90 
L 457.629552 -90 
L 458.060124 -90 
L 458.490695 -90 
L 458.921267 -90 
L 459.351839 -90 
L 459.78241 -90 
L 460.212982 -90 
L 460.643554 -90 
L 461.074126 -90 
L 461.504697 -90 
L 461.935269 -90 
L 462.365841 -90 
L 462.796412 -90 
L 463.226984 -90 
L 463.657556 -90 
L 464.088127 -90 
L 464.518699 -90 
L 464.949271 -90 
L 465.379843 -90 
L 465.810414 -90 
L 466.240986 -90 
L 466.671558 -90 
L 467.102129 -90 
L 467.532701 -90 
L 467.963273 -90 
L 468.393845 -90 
L 468.824416 -90 
L 469.254988 -90 
L 469.68556 -90 
L 470.116131 -90 
L 470.546703 -90 
L 470.977275 -90 
L 471.407847 -90 
L 471.838418 -90 
L 472.26899 -90 
L 472.699562 -90 
L 473.130133 -90 
L 473.560705 -90 
L 473.991277 -90 
L 474.421849 -90 
L 474.85242 -90 
L 475.282992 -90 
L 475.713564 -90 
L 476.144135 -90 
L 476.574707 -90 
L 477.005279 -90 
L 477.435851 -90 
L 477.866422 -90 
L 478.296994 -90 
L 478.727566 -90 
L 479.158137 -90 
L 479.588709 -90 
L 480.019281 -90 
L 480.449853 -90 
L 480.880424 -90 
L 481.310996 -90 
L 481.741568 -90 
L 482.172139 -90 
L 482.602711 -90 
L 483.033283 -90 
L 483.463854 -90 
L 483.894426 -90 
L 484.324998 -90 
L 484.75557 -90 
L 485.186141 -90 
L 485.616713 -90 
L 486.047285 -90 
L 486.477856 -90 
L 486.908428 -90 
L 487.339 -90 
L 487.769572 -90 
L 488.200143 -90 
L 488.630715 -90 
L 489.061287 -90 
L 489.491858 -90 
L 489.92243 -90 
L 490.353002 -90 
L 490.783574 -90 
L 491.214145 -90 
L 491.644717 -90 
L 492.075289 -90 
L 492.50586 -90 
L 492.936432 -90 
L 493.367004 -90 
L 493.797576 -90 
L 494.228147 -90 
L 494.658719 -90 
L 495.089291 -90 
L 495.519862 -90 
L 495.950434 -90 
L 496.381006 -90 
L 496.811578 -90 
L 497.242149 -90 
L 497.672721 -90 
L 498.103293 -90 
L 498.533864 -90 
L 498.964436 -90 
L 499.395008 -90 
L 499.825579 -90 
L 500.256151 -90 
L 500.686723 -90 
L 501.117295 -90 
L 501.547866 -90 
L 501.978438 -90 
L 502.40901 -90 
L 502.839581 -90 
L 503.270153 -90 
L 503.700725 -90 
L 504.131297 -90 
L 504.561868 -90 
L 504.99244 -90 
L 505.423012 -90 
L 505.853583 -90 
L 506.284155 -90 
L 506.714727 -90 
L 507.145299 -90 
L 507.57587 -90 
L 508.006442 -90 
L 508.437014 -90 
L 508.867585 -90 
L 509.298157 -90 
L 509.728729 -90 
L 509.728729 -90.02 
L 509.728729 -90.02 
L 509.298157 -90.029586 
L 508.867585 -90.043016 
L 508.437014 -90.061476 
L 508.006442 -90.086363 
L 507.57587 -90.119274 
L 507.145299 -90.161953 
L 506.714727 -90.21623 
L 506.284155 -90.283908 
L 505.853583 -90.36664 
L 505.423012 -90.465776 
L 504.99244 -90.582203 
L 504.561868 -90.71619 
L 504.131297 -90.867259 
L 503.700725 -91.034091 
L 503.270153 -91.214494 
L 502.839581 -91.405433 
L 502.40901 -91.603133 
L 501.978438 -91.803243 
L 501.547866 -92.001049 
L 501.117295 -92.191723 
L 500.686723 -92.370572 
L 500.256151 -92.533281 
L 499.825579 -92.676121 
L 499.395008 -92.796108 
L 498.964436 -92.891126 
L 498.533864 -92.959989 
L 498.103293 -93.002475 
L 497.672721 -93.019318 
L 497.242149 -93.012179 
L 496.811578 -92.983574 
L 496.381006 -92.936785 
L 495.950434 -92.875706 
L 495.519862 -92.804657 
L 495.089291 -92.728133 
L 494.658719 -92.650506 
L 494.228147 -92.575704 
L 493.797576 -92.50688 
L 493.367004 -92.44613 
L 492.936432 -92.394274 
L 492.50586 -92.350764 
L 492.075289 -92.313721 
L 491.644717 -92.280125 
L 491.214145 -92.246137 
L 490.783574 -92.207517 
L 490.353002 -92.16011 
L 489.92243 -92.10032 
L 489.491858 -92.025528 
L 489.061287 -91.934414 
L 488.630715 -91.827132 
L 488.200143 -91.705342 
L 487.769572 -91.572109 
L 487.339 -91.43168 
L 486.908428 -91.289199 
L 486.477856 -91.150386 
L 486.047285 -91.021238 
L 485.616713 -90.907771 
L 485.186141 -90.815835 
L 484.75557 -90.750989 
L 484.324998 -90.718441 
L 483.894426 -90.723026 
L 483.463854 -90.769179 
L 483.033283 -90.860905 
L 482.602711 -91.001696 
L 482.172139 -91.194404 
L 481.741568 -91.441069 
L 481.310996 -91.742722 
L 480.880424 -92.099192 
L 480.449853 -92.508959 
L 480.019281 -92.969094 
L 479.588709 -93.475316 
L 479.158137 -94.022187 
L 478.727566 -94.603453 
L 478.296994 -95.212516 
L 477.866422 -95.842991 
L 477.435851 -96.489315 
L 477.005279 -97.147331 
L 476.574707 -97.814795 
L 476.144135 -98.491748 
L 475.713564 -99.180716 
L 475.282992 -99.8867 
L 474.85242 -100.616971 
L 474.421849 -101.380669 
L 473.991277 -102.188252 
L 473.560705 -103.050828 
L 473.130133 -103.979432 
L 472.699562 -104.98431 
L 472.26899 -106.074251 
L 471.838418 -107.256037 
L 471.407847 -108.534064 
L 470.977275 -109.910162 
L 470.546703 -111.383667 
L 470.116131 -112.951764 
L 469.68556 -114.610098 
L 469.254988 -116.353663 
L 468.824416 -118.177901 
L 468.393845 -120.079962 
L 467.963273 -122.060013 
L 467.532701 -124.122462 
L 467.102129 -126.276944 
L 466.671558 -128.538908 
L 466.240986 -130.929637 
L 465.810414 -133.475587 
L 465.379843 -136.206969 
L 464.949271 -139.155585 
L 464.518699 -142.352008 
L 464.088127 -145.822302 
L 463.657556 -149.584567 
L 463.226984 -153.645628 
L 462.796412 -157.998266 
L 462.365841 -162.619301 
L 461.935269 -167.468842 
L 461.504697 -172.490847 
L 461.074126 -177.615034 
L 460.643554 -182.760012 
L 460.212982 -187.83737 
L 459.78241 -192.756337 
L 459.351839 -197.428572 
L 458.921267 -201.772638 
L 458.490695 -205.717769 
L 458.060124 -209.20664 
L 457.629552 -212.196992 
L 457.19898 -214.662131 
L 456.768408 -216.590407 
L 456.337837 -217.983942 
L 455.907265 -218.856867 
L 455.476693 -219.233371 
L 455.046122 -219.145777 
L 454.61555 -218.632789 
L 454.184978 -217.737947 
L 453.754406 -216.508225 
L 453.323835 -214.992637 
L 452.893263 -213.240699 
L 452.462691 -211.300618 
L 452.03212 -209.217141 
L 451.601548 -207.029141 
L 451.170976 -204.767097 
L 450.740404 -202.450768 
L 450.309833 -200.087425 
L 449.879261 -197.670988 
L 449.448689 -195.182406 
L 449.018118 -192.591422 
L 448.587546 -189.859751 
L 448.156974 -186.94543 
L 447.726402 -183.807951 
L 447.295831 -180.413603 
L 446.865259 -176.740402 
L 446.434687 -172.781986 
L 446.004116 -168.549974 
L 445.573544 -164.074487 
L 445.142972 -159.402749 
L 444.7124 -154.595958 
L 444.281829 -149.724824 
L 443.851257 -144.864333 
L 443.420685 -140.08837 
L 442.990114 -135.464802 
L 442.559542 -131.051531 
L 442.12897 -126.89384 
L 441.698399 -123.023177 
L 441.267827 -119.457316 
L 440.837255 -116.201657 
L 440.406683 -113.251346 
L 439.976112 -110.593821 
L 439.54554 -108.211409 
L 439.114968 -106.083674 
L 438.684397 -104.18931 
L 438.253825 -102.507456 
L 437.823253 -101.018454 
L 437.392681 -99.70412 
L 436.96211 -98.54767 
L 436.531538 -97.533448 
L 436.100966 -96.646599 
L 435.670395 -95.872816 
L 435.239823 -95.198213 
L 434.809251 -94.609361 
L 434.378679 -94.093467 
L 433.948108 -93.638649 
L 433.517536 -93.234242 
L 433.086964 -92.871075 
L 432.656393 -92.541658 
L 432.225821 -92.240249 
L 431.795249 -91.962791 
L 431.364677 -91.706718 
L 430.934106 -91.470671 
L 430.503534 -91.25416 
L 430.072962 -91.057204 
L 429.642391 -90.88001 
L 429.211819 -90.722704 
L 428.781247 -90.585138 
L 428.350675 -90.466782 
L 427.920104 -90.366699 
L 427.489532 -90.283571 
L 427.05896 -90.215786 
L 426.628389 -90.161538 
L 426.197817 -90.118936 
L 425.767245 -90.086111 
L 425.336674 -90.061298 
L 424.906102 -90.042896 
L 424.47553 -90.029508 
L 424.044958 -90.019951 
z
" style="stroke: #0000ff; stroke-width: 8"/>
    </defs>
    <g clip-path="url(#p7182d5b16c)">
     <use xlink:href="#me84191f282" x="0" y="720" style="fill: #0000ff; fill-opacity: 0.5; stroke: #0000ff; stroke-width: 8"/>
    </g>
   </g>
   <g id="patch_18">
    <path d="M 90 630 
L 90 494.10001 
" style="fill: none; stroke: #262626; stroke-width: 0.8; stroke-linejoin: miter; stroke-linecap: square"/>
   </g>
   <g id="patch_19">
    <path d="M 648 630 
L 648 494.10001 
" style="fill: none; stroke: #262626; stroke-width: 0.8; stroke-linejoin: miter; stroke-linecap: square"/>
   </g>
   <g id="patch_20">
    <path d="M 90 630 
L 648 630 
" style="fill: none; stroke: #262626; stroke-width: 0.8; stroke-linejoin: miter; stroke-linecap: square"/>
   </g>
   <g id="patch_21">
    <path d="M 90 494.10001 
L 648 494.10001 
" style="fill: none; stroke: #262626; stroke-width: 0.8; stroke-linejoin: miter; stroke-linecap: square"/>
   </g>
   <g id="legend_1"/>
  </g>
 </g>
 <defs>
  <clipPath id="p7cfc23a5c2">
   <rect x="90" y="86.4" width="558" height="135.89999"/>
  </clipPath>
  <clipPath id="p27559c72aa">
   <rect x="90" y="222.300003" width="558" height="135.89999"/>
  </clipPath>
  <clipPath id="pa8e0572d4b">
   <rect x="90" y="358.200007" width="558" height="135.89999"/>
  </clipPath>
  <clipPath id="p7182d5b16c">
   <rect x="90" y="494.10001" width="558" height="135.89999"/>
  </clipPath>
 </defs>
</svg>
