<svg version="1.1" xmlns="http://www.w3.org/2000/svg" width="600" height="800"><defs><clipPath id="CmQwebwrDURm"><path fill="none" stroke="none" d="M 6.5 5.5 L 570.5 5.5 L 570.5 794.5 L 6.5 794.5 L 6.5 5.5"/></clipPath><clipPath id="vfgbMhroHtxJ"><path fill="none" stroke="none" d="M 6.5 5.5 L 570.5 5.5 L 570.5 794.5 L 6.5 794.5 L 6.5 5.5"/></clipPath><clipPath id="uaGHqNtDXEmU"><path fill="none" stroke="none" d="M 6.5 5.5 L 570.5 5.5 L 570.5 794.5 L 6.5 794.5 L 6.5 5.5"/></clipPath><clipPath id="yGdTrhCVAVWX"><path fill="none" stroke="none" d="M 6.5 5.5 L 570.5 5.5 L 570.5 794.5 L 6.5 794.5 L 6.5 5.5"/></clipPath><clipPath id="JUrTWaUBqruT"><path fill="none" stroke="none" d="M 6.5 5.5 L 570.5 5.5 L 570.5 794.5 L 6.5 794.5 L 6.5 5.5"/></clipPath><clipPath id="CLOLkokDrJpm"><path fill="none" stroke="none" d="M 6.5 5.5 L 570.5 5.5 L 570.5 794.5 L 6.5 794.5 L 6.5 5.5"/></clipPath><clipPath id="evhUstWfLNzu"><path fill="none" stroke="none" d="M 6.5 5.5 L 570.5 5.5 L 570.5 794.5 L 6.5 794.5 L 6.5 5.5"/></clipPath><clipPath id="GFwltyieVICm"><path fill="none" stroke="none" d="M 6.5 5.5 L 570.5 5.5 L 570.5 794.5 L 6.5 794.5 L 6.5 5.5"/></clipPath><clipPath id="nVuFbLTRAXlf"><path fill="none" stroke="none" d="M 6.5 5.5 L 570.5 5.5 L 570.5 794.5 L 6.5 794.5 L 6.5 5.5"/></clipPath><clipPath id="aAOsaZTzCMqB"><path fill="none" stroke="none" d="M 6.5 5.5 L 570.5 5.5 L 570.5 794.5 L 6.5 794.5 L 6.5 5.5"/></clipPath><clipPath id="HNazReHclNAF"><path fill="none" stroke="none" d="M 6.5 5.5 L 570.5 5.5 L 570.5 794.5 L 6.5 794.5 L 6.5 5.5"/></clipPath></defs><path fill="rgb(255,255,255)" stroke="none" paint-order="stroke" d="M 0.5 0.5 L 600.5 0.5 L 600.5 800.5 L 0.5 800.5 L 0.5 0.5" fill-opacity="1"/><rect fill="#FFFFFF" stroke="none" x="6" y="5" width="564" height="789" transform="matrix(1, 0, 0, 1, 0.5, 0.5)"/><path fill="rgb(255,255,255)" stroke="none" paint-order="stroke" d="M 6.5 5.5 L 570.5 5.5 L 570.5 794.5 L 6.5 794.5 L 6.5 5.5" fill-opacity="1"/><path fill="none" stroke="rgb(229,229,229)" paint-order="fill" d="M 6.5 5.5 L 570.5 5.5 L 570.5 794.5 L 6.5 794.5 L 6.5 5.5" stroke-opacity="1" stroke-linejoin="bevel" stroke-miterlimit="10" stroke-dasharray=""/><path fill="none" stroke="rgb(229,229,229)" paint-order="fill" d="M 6.5 708.5 L 570.5 708.5 M 6.5 500.5 L 570.5 500.5 M 6.5 188.5 L 570.5 188.5" stroke-opacity="1" stroke-linejoin="bevel" stroke-miterlimit="10" stroke-dasharray="" clip-path="url(#vfgbMhroHtxJ)"/><path fill="rgb(27,158,119)" stroke="rgb(27,158,119)" paint-order="fill" d="M 44.6363639831543 758.6363525390625 A 12.5 12.5 0 0 1 19.636363983154297 758.6363525390625 A 12.5 12.5 0 0 1 44.6363639831543 758.6363525390625" fill-opacity="1" clip-path="url(#uaGHqNtDXEmU)" stroke-opacity="1" stroke-linejoin="bevel" stroke-miterlimit="10" stroke-dasharray=""/><path fill="rgb(27,158,119)" stroke="rgb(27,158,119)" paint-order="fill" d="M 215.5454559326172 540.0025634765625 A 12.5 12.5 0 0 1 190.5454559326172 540.0025634765625 A 12.5 12.5 0 0 1 215.5454559326172 540.0025634765625" fill-opacity="1" clip-path="url(#uaGHqNtDXEmU)" stroke-opacity="1" stroke-linejoin="bevel" stroke-miterlimit="10" stroke-dasharray=""/><path fill="rgb(27,158,119)" stroke="rgb(27,158,119)" paint-order="fill" d="M 386.4545593261719 438.9566650390625 A 12.5 12.5 0 0 1 361.4545593261719 438.9566650390625 A 12.5 12.5 0 0 1 386.4545593261719 438.9566650390625" fill-opacity="1" clip-path="url(#uaGHqNtDXEmU)" stroke-opacity="1" stroke-linejoin="bevel" stroke-miterlimit="10" stroke-dasharray=""/><path fill="rgb(27,158,119)" stroke="rgb(27,158,119)" paint-order="fill" d="M 557.3636474609375 436.85772705078125 A 12.5 12.5 0 0 1 532.3636474609375 436.85772705078125 A 12.5 12.5 0 0 1 557.3636474609375 436.85772705078125" fill-opacity="1" clip-path="url(#uaGHqNtDXEmU)" stroke-opacity="1" stroke-linejoin="bevel" stroke-miterlimit="10" stroke-dasharray=""/><path fill="none" stroke="rgb(27,158,119)" paint-order="fill" d="M 32.1363639831543 758.6363525390625 L 203.0454559326172 540.0025634765625 L 373.9545593261719 438.9566650390625 L 544.8636474609375 436.85772705078125" stroke-opacity="1" stroke-linejoin="bevel" stroke-miterlimit="10" stroke-width="5" stroke-dasharray="" clip-path="url(#yGdTrhCVAVWX)"/><path fill="rgb(217,95,2)" stroke="rgb(217,95,2)" paint-order="fill" d="M 44.6363639831543 758.6363525390625 A 12.5 12.5 0 0 1 19.636363983154297 758.6363525390625 A 12.5 12.5 0 0 1 44.6363639831543 758.6363525390625" fill-opacity="1" clip-path="url(#JUrTWaUBqruT)" stroke-opacity="1" stroke-linejoin="bevel" stroke-miterlimit="10" stroke-dasharray=""/><path fill="rgb(217,95,2)" stroke="rgb(217,95,2)" paint-order="fill" d="M 215.5454559326172 219.15155029296875 A 12.5 12.5 0 0 1 190.5454559326172 219.15155029296875 A 12.5 12.5 0 0 1 215.5454559326172 219.15155029296875" fill-opacity="1" clip-path="url(#JUrTWaUBqruT)" stroke-opacity="1" stroke-linejoin="bevel" stroke-miterlimit="10" stroke-dasharray=""/><path fill="rgb(217,95,2)" stroke="rgb(217,95,2)" paint-order="fill" d="M 386.4545593261719 125.660888671875 A 12.5 12.5 0 0 1 361.4545593261719 125.660888671875 A 12.5 12.5 0 0 1 386.4545593261719 125.660888671875" fill-opacity="1" clip-path="url(#JUrTWaUBqruT)" stroke-opacity="1" stroke-linejoin="bevel" stroke-miterlimit="10" stroke-dasharray=""/><path fill="rgb(217,95,2)" stroke="rgb(217,95,2)" paint-order="fill" d="M 557.3636474609375 41.3636360168457 A 12.5 12.5 0 0 1 532.3636474609375 41.3636360168457 A 12.5 12.5 0 0 1 557.3636474609375 41.3636360168457" fill-opacity="1" clip-path="url(#JUrTWaUBqruT)" stroke-opacity="1" stroke-linejoin="bevel" stroke-miterlimit="10" stroke-dasharray=""/><path fill="none" stroke="rgb(217,95,2)" paint-order="fill" d="M 32.1363639831543 758.6363525390625 L 203.0454559326172 219.15155029296875 L 373.9545593261719 125.660888671875 L 544.8636474609375 41.3636360168457" stroke-opacity="1" stroke-linejoin="bevel" stroke-miterlimit="10" stroke-width="5" stroke-dasharray="" clip-path="url(#CLOLkokDrJpm)"/><path fill="rgb(117,112,179)" stroke="rgb(117,112,179)" paint-order="fill" d="M 44.6363639831543 758.6363525390625 A 12.5 12.5 0 0 1 19.636363983154297 758.6363525390625 A 12.5 12.5 0 0 1 44.6363639831543 758.6363525390625" fill-opacity="1" clip-path="url(#evhUstWfLNzu)" stroke-opacity="1" stroke-linejoin="bevel" stroke-miterlimit="10" stroke-dasharray=""/><path fill="rgb(117,112,179)" stroke="rgb(117,112,179)" paint-order="fill" d="M 215.5454559326172 660.94091796875 A 12.5 12.5 0 0 1 190.5454559326172 660.94091796875 A 12.5 12.5 0 0 1 215.5454559326172 660.94091796875" fill-opacity="1" clip-path="url(#evhUstWfLNzu)" stroke-opacity="1" stroke-linejoin="bevel" stroke-miterlimit="10" stroke-dasharray=""/><path fill="rgb(117,112,179)" stroke="rgb(117,112,179)" paint-order="fill" d="M 386.4545593261719 613.24169921875 A 12.5 12.5 0 0 1 361.4545593261719 613.24169921875 A 12.5 12.5 0 0 1 386.4545593261719 613.24169921875" fill-opacity="1" clip-path="url(#evhUstWfLNzu)" stroke-opacity="1" stroke-linejoin="bevel" stroke-miterlimit="10" stroke-dasharray=""/><path fill="rgb(117,112,179)" stroke="rgb(117,112,179)" paint-order="fill" d="M 557.3636474609375 588.7183227539062 A 12.5 12.5 0 0 1 532.3636474609375 588.7183227539062 A 12.5 12.5 0 0 1 557.3636474609375 588.7183227539062" fill-opacity="1" clip-path="url(#evhUstWfLNzu)" stroke-opacity="1" stroke-linejoin="bevel" stroke-miterlimit="10" stroke-dasharray=""/><path fill="none" stroke="rgb(117,112,179)" paint-order="fill" d="M 32.1363639831543 758.6363525390625 L 203.0454559326172 660.94091796875 L 373.9545593261719 613.24169921875 L 544.8636474609375 588.7183227539062" stroke-opacity="1" stroke-linejoin="bevel" stroke-miterlimit="10" stroke-width="5" stroke-dasharray="" clip-path="url(#GFwltyieVICm)"/><path fill="rgb(231,41,138)" stroke="rgb(231,41,138)" paint-order="fill" d="M 44.6363639831543 758.6363525390625 A 12.5 12.5 0 0 1 19.636363983154297 758.6363525390625 A 12.5 12.5 0 0 1 44.6363639831543 758.6363525390625" fill-opacity="1" clip-path="url(#nVuFbLTRAXlf)" stroke-opacity="1" stroke-linejoin="bevel" stroke-miterlimit="10" stroke-dasharray=""/><path fill="rgb(231,41,138)" stroke="rgb(231,41,138)" paint-order="fill" d="M 215.5454559326172 473.9049072265625 A 12.5 12.5 0 0 1 190.5454559326172 473.9049072265625 A 12.5 12.5 0 0 1 215.5454559326172 473.9049072265625" fill-opacity="1" clip-path="url(#nVuFbLTRAXlf)" stroke-opacity="1" stroke-linejoin="bevel" stroke-miterlimit="10" stroke-dasharray=""/><path fill="rgb(231,41,138)" stroke="rgb(231,41,138)" paint-order="fill" d="M 386.4545593261719 399.99932861328125 A 12.5 12.5 0 0 1 361.4545593261719 399.99932861328125 A 12.5 12.5 0 0 1 386.4545593261719 399.99932861328125" fill-opacity="1" clip-path="url(#nVuFbLTRAXlf)" stroke-opacity="1" stroke-linejoin="bevel" stroke-miterlimit="10" stroke-dasharray=""/><path fill="rgb(231,41,138)" stroke="rgb(231,41,138)" paint-order="fill" d="M 557.3636474609375 260.9322814941406 A 12.5 12.5 0 0 1 532.3636474609375 260.9322814941406 A 12.5 12.5 0 0 1 557.3636474609375 260.9322814941406" fill-opacity="1" clip-path="url(#nVuFbLTRAXlf)" stroke-opacity="1" stroke-linejoin="bevel" stroke-miterlimit="10" stroke-dasharray=""/><path fill="none" stroke="rgb(231,41,138)" paint-order="fill" d="M 32.1363639831543 758.6363525390625 L 203.0454559326172 473.9049072265625 L 373.9545593261719 399.99932861328125 L 544.8636474609375 260.9322814941406" stroke-opacity="1" stroke-linejoin="bevel" stroke-miterlimit="10" stroke-width="5" stroke-dasharray="" clip-path="url(#aAOsaZTzCMqB)"/><path fill="none" stroke="rgb(0,0,0)" paint-order="fill" d="M 6.5 794.5 L 570.5 794.5" stroke-opacity="1" stroke-linejoin="bevel" stroke-miterlimit="10" stroke-dasharray=""/><text fill="rgb(68,68,68)" stroke="none" font-family="helvetica" font-size="0pt" font-style="normal" font-weight="normal" text-decoration="normal" x="31.636363983154297" y="805" text-anchor="start" dominant-baseline="alphabetic" transform="matrix(1, 0, 0, 1, 0.5, 0.5)" fill-opacity="1">0</text><text fill="rgb(68,68,68)" stroke="none" font-family="helvetica" font-size="0pt" font-style="normal" font-weight="normal" text-decoration="normal" x="117.09091186523438" y="805" text-anchor="start" dominant-baseline="alphabetic" transform="matrix(1, 0, 0, 1, 0.5, 0.5)" fill-opacity="1">0.5</text><text fill="rgb(68,68,68)" stroke="none" font-family="helvetica" font-size="0pt" font-style="normal" font-weight="normal" text-decoration="normal" x="202.5454559326172" y="805" text-anchor="start" dominant-baseline="alphabetic" transform="matrix(1, 0, 0, 1, 0.5, 0.5)" fill-opacity="1">1</text><text fill="rgb(68,68,68)" stroke="none" font-family="helvetica" font-size="0pt" font-style="normal" font-weight="normal" text-decoration="normal" x="288" y="805" text-anchor="start" dominant-baseline="alphabetic" transform="matrix(1, 0, 0, 1, 0.5, 0.5)" fill-opacity="1">1.5</text><text fill="rgb(68,68,68)" stroke="none" font-family="helvetica" font-size="0pt" font-style="normal" font-weight="normal" text-decoration="normal" x="373.4545593261719" y="805" text-anchor="start" dominant-baseline="alphabetic" transform="matrix(1, 0, 0, 1, 0.5, 0.5)" fill-opacity="1">2</text><text fill="rgb(68,68,68)" stroke="none" font-family="helvetica" font-size="0pt" font-style="normal" font-weight="normal" text-decoration="normal" x="458.9090881347656" y="805" text-anchor="start" dominant-baseline="alphabetic" transform="matrix(1, 0, 0, 1, 0.5, 0.5)" fill-opacity="1">2.5</text><text fill="rgb(68,68,68)" stroke="none" font-family="helvetica" font-size="0pt" font-style="normal" font-weight="normal" text-decoration="normal" x="544.3636474609375" y="805" text-anchor="start" dominant-baseline="alphabetic" transform="matrix(1, 0, 0, 1, 0.5, 0.5)" fill-opacity="1">3</text><path fill="none" stroke="rgb(0,0,0)" paint-order="fill" d="M 6.5 794.5 L 6.5 5.5" stroke-opacity="1" stroke-linejoin="bevel" stroke-miterlimit="10" stroke-dasharray=""/><path fill="none" stroke="rgb(0,0,0)" paint-order="fill" d="M 0.5 708.5 L 8.5 708.5 M 0.5 500.5 L 8.5 500.5 M 0.5 188.5 L 8.5 188.5" stroke-opacity="1" stroke-linejoin="bevel" stroke-miterlimit="10" stroke-dasharray=""/><path fill="none" stroke="rgb(0,0,0)" paint-order="fill" d="" stroke-opacity="1" stroke-linejoin="bevel" stroke-miterlimit="10" stroke-dasharray=""/><text fill="rgb(68,68,68)" stroke="none" font-family="helvetica" font-size="0pt" font-style="normal" font-weight="normal" text-decoration="normal" x="-5" y="707.6326904296875" text-anchor="start" dominant-baseline="alphabetic" transform="matrix(1, 0, 0, 1, 0.5, 0.5)" fill-opacity="1">9.903</text><text fill="rgb(68,68,68)" stroke="none" font-family="helvetica" font-size="0pt" font-style="normal" font-weight="normal" text-decoration="normal" x="-5" y="500.48431396484375" text-anchor="start" dominant-baseline="alphabetic" transform="matrix(1, 0, 0, 1, 0.5, 0.5)" fill-opacity="1">10.127</text><text fill="rgb(68,68,68)" stroke="none" font-family="helvetica" font-size="0pt" font-style="normal" font-weight="normal" text-decoration="normal" x="-5" y="188.13079833984375" text-anchor="start" dominant-baseline="alphabetic" transform="matrix(1, 0, 0, 1, 0.5, 0.5)" fill-opacity="1">10.463</text></svg>