<svg version="1.1" xmlns="http://www.w3.org/2000/svg" width="600" height="800"><defs><clipPath id="zpOpvETziikv"><path fill="none" stroke="none" d="M 6.5 5.5 L 570.5 5.5 L 570.5 794.5 L 6.5 794.5 L 6.5 5.5"/></clipPath><clipPath id="pyXQEdUTQDML"><path fill="none" stroke="none" d="M 6.5 5.5 L 570.5 5.5 L 570.5 794.5 L 6.5 794.5 L 6.5 5.5"/></clipPath><clipPath id="qTlyZaRvNTIw"><path fill="none" stroke="none" d="M 6.5 5.5 L 570.5 5.5 L 570.5 794.5 L 6.5 794.5 L 6.5 5.5"/></clipPath><clipPath id="AcdIIiiQAulc"><path fill="none" stroke="none" d="M 6.5 5.5 L 570.5 5.5 L 570.5 794.5 L 6.5 794.5 L 6.5 5.5"/></clipPath><clipPath id="VGJsATPSUSeO"><path fill="none" stroke="none" d="M 6.5 5.5 L 570.5 5.5 L 570.5 794.5 L 6.5 794.5 L 6.5 5.5"/></clipPath><clipPath id="URLycXWTsoBu"><path fill="none" stroke="none" d="M 6.5 5.5 L 570.5 5.5 L 570.5 794.5 L 6.5 794.5 L 6.5 5.5"/></clipPath><clipPath id="XuiAlrfVKHbW"><path fill="none" stroke="none" d="M 6.5 5.5 L 570.5 5.5 L 570.5 794.5 L 6.5 794.5 L 6.5 5.5"/></clipPath><clipPath id="ROqoQpyMfQsW"><path fill="none" stroke="none" d="M 6.5 5.5 L 570.5 5.5 L 570.5 794.5 L 6.5 794.5 L 6.5 5.5"/></clipPath><clipPath id="FeabHbIKXRum"><path fill="none" stroke="none" d="M 6.5 5.5 L 570.5 5.5 L 570.5 794.5 L 6.5 794.5 L 6.5 5.5"/></clipPath><clipPath id="JJPWtmppIetn"><path fill="none" stroke="none" d="M 6.5 5.5 L 570.5 5.5 L 570.5 794.5 L 6.5 794.5 L 6.5 5.5"/></clipPath><clipPath id="yRcwyhrhlPFS"><path fill="none" stroke="none" d="M 6.5 5.5 L 570.5 5.5 L 570.5 794.5 L 6.5 794.5 L 6.5 5.5"/></clipPath></defs><path fill="rgb(255,255,255)" stroke="none" paint-order="stroke" d="M 0.5 0.5 L 600.5 0.5 L 600.5 800.5 L 0.5 800.5 L 0.5 0.5" fill-opacity="1"/><rect fill="#FFFFFF" stroke="none" x="6" y="5" width="564" height="789" transform="matrix(1, 0, 0, 1, 0.5, 0.5)"/><path fill="rgb(255,255,255)" stroke="none" paint-order="stroke" d="M 6.5 5.5 L 570.5 5.5 L 570.5 794.5 L 6.5 794.5 L 6.5 5.5" fill-opacity="1"/><path fill="none" stroke="rgb(229,229,229)" paint-order="fill" d="M 6.5 5.5 L 570.5 5.5 L 570.5 794.5 L 6.5 794.5 L 6.5 5.5" stroke-opacity="1" stroke-linejoin="bevel" stroke-miterlimit="10" stroke-dasharray=""/><path fill="none" stroke="rgb(229,229,229)" paint-order="fill" d="M 6.5 1073.5 L 570.5 1073.5 M 6.5 527.5 L 570.5 527.5 M 6.5 -159.5 L 570.5 -159.5" stroke-opacity="1" stroke-linejoin="bevel" stroke-miterlimit="10" stroke-dasharray="" clip-path="url(#pyXQEdUTQDML)"/><path fill="rgb(27,158,119)" stroke="rgb(27,158,119)" paint-order="fill" d="M 44.6363639831543 690.1826171875 A 12.5 12.5 0 0 1 19.636363983154297 690.1826171875 A 12.5 12.5 0 0 1 44.6363639831543 690.1826171875" fill-opacity="1" clip-path="url(#qTlyZaRvNTIw)" stroke-opacity="1" stroke-linejoin="bevel" stroke-miterlimit="10" stroke-dasharray=""/><path fill="rgb(27,158,119)" stroke="rgb(27,158,119)" paint-order="fill" d="M 215.5454559326172 504.1490173339844 A 12.5 12.5 0 0 1 190.5454559326172 504.1490173339844 A 12.5 12.5 0 0 1 215.5454559326172 504.1490173339844" fill-opacity="1" clip-path="url(#qTlyZaRvNTIw)" stroke-opacity="1" stroke-linejoin="bevel" stroke-miterlimit="10" stroke-dasharray=""/><path fill="rgb(27,158,119)" stroke="rgb(27,158,119)" paint-order="fill" d="M 386.4545593261719 645.9764404296875 A 12.5 12.5 0 0 1 361.4545593261719 645.9764404296875 A 12.5 12.5 0 0 1 386.4545593261719 645.9764404296875" fill-opacity="1" clip-path="url(#qTlyZaRvNTIw)" stroke-opacity="1" stroke-linejoin="bevel" stroke-miterlimit="10" stroke-dasharray=""/><path fill="rgb(27,158,119)" stroke="rgb(27,158,119)" paint-order="fill" d="M 557.3636474609375 475.6900634765625 A 12.5 12.5 0 0 1 532.3636474609375 475.6900634765625 A 12.5 12.5 0 0 1 557.3636474609375 475.6900634765625" fill-opacity="1" clip-path="url(#qTlyZaRvNTIw)" stroke-opacity="1" stroke-linejoin="bevel" stroke-miterlimit="10" stroke-dasharray=""/><path fill="none" stroke="rgb(27,158,119)" paint-order="fill" d="M 32.1363639831543 690.1826171875 L 203.0454559326172 504.1490173339844 L 373.9545593261719 645.9764404296875 L 544.8636474609375 475.6900634765625" stroke-opacity="1" stroke-linejoin="bevel" stroke-miterlimit="10" stroke-width="5" stroke-dasharray="" clip-path="url(#AcdIIiiQAulc)"/><path fill="rgb(217,95,2)" stroke="rgb(217,95,2)" paint-order="fill" d="M 44.6363639831543 690.1826171875 A 12.5 12.5 0 0 1 19.636363983154297 690.1826171875 A 12.5 12.5 0 0 1 44.6363639831543 690.1826171875" fill-opacity="1" clip-path="url(#VGJsATPSUSeO)" stroke-opacity="1" stroke-linejoin="bevel" stroke-miterlimit="10" stroke-dasharray=""/><path fill="rgb(217,95,2)" stroke="rgb(217,95,2)" paint-order="fill" d="M 215.5454559326172 221.3659210205078 A 12.5 12.5 0 0 1 190.5454559326172 221.3659210205078 A 12.5 12.5 0 0 1 215.5454559326172 221.3659210205078" fill-opacity="1" clip-path="url(#VGJsATPSUSeO)" stroke-opacity="1" stroke-linejoin="bevel" stroke-miterlimit="10" stroke-dasharray=""/><path fill="rgb(217,95,2)" stroke="rgb(217,95,2)" paint-order="fill" d="M 386.4545593261719 122.58889770507812 A 12.5 12.5 0 0 1 361.4545593261719 122.58889770507812 A 12.5 12.5 0 0 1 386.4545593261719 122.58889770507812" fill-opacity="1" clip-path="url(#VGJsATPSUSeO)" stroke-opacity="1" stroke-linejoin="bevel" stroke-miterlimit="10" stroke-dasharray=""/><path fill="rgb(217,95,2)" stroke="rgb(217,95,2)" paint-order="fill" d="M 557.3636474609375 41.3636360168457 A 12.5 12.5 0 0 1 532.3636474609375 41.3636360168457 A 12.5 12.5 0 0 1 557.3636474609375 41.3636360168457" fill-opacity="1" clip-path="url(#VGJsATPSUSeO)" stroke-opacity="1" stroke-linejoin="bevel" stroke-miterlimit="10" stroke-dasharray=""/><path fill="none" stroke="rgb(217,95,2)" paint-order="fill" d="M 32.1363639831543 690.1826171875 L 203.0454559326172 221.3659210205078 L 373.9545593261719 122.58889770507812 L 544.8636474609375 41.3636360168457" stroke-opacity="1" stroke-linejoin="bevel" stroke-miterlimit="10" stroke-width="5" stroke-dasharray="" clip-path="url(#URLycXWTsoBu)"/><path fill="rgb(117,112,179)" stroke="rgb(117,112,179)" paint-order="fill" d="M 44.6363639831543 690.1826171875 A 12.5 12.5 0 0 1 19.636363983154297 690.1826171875 A 12.5 12.5 0 0 1 44.6363639831543 690.1826171875" fill-opacity="1" clip-path="url(#XuiAlrfVKHbW)" stroke-opacity="1" stroke-linejoin="bevel" stroke-miterlimit="10" stroke-dasharray=""/><path fill="rgb(117,112,179)" stroke="rgb(117,112,179)" paint-order="fill" d="M 215.5454559326172 709.6701049804688 A 12.5 12.5 0 0 1 190.5454559326172 709.6701049804688 A 12.5 12.5 0 0 1 215.5454559326172 709.6701049804688" fill-opacity="1" clip-path="url(#XuiAlrfVKHbW)" stroke-opacity="1" stroke-linejoin="bevel" stroke-miterlimit="10" stroke-dasharray=""/><path fill="rgb(117,112,179)" stroke="rgb(117,112,179)" paint-order="fill" d="M 386.4545593261719 758.6363525390625 A 12.5 12.5 0 0 1 361.4545593261719 758.6363525390625 A 12.5 12.5 0 0 1 386.4545593261719 758.6363525390625" fill-opacity="1" clip-path="url(#XuiAlrfVKHbW)" stroke-opacity="1" stroke-linejoin="bevel" stroke-miterlimit="10" stroke-dasharray=""/><path fill="rgb(117,112,179)" stroke="rgb(117,112,179)" paint-order="fill" d="M 557.3636474609375 708.7979736328125 A 12.5 12.5 0 0 1 532.3636474609375 708.7979736328125 A 12.5 12.5 0 0 1 557.3636474609375 708.7979736328125" fill-opacity="1" clip-path="url(#XuiAlrfVKHbW)" stroke-opacity="1" stroke-linejoin="bevel" stroke-miterlimit="10" stroke-dasharray=""/><path fill="none" stroke="rgb(117,112,179)" paint-order="fill" d="M 32.1363639831543 690.1826171875 L 203.0454559326172 709.6701049804688 L 373.9545593261719 758.6363525390625 L 544.8636474609375 708.7979736328125" stroke-opacity="1" stroke-linejoin="bevel" stroke-miterlimit="10" stroke-width="5" stroke-dasharray="" clip-path="url(#ROqoQpyMfQsW)"/><path fill="rgb(231,41,138)" stroke="rgb(231,41,138)" paint-order="fill" d="M 44.6363639831543 690.1826171875 A 12.5 12.5 0 0 1 19.636363983154297 690.1826171875 A 12.5 12.5 0 0 1 44.6363639831543 690.1826171875" fill-opacity="1" clip-path="url(#FeabHbIKXRum)" stroke-opacity="1" stroke-linejoin="bevel" stroke-miterlimit="10" stroke-dasharray=""/><path fill="rgb(231,41,138)" stroke="rgb(231,41,138)" paint-order="fill" d="M 215.5454559326172 641.5054321289062 A 12.5 12.5 0 0 1 190.5454559326172 641.5054321289062 A 12.5 12.5 0 0 1 215.5454559326172 641.5054321289062" fill-opacity="1" clip-path="url(#FeabHbIKXRum)" stroke-opacity="1" stroke-linejoin="bevel" stroke-miterlimit="10" stroke-dasharray=""/><path fill="rgb(231,41,138)" stroke="rgb(231,41,138)" paint-order="fill" d="M 386.4545593261719 473.64324951171875 A 12.5 12.5 0 0 1 361.4545593261719 473.64324951171875 A 12.5 12.5 0 0 1 386.4545593261719 473.64324951171875" fill-opacity="1" clip-path="url(#FeabHbIKXRum)" stroke-opacity="1" stroke-linejoin="bevel" stroke-miterlimit="10" stroke-dasharray=""/><path fill="rgb(231,41,138)" stroke="rgb(231,41,138)" paint-order="fill" d="M 557.3636474609375 408.4033203125 A 12.5 12.5 0 0 1 532.3636474609375 408.4033203125 A 12.5 12.5 0 0 1 557.3636474609375 408.4033203125" fill-opacity="1" clip-path="url(#FeabHbIKXRum)" stroke-opacity="1" stroke-linejoin="bevel" stroke-miterlimit="10" stroke-dasharray=""/><path fill="none" stroke="rgb(231,41,138)" paint-order="fill" d="M 32.1363639831543 690.1826171875 L 203.0454559326172 641.5054321289062 L 373.9545593261719 473.64324951171875 L 544.8636474609375 408.4033203125" stroke-opacity="1" stroke-linejoin="bevel" stroke-miterlimit="10" stroke-width="5" stroke-dasharray="" clip-path="url(#JJPWtmppIetn)"/><path fill="none" stroke="rgb(0,0,0)" paint-order="fill" d="M 6.5 794.5 L 570.5 794.5" stroke-opacity="1" stroke-linejoin="bevel" stroke-miterlimit="10" stroke-dasharray=""/><text fill="rgb(68,68,68)" stroke="none" font-family="helvetica" font-size="0pt" font-style="normal" font-weight="normal" text-decoration="normal" x="31.636363983154297" y="805" text-anchor="start" dominant-baseline="alphabetic" transform="matrix(1, 0, 0, 1, 0.5, 0.5)" fill-opacity="1">0</text><text fill="rgb(68,68,68)" stroke="none" font-family="helvetica" font-size="0pt" font-style="normal" font-weight="normal" text-decoration="normal" x="117.09091186523438" y="805" text-anchor="start" dominant-baseline="alphabetic" transform="matrix(1, 0, 0, 1, 0.5, 0.5)" fill-opacity="1">0.5</text><text fill="rgb(68,68,68)" stroke="none" font-family="helvetica" font-size="0pt" font-style="normal" font-weight="normal" text-decoration="normal" x="202.5454559326172" y="805" text-anchor="start" dominant-baseline="alphabetic" transform="matrix(1, 0, 0, 1, 0.5, 0.5)" fill-opacity="1">1</text><text fill="rgb(68,68,68)" stroke="none" font-family="helvetica" font-size="0pt" font-style="normal" font-weight="normal" text-decoration="normal" x="288" y="805" text-anchor="start" dominant-baseline="alphabetic" transform="matrix(1, 0, 0, 1, 0.5, 0.5)" fill-opacity="1">1.5</text><text fill="rgb(68,68,68)" stroke="none" font-family="helvetica" font-size="0pt" font-style="normal" font-weight="normal" text-decoration="normal" x="373.4545593261719" y="805" text-anchor="start" dominant-baseline="alphabetic" transform="matrix(1, 0, 0, 1, 0.5, 0.5)" fill-opacity="1">2</text><text fill="rgb(68,68,68)" stroke="none" font-family="helvetica" font-size="0pt" font-style="normal" font-weight="normal" text-decoration="normal" x="458.9090881347656" y="805" text-anchor="start" dominant-baseline="alphabetic" transform="matrix(1, 0, 0, 1, 0.5, 0.5)" fill-opacity="1">2.5</text><text fill="rgb(68,68,68)" stroke="none" font-family="helvetica" font-size="0pt" font-style="normal" font-weight="normal" text-decoration="normal" x="544.3636474609375" y="805" text-anchor="start" dominant-baseline="alphabetic" transform="matrix(1, 0, 0, 1, 0.5, 0.5)" fill-opacity="1">3</text><path fill="none" stroke="rgb(0,0,0)" paint-order="fill" d="M 6.5 794.5 L 6.5 5.5" stroke-opacity="1" stroke-linejoin="bevel" stroke-miterlimit="10" stroke-dasharray=""/><path fill="none" stroke="rgb(0,0,0)" paint-order="fill" d="M 0.5 527.5 L 8.5 527.5" stroke-opacity="1" stroke-linejoin="bevel" stroke-miterlimit="10" stroke-dasharray=""/><path fill="none" stroke="rgb(0,0,0)" paint-order="fill" d="" stroke-opacity="1" stroke-linejoin="bevel" stroke-miterlimit="10" stroke-dasharray=""/><text fill="rgb(68,68,68)" stroke="none" font-family="helvetica" font-size="0pt" font-style="normal" font-weight="normal" text-decoration="normal" x="-5" y="527.3778076171875" text-anchor="start" dominant-baseline="alphabetic" transform="matrix(1, 0, 0, 1, 0.5, 0.5)" fill-opacity="1">10.309</text></svg>