<svg version="1.1" xmlns="http://www.w3.org/2000/svg" width="600" height="800"><defs><clipPath id="pshrALUAwExb"><path fill="none" stroke="none" d="M 6.5 5.5 L 570.5 5.5 L 570.5 794.5 L 6.5 794.5 L 6.5 5.5"/></clipPath><clipPath id="TtcSbuppnxbN"><path fill="none" stroke="none" d="M 6.5 5.5 L 570.5 5.5 L 570.5 794.5 L 6.5 794.5 L 6.5 5.5"/></clipPath><clipPath id="ziReOVeikPAC"><path fill="none" stroke="none" d="M 6.5 5.5 L 570.5 5.5 L 570.5 794.5 L 6.5 794.5 L 6.5 5.5"/></clipPath><clipPath id="nmWxnkPqATpf"><path fill="none" stroke="none" d="M 6.5 5.5 L 570.5 5.5 L 570.5 794.5 L 6.5 794.5 L 6.5 5.5"/></clipPath><clipPath id="GbLvoyCohztW"><path fill="none" stroke="none" d="M 6.5 5.5 L 570.5 5.5 L 570.5 794.5 L 6.5 794.5 L 6.5 5.5"/></clipPath><clipPath id="oUGyapiXHono"><path fill="none" stroke="none" d="M 6.5 5.5 L 570.5 5.5 L 570.5 794.5 L 6.5 794.5 L 6.5 5.5"/></clipPath><clipPath id="hOvwZcHURqEa"><path fill="none" stroke="none" d="M 6.5 5.5 L 570.5 5.5 L 570.5 794.5 L 6.5 794.5 L 6.5 5.5"/></clipPath><clipPath id="TtroGXdwflzt"><path fill="none" stroke="none" d="M 6.5 5.5 L 570.5 5.5 L 570.5 794.5 L 6.5 794.5 L 6.5 5.5"/></clipPath><clipPath id="hQPgIRDZMTvw"><path fill="none" stroke="none" d="M 6.5 5.5 L 570.5 5.5 L 570.5 794.5 L 6.5 794.5 L 6.5 5.5"/></clipPath><clipPath id="uiArqzcmobKz"><path fill="none" stroke="none" d="M 6.5 5.5 L 570.5 5.5 L 570.5 794.5 L 6.5 794.5 L 6.5 5.5"/></clipPath><clipPath id="TVBtrMxEEpxa"><path fill="none" stroke="none" d="M 6.5 5.5 L 570.5 5.5 L 570.5 794.5 L 6.5 794.5 L 6.5 5.5"/></clipPath></defs><path fill="rgb(255,255,255)" stroke="none" paint-order="stroke" d="M 0.5 0.5 L 600.5 0.5 L 600.5 800.5 L 0.5 800.5 L 0.5 0.5" fill-opacity="1"/><rect fill="#FFFFFF" stroke="none" x="6" y="5" width="564" height="789" transform="matrix(1, 0, 0, 1, 0.5, 0.5)"/><path fill="rgb(255,255,255)" stroke="none" paint-order="stroke" d="M 6.5 5.5 L 570.5 5.5 L 570.5 794.5 L 6.5 794.5 L 6.5 5.5" fill-opacity="1"/><path fill="none" stroke="rgb(229,229,229)" paint-order="fill" d="M 6.5 5.5 L 570.5 5.5 L 570.5 794.5 L 6.5 794.5 L 6.5 5.5" stroke-opacity="1" stroke-linejoin="bevel" stroke-miterlimit="10" stroke-dasharray=""/><path fill="none" stroke="rgb(229,229,229)" paint-order="fill" d="M 6.5 491.5 L 570.5 491.5 M 6.5 380.5 L 570.5 380.5 M 6.5 206.5 L 570.5 206.5" stroke-opacity="1" stroke-linejoin="bevel" stroke-miterlimit="10" stroke-dasharray="" clip-path="url(#TtcSbuppnxbN)"/><path fill="rgb(27,158,119)" stroke="rgb(27,158,119)" paint-order="fill" d="M 44.6363639831543 758.6363525390625 A 12.5 12.5 0 0 1 19.636363983154297 758.6363525390625 A 12.5 12.5 0 0 1 44.6363639831543 758.6363525390625" fill-opacity="1" clip-path="url(#ziReOVeikPAC)" stroke-opacity="1" stroke-linejoin="bevel" stroke-miterlimit="10" stroke-dasharray=""/><path fill="rgb(27,158,119)" stroke="rgb(27,158,119)" paint-order="fill" d="M 215.5454559326172 600.3585815429688 A 12.5 12.5 0 0 1 190.5454559326172 600.3585815429688 A 12.5 12.5 0 0 1 215.5454559326172 600.3585815429688" fill-opacity="1" clip-path="url(#ziReOVeikPAC)" stroke-opacity="1" stroke-linejoin="bevel" stroke-miterlimit="10" stroke-dasharray=""/><path fill="rgb(27,158,119)" stroke="rgb(27,158,119)" paint-order="fill" d="M 386.4545593261719 310.45343017578125 A 12.5 12.5 0 0 1 361.4545593261719 310.45343017578125 A 12.5 12.5 0 0 1 386.4545593261719 310.45343017578125" fill-opacity="1" clip-path="url(#ziReOVeikPAC)" stroke-opacity="1" stroke-linejoin="bevel" stroke-miterlimit="10" stroke-dasharray=""/><path fill="rgb(27,158,119)" stroke="rgb(27,158,119)" paint-order="fill" d="M 557.3636474609375 257.52508544921875 A 12.5 12.5 0 0 1 532.3636474609375 257.52508544921875 A 12.5 12.5 0 0 1 557.3636474609375 257.52508544921875" fill-opacity="1" clip-path="url(#ziReOVeikPAC)" stroke-opacity="1" stroke-linejoin="bevel" stroke-miterlimit="10" stroke-dasharray=""/><path fill="none" stroke="rgb(27,158,119)" paint-order="fill" d="M 32.1363639831543 758.6363525390625 L 203.0454559326172 600.3585815429688 L 373.9545593261719 310.45343017578125 L 544.8636474609375 257.52508544921875" stroke-opacity="1" stroke-linejoin="bevel" stroke-miterlimit="10" stroke-width="5" stroke-dasharray="" clip-path="url(#nmWxnkPqATpf)"/><path fill="rgb(217,95,2)" stroke="rgb(217,95,2)" paint-order="fill" d="M 44.6363639831543 758.6363525390625 A 12.5 12.5 0 0 1 19.636363983154297 758.6363525390625 A 12.5 12.5 0 0 1 44.6363639831543 758.6363525390625" fill-opacity="1" clip-path="url(#GbLvoyCohztW)" stroke-opacity="1" stroke-linejoin="bevel" stroke-miterlimit="10" stroke-dasharray=""/><path fill="rgb(217,95,2)" stroke="rgb(217,95,2)" paint-order="fill" d="M 215.5454559326172 380.98956298828125 A 12.5 12.5 0 0 1 190.5454559326172 380.98956298828125 A 12.5 12.5 0 0 1 215.5454559326172 380.98956298828125" fill-opacity="1" clip-path="url(#GbLvoyCohztW)" stroke-opacity="1" stroke-linejoin="bevel" stroke-miterlimit="10" stroke-dasharray=""/><path fill="rgb(217,95,2)" stroke="rgb(217,95,2)" paint-order="fill" d="M 386.4545593261719 109.54803466796875 A 12.5 12.5 0 0 1 361.4545593261719 109.54803466796875 A 12.5 12.5 0 0 1 386.4545593261719 109.54803466796875" fill-opacity="1" clip-path="url(#GbLvoyCohztW)" stroke-opacity="1" stroke-linejoin="bevel" stroke-miterlimit="10" stroke-dasharray=""/><path fill="rgb(217,95,2)" stroke="rgb(217,95,2)" paint-order="fill" d="M 557.3636474609375 41.3636360168457 A 12.5 12.5 0 0 1 532.3636474609375 41.3636360168457 A 12.5 12.5 0 0 1 557.3636474609375 41.3636360168457" fill-opacity="1" clip-path="url(#GbLvoyCohztW)" stroke-opacity="1" stroke-linejoin="bevel" stroke-miterlimit="10" stroke-dasharray=""/><path fill="none" stroke="rgb(217,95,2)" paint-order="fill" d="M 32.1363639831543 758.6363525390625 L 203.0454559326172 380.98956298828125 L 373.9545593261719 109.54803466796875 L 544.8636474609375 41.3636360168457" stroke-opacity="1" stroke-linejoin="bevel" stroke-miterlimit="10" stroke-width="5" stroke-dasharray="" clip-path="url(#oUGyapiXHono)"/><path fill="rgb(117,112,179)" stroke="rgb(117,112,179)" paint-order="fill" d="M 44.6363639831543 758.6363525390625 A 12.5 12.5 0 0 1 19.636363983154297 758.6363525390625 A 12.5 12.5 0 0 1 44.6363639831543 758.6363525390625" fill-opacity="1" clip-path="url(#hOvwZcHURqEa)" stroke-opacity="1" stroke-linejoin="bevel" stroke-miterlimit="10" stroke-dasharray=""/><path fill="rgb(117,112,179)" stroke="rgb(117,112,179)" paint-order="fill" d="M 215.5454559326172 698.8853759765625 A 12.5 12.5 0 0 1 190.5454559326172 698.8853759765625 A 12.5 12.5 0 0 1 215.5454559326172 698.8853759765625" fill-opacity="1" clip-path="url(#hOvwZcHURqEa)" stroke-opacity="1" stroke-linejoin="bevel" stroke-miterlimit="10" stroke-dasharray=""/><path fill="rgb(117,112,179)" stroke="rgb(117,112,179)" paint-order="fill" d="M 386.4545593261719 567.4457397460938 A 12.5 12.5 0 0 1 361.4545593261719 567.4457397460938 A 12.5 12.5 0 0 1 386.4545593261719 567.4457397460938" fill-opacity="1" clip-path="url(#hOvwZcHURqEa)" stroke-opacity="1" stroke-linejoin="bevel" stroke-miterlimit="10" stroke-dasharray=""/><path fill="rgb(117,112,179)" stroke="rgb(117,112,179)" paint-order="fill" d="M 557.3636474609375 496.3485107421875 A 12.5 12.5 0 0 1 532.3636474609375 496.3485107421875 A 12.5 12.5 0 0 1 557.3636474609375 496.3485107421875" fill-opacity="1" clip-path="url(#hOvwZcHURqEa)" stroke-opacity="1" stroke-linejoin="bevel" stroke-miterlimit="10" stroke-dasharray=""/><path fill="none" stroke="rgb(117,112,179)" paint-order="fill" d="M 32.1363639831543 758.6363525390625 L 203.0454559326172 698.8853759765625 L 373.9545593261719 567.4457397460938 L 544.8636474609375 496.3485107421875" stroke-opacity="1" stroke-linejoin="bevel" stroke-miterlimit="10" stroke-width="5" stroke-dasharray="" clip-path="url(#TtroGXdwflzt)"/><path fill="rgb(231,41,138)" stroke="rgb(231,41,138)" paint-order="fill" d="M 44.6363639831543 758.6363525390625 A 12.5 12.5 0 0 1 19.636363983154297 758.6363525390625 A 12.5 12.5 0 0 1 44.6363639831543 758.6363525390625" fill-opacity="1" clip-path="url(#hQPgIRDZMTvw)" stroke-opacity="1" stroke-linejoin="bevel" stroke-miterlimit="10" stroke-dasharray=""/><path fill="rgb(231,41,138)" stroke="rgb(231,41,138)" paint-order="fill" d="M 215.5454559326172 508.1216735839844 A 12.5 12.5 0 0 1 190.5454559326172 508.1216735839844 A 12.5 12.5 0 0 1 215.5454559326172 508.1216735839844" fill-opacity="1" clip-path="url(#hQPgIRDZMTvw)" stroke-opacity="1" stroke-linejoin="bevel" stroke-miterlimit="10" stroke-dasharray=""/><path fill="rgb(231,41,138)" stroke="rgb(231,41,138)" paint-order="fill" d="M 386.4545593261719 451.8151550292969 A 12.5 12.5 0 0 1 361.4545593261719 451.8151550292969 A 12.5 12.5 0 0 1 386.4545593261719 451.8151550292969" fill-opacity="1" clip-path="url(#hQPgIRDZMTvw)" stroke-opacity="1" stroke-linejoin="bevel" stroke-miterlimit="10" stroke-dasharray=""/><path fill="rgb(231,41,138)" stroke="rgb(231,41,138)" paint-order="fill" d="M 557.3636474609375 302.2533874511719 A 12.5 12.5 0 0 1 532.3636474609375 302.2533874511719 A 12.5 12.5 0 0 1 557.3636474609375 302.2533874511719" fill-opacity="1" clip-path="url(#hQPgIRDZMTvw)" stroke-opacity="1" stroke-linejoin="bevel" stroke-miterlimit="10" stroke-dasharray=""/><path fill="none" stroke="rgb(231,41,138)" paint-order="fill" d="M 32.1363639831543 758.6363525390625 L 203.0454559326172 508.1216735839844 L 373.9545593261719 451.8151550292969 L 544.8636474609375 302.2533874511719" stroke-opacity="1" stroke-linejoin="bevel" stroke-miterlimit="10" stroke-width="5" stroke-dasharray="" clip-path="url(#uiArqzcmobKz)"/><path fill="none" stroke="rgb(0,0,0)" paint-order="fill" d="M 6.5 794.5 L 570.5 794.5" stroke-opacity="1" stroke-linejoin="bevel" stroke-miterlimit="10" stroke-dasharray=""/><text fill="rgb(68,68,68)" stroke="none" font-family="helvetica" font-size="0pt" font-style="normal" font-weight="normal" text-decoration="normal" x="31.636363983154297" y="805" text-anchor="start" dominant-baseline="alphabetic" transform="matrix(1, 0, 0, 1, 0.5, 0.5)" fill-opacity="1">0</text><text fill="rgb(68,68,68)" stroke="none" font-family="helvetica" font-size="0pt" font-style="normal" font-weight="normal" text-decoration="normal" x="117.09091186523438" y="805" text-anchor="start" dominant-baseline="alphabetic" transform="matrix(1, 0, 0, 1, 0.5, 0.5)" fill-opacity="1">0.5</text><text fill="rgb(68,68,68)" stroke="none" font-family="helvetica" font-size="0pt" font-style="normal" font-weight="normal" text-decoration="normal" x="202.5454559326172" y="805" text-anchor="start" dominant-baseline="alphabetic" transform="matrix(1, 0, 0, 1, 0.5, 0.5)" fill-opacity="1">1</text><text fill="rgb(68,68,68)" stroke="none" font-family="helvetica" font-size="0pt" font-style="normal" font-weight="normal" text-decoration="normal" x="288" y="805" text-anchor="start" dominant-baseline="alphabetic" transform="matrix(1, 0, 0, 1, 0.5, 0.5)" fill-opacity="1">1.5</text><text fill="rgb(68,68,68)" stroke="none" font-family="helvetica" font-size="0pt" font-style="normal" font-weight="normal" text-decoration="normal" x="373.4545593261719" y="805" text-anchor="start" dominant-baseline="alphabetic" transform="matrix(1, 0, 0, 1, 0.5, 0.5)" fill-opacity="1">2</text><text fill="rgb(68,68,68)" stroke="none" font-family="helvetica" font-size="0pt" font-style="normal" font-weight="normal" text-decoration="normal" x="458.9090881347656" y="805" text-anchor="start" dominant-baseline="alphabetic" transform="matrix(1, 0, 0, 1, 0.5, 0.5)" fill-opacity="1">2.5</text><text fill="rgb(68,68,68)" stroke="none" font-family="helvetica" font-size="0pt" font-style="normal" font-weight="normal" text-decoration="normal" x="544.3636474609375" y="805" text-anchor="start" dominant-baseline="alphabetic" transform="matrix(1, 0, 0, 1, 0.5, 0.5)" fill-opacity="1">3</text><path fill="none" stroke="rgb(0,0,0)" paint-order="fill" d="M 6.5 794.5 L 6.5 5.5" stroke-opacity="1" stroke-linejoin="bevel" stroke-miterlimit="10" stroke-dasharray=""/><path fill="none" stroke="rgb(0,0,0)" paint-order="fill" d="M 0.5 491.5 L 8.5 491.5 M 0.5 380.5 L 8.5 380.5 M 0.5 206.5 L 8.5 206.5" stroke-opacity="1" stroke-linejoin="bevel" stroke-miterlimit="10" stroke-dasharray=""/><path fill="none" stroke="rgb(0,0,0)" paint-order="fill" d="" stroke-opacity="1" stroke-linejoin="bevel" stroke-miterlimit="10" stroke-dasharray=""/><text fill="rgb(68,68,68)" stroke="none" font-family="helvetica" font-size="0pt" font-style="normal" font-weight="normal" text-decoration="normal" x="-5" y="490.8097229003906" text-anchor="start" dominant-baseline="alphabetic" transform="matrix(1, 0, 0, 1, 0.5, 0.5)" fill-opacity="1">10.127</text><text fill="rgb(68,68,68)" stroke="none" font-family="helvetica" font-size="0pt" font-style="normal" font-weight="normal" text-decoration="normal" x="-5" y="380.3178405761719" text-anchor="start" dominant-baseline="alphabetic" transform="matrix(1, 0, 0, 1, 0.5, 0.5)" fill-opacity="1">10.309</text><text fill="rgb(68,68,68)" stroke="none" font-family="helvetica" font-size="0pt" font-style="normal" font-weight="normal" text-decoration="normal" x="-5" y="205.9745635986328" text-anchor="start" dominant-baseline="alphabetic" transform="matrix(1, 0, 0, 1, 0.5, 0.5)" fill-opacity="1">10.597</text></svg>