<?xml version="1.0" encoding="utf-8" standalone="no"?>
<!DOCTYPE svg PUBLIC "-//W3C//DTD SVG 1.1//EN"
  "http://www.w3.org/Graphics/SVG/1.1/DTD/svg11.dtd">
<svg xmlns:xlink="http://www.w3.org/1999/xlink" width="432pt" height="288pt" viewBox="0 0 432 288" xmlns="http://www.w3.org/2000/svg" version="1.1">
 <metadata>
  <rdf:RDF xmlns:dc="http://purl.org/dc/elements/1.1/" xmlns:cc="http://creativecommons.org/ns#" xmlns:rdf="http://www.w3.org/1999/02/22-rdf-syntax-ns#">
   <cc:Work>
    <dc:type rdf:resource="http://purl.org/dc/dcmitype/StillImage"/>
    <dc:date>2023-01-26T20:14:50.093816</dc:date>
    <dc:format>image/svg+xml</dc:format>
    <dc:creator>
     <cc:Agent>
      <dc:title>Matplotlib v3.5.1, https://matplotlib.org/</dc:title>
     </cc:Agent>
    </dc:creator>
   </cc:Work>
  </rdf:RDF>
 </metadata>
 <defs>
  <style type="text/css">*{stroke-linejoin: round; stroke-linecap: butt}</style>
 </defs>
 <g id="figure_1">
  <g id="patch_1">
   <path d="M 0 288 
L 432 288 
L 432 0 
L 0 0 
L 0 288 
z
" style="fill: none"/>
  </g>
  <g id="axes_1">
   <g id="patch_2">
    <path d="M 54 252 
L 388.8 252 
L 388.8 34.56 
L 54 34.56 
z
" style="fill: #ffffff"/>
   </g>
   <g id="PolyCollection_1">
    <defs>
     <path id="m9bfee5f954" d="M 95.943696 -139.498579 
L 95.756304 -139.498579 
L 95.718036 -139.737589 
L 95.669996 -139.9766 
L 95.612197 -140.21561 
L 95.545703 -140.45462 
L 95.472798 -140.69363 
L 95.396964 -140.93264 
L 95.322637 -141.17165 
L 95.254715 -141.41066 
L 95.197875 -141.649671 
L 95.155781 -141.888681 
L 95.130331 -142.127691 
L 95.12106 -142.366701 
L 95.124833 -142.605711 
L 95.135842 -142.844721 
L 95.145917 -143.083731 
L 95.145024 -143.322742 
L 95.121839 -143.561752 
L 95.064241 -143.800762 
L 94.959646 -144.039772 
L 94.795154 -144.278782 
L 94.55759 -144.517792 
L 94.233579 -144.756802 
L 93.809839 -144.995813 
L 93.273844 -145.234823 
L 92.614919 -145.473833 
L 91.825661 -145.712843 
L 90.903463 -145.951853 
L 89.851771 -146.190863 
L 88.680706 -146.429873 
L 87.406766 -146.668884 
L 86.051553 -146.907894 
L 84.639713 -147.146904 
L 83.196574 -147.385914 
L 81.746037 -147.624924 
L 80.30929 -147.863934 
L 78.904642 -148.102944 
L 77.548424 -148.341955 
L 76.256555 -148.580965 
L 75.046101 -148.819975 
L 73.936143 -149.058985 
L 72.947499 -149.297995 
L 72.101197 -149.537005 
L 71.416075 -149.776015 
L 70.906121 -150.015026 
L 70.578301 -150.254036 
L 70.431412 -150.493046 
L 70.456184 -150.732056 
L 70.636472 -150.971066 
L 70.951094 -151.210076 
L 71.375836 -151.449086 
L 71.885197 -151.688097 
L 72.453723 -151.927107 
L 73.057 -152.166117 
L 73.672478 -152.405127 
L 74.28035 -152.644137 
L 74.86453 -152.883147 
L 75.413646 -153.122157 
L 75.921804 -153.361168 
L 76.388862 -153.600178 
L 76.820035 -153.839188 
L 77.224825 -154.078198 
L 77.615465 -154.317208 
L 78.005208 -154.556218 
L 78.406827 -154.795229 
L 78.831605 -155.034239 
L 79.288937 -155.273249 
L 79.786443 -155.512259 
L 80.330336 -155.751269 
L 80.925753 -155.990279 
L 81.57676 -156.229289 
L 82.285922 -156.4683 
L 83.053523 -156.70731 
L 83.876641 -156.94632 
L 84.748407 -157.18533 
L 85.657723 -157.42434 
L 86.589612 -157.66335 
L 87.526203 -157.90236 
L 88.448207 -158.141371 
L 89.336639 -158.380381 
L 90.174492 -158.619391 
L 90.948123 -158.858401 
L 91.648184 -159.097411 
L 92.269996 -159.336421 
L 92.813403 -159.575431 
L 93.282152 -159.814442 
L 93.682931 -160.053452 
L 94.024218 -160.292462 
L 94.315116 -160.531472 
L 94.564315 -160.770482 
L 94.77933 -161.009492 
L 94.966078 -161.248502 
L 95.128801 -161.487513 
L 95.270289 -161.726523 
L 95.392287 -161.965533 
L 95.495965 -162.204543 
L 95.582344 -162.443553 
L 95.652596 -162.682563 
L 95.70819 -162.921573 
L 95.750897 -163.160584 
L 95.949103 -163.160584 
L 95.949103 -163.160584 
L 95.99181 -162.921573 
L 96.047404 -162.682563 
L 96.117656 -162.443553 
L 96.204035 -162.204543 
L 96.307713 -161.965533 
L 96.429711 -161.726523 
L 96.571199 -161.487513 
L 96.733922 -161.248502 
L 96.92067 -161.009492 
L 97.135685 -160.770482 
L 97.384884 -160.531472 
L 97.675782 -160.292462 
L 98.017069 -160.053452 
L 98.417848 -159.814442 
L 98.886597 -159.575431 
L 99.430004 -159.336421 
L 100.051816 -159.097411 
L 100.751877 -158.858401 
L 101.525508 -158.619391 
L 102.363361 -158.380381 
L 103.251793 -158.141371 
L 104.173797 -157.90236 
L 105.110388 -157.66335 
L 106.042277 -157.42434 
L 106.951593 -157.18533 
L 107.823359 -156.94632 
L 108.646477 -156.70731 
L 109.414078 -156.4683 
L 110.12324 -156.229289 
L 110.774247 -155.990279 
L 111.369664 -155.751269 
L 111.913557 -155.512259 
L 112.411063 -155.273249 
L 112.868395 -155.034239 
L 113.293173 -154.795229 
L 113.694792 -154.556218 
L 114.084535 -154.317208 
L 114.475175 -154.078198 
L 114.879965 -153.839188 
L 115.311138 -153.600178 
L 115.778196 -153.361168 
L 116.286354 -153.122157 
L 116.83547 -152.883147 
L 117.41965 -152.644137 
L 118.027522 -152.405127 
L 118.643 -152.166117 
L 119.246277 -151.927107 
L 119.814803 -151.688097 
L 120.324164 -151.449086 
L 120.748906 -151.210076 
L 121.063528 -150.971066 
L 121.243816 -150.732056 
L 121.268588 -150.493046 
L 121.121699 -150.254036 
L 120.793879 -150.015026 
L 120.283925 -149.776015 
L 119.598803 -149.537005 
L 118.752501 -149.297995 
L 117.763857 -149.058985 
L 116.653899 -148.819975 
L 115.443445 -148.580965 
L 114.151576 -148.341955 
L 112.795358 -148.102944 
L 111.39071 -147.863934 
L 109.953963 -147.624924 
L 108.503426 -147.385914 
L 107.060287 -147.146904 
L 105.648447 -146.907894 
L 104.293234 -146.668884 
L 103.019294 -146.429873 
L 101.848229 -146.190863 
L 100.796537 -145.951853 
L 99.874339 -145.712843 
L 99.085081 -145.473833 
L 98.426156 -145.234823 
L 97.890161 -144.995813 
L 97.466421 -144.756802 
L 97.14241 -144.517792 
L 96.904846 -144.278782 
L 96.740354 -144.039772 
L 96.635759 -143.800762 
L 96.578161 -143.561752 
L 96.554976 -143.322742 
L 96.554083 -143.083731 
L 96.564158 -142.844721 
L 96.575167 -142.605711 
L 96.57894 -142.366701 
L 96.569669 -142.127691 
L 96.544219 -141.888681 
L 96.502125 -141.649671 
L 96.445285 -141.41066 
L 96.377363 -141.17165 
L 96.303036 -140.93264 
L 96.227202 -140.69363 
L 96.154297 -140.45462 
L 96.087803 -140.21561 
L 96.030004 -139.9766 
L 95.981964 -139.737589 
L 95.943696 -139.498579 
z
" style="stroke: #4d4d4d; stroke-width: 1.5"/>
    </defs>
    <g clip-path="url(#p5ae92b6ae0)">
     <use xlink:href="#m9bfee5f954" x="0" y="288" style="fill: #808080; stroke: #4d4d4d; stroke-width: 1.5"/>
    </g>
   </g>
   <g id="PolyCollection_2">
    <defs>
     <path id="m303c20509d" d="M 179.733812 -137.705505 
L 179.366188 -137.705505 
L 179.292698 -138.047959 
L 179.197099 -138.390412 
L 179.075569 -138.732865 
L 178.92454 -139.075318 
L 178.740998 -139.417771 
L 178.522771 -139.760225 
L 178.268784 -140.102678 
L 177.979219 -140.445131 
L 177.655556 -140.787584 
L 177.300477 -141.130038 
L 176.917609 -141.472491 
L 176.511141 -141.814944 
L 176.085331 -142.157397 
L 175.643975 -142.49985 
L 175.189879 -142.842304 
L 174.72442 -143.184757 
L 174.247266 -143.52721 
L 173.756291 -143.869663 
L 173.247751 -144.212117 
L 172.716733 -144.55457 
L 172.157857 -144.897023 
L 171.566192 -145.239476 
L 170.93831 -145.58193 
L 170.273335 -145.924383 
L 169.57388 -146.266836 
L 168.84668 -146.609289 
L 168.102828 -146.951742 
L 167.357493 -147.294196 
L 166.629115 -147.636649 
L 165.93812 -147.979102 
L 165.305299 -148.321555 
L 164.750044 -148.664009 
L 164.288675 -149.006462 
L 163.933089 -149.348915 
L 163.689894 -149.691368 
L 163.560142 -150.033822 
L 163.53965 -150.376275 
L 163.619818 -150.718728 
L 163.788778 -151.061181 
L 164.032669 -151.403634 
L 164.336863 -151.746088 
L 164.686978 -152.088541 
L 165.069621 -152.430994 
L 165.472843 -152.773447 
L 165.886373 -153.115901 
L 166.301718 -153.458354 
L 166.712193 -153.800807 
L 167.112946 -154.14326 
L 167.500966 -154.485713 
L 167.875035 -154.828167 
L 168.235558 -155.17062 
L 168.584218 -155.513073 
L 168.923427 -155.855526 
L 169.255636 -156.19798 
L 169.582587 -156.540433 
L 169.904667 -156.882886 
L 170.220515 -157.225339 
L 170.527021 -157.567793 
L 170.819752 -157.910246 
L 171.09379 -158.252699 
L 171.344851 -158.595152 
L 171.570468 -158.937605 
L 171.771021 -159.280059 
L 171.950383 -159.622512 
L 172.116017 -159.964965 
L 172.278466 -160.307418 
L 172.450283 -160.649872 
L 172.644537 -160.992325 
L 172.873144 -161.334778 
L 173.145261 -161.677231 
L 173.466012 -162.019685 
L 173.835731 -162.362138 
L 174.249821 -162.704591 
L 174.699251 -163.047044 
L 175.171578 -163.389497 
L 175.652347 -163.731951 
L 176.126638 -164.074404 
L 176.58056 -164.416857 
L 177.00249 -164.75931 
L 177.383929 -165.101764 
L 177.719908 -165.444217 
L 178.008946 -165.78667 
L 178.252631 -166.129123 
L 178.454928 -166.471576 
L 178.621344 -166.81403 
L 178.758088 -167.156483 
L 178.871319 -167.498936 
L 178.966575 -167.841389 
L 179.048407 -168.183843 
L 179.120228 -168.526296 
L 179.184346 -168.868749 
L 179.242121 -169.211202 
L 179.294209 -169.553656 
L 179.340818 -169.896109 
L 179.381946 -170.238562 
L 179.417567 -170.581015 
L 179.447749 -170.923468 
L 179.472718 -171.265922 
L 179.492859 -171.608375 
L 179.607141 -171.608375 
L 179.607141 -171.608375 
L 179.627282 -171.265922 
L 179.652251 -170.923468 
L 179.682433 -170.581015 
L 179.718054 -170.238562 
L 179.759182 -169.896109 
L 179.805791 -169.553656 
L 179.857879 -169.211202 
L 179.915654 -168.868749 
L 179.979772 -168.526296 
L 180.051593 -168.183843 
L 180.133425 -167.841389 
L 180.228681 -167.498936 
L 180.341912 -167.156483 
L 180.478656 -166.81403 
L 180.645072 -166.471576 
L 180.847369 -166.129123 
L 181.091054 -165.78667 
L 181.380092 -165.444217 
L 181.716071 -165.101764 
L 182.09751 -164.75931 
L 182.51944 -164.416857 
L 182.973362 -164.074404 
L 183.447653 -163.731951 
L 183.928422 -163.389497 
L 184.400749 -163.047044 
L 184.850179 -162.704591 
L 185.264269 -162.362138 
L 185.633988 -162.019685 
L 185.954739 -161.677231 
L 186.226856 -161.334778 
L 186.455463 -160.992325 
L 186.649717 -160.649872 
L 186.821534 -160.307418 
L 186.983983 -159.964965 
L 187.149617 -159.622512 
L 187.328979 -159.280059 
L 187.529532 -158.937605 
L 187.755149 -158.595152 
L 188.00621 -158.252699 
L 188.280248 -157.910246 
L 188.572979 -157.567793 
L 188.879485 -157.225339 
L 189.195333 -156.882886 
L 189.517413 -156.540433 
L 189.844364 -156.19798 
L 190.176573 -155.855526 
L 190.515782 -155.513073 
L 190.864442 -155.17062 
L 191.224965 -154.828167 
L 191.599034 -154.485713 
L 191.987054 -154.14326 
L 192.387807 -153.800807 
L 192.798282 -153.458354 
L 193.213627 -153.115901 
L 193.627157 -152.773447 
L 194.030379 -152.430994 
L 194.413022 -152.088541 
L 194.763137 -151.746088 
L 195.067331 -151.403634 
L 195.311222 -151.061181 
L 195.480182 -150.718728 
L 195.56035 -150.376275 
L 195.539858 -150.033822 
L 195.410106 -149.691368 
L 195.166911 -149.348915 
L 194.811325 -149.006462 
L 194.349956 -148.664009 
L 193.794701 -148.321555 
L 193.16188 -147.979102 
L 192.470885 -147.636649 
L 191.742507 -147.294196 
L 190.997172 -146.951742 
L 190.25332 -146.609289 
L 189.52612 -146.266836 
L 188.826665 -145.924383 
L 188.16169 -145.58193 
L 187.533808 -145.239476 
L 186.942143 -144.897023 
L 186.383267 -144.55457 
L 185.852249 -144.212117 
L 185.343709 -143.869663 
L 184.852734 -143.52721 
L 184.37558 -143.184757 
L 183.910121 -142.842304 
L 183.456025 -142.49985 
L 183.014669 -142.157397 
L 182.588859 -141.814944 
L 182.182391 -141.472491 
L 181.799523 -141.130038 
L 181.444444 -140.787584 
L 181.120781 -140.445131 
L 180.831216 -140.102678 
L 180.577229 -139.760225 
L 180.359002 -139.417771 
L 180.17546 -139.075318 
L 180.024431 -138.732865 
L 179.902901 -138.390412 
L 179.807302 -138.047959 
L 179.733812 -137.705505 
z
" style="stroke: #4d4d4d; stroke-width: 1.5"/>
    </defs>
    <g clip-path="url(#p5ae92b6ae0)">
     <use xlink:href="#m303c20509d" x="0" y="288" style="fill: #808080; stroke: #4d4d4d; stroke-width: 1.5"/>
    </g>
   </g>
   <g id="PolyCollection_3">
    <defs>
     <path id="m5c3b753145" d="M 263.33967 -128.630396 
L 263.16033 -128.630396 
L 263.1182 -129.171422 
L 263.060794 -129.712449 
L 262.984654 -130.253475 
L 262.886372 -130.794501 
L 262.762932 -131.335527 
L 262.612121 -131.876553 
L 262.432948 -132.41758 
L 262.22603 -132.958606 
L 261.99385 -133.499632 
L 261.740837 -134.040658 
L 261.473194 -134.581685 
L 261.198453 -135.122711 
L 260.924771 -135.663737 
L 260.66002 -136.204763 
L 260.410776 -136.745789 
L 260.181339 -137.286816 
L 259.972922 -137.827842 
L 259.783151 -138.368868 
L 259.60597 -138.909894 
L 259.431991 -139.450921 
L 259.249285 -139.991947 
L 259.04453 -140.532973 
L 258.804411 -141.073999 
L 258.517115 -141.615025 
L 258.173775 -142.156052 
L 257.769716 -142.697078 
L 257.305371 -143.238104 
L 256.786761 -143.77913 
L 256.225461 -144.320157 
L 255.63802 -144.861183 
L 255.044817 -145.402209 
L 254.468463 -145.943235 
L 253.931844 -146.484261 
L 253.456059 -147.025288 
L 253.058471 -147.566314 
L 252.751158 -148.10734 
L 252.539973 -148.648366 
L 252.424339 -149.189393 
L 252.397807 -149.730419 
L 252.449241 -150.271445 
L 252.564423 -150.812471 
L 252.72781 -151.353497 
L 252.92415 -151.894524 
L 253.139773 -152.43555 
L 253.363415 -152.976576 
L 253.586588 -153.517602 
L 253.803561 -154.058628 
L 254.011107 -154.599655 
L 254.208156 -155.140681 
L 254.395471 -155.681707 
L 254.575411 -156.222733 
L 254.751758 -156.76376 
L 254.929558 -157.304786 
L 255.114887 -157.845812 
L 255.31447 -158.386838 
L 255.535122 -158.927864 
L 255.783043 -159.468891 
L 256.063052 -160.009917 
L 256.377866 -160.550943 
L 256.727573 -161.091969 
L 257.109398 -161.632996 
L 257.517819 -162.174022 
L 257.945036 -162.715048 
L 258.38173 -163.256074 
L 258.817987 -163.7971 
L 259.244263 -164.338127 
L 259.652228 -164.879153 
L 260.035398 -165.420179 
L 260.389461 -165.961205 
L 260.712301 -166.502232 
L 261.003738 -167.043258 
L 261.265071 -167.584284 
L 261.49852 -168.12531 
L 261.706675 -168.666336 
L 261.892035 -169.207363 
L 262.056706 -169.748389 
L 262.202287 -170.289415 
L 262.329914 -170.830441 
L 262.440449 -171.371468 
L 262.534725 -171.912494 
L 262.61379 -172.45352 
L 262.679087 -172.994546 
L 262.732519 -173.535572 
L 262.7764 -174.076599 
L 262.813284 -174.617625 
L 262.845727 -175.158651 
L 262.876021 -175.699677 
L 262.90597 -176.240704 
L 262.936737 -176.78173 
L 262.968792 -177.322756 
L 263.001973 -177.863782 
L 263.035624 -178.404808 
L 263.068793 -178.945835 
L 263.100433 -179.486861 
L 263.129589 -180.027887 
L 263.155528 -180.568913 
L 263.177809 -181.109939 
L 263.196295 -181.650966 
L 263.211117 -182.191992 
L 263.288883 -182.191992 
L 263.288883 -182.191992 
L 263.303705 -181.650966 
L 263.322191 -181.109939 
L 263.344472 -180.568913 
L 263.370411 -180.027887 
L 263.399567 -179.486861 
L 263.431207 -178.945835 
L 263.464376 -178.404808 
L 263.498027 -177.863782 
L 263.531208 -177.322756 
L 263.563263 -176.78173 
L 263.59403 -176.240704 
L 263.623979 -175.699677 
L 263.654273 -175.158651 
L 263.686716 -174.617625 
L 263.7236 -174.076599 
L 263.767481 -173.535572 
L 263.820913 -172.994546 
L 263.88621 -172.45352 
L 263.965275 -171.912494 
L 264.059551 -171.371468 
L 264.170086 -170.830441 
L 264.297713 -170.289415 
L 264.443294 -169.748389 
L 264.607965 -169.207363 
L 264.793325 -168.666336 
L 265.00148 -168.12531 
L 265.234929 -167.584284 
L 265.496262 -167.043258 
L 265.787699 -166.502232 
L 266.110539 -165.961205 
L 266.464602 -165.420179 
L 266.847772 -164.879153 
L 267.255737 -164.338127 
L 267.682013 -163.7971 
L 268.11827 -163.256074 
L 268.554964 -162.715048 
L 268.982181 -162.174022 
L 269.390602 -161.632996 
L 269.772427 -161.091969 
L 270.122134 -160.550943 
L 270.436948 -160.009917 
L 270.716957 -159.468891 
L 270.964878 -158.927864 
L 271.18553 -158.386838 
L 271.385113 -157.845812 
L 271.570442 -157.304786 
L 271.748242 -156.76376 
L 271.924589 -156.222733 
L 272.104529 -155.681707 
L 272.291844 -155.140681 
L 272.488893 -154.599655 
L 272.696439 -154.058628 
L 272.913412 -153.517602 
L 273.136585 -152.976576 
L 273.360227 -152.43555 
L 273.57585 -151.894524 
L 273.77219 -151.353497 
L 273.935577 -150.812471 
L 274.050759 -150.271445 
L 274.102193 -149.730419 
L 274.075661 -149.189393 
L 273.960027 -148.648366 
L 273.748842 -148.10734 
L 273.441529 -147.566314 
L 273.043941 -147.025288 
L 272.568156 -146.484261 
L 272.031537 -145.943235 
L 271.455183 -145.402209 
L 270.86198 -144.861183 
L 270.274539 -144.320157 
L 269.713239 -143.77913 
L 269.194629 -143.238104 
L 268.730284 -142.697078 
L 268.326225 -142.156052 
L 267.982885 -141.615025 
L 267.695589 -141.073999 
L 267.45547 -140.532973 
L 267.250715 -139.991947 
L 267.068009 -139.450921 
L 266.89403 -138.909894 
L 266.716849 -138.368868 
L 266.527078 -137.827842 
L 266.318661 -137.286816 
L 266.089224 -136.745789 
L 265.83998 -136.204763 
L 265.575229 -135.663737 
L 265.301547 -135.122711 
L 265.026806 -134.581685 
L 264.759163 -134.040658 
L 264.50615 -133.499632 
L 264.27397 -132.958606 
L 264.067052 -132.41758 
L 263.887879 -131.876553 
L 263.737068 -131.335527 
L 263.613628 -130.794501 
L 263.515346 -130.253475 
L 263.439206 -129.712449 
L 263.3818 -129.171422 
L 263.33967 -128.630396 
z
" style="stroke: #4d4d4d; stroke-width: 1.5"/>
    </defs>
    <g clip-path="url(#p5ae92b6ae0)">
     <use xlink:href="#m5c3b753145" x="0" y="288" style="fill: #808080; stroke: #4d4d4d; stroke-width: 1.5"/>
    </g>
   </g>
   <g id="PolyCollection_4">
    <defs>
     <path id="me8f6447350" d="M 347.077633 -142.781832 
L 346.822367 -142.781832 
L 346.766861 -142.971678 
L 346.693842 -143.161523 
L 346.600297 -143.351369 
L 346.483332 -143.541214 
L 346.340209 -143.73106 
L 346.168282 -143.920906 
L 345.964836 -144.110751 
L 345.726863 -144.300597 
L 345.450843 -144.490442 
L 345.132627 -144.680288 
L 344.767498 -144.870133 
L 344.350446 -145.059979 
L 343.87666 -145.249825 
L 343.342135 -145.43967 
L 342.74427 -145.629516 
L 342.082321 -145.819361 
L 341.357552 -146.009207 
L 340.57304 -146.199053 
L 339.733112 -146.388898 
L 338.842518 -146.578744 
L 337.905499 -146.768589 
L 336.924984 -146.958435 
L 335.902173 -147.148281 
L 334.836747 -147.338126 
L 333.727883 -147.527972 
L 332.576074 -147.717817 
L 331.385556 -147.907663 
L 330.166889 -148.097508 
L 328.939029 -148.287354 
L 327.730136 -148.4772 
L 326.576483 -148.667045 
L 325.519132 -148.856891 
L 324.598552 -149.046736 
L 323.847891 -149.236582 
L 323.286123 -149.426428 
L 322.912479 -149.616273 
L 322.703538 -149.806119 
L 322.613886 -149.995964 
L 322.580593 -150.18581 
L 322.530989 -150.375656 
L 322.392528 -150.565501 
L 322.103107 -150.755347 
L 321.620138 -150.945192 
L 320.926917 -151.135038 
L 320.03541 -151.324884 
L 318.985209 -151.514729 
L 317.83907 -151.704575 
L 316.675938 -151.89442 
L 315.582616 -152.084266 
L 314.645245 -152.274111 
L 313.941617 -152.463957 
L 313.535018 -152.653803 
L 313.47 -152.843648 
L 313.770187 -153.033494 
L 314.437995 -153.223339 
L 315.456013 -153.413185 
L 316.789701 -153.603031 
L 318.391025 -153.792876 
L 320.202627 -153.982722 
L 322.16215 -154.172567 
L 324.206346 -154.362413 
L 326.274706 -154.552259 
L 328.31242 -154.742104 
L 330.272595 -154.93195 
L 332.117745 -155.121795 
L 333.820623 -155.311641 
L 335.364441 -155.501486 
L 336.742532 -155.691332 
L 337.95743 -155.881178 
L 339.019394 -156.071023 
L 339.94439 -156.260869 
L 340.751705 -156.450714 
L 341.461403 -156.64056 
L 342.091966 -156.830406 
L 342.658431 -157.020251 
L 343.171304 -157.210097 
L 343.636374 -157.399942 
L 344.0554 -157.589788 
L 344.427461 -157.779634 
L 344.750663 -157.969479 
L 345.023829 -158.159325 
L 345.247837 -158.34917 
L 345.426364 -158.539016 
L 345.56593 -158.728862 
L 345.675286 -158.918707 
L 345.764333 -159.108553 
L 345.842807 -159.298398 
L 345.919036 -159.488244 
L 345.998998 -159.678089 
L 346.085849 -159.867935 
L 346.179953 -160.057781 
L 346.279361 -160.247626 
L 346.38059 -160.437472 
L 346.479501 -160.627317 
L 346.572125 -160.817163 
L 346.655275 -161.007009 
L 346.726897 -161.196854 
L 346.786155 -161.3867 
L 346.833299 -161.576545 
L 347.066701 -161.576545 
L 347.066701 -161.576545 
L 347.113845 -161.3867 
L 347.173103 -161.196854 
L 347.244725 -161.007009 
L 347.327875 -160.817163 
L 347.420499 -160.627317 
L 347.51941 -160.437472 
L 347.620639 -160.247626 
L 347.720047 -160.057781 
L 347.814151 -159.867935 
L 347.901002 -159.678089 
L 347.980964 -159.488244 
L 348.057193 -159.298398 
L 348.135667 -159.108553 
L 348.224714 -158.918707 
L 348.33407 -158.728862 
L 348.473636 -158.539016 
L 348.652163 -158.34917 
L 348.876171 -158.159325 
L 349.149337 -157.969479 
L 349.472539 -157.779634 
L 349.8446 -157.589788 
L 350.263626 -157.399942 
L 350.728696 -157.210097 
L 351.241569 -157.020251 
L 351.808034 -156.830406 
L 352.438597 -156.64056 
L 353.148295 -156.450714 
L 353.95561 -156.260869 
L 354.880606 -156.071023 
L 355.94257 -155.881178 
L 357.157468 -155.691332 
L 358.535559 -155.501486 
L 360.079377 -155.311641 
L 361.782255 -155.121795 
L 363.627405 -154.93195 
L 365.58758 -154.742104 
L 367.625294 -154.552259 
L 369.693654 -154.362413 
L 371.73785 -154.172567 
L 373.697373 -153.982722 
L 375.508975 -153.792876 
L 377.110299 -153.603031 
L 378.443987 -153.413185 
L 379.462005 -153.223339 
L 380.129813 -153.033494 
L 380.43 -152.843648 
L 380.364982 -152.653803 
L 379.958383 -152.463957 
L 379.254755 -152.274111 
L 378.317384 -152.084266 
L 377.224062 -151.89442 
L 376.06093 -151.704575 
L 374.914791 -151.514729 
L 373.86459 -151.324884 
L 372.973083 -151.135038 
L 372.279862 -150.945192 
L 371.796893 -150.755347 
L 371.507472 -150.565501 
L 371.369011 -150.375656 
L 371.319407 -150.18581 
L 371.286114 -149.995964 
L 371.196462 -149.806119 
L 370.987521 -149.616273 
L 370.613877 -149.426428 
L 370.052109 -149.236582 
L 369.301448 -149.046736 
L 368.380868 -148.856891 
L 367.323517 -148.667045 
L 366.169864 -148.4772 
L 364.960971 -148.287354 
L 363.733111 -148.097508 
L 362.514444 -147.907663 
L 361.323926 -147.717817 
L 360.172117 -147.527972 
L 359.063253 -147.338126 
L 357.997827 -147.148281 
L 356.975016 -146.958435 
L 355.994501 -146.768589 
L 355.057482 -146.578744 
L 354.166888 -146.388898 
L 353.32696 -146.199053 
L 352.542448 -146.009207 
L 351.817679 -145.819361 
L 351.15573 -145.629516 
L 350.557865 -145.43967 
L 350.02334 -145.249825 
L 349.549554 -145.059979 
L 349.132502 -144.870133 
L 348.767373 -144.680288 
L 348.449157 -144.490442 
L 348.173137 -144.300597 
L 347.935164 -144.110751 
L 347.731718 -143.920906 
L 347.559791 -143.73106 
L 347.416668 -143.541214 
L 347.299703 -143.351369 
L 347.206158 -143.161523 
L 347.133139 -142.971678 
L 347.077633 -142.781832 
z
" style="stroke: #4d4d4d; stroke-width: 1.5"/>
    </defs>
    <g clip-path="url(#p5ae92b6ae0)">
     <use xlink:href="#me8f6447350" x="0" y="288" style="fill: #808080; stroke: #4d4d4d; stroke-width: 1.5"/>
    </g>
   </g>
   <g id="matplotlib.axis_1">
    <g id="xtick_1">
     <g id="line2d_1">
      <defs>
       <path id="m2ad789d771" d="M 0 0 
L 0 3.5 
" style="stroke: #000000; stroke-width: 0.8"/>
      </defs>
      <g>
       <use xlink:href="#m2ad789d771" x="95.85" y="252" style="stroke: #000000; stroke-width: 0.8"/>
      </g>
     </g>
     <g id="text_1">
      <!-- EGR1_20 -->
      <g transform="translate(73.298437 266.421875)scale(0.1 -0.1)">
       <defs>
        <path id="DejaVuSans-45" d="M 628 4666 
L 3578 4666 
L 3578 4134 
L 1259 4134 
L 1259 2753 
L 3481 2753 
L 3481 2222 
L 1259 2222 
L 1259 531 
L 3634 531 
L 3634 0 
L 628 0 
L 628 4666 
z
" transform="scale(0.015625)"/>
        <path id="DejaVuSans-47" d="M 3809 666 
L 3809 1919 
L 2778 1919 
L 2778 2438 
L 4434 2438 
L 4434 434 
Q 4069 175 3628 42 
Q 3188 -91 2688 -91 
Q 1594 -91 976 548 
Q 359 1188 359 2328 
Q 359 3472 976 4111 
Q 1594 4750 2688 4750 
Q 3144 4750 3555 4637 
Q 3966 4525 4313 4306 
L 4313 3634 
Q 3963 3931 3569 4081 
Q 3175 4231 2741 4231 
Q 1884 4231 1454 3753 
Q 1025 3275 1025 2328 
Q 1025 1384 1454 906 
Q 1884 428 2741 428 
Q 3075 428 3337 486 
Q 3600 544 3809 666 
z
" transform="scale(0.015625)"/>
        <path id="DejaVuSans-52" d="M 2841 2188 
Q 3044 2119 3236 1894 
Q 3428 1669 3622 1275 
L 4263 0 
L 3584 0 
L 2988 1197 
Q 2756 1666 2539 1819 
Q 2322 1972 1947 1972 
L 1259 1972 
L 1259 0 
L 628 0 
L 628 4666 
L 2053 4666 
Q 2853 4666 3247 4331 
Q 3641 3997 3641 3322 
Q 3641 2881 3436 2590 
Q 3231 2300 2841 2188 
z
M 1259 4147 
L 1259 2491 
L 2053 2491 
Q 2509 2491 2742 2702 
Q 2975 2913 2975 3322 
Q 2975 3731 2742 3939 
Q 2509 4147 2053 4147 
L 1259 4147 
z
" transform="scale(0.015625)"/>
        <path id="DejaVuSans-31" d="M 794 531 
L 1825 531 
L 1825 4091 
L 703 3866 
L 703 4441 
L 1819 4666 
L 2450 4666 
L 2450 531 
L 3481 531 
L 3481 0 
L 794 0 
L 794 531 
z
" transform="scale(0.015625)"/>
        <path id="DejaVuSans-5f" d="M 3263 -1063 
L 3263 -1509 
L -63 -1509 
L -63 -1063 
L 3263 -1063 
z
" transform="scale(0.015625)"/>
        <path id="DejaVuSans-32" d="M 1228 531 
L 3431 531 
L 3431 0 
L 469 0 
L 469 531 
Q 828 903 1448 1529 
Q 2069 2156 2228 2338 
Q 2531 2678 2651 2914 
Q 2772 3150 2772 3378 
Q 2772 3750 2511 3984 
Q 2250 4219 1831 4219 
Q 1534 4219 1204 4116 
Q 875 4013 500 3803 
L 500 4441 
Q 881 4594 1212 4672 
Q 1544 4750 1819 4750 
Q 2544 4750 2975 4387 
Q 3406 4025 3406 3419 
Q 3406 3131 3298 2873 
Q 3191 2616 2906 2266 
Q 2828 2175 2409 1742 
Q 1991 1309 1228 531 
z
" transform="scale(0.015625)"/>
        <path id="DejaVuSans-30" d="M 2034 4250 
Q 1547 4250 1301 3770 
Q 1056 3291 1056 2328 
Q 1056 1369 1301 889 
Q 1547 409 2034 409 
Q 2525 409 2770 889 
Q 3016 1369 3016 2328 
Q 3016 3291 2770 3770 
Q 2525 4250 2034 4250 
z
M 2034 4750 
Q 2819 4750 3233 4129 
Q 3647 3509 3647 2328 
Q 3647 1150 3233 529 
Q 2819 -91 2034 -91 
Q 1250 -91 836 529 
Q 422 1150 422 2328 
Q 422 3509 836 4129 
Q 1250 4750 2034 4750 
z
" transform="scale(0.015625)"/>
       </defs>
       <use xlink:href="#DejaVuSans-45"/>
       <use xlink:href="#DejaVuSans-47" x="63.183594"/>
       <use xlink:href="#DejaVuSans-52" x="140.673828"/>
       <use xlink:href="#DejaVuSans-31" x="210.15625"/>
       <use xlink:href="#DejaVuSans-5f" x="273.779297"/>
       <use xlink:href="#DejaVuSans-32" x="323.779297"/>
       <use xlink:href="#DejaVuSans-30" x="387.402344"/>
      </g>
     </g>
    </g>
    <g id="xtick_2">
     <g id="line2d_2">
      <g>
       <use xlink:href="#m2ad789d771" x="179.55" y="252" style="stroke: #000000; stroke-width: 0.8"/>
      </g>
     </g>
     <g id="text_2">
      <!-- EGR1_25 -->
      <g transform="translate(156.998438 266.421875)scale(0.1 -0.1)">
       <defs>
        <path id="DejaVuSans-35" d="M 691 4666 
L 3169 4666 
L 3169 4134 
L 1269 4134 
L 1269 2991 
Q 1406 3038 1543 3061 
Q 1681 3084 1819 3084 
Q 2600 3084 3056 2656 
Q 3513 2228 3513 1497 
Q 3513 744 3044 326 
Q 2575 -91 1722 -91 
Q 1428 -91 1123 -41 
Q 819 9 494 109 
L 494 744 
Q 775 591 1075 516 
Q 1375 441 1709 441 
Q 2250 441 2565 725 
Q 2881 1009 2881 1497 
Q 2881 1984 2565 2268 
Q 2250 2553 1709 2553 
Q 1456 2553 1204 2497 
Q 953 2441 691 2322 
L 691 4666 
z
" transform="scale(0.015625)"/>
       </defs>
       <use xlink:href="#DejaVuSans-45"/>
       <use xlink:href="#DejaVuSans-47" x="63.183594"/>
       <use xlink:href="#DejaVuSans-52" x="140.673828"/>
       <use xlink:href="#DejaVuSans-31" x="210.15625"/>
       <use xlink:href="#DejaVuSans-5f" x="273.779297"/>
       <use xlink:href="#DejaVuSans-32" x="323.779297"/>
       <use xlink:href="#DejaVuSans-35" x="387.402344"/>
      </g>
     </g>
    </g>
    <g id="xtick_3">
     <g id="line2d_3">
      <g>
       <use xlink:href="#m2ad789d771" x="263.25" y="252" style="stroke: #000000; stroke-width: 0.8"/>
      </g>
     </g>
     <g id="text_3">
      <!-- EGR1_30 -->
      <g transform="translate(240.698438 266.421875)scale(0.1 -0.1)">
       <defs>
        <path id="DejaVuSans-33" d="M 2597 2516 
Q 3050 2419 3304 2112 
Q 3559 1806 3559 1356 
Q 3559 666 3084 287 
Q 2609 -91 1734 -91 
Q 1441 -91 1130 -33 
Q 819 25 488 141 
L 488 750 
Q 750 597 1062 519 
Q 1375 441 1716 441 
Q 2309 441 2620 675 
Q 2931 909 2931 1356 
Q 2931 1769 2642 2001 
Q 2353 2234 1838 2234 
L 1294 2234 
L 1294 2753 
L 1863 2753 
Q 2328 2753 2575 2939 
Q 2822 3125 2822 3475 
Q 2822 3834 2567 4026 
Q 2313 4219 1838 4219 
Q 1578 4219 1281 4162 
Q 984 4106 628 3988 
L 628 4550 
Q 988 4650 1302 4700 
Q 1616 4750 1894 4750 
Q 2613 4750 3031 4423 
Q 3450 4097 3450 3541 
Q 3450 3153 3228 2886 
Q 3006 2619 2597 2516 
z
" transform="scale(0.015625)"/>
       </defs>
       <use xlink:href="#DejaVuSans-45"/>
       <use xlink:href="#DejaVuSans-47" x="63.183594"/>
       <use xlink:href="#DejaVuSans-52" x="140.673828"/>
       <use xlink:href="#DejaVuSans-31" x="210.15625"/>
       <use xlink:href="#DejaVuSans-5f" x="273.779297"/>
       <use xlink:href="#DejaVuSans-33" x="323.779297"/>
       <use xlink:href="#DejaVuSans-30" x="387.402344"/>
      </g>
     </g>
    </g>
    <g id="xtick_4">
     <g id="line2d_4">
      <g>
       <use xlink:href="#m2ad789d771" x="346.95" y="252" style="stroke: #000000; stroke-width: 0.8"/>
      </g>
     </g>
     <g id="text_4">
      <!-- EGR1_pwm -->
      <g transform="translate(318.627344 266.421875)scale(0.1 -0.1)">
       <defs>
        <path id="DejaVuSans-70" d="M 1159 525 
L 1159 -1331 
L 581 -1331 
L 581 3500 
L 1159 3500 
L 1159 2969 
Q 1341 3281 1617 3432 
Q 1894 3584 2278 3584 
Q 2916 3584 3314 3078 
Q 3713 2572 3713 1747 
Q 3713 922 3314 415 
Q 2916 -91 2278 -91 
Q 1894 -91 1617 61 
Q 1341 213 1159 525 
z
M 3116 1747 
Q 3116 2381 2855 2742 
Q 2594 3103 2138 3103 
Q 1681 3103 1420 2742 
Q 1159 2381 1159 1747 
Q 1159 1113 1420 752 
Q 1681 391 2138 391 
Q 2594 391 2855 752 
Q 3116 1113 3116 1747 
z
" transform="scale(0.015625)"/>
        <path id="DejaVuSans-77" d="M 269 3500 
L 844 3500 
L 1563 769 
L 2278 3500 
L 2956 3500 
L 3675 769 
L 4391 3500 
L 4966 3500 
L 4050 0 
L 3372 0 
L 2619 2869 
L 1863 0 
L 1184 0 
L 269 3500 
z
" transform="scale(0.015625)"/>
        <path id="DejaVuSans-6d" d="M 3328 2828 
Q 3544 3216 3844 3400 
Q 4144 3584 4550 3584 
Q 5097 3584 5394 3201 
Q 5691 2819 5691 2113 
L 5691 0 
L 5113 0 
L 5113 2094 
Q 5113 2597 4934 2840 
Q 4756 3084 4391 3084 
Q 3944 3084 3684 2787 
Q 3425 2491 3425 1978 
L 3425 0 
L 2847 0 
L 2847 2094 
Q 2847 2600 2669 2842 
Q 2491 3084 2119 3084 
Q 1678 3084 1418 2786 
Q 1159 2488 1159 1978 
L 1159 0 
L 581 0 
L 581 3500 
L 1159 3500 
L 1159 2956 
Q 1356 3278 1631 3431 
Q 1906 3584 2284 3584 
Q 2666 3584 2933 3390 
Q 3200 3197 3328 2828 
z
" transform="scale(0.015625)"/>
       </defs>
       <use xlink:href="#DejaVuSans-45"/>
       <use xlink:href="#DejaVuSans-47" x="63.183594"/>
       <use xlink:href="#DejaVuSans-52" x="140.673828"/>
       <use xlink:href="#DejaVuSans-31" x="210.15625"/>
       <use xlink:href="#DejaVuSans-5f" x="273.779297"/>
       <use xlink:href="#DejaVuSans-70" x="323.779297"/>
       <use xlink:href="#DejaVuSans-77" x="387.255859"/>
       <use xlink:href="#DejaVuSans-6d" x="469.042969"/>
      </g>
     </g>
    </g>
    <g id="text_5">
     <!-- variable -->
     <g transform="translate(201.228125 280.378125)scale(0.1 -0.1)">
      <defs>
       <path id="DejaVuSans-76" d="M 191 3500 
L 800 3500 
L 1894 563 
L 2988 3500 
L 3597 3500 
L 2284 0 
L 1503 0 
L 191 3500 
z
" transform="scale(0.015625)"/>
       <path id="DejaVuSans-61" d="M 2194 1759 
Q 1497 1759 1228 1600 
Q 959 1441 959 1056 
Q 959 750 1161 570 
Q 1363 391 1709 391 
Q 2188 391 2477 730 
Q 2766 1069 2766 1631 
L 2766 1759 
L 2194 1759 
z
M 3341 1997 
L 3341 0 
L 2766 0 
L 2766 531 
Q 2569 213 2275 61 
Q 1981 -91 1556 -91 
Q 1019 -91 701 211 
Q 384 513 384 1019 
Q 384 1609 779 1909 
Q 1175 2209 1959 2209 
L 2766 2209 
L 2766 2266 
Q 2766 2663 2505 2880 
Q 2244 3097 1772 3097 
Q 1472 3097 1187 3025 
Q 903 2953 641 2809 
L 641 3341 
Q 956 3463 1253 3523 
Q 1550 3584 1831 3584 
Q 2591 3584 2966 3190 
Q 3341 2797 3341 1997 
z
" transform="scale(0.015625)"/>
       <path id="DejaVuSans-72" d="M 2631 2963 
Q 2534 3019 2420 3045 
Q 2306 3072 2169 3072 
Q 1681 3072 1420 2755 
Q 1159 2438 1159 1844 
L 1159 0 
L 581 0 
L 581 3500 
L 1159 3500 
L 1159 2956 
Q 1341 3275 1631 3429 
Q 1922 3584 2338 3584 
Q 2397 3584 2469 3576 
Q 2541 3569 2628 3553 
L 2631 2963 
z
" transform="scale(0.015625)"/>
       <path id="DejaVuSans-69" d="M 603 3500 
L 1178 3500 
L 1178 0 
L 603 0 
L 603 3500 
z
M 603 4863 
L 1178 4863 
L 1178 4134 
L 603 4134 
L 603 4863 
z
" transform="scale(0.015625)"/>
       <path id="DejaVuSans-62" d="M 3116 1747 
Q 3116 2381 2855 2742 
Q 2594 3103 2138 3103 
Q 1681 3103 1420 2742 
Q 1159 2381 1159 1747 
Q 1159 1113 1420 752 
Q 1681 391 2138 391 
Q 2594 391 2855 752 
Q 3116 1113 3116 1747 
z
M 1159 2969 
Q 1341 3281 1617 3432 
Q 1894 3584 2278 3584 
Q 2916 3584 3314 3078 
Q 3713 2572 3713 1747 
Q 3713 922 3314 415 
Q 2916 -91 2278 -91 
Q 1894 -91 1617 61 
Q 1341 213 1159 525 
L 1159 0 
L 581 0 
L 581 4863 
L 1159 4863 
L 1159 2969 
z
" transform="scale(0.015625)"/>
       <path id="DejaVuSans-6c" d="M 603 4863 
L 1178 4863 
L 1178 0 
L 603 0 
L 603 4863 
z
" transform="scale(0.015625)"/>
       <path id="DejaVuSans-65" d="M 3597 1894 
L 3597 1613 
L 953 1613 
Q 991 1019 1311 708 
Q 1631 397 2203 397 
Q 2534 397 2845 478 
Q 3156 559 3463 722 
L 3463 178 
Q 3153 47 2828 -22 
Q 2503 -91 2169 -91 
Q 1331 -91 842 396 
Q 353 884 353 1716 
Q 353 2575 817 3079 
Q 1281 3584 2069 3584 
Q 2775 3584 3186 3129 
Q 3597 2675 3597 1894 
z
M 3022 2063 
Q 3016 2534 2758 2815 
Q 2500 3097 2075 3097 
Q 1594 3097 1305 2825 
Q 1016 2553 972 2059 
L 3022 2063 
z
" transform="scale(0.015625)"/>
      </defs>
      <use xlink:href="#DejaVuSans-76"/>
      <use xlink:href="#DejaVuSans-61" x="59.179688"/>
      <use xlink:href="#DejaVuSans-72" x="120.458984"/>
      <use xlink:href="#DejaVuSans-69" x="161.572266"/>
      <use xlink:href="#DejaVuSans-61" x="189.355469"/>
      <use xlink:href="#DejaVuSans-62" x="250.634766"/>
      <use xlink:href="#DejaVuSans-6c" x="314.111328"/>
      <use xlink:href="#DejaVuSans-65" x="341.894531"/>
     </g>
    </g>
   </g>
   <g id="matplotlib.axis_2">
    <g id="ytick_1">
     <g id="line2d_5">
      <defs>
       <path id="mff95331eef" d="M 0 0 
L -3.5 0 
" style="stroke: #000000; stroke-width: 0.8"/>
      </defs>
      <g>
       <use xlink:href="#mff95331eef" x="54" y="252" style="stroke: #000000; stroke-width: 0.8"/>
      </g>
     </g>
     <g id="text_6">
      <!-- 0.001 -->
      <g transform="translate(18.371875 255.799219)scale(0.1 -0.1)">
       <defs>
        <path id="DejaVuSans-2e" d="M 684 794 
L 1344 794 
L 1344 0 
L 684 0 
L 684 794 
z
" transform="scale(0.015625)"/>
       </defs>
       <use xlink:href="#DejaVuSans-30"/>
       <use xlink:href="#DejaVuSans-2e" x="63.623047"/>
       <use xlink:href="#DejaVuSans-30" x="95.410156"/>
       <use xlink:href="#DejaVuSans-30" x="159.033203"/>
       <use xlink:href="#DejaVuSans-31" x="222.65625"/>
      </g>
     </g>
    </g>
    <g id="ytick_2">
     <g id="line2d_6">
      <g>
       <use xlink:href="#mff95331eef" x="54" y="225.482927" style="stroke: #000000; stroke-width: 0.8"/>
      </g>
     </g>
     <g id="text_7">
      <!-- 0.002 -->
      <g transform="translate(18.371875 229.282146)scale(0.1 -0.1)">
       <use xlink:href="#DejaVuSans-30"/>
       <use xlink:href="#DejaVuSans-2e" x="63.623047"/>
       <use xlink:href="#DejaVuSans-30" x="95.410156"/>
       <use xlink:href="#DejaVuSans-30" x="159.033203"/>
       <use xlink:href="#DejaVuSans-32" x="222.65625"/>
      </g>
     </g>
    </g>
    <g id="ytick_3">
     <g id="line2d_7">
      <g>
       <use xlink:href="#mff95331eef" x="54" y="198.965854" style="stroke: #000000; stroke-width: 0.8"/>
      </g>
     </g>
     <g id="text_8">
      <!-- 0.003 -->
      <g transform="translate(18.371875 202.765072)scale(0.1 -0.1)">
       <use xlink:href="#DejaVuSans-30"/>
       <use xlink:href="#DejaVuSans-2e" x="63.623047"/>
       <use xlink:href="#DejaVuSans-30" x="95.410156"/>
       <use xlink:href="#DejaVuSans-30" x="159.033203"/>
       <use xlink:href="#DejaVuSans-33" x="222.65625"/>
      </g>
     </g>
    </g>
    <g id="ytick_4">
     <g id="line2d_8">
      <g>
       <use xlink:href="#mff95331eef" x="54" y="172.44878" style="stroke: #000000; stroke-width: 0.8"/>
      </g>
     </g>
     <g id="text_9">
      <!-- 0.004 -->
      <g transform="translate(18.371875 176.247999)scale(0.1 -0.1)">
       <defs>
        <path id="DejaVuSans-34" d="M 2419 4116 
L 825 1625 
L 2419 1625 
L 2419 4116 
z
M 2253 4666 
L 3047 4666 
L 3047 1625 
L 3713 1625 
L 3713 1100 
L 3047 1100 
L 3047 0 
L 2419 0 
L 2419 1100 
L 313 1100 
L 313 1709 
L 2253 4666 
z
" transform="scale(0.015625)"/>
       </defs>
       <use xlink:href="#DejaVuSans-30"/>
       <use xlink:href="#DejaVuSans-2e" x="63.623047"/>
       <use xlink:href="#DejaVuSans-30" x="95.410156"/>
       <use xlink:href="#DejaVuSans-30" x="159.033203"/>
       <use xlink:href="#DejaVuSans-34" x="222.65625"/>
      </g>
     </g>
    </g>
    <g id="ytick_5">
     <g id="line2d_9">
      <g>
       <use xlink:href="#mff95331eef" x="54" y="145.931707" style="stroke: #000000; stroke-width: 0.8"/>
      </g>
     </g>
     <g id="text_10">
      <!-- 0.005 -->
      <g transform="translate(18.371875 149.730926)scale(0.1 -0.1)">
       <use xlink:href="#DejaVuSans-30"/>
       <use xlink:href="#DejaVuSans-2e" x="63.623047"/>
       <use xlink:href="#DejaVuSans-30" x="95.410156"/>
       <use xlink:href="#DejaVuSans-30" x="159.033203"/>
       <use xlink:href="#DejaVuSans-35" x="222.65625"/>
      </g>
     </g>
    </g>
    <g id="ytick_6">
     <g id="line2d_10">
      <g>
       <use xlink:href="#mff95331eef" x="54" y="119.414634" style="stroke: #000000; stroke-width: 0.8"/>
      </g>
     </g>
     <g id="text_11">
      <!-- 0.006 -->
      <g transform="translate(18.371875 123.213853)scale(0.1 -0.1)">
       <defs>
        <path id="DejaVuSans-36" d="M 2113 2584 
Q 1688 2584 1439 2293 
Q 1191 2003 1191 1497 
Q 1191 994 1439 701 
Q 1688 409 2113 409 
Q 2538 409 2786 701 
Q 3034 994 3034 1497 
Q 3034 2003 2786 2293 
Q 2538 2584 2113 2584 
z
M 3366 4563 
L 3366 3988 
Q 3128 4100 2886 4159 
Q 2644 4219 2406 4219 
Q 1781 4219 1451 3797 
Q 1122 3375 1075 2522 
Q 1259 2794 1537 2939 
Q 1816 3084 2150 3084 
Q 2853 3084 3261 2657 
Q 3669 2231 3669 1497 
Q 3669 778 3244 343 
Q 2819 -91 2113 -91 
Q 1303 -91 875 529 
Q 447 1150 447 2328 
Q 447 3434 972 4092 
Q 1497 4750 2381 4750 
Q 2619 4750 2861 4703 
Q 3103 4656 3366 4563 
z
" transform="scale(0.015625)"/>
       </defs>
       <use xlink:href="#DejaVuSans-30"/>
       <use xlink:href="#DejaVuSans-2e" x="63.623047"/>
       <use xlink:href="#DejaVuSans-30" x="95.410156"/>
       <use xlink:href="#DejaVuSans-30" x="159.033203"/>
       <use xlink:href="#DejaVuSans-36" x="222.65625"/>
      </g>
     </g>
    </g>
    <g id="ytick_7">
     <g id="line2d_11">
      <g>
       <use xlink:href="#mff95331eef" x="54" y="92.897561" style="stroke: #000000; stroke-width: 0.8"/>
      </g>
     </g>
     <g id="text_12">
      <!-- 0.007 -->
      <g transform="translate(18.371875 96.69678)scale(0.1 -0.1)">
       <defs>
        <path id="DejaVuSans-37" d="M 525 4666 
L 3525 4666 
L 3525 4397 
L 1831 0 
L 1172 0 
L 2766 4134 
L 525 4134 
L 525 4666 
z
" transform="scale(0.015625)"/>
       </defs>
       <use xlink:href="#DejaVuSans-30"/>
       <use xlink:href="#DejaVuSans-2e" x="63.623047"/>
       <use xlink:href="#DejaVuSans-30" x="95.410156"/>
       <use xlink:href="#DejaVuSans-30" x="159.033203"/>
       <use xlink:href="#DejaVuSans-37" x="222.65625"/>
      </g>
     </g>
    </g>
    <g id="ytick_8">
     <g id="line2d_12">
      <g>
       <use xlink:href="#mff95331eef" x="54" y="66.380488" style="stroke: #000000; stroke-width: 0.8"/>
      </g>
     </g>
     <g id="text_13">
      <!-- 0.008 -->
      <g transform="translate(18.371875 70.179707)scale(0.1 -0.1)">
       <defs>
        <path id="DejaVuSans-38" d="M 2034 2216 
Q 1584 2216 1326 1975 
Q 1069 1734 1069 1313 
Q 1069 891 1326 650 
Q 1584 409 2034 409 
Q 2484 409 2743 651 
Q 3003 894 3003 1313 
Q 3003 1734 2745 1975 
Q 2488 2216 2034 2216 
z
M 1403 2484 
Q 997 2584 770 2862 
Q 544 3141 544 3541 
Q 544 4100 942 4425 
Q 1341 4750 2034 4750 
Q 2731 4750 3128 4425 
Q 3525 4100 3525 3541 
Q 3525 3141 3298 2862 
Q 3072 2584 2669 2484 
Q 3125 2378 3379 2068 
Q 3634 1759 3634 1313 
Q 3634 634 3220 271 
Q 2806 -91 2034 -91 
Q 1263 -91 848 271 
Q 434 634 434 1313 
Q 434 1759 690 2068 
Q 947 2378 1403 2484 
z
M 1172 3481 
Q 1172 3119 1398 2916 
Q 1625 2713 2034 2713 
Q 2441 2713 2670 2916 
Q 2900 3119 2900 3481 
Q 2900 3844 2670 4047 
Q 2441 4250 2034 4250 
Q 1625 4250 1398 4047 
Q 1172 3844 1172 3481 
z
" transform="scale(0.015625)"/>
       </defs>
       <use xlink:href="#DejaVuSans-30"/>
       <use xlink:href="#DejaVuSans-2e" x="63.623047"/>
       <use xlink:href="#DejaVuSans-30" x="95.410156"/>
       <use xlink:href="#DejaVuSans-30" x="159.033203"/>
       <use xlink:href="#DejaVuSans-38" x="222.65625"/>
      </g>
     </g>
    </g>
    <g id="ytick_9">
     <g id="line2d_13">
      <g>
       <use xlink:href="#mff95331eef" x="54" y="39.863415" style="stroke: #000000; stroke-width: 0.8"/>
      </g>
     </g>
     <g id="text_14">
      <!-- 0.009 -->
      <g transform="translate(18.371875 43.662633)scale(0.1 -0.1)">
       <defs>
        <path id="DejaVuSans-39" d="M 703 97 
L 703 672 
Q 941 559 1184 500 
Q 1428 441 1663 441 
Q 2288 441 2617 861 
Q 2947 1281 2994 2138 
Q 2813 1869 2534 1725 
Q 2256 1581 1919 1581 
Q 1219 1581 811 2004 
Q 403 2428 403 3163 
Q 403 3881 828 4315 
Q 1253 4750 1959 4750 
Q 2769 4750 3195 4129 
Q 3622 3509 3622 2328 
Q 3622 1225 3098 567 
Q 2575 -91 1691 -91 
Q 1453 -91 1209 -44 
Q 966 3 703 97 
z
M 1959 2075 
Q 2384 2075 2632 2365 
Q 2881 2656 2881 3163 
Q 2881 3666 2632 3958 
Q 2384 4250 1959 4250 
Q 1534 4250 1286 3958 
Q 1038 3666 1038 3163 
Q 1038 2656 1286 2365 
Q 1534 2075 1959 2075 
z
" transform="scale(0.015625)"/>
       </defs>
       <use xlink:href="#DejaVuSans-30"/>
       <use xlink:href="#DejaVuSans-2e" x="63.623047"/>
       <use xlink:href="#DejaVuSans-30" x="95.410156"/>
       <use xlink:href="#DejaVuSans-30" x="159.033203"/>
       <use xlink:href="#DejaVuSans-39" x="222.65625"/>
      </g>
     </g>
    </g>
    <g id="text_15">
     <!-- value -->
     <g transform="translate(12.292187 156.937813)rotate(-90)scale(0.1 -0.1)">
      <defs>
       <path id="DejaVuSans-75" d="M 544 1381 
L 544 3500 
L 1119 3500 
L 1119 1403 
Q 1119 906 1312 657 
Q 1506 409 1894 409 
Q 2359 409 2629 706 
Q 2900 1003 2900 1516 
L 2900 3500 
L 3475 3500 
L 3475 0 
L 2900 0 
L 2900 538 
Q 2691 219 2414 64 
Q 2138 -91 1772 -91 
Q 1169 -91 856 284 
Q 544 659 544 1381 
z
M 1991 3584 
L 1991 3584 
z
" transform="scale(0.015625)"/>
      </defs>
      <use xlink:href="#DejaVuSans-76"/>
      <use xlink:href="#DejaVuSans-61" x="59.179688"/>
      <use xlink:href="#DejaVuSans-6c" x="120.458984"/>
      <use xlink:href="#DejaVuSans-75" x="148.242188"/>
      <use xlink:href="#DejaVuSans-65" x="211.621094"/>
     </g>
    </g>
   </g>
   <g id="line2d_14">
    <path d="M 95.85 142.433846 
L 95.85 127.506984 
" clip-path="url(#p5ae92b6ae0)" style="fill: none; stroke: #4d4d4d; stroke-width: 1.5; stroke-linecap: square"/>
   </g>
   <g id="line2d_15">
    <path d="M 95.85 138.287495 
L 95.85 133.456997 
" clip-path="url(#p5ae92b6ae0)" style="fill: none; stroke: #4d4d4d; stroke-width: 4.5; stroke-linecap: square"/>
   </g>
   <g id="line2d_16">
    <path d="M 179.55 145.856439 
L 179.55 120.829681 
" clip-path="url(#p5ae92b6ae0)" style="fill: none; stroke: #4d4d4d; stroke-width: 1.5; stroke-linecap: square"/>
   </g>
   <g id="line2d_17">
    <path d="M 179.55 139.129322 
L 179.55 131.32022 
" clip-path="url(#p5ae92b6ae0)" style="fill: none; stroke: #4d4d4d; stroke-width: 4.5; stroke-linecap: square"/>
   </g>
   <g id="line2d_18">
    <path d="M 263.25 152.902684 
L 263.25 118.078893 
" clip-path="url(#p5ae92b6ae0)" style="fill: none; stroke: #4d4d4d; stroke-width: 1.5; stroke-linecap: square"/>
   </g>
   <g id="line2d_19">
    <path d="M 263.25 140.880185 
L 263.25 130.308677 
" clip-path="url(#p5ae92b6ae0)" style="fill: none; stroke: #4d4d4d; stroke-width: 4.5; stroke-linecap: square"/>
   </g>
   <g id="line2d_20">
    <path d="M 346.95 143.069728 
L 346.95 130.674976 
" clip-path="url(#p5ae92b6ae0)" style="fill: none; stroke: #4d4d4d; stroke-width: 1.5; stroke-linecap: square"/>
   </g>
   <g id="line2d_21">
    <path d="M 346.95 138.516782 
L 346.95 134.646218 
" clip-path="url(#p5ae92b6ae0)" style="fill: none; stroke: #4d4d4d; stroke-width: 4.5; stroke-linecap: square"/>
   </g>
   <g id="patch_3">
    <path d="M 54 252 
L 54 34.56 
" style="fill: none; stroke: #000000; stroke-width: 0.8; stroke-linejoin: miter; stroke-linecap: square"/>
   </g>
   <g id="patch_4">
    <path d="M 388.8 252 
L 388.8 34.56 
" style="fill: none; stroke: #000000; stroke-width: 0.8; stroke-linejoin: miter; stroke-linecap: square"/>
   </g>
   <g id="patch_5">
    <path d="M 54 252 
L 388.8 252 
" style="fill: none; stroke: #000000; stroke-width: 0.8; stroke-linejoin: miter; stroke-linecap: square"/>
   </g>
   <g id="patch_6">
    <path d="M 54 34.56 
L 388.8 34.56 
" style="fill: none; stroke: #000000; stroke-width: 0.8; stroke-linejoin: miter; stroke-linecap: square"/>
   </g>
   <g id="PathCollection_1">
    <defs>
     <path id="me71abc25e8" d="M 0 1.5 
C 0.397805 1.5 0.77937 1.341951 1.06066 1.06066 
C 1.341951 0.77937 1.5 0.397805 1.5 0 
C 1.5 -0.397805 1.341951 -0.77937 1.06066 -1.06066 
C 0.77937 -1.341951 0.397805 -1.5 0 -1.5 
C -0.397805 -1.5 -0.77937 -1.341951 -1.06066 -1.06066 
C -1.341951 -0.77937 -1.5 -0.397805 -1.5 0 
C -1.5 0.397805 -1.341951 0.77937 -1.06066 1.06066 
C -0.77937 1.341951 -0.397805 1.5 0 1.5 
z
" style="stroke: #4d4d4d"/>
    </defs>
    <g clip-path="url(#p5ae92b6ae0)">
     <use xlink:href="#me71abc25e8" x="95.85" y="136.338711" style="fill: #ffffff; stroke: #4d4d4d"/>
    </g>
   </g>
   <g id="PathCollection_2">
    <g clip-path="url(#p5ae92b6ae0)">
     <use xlink:href="#me71abc25e8" x="179.55" y="136.259712" style="fill: #ffffff; stroke: #4d4d4d"/>
    </g>
   </g>
   <g id="PathCollection_3">
    <g clip-path="url(#p5ae92b6ae0)">
     <use xlink:href="#me71abc25e8" x="263.25" y="136.94178" style="fill: #ffffff; stroke: #4d4d4d"/>
    </g>
   </g>
   <g id="PathCollection_4">
    <g clip-path="url(#p5ae92b6ae0)">
     <use xlink:href="#me71abc25e8" x="346.95" y="135.932677" style="fill: #ffffff; stroke: #4d4d4d"/>
    </g>
   </g>
   <g id="PathCollection_5">
    <defs>
     <path id="m6d48ea6e97" d="M -0 5.656854 
L 5.656854 0 
L 0 -5.656854 
L -5.656854 -0 
z
" style="stroke: #4c4c4c"/>
    </defs>
    <g clip-path="url(#p5ae92b6ae0)">
     <use xlink:href="#m6d48ea6e97" x="95.85" y="122.697217" style="fill: #ff0000; stroke: #4c4c4c"/>
    </g>
   </g>
   <g id="PathCollection_6">
    <g clip-path="url(#p5ae92b6ae0)">
     <use xlink:href="#m6d48ea6e97" x="179.55" y="125.345788" style="fill: #ff0000; stroke: #4c4c4c"/>
    </g>
   </g>
   <g id="PathCollection_7">
    <g clip-path="url(#p5ae92b6ae0)">
     <use xlink:href="#m6d48ea6e97" x="263.25" y="127.613979" style="fill: #ff0000; stroke: #4c4c4c"/>
    </g>
   </g>
   <g id="PathCollection_8">
    <g clip-path="url(#p5ae92b6ae0)">
     <use xlink:href="#m6d48ea6e97" x="346.95" y="123.426059" style="fill: #ff0000; stroke: #4c4c4c"/>
    </g>
   </g>
   <g id="legend_1"/>
  </g>
 </g>
 <defs>
  <clipPath id="p5ae92b6ae0">
   <rect x="54" y="34.56" width="334.8" height="217.44"/>
  </clipPath>
 </defs>
</svg>
