<?xml version="1.0" encoding="utf-8" standalone="no"?>
<!DOCTYPE svg PUBLIC "-//W3C//DTD SVG 1.1//EN"
  "http://www.w3.org/Graphics/SVG/1.1/DTD/svg11.dtd">
<svg xmlns:xlink="http://www.w3.org/1999/xlink" width="432pt" height="288pt" viewBox="0 0 432 288" xmlns="http://www.w3.org/2000/svg" version="1.1">
 <metadata>
  <rdf:RDF xmlns:dc="http://purl.org/dc/elements/1.1/" xmlns:cc="http://creativecommons.org/ns#" xmlns:rdf="http://www.w3.org/1999/02/22-rdf-syntax-ns#">
   <cc:Work>
    <dc:type rdf:resource="http://purl.org/dc/dcmitype/StillImage"/>
    <dc:date>2023-01-26T20:14:49.749019</dc:date>
    <dc:format>image/svg+xml</dc:format>
    <dc:creator>
     <cc:Agent>
      <dc:title>Matplotlib v3.5.1, https://matplotlib.org/</dc:title>
     </cc:Agent>
    </dc:creator>
   </cc:Work>
  </rdf:RDF>
 </metadata>
 <defs>
  <style type="text/css">*{stroke-linejoin: round; stroke-linecap: butt}</style>
 </defs>
 <g id="figure_1">
  <g id="patch_1">
   <path d="M 0 288 
L 432 288 
L 432 0 
L 0 0 
L 0 288 
z
" style="fill: none"/>
  </g>
  <g id="axes_1">
   <g id="patch_2">
    <path d="M 54 252 
L 388.8 252 
L 388.8 34.56 
L 54 34.56 
z
" style="fill: #ffffff"/>
   </g>
   <g id="PolyCollection_1">
    <defs>
     <path id="m75359d608f" d="M 95.983595 -139.311657 
L 95.716405 -139.311657 
L 95.6653 -139.537532 
L 95.601407 -139.763407 
L 95.524168 -139.989282 
L 95.433942 -140.215157 
L 95.332162 -140.441032 
L 95.221376 -140.666907 
L 95.105105 -140.892782 
L 94.987543 -141.118657 
L 94.873115 -141.344532 
L 94.765965 -141.570407 
L 94.66946 -141.796282 
L 94.585806 -142.022157 
L 94.515828 -142.248032 
L 94.458918 -142.473907 
L 94.413128 -142.699782 
L 94.375288 -142.925657 
L 94.341067 -143.151532 
L 94.304856 -143.377407 
L 94.259458 -143.603282 
L 94.195602 -143.829157 
L 94.101408 -144.055032 
L 93.961968 -144.280907 
L 93.759239 -144.506782 
L 93.472408 -144.732657 
L 93.078822 -144.958532 
L 92.555476 -145.184407 
L 91.880949 -145.410282 
L 91.037587 -145.636157 
L 90.013686 -145.862032 
L 88.805412 -146.087907 
L 87.418197 -146.313782 
L 85.867446 -146.539657 
L 84.178402 -146.765532 
L 82.385153 -146.991407 
L 80.528792 -147.217282 
L 78.654862 -147.443157 
L 76.810264 -147.669032 
L 75.039893 -147.894907 
L 73.383324 -148.120782 
L 71.871883 -148.346657 
L 70.526443 -148.572532 
L 69.356203 -148.798407 
L 68.358636 -149.024282 
L 67.520607 -149.250157 
L 66.82056 -149.476032 
L 66.231497 -149.701907 
L 65.724395 -149.927782 
L 65.271666 -150.153657 
L 64.850258 -150.379532 
L 64.444074 -150.605407 
L 64.045472 -150.831283 
L 63.655732 -151.057158 
L 63.284495 -151.283033 
L 62.948292 -151.508908 
L 62.668367 -151.734783 
L 62.468057 -151.960658 
L 62.37 -152.186533 
L 62.393455 -152.412408 
L 62.551969 -152.638283 
L 62.851598 -152.864158 
L 63.289832 -153.090033 
L 63.855351 -153.315908 
L 64.528699 -153.541783 
L 65.283876 -153.767658 
L 66.090817 -153.993533 
L 66.918557 -154.219408 
L 67.738789 -154.445283 
L 68.529374 -154.671158 
L 69.277255 -154.897033 
L 69.9803 -155.122908 
L 70.647624 -155.348783 
L 71.298254 -155.574658 
L 71.958249 -155.800533 
L 72.65672 -156.026408 
L 73.421417 -156.252283 
L 74.274661 -156.478158 
L 75.230309 -156.704033 
L 76.292217 -156.929908 
L 77.454321 -157.155783 
L 78.702133 -157.381658 
L 80.015162 -157.607533 
L 81.369657 -157.833408 
L 82.741127 -158.059283 
L 84.106224 -158.285158 
L 85.443844 -158.511033 
L 86.735531 -158.736908 
L 87.965411 -158.962783 
L 89.11996 -159.188658 
L 90.187839 -159.414533 
L 91.15995 -159.640408 
L 92.029696 -159.866283 
L 92.793342 -160.092158 
L 93.450337 -160.318033 
L 94.00342 -160.543908 
L 94.458446 -160.769783 
L 94.823902 -160.995658 
L 95.110192 -161.221533 
L 95.328787 -161.447408 
L 95.491376 -161.673283 
L 96.208624 -161.673283 
L 96.208624 -161.673283 
L 96.371213 -161.447408 
L 96.589808 -161.221533 
L 96.876098 -160.995658 
L 97.241554 -160.769783 
L 97.69658 -160.543908 
L 98.249663 -160.318033 
L 98.906658 -160.092158 
L 99.670304 -159.866283 
L 100.54005 -159.640408 
L 101.512161 -159.414533 
L 102.58004 -159.188658 
L 103.734589 -158.962783 
L 104.964469 -158.736908 
L 106.256156 -158.511033 
L 107.593776 -158.285158 
L 108.958873 -158.059283 
L 110.330343 -157.833408 
L 111.684838 -157.607533 
L 112.997867 -157.381658 
L 114.245679 -157.155783 
L 115.407783 -156.929908 
L 116.469691 -156.704033 
L 117.425339 -156.478158 
L 118.278583 -156.252283 
L 119.04328 -156.026408 
L 119.741751 -155.800533 
L 120.401746 -155.574658 
L 121.052376 -155.348783 
L 121.7197 -155.122908 
L 122.422745 -154.897033 
L 123.170626 -154.671158 
L 123.961211 -154.445283 
L 124.781443 -154.219408 
L 125.609183 -153.993533 
L 126.416124 -153.767658 
L 127.171301 -153.541783 
L 127.844649 -153.315908 
L 128.410168 -153.090033 
L 128.848402 -152.864158 
L 129.148031 -152.638283 
L 129.306545 -152.412408 
L 129.33 -152.186533 
L 129.231943 -151.960658 
L 129.031633 -151.734783 
L 128.751708 -151.508908 
L 128.415505 -151.283033 
L 128.044268 -151.057158 
L 127.654528 -150.831283 
L 127.255926 -150.605407 
L 126.849742 -150.379532 
L 126.428334 -150.153657 
L 125.975605 -149.927782 
L 125.468503 -149.701907 
L 124.87944 -149.476032 
L 124.179393 -149.250157 
L 123.341364 -149.024282 
L 122.343797 -148.798407 
L 121.173557 -148.572532 
L 119.828117 -148.346657 
L 118.316676 -148.120782 
L 116.660107 -147.894907 
L 114.889736 -147.669032 
L 113.045138 -147.443157 
L 111.171208 -147.217282 
L 109.314847 -146.991407 
L 107.521598 -146.765532 
L 105.832554 -146.539657 
L 104.281803 -146.313782 
L 102.894588 -146.087907 
L 101.686314 -145.862032 
L 100.662413 -145.636157 
L 99.819051 -145.410282 
L 99.144524 -145.184407 
L 98.621178 -144.958532 
L 98.227592 -144.732657 
L 97.940761 -144.506782 
L 97.738032 -144.280907 
L 97.598592 -144.055032 
L 97.504398 -143.829157 
L 97.440542 -143.603282 
L 97.395144 -143.377407 
L 97.358933 -143.151532 
L 97.324712 -142.925657 
L 97.286872 -142.699782 
L 97.241082 -142.473907 
L 97.184172 -142.248032 
L 97.114194 -142.022157 
L 97.03054 -141.796282 
L 96.934035 -141.570407 
L 96.826885 -141.344532 
L 96.712457 -141.118657 
L 96.594895 -140.892782 
L 96.478624 -140.666907 
L 96.367838 -140.441032 
L 96.266058 -140.215157 
L 96.175832 -139.989282 
L 96.098593 -139.763407 
L 96.0347 -139.537532 
L 95.983595 -139.311657 
z
" style="stroke: #4d4d4d; stroke-width: 1.5"/>
    </defs>
    <g clip-path="url(#pe801d8d688)">
     <use xlink:href="#m75359d608f" x="0" y="288" style="fill: #808080; stroke: #4d4d4d; stroke-width: 1.5"/>
    </g>
   </g>
   <g id="PolyCollection_2">
    <defs>
     <path id="m513fb17c34" d="M 179.634705 -134.634936 
L 179.465295 -134.634936 
L 179.433492 -134.99465 
L 179.393067 -135.354364 
L 179.342834 -135.714078 
L 179.281729 -136.073793 
L 179.208841 -136.433507 
L 179.123399 -136.793221 
L 179.024699 -137.152935 
L 178.911978 -137.51265 
L 178.784244 -137.872364 
L 178.640079 -138.232078 
L 178.477453 -138.591792 
L 178.293588 -138.951507 
L 178.084892 -139.311221 
L 177.847014 -139.670935 
L 177.574994 -140.030649 
L 177.263522 -140.390364 
L 176.907259 -140.750078 
L 176.501181 -141.109792 
L 176.040887 -141.469506 
L 175.522846 -141.829221 
L 174.944542 -142.188935 
L 174.304519 -142.548649 
L 173.602365 -142.908363 
L 172.838675 -143.268078 
L 172.015063 -143.627792 
L 171.134274 -143.987506 
L 170.20044 -144.34722 
L 169.219444 -144.706935 
L 168.199361 -145.066649 
L 167.150835 -145.426363 
L 166.087289 -145.786077 
L 165.024804 -146.145792 
L 163.981621 -146.505506 
L 162.977224 -146.86522 
L 162.031102 -147.224934 
L 161.161344 -147.584649 
L 160.383295 -147.944363 
L 159.708482 -148.304077 
L 159.144003 -148.663791 
L 158.692466 -149.023506 
L 158.352455 -149.38322 
L 158.119431 -149.742934 
L 157.986837 -150.102648 
L 157.947233 -150.462363 
L 157.993233 -150.822077 
L 158.118121 -151.181791 
L 158.316106 -151.541505 
L 158.582224 -151.90122 
L 158.912 -152.260934 
L 159.300987 -152.620648 
L 159.744299 -152.980362 
L 160.23624 -153.340077 
L 160.770085 -153.699791 
L 161.338021 -154.059505 
L 161.931248 -154.419219 
L 162.540213 -154.778934 
L 163.154942 -155.138648 
L 163.765474 -155.498362 
L 164.362362 -155.858076 
L 164.937234 -156.217791 
L 165.483372 -156.577505 
L 165.996252 -156.937219 
L 166.47396 -157.296933 
L 166.917393 -157.656648 
L 167.330181 -158.016362 
L 167.71828 -158.376076 
L 168.08926 -158.73579 
L 168.451384 -159.095505 
L 168.812586 -159.455219 
L 169.179543 -159.814933 
L 169.556972 -160.174647 
L 169.947287 -160.534362 
L 170.350646 -160.894076 
L 170.765366 -161.25379 
L 171.188596 -161.613504 
L 171.617108 -161.973219 
L 172.048025 -162.332933 
L 172.479354 -162.692647 
L 172.910229 -163.052361 
L 173.34084 -163.412076 
L 173.772074 -163.77179 
L 174.204985 -164.131504 
L 174.640184 -164.491218 
L 175.077309 -164.850933 
L 175.514654 -165.210647 
L 175.949039 -165.570361 
L 176.375939 -165.930076 
L 176.78983 -166.28979 
L 177.184717 -166.649504 
L 177.554718 -167.009218 
L 177.89465 -167.368933 
L 178.200496 -167.728647 
L 178.469733 -168.088361 
L 178.701463 -168.448075 
L 178.896364 -168.80779 
L 179.056486 -169.167504 
L 179.184946 -169.527218 
L 179.285557 -169.886932 
L 179.362474 -170.246647 
L 179.737526 -170.246647 
L 179.737526 -170.246647 
L 179.814443 -169.886932 
L 179.915054 -169.527218 
L 180.043514 -169.167504 
L 180.203636 -168.80779 
L 180.398537 -168.448075 
L 180.630267 -168.088361 
L 180.899504 -167.728647 
L 181.20535 -167.368933 
L 181.545282 -167.009218 
L 181.915283 -166.649504 
L 182.31017 -166.28979 
L 182.724061 -165.930076 
L 183.150961 -165.570361 
L 183.585346 -165.210647 
L 184.022691 -164.850933 
L 184.459816 -164.491218 
L 184.895015 -164.131504 
L 185.327926 -163.77179 
L 185.75916 -163.412076 
L 186.189771 -163.052361 
L 186.620646 -162.692647 
L 187.051975 -162.332933 
L 187.482892 -161.973219 
L 187.911404 -161.613504 
L 188.334634 -161.25379 
L 188.749354 -160.894076 
L 189.152713 -160.534362 
L 189.543028 -160.174647 
L 189.920457 -159.814933 
L 190.287414 -159.455219 
L 190.648616 -159.095505 
L 191.01074 -158.73579 
L 191.38172 -158.376076 
L 191.769819 -158.016362 
L 192.182607 -157.656648 
L 192.62604 -157.296933 
L 193.103748 -156.937219 
L 193.616628 -156.577505 
L 194.162766 -156.217791 
L 194.737638 -155.858076 
L 195.334526 -155.498362 
L 195.945058 -155.138648 
L 196.559787 -154.778934 
L 197.168752 -154.419219 
L 197.761979 -154.059505 
L 198.329915 -153.699791 
L 198.86376 -153.340077 
L 199.355701 -152.980362 
L 199.799013 -152.620648 
L 200.188 -152.260934 
L 200.517776 -151.90122 
L 200.783894 -151.541505 
L 200.981879 -151.181791 
L 201.106767 -150.822077 
L 201.152767 -150.462363 
L 201.113163 -150.102648 
L 200.980569 -149.742934 
L 200.747545 -149.38322 
L 200.407534 -149.023506 
L 199.955997 -148.663791 
L 199.391518 -148.304077 
L 198.716705 -147.944363 
L 197.938656 -147.584649 
L 197.068898 -147.224934 
L 196.122776 -146.86522 
L 195.118379 -146.505506 
L 194.075196 -146.145792 
L 193.012711 -145.786077 
L 191.949165 -145.426363 
L 190.900639 -145.066649 
L 189.880556 -144.706935 
L 188.89956 -144.34722 
L 187.965726 -143.987506 
L 187.084937 -143.627792 
L 186.261325 -143.268078 
L 185.497635 -142.908363 
L 184.795481 -142.548649 
L 184.155458 -142.188935 
L 183.577154 -141.829221 
L 183.059113 -141.469506 
L 182.598819 -141.109792 
L 182.192741 -140.750078 
L 181.836478 -140.390364 
L 181.525006 -140.030649 
L 181.252986 -139.670935 
L 181.015108 -139.311221 
L 180.806412 -138.951507 
L 180.622547 -138.591792 
L 180.459921 -138.232078 
L 180.315756 -137.872364 
L 180.188022 -137.51265 
L 180.075301 -137.152935 
L 179.976601 -136.793221 
L 179.891159 -136.433507 
L 179.818271 -136.073793 
L 179.757166 -135.714078 
L 179.706933 -135.354364 
L 179.666508 -134.99465 
L 179.634705 -134.634936 
z
" style="stroke: #4d4d4d; stroke-width: 1.5"/>
    </defs>
    <g clip-path="url(#pe801d8d688)">
     <use xlink:href="#m513fb17c34" x="0" y="288" style="fill: #808080; stroke: #4d4d4d; stroke-width: 1.5"/>
    </g>
   </g>
   <g id="PolyCollection_3">
    <defs>
     <path id="m472323bef6" d="M 263.339975 -125.096045 
L 263.160025 -125.096045 
L 263.12035 -125.694468 
L 263.067196 -126.292891 
L 262.997724 -126.891313 
L 262.909149 -127.489736 
L 262.798994 -128.088159 
L 262.665387 -128.686582 
L 262.507352 -129.285005 
L 262.325077 -129.883428 
L 262.120087 -130.481851 
L 261.89529 -131.080274 
L 261.654852 -131.678697 
L 261.403888 -132.27712 
L 261.147993 -132.875543 
L 260.892636 -133.473966 
L 260.642512 -134.072389 
L 260.400925 -134.670812 
L 260.169304 -135.269235 
L 259.946926 -135.867658 
L 259.730913 -136.466081 
L 259.516495 -137.064504 
L 259.297536 -137.662927 
L 259.067243 -138.26135 
L 258.818977 -138.859773 
L 258.547058 -139.458196 
L 258.247463 -140.056619 
L 257.918334 -140.655042 
L 257.560222 -141.253465 
L 257.17604 -141.851887 
L 256.770731 -142.45031 
L 256.350669 -143.048733 
L 255.922893 -143.647156 
L 255.494249 -144.245579 
L 255.070568 -144.844002 
L 254.656007 -145.442425 
L 254.252646 -146.040848 
L 253.860424 -146.639271 
L 253.477412 -147.237694 
L 253.100419 -147.836117 
L 252.725811 -148.43454 
L 252.350454 -149.032963 
L 251.972631 -149.631386 
L 251.592806 -150.229809 
L 251.214156 -150.828232 
L 250.84278 -151.426655 
L 250.487599 -152.025078 
L 250.159917 -152.623501 
L 249.872717 -153.221924 
L 249.639724 -153.820347 
L 249.474325 -154.41877 
L 249.388424 -155.017193 
L 249.39135 -155.615616 
L 249.488924 -156.214039 
L 249.68279 -156.812462 
L 249.970116 -157.410884 
L 250.343688 -158.009307 
L 250.792425 -158.60773 
L 251.30224 -159.206153 
L 251.857142 -159.804576 
L 252.440445 -160.402999 
L 253.035951 -161.001422 
L 253.628972 -161.599845 
L 254.207123 -162.198268 
L 254.760842 -162.796691 
L 255.283647 -163.395114 
L 255.772143 -163.993537 
L 256.225838 -164.59196 
L 256.646789 -165.190383 
L 257.039102 -165.788806 
L 257.408335 -166.387229 
L 257.760792 -166.985652 
L 258.102796 -167.584075 
L 258.439956 -168.182498 
L 258.776528 -168.780921 
L 259.114944 -169.379344 
L 259.455566 -169.977767 
L 259.796713 -170.57619 
L 260.134954 -171.174613 
L 260.465633 -171.773036 
L 260.783531 -172.371458 
L 261.083571 -172.969881 
L 261.361456 -173.568304 
L 261.614138 -174.166727 
L 261.840077 -174.76515 
L 262.039253 -175.363573 
L 262.212978 -175.961996 
L 262.363545 -176.560419 
L 262.493809 -177.158842 
L 262.606768 -177.757265 
L 262.705217 -178.355688 
L 262.791512 -178.954111 
L 262.86747 -179.552534 
L 262.934373 -180.150957 
L 262.993067 -180.74938 
L 263.044101 -181.347803 
L 263.087878 -181.946226 
L 263.124783 -182.544649 
L 263.15526 -183.143072 
L 263.179861 -183.741495 
L 263.199236 -184.339918 
L 263.300764 -184.339918 
L 263.300764 -184.339918 
L 263.320139 -183.741495 
L 263.34474 -183.143072 
L 263.375217 -182.544649 
L 263.412122 -181.946226 
L 263.455899 -181.347803 
L 263.506933 -180.74938 
L 263.565627 -180.150957 
L 263.63253 -179.552534 
L 263.708488 -178.954111 
L 263.794783 -178.355688 
L 263.893232 -177.757265 
L 264.006191 -177.158842 
L 264.136455 -176.560419 
L 264.287022 -175.961996 
L 264.460747 -175.363573 
L 264.659923 -174.76515 
L 264.885862 -174.166727 
L 265.138544 -173.568304 
L 265.416429 -172.969881 
L 265.716469 -172.371458 
L 266.034367 -171.773036 
L 266.365046 -171.174613 
L 266.703287 -170.57619 
L 267.044434 -169.977767 
L 267.385056 -169.379344 
L 267.723472 -168.780921 
L 268.060044 -168.182498 
L 268.397204 -167.584075 
L 268.739208 -166.985652 
L 269.091665 -166.387229 
L 269.460898 -165.788806 
L 269.853211 -165.190383 
L 270.274162 -164.59196 
L 270.727857 -163.993537 
L 271.216353 -163.395114 
L 271.739158 -162.796691 
L 272.292877 -162.198268 
L 272.871028 -161.599845 
L 273.464049 -161.001422 
L 274.059555 -160.402999 
L 274.642858 -159.804576 
L 275.19776 -159.206153 
L 275.707575 -158.60773 
L 276.156312 -158.009307 
L 276.529884 -157.410884 
L 276.81721 -156.812462 
L 277.011076 -156.214039 
L 277.10865 -155.615616 
L 277.111576 -155.017193 
L 277.025675 -154.41877 
L 276.860276 -153.820347 
L 276.627283 -153.221924 
L 276.340083 -152.623501 
L 276.012401 -152.025078 
L 275.65722 -151.426655 
L 275.285844 -150.828232 
L 274.907194 -150.229809 
L 274.527369 -149.631386 
L 274.149546 -149.032963 
L 273.774189 -148.43454 
L 273.399581 -147.836117 
L 273.022588 -147.237694 
L 272.639576 -146.639271 
L 272.247354 -146.040848 
L 271.843993 -145.442425 
L 271.429432 -144.844002 
L 271.005751 -144.245579 
L 270.577107 -143.647156 
L 270.149331 -143.048733 
L 269.729269 -142.45031 
L 269.32396 -141.851887 
L 268.939778 -141.253465 
L 268.581666 -140.655042 
L 268.252537 -140.056619 
L 267.952942 -139.458196 
L 267.681023 -138.859773 
L 267.432757 -138.26135 
L 267.202464 -137.662927 
L 266.983505 -137.064504 
L 266.769087 -136.466081 
L 266.553074 -135.867658 
L 266.330696 -135.269235 
L 266.099075 -134.670812 
L 265.857488 -134.072389 
L 265.607364 -133.473966 
L 265.352007 -132.875543 
L 265.096112 -132.27712 
L 264.845148 -131.678697 
L 264.60471 -131.080274 
L 264.379913 -130.481851 
L 264.174923 -129.883428 
L 263.992648 -129.285005 
L 263.834613 -128.686582 
L 263.701006 -128.088159 
L 263.590851 -127.489736 
L 263.502276 -126.891313 
L 263.432804 -126.292891 
L 263.37965 -125.694468 
L 263.339975 -125.096045 
z
" style="stroke: #4d4d4d; stroke-width: 1.5"/>
    </defs>
    <g clip-path="url(#pe801d8d688)">
     <use xlink:href="#m472323bef6" x="0" y="288" style="fill: #808080; stroke: #4d4d4d; stroke-width: 1.5"/>
    </g>
   </g>
   <g id="PolyCollection_4">
    <defs>
     <path id="m70f5250540" d="M 347.056284 -132.988755 
L 346.843716 -132.988755 
L 346.796756 -133.44436 
L 346.733272 -133.899965 
L 346.649189 -134.35557 
L 346.540031 -134.811174 
L 346.401065 -135.266779 
L 346.227485 -135.722384 
L 346.014662 -136.177989 
L 345.758399 -136.633594 
L 345.455218 -137.089199 
L 345.102616 -137.544804 
L 344.699282 -138.000409 
L 344.245231 -138.456013 
L 343.74184 -138.911618 
L 343.191748 -139.367223 
L 342.598645 -139.822828 
L 341.966937 -140.278433 
L 341.301374 -140.734038 
L 340.606667 -141.189643 
L 339.887212 -141.645247 
L 339.146979 -142.100852 
L 338.389633 -142.556457 
L 337.618918 -143.012062 
L 336.839243 -143.467667 
L 336.056403 -143.923272 
L 335.278273 -144.378877 
L 334.515301 -144.834482 
L 333.780629 -145.290086 
L 333.089704 -145.745691 
L 332.459339 -146.201296 
L 331.906242 -146.656901 
L 331.445203 -147.112506 
L 331.087173 -147.568111 
L 330.837557 -148.023716 
L 330.695043 -148.479321 
L 330.651252 -148.934925 
L 330.691345 -149.39053 
L 330.795607 -149.846135 
L 330.941828 -150.30174 
L 331.108132 -150.757345 
L 331.275841 -151.21295 
L 331.431869 -151.668555 
L 331.570256 -152.12416 
L 331.692556 -152.579764 
L 331.807019 -153.035369 
L 331.926716 -153.490974 
L 332.066949 -153.946579 
L 332.242417 -154.402184 
L 332.464644 -154.857789 
L 332.740092 -155.313394 
L 333.069249 -155.768999 
L 333.446783 -156.224603 
L 333.862627 -156.680208 
L 334.303735 -157.135813 
L 334.756123 -157.591418 
L 335.206816 -158.047023 
L 335.64538 -158.502628 
L 336.064859 -158.958233 
L 336.462044 -159.413838 
L 336.837185 -159.869442 
L 337.193305 -160.325047 
L 337.535328 -160.780652 
L 337.869216 -161.236257 
L 338.201252 -161.691862 
L 338.537507 -162.147467 
L 338.88349 -162.603072 
L 339.243905 -163.058677 
L 339.622444 -163.514281 
L 340.021554 -163.969886 
L 340.442183 -164.425491 
L 340.883509 -164.881096 
L 341.342755 -165.336701 
L 341.815132 -165.792306 
L 342.293994 -166.247911 
L 342.771234 -166.703516 
L 343.237876 -167.15912 
L 343.68483 -167.614725 
L 344.103689 -168.07033 
L 344.487473 -168.525935 
L 344.831214 -168.98154 
L 345.132309 -169.437145 
L 345.390604 -169.89275 
L 345.608211 -170.348355 
L 345.789093 -170.803959 
L 345.938496 -171.259564 
L 346.062299 -171.715169 
L 346.166382 -172.170774 
L 346.25608 -172.626379 
L 346.335788 -173.081984 
L 346.408747 -173.537589 
L 346.477005 -173.993194 
L 346.541538 -174.448798 
L 346.602484 -174.904403 
L 346.659424 -175.360008 
L 346.71168 -175.815613 
L 346.758565 -176.271218 
L 346.799567 -176.726823 
L 346.834457 -177.182428 
L 346.863315 -177.638033 
L 346.886508 -178.093637 
L 347.013492 -178.093637 
L 347.013492 -178.093637 
L 347.036685 -177.638033 
L 347.065543 -177.182428 
L 347.100433 -176.726823 
L 347.141435 -176.271218 
L 347.18832 -175.815613 
L 347.240576 -175.360008 
L 347.297516 -174.904403 
L 347.358462 -174.448798 
L 347.422995 -173.993194 
L 347.491253 -173.537589 
L 347.564212 -173.081984 
L 347.64392 -172.626379 
L 347.733618 -172.170774 
L 347.837701 -171.715169 
L 347.961504 -171.259564 
L 348.110907 -170.803959 
L 348.291789 -170.348355 
L 348.509396 -169.89275 
L 348.767691 -169.437145 
L 349.068786 -168.98154 
L 349.412527 -168.525935 
L 349.796311 -168.07033 
L 350.21517 -167.614725 
L 350.662124 -167.15912 
L 351.128766 -166.703516 
L 351.606006 -166.247911 
L 352.084868 -165.792306 
L 352.557245 -165.336701 
L 353.016491 -164.881096 
L 353.457817 -164.425491 
L 353.878446 -163.969886 
L 354.277556 -163.514281 
L 354.656095 -163.058677 
L 355.01651 -162.603072 
L 355.362493 -162.147467 
L 355.698748 -161.691862 
L 356.030784 -161.236257 
L 356.364672 -160.780652 
L 356.706695 -160.325047 
L 357.062815 -159.869442 
L 357.437956 -159.413838 
L 357.835141 -158.958233 
L 358.25462 -158.502628 
L 358.693184 -158.047023 
L 359.143877 -157.591418 
L 359.596265 -157.135813 
L 360.037373 -156.680208 
L 360.453217 -156.224603 
L 360.830751 -155.768999 
L 361.159908 -155.313394 
L 361.435356 -154.857789 
L 361.657583 -154.402184 
L 361.833051 -153.946579 
L 361.973284 -153.490974 
L 362.092981 -153.035369 
L 362.207444 -152.579764 
L 362.329744 -152.12416 
L 362.468131 -151.668555 
L 362.624159 -151.21295 
L 362.791868 -150.757345 
L 362.958172 -150.30174 
L 363.104393 -149.846135 
L 363.208655 -149.39053 
L 363.248748 -148.934925 
L 363.204957 -148.479321 
L 363.062443 -148.023716 
L 362.812827 -147.568111 
L 362.454797 -147.112506 
L 361.993758 -146.656901 
L 361.440661 -146.201296 
L 360.810296 -145.745691 
L 360.119371 -145.290086 
L 359.384699 -144.834482 
L 358.621727 -144.378877 
L 357.843597 -143.923272 
L 357.060757 -143.467667 
L 356.281082 -143.012062 
L 355.510367 -142.556457 
L 354.753021 -142.100852 
L 354.012788 -141.645247 
L 353.293333 -141.189643 
L 352.598626 -140.734038 
L 351.933063 -140.278433 
L 351.301355 -139.822828 
L 350.708252 -139.367223 
L 350.15816 -138.911618 
L 349.654769 -138.456013 
L 349.200718 -138.000409 
L 348.797384 -137.544804 
L 348.444782 -137.089199 
L 348.141601 -136.633594 
L 347.885338 -136.177989 
L 347.672515 -135.722384 
L 347.498935 -135.266779 
L 347.359969 -134.811174 
L 347.250811 -134.35557 
L 347.166728 -133.899965 
L 347.103244 -133.44436 
L 347.056284 -132.988755 
z
" style="stroke: #4d4d4d; stroke-width: 1.5"/>
    </defs>
    <g clip-path="url(#pe801d8d688)">
     <use xlink:href="#m70f5250540" x="0" y="288" style="fill: #808080; stroke: #4d4d4d; stroke-width: 1.5"/>
    </g>
   </g>
   <g id="matplotlib.axis_1">
    <g id="xtick_1">
     <g id="line2d_1">
      <defs>
       <path id="m57b3000db7" d="M 0 0 
L 0 3.5 
" style="stroke: #000000; stroke-width: 0.8"/>
      </defs>
      <g>
       <use xlink:href="#m57b3000db7" x="95.85" y="252" style="stroke: #000000; stroke-width: 0.8"/>
      </g>
     </g>
     <g id="text_1">
      <!-- CREB1_20 -->
      <g transform="translate(70.250781 266.421875)scale(0.1 -0.1)">
       <defs>
        <path id="DejaVuSans-43" d="M 4122 4306 
L 4122 3641 
Q 3803 3938 3442 4084 
Q 3081 4231 2675 4231 
Q 1875 4231 1450 3742 
Q 1025 3253 1025 2328 
Q 1025 1406 1450 917 
Q 1875 428 2675 428 
Q 3081 428 3442 575 
Q 3803 722 4122 1019 
L 4122 359 
Q 3791 134 3420 21 
Q 3050 -91 2638 -91 
Q 1578 -91 968 557 
Q 359 1206 359 2328 
Q 359 3453 968 4101 
Q 1578 4750 2638 4750 
Q 3056 4750 3426 4639 
Q 3797 4528 4122 4306 
z
" transform="scale(0.015625)"/>
        <path id="DejaVuSans-52" d="M 2841 2188 
Q 3044 2119 3236 1894 
Q 3428 1669 3622 1275 
L 4263 0 
L 3584 0 
L 2988 1197 
Q 2756 1666 2539 1819 
Q 2322 1972 1947 1972 
L 1259 1972 
L 1259 0 
L 628 0 
L 628 4666 
L 2053 4666 
Q 2853 4666 3247 4331 
Q 3641 3997 3641 3322 
Q 3641 2881 3436 2590 
Q 3231 2300 2841 2188 
z
M 1259 4147 
L 1259 2491 
L 2053 2491 
Q 2509 2491 2742 2702 
Q 2975 2913 2975 3322 
Q 2975 3731 2742 3939 
Q 2509 4147 2053 4147 
L 1259 4147 
z
" transform="scale(0.015625)"/>
        <path id="DejaVuSans-45" d="M 628 4666 
L 3578 4666 
L 3578 4134 
L 1259 4134 
L 1259 2753 
L 3481 2753 
L 3481 2222 
L 1259 2222 
L 1259 531 
L 3634 531 
L 3634 0 
L 628 0 
L 628 4666 
z
" transform="scale(0.015625)"/>
        <path id="DejaVuSans-42" d="M 1259 2228 
L 1259 519 
L 2272 519 
Q 2781 519 3026 730 
Q 3272 941 3272 1375 
Q 3272 1813 3026 2020 
Q 2781 2228 2272 2228 
L 1259 2228 
z
M 1259 4147 
L 1259 2741 
L 2194 2741 
Q 2656 2741 2882 2914 
Q 3109 3088 3109 3444 
Q 3109 3797 2882 3972 
Q 2656 4147 2194 4147 
L 1259 4147 
z
M 628 4666 
L 2241 4666 
Q 2963 4666 3353 4366 
Q 3744 4066 3744 3513 
Q 3744 3084 3544 2831 
Q 3344 2578 2956 2516 
Q 3422 2416 3680 2098 
Q 3938 1781 3938 1306 
Q 3938 681 3513 340 
Q 3088 0 2303 0 
L 628 0 
L 628 4666 
z
" transform="scale(0.015625)"/>
        <path id="DejaVuSans-31" d="M 794 531 
L 1825 531 
L 1825 4091 
L 703 3866 
L 703 4441 
L 1819 4666 
L 2450 4666 
L 2450 531 
L 3481 531 
L 3481 0 
L 794 0 
L 794 531 
z
" transform="scale(0.015625)"/>
        <path id="DejaVuSans-5f" d="M 3263 -1063 
L 3263 -1509 
L -63 -1509 
L -63 -1063 
L 3263 -1063 
z
" transform="scale(0.015625)"/>
        <path id="DejaVuSans-32" d="M 1228 531 
L 3431 531 
L 3431 0 
L 469 0 
L 469 531 
Q 828 903 1448 1529 
Q 2069 2156 2228 2338 
Q 2531 2678 2651 2914 
Q 2772 3150 2772 3378 
Q 2772 3750 2511 3984 
Q 2250 4219 1831 4219 
Q 1534 4219 1204 4116 
Q 875 4013 500 3803 
L 500 4441 
Q 881 4594 1212 4672 
Q 1544 4750 1819 4750 
Q 2544 4750 2975 4387 
Q 3406 4025 3406 3419 
Q 3406 3131 3298 2873 
Q 3191 2616 2906 2266 
Q 2828 2175 2409 1742 
Q 1991 1309 1228 531 
z
" transform="scale(0.015625)"/>
        <path id="DejaVuSans-30" d="M 2034 4250 
Q 1547 4250 1301 3770 
Q 1056 3291 1056 2328 
Q 1056 1369 1301 889 
Q 1547 409 2034 409 
Q 2525 409 2770 889 
Q 3016 1369 3016 2328 
Q 3016 3291 2770 3770 
Q 2525 4250 2034 4250 
z
M 2034 4750 
Q 2819 4750 3233 4129 
Q 3647 3509 3647 2328 
Q 3647 1150 3233 529 
Q 2819 -91 2034 -91 
Q 1250 -91 836 529 
Q 422 1150 422 2328 
Q 422 3509 836 4129 
Q 1250 4750 2034 4750 
z
" transform="scale(0.015625)"/>
       </defs>
       <use xlink:href="#DejaVuSans-43"/>
       <use xlink:href="#DejaVuSans-52" x="69.824219"/>
       <use xlink:href="#DejaVuSans-45" x="139.306641"/>
       <use xlink:href="#DejaVuSans-42" x="202.490234"/>
       <use xlink:href="#DejaVuSans-31" x="271.09375"/>
       <use xlink:href="#DejaVuSans-5f" x="334.716797"/>
       <use xlink:href="#DejaVuSans-32" x="384.716797"/>
       <use xlink:href="#DejaVuSans-30" x="448.339844"/>
      </g>
     </g>
    </g>
    <g id="xtick_2">
     <g id="line2d_2">
      <g>
       <use xlink:href="#m57b3000db7" x="179.55" y="252" style="stroke: #000000; stroke-width: 0.8"/>
      </g>
     </g>
     <g id="text_2">
      <!-- CREB1_25 -->
      <g transform="translate(153.950781 266.421875)scale(0.1 -0.1)">
       <defs>
        <path id="DejaVuSans-35" d="M 691 4666 
L 3169 4666 
L 3169 4134 
L 1269 4134 
L 1269 2991 
Q 1406 3038 1543 3061 
Q 1681 3084 1819 3084 
Q 2600 3084 3056 2656 
Q 3513 2228 3513 1497 
Q 3513 744 3044 326 
Q 2575 -91 1722 -91 
Q 1428 -91 1123 -41 
Q 819 9 494 109 
L 494 744 
Q 775 591 1075 516 
Q 1375 441 1709 441 
Q 2250 441 2565 725 
Q 2881 1009 2881 1497 
Q 2881 1984 2565 2268 
Q 2250 2553 1709 2553 
Q 1456 2553 1204 2497 
Q 953 2441 691 2322 
L 691 4666 
z
" transform="scale(0.015625)"/>
       </defs>
       <use xlink:href="#DejaVuSans-43"/>
       <use xlink:href="#DejaVuSans-52" x="69.824219"/>
       <use xlink:href="#DejaVuSans-45" x="139.306641"/>
       <use xlink:href="#DejaVuSans-42" x="202.490234"/>
       <use xlink:href="#DejaVuSans-31" x="271.09375"/>
       <use xlink:href="#DejaVuSans-5f" x="334.716797"/>
       <use xlink:href="#DejaVuSans-32" x="384.716797"/>
       <use xlink:href="#DejaVuSans-35" x="448.339844"/>
      </g>
     </g>
    </g>
    <g id="xtick_3">
     <g id="line2d_3">
      <g>
       <use xlink:href="#m57b3000db7" x="263.25" y="252" style="stroke: #000000; stroke-width: 0.8"/>
      </g>
     </g>
     <g id="text_3">
      <!-- CREB1_30 -->
      <g transform="translate(237.650781 266.421875)scale(0.1 -0.1)">
       <defs>
        <path id="DejaVuSans-33" d="M 2597 2516 
Q 3050 2419 3304 2112 
Q 3559 1806 3559 1356 
Q 3559 666 3084 287 
Q 2609 -91 1734 -91 
Q 1441 -91 1130 -33 
Q 819 25 488 141 
L 488 750 
Q 750 597 1062 519 
Q 1375 441 1716 441 
Q 2309 441 2620 675 
Q 2931 909 2931 1356 
Q 2931 1769 2642 2001 
Q 2353 2234 1838 2234 
L 1294 2234 
L 1294 2753 
L 1863 2753 
Q 2328 2753 2575 2939 
Q 2822 3125 2822 3475 
Q 2822 3834 2567 4026 
Q 2313 4219 1838 4219 
Q 1578 4219 1281 4162 
Q 984 4106 628 3988 
L 628 4550 
Q 988 4650 1302 4700 
Q 1616 4750 1894 4750 
Q 2613 4750 3031 4423 
Q 3450 4097 3450 3541 
Q 3450 3153 3228 2886 
Q 3006 2619 2597 2516 
z
" transform="scale(0.015625)"/>
       </defs>
       <use xlink:href="#DejaVuSans-43"/>
       <use xlink:href="#DejaVuSans-52" x="69.824219"/>
       <use xlink:href="#DejaVuSans-45" x="139.306641"/>
       <use xlink:href="#DejaVuSans-42" x="202.490234"/>
       <use xlink:href="#DejaVuSans-31" x="271.09375"/>
       <use xlink:href="#DejaVuSans-5f" x="334.716797"/>
       <use xlink:href="#DejaVuSans-33" x="384.716797"/>
       <use xlink:href="#DejaVuSans-30" x="448.339844"/>
      </g>
     </g>
    </g>
    <g id="xtick_4">
     <g id="line2d_4">
      <g>
       <use xlink:href="#m57b3000db7" x="346.95" y="252" style="stroke: #000000; stroke-width: 0.8"/>
      </g>
     </g>
     <g id="text_4">
      <!-- CREB1_pwm -->
      <g transform="translate(315.579688 266.421875)scale(0.1 -0.1)">
       <defs>
        <path id="DejaVuSans-70" d="M 1159 525 
L 1159 -1331 
L 581 -1331 
L 581 3500 
L 1159 3500 
L 1159 2969 
Q 1341 3281 1617 3432 
Q 1894 3584 2278 3584 
Q 2916 3584 3314 3078 
Q 3713 2572 3713 1747 
Q 3713 922 3314 415 
Q 2916 -91 2278 -91 
Q 1894 -91 1617 61 
Q 1341 213 1159 525 
z
M 3116 1747 
Q 3116 2381 2855 2742 
Q 2594 3103 2138 3103 
Q 1681 3103 1420 2742 
Q 1159 2381 1159 1747 
Q 1159 1113 1420 752 
Q 1681 391 2138 391 
Q 2594 391 2855 752 
Q 3116 1113 3116 1747 
z
" transform="scale(0.015625)"/>
        <path id="DejaVuSans-77" d="M 269 3500 
L 844 3500 
L 1563 769 
L 2278 3500 
L 2956 3500 
L 3675 769 
L 4391 3500 
L 4966 3500 
L 4050 0 
L 3372 0 
L 2619 2869 
L 1863 0 
L 1184 0 
L 269 3500 
z
" transform="scale(0.015625)"/>
        <path id="DejaVuSans-6d" d="M 3328 2828 
Q 3544 3216 3844 3400 
Q 4144 3584 4550 3584 
Q 5097 3584 5394 3201 
Q 5691 2819 5691 2113 
L 5691 0 
L 5113 0 
L 5113 2094 
Q 5113 2597 4934 2840 
Q 4756 3084 4391 3084 
Q 3944 3084 3684 2787 
Q 3425 2491 3425 1978 
L 3425 0 
L 2847 0 
L 2847 2094 
Q 2847 2600 2669 2842 
Q 2491 3084 2119 3084 
Q 1678 3084 1418 2786 
Q 1159 2488 1159 1978 
L 1159 0 
L 581 0 
L 581 3500 
L 1159 3500 
L 1159 2956 
Q 1356 3278 1631 3431 
Q 1906 3584 2284 3584 
Q 2666 3584 2933 3390 
Q 3200 3197 3328 2828 
z
" transform="scale(0.015625)"/>
       </defs>
       <use xlink:href="#DejaVuSans-43"/>
       <use xlink:href="#DejaVuSans-52" x="69.824219"/>
       <use xlink:href="#DejaVuSans-45" x="139.306641"/>
       <use xlink:href="#DejaVuSans-42" x="202.490234"/>
       <use xlink:href="#DejaVuSans-31" x="271.09375"/>
       <use xlink:href="#DejaVuSans-5f" x="334.716797"/>
       <use xlink:href="#DejaVuSans-70" x="384.716797"/>
       <use xlink:href="#DejaVuSans-77" x="448.193359"/>
       <use xlink:href="#DejaVuSans-6d" x="529.980469"/>
      </g>
     </g>
    </g>
    <g id="text_5">
     <!-- variable -->
     <g transform="translate(201.228125 280.378125)scale(0.1 -0.1)">
      <defs>
       <path id="DejaVuSans-76" d="M 191 3500 
L 800 3500 
L 1894 563 
L 2988 3500 
L 3597 3500 
L 2284 0 
L 1503 0 
L 191 3500 
z
" transform="scale(0.015625)"/>
       <path id="DejaVuSans-61" d="M 2194 1759 
Q 1497 1759 1228 1600 
Q 959 1441 959 1056 
Q 959 750 1161 570 
Q 1363 391 1709 391 
Q 2188 391 2477 730 
Q 2766 1069 2766 1631 
L 2766 1759 
L 2194 1759 
z
M 3341 1997 
L 3341 0 
L 2766 0 
L 2766 531 
Q 2569 213 2275 61 
Q 1981 -91 1556 -91 
Q 1019 -91 701 211 
Q 384 513 384 1019 
Q 384 1609 779 1909 
Q 1175 2209 1959 2209 
L 2766 2209 
L 2766 2266 
Q 2766 2663 2505 2880 
Q 2244 3097 1772 3097 
Q 1472 3097 1187 3025 
Q 903 2953 641 2809 
L 641 3341 
Q 956 3463 1253 3523 
Q 1550 3584 1831 3584 
Q 2591 3584 2966 3190 
Q 3341 2797 3341 1997 
z
" transform="scale(0.015625)"/>
       <path id="DejaVuSans-72" d="M 2631 2963 
Q 2534 3019 2420 3045 
Q 2306 3072 2169 3072 
Q 1681 3072 1420 2755 
Q 1159 2438 1159 1844 
L 1159 0 
L 581 0 
L 581 3500 
L 1159 3500 
L 1159 2956 
Q 1341 3275 1631 3429 
Q 1922 3584 2338 3584 
Q 2397 3584 2469 3576 
Q 2541 3569 2628 3553 
L 2631 2963 
z
" transform="scale(0.015625)"/>
       <path id="DejaVuSans-69" d="M 603 3500 
L 1178 3500 
L 1178 0 
L 603 0 
L 603 3500 
z
M 603 4863 
L 1178 4863 
L 1178 4134 
L 603 4134 
L 603 4863 
z
" transform="scale(0.015625)"/>
       <path id="DejaVuSans-62" d="M 3116 1747 
Q 3116 2381 2855 2742 
Q 2594 3103 2138 3103 
Q 1681 3103 1420 2742 
Q 1159 2381 1159 1747 
Q 1159 1113 1420 752 
Q 1681 391 2138 391 
Q 2594 391 2855 752 
Q 3116 1113 3116 1747 
z
M 1159 2969 
Q 1341 3281 1617 3432 
Q 1894 3584 2278 3584 
Q 2916 3584 3314 3078 
Q 3713 2572 3713 1747 
Q 3713 922 3314 415 
Q 2916 -91 2278 -91 
Q 1894 -91 1617 61 
Q 1341 213 1159 525 
L 1159 0 
L 581 0 
L 581 4863 
L 1159 4863 
L 1159 2969 
z
" transform="scale(0.015625)"/>
       <path id="DejaVuSans-6c" d="M 603 4863 
L 1178 4863 
L 1178 0 
L 603 0 
L 603 4863 
z
" transform="scale(0.015625)"/>
       <path id="DejaVuSans-65" d="M 3597 1894 
L 3597 1613 
L 953 1613 
Q 991 1019 1311 708 
Q 1631 397 2203 397 
Q 2534 397 2845 478 
Q 3156 559 3463 722 
L 3463 178 
Q 3153 47 2828 -22 
Q 2503 -91 2169 -91 
Q 1331 -91 842 396 
Q 353 884 353 1716 
Q 353 2575 817 3079 
Q 1281 3584 2069 3584 
Q 2775 3584 3186 3129 
Q 3597 2675 3597 1894 
z
M 3022 2063 
Q 3016 2534 2758 2815 
Q 2500 3097 2075 3097 
Q 1594 3097 1305 2825 
Q 1016 2553 972 2059 
L 3022 2063 
z
" transform="scale(0.015625)"/>
      </defs>
      <use xlink:href="#DejaVuSans-76"/>
      <use xlink:href="#DejaVuSans-61" x="59.179688"/>
      <use xlink:href="#DejaVuSans-72" x="120.458984"/>
      <use xlink:href="#DejaVuSans-69" x="161.572266"/>
      <use xlink:href="#DejaVuSans-61" x="189.355469"/>
      <use xlink:href="#DejaVuSans-62" x="250.634766"/>
      <use xlink:href="#DejaVuSans-6c" x="314.111328"/>
      <use xlink:href="#DejaVuSans-65" x="341.894531"/>
     </g>
    </g>
   </g>
   <g id="matplotlib.axis_2">
    <g id="ytick_1">
     <g id="line2d_5">
      <defs>
       <path id="me39f995bff" d="M 0 0 
L -3.5 0 
" style="stroke: #000000; stroke-width: 0.8"/>
      </defs>
      <g>
       <use xlink:href="#me39f995bff" x="54" y="252" style="stroke: #000000; stroke-width: 0.8"/>
      </g>
     </g>
     <g id="text_6">
      <!-- 0.001 -->
      <g transform="translate(18.371875 255.799219)scale(0.1 -0.1)">
       <defs>
        <path id="DejaVuSans-2e" d="M 684 794 
L 1344 794 
L 1344 0 
L 684 0 
L 684 794 
z
" transform="scale(0.015625)"/>
       </defs>
       <use xlink:href="#DejaVuSans-30"/>
       <use xlink:href="#DejaVuSans-2e" x="63.623047"/>
       <use xlink:href="#DejaVuSans-30" x="95.410156"/>
       <use xlink:href="#DejaVuSans-30" x="159.033203"/>
       <use xlink:href="#DejaVuSans-31" x="222.65625"/>
      </g>
     </g>
    </g>
    <g id="ytick_2">
     <g id="line2d_6">
      <g>
       <use xlink:href="#me39f995bff" x="54" y="225.482927" style="stroke: #000000; stroke-width: 0.8"/>
      </g>
     </g>
     <g id="text_7">
      <!-- 0.002 -->
      <g transform="translate(18.371875 229.282146)scale(0.1 -0.1)">
       <use xlink:href="#DejaVuSans-30"/>
       <use xlink:href="#DejaVuSans-2e" x="63.623047"/>
       <use xlink:href="#DejaVuSans-30" x="95.410156"/>
       <use xlink:href="#DejaVuSans-30" x="159.033203"/>
       <use xlink:href="#DejaVuSans-32" x="222.65625"/>
      </g>
     </g>
    </g>
    <g id="ytick_3">
     <g id="line2d_7">
      <g>
       <use xlink:href="#me39f995bff" x="54" y="198.965854" style="stroke: #000000; stroke-width: 0.8"/>
      </g>
     </g>
     <g id="text_8">
      <!-- 0.003 -->
      <g transform="translate(18.371875 202.765072)scale(0.1 -0.1)">
       <use xlink:href="#DejaVuSans-30"/>
       <use xlink:href="#DejaVuSans-2e" x="63.623047"/>
       <use xlink:href="#DejaVuSans-30" x="95.410156"/>
       <use xlink:href="#DejaVuSans-30" x="159.033203"/>
       <use xlink:href="#DejaVuSans-33" x="222.65625"/>
      </g>
     </g>
    </g>
    <g id="ytick_4">
     <g id="line2d_8">
      <g>
       <use xlink:href="#me39f995bff" x="54" y="172.44878" style="stroke: #000000; stroke-width: 0.8"/>
      </g>
     </g>
     <g id="text_9">
      <!-- 0.004 -->
      <g transform="translate(18.371875 176.247999)scale(0.1 -0.1)">
       <defs>
        <path id="DejaVuSans-34" d="M 2419 4116 
L 825 1625 
L 2419 1625 
L 2419 4116 
z
M 2253 4666 
L 3047 4666 
L 3047 1625 
L 3713 1625 
L 3713 1100 
L 3047 1100 
L 3047 0 
L 2419 0 
L 2419 1100 
L 313 1100 
L 313 1709 
L 2253 4666 
z
" transform="scale(0.015625)"/>
       </defs>
       <use xlink:href="#DejaVuSans-30"/>
       <use xlink:href="#DejaVuSans-2e" x="63.623047"/>
       <use xlink:href="#DejaVuSans-30" x="95.410156"/>
       <use xlink:href="#DejaVuSans-30" x="159.033203"/>
       <use xlink:href="#DejaVuSans-34" x="222.65625"/>
      </g>
     </g>
    </g>
    <g id="ytick_5">
     <g id="line2d_9">
      <g>
       <use xlink:href="#me39f995bff" x="54" y="145.931707" style="stroke: #000000; stroke-width: 0.8"/>
      </g>
     </g>
     <g id="text_10">
      <!-- 0.005 -->
      <g transform="translate(18.371875 149.730926)scale(0.1 -0.1)">
       <use xlink:href="#DejaVuSans-30"/>
       <use xlink:href="#DejaVuSans-2e" x="63.623047"/>
       <use xlink:href="#DejaVuSans-30" x="95.410156"/>
       <use xlink:href="#DejaVuSans-30" x="159.033203"/>
       <use xlink:href="#DejaVuSans-35" x="222.65625"/>
      </g>
     </g>
    </g>
    <g id="ytick_6">
     <g id="line2d_10">
      <g>
       <use xlink:href="#me39f995bff" x="54" y="119.414634" style="stroke: #000000; stroke-width: 0.8"/>
      </g>
     </g>
     <g id="text_11">
      <!-- 0.006 -->
      <g transform="translate(18.371875 123.213853)scale(0.1 -0.1)">
       <defs>
        <path id="DejaVuSans-36" d="M 2113 2584 
Q 1688 2584 1439 2293 
Q 1191 2003 1191 1497 
Q 1191 994 1439 701 
Q 1688 409 2113 409 
Q 2538 409 2786 701 
Q 3034 994 3034 1497 
Q 3034 2003 2786 2293 
Q 2538 2584 2113 2584 
z
M 3366 4563 
L 3366 3988 
Q 3128 4100 2886 4159 
Q 2644 4219 2406 4219 
Q 1781 4219 1451 3797 
Q 1122 3375 1075 2522 
Q 1259 2794 1537 2939 
Q 1816 3084 2150 3084 
Q 2853 3084 3261 2657 
Q 3669 2231 3669 1497 
Q 3669 778 3244 343 
Q 2819 -91 2113 -91 
Q 1303 -91 875 529 
Q 447 1150 447 2328 
Q 447 3434 972 4092 
Q 1497 4750 2381 4750 
Q 2619 4750 2861 4703 
Q 3103 4656 3366 4563 
z
" transform="scale(0.015625)"/>
       </defs>
       <use xlink:href="#DejaVuSans-30"/>
       <use xlink:href="#DejaVuSans-2e" x="63.623047"/>
       <use xlink:href="#DejaVuSans-30" x="95.410156"/>
       <use xlink:href="#DejaVuSans-30" x="159.033203"/>
       <use xlink:href="#DejaVuSans-36" x="222.65625"/>
      </g>
     </g>
    </g>
    <g id="ytick_7">
     <g id="line2d_11">
      <g>
       <use xlink:href="#me39f995bff" x="54" y="92.897561" style="stroke: #000000; stroke-width: 0.8"/>
      </g>
     </g>
     <g id="text_12">
      <!-- 0.007 -->
      <g transform="translate(18.371875 96.69678)scale(0.1 -0.1)">
       <defs>
        <path id="DejaVuSans-37" d="M 525 4666 
L 3525 4666 
L 3525 4397 
L 1831 0 
L 1172 0 
L 2766 4134 
L 525 4134 
L 525 4666 
z
" transform="scale(0.015625)"/>
       </defs>
       <use xlink:href="#DejaVuSans-30"/>
       <use xlink:href="#DejaVuSans-2e" x="63.623047"/>
       <use xlink:href="#DejaVuSans-30" x="95.410156"/>
       <use xlink:href="#DejaVuSans-30" x="159.033203"/>
       <use xlink:href="#DejaVuSans-37" x="222.65625"/>
      </g>
     </g>
    </g>
    <g id="ytick_8">
     <g id="line2d_12">
      <g>
       <use xlink:href="#me39f995bff" x="54" y="66.380488" style="stroke: #000000; stroke-width: 0.8"/>
      </g>
     </g>
     <g id="text_13">
      <!-- 0.008 -->
      <g transform="translate(18.371875 70.179707)scale(0.1 -0.1)">
       <defs>
        <path id="DejaVuSans-38" d="M 2034 2216 
Q 1584 2216 1326 1975 
Q 1069 1734 1069 1313 
Q 1069 891 1326 650 
Q 1584 409 2034 409 
Q 2484 409 2743 651 
Q 3003 894 3003 1313 
Q 3003 1734 2745 1975 
Q 2488 2216 2034 2216 
z
M 1403 2484 
Q 997 2584 770 2862 
Q 544 3141 544 3541 
Q 544 4100 942 4425 
Q 1341 4750 2034 4750 
Q 2731 4750 3128 4425 
Q 3525 4100 3525 3541 
Q 3525 3141 3298 2862 
Q 3072 2584 2669 2484 
Q 3125 2378 3379 2068 
Q 3634 1759 3634 1313 
Q 3634 634 3220 271 
Q 2806 -91 2034 -91 
Q 1263 -91 848 271 
Q 434 634 434 1313 
Q 434 1759 690 2068 
Q 947 2378 1403 2484 
z
M 1172 3481 
Q 1172 3119 1398 2916 
Q 1625 2713 2034 2713 
Q 2441 2713 2670 2916 
Q 2900 3119 2900 3481 
Q 2900 3844 2670 4047 
Q 2441 4250 2034 4250 
Q 1625 4250 1398 4047 
Q 1172 3844 1172 3481 
z
" transform="scale(0.015625)"/>
       </defs>
       <use xlink:href="#DejaVuSans-30"/>
       <use xlink:href="#DejaVuSans-2e" x="63.623047"/>
       <use xlink:href="#DejaVuSans-30" x="95.410156"/>
       <use xlink:href="#DejaVuSans-30" x="159.033203"/>
       <use xlink:href="#DejaVuSans-38" x="222.65625"/>
      </g>
     </g>
    </g>
    <g id="ytick_9">
     <g id="line2d_13">
      <g>
       <use xlink:href="#me39f995bff" x="54" y="39.863415" style="stroke: #000000; stroke-width: 0.8"/>
      </g>
     </g>
     <g id="text_14">
      <!-- 0.009 -->
      <g transform="translate(18.371875 43.662633)scale(0.1 -0.1)">
       <defs>
        <path id="DejaVuSans-39" d="M 703 97 
L 703 672 
Q 941 559 1184 500 
Q 1428 441 1663 441 
Q 2288 441 2617 861 
Q 2947 1281 2994 2138 
Q 2813 1869 2534 1725 
Q 2256 1581 1919 1581 
Q 1219 1581 811 2004 
Q 403 2428 403 3163 
Q 403 3881 828 4315 
Q 1253 4750 1959 4750 
Q 2769 4750 3195 4129 
Q 3622 3509 3622 2328 
Q 3622 1225 3098 567 
Q 2575 -91 1691 -91 
Q 1453 -91 1209 -44 
Q 966 3 703 97 
z
M 1959 2075 
Q 2384 2075 2632 2365 
Q 2881 2656 2881 3163 
Q 2881 3666 2632 3958 
Q 2384 4250 1959 4250 
Q 1534 4250 1286 3958 
Q 1038 3666 1038 3163 
Q 1038 2656 1286 2365 
Q 1534 2075 1959 2075 
z
" transform="scale(0.015625)"/>
       </defs>
       <use xlink:href="#DejaVuSans-30"/>
       <use xlink:href="#DejaVuSans-2e" x="63.623047"/>
       <use xlink:href="#DejaVuSans-30" x="95.410156"/>
       <use xlink:href="#DejaVuSans-30" x="159.033203"/>
       <use xlink:href="#DejaVuSans-39" x="222.65625"/>
      </g>
     </g>
    </g>
    <g id="text_15">
     <!-- value -->
     <g transform="translate(12.292187 156.937813)rotate(-90)scale(0.1 -0.1)">
      <defs>
       <path id="DejaVuSans-75" d="M 544 1381 
L 544 3500 
L 1119 3500 
L 1119 1403 
Q 1119 906 1312 657 
Q 1506 409 1894 409 
Q 2359 409 2629 706 
Q 2900 1003 2900 1516 
L 2900 3500 
L 3475 3500 
L 3475 0 
L 2900 0 
L 2900 538 
Q 2691 219 2414 64 
Q 2138 -91 1772 -91 
Q 1169 -91 856 284 
Q 544 659 544 1381 
z
M 1991 3584 
L 1991 3584 
z
" transform="scale(0.015625)"/>
      </defs>
      <use xlink:href="#DejaVuSans-76"/>
      <use xlink:href="#DejaVuSans-61" x="59.179688"/>
      <use xlink:href="#DejaVuSans-6c" x="120.458984"/>
      <use xlink:href="#DejaVuSans-75" x="148.242188"/>
      <use xlink:href="#DejaVuSans-65" x="211.621094"/>
     </g>
    </g>
   </g>
   <g id="line2d_14">
    <path d="M 95.85 143.854513 
L 95.85 129.030091 
" clip-path="url(#pe801d8d688)" style="fill: none; stroke: #4d4d4d; stroke-width: 1.5; stroke-linecap: square"/>
   </g>
   <g id="line2d_15">
    <path d="M 95.85 138.151105 
L 95.85 133.313195 
" clip-path="url(#pe801d8d688)" style="fill: none; stroke: #4d4d4d; stroke-width: 4.5; stroke-linecap: square"/>
   </g>
   <g id="line2d_16">
    <path d="M 179.55 148.777535 
L 179.55 122.340883 
" clip-path="url(#pe801d8d688)" style="fill: none; stroke: #4d4d4d; stroke-width: 1.5; stroke-linecap: square"/>
   </g>
   <g id="line2d_17">
    <path d="M 179.55 139.669109 
L 179.55 131.615927 
" clip-path="url(#pe801d8d688)" style="fill: none; stroke: #4d4d4d; stroke-width: 4.5; stroke-linecap: square"/>
   </g>
   <g id="line2d_18">
    <path d="M 263.25 155.494439 
L 263.25 111.069599 
" clip-path="url(#pe801d8d688)" style="fill: none; stroke: #4d4d4d; stroke-width: 1.5; stroke-linecap: square"/>
   </g>
   <g id="line2d_19">
    <path d="M 263.25 140.828546 
L 263.25 128.725625 
" clip-path="url(#pe801d8d688)" style="fill: none; stroke: #4d4d4d; stroke-width: 4.5; stroke-linecap: square"/>
   </g>
   <g id="line2d_20">
    <path d="M 346.95 149.304561 
L 346.95 115.613047 
" clip-path="url(#pe801d8d688)" style="fill: none; stroke: #4d4d4d; stroke-width: 1.5; stroke-linecap: square"/>
   </g>
   <g id="line2d_21">
    <path d="M 346.95 140.511446 
L 346.95 130.422504 
" clip-path="url(#pe801d8d688)" style="fill: none; stroke: #4d4d4d; stroke-width: 4.5; stroke-linecap: square"/>
   </g>
   <g id="patch_3">
    <path d="M 54 252 
L 54 34.56 
" style="fill: none; stroke: #000000; stroke-width: 0.8; stroke-linejoin: miter; stroke-linecap: square"/>
   </g>
   <g id="patch_4">
    <path d="M 388.8 252 
L 388.8 34.56 
" style="fill: none; stroke: #000000; stroke-width: 0.8; stroke-linejoin: miter; stroke-linecap: square"/>
   </g>
   <g id="patch_5">
    <path d="M 54 252 
L 388.8 252 
" style="fill: none; stroke: #000000; stroke-width: 0.8; stroke-linejoin: miter; stroke-linecap: square"/>
   </g>
   <g id="patch_6">
    <path d="M 54 34.56 
L 388.8 34.56 
" style="fill: none; stroke: #000000; stroke-width: 0.8; stroke-linejoin: miter; stroke-linecap: square"/>
   </g>
   <g id="PathCollection_1">
    <defs>
     <path id="m74ad2a783e" d="M 0 1.5 
C 0.397805 1.5 0.77937 1.341951 1.06066 1.06066 
C 1.341951 0.77937 1.5 0.397805 1.5 0 
C 1.5 -0.397805 1.341951 -0.77937 1.06066 -1.06066 
C 0.77937 -1.341951 0.397805 -1.5 0 -1.5 
C -0.397805 -1.5 -0.77937 -1.341951 -1.06066 -1.06066 
C -1.341951 -0.77937 -1.5 -0.397805 -1.5 0 
C -1.5 0.397805 -1.341951 0.77937 -1.06066 1.06066 
C -0.77937 1.341951 -0.397805 1.5 0 1.5 
z
" style="stroke: #4d4d4d"/>
    </defs>
    <g clip-path="url(#pe801d8d688)">
     <use xlink:href="#m74ad2a783e" x="95.85" y="135.820919" style="fill: #ffffff; stroke: #4d4d4d"/>
    </g>
   </g>
   <g id="PathCollection_2">
    <g clip-path="url(#pe801d8d688)">
     <use xlink:href="#m74ad2a783e" x="179.55" y="136.003522" style="fill: #ffffff; stroke: #4d4d4d"/>
    </g>
   </g>
   <g id="PathCollection_3">
    <g clip-path="url(#pe801d8d688)">
     <use xlink:href="#m74ad2a783e" x="263.25" y="133.566793" style="fill: #ffffff; stroke: #4d4d4d"/>
    </g>
   </g>
   <g id="PathCollection_4">
    <g clip-path="url(#pe801d8d688)">
     <use xlink:href="#m74ad2a783e" x="346.95" y="135.235577" style="fill: #ffffff; stroke: #4d4d4d"/>
    </g>
   </g>
   <g id="PathCollection_5">
    <defs>
     <path id="m268bc41b00" d="M -0 5.656854 
L 5.656854 0 
L 0 -5.656854 
L -5.656854 -0 
z
" style="stroke: #4c4c4c"/>
    </defs>
    <g clip-path="url(#pe801d8d688)">
     <use xlink:href="#m268bc41b00" x="95.85" y="121.040882" style="fill: #ff0000; stroke: #4c4c4c"/>
    </g>
   </g>
   <g id="PathCollection_6">
    <g clip-path="url(#pe801d8d688)">
     <use xlink:href="#m268bc41b00" x="179.55" y="123.007353" style="fill: #ff0000; stroke: #4c4c4c"/>
    </g>
   </g>
   <g id="PathCollection_7">
    <g clip-path="url(#pe801d8d688)">
     <use xlink:href="#m268bc41b00" x="263.25" y="128.725625" style="fill: #ff0000; stroke: #4c4c4c"/>
    </g>
   </g>
   <g id="PathCollection_8">
    <g clip-path="url(#pe801d8d688)">
     <use xlink:href="#m268bc41b00" x="346.95" y="118.204702" style="fill: #ff0000; stroke: #4c4c4c"/>
    </g>
   </g>
   <g id="legend_1"/>
  </g>
 </g>
 <defs>
  <clipPath id="pe801d8d688">
   <rect x="54" y="34.56" width="334.8" height="217.44"/>
  </clipPath>
 </defs>
</svg>
