<?xml version="1.0" encoding="utf-8" standalone="no"?>
<!DOCTYPE svg PUBLIC "-//W3C//DTD SVG 1.1//EN"
  "http://www.w3.org/Graphics/SVG/1.1/DTD/svg11.dtd">
<svg xmlns:xlink="http://www.w3.org/1999/xlink" width="432pt" height="288pt" viewBox="0 0 432 288" xmlns="http://www.w3.org/2000/svg" version="1.1">
 <metadata>
  <rdf:RDF xmlns:dc="http://purl.org/dc/elements/1.1/" xmlns:cc="http://creativecommons.org/ns#" xmlns:rdf="http://www.w3.org/1999/02/22-rdf-syntax-ns#">
   <cc:Work>
    <dc:type rdf:resource="http://purl.org/dc/dcmitype/StillImage"/>
    <dc:date>2023-01-26T20:14:49.920424</dc:date>
    <dc:format>image/svg+xml</dc:format>
    <dc:creator>
     <cc:Agent>
      <dc:title>Matplotlib v3.5.1, https://matplotlib.org/</dc:title>
     </cc:Agent>
    </dc:creator>
   </cc:Work>
  </rdf:RDF>
 </metadata>
 <defs>
  <style type="text/css">*{stroke-linejoin: round; stroke-linecap: butt}</style>
 </defs>
 <g id="figure_1">
  <g id="patch_1">
   <path d="M 0 288 
L 432 288 
L 432 0 
L 0 0 
L 0 288 
z
" style="fill: none"/>
  </g>
  <g id="axes_1">
   <g id="patch_2">
    <path d="M 54 252 
L 388.8 252 
L 388.8 34.56 
L 54 34.56 
z
" style="fill: #ffffff"/>
   </g>
   <g id="PolyCollection_1">
    <defs>
     <path id="mbfe462b355" d="M 95.971189 -61.926251 
L 95.728811 -61.926251 
L 95.678657 -62.078864 
L 95.614977 -62.231478 
L 95.537086 -62.384092 
L 95.445307 -62.536705 
L 95.341114 -62.689319 
L 95.227062 -62.841932 
L 95.10649 -62.994546 
L 94.983003 -63.147159 
L 94.85981 -63.299773 
L 94.73907 -63.452386 
L 94.621373 -63.605 
L 94.50549 -63.757613 
L 94.388449 -63.910227 
L 94.265883 -64.06284 
L 94.132505 -64.215454 
L 93.982518 -64.368067 
L 93.80976 -64.520681 
L 93.607458 -64.673294 
L 93.367623 -64.825908 
L 93.080223 -64.978521 
L 92.732434 -65.131135 
L 92.308308 -65.283748 
L 91.789146 -65.436362 
L 91.154784 -65.588975 
L 90.385751 -65.741589 
L 89.466103 -65.894203 
L 88.386491 -66.046816 
L 87.146944 -66.19943 
L 85.758803 -66.352043 
L 84.245343 -66.504657 
L 82.640827 -66.65727 
L 80.987987 -66.809884 
L 79.334225 -66.962497 
L 77.727071 -67.115111 
L 76.209561 -67.267724 
L 74.816228 -67.420338 
L 73.570285 -67.572951 
L 72.482339 -67.725565 
L 71.55071 -67.878178 
L 70.763143 -68.030792 
L 70.099503 -68.183405 
L 69.534888 -68.336019 
L 69.042623 -68.488632 
L 68.59668 -68.641246 
L 68.173268 -68.793859 
L 67.751633 -68.946473 
L 67.314298 -69.099086 
L 66.84723 -69.2517 
L 66.340394 -69.404313 
L 65.789088 -69.556927 
L 65.196088 -69.709541 
L 64.574278 -69.862154 
L 63.94907 -70.014768 
L 63.359655 -70.167381 
L 62.85822 -70.319995 
L 62.506551 -70.472608 
L 62.37 -70.625222 
L 62.509494 -70.777835 
L 62.972816 -70.930449 
L 63.786766 -71.083062 
L 64.951799 -71.235676 
L 66.440329 -71.388289 
L 68.199191 -71.540903 
L 70.155885 -71.693516 
L 72.227469 -71.84613 
L 74.330432 -71.998743 
L 76.389769 -72.151357 
L 78.345776 -72.30397 
L 80.157687 -72.456584 
L 81.803993 -72.609197 
L 83.279979 -72.761811 
L 84.593439 -72.914424 
L 85.759701 -73.067038 
L 86.796963 -73.219652 
L 87.722658 -73.372265 
L 88.551182 -73.524879 
L 89.292996 -73.677492 
L 89.954895 -73.830106 
L 90.541076 -73.982719 
L 91.054638 -74.135333 
L 91.499128 -74.287946 
L 91.879824 -74.44056 
L 92.204484 -74.593173 
L 92.483439 -74.745787 
L 92.728973 -74.8984 
L 92.954122 -75.051014 
L 93.17113 -75.203627 
L 93.389892 -75.356241 
L 93.616727 -75.508854 
L 93.853746 -75.661468 
L 94.098943 -75.814081 
L 94.34698 -75.966695 
L 94.590453 -76.119308 
L 94.821365 -76.271922 
L 95.032493 -76.424535 
L 95.218417 -76.577149 
L 95.376072 -76.729762 
L 95.50481 -76.882376 
L 95.606076 -77.03499 
L 96.093924 -77.03499 
L 96.093924 -77.03499 
L 96.19519 -76.882376 
L 96.323928 -76.729762 
L 96.481583 -76.577149 
L 96.667507 -76.424535 
L 96.878635 -76.271922 
L 97.109547 -76.119308 
L 97.35302 -75.966695 
L 97.601057 -75.814081 
L 97.846254 -75.661468 
L 98.083273 -75.508854 
L 98.310108 -75.356241 
L 98.52887 -75.203627 
L 98.745878 -75.051014 
L 98.971027 -74.8984 
L 99.216561 -74.745787 
L 99.495516 -74.593173 
L 99.820176 -74.44056 
L 100.200872 -74.287946 
L 100.645362 -74.135333 
L 101.158924 -73.982719 
L 101.745105 -73.830106 
L 102.407004 -73.677492 
L 103.148818 -73.524879 
L 103.977342 -73.372265 
L 104.903037 -73.219652 
L 105.940299 -73.067038 
L 107.106561 -72.914424 
L 108.420021 -72.761811 
L 109.896007 -72.609197 
L 111.542313 -72.456584 
L 113.354224 -72.30397 
L 115.310231 -72.151357 
L 117.369568 -71.998743 
L 119.472531 -71.84613 
L 121.544115 -71.693516 
L 123.500809 -71.540903 
L 125.259671 -71.388289 
L 126.748201 -71.235676 
L 127.913234 -71.083062 
L 128.727184 -70.930449 
L 129.190506 -70.777835 
L 129.33 -70.625222 
L 129.193449 -70.472608 
L 128.84178 -70.319995 
L 128.340345 -70.167381 
L 127.75093 -70.014768 
L 127.125722 -69.862154 
L 126.503912 -69.709541 
L 125.910912 -69.556927 
L 125.359606 -69.404313 
L 124.85277 -69.2517 
L 124.385702 -69.099086 
L 123.948367 -68.946473 
L 123.526732 -68.793859 
L 123.10332 -68.641246 
L 122.657377 -68.488632 
L 122.165112 -68.336019 
L 121.600497 -68.183405 
L 120.936857 -68.030792 
L 120.14929 -67.878178 
L 119.217661 -67.725565 
L 118.129715 -67.572951 
L 116.883772 -67.420338 
L 115.490439 -67.267724 
L 113.972929 -67.115111 
L 112.365775 -66.962497 
L 110.712013 -66.809884 
L 109.059173 -66.65727 
L 107.454657 -66.504657 
L 105.941197 -66.352043 
L 104.553056 -66.19943 
L 103.313509 -66.046816 
L 102.233897 -65.894203 
L 101.314249 -65.741589 
L 100.545216 -65.588975 
L 99.910854 -65.436362 
L 99.391692 -65.283748 
L 98.967566 -65.131135 
L 98.619777 -64.978521 
L 98.332377 -64.825908 
L 98.092542 -64.673294 
L 97.89024 -64.520681 
L 97.717482 -64.368067 
L 97.567495 -64.215454 
L 97.434117 -64.06284 
L 97.311551 -63.910227 
L 97.19451 -63.757613 
L 97.078627 -63.605 
L 96.96093 -63.452386 
L 96.84019 -63.299773 
L 96.716997 -63.147159 
L 96.59351 -62.994546 
L 96.472938 -62.841932 
L 96.358886 -62.689319 
L 96.254693 -62.536705 
L 96.162914 -62.384092 
L 96.085023 -62.231478 
L 96.021343 -62.078864 
L 95.971189 -61.926251 
z
" style="stroke: #4d4d4d; stroke-width: 1.5"/>
    </defs>
    <g clip-path="url(#pf7b4ded6f5)">
     <use xlink:href="#mbfe462b355" x="0" y="288" style="fill: #808080; stroke: #4d4d4d; stroke-width: 1.5"/>
    </g>
   </g>
   <g id="PolyCollection_2">
    <defs>
     <path id="m1b8ffdde08" d="M 179.775448 -56.317281 
L 179.324552 -56.317281 
L 179.224247 -56.543876 
L 179.09152 -56.77047 
L 178.921201 -56.997065 
L 178.709251 -57.22366 
L 178.453453 -57.450254 
L 178.153991 -57.676849 
L 177.813796 -57.903444 
L 177.438517 -58.130038 
L 177.036058 -58.356633 
L 176.615688 -58.583227 
L 176.186803 -58.809822 
L 175.757537 -59.036417 
L 175.333431 -59.263011 
L 174.916397 -59.489606 
L 174.504152 -59.716201 
L 174.090244 -59.942795 
L 173.664636 -60.16939 
L 173.214787 -60.395984 
L 172.727055 -60.622579 
L 172.188262 -60.849174 
L 171.587254 -61.075768 
L 170.916346 -61.302363 
L 170.172563 -61.528958 
L 169.358615 -61.755552 
L 168.483504 -61.982147 
L 167.56268 -62.208741 
L 166.617599 -62.435336 
L 165.674586 -62.661931 
L 164.762957 -62.888525 
L 163.912504 -63.11512 
L 163.150581 -63.341715 
L 162.499162 -63.568309 
L 161.972335 -63.794904 
L 161.574649 -64.021498 
L 161.300598 -64.248093 
L 161.135348 -64.474688 
L 161.056557 -64.701282 
L 161.036987 -64.927877 
L 161.0475 -65.154471 
L 161.060046 -65.381066 
L 161.050351 -65.607661 
L 161.000115 -65.834255 
L 160.898656 -66.06085 
L 160.743978 -66.287445 
L 160.543232 -66.514039 
L 160.312495 -66.740634 
L 160.075782 -66.967228 
L 159.86323 -67.193823 
L 159.708481 -67.420418 
L 159.645454 -67.647012 
L 159.704843 -67.873607 
L 159.910796 -68.100202 
L 160.278249 -68.326796 
L 160.811317 -68.553391 
L 161.502975 -68.779985 
L 162.336034 -69.00658 
L 163.285229 -69.233175 
L 164.320061 -69.459769 
L 165.407942 -69.686364 
L 166.517217 -69.912959 
L 167.619686 -70.139553 
L 168.692372 -70.366148 
L 169.718423 -70.592742 
L 170.687167 -70.819337 
L 171.593431 -71.045932 
L 172.436365 -71.272526 
L 173.217992 -71.499121 
L 173.941765 -71.725716 
L 174.611325 -71.95231 
L 175.229627 -72.178905 
L 175.798473 -72.405499 
L 176.318454 -72.632094 
L 176.789187 -72.858689 
L 177.209752 -73.085283 
L 177.579198 -73.311878 
L 177.89703 -73.538473 
L 178.163605 -73.765067 
L 178.380431 -73.991662 
L 178.550341 -74.218256 
L 178.677545 -74.444851 
L 178.767566 -74.671446 
L 178.827036 -74.89804 
L 178.863358 -75.124635 
L 178.884247 -75.35123 
L 178.89719 -75.577824 
L 178.908875 -75.804419 
L 178.924691 -76.031013 
L 178.948354 -76.257608 
L 178.981737 -76.484203 
L 179.024929 -76.710797 
L 179.076502 -76.937392 
L 179.133941 -77.163986 
L 179.194152 -77.390581 
L 179.253969 -77.617176 
L 179.310576 -77.84377 
L 179.361801 -78.070365 
L 179.406254 -78.29696 
L 179.44333 -78.523554 
L 179.473102 -78.750149 
L 179.626898 -78.750149 
L 179.626898 -78.750149 
L 179.65667 -78.523554 
L 179.693746 -78.29696 
L 179.738199 -78.070365 
L 179.789424 -77.84377 
L 179.846031 -77.617176 
L 179.905848 -77.390581 
L 179.966059 -77.163986 
L 180.023498 -76.937392 
L 180.075071 -76.710797 
L 180.118263 -76.484203 
L 180.151646 -76.257608 
L 180.175309 -76.031013 
L 180.191125 -75.804419 
L 180.20281 -75.577824 
L 180.215753 -75.35123 
L 180.236642 -75.124635 
L 180.272964 -74.89804 
L 180.332434 -74.671446 
L 180.422455 -74.444851 
L 180.549659 -74.218256 
L 180.719569 -73.991662 
L 180.936395 -73.765067 
L 181.20297 -73.538473 
L 181.520802 -73.311878 
L 181.890248 -73.085283 
L 182.310813 -72.858689 
L 182.781546 -72.632094 
L 183.301527 -72.405499 
L 183.870373 -72.178905 
L 184.488675 -71.95231 
L 185.158235 -71.725716 
L 185.882008 -71.499121 
L 186.663635 -71.272526 
L 187.506569 -71.045932 
L 188.412833 -70.819337 
L 189.381577 -70.592742 
L 190.407628 -70.366148 
L 191.480314 -70.139553 
L 192.582783 -69.912959 
L 193.692058 -69.686364 
L 194.779939 -69.459769 
L 195.814771 -69.233175 
L 196.763966 -69.00658 
L 197.597025 -68.779985 
L 198.288683 -68.553391 
L 198.821751 -68.326796 
L 199.189204 -68.100202 
L 199.395157 -67.873607 
L 199.454546 -67.647012 
L 199.391519 -67.420418 
L 199.23677 -67.193823 
L 199.024218 -66.967228 
L 198.787505 -66.740634 
L 198.556768 -66.514039 
L 198.356022 -66.287445 
L 198.201344 -66.06085 
L 198.099885 -65.834255 
L 198.049649 -65.607661 
L 198.039954 -65.381066 
L 198.0525 -65.154471 
L 198.063013 -64.927877 
L 198.043443 -64.701282 
L 197.964652 -64.474688 
L 197.799402 -64.248093 
L 197.525351 -64.021498 
L 197.127665 -63.794904 
L 196.600838 -63.568309 
L 195.949419 -63.341715 
L 195.187496 -63.11512 
L 194.337043 -62.888525 
L 193.425414 -62.661931 
L 192.482401 -62.435336 
L 191.53732 -62.208741 
L 190.616496 -61.982147 
L 189.741385 -61.755552 
L 188.927437 -61.528958 
L 188.183654 -61.302363 
L 187.512746 -61.075768 
L 186.911738 -60.849174 
L 186.372945 -60.622579 
L 185.885213 -60.395984 
L 185.435364 -60.16939 
L 185.009756 -59.942795 
L 184.595848 -59.716201 
L 184.183603 -59.489606 
L 183.766569 -59.263011 
L 183.342463 -59.036417 
L 182.913197 -58.809822 
L 182.484312 -58.583227 
L 182.063942 -58.356633 
L 181.661483 -58.130038 
L 181.286204 -57.903444 
L 180.946009 -57.676849 
L 180.646547 -57.450254 
L 180.390749 -57.22366 
L 180.178799 -56.997065 
L 180.00848 -56.77047 
L 179.875753 -56.543876 
L 179.775448 -56.317281 
z
" style="stroke: #4d4d4d; stroke-width: 1.5"/>
    </defs>
    <g clip-path="url(#pf7b4ded6f5)">
     <use xlink:href="#m1b8ffdde08" x="0" y="288" style="fill: #808080; stroke: #4d4d4d; stroke-width: 1.5"/>
    </g>
   </g>
   <g id="PolyCollection_3">
    <defs>
     <path id="ma589fadaa1" d="M 263.305792 -48.489534 
L 263.194208 -48.489534 
L 263.17281 -48.798664 
L 263.146003 -49.107793 
L 263.11348 -49.416923 
L 263.075253 -49.726053 
L 263.031679 -50.035183 
L 262.983412 -50.344312 
L 262.931278 -50.653442 
L 262.876066 -50.962572 
L 262.818261 -51.271702 
L 262.757773 -51.580832 
L 262.693714 -51.889961 
L 262.624288 -52.199091 
L 262.546836 -52.508221 
L 262.458048 -52.817351 
L 262.354314 -53.126481 
L 262.232143 -53.43561 
L 262.088553 -53.74474 
L 261.921323 -54.05387 
L 261.72904 -54.363 
L 261.510916 -54.672129 
L 261.266412 -54.981259 
L 260.994771 -55.290389 
L 260.694622 -55.599519 
L 260.363782 -55.908649 
L 259.999382 -56.217778 
L 259.598339 -56.526908 
L 259.158113 -56.836038 
L 258.677612 -57.145168 
L 258.158007 -57.454298 
L 257.603266 -57.763427 
L 257.020216 -58.072557 
L 256.418053 -58.381687 
L 255.807338 -58.690817 
L 255.198636 -58.999946 
L 254.601058 -59.309076 
L 254.021001 -59.618206 
L 253.461387 -59.927336 
L 252.9216 -60.236466 
L 252.398208 -60.545595 
L 251.886375 -60.854725 
L 251.381728 -61.163855 
L 250.882302 -61.472985 
L 250.390145 -61.782114 
L 249.91221 -62.091244 
L 249.460269 -62.400374 
L 249.049786 -62.709504 
L 248.697917 -63.018634 
L 248.420976 -63.327763 
L 248.231856 -63.636893 
L 248.137898 -63.946023 
L 248.139626 -64.255153 
L 248.230586 -64.564283 
L 248.398303 -64.873412 
L 248.626151 -65.182542 
L 248.895784 -65.491672 
L 249.189655 -65.800802 
L 249.493238 -66.109931 
L 249.796592 -66.419061 
L 250.095114 -66.728191 
L 250.389444 -67.037321 
L 250.684647 -67.346451 
L 250.988871 -67.65558 
L 251.311709 -67.96471 
L 251.662533 -68.27384 
L 252.048979 -68.58297 
L 252.475771 -68.8921 
L 252.943994 -69.201229 
L 253.450867 -69.510359 
L 253.990032 -69.819489 
L 254.552281 -70.128619 
L 255.126613 -70.437748 
L 255.701441 -70.746878 
L 256.265771 -71.056008 
L 256.810193 -71.365138 
L 257.327539 -71.674268 
L 257.813172 -71.983397 
L 258.264931 -72.292527 
L 258.682793 -72.601657 
L 259.068391 -72.910787 
L 259.424477 -73.219917 
L 259.754438 -73.529046 
L 260.061885 -73.838176 
L 260.350345 -74.147306 
L 260.623012 -74.456436 
L 260.882551 -74.765565 
L 261.130931 -75.074695 
L 261.369299 -75.383825 
L 261.597917 -75.692955 
L 261.816186 -76.002085 
L 262.022779 -76.311214 
L 262.215876 -76.620344 
L 262.393473 -76.929474 
L 262.553714 -77.238604 
L 262.6952 -77.547734 
L 262.817207 -77.856863 
L 262.919802 -78.165993 
L 263.003827 -78.475123 
L 263.070794 -78.784253 
L 263.122699 -79.093382 
L 263.377301 -79.093382 
L 263.377301 -79.093382 
L 263.429206 -78.784253 
L 263.496173 -78.475123 
L 263.580198 -78.165993 
L 263.682793 -77.856863 
L 263.8048 -77.547734 
L 263.946286 -77.238604 
L 264.106527 -76.929474 
L 264.284124 -76.620344 
L 264.477221 -76.311214 
L 264.683814 -76.002085 
L 264.902083 -75.692955 
L 265.130701 -75.383825 
L 265.369069 -75.074695 
L 265.617449 -74.765565 
L 265.876988 -74.456436 
L 266.149655 -74.147306 
L 266.438115 -73.838176 
L 266.745562 -73.529046 
L 267.075523 -73.219917 
L 267.431609 -72.910787 
L 267.817207 -72.601657 
L 268.235069 -72.292527 
L 268.686828 -71.983397 
L 269.172461 -71.674268 
L 269.689807 -71.365138 
L 270.234229 -71.056008 
L 270.798559 -70.746878 
L 271.373387 -70.437748 
L 271.947719 -70.128619 
L 272.509968 -69.819489 
L 273.049133 -69.510359 
L 273.556006 -69.201229 
L 274.024229 -68.8921 
L 274.451021 -68.58297 
L 274.837467 -68.27384 
L 275.188291 -67.96471 
L 275.511129 -67.65558 
L 275.815353 -67.346451 
L 276.110556 -67.037321 
L 276.404886 -66.728191 
L 276.703408 -66.419061 
L 277.006762 -66.109931 
L 277.310345 -65.800802 
L 277.604216 -65.491672 
L 277.873849 -65.182542 
L 278.101697 -64.873412 
L 278.269414 -64.564283 
L 278.360374 -64.255153 
L 278.362102 -63.946023 
L 278.268144 -63.636893 
L 278.079024 -63.327763 
L 277.802083 -63.018634 
L 277.450214 -62.709504 
L 277.039731 -62.400374 
L 276.58779 -62.091244 
L 276.109855 -61.782114 
L 275.617698 -61.472985 
L 275.118272 -61.163855 
L 274.613625 -60.854725 
L 274.101792 -60.545595 
L 273.5784 -60.236466 
L 273.038613 -59.927336 
L 272.478999 -59.618206 
L 271.898942 -59.309076 
L 271.301364 -58.999946 
L 270.692662 -58.690817 
L 270.081947 -58.381687 
L 269.479784 -58.072557 
L 268.896734 -57.763427 
L 268.341993 -57.454298 
L 267.822388 -57.145168 
L 267.341887 -56.836038 
L 266.901661 -56.526908 
L 266.500618 -56.217778 
L 266.136218 -55.908649 
L 265.805378 -55.599519 
L 265.505229 -55.290389 
L 265.233588 -54.981259 
L 264.989084 -54.672129 
L 264.77096 -54.363 
L 264.578677 -54.05387 
L 264.411447 -53.74474 
L 264.267857 -53.43561 
L 264.145686 -53.126481 
L 264.041952 -52.817351 
L 263.953164 -52.508221 
L 263.875712 -52.199091 
L 263.806286 -51.889961 
L 263.742227 -51.580832 
L 263.681739 -51.271702 
L 263.623934 -50.962572 
L 263.568722 -50.653442 
L 263.516588 -50.344312 
L 263.468321 -50.035183 
L 263.424747 -49.726053 
L 263.38652 -49.416923 
L 263.353997 -49.107793 
L 263.32719 -48.798664 
L 263.305792 -48.489534 
z
" style="stroke: #4d4d4d; stroke-width: 1.5"/>
    </defs>
    <g clip-path="url(#pf7b4ded6f5)">
     <use xlink:href="#ma589fadaa1" x="0" y="288" style="fill: #808080; stroke: #4d4d4d; stroke-width: 1.5"/>
    </g>
   </g>
   <g id="PolyCollection_4">
    <defs>
     <path id="m01bf4a673d" d="M 347.029431 -183.01867 
L 346.870569 -183.01867 
L 346.83603 -183.261651 
L 346.791474 -183.504632 
L 346.736018 -183.747613 
L 346.669316 -183.990595 
L 346.591585 -184.233576 
L 346.503464 -184.476557 
L 346.405721 -184.719538 
L 346.298831 -184.962519 
L 346.18252 -185.2055 
L 346.055396 -185.448482 
L 345.914777 -185.691463 
L 345.756771 -185.934444 
L 345.576594 -186.177425 
L 345.369023 -186.420406 
L 345.12885 -186.663387 
L 344.85124 -186.906369 
L 344.53193 -187.14935 
L 344.167394 -187.392331 
L 343.75509 -187.635312 
L 343.293985 -187.878293 
L 342.785381 -188.121274 
L 342.233919 -188.364256 
L 341.648393 -188.607237 
L 341.041909 -188.850218 
L 340.430961 -189.093199 
L 339.833224 -189.33618 
L 339.264274 -189.579161 
L 338.733826 -189.822143 
L 338.242397 -190.065124 
L 337.779388 -190.308105 
L 337.32332 -190.551086 
L 336.844529 -190.794067 
L 336.310033 -191.037048 
L 335.689704 -191.28003 
L 334.962512 -191.523011 
L 334.121524 -191.765992 
L 333.176532 -192.008973 
L 332.153694 -192.251954 
L 331.092182 -192.494935 
L 330.03846 -192.737917 
L 329.039299 -192.980898 
L 328.134866 -193.223879 
L 327.353162 -193.46686 
L 326.706782 -193.709841 
L 326.192525 -193.952822 
L 325.793841 -194.195803 
L 325.485654 -194.438785 
L 325.240727 -194.681766 
L 325.036478 -194.924747 
L 324.861081 -195.167728 
L 324.717682 -195.410709 
L 324.625821 -195.65369 
L 324.619564 -195.896672 
L 324.742421 -196.139653 
L 325.039792 -196.382634 
L 325.550288 -196.625615 
L 326.297574 -196.868596 
L 327.284395 -197.111577 
L 328.490008 -197.354559 
L 329.871557 -197.59754 
L 331.369109 -197.840521 
L 332.913344 -198.083502 
L 334.434438 -198.326483 
L 335.87054 -198.569464 
L 337.174481 -198.812446 
L 338.317756 -199.055427 
L 339.291437 -199.298408 
L 340.104201 -199.541389 
L 340.778142 -199.78437 
L 341.343297 -200.027351 
L 341.831945 -200.270333 
L 342.273584 -200.513314 
L 342.691281 -200.756295 
L 343.099724 -200.999276 
L 343.504962 -201.242257 
L 343.905547 -201.485238 
L 344.294607 -201.72822 
L 344.66234 -201.971201 
L 344.998465 -202.214182 
L 345.294286 -202.457163 
L 345.544163 -202.700144 
L 345.746295 -202.943125 
L 345.902839 -203.186107 
L 346.019429 -203.429088 
L 346.104243 -203.672069 
L 346.166784 -203.91505 
L 346.216569 -204.158031 
L 346.261943 -204.401012 
L 346.309183 -204.643993 
L 346.362017 -204.886975 
L 346.4216 -205.129956 
L 346.486895 -205.372937 
L 346.555339 -205.615918 
L 346.623622 -205.858899 
L 346.688435 -206.10188 
L 346.747042 -206.344862 
L 346.797616 -206.587843 
L 346.839337 -206.830824 
L 346.872289 -207.073805 
L 347.027711 -207.073805 
L 347.027711 -207.073805 
L 347.060663 -206.830824 
L 347.102384 -206.587843 
L 347.152958 -206.344862 
L 347.211565 -206.10188 
L 347.276378 -205.858899 
L 347.344661 -205.615918 
L 347.413105 -205.372937 
L 347.4784 -205.129956 
L 347.537983 -204.886975 
L 347.590817 -204.643993 
L 347.638057 -204.401012 
L 347.683431 -204.158031 
L 347.733216 -203.91505 
L 347.795757 -203.672069 
L 347.880571 -203.429088 
L 347.997161 -203.186107 
L 348.153705 -202.943125 
L 348.355837 -202.700144 
L 348.605714 -202.457163 
L 348.901535 -202.214182 
L 349.23766 -201.971201 
L 349.605393 -201.72822 
L 349.994453 -201.485238 
L 350.395038 -201.242257 
L 350.800276 -200.999276 
L 351.208719 -200.756295 
L 351.626416 -200.513314 
L 352.068055 -200.270333 
L 352.556703 -200.027351 
L 353.121858 -199.78437 
L 353.795799 -199.541389 
L 354.608563 -199.298408 
L 355.582244 -199.055427 
L 356.725519 -198.812446 
L 358.02946 -198.569464 
L 359.465562 -198.326483 
L 360.986656 -198.083502 
L 362.530891 -197.840521 
L 364.028443 -197.59754 
L 365.409992 -197.354559 
L 366.615605 -197.111577 
L 367.602426 -196.868596 
L 368.349712 -196.625615 
L 368.860208 -196.382634 
L 369.157579 -196.139653 
L 369.280436 -195.896672 
L 369.274179 -195.65369 
L 369.182318 -195.410709 
L 369.038919 -195.167728 
L 368.863522 -194.924747 
L 368.659273 -194.681766 
L 368.414346 -194.438785 
L 368.106159 -194.195803 
L 367.707475 -193.952822 
L 367.193218 -193.709841 
L 366.546838 -193.46686 
L 365.765134 -193.223879 
L 364.860701 -192.980898 
L 363.86154 -192.737917 
L 362.807818 -192.494935 
L 361.746306 -192.251954 
L 360.723468 -192.008973 
L 359.778476 -191.765992 
L 358.937488 -191.523011 
L 358.210296 -191.28003 
L 357.589967 -191.037048 
L 357.055471 -190.794067 
L 356.57668 -190.551086 
L 356.120612 -190.308105 
L 355.657603 -190.065124 
L 355.166174 -189.822143 
L 354.635726 -189.579161 
L 354.066776 -189.33618 
L 353.469039 -189.093199 
L 352.858091 -188.850218 
L 352.251607 -188.607237 
L 351.666081 -188.364256 
L 351.114619 -188.121274 
L 350.606015 -187.878293 
L 350.14491 -187.635312 
L 349.732606 -187.392331 
L 349.36807 -187.14935 
L 349.04876 -186.906369 
L 348.77115 -186.663387 
L 348.530977 -186.420406 
L 348.323406 -186.177425 
L 348.143229 -185.934444 
L 347.985223 -185.691463 
L 347.844604 -185.448482 
L 347.71748 -185.2055 
L 347.601169 -184.962519 
L 347.494279 -184.719538 
L 347.396536 -184.476557 
L 347.308415 -184.233576 
L 347.230684 -183.990595 
L 347.163982 -183.747613 
L 347.108526 -183.504632 
L 347.06397 -183.261651 
L 347.029431 -183.01867 
z
" style="stroke: #4d4d4d; stroke-width: 1.5"/>
    </defs>
    <g clip-path="url(#pf7b4ded6f5)">
     <use xlink:href="#m01bf4a673d" x="0" y="288" style="fill: #808080; stroke: #4d4d4d; stroke-width: 1.5"/>
    </g>
   </g>
   <g id="matplotlib.axis_1">
    <g id="xtick_1">
     <g id="line2d_1">
      <defs>
       <path id="m0130085827" d="M 0 0 
L 0 3.5 
" style="stroke: #000000; stroke-width: 0.8"/>
      </defs>
      <g>
       <use xlink:href="#m0130085827" x="95.85" y="252" style="stroke: #000000; stroke-width: 0.8"/>
      </g>
     </g>
     <g id="text_1">
      <!-- EGR1_20 -->
      <g transform="translate(73.298437 266.421875)scale(0.1 -0.1)">
       <defs>
        <path id="DejaVuSans-45" d="M 628 4666 
L 3578 4666 
L 3578 4134 
L 1259 4134 
L 1259 2753 
L 3481 2753 
L 3481 2222 
L 1259 2222 
L 1259 531 
L 3634 531 
L 3634 0 
L 628 0 
L 628 4666 
z
" transform="scale(0.015625)"/>
        <path id="DejaVuSans-47" d="M 3809 666 
L 3809 1919 
L 2778 1919 
L 2778 2438 
L 4434 2438 
L 4434 434 
Q 4069 175 3628 42 
Q 3188 -91 2688 -91 
Q 1594 -91 976 548 
Q 359 1188 359 2328 
Q 359 3472 976 4111 
Q 1594 4750 2688 4750 
Q 3144 4750 3555 4637 
Q 3966 4525 4313 4306 
L 4313 3634 
Q 3963 3931 3569 4081 
Q 3175 4231 2741 4231 
Q 1884 4231 1454 3753 
Q 1025 3275 1025 2328 
Q 1025 1384 1454 906 
Q 1884 428 2741 428 
Q 3075 428 3337 486 
Q 3600 544 3809 666 
z
" transform="scale(0.015625)"/>
        <path id="DejaVuSans-52" d="M 2841 2188 
Q 3044 2119 3236 1894 
Q 3428 1669 3622 1275 
L 4263 0 
L 3584 0 
L 2988 1197 
Q 2756 1666 2539 1819 
Q 2322 1972 1947 1972 
L 1259 1972 
L 1259 0 
L 628 0 
L 628 4666 
L 2053 4666 
Q 2853 4666 3247 4331 
Q 3641 3997 3641 3322 
Q 3641 2881 3436 2590 
Q 3231 2300 2841 2188 
z
M 1259 4147 
L 1259 2491 
L 2053 2491 
Q 2509 2491 2742 2702 
Q 2975 2913 2975 3322 
Q 2975 3731 2742 3939 
Q 2509 4147 2053 4147 
L 1259 4147 
z
" transform="scale(0.015625)"/>
        <path id="DejaVuSans-31" d="M 794 531 
L 1825 531 
L 1825 4091 
L 703 3866 
L 703 4441 
L 1819 4666 
L 2450 4666 
L 2450 531 
L 3481 531 
L 3481 0 
L 794 0 
L 794 531 
z
" transform="scale(0.015625)"/>
        <path id="DejaVuSans-5f" d="M 3263 -1063 
L 3263 -1509 
L -63 -1509 
L -63 -1063 
L 3263 -1063 
z
" transform="scale(0.015625)"/>
        <path id="DejaVuSans-32" d="M 1228 531 
L 3431 531 
L 3431 0 
L 469 0 
L 469 531 
Q 828 903 1448 1529 
Q 2069 2156 2228 2338 
Q 2531 2678 2651 2914 
Q 2772 3150 2772 3378 
Q 2772 3750 2511 3984 
Q 2250 4219 1831 4219 
Q 1534 4219 1204 4116 
Q 875 4013 500 3803 
L 500 4441 
Q 881 4594 1212 4672 
Q 1544 4750 1819 4750 
Q 2544 4750 2975 4387 
Q 3406 4025 3406 3419 
Q 3406 3131 3298 2873 
Q 3191 2616 2906 2266 
Q 2828 2175 2409 1742 
Q 1991 1309 1228 531 
z
" transform="scale(0.015625)"/>
        <path id="DejaVuSans-30" d="M 2034 4250 
Q 1547 4250 1301 3770 
Q 1056 3291 1056 2328 
Q 1056 1369 1301 889 
Q 1547 409 2034 409 
Q 2525 409 2770 889 
Q 3016 1369 3016 2328 
Q 3016 3291 2770 3770 
Q 2525 4250 2034 4250 
z
M 2034 4750 
Q 2819 4750 3233 4129 
Q 3647 3509 3647 2328 
Q 3647 1150 3233 529 
Q 2819 -91 2034 -91 
Q 1250 -91 836 529 
Q 422 1150 422 2328 
Q 422 3509 836 4129 
Q 1250 4750 2034 4750 
z
" transform="scale(0.015625)"/>
       </defs>
       <use xlink:href="#DejaVuSans-45"/>
       <use xlink:href="#DejaVuSans-47" x="63.183594"/>
       <use xlink:href="#DejaVuSans-52" x="140.673828"/>
       <use xlink:href="#DejaVuSans-31" x="210.15625"/>
       <use xlink:href="#DejaVuSans-5f" x="273.779297"/>
       <use xlink:href="#DejaVuSans-32" x="323.779297"/>
       <use xlink:href="#DejaVuSans-30" x="387.402344"/>
      </g>
     </g>
    </g>
    <g id="xtick_2">
     <g id="line2d_2">
      <g>
       <use xlink:href="#m0130085827" x="179.55" y="252" style="stroke: #000000; stroke-width: 0.8"/>
      </g>
     </g>
     <g id="text_2">
      <!-- EGR1_25 -->
      <g transform="translate(156.998438 266.421875)scale(0.1 -0.1)">
       <defs>
        <path id="DejaVuSans-35" d="M 691 4666 
L 3169 4666 
L 3169 4134 
L 1269 4134 
L 1269 2991 
Q 1406 3038 1543 3061 
Q 1681 3084 1819 3084 
Q 2600 3084 3056 2656 
Q 3513 2228 3513 1497 
Q 3513 744 3044 326 
Q 2575 -91 1722 -91 
Q 1428 -91 1123 -41 
Q 819 9 494 109 
L 494 744 
Q 775 591 1075 516 
Q 1375 441 1709 441 
Q 2250 441 2565 725 
Q 2881 1009 2881 1497 
Q 2881 1984 2565 2268 
Q 2250 2553 1709 2553 
Q 1456 2553 1204 2497 
Q 953 2441 691 2322 
L 691 4666 
z
" transform="scale(0.015625)"/>
       </defs>
       <use xlink:href="#DejaVuSans-45"/>
       <use xlink:href="#DejaVuSans-47" x="63.183594"/>
       <use xlink:href="#DejaVuSans-52" x="140.673828"/>
       <use xlink:href="#DejaVuSans-31" x="210.15625"/>
       <use xlink:href="#DejaVuSans-5f" x="273.779297"/>
       <use xlink:href="#DejaVuSans-32" x="323.779297"/>
       <use xlink:href="#DejaVuSans-35" x="387.402344"/>
      </g>
     </g>
    </g>
    <g id="xtick_3">
     <g id="line2d_3">
      <g>
       <use xlink:href="#m0130085827" x="263.25" y="252" style="stroke: #000000; stroke-width: 0.8"/>
      </g>
     </g>
     <g id="text_3">
      <!-- EGR1_30 -->
      <g transform="translate(240.698438 266.421875)scale(0.1 -0.1)">
       <defs>
        <path id="DejaVuSans-33" d="M 2597 2516 
Q 3050 2419 3304 2112 
Q 3559 1806 3559 1356 
Q 3559 666 3084 287 
Q 2609 -91 1734 -91 
Q 1441 -91 1130 -33 
Q 819 25 488 141 
L 488 750 
Q 750 597 1062 519 
Q 1375 441 1716 441 
Q 2309 441 2620 675 
Q 2931 909 2931 1356 
Q 2931 1769 2642 2001 
Q 2353 2234 1838 2234 
L 1294 2234 
L 1294 2753 
L 1863 2753 
Q 2328 2753 2575 2939 
Q 2822 3125 2822 3475 
Q 2822 3834 2567 4026 
Q 2313 4219 1838 4219 
Q 1578 4219 1281 4162 
Q 984 4106 628 3988 
L 628 4550 
Q 988 4650 1302 4700 
Q 1616 4750 1894 4750 
Q 2613 4750 3031 4423 
Q 3450 4097 3450 3541 
Q 3450 3153 3228 2886 
Q 3006 2619 2597 2516 
z
" transform="scale(0.015625)"/>
       </defs>
       <use xlink:href="#DejaVuSans-45"/>
       <use xlink:href="#DejaVuSans-47" x="63.183594"/>
       <use xlink:href="#DejaVuSans-52" x="140.673828"/>
       <use xlink:href="#DejaVuSans-31" x="210.15625"/>
       <use xlink:href="#DejaVuSans-5f" x="273.779297"/>
       <use xlink:href="#DejaVuSans-33" x="323.779297"/>
       <use xlink:href="#DejaVuSans-30" x="387.402344"/>
      </g>
     </g>
    </g>
    <g id="xtick_4">
     <g id="line2d_4">
      <g>
       <use xlink:href="#m0130085827" x="346.95" y="252" style="stroke: #000000; stroke-width: 0.8"/>
      </g>
     </g>
     <g id="text_4">
      <!-- EGR1_pwm -->
      <g transform="translate(318.627344 266.421875)scale(0.1 -0.1)">
       <defs>
        <path id="DejaVuSans-70" d="M 1159 525 
L 1159 -1331 
L 581 -1331 
L 581 3500 
L 1159 3500 
L 1159 2969 
Q 1341 3281 1617 3432 
Q 1894 3584 2278 3584 
Q 2916 3584 3314 3078 
Q 3713 2572 3713 1747 
Q 3713 922 3314 415 
Q 2916 -91 2278 -91 
Q 1894 -91 1617 61 
Q 1341 213 1159 525 
z
M 3116 1747 
Q 3116 2381 2855 2742 
Q 2594 3103 2138 3103 
Q 1681 3103 1420 2742 
Q 1159 2381 1159 1747 
Q 1159 1113 1420 752 
Q 1681 391 2138 391 
Q 2594 391 2855 752 
Q 3116 1113 3116 1747 
z
" transform="scale(0.015625)"/>
        <path id="DejaVuSans-77" d="M 269 3500 
L 844 3500 
L 1563 769 
L 2278 3500 
L 2956 3500 
L 3675 769 
L 4391 3500 
L 4966 3500 
L 4050 0 
L 3372 0 
L 2619 2869 
L 1863 0 
L 1184 0 
L 269 3500 
z
" transform="scale(0.015625)"/>
        <path id="DejaVuSans-6d" d="M 3328 2828 
Q 3544 3216 3844 3400 
Q 4144 3584 4550 3584 
Q 5097 3584 5394 3201 
Q 5691 2819 5691 2113 
L 5691 0 
L 5113 0 
L 5113 2094 
Q 5113 2597 4934 2840 
Q 4756 3084 4391 3084 
Q 3944 3084 3684 2787 
Q 3425 2491 3425 1978 
L 3425 0 
L 2847 0 
L 2847 2094 
Q 2847 2600 2669 2842 
Q 2491 3084 2119 3084 
Q 1678 3084 1418 2786 
Q 1159 2488 1159 1978 
L 1159 0 
L 581 0 
L 581 3500 
L 1159 3500 
L 1159 2956 
Q 1356 3278 1631 3431 
Q 1906 3584 2284 3584 
Q 2666 3584 2933 3390 
Q 3200 3197 3328 2828 
z
" transform="scale(0.015625)"/>
       </defs>
       <use xlink:href="#DejaVuSans-45"/>
       <use xlink:href="#DejaVuSans-47" x="63.183594"/>
       <use xlink:href="#DejaVuSans-52" x="140.673828"/>
       <use xlink:href="#DejaVuSans-31" x="210.15625"/>
       <use xlink:href="#DejaVuSans-5f" x="273.779297"/>
       <use xlink:href="#DejaVuSans-70" x="323.779297"/>
       <use xlink:href="#DejaVuSans-77" x="387.255859"/>
       <use xlink:href="#DejaVuSans-6d" x="469.042969"/>
      </g>
     </g>
    </g>
    <g id="text_5">
     <!-- variable -->
     <g transform="translate(201.228125 280.378125)scale(0.1 -0.1)">
      <defs>
       <path id="DejaVuSans-76" d="M 191 3500 
L 800 3500 
L 1894 563 
L 2988 3500 
L 3597 3500 
L 2284 0 
L 1503 0 
L 191 3500 
z
" transform="scale(0.015625)"/>
       <path id="DejaVuSans-61" d="M 2194 1759 
Q 1497 1759 1228 1600 
Q 959 1441 959 1056 
Q 959 750 1161 570 
Q 1363 391 1709 391 
Q 2188 391 2477 730 
Q 2766 1069 2766 1631 
L 2766 1759 
L 2194 1759 
z
M 3341 1997 
L 3341 0 
L 2766 0 
L 2766 531 
Q 2569 213 2275 61 
Q 1981 -91 1556 -91 
Q 1019 -91 701 211 
Q 384 513 384 1019 
Q 384 1609 779 1909 
Q 1175 2209 1959 2209 
L 2766 2209 
L 2766 2266 
Q 2766 2663 2505 2880 
Q 2244 3097 1772 3097 
Q 1472 3097 1187 3025 
Q 903 2953 641 2809 
L 641 3341 
Q 956 3463 1253 3523 
Q 1550 3584 1831 3584 
Q 2591 3584 2966 3190 
Q 3341 2797 3341 1997 
z
" transform="scale(0.015625)"/>
       <path id="DejaVuSans-72" d="M 2631 2963 
Q 2534 3019 2420 3045 
Q 2306 3072 2169 3072 
Q 1681 3072 1420 2755 
Q 1159 2438 1159 1844 
L 1159 0 
L 581 0 
L 581 3500 
L 1159 3500 
L 1159 2956 
Q 1341 3275 1631 3429 
Q 1922 3584 2338 3584 
Q 2397 3584 2469 3576 
Q 2541 3569 2628 3553 
L 2631 2963 
z
" transform="scale(0.015625)"/>
       <path id="DejaVuSans-69" d="M 603 3500 
L 1178 3500 
L 1178 0 
L 603 0 
L 603 3500 
z
M 603 4863 
L 1178 4863 
L 1178 4134 
L 603 4134 
L 603 4863 
z
" transform="scale(0.015625)"/>
       <path id="DejaVuSans-62" d="M 3116 1747 
Q 3116 2381 2855 2742 
Q 2594 3103 2138 3103 
Q 1681 3103 1420 2742 
Q 1159 2381 1159 1747 
Q 1159 1113 1420 752 
Q 1681 391 2138 391 
Q 2594 391 2855 752 
Q 3116 1113 3116 1747 
z
M 1159 2969 
Q 1341 3281 1617 3432 
Q 1894 3584 2278 3584 
Q 2916 3584 3314 3078 
Q 3713 2572 3713 1747 
Q 3713 922 3314 415 
Q 2916 -91 2278 -91 
Q 1894 -91 1617 61 
Q 1341 213 1159 525 
L 1159 0 
L 581 0 
L 581 4863 
L 1159 4863 
L 1159 2969 
z
" transform="scale(0.015625)"/>
       <path id="DejaVuSans-6c" d="M 603 4863 
L 1178 4863 
L 1178 0 
L 603 0 
L 603 4863 
z
" transform="scale(0.015625)"/>
       <path id="DejaVuSans-65" d="M 3597 1894 
L 3597 1613 
L 953 1613 
Q 991 1019 1311 708 
Q 1631 397 2203 397 
Q 2534 397 2845 478 
Q 3156 559 3463 722 
L 3463 178 
Q 3153 47 2828 -22 
Q 2503 -91 2169 -91 
Q 1331 -91 842 396 
Q 353 884 353 1716 
Q 353 2575 817 3079 
Q 1281 3584 2069 3584 
Q 2775 3584 3186 3129 
Q 3597 2675 3597 1894 
z
M 3022 2063 
Q 3016 2534 2758 2815 
Q 2500 3097 2075 3097 
Q 1594 3097 1305 2825 
Q 1016 2553 972 2059 
L 3022 2063 
z
" transform="scale(0.015625)"/>
      </defs>
      <use xlink:href="#DejaVuSans-76"/>
      <use xlink:href="#DejaVuSans-61" x="59.179688"/>
      <use xlink:href="#DejaVuSans-72" x="120.458984"/>
      <use xlink:href="#DejaVuSans-69" x="161.572266"/>
      <use xlink:href="#DejaVuSans-61" x="189.355469"/>
      <use xlink:href="#DejaVuSans-62" x="250.634766"/>
      <use xlink:href="#DejaVuSans-6c" x="314.111328"/>
      <use xlink:href="#DejaVuSans-65" x="341.894531"/>
     </g>
    </g>
   </g>
   <g id="matplotlib.axis_2">
    <g id="ytick_1">
     <g id="line2d_5">
      <defs>
       <path id="mb3a941bf2d" d="M 0 0 
L -3.5 0 
" style="stroke: #000000; stroke-width: 0.8"/>
      </defs>
      <g>
       <use xlink:href="#mb3a941bf2d" x="54" y="252" style="stroke: #000000; stroke-width: 0.8"/>
      </g>
     </g>
     <g id="text_6">
      <!-- 0.001 -->
      <g transform="translate(18.371875 255.799219)scale(0.1 -0.1)">
       <defs>
        <path id="DejaVuSans-2e" d="M 684 794 
L 1344 794 
L 1344 0 
L 684 0 
L 684 794 
z
" transform="scale(0.015625)"/>
       </defs>
       <use xlink:href="#DejaVuSans-30"/>
       <use xlink:href="#DejaVuSans-2e" x="63.623047"/>
       <use xlink:href="#DejaVuSans-30" x="95.410156"/>
       <use xlink:href="#DejaVuSans-30" x="159.033203"/>
       <use xlink:href="#DejaVuSans-31" x="222.65625"/>
      </g>
     </g>
    </g>
    <g id="ytick_2">
     <g id="line2d_6">
      <g>
       <use xlink:href="#mb3a941bf2d" x="54" y="225.482927" style="stroke: #000000; stroke-width: 0.8"/>
      </g>
     </g>
     <g id="text_7">
      <!-- 0.002 -->
      <g transform="translate(18.371875 229.282146)scale(0.1 -0.1)">
       <use xlink:href="#DejaVuSans-30"/>
       <use xlink:href="#DejaVuSans-2e" x="63.623047"/>
       <use xlink:href="#DejaVuSans-30" x="95.410156"/>
       <use xlink:href="#DejaVuSans-30" x="159.033203"/>
       <use xlink:href="#DejaVuSans-32" x="222.65625"/>
      </g>
     </g>
    </g>
    <g id="ytick_3">
     <g id="line2d_7">
      <g>
       <use xlink:href="#mb3a941bf2d" x="54" y="198.965854" style="stroke: #000000; stroke-width: 0.8"/>
      </g>
     </g>
     <g id="text_8">
      <!-- 0.003 -->
      <g transform="translate(18.371875 202.765072)scale(0.1 -0.1)">
       <use xlink:href="#DejaVuSans-30"/>
       <use xlink:href="#DejaVuSans-2e" x="63.623047"/>
       <use xlink:href="#DejaVuSans-30" x="95.410156"/>
       <use xlink:href="#DejaVuSans-30" x="159.033203"/>
       <use xlink:href="#DejaVuSans-33" x="222.65625"/>
      </g>
     </g>
    </g>
    <g id="ytick_4">
     <g id="line2d_8">
      <g>
       <use xlink:href="#mb3a941bf2d" x="54" y="172.44878" style="stroke: #000000; stroke-width: 0.8"/>
      </g>
     </g>
     <g id="text_9">
      <!-- 0.004 -->
      <g transform="translate(18.371875 176.247999)scale(0.1 -0.1)">
       <defs>
        <path id="DejaVuSans-34" d="M 2419 4116 
L 825 1625 
L 2419 1625 
L 2419 4116 
z
M 2253 4666 
L 3047 4666 
L 3047 1625 
L 3713 1625 
L 3713 1100 
L 3047 1100 
L 3047 0 
L 2419 0 
L 2419 1100 
L 313 1100 
L 313 1709 
L 2253 4666 
z
" transform="scale(0.015625)"/>
       </defs>
       <use xlink:href="#DejaVuSans-30"/>
       <use xlink:href="#DejaVuSans-2e" x="63.623047"/>
       <use xlink:href="#DejaVuSans-30" x="95.410156"/>
       <use xlink:href="#DejaVuSans-30" x="159.033203"/>
       <use xlink:href="#DejaVuSans-34" x="222.65625"/>
      </g>
     </g>
    </g>
    <g id="ytick_5">
     <g id="line2d_9">
      <g>
       <use xlink:href="#mb3a941bf2d" x="54" y="145.931707" style="stroke: #000000; stroke-width: 0.8"/>
      </g>
     </g>
     <g id="text_10">
      <!-- 0.005 -->
      <g transform="translate(18.371875 149.730926)scale(0.1 -0.1)">
       <use xlink:href="#DejaVuSans-30"/>
       <use xlink:href="#DejaVuSans-2e" x="63.623047"/>
       <use xlink:href="#DejaVuSans-30" x="95.410156"/>
       <use xlink:href="#DejaVuSans-30" x="159.033203"/>
       <use xlink:href="#DejaVuSans-35" x="222.65625"/>
      </g>
     </g>
    </g>
    <g id="ytick_6">
     <g id="line2d_10">
      <g>
       <use xlink:href="#mb3a941bf2d" x="54" y="119.414634" style="stroke: #000000; stroke-width: 0.8"/>
      </g>
     </g>
     <g id="text_11">
      <!-- 0.006 -->
      <g transform="translate(18.371875 123.213853)scale(0.1 -0.1)">
       <defs>
        <path id="DejaVuSans-36" d="M 2113 2584 
Q 1688 2584 1439 2293 
Q 1191 2003 1191 1497 
Q 1191 994 1439 701 
Q 1688 409 2113 409 
Q 2538 409 2786 701 
Q 3034 994 3034 1497 
Q 3034 2003 2786 2293 
Q 2538 2584 2113 2584 
z
M 3366 4563 
L 3366 3988 
Q 3128 4100 2886 4159 
Q 2644 4219 2406 4219 
Q 1781 4219 1451 3797 
Q 1122 3375 1075 2522 
Q 1259 2794 1537 2939 
Q 1816 3084 2150 3084 
Q 2853 3084 3261 2657 
Q 3669 2231 3669 1497 
Q 3669 778 3244 343 
Q 2819 -91 2113 -91 
Q 1303 -91 875 529 
Q 447 1150 447 2328 
Q 447 3434 972 4092 
Q 1497 4750 2381 4750 
Q 2619 4750 2861 4703 
Q 3103 4656 3366 4563 
z
" transform="scale(0.015625)"/>
       </defs>
       <use xlink:href="#DejaVuSans-30"/>
       <use xlink:href="#DejaVuSans-2e" x="63.623047"/>
       <use xlink:href="#DejaVuSans-30" x="95.410156"/>
       <use xlink:href="#DejaVuSans-30" x="159.033203"/>
       <use xlink:href="#DejaVuSans-36" x="222.65625"/>
      </g>
     </g>
    </g>
    <g id="ytick_7">
     <g id="line2d_11">
      <g>
       <use xlink:href="#mb3a941bf2d" x="54" y="92.897561" style="stroke: #000000; stroke-width: 0.8"/>
      </g>
     </g>
     <g id="text_12">
      <!-- 0.007 -->
      <g transform="translate(18.371875 96.69678)scale(0.1 -0.1)">
       <defs>
        <path id="DejaVuSans-37" d="M 525 4666 
L 3525 4666 
L 3525 4397 
L 1831 0 
L 1172 0 
L 2766 4134 
L 525 4134 
L 525 4666 
z
" transform="scale(0.015625)"/>
       </defs>
       <use xlink:href="#DejaVuSans-30"/>
       <use xlink:href="#DejaVuSans-2e" x="63.623047"/>
       <use xlink:href="#DejaVuSans-30" x="95.410156"/>
       <use xlink:href="#DejaVuSans-30" x="159.033203"/>
       <use xlink:href="#DejaVuSans-37" x="222.65625"/>
      </g>
     </g>
    </g>
    <g id="ytick_8">
     <g id="line2d_12">
      <g>
       <use xlink:href="#mb3a941bf2d" x="54" y="66.380488" style="stroke: #000000; stroke-width: 0.8"/>
      </g>
     </g>
     <g id="text_13">
      <!-- 0.008 -->
      <g transform="translate(18.371875 70.179707)scale(0.1 -0.1)">
       <defs>
        <path id="DejaVuSans-38" d="M 2034 2216 
Q 1584 2216 1326 1975 
Q 1069 1734 1069 1313 
Q 1069 891 1326 650 
Q 1584 409 2034 409 
Q 2484 409 2743 651 
Q 3003 894 3003 1313 
Q 3003 1734 2745 1975 
Q 2488 2216 2034 2216 
z
M 1403 2484 
Q 997 2584 770 2862 
Q 544 3141 544 3541 
Q 544 4100 942 4425 
Q 1341 4750 2034 4750 
Q 2731 4750 3128 4425 
Q 3525 4100 3525 3541 
Q 3525 3141 3298 2862 
Q 3072 2584 2669 2484 
Q 3125 2378 3379 2068 
Q 3634 1759 3634 1313 
Q 3634 634 3220 271 
Q 2806 -91 2034 -91 
Q 1263 -91 848 271 
Q 434 634 434 1313 
Q 434 1759 690 2068 
Q 947 2378 1403 2484 
z
M 1172 3481 
Q 1172 3119 1398 2916 
Q 1625 2713 2034 2713 
Q 2441 2713 2670 2916 
Q 2900 3119 2900 3481 
Q 2900 3844 2670 4047 
Q 2441 4250 2034 4250 
Q 1625 4250 1398 4047 
Q 1172 3844 1172 3481 
z
" transform="scale(0.015625)"/>
       </defs>
       <use xlink:href="#DejaVuSans-30"/>
       <use xlink:href="#DejaVuSans-2e" x="63.623047"/>
       <use xlink:href="#DejaVuSans-30" x="95.410156"/>
       <use xlink:href="#DejaVuSans-30" x="159.033203"/>
       <use xlink:href="#DejaVuSans-38" x="222.65625"/>
      </g>
     </g>
    </g>
    <g id="ytick_9">
     <g id="line2d_13">
      <g>
       <use xlink:href="#mb3a941bf2d" x="54" y="39.863415" style="stroke: #000000; stroke-width: 0.8"/>
      </g>
     </g>
     <g id="text_14">
      <!-- 0.009 -->
      <g transform="translate(18.371875 43.662633)scale(0.1 -0.1)">
       <defs>
        <path id="DejaVuSans-39" d="M 703 97 
L 703 672 
Q 941 559 1184 500 
Q 1428 441 1663 441 
Q 2288 441 2617 861 
Q 2947 1281 2994 2138 
Q 2813 1869 2534 1725 
Q 2256 1581 1919 1581 
Q 1219 1581 811 2004 
Q 403 2428 403 3163 
Q 403 3881 828 4315 
Q 1253 4750 1959 4750 
Q 2769 4750 3195 4129 
Q 3622 3509 3622 2328 
Q 3622 1225 3098 567 
Q 2575 -91 1691 -91 
Q 1453 -91 1209 -44 
Q 966 3 703 97 
z
M 1959 2075 
Q 2384 2075 2632 2365 
Q 2881 2656 2881 3163 
Q 2881 3666 2632 3958 
Q 2384 4250 1959 4250 
Q 1534 4250 1286 3958 
Q 1038 3666 1038 3163 
Q 1038 2656 1286 2365 
Q 1534 2075 1959 2075 
z
" transform="scale(0.015625)"/>
       </defs>
       <use xlink:href="#DejaVuSans-30"/>
       <use xlink:href="#DejaVuSans-2e" x="63.623047"/>
       <use xlink:href="#DejaVuSans-30" x="95.410156"/>
       <use xlink:href="#DejaVuSans-30" x="159.033203"/>
       <use xlink:href="#DejaVuSans-39" x="222.65625"/>
      </g>
     </g>
    </g>
    <g id="text_15">
     <!-- value -->
     <g transform="translate(12.292187 156.937813)rotate(-90)scale(0.1 -0.1)">
      <defs>
       <path id="DejaVuSans-75" d="M 544 1381 
L 544 3500 
L 1119 3500 
L 1119 1403 
Q 1119 906 1312 657 
Q 1506 409 1894 409 
Q 2359 409 2629 706 
Q 2900 1003 2900 1516 
L 2900 3500 
L 3475 3500 
L 3475 0 
L 2900 0 
L 2900 538 
Q 2691 219 2414 64 
Q 2138 -91 1772 -91 
Q 1169 -91 856 284 
Q 544 659 544 1381 
z
M 1991 3584 
L 1991 3584 
z
" transform="scale(0.015625)"/>
      </defs>
      <use xlink:href="#DejaVuSans-76"/>
      <use xlink:href="#DejaVuSans-61" x="59.179688"/>
      <use xlink:href="#DejaVuSans-6c" x="120.458984"/>
      <use xlink:href="#DejaVuSans-75" x="148.242188"/>
      <use xlink:href="#DejaVuSans-65" x="211.621094"/>
     </g>
    </g>
   </g>
   <g id="line2d_14">
    <path d="M 95.85 223.038902 
L 95.85 212.673025 
" clip-path="url(#pf7b4ded6f5)" style="fill: none; stroke: #4d4d4d; stroke-width: 1.5; stroke-linecap: square"/>
   </g>
   <g id="line2d_15">
    <path d="M 95.85 219.659626 
L 95.85 216.798644 
" clip-path="url(#pf7b4ded6f5)" style="fill: none; stroke: #4d4d4d; stroke-width: 4.5; stroke-linecap: square"/>
   </g>
   <g id="line2d_16">
    <path d="M 179.55 229.028071 
L 179.55 214.915237 
" clip-path="url(#pf7b4ded6f5)" style="fill: none; stroke: #4d4d4d; stroke-width: 1.5; stroke-linecap: square"/>
   </g>
   <g id="line2d_17">
    <path d="M 179.55 224.182664 
L 179.55 219.572472 
" clip-path="url(#pf7b4ded6f5)" style="fill: none; stroke: #4d4d4d; stroke-width: 4.5; stroke-linecap: square"/>
   </g>
   <g id="line2d_18">
    <path d="M 263.25 235.816472 
L 263.25 212.600612 
" clip-path="url(#pf7b4ded6f5)" style="fill: none; stroke: #4d4d4d; stroke-width: 1.5; stroke-linecap: square"/>
   </g>
   <g id="line2d_19">
    <path d="M 263.25 226.695956 
L 263.25 220.062852 
" clip-path="url(#pf7b4ded6f5)" style="fill: none; stroke: #4d4d4d; stroke-width: 4.5; stroke-linecap: square"/>
   </g>
   <g id="line2d_20">
    <path d="M 346.95 100.247425 
L 346.95 86.241803 
" clip-path="url(#pf7b4ded6f5)" style="fill: none; stroke: #4d4d4d; stroke-width: 1.5; stroke-linecap: square"/>
   </g>
   <g id="line2d_21">
    <path d="M 346.95 95.056843 
L 346.95 91.15272 
" clip-path="url(#pf7b4ded6f5)" style="fill: none; stroke: #4d4d4d; stroke-width: 4.5; stroke-linecap: square"/>
   </g>
   <g id="patch_3">
    <path d="M 54 252 
L 54 34.56 
" style="fill: none; stroke: #000000; stroke-width: 0.8; stroke-linejoin: miter; stroke-linecap: square"/>
   </g>
   <g id="patch_4">
    <path d="M 388.8 252 
L 388.8 34.56 
" style="fill: none; stroke: #000000; stroke-width: 0.8; stroke-linejoin: miter; stroke-linecap: square"/>
   </g>
   <g id="patch_5">
    <path d="M 54 252 
L 388.8 252 
" style="fill: none; stroke: #000000; stroke-width: 0.8; stroke-linejoin: miter; stroke-linecap: square"/>
   </g>
   <g id="patch_6">
    <path d="M 54 34.56 
L 388.8 34.56 
" style="fill: none; stroke: #000000; stroke-width: 0.8; stroke-linejoin: miter; stroke-linecap: square"/>
   </g>
   <g id="PathCollection_1">
    <defs>
     <path id="meae614db3c" d="M 0 1.5 
C 0.397805 1.5 0.77937 1.341951 1.06066 1.06066 
C 1.341951 0.77937 1.5 0.397805 1.5 0 
C 1.5 -0.397805 1.341951 -0.77937 1.06066 -1.06066 
C 0.77937 -1.341951 0.397805 -1.5 0 -1.5 
C -0.397805 -1.5 -0.77937 -1.341951 -1.06066 -1.06066 
C -1.341951 -0.77937 -1.5 -0.397805 -1.5 0 
C -1.5 0.397805 -1.341951 0.77937 -1.06066 1.06066 
C -0.77937 1.341951 -0.397805 1.5 0 1.5 
z
" style="stroke: #4d4d4d"/>
    </defs>
    <g clip-path="url(#pf7b4ded6f5)">
     <use xlink:href="#meae614db3c" x="95.85" y="218.063281" style="fill: #ffffff; stroke: #4d4d4d"/>
    </g>
   </g>
   <g id="PathCollection_2">
    <g clip-path="url(#pf7b4ded6f5)">
     <use xlink:href="#meae614db3c" x="179.55" y="221.783483" style="fill: #ffffff; stroke: #4d4d4d"/>
    </g>
   </g>
   <g id="PathCollection_3">
    <g clip-path="url(#pf7b4ded6f5)">
     <use xlink:href="#meae614db3c" x="263.25" y="223.379404" style="fill: #ffffff; stroke: #4d4d4d"/>
    </g>
   </g>
   <g id="PathCollection_4">
    <g clip-path="url(#pf7b4ded6f5)">
     <use xlink:href="#meae614db3c" x="346.95" y="93.132748" style="fill: #ffffff; stroke: #4d4d4d"/>
    </g>
   </g>
   <g id="PathCollection_5">
    <defs>
     <path id="m1c3ee31d51" d="M -0 5.656854 
L 5.656854 0 
L 0 -5.656854 
L -5.656854 -0 
z
" style="stroke: #4c4c4c"/>
    </defs>
    <g clip-path="url(#pf7b4ded6f5)">
     <use xlink:href="#m1c3ee31d51" x="95.85" y="126.428933" style="fill: #ff0000; stroke: #4c4c4c"/>
    </g>
   </g>
   <g id="PathCollection_6">
    <g clip-path="url(#pf7b4ded6f5)">
     <use xlink:href="#m1c3ee31d51" x="179.55" y="121.958708" style="fill: #ff0000; stroke: #4c4c4c"/>
    </g>
   </g>
   <g id="PathCollection_7">
    <g clip-path="url(#pf7b4ded6f5)">
     <use xlink:href="#m1c3ee31d51" x="263.25" y="101.496135" style="fill: #ff0000; stroke: #4c4c4c"/>
    </g>
   </g>
   <g id="PathCollection_8">
    <g clip-path="url(#pf7b4ded6f5)">
     <use xlink:href="#m1c3ee31d51" x="346.95" y="61.676031" style="fill: #ff0000; stroke: #4c4c4c"/>
    </g>
   </g>
   <g id="legend_1"/>
  </g>
 </g>
 <defs>
  <clipPath id="pf7b4ded6f5">
   <rect x="54" y="34.56" width="334.8" height="217.44"/>
  </clipPath>
 </defs>
</svg>
