<?xml version="1.0" encoding="utf-8" standalone="no"?>
<!DOCTYPE svg PUBLIC "-//W3C//DTD SVG 1.1//EN"
  "http://www.w3.org/Graphics/SVG/1.1/DTD/svg11.dtd">
<svg xmlns:xlink="http://www.w3.org/1999/xlink" width="432pt" height="288pt" viewBox="0 0 432 288" xmlns="http://www.w3.org/2000/svg" version="1.1">
 <metadata>
  <rdf:RDF xmlns:dc="http://purl.org/dc/elements/1.1/" xmlns:cc="http://creativecommons.org/ns#" xmlns:rdf="http://www.w3.org/1999/02/22-rdf-syntax-ns#">
   <cc:Work>
    <dc:type rdf:resource="http://purl.org/dc/dcmitype/StillImage"/>
    <dc:date>2023-01-26T20:14:49.522041</dc:date>
    <dc:format>image/svg+xml</dc:format>
    <dc:creator>
     <cc:Agent>
      <dc:title>Matplotlib v3.5.1, https://matplotlib.org/</dc:title>
     </cc:Agent>
    </dc:creator>
   </cc:Work>
  </rdf:RDF>
 </metadata>
 <defs>
  <style type="text/css">*{stroke-linejoin: round; stroke-linecap: butt}</style>
 </defs>
 <g id="figure_1">
  <g id="patch_1">
   <path d="M 0 288 
L 432 288 
L 432 0 
L 0 0 
L 0 288 
z
" style="fill: none"/>
  </g>
  <g id="axes_1">
   <g id="patch_2">
    <path d="M 54 252 
L 388.8 252 
L 388.8 34.56 
L 54 34.56 
z
" style="fill: #ffffff"/>
   </g>
   <g id="PolyCollection_1">
    <defs>
     <path id="meb58a5a1c3" d="M 96.024383 -110.934273 
L 95.675617 -110.934273 
L 95.601189 -111.123702 
L 95.504066 -111.313131 
L 95.381121 -111.50256 
L 95.230139 -111.691989 
L 95.05024 -111.881418 
L 94.842201 -112.070847 
L 94.608579 -112.260276 
L 94.353582 -112.449705 
L 94.082652 -112.639134 
L 93.801782 -112.828564 
L 93.516642 -113.017993 
L 93.23166 -113.207422 
L 92.949173 -113.396851 
L 92.668827 -113.58628 
L 92.387323 -113.775709 
L 92.098561 -113.965138 
L 91.794197 -114.154567 
L 91.464537 -114.343996 
L 91.099653 -114.533425 
L 90.690587 -114.722855 
L 90.230485 -114.912284 
L 89.715522 -115.101713 
L 89.145475 -115.291142 
L 88.523862 -115.480571 
L 87.85756 -115.67 
L 87.155904 -115.859429 
L 86.429295 -116.048858 
L 85.687443 -116.238287 
L 84.937437 -116.427716 
L 84.181926 -116.617145 
L 83.417745 -116.806575 
L 82.635321 -116.996004 
L 81.819149 -117.185433 
L 80.949473 -117.374862 
L 80.005102 -117.564291 
L 78.967043 -117.75372 
L 77.822404 -117.943149 
L 76.567867 -118.132578 
L 75.212022 -118.322007 
L 73.776012 -118.511436 
L 72.292231 -118.700866 
L 70.801207 -118.890295 
L 69.347205 -119.079724 
L 67.97333 -119.269153 
L 66.717037 -119.458582 
L 65.606807 -119.648011 
L 64.660493 -119.83744 
L 63.885438 -120.026869 
L 63.280104 -120.216298 
L 62.836723 -120.405727 
L 62.544354 -120.595156 
L 62.391802 -120.784586 
L 62.37 -120.974015 
L 62.473608 -121.163444 
L 62.701753 -121.352873 
L 63.057872 -121.542302 
L 63.548696 -121.731731 
L 64.182441 -121.92116 
L 64.966363 -122.110589 
L 65.903974 -122.300018 
L 66.992354 -122.489447 
L 68.220098 -122.678877 
L 69.566436 -122.868306 
L 71.001899 -123.057735 
L 72.49061 -123.247164 
L 73.993954 -123.436593 
L 75.475003 -123.626022 
L 76.902899 -123.815451 
L 78.256335 -124.00488 
L 79.525442 -124.194309 
L 80.711725 -124.383738 
L 81.826068 -124.573167 
L 82.885264 -124.762597 
L 83.907763 -124.952026 
L 84.909502 -125.141455 
L 85.900611 -125.330884 
L 86.88355 -125.520313 
L 87.852926 -125.709742 
L 88.79688 -125.899171 
L 89.699618 -126.0886 
L 90.544474 -126.278029 
L 91.316865 -126.467458 
L 92.006575 -126.656888 
L 92.609013 -126.846317 
L 93.125358 -127.035746 
L 93.561731 -127.225175 
L 93.927686 -127.414604 
L 94.234448 -127.604033 
L 94.493237 -127.793462 
L 94.713985 -127.982891 
L 94.904586 -128.17232 
L 95.070683 -128.361749 
L 95.215897 -128.551178 
L 95.342329 -128.740608 
L 95.451167 -128.930037 
L 95.543238 -129.119466 
L 95.619418 -129.308895 
L 95.68086 -129.498324 
L 95.729054 -129.687753 
L 95.970946 -129.687753 
L 95.970946 -129.687753 
L 96.01914 -129.498324 
L 96.080582 -129.308895 
L 96.156762 -129.119466 
L 96.248833 -128.930037 
L 96.357671 -128.740608 
L 96.484103 -128.551178 
L 96.629317 -128.361749 
L 96.795414 -128.17232 
L 96.986015 -127.982891 
L 97.206763 -127.793462 
L 97.465552 -127.604033 
L 97.772314 -127.414604 
L 98.138269 -127.225175 
L 98.574642 -127.035746 
L 99.090987 -126.846317 
L 99.693425 -126.656888 
L 100.383135 -126.467458 
L 101.155526 -126.278029 
L 102.000382 -126.0886 
L 102.90312 -125.899171 
L 103.847074 -125.709742 
L 104.81645 -125.520313 
L 105.799389 -125.330884 
L 106.790498 -125.141455 
L 107.792237 -124.952026 
L 108.814736 -124.762597 
L 109.873932 -124.573167 
L 110.988275 -124.383738 
L 112.174558 -124.194309 
L 113.443665 -124.00488 
L 114.797101 -123.815451 
L 116.224997 -123.626022 
L 117.706046 -123.436593 
L 119.20939 -123.247164 
L 120.698101 -123.057735 
L 122.133564 -122.868306 
L 123.479902 -122.678877 
L 124.707646 -122.489447 
L 125.796026 -122.300018 
L 126.733637 -122.110589 
L 127.517559 -121.92116 
L 128.151304 -121.731731 
L 128.642128 -121.542302 
L 128.998247 -121.352873 
L 129.226392 -121.163444 
L 129.33 -120.974015 
L 129.308198 -120.784586 
L 129.155646 -120.595156 
L 128.863277 -120.405727 
L 128.419896 -120.216298 
L 127.814562 -120.026869 
L 127.039507 -119.83744 
L 126.093193 -119.648011 
L 124.982963 -119.458582 
L 123.72667 -119.269153 
L 122.352795 -119.079724 
L 120.898793 -118.890295 
L 119.407769 -118.700866 
L 117.923988 -118.511436 
L 116.487978 -118.322007 
L 115.132133 -118.132578 
L 113.877596 -117.943149 
L 112.732957 -117.75372 
L 111.694898 -117.564291 
L 110.750527 -117.374862 
L 109.880851 -117.185433 
L 109.064679 -116.996004 
L 108.282255 -116.806575 
L 107.518074 -116.617145 
L 106.762563 -116.427716 
L 106.012557 -116.238287 
L 105.270705 -116.048858 
L 104.544096 -115.859429 
L 103.84244 -115.67 
L 103.176138 -115.480571 
L 102.554525 -115.291142 
L 101.984478 -115.101713 
L 101.469515 -114.912284 
L 101.009413 -114.722855 
L 100.600347 -114.533425 
L 100.235463 -114.343996 
L 99.905803 -114.154567 
L 99.601439 -113.965138 
L 99.312677 -113.775709 
L 99.031173 -113.58628 
L 98.750827 -113.396851 
L 98.46834 -113.207422 
L 98.183358 -113.017993 
L 97.898218 -112.828564 
L 97.617348 -112.639134 
L 97.346418 -112.449705 
L 97.091421 -112.260276 
L 96.857799 -112.070847 
L 96.64976 -111.881418 
L 96.469861 -111.691989 
L 96.318879 -111.50256 
L 96.195934 -111.313131 
L 96.098811 -111.123702 
L 96.024383 -110.934273 
z
" style="stroke: #4d4d4d; stroke-width: 1.5"/>
    </defs>
    <g clip-path="url(#p117b875c7b)">
     <use xlink:href="#meb58a5a1c3" x="0" y="288" style="fill: #808080; stroke: #4d4d4d; stroke-width: 1.5"/>
    </g>
   </g>
   <g id="PolyCollection_2">
    <defs>
     <path id="mc55770f427" d="M 179.619126 -84.564408 
L 179.480874 -84.564408 
L 179.450719 -84.9236 
L 179.412424 -85.282793 
L 179.366038 -85.641986 
L 179.312574 -86.001178 
L 179.254124 -86.360371 
L 179.19376 -86.719564 
L 179.135173 -87.078756 
L 179.082057 -87.437949 
L 179.037317 -87.797142 
L 179.002233 -88.156334 
L 178.975767 -88.515527 
L 178.954191 -88.87472 
L 178.931169 -89.233912 
L 178.898334 -89.593105 
L 178.846314 -89.952298 
L 178.76603 -90.311491 
L 178.650027 -90.670683 
L 178.493569 -91.029876 
L 178.295231 -91.389069 
L 178.056819 -91.748261 
L 177.78256 -92.107454 
L 177.477684 -92.466647 
L 177.146659 -92.825839 
L 176.791469 -93.185032 
L 176.410363 -93.544225 
L 175.997441 -93.903417 
L 175.543282 -94.26261 
L 175.036596 -94.621803 
L 174.466627 -94.980995 
L 173.825851 -95.340188 
L 173.112406 -95.699381 
L 172.331693 -96.058573 
L 171.49678 -96.417766 
L 170.627405 -96.776959 
L 169.747699 -97.136152 
L 168.882969 -97.495344 
L 168.056076 -97.854537 
L 167.28404 -98.21373 
L 166.575476 -98.572922 
L 165.929349 -98.932115 
L 165.335291 -99.291308 
L 164.77551 -99.6505 
L 164.227991 -100.009693 
L 163.670551 -100.368886 
L 163.085109 -100.728078 
L 162.461551 -101.087271 
L 161.800626 -101.446464 
L 161.115455 -101.805656 
L 160.431412 -102.164849 
L 159.784364 -102.524042 
L 159.217436 -102.883234 
L 158.776655 -103.242427 
L 158.505976 -103.60162 
L 158.442277 -103.960813 
L 158.610947 -104.320005 
L 159.022648 -104.679198 
L 159.671722 -105.038391 
L 160.536482 -105.397583 
L 161.581411 -105.756776 
L 162.760987 -106.115969 
L 164.024566 -106.475161 
L 165.321602 -106.834354 
L 166.606369 -107.193547 
L 167.841499 -107.552739 
L 168.999891 -107.911932 
L 170.064912 -108.271125 
L 171.029189 -108.630317 
L 171.892524 -108.98951 
L 172.659567 -109.348703 
L 173.337767 -109.707895 
L 173.93589 -110.067088 
L 174.463163 -110.426281 
L 174.928855 -110.785474 
L 175.342088 -111.144666 
L 175.711642 -111.503859 
L 176.045669 -111.863052 
L 176.351309 -112.222244 
L 176.634307 -112.581437 
L 176.898761 -112.94063 
L 177.147078 -113.299822 
L 177.380201 -113.659015 
L 177.598055 -114.018208 
L 177.800129 -114.3774 
L 177.986065 -114.736593 
L 178.156096 -115.095786 
L 178.311254 -115.454978 
L 178.453288 -115.814171 
L 178.58434 -116.173364 
L 178.70649 -116.532556 
L 178.82131 -116.891749 
L 178.929564 -117.250942 
L 179.031129 -117.610135 
L 179.12516 -117.969327 
L 179.210418 -118.32852 
L 179.285669 -118.687713 
L 179.350037 -119.046905 
L 179.403231 -119.406098 
L 179.445617 -119.765291 
L 179.478139 -120.124483 
L 179.621861 -120.124483 
L 179.621861 -120.124483 
L 179.654383 -119.765291 
L 179.696769 -119.406098 
L 179.749963 -119.046905 
L 179.814331 -118.687713 
L 179.889582 -118.32852 
L 179.97484 -117.969327 
L 180.068871 -117.610135 
L 180.170436 -117.250942 
L 180.27869 -116.891749 
L 180.39351 -116.532556 
L 180.51566 -116.173364 
L 180.646712 -115.814171 
L 180.788746 -115.454978 
L 180.943904 -115.095786 
L 181.113935 -114.736593 
L 181.299871 -114.3774 
L 181.501945 -114.018208 
L 181.719799 -113.659015 
L 181.952922 -113.299822 
L 182.201239 -112.94063 
L 182.465693 -112.581437 
L 182.748691 -112.222244 
L 183.054331 -111.863052 
L 183.388358 -111.503859 
L 183.757912 -111.144666 
L 184.171145 -110.785474 
L 184.636837 -110.426281 
L 185.16411 -110.067088 
L 185.762233 -109.707895 
L 186.440433 -109.348703 
L 187.207476 -108.98951 
L 188.070811 -108.630317 
L 189.035088 -108.271125 
L 190.100109 -107.911932 
L 191.258501 -107.552739 
L 192.493631 -107.193547 
L 193.778398 -106.834354 
L 195.075434 -106.475161 
L 196.339013 -106.115969 
L 197.518589 -105.756776 
L 198.563518 -105.397583 
L 199.428278 -105.038391 
L 200.077352 -104.679198 
L 200.489053 -104.320005 
L 200.657723 -103.960813 
L 200.594024 -103.60162 
L 200.323345 -103.242427 
L 199.882564 -102.883234 
L 199.315636 -102.524042 
L 198.668588 -102.164849 
L 197.984545 -101.805656 
L 197.299374 -101.446464 
L 196.638449 -101.087271 
L 196.014891 -100.728078 
L 195.429449 -100.368886 
L 194.872009 -100.009693 
L 194.32449 -99.6505 
L 193.764709 -99.291308 
L 193.170651 -98.932115 
L 192.524524 -98.572922 
L 191.81596 -98.21373 
L 191.043924 -97.854537 
L 190.217031 -97.495344 
L 189.352301 -97.136152 
L 188.472595 -96.776959 
L 187.60322 -96.417766 
L 186.768307 -96.058573 
L 185.987594 -95.699381 
L 185.274149 -95.340188 
L 184.633373 -94.980995 
L 184.063404 -94.621803 
L 183.556718 -94.26261 
L 183.102559 -93.903417 
L 182.689637 -93.544225 
L 182.308531 -93.185032 
L 181.953341 -92.825839 
L 181.622316 -92.466647 
L 181.31744 -92.107454 
L 181.043181 -91.748261 
L 180.804769 -91.389069 
L 180.606431 -91.029876 
L 180.449973 -90.670683 
L 180.33397 -90.311491 
L 180.253686 -89.952298 
L 180.201666 -89.593105 
L 180.168831 -89.233912 
L 180.145809 -88.87472 
L 180.124233 -88.515527 
L 180.097767 -88.156334 
L 180.062683 -87.797142 
L 180.017943 -87.437949 
L 179.964827 -87.078756 
L 179.90624 -86.719564 
L 179.845876 -86.360371 
L 179.787426 -86.001178 
L 179.733962 -85.641986 
L 179.687576 -85.282793 
L 179.649281 -84.9236 
L 179.619126 -84.564408 
z
" style="stroke: #4d4d4d; stroke-width: 1.5"/>
    </defs>
    <g clip-path="url(#p117b875c7b)">
     <use xlink:href="#mc55770f427" x="0" y="288" style="fill: #808080; stroke: #4d4d4d; stroke-width: 1.5"/>
    </g>
   </g>
   <g id="PolyCollection_3">
    <defs>
     <path id="m109a125206" d="M 263.31319 -77.080818 
L 263.18681 -77.080818 
L 263.159204 -77.567677 
L 263.122414 -78.054537 
L 263.074578 -78.541396 
L 263.013866 -79.028255 
L 262.938605 -79.515115 
L 262.847414 -80.001974 
L 262.739313 -80.488833 
L 262.613783 -80.975692 
L 262.470764 -81.462552 
L 262.310569 -81.949411 
L 262.133726 -82.43627 
L 261.94076 -82.92313 
L 261.731964 -83.409989 
L 261.50721 -83.896848 
L 261.265853 -84.383708 
L 261.00679 -84.870567 
L 260.728683 -85.357426 
L 260.430349 -85.844285 
L 260.111256 -86.331145 
L 259.772033 -86.818004 
L 259.414899 -87.304863 
L 259.043884 -87.791723 
L 258.664765 -88.278582 
L 258.28468 -88.765441 
L 257.911431 -89.2523 
L 257.552552 -89.73916 
L 257.214274 -90.226019 
L 256.900539 -90.712878 
L 256.612212 -91.199738 
L 256.346662 -91.686597 
L 256.09779 -92.173456 
L 255.856564 -92.660316 
L 255.612032 -93.147175 
L 255.352719 -93.634034 
L 255.068218 -94.120893 
L 254.750786 -94.607753 
L 254.39667 -95.094612 
L 254.006968 -95.581471 
L 253.587863 -96.068331 
L 253.150181 -96.55519 
L 252.708333 -97.042049 
L 252.278819 -97.528909 
L 251.878537 -98.015768 
L 251.52315 -98.502627 
L 251.225765 -98.989486 
L 250.996043 -99.476346 
L 250.839809 -99.963205 
L 250.759103 -100.450064 
L 250.752571 -100.936924 
L 250.816067 -101.423783 
L 250.943351 -101.910642 
L 251.12682 -102.397502 
L 251.358244 -102.884361 
L 251.629495 -103.37122 
L 251.933257 -103.858079 
L 252.263678 -104.344939 
L 252.616865 -104.831798 
L 252.991129 -105.318657 
L 253.386877 -105.805517 
L 253.806085 -106.292376 
L 254.2514 -106.779235 
L 254.724991 -107.266094 
L 255.227346 -107.752954 
L 255.756278 -108.239813 
L 256.306348 -108.726672 
L 256.86887 -109.213532 
L 257.432534 -109.700391 
L 257.984541 -110.18725 
L 258.51205 -110.67411 
L 259.00369 -111.160969 
L 259.45083 -111.647828 
L 259.848427 -112.134687 
L 260.19531 -112.621547 
L 260.493904 -113.108406 
L 260.749485 -113.595265 
L 260.969145 -114.082125 
L 261.160662 -114.568984 
L 261.331478 -115.055843 
L 261.487923 -115.542703 
L 261.634767 -116.029562 
L 261.775108 -116.516421 
L 261.910531 -117.00328 
L 262.041453 -117.49014 
L 262.167541 -117.976999 
L 262.288098 -118.463858 
L 262.402364 -118.950718 
L 262.5097 -119.437577 
L 262.609651 -119.924436 
L 262.701935 -120.411296 
L 262.786392 -120.898155 
L 262.862932 -121.385014 
L 262.931507 -121.871873 
L 262.992114 -122.358733 
L 263.04483 -122.845592 
L 263.089846 -123.332451 
L 263.127502 -123.819311 
L 263.158297 -124.30617 
L 263.18288 -124.793029 
L 263.202009 -125.279889 
L 263.297991 -125.279889 
L 263.297991 -125.279889 
L 263.31712 -124.793029 
L 263.341703 -124.30617 
L 263.372498 -123.819311 
L 263.410154 -123.332451 
L 263.45517 -122.845592 
L 263.507886 -122.358733 
L 263.568493 -121.871873 
L 263.637068 -121.385014 
L 263.713608 -120.898155 
L 263.798065 -120.411296 
L 263.890349 -119.924436 
L 263.9903 -119.437577 
L 264.097636 -118.950718 
L 264.211902 -118.463858 
L 264.332459 -117.976999 
L 264.458547 -117.49014 
L 264.589469 -117.00328 
L 264.724892 -116.516421 
L 264.865233 -116.029562 
L 265.012077 -115.542703 
L 265.168522 -115.055843 
L 265.339338 -114.568984 
L 265.530855 -114.082125 
L 265.750515 -113.595265 
L 266.006096 -113.108406 
L 266.30469 -112.621547 
L 266.651573 -112.134687 
L 267.04917 -111.647828 
L 267.49631 -111.160969 
L 267.98795 -110.67411 
L 268.515459 -110.18725 
L 269.067466 -109.700391 
L 269.63113 -109.213532 
L 270.193652 -108.726672 
L 270.743722 -108.239813 
L 271.272654 -107.752954 
L 271.775009 -107.266094 
L 272.2486 -106.779235 
L 272.693915 -106.292376 
L 273.113123 -105.805517 
L 273.508871 -105.318657 
L 273.883135 -104.831798 
L 274.236322 -104.344939 
L 274.566743 -103.858079 
L 274.870505 -103.37122 
L 275.141756 -102.884361 
L 275.37318 -102.397502 
L 275.556649 -101.910642 
L 275.683933 -101.423783 
L 275.747429 -100.936924 
L 275.740897 -100.450064 
L 275.660191 -99.963205 
L 275.503957 -99.476346 
L 275.274235 -98.989486 
L 274.97685 -98.502627 
L 274.621463 -98.015768 
L 274.221181 -97.528909 
L 273.791667 -97.042049 
L 273.349819 -96.55519 
L 272.912137 -96.068331 
L 272.493032 -95.581471 
L 272.10333 -95.094612 
L 271.749214 -94.607753 
L 271.431782 -94.120893 
L 271.147281 -93.634034 
L 270.887968 -93.147175 
L 270.643436 -92.660316 
L 270.40221 -92.173456 
L 270.153338 -91.686597 
L 269.887788 -91.199738 
L 269.599461 -90.712878 
L 269.285726 -90.226019 
L 268.947448 -89.73916 
L 268.588569 -89.2523 
L 268.21532 -88.765441 
L 267.835235 -88.278582 
L 267.456116 -87.791723 
L 267.085101 -87.304863 
L 266.727967 -86.818004 
L 266.388744 -86.331145 
L 266.069651 -85.844285 
L 265.771317 -85.357426 
L 265.49321 -84.870567 
L 265.234147 -84.383708 
L 264.99279 -83.896848 
L 264.768036 -83.409989 
L 264.55924 -82.92313 
L 264.366274 -82.43627 
L 264.189431 -81.949411 
L 264.029236 -81.462552 
L 263.886217 -80.975692 
L 263.760687 -80.488833 
L 263.652586 -80.001974 
L 263.561395 -79.515115 
L 263.486134 -79.028255 
L 263.425422 -78.541396 
L 263.377586 -78.054537 
L 263.340796 -77.567677 
L 263.31319 -77.080818 
z
" style="stroke: #4d4d4d; stroke-width: 1.5"/>
    </defs>
    <g clip-path="url(#p117b875c7b)">
     <use xlink:href="#m109a125206" x="0" y="288" style="fill: #808080; stroke: #4d4d4d; stroke-width: 1.5"/>
    </g>
   </g>
   <g id="PolyCollection_4">
    <defs>
     <path id="mdf3a100d0b" d="M 347.026207 -101.702787 
L 346.873793 -101.702787 
L 346.844786 -102.135973 
L 346.808042 -102.569159 
L 346.762774 -103.002346 
L 346.708545 -103.435532 
L 346.645382 -103.868718 
L 346.573859 -104.301905 
L 346.495101 -104.735091 
L 346.410715 -105.168277 
L 346.322618 -105.601463 
L 346.232786 -106.03465 
L 346.142925 -106.467836 
L 346.05413 -106.901022 
L 345.966562 -107.334209 
L 345.879199 -107.767395 
L 345.789725 -108.200581 
L 345.694572 -108.633768 
L 345.589124 -109.066954 
L 345.468093 -109.50014 
L 345.325987 -109.933327 
L 345.15764 -110.366513 
L 344.958719 -110.799699 
L 344.726133 -111.232886 
L 344.4583 -111.666072 
L 344.155222 -112.099258 
L 343.818393 -112.532444 
L 343.450541 -112.965631 
L 343.055287 -113.398817 
L 342.636768 -113.832003 
L 342.199301 -114.26519 
L 341.747115 -114.698376 
L 341.284173 -115.131562 
L 340.814061 -115.564749 
L 340.339909 -115.997935 
L 339.864308 -116.431121 
L 339.389213 -116.864308 
L 338.915846 -117.297494 
L 338.444662 -117.73068 
L 337.975457 -118.163866 
L 337.507684 -118.597053 
L 337.041011 -119.030239 
L 336.576085 -119.463425 
L 336.115369 -119.896612 
L 335.663878 -120.329798 
L 335.229605 -120.762984 
L 334.823448 -121.196171 
L 334.458544 -121.629357 
L 334.149041 -122.062543 
L 333.908455 -122.49573 
L 333.74788 -122.928916 
L 333.674366 -123.362102 
L 333.689758 -123.795289 
L 333.790226 -124.228475 
L 333.966566 -124.661661 
L 334.205226 -125.094847 
L 334.489877 -125.528034 
L 334.803275 -125.96122 
L 335.129124 -126.394406 
L 335.453674 -126.827593 
L 335.766869 -127.260779 
L 336.06293 -127.693965 
L 336.340374 -128.127152 
L 336.601517 -128.560338 
L 336.851614 -128.993524 
L 337.097771 -129.426711 
L 337.347799 -129.859897 
L 337.609154 -130.293083 
L 337.888079 -130.726269 
L 338.188997 -131.159456 
L 338.514186 -131.592642 
L 338.863715 -132.025828 
L 339.235579 -132.459015 
L 339.625995 -132.892201 
L 340.029787 -133.325387 
L 340.440833 -133.758574 
L 340.852547 -134.19176 
L 341.258392 -134.624946 
L 341.652387 -135.058133 
L 342.029615 -135.491319 
L 342.386642 -135.924505 
L 342.72182 -136.357691 
L 343.035382 -136.790878 
L 343.329304 -137.224064 
L 343.606915 -137.65725 
L 343.872299 -138.090437 
L 344.129583 -138.523623 
L 344.382225 -138.956809 
L 344.632427 -139.389996 
L 344.88078 -139.823182 
L 345.126194 -140.256368 
L 345.366111 -140.689555 
L 345.596953 -141.122741 
L 345.8147 -141.555927 
L 346.015491 -141.989114 
L 346.196145 -142.4223 
L 346.354531 -142.855486 
L 346.489743 -143.288672 
L 346.602086 -143.721859 
L 346.692911 -144.155045 
L 346.764356 -144.588231 
L 347.135644 -144.588231 
L 347.135644 -144.588231 
L 347.207089 -144.155045 
L 347.297914 -143.721859 
L 347.410257 -143.288672 
L 347.545469 -142.855486 
L 347.703855 -142.4223 
L 347.884509 -141.989114 
L 348.0853 -141.555927 
L 348.303047 -141.122741 
L 348.533889 -140.689555 
L 348.773806 -140.256368 
L 349.01922 -139.823182 
L 349.267573 -139.389996 
L 349.517775 -138.956809 
L 349.770417 -138.523623 
L 350.027701 -138.090437 
L 350.293085 -137.65725 
L 350.570696 -137.224064 
L 350.864618 -136.790878 
L 351.17818 -136.357691 
L 351.513358 -135.924505 
L 351.870385 -135.491319 
L 352.247613 -135.058133 
L 352.641608 -134.624946 
L 353.047453 -134.19176 
L 353.459167 -133.758574 
L 353.870213 -133.325387 
L 354.274005 -132.892201 
L 354.664421 -132.459015 
L 355.036285 -132.025828 
L 355.385814 -131.592642 
L 355.711003 -131.159456 
L 356.011921 -130.726269 
L 356.290846 -130.293083 
L 356.552201 -129.859897 
L 356.802229 -129.426711 
L 357.048386 -128.993524 
L 357.298483 -128.560338 
L 357.559626 -128.127152 
L 357.83707 -127.693965 
L 358.133131 -127.260779 
L 358.446326 -126.827593 
L 358.770876 -126.394406 
L 359.096725 -125.96122 
L 359.410123 -125.528034 
L 359.694774 -125.094847 
L 359.933434 -124.661661 
L 360.109774 -124.228475 
L 360.210242 -123.795289 
L 360.225634 -123.362102 
L 360.15212 -122.928916 
L 359.991545 -122.49573 
L 359.750959 -122.062543 
L 359.441456 -121.629357 
L 359.076552 -121.196171 
L 358.670395 -120.762984 
L 358.236122 -120.329798 
L 357.784631 -119.896612 
L 357.323915 -119.463425 
L 356.858989 -119.030239 
L 356.392316 -118.597053 
L 355.924543 -118.163866 
L 355.455338 -117.73068 
L 354.984154 -117.297494 
L 354.510787 -116.864308 
L 354.035692 -116.431121 
L 353.560091 -115.997935 
L 353.085939 -115.564749 
L 352.615827 -115.131562 
L 352.152885 -114.698376 
L 351.700699 -114.26519 
L 351.263232 -113.832003 
L 350.844713 -113.398817 
L 350.449459 -112.965631 
L 350.081607 -112.532444 
L 349.744778 -112.099258 
L 349.4417 -111.666072 
L 349.173867 -111.232886 
L 348.941281 -110.799699 
L 348.74236 -110.366513 
L 348.574013 -109.933327 
L 348.431907 -109.50014 
L 348.310876 -109.066954 
L 348.205428 -108.633768 
L 348.110275 -108.200581 
L 348.020801 -107.767395 
L 347.933438 -107.334209 
L 347.84587 -106.901022 
L 347.757075 -106.467836 
L 347.667214 -106.03465 
L 347.577382 -105.601463 
L 347.489285 -105.168277 
L 347.404899 -104.735091 
L 347.326141 -104.301905 
L 347.254618 -103.868718 
L 347.191455 -103.435532 
L 347.137226 -103.002346 
L 347.091958 -102.569159 
L 347.055214 -102.135973 
L 347.026207 -101.702787 
z
" style="stroke: #4d4d4d; stroke-width: 1.5"/>
    </defs>
    <g clip-path="url(#p117b875c7b)">
     <use xlink:href="#mdf3a100d0b" x="0" y="288" style="fill: #808080; stroke: #4d4d4d; stroke-width: 1.5"/>
    </g>
   </g>
   <g id="matplotlib.axis_1">
    <g id="xtick_1">
     <g id="line2d_1">
      <defs>
       <path id="mb2222958c7" d="M 0 0 
L 0 3.5 
" style="stroke: #000000; stroke-width: 0.8"/>
      </defs>
      <g>
       <use xlink:href="#mb2222958c7" x="95.85" y="252" style="stroke: #000000; stroke-width: 0.8"/>
      </g>
     </g>
     <g id="text_1">
      <!-- CREB1_20 -->
      <g transform="translate(70.250781 266.421875)scale(0.1 -0.1)">
       <defs>
        <path id="DejaVuSans-43" d="M 4122 4306 
L 4122 3641 
Q 3803 3938 3442 4084 
Q 3081 4231 2675 4231 
Q 1875 4231 1450 3742 
Q 1025 3253 1025 2328 
Q 1025 1406 1450 917 
Q 1875 428 2675 428 
Q 3081 428 3442 575 
Q 3803 722 4122 1019 
L 4122 359 
Q 3791 134 3420 21 
Q 3050 -91 2638 -91 
Q 1578 -91 968 557 
Q 359 1206 359 2328 
Q 359 3453 968 4101 
Q 1578 4750 2638 4750 
Q 3056 4750 3426 4639 
Q 3797 4528 4122 4306 
z
" transform="scale(0.015625)"/>
        <path id="DejaVuSans-52" d="M 2841 2188 
Q 3044 2119 3236 1894 
Q 3428 1669 3622 1275 
L 4263 0 
L 3584 0 
L 2988 1197 
Q 2756 1666 2539 1819 
Q 2322 1972 1947 1972 
L 1259 1972 
L 1259 0 
L 628 0 
L 628 4666 
L 2053 4666 
Q 2853 4666 3247 4331 
Q 3641 3997 3641 3322 
Q 3641 2881 3436 2590 
Q 3231 2300 2841 2188 
z
M 1259 4147 
L 1259 2491 
L 2053 2491 
Q 2509 2491 2742 2702 
Q 2975 2913 2975 3322 
Q 2975 3731 2742 3939 
Q 2509 4147 2053 4147 
L 1259 4147 
z
" transform="scale(0.015625)"/>
        <path id="DejaVuSans-45" d="M 628 4666 
L 3578 4666 
L 3578 4134 
L 1259 4134 
L 1259 2753 
L 3481 2753 
L 3481 2222 
L 1259 2222 
L 1259 531 
L 3634 531 
L 3634 0 
L 628 0 
L 628 4666 
z
" transform="scale(0.015625)"/>
        <path id="DejaVuSans-42" d="M 1259 2228 
L 1259 519 
L 2272 519 
Q 2781 519 3026 730 
Q 3272 941 3272 1375 
Q 3272 1813 3026 2020 
Q 2781 2228 2272 2228 
L 1259 2228 
z
M 1259 4147 
L 1259 2741 
L 2194 2741 
Q 2656 2741 2882 2914 
Q 3109 3088 3109 3444 
Q 3109 3797 2882 3972 
Q 2656 4147 2194 4147 
L 1259 4147 
z
M 628 4666 
L 2241 4666 
Q 2963 4666 3353 4366 
Q 3744 4066 3744 3513 
Q 3744 3084 3544 2831 
Q 3344 2578 2956 2516 
Q 3422 2416 3680 2098 
Q 3938 1781 3938 1306 
Q 3938 681 3513 340 
Q 3088 0 2303 0 
L 628 0 
L 628 4666 
z
" transform="scale(0.015625)"/>
        <path id="DejaVuSans-31" d="M 794 531 
L 1825 531 
L 1825 4091 
L 703 3866 
L 703 4441 
L 1819 4666 
L 2450 4666 
L 2450 531 
L 3481 531 
L 3481 0 
L 794 0 
L 794 531 
z
" transform="scale(0.015625)"/>
        <path id="DejaVuSans-5f" d="M 3263 -1063 
L 3263 -1509 
L -63 -1509 
L -63 -1063 
L 3263 -1063 
z
" transform="scale(0.015625)"/>
        <path id="DejaVuSans-32" d="M 1228 531 
L 3431 531 
L 3431 0 
L 469 0 
L 469 531 
Q 828 903 1448 1529 
Q 2069 2156 2228 2338 
Q 2531 2678 2651 2914 
Q 2772 3150 2772 3378 
Q 2772 3750 2511 3984 
Q 2250 4219 1831 4219 
Q 1534 4219 1204 4116 
Q 875 4013 500 3803 
L 500 4441 
Q 881 4594 1212 4672 
Q 1544 4750 1819 4750 
Q 2544 4750 2975 4387 
Q 3406 4025 3406 3419 
Q 3406 3131 3298 2873 
Q 3191 2616 2906 2266 
Q 2828 2175 2409 1742 
Q 1991 1309 1228 531 
z
" transform="scale(0.015625)"/>
        <path id="DejaVuSans-30" d="M 2034 4250 
Q 1547 4250 1301 3770 
Q 1056 3291 1056 2328 
Q 1056 1369 1301 889 
Q 1547 409 2034 409 
Q 2525 409 2770 889 
Q 3016 1369 3016 2328 
Q 3016 3291 2770 3770 
Q 2525 4250 2034 4250 
z
M 2034 4750 
Q 2819 4750 3233 4129 
Q 3647 3509 3647 2328 
Q 3647 1150 3233 529 
Q 2819 -91 2034 -91 
Q 1250 -91 836 529 
Q 422 1150 422 2328 
Q 422 3509 836 4129 
Q 1250 4750 2034 4750 
z
" transform="scale(0.015625)"/>
       </defs>
       <use xlink:href="#DejaVuSans-43"/>
       <use xlink:href="#DejaVuSans-52" x="69.824219"/>
       <use xlink:href="#DejaVuSans-45" x="139.306641"/>
       <use xlink:href="#DejaVuSans-42" x="202.490234"/>
       <use xlink:href="#DejaVuSans-31" x="271.09375"/>
       <use xlink:href="#DejaVuSans-5f" x="334.716797"/>
       <use xlink:href="#DejaVuSans-32" x="384.716797"/>
       <use xlink:href="#DejaVuSans-30" x="448.339844"/>
      </g>
     </g>
    </g>
    <g id="xtick_2">
     <g id="line2d_2">
      <g>
       <use xlink:href="#mb2222958c7" x="179.55" y="252" style="stroke: #000000; stroke-width: 0.8"/>
      </g>
     </g>
     <g id="text_2">
      <!-- CREB1_25 -->
      <g transform="translate(153.950781 266.421875)scale(0.1 -0.1)">
       <defs>
        <path id="DejaVuSans-35" d="M 691 4666 
L 3169 4666 
L 3169 4134 
L 1269 4134 
L 1269 2991 
Q 1406 3038 1543 3061 
Q 1681 3084 1819 3084 
Q 2600 3084 3056 2656 
Q 3513 2228 3513 1497 
Q 3513 744 3044 326 
Q 2575 -91 1722 -91 
Q 1428 -91 1123 -41 
Q 819 9 494 109 
L 494 744 
Q 775 591 1075 516 
Q 1375 441 1709 441 
Q 2250 441 2565 725 
Q 2881 1009 2881 1497 
Q 2881 1984 2565 2268 
Q 2250 2553 1709 2553 
Q 1456 2553 1204 2497 
Q 953 2441 691 2322 
L 691 4666 
z
" transform="scale(0.015625)"/>
       </defs>
       <use xlink:href="#DejaVuSans-43"/>
       <use xlink:href="#DejaVuSans-52" x="69.824219"/>
       <use xlink:href="#DejaVuSans-45" x="139.306641"/>
       <use xlink:href="#DejaVuSans-42" x="202.490234"/>
       <use xlink:href="#DejaVuSans-31" x="271.09375"/>
       <use xlink:href="#DejaVuSans-5f" x="334.716797"/>
       <use xlink:href="#DejaVuSans-32" x="384.716797"/>
       <use xlink:href="#DejaVuSans-35" x="448.339844"/>
      </g>
     </g>
    </g>
    <g id="xtick_3">
     <g id="line2d_3">
      <g>
       <use xlink:href="#mb2222958c7" x="263.25" y="252" style="stroke: #000000; stroke-width: 0.8"/>
      </g>
     </g>
     <g id="text_3">
      <!-- CREB1_30 -->
      <g transform="translate(237.650781 266.421875)scale(0.1 -0.1)">
       <defs>
        <path id="DejaVuSans-33" d="M 2597 2516 
Q 3050 2419 3304 2112 
Q 3559 1806 3559 1356 
Q 3559 666 3084 287 
Q 2609 -91 1734 -91 
Q 1441 -91 1130 -33 
Q 819 25 488 141 
L 488 750 
Q 750 597 1062 519 
Q 1375 441 1716 441 
Q 2309 441 2620 675 
Q 2931 909 2931 1356 
Q 2931 1769 2642 2001 
Q 2353 2234 1838 2234 
L 1294 2234 
L 1294 2753 
L 1863 2753 
Q 2328 2753 2575 2939 
Q 2822 3125 2822 3475 
Q 2822 3834 2567 4026 
Q 2313 4219 1838 4219 
Q 1578 4219 1281 4162 
Q 984 4106 628 3988 
L 628 4550 
Q 988 4650 1302 4700 
Q 1616 4750 1894 4750 
Q 2613 4750 3031 4423 
Q 3450 4097 3450 3541 
Q 3450 3153 3228 2886 
Q 3006 2619 2597 2516 
z
" transform="scale(0.015625)"/>
       </defs>
       <use xlink:href="#DejaVuSans-43"/>
       <use xlink:href="#DejaVuSans-52" x="69.824219"/>
       <use xlink:href="#DejaVuSans-45" x="139.306641"/>
       <use xlink:href="#DejaVuSans-42" x="202.490234"/>
       <use xlink:href="#DejaVuSans-31" x="271.09375"/>
       <use xlink:href="#DejaVuSans-5f" x="334.716797"/>
       <use xlink:href="#DejaVuSans-33" x="384.716797"/>
       <use xlink:href="#DejaVuSans-30" x="448.339844"/>
      </g>
     </g>
    </g>
    <g id="xtick_4">
     <g id="line2d_4">
      <g>
       <use xlink:href="#mb2222958c7" x="346.95" y="252" style="stroke: #000000; stroke-width: 0.8"/>
      </g>
     </g>
     <g id="text_4">
      <!-- CREB1_pwm -->
      <g transform="translate(315.579688 266.421875)scale(0.1 -0.1)">
       <defs>
        <path id="DejaVuSans-70" d="M 1159 525 
L 1159 -1331 
L 581 -1331 
L 581 3500 
L 1159 3500 
L 1159 2969 
Q 1341 3281 1617 3432 
Q 1894 3584 2278 3584 
Q 2916 3584 3314 3078 
Q 3713 2572 3713 1747 
Q 3713 922 3314 415 
Q 2916 -91 2278 -91 
Q 1894 -91 1617 61 
Q 1341 213 1159 525 
z
M 3116 1747 
Q 3116 2381 2855 2742 
Q 2594 3103 2138 3103 
Q 1681 3103 1420 2742 
Q 1159 2381 1159 1747 
Q 1159 1113 1420 752 
Q 1681 391 2138 391 
Q 2594 391 2855 752 
Q 3116 1113 3116 1747 
z
" transform="scale(0.015625)"/>
        <path id="DejaVuSans-77" d="M 269 3500 
L 844 3500 
L 1563 769 
L 2278 3500 
L 2956 3500 
L 3675 769 
L 4391 3500 
L 4966 3500 
L 4050 0 
L 3372 0 
L 2619 2869 
L 1863 0 
L 1184 0 
L 269 3500 
z
" transform="scale(0.015625)"/>
        <path id="DejaVuSans-6d" d="M 3328 2828 
Q 3544 3216 3844 3400 
Q 4144 3584 4550 3584 
Q 5097 3584 5394 3201 
Q 5691 2819 5691 2113 
L 5691 0 
L 5113 0 
L 5113 2094 
Q 5113 2597 4934 2840 
Q 4756 3084 4391 3084 
Q 3944 3084 3684 2787 
Q 3425 2491 3425 1978 
L 3425 0 
L 2847 0 
L 2847 2094 
Q 2847 2600 2669 2842 
Q 2491 3084 2119 3084 
Q 1678 3084 1418 2786 
Q 1159 2488 1159 1978 
L 1159 0 
L 581 0 
L 581 3500 
L 1159 3500 
L 1159 2956 
Q 1356 3278 1631 3431 
Q 1906 3584 2284 3584 
Q 2666 3584 2933 3390 
Q 3200 3197 3328 2828 
z
" transform="scale(0.015625)"/>
       </defs>
       <use xlink:href="#DejaVuSans-43"/>
       <use xlink:href="#DejaVuSans-52" x="69.824219"/>
       <use xlink:href="#DejaVuSans-45" x="139.306641"/>
       <use xlink:href="#DejaVuSans-42" x="202.490234"/>
       <use xlink:href="#DejaVuSans-31" x="271.09375"/>
       <use xlink:href="#DejaVuSans-5f" x="334.716797"/>
       <use xlink:href="#DejaVuSans-70" x="384.716797"/>
       <use xlink:href="#DejaVuSans-77" x="448.193359"/>
       <use xlink:href="#DejaVuSans-6d" x="529.980469"/>
      </g>
     </g>
    </g>
    <g id="text_5">
     <!-- variable -->
     <g transform="translate(201.228125 280.378125)scale(0.1 -0.1)">
      <defs>
       <path id="DejaVuSans-76" d="M 191 3500 
L 800 3500 
L 1894 563 
L 2988 3500 
L 3597 3500 
L 2284 0 
L 1503 0 
L 191 3500 
z
" transform="scale(0.015625)"/>
       <path id="DejaVuSans-61" d="M 2194 1759 
Q 1497 1759 1228 1600 
Q 959 1441 959 1056 
Q 959 750 1161 570 
Q 1363 391 1709 391 
Q 2188 391 2477 730 
Q 2766 1069 2766 1631 
L 2766 1759 
L 2194 1759 
z
M 3341 1997 
L 3341 0 
L 2766 0 
L 2766 531 
Q 2569 213 2275 61 
Q 1981 -91 1556 -91 
Q 1019 -91 701 211 
Q 384 513 384 1019 
Q 384 1609 779 1909 
Q 1175 2209 1959 2209 
L 2766 2209 
L 2766 2266 
Q 2766 2663 2505 2880 
Q 2244 3097 1772 3097 
Q 1472 3097 1187 3025 
Q 903 2953 641 2809 
L 641 3341 
Q 956 3463 1253 3523 
Q 1550 3584 1831 3584 
Q 2591 3584 2966 3190 
Q 3341 2797 3341 1997 
z
" transform="scale(0.015625)"/>
       <path id="DejaVuSans-72" d="M 2631 2963 
Q 2534 3019 2420 3045 
Q 2306 3072 2169 3072 
Q 1681 3072 1420 2755 
Q 1159 2438 1159 1844 
L 1159 0 
L 581 0 
L 581 3500 
L 1159 3500 
L 1159 2956 
Q 1341 3275 1631 3429 
Q 1922 3584 2338 3584 
Q 2397 3584 2469 3576 
Q 2541 3569 2628 3553 
L 2631 2963 
z
" transform="scale(0.015625)"/>
       <path id="DejaVuSans-69" d="M 603 3500 
L 1178 3500 
L 1178 0 
L 603 0 
L 603 3500 
z
M 603 4863 
L 1178 4863 
L 1178 4134 
L 603 4134 
L 603 4863 
z
" transform="scale(0.015625)"/>
       <path id="DejaVuSans-62" d="M 3116 1747 
Q 3116 2381 2855 2742 
Q 2594 3103 2138 3103 
Q 1681 3103 1420 2742 
Q 1159 2381 1159 1747 
Q 1159 1113 1420 752 
Q 1681 391 2138 391 
Q 2594 391 2855 752 
Q 3116 1113 3116 1747 
z
M 1159 2969 
Q 1341 3281 1617 3432 
Q 1894 3584 2278 3584 
Q 2916 3584 3314 3078 
Q 3713 2572 3713 1747 
Q 3713 922 3314 415 
Q 2916 -91 2278 -91 
Q 1894 -91 1617 61 
Q 1341 213 1159 525 
L 1159 0 
L 581 0 
L 581 4863 
L 1159 4863 
L 1159 2969 
z
" transform="scale(0.015625)"/>
       <path id="DejaVuSans-6c" d="M 603 4863 
L 1178 4863 
L 1178 0 
L 603 0 
L 603 4863 
z
" transform="scale(0.015625)"/>
       <path id="DejaVuSans-65" d="M 3597 1894 
L 3597 1613 
L 953 1613 
Q 991 1019 1311 708 
Q 1631 397 2203 397 
Q 2534 397 2845 478 
Q 3156 559 3463 722 
L 3463 178 
Q 3153 47 2828 -22 
Q 2503 -91 2169 -91 
Q 1331 -91 842 396 
Q 353 884 353 1716 
Q 353 2575 817 3079 
Q 1281 3584 2069 3584 
Q 2775 3584 3186 3129 
Q 3597 2675 3597 1894 
z
M 3022 2063 
Q 3016 2534 2758 2815 
Q 2500 3097 2075 3097 
Q 1594 3097 1305 2825 
Q 1016 2553 972 2059 
L 3022 2063 
z
" transform="scale(0.015625)"/>
      </defs>
      <use xlink:href="#DejaVuSans-76"/>
      <use xlink:href="#DejaVuSans-61" x="59.179688"/>
      <use xlink:href="#DejaVuSans-72" x="120.458984"/>
      <use xlink:href="#DejaVuSans-69" x="161.572266"/>
      <use xlink:href="#DejaVuSans-61" x="189.355469"/>
      <use xlink:href="#DejaVuSans-62" x="250.634766"/>
      <use xlink:href="#DejaVuSans-6c" x="314.111328"/>
      <use xlink:href="#DejaVuSans-65" x="341.894531"/>
     </g>
    </g>
   </g>
   <g id="matplotlib.axis_2">
    <g id="ytick_1">
     <g id="line2d_5">
      <defs>
       <path id="m935d082a53" d="M 0 0 
L -3.5 0 
" style="stroke: #000000; stroke-width: 0.8"/>
      </defs>
      <g>
       <use xlink:href="#m935d082a53" x="54" y="252" style="stroke: #000000; stroke-width: 0.8"/>
      </g>
     </g>
     <g id="text_6">
      <!-- 0.001 -->
      <g transform="translate(18.371875 255.799219)scale(0.1 -0.1)">
       <defs>
        <path id="DejaVuSans-2e" d="M 684 794 
L 1344 794 
L 1344 0 
L 684 0 
L 684 794 
z
" transform="scale(0.015625)"/>
       </defs>
       <use xlink:href="#DejaVuSans-30"/>
       <use xlink:href="#DejaVuSans-2e" x="63.623047"/>
       <use xlink:href="#DejaVuSans-30" x="95.410156"/>
       <use xlink:href="#DejaVuSans-30" x="159.033203"/>
       <use xlink:href="#DejaVuSans-31" x="222.65625"/>
      </g>
     </g>
    </g>
    <g id="ytick_2">
     <g id="line2d_6">
      <g>
       <use xlink:href="#m935d082a53" x="54" y="225.482927" style="stroke: #000000; stroke-width: 0.8"/>
      </g>
     </g>
     <g id="text_7">
      <!-- 0.002 -->
      <g transform="translate(18.371875 229.282146)scale(0.1 -0.1)">
       <use xlink:href="#DejaVuSans-30"/>
       <use xlink:href="#DejaVuSans-2e" x="63.623047"/>
       <use xlink:href="#DejaVuSans-30" x="95.410156"/>
       <use xlink:href="#DejaVuSans-30" x="159.033203"/>
       <use xlink:href="#DejaVuSans-32" x="222.65625"/>
      </g>
     </g>
    </g>
    <g id="ytick_3">
     <g id="line2d_7">
      <g>
       <use xlink:href="#m935d082a53" x="54" y="198.965854" style="stroke: #000000; stroke-width: 0.8"/>
      </g>
     </g>
     <g id="text_8">
      <!-- 0.003 -->
      <g transform="translate(18.371875 202.765072)scale(0.1 -0.1)">
       <use xlink:href="#DejaVuSans-30"/>
       <use xlink:href="#DejaVuSans-2e" x="63.623047"/>
       <use xlink:href="#DejaVuSans-30" x="95.410156"/>
       <use xlink:href="#DejaVuSans-30" x="159.033203"/>
       <use xlink:href="#DejaVuSans-33" x="222.65625"/>
      </g>
     </g>
    </g>
    <g id="ytick_4">
     <g id="line2d_8">
      <g>
       <use xlink:href="#m935d082a53" x="54" y="172.44878" style="stroke: #000000; stroke-width: 0.8"/>
      </g>
     </g>
     <g id="text_9">
      <!-- 0.004 -->
      <g transform="translate(18.371875 176.247999)scale(0.1 -0.1)">
       <defs>
        <path id="DejaVuSans-34" d="M 2419 4116 
L 825 1625 
L 2419 1625 
L 2419 4116 
z
M 2253 4666 
L 3047 4666 
L 3047 1625 
L 3713 1625 
L 3713 1100 
L 3047 1100 
L 3047 0 
L 2419 0 
L 2419 1100 
L 313 1100 
L 313 1709 
L 2253 4666 
z
" transform="scale(0.015625)"/>
       </defs>
       <use xlink:href="#DejaVuSans-30"/>
       <use xlink:href="#DejaVuSans-2e" x="63.623047"/>
       <use xlink:href="#DejaVuSans-30" x="95.410156"/>
       <use xlink:href="#DejaVuSans-30" x="159.033203"/>
       <use xlink:href="#DejaVuSans-34" x="222.65625"/>
      </g>
     </g>
    </g>
    <g id="ytick_5">
     <g id="line2d_9">
      <g>
       <use xlink:href="#m935d082a53" x="54" y="145.931707" style="stroke: #000000; stroke-width: 0.8"/>
      </g>
     </g>
     <g id="text_10">
      <!-- 0.005 -->
      <g transform="translate(18.371875 149.730926)scale(0.1 -0.1)">
       <use xlink:href="#DejaVuSans-30"/>
       <use xlink:href="#DejaVuSans-2e" x="63.623047"/>
       <use xlink:href="#DejaVuSans-30" x="95.410156"/>
       <use xlink:href="#DejaVuSans-30" x="159.033203"/>
       <use xlink:href="#DejaVuSans-35" x="222.65625"/>
      </g>
     </g>
    </g>
    <g id="ytick_6">
     <g id="line2d_10">
      <g>
       <use xlink:href="#m935d082a53" x="54" y="119.414634" style="stroke: #000000; stroke-width: 0.8"/>
      </g>
     </g>
     <g id="text_11">
      <!-- 0.006 -->
      <g transform="translate(18.371875 123.213853)scale(0.1 -0.1)">
       <defs>
        <path id="DejaVuSans-36" d="M 2113 2584 
Q 1688 2584 1439 2293 
Q 1191 2003 1191 1497 
Q 1191 994 1439 701 
Q 1688 409 2113 409 
Q 2538 409 2786 701 
Q 3034 994 3034 1497 
Q 3034 2003 2786 2293 
Q 2538 2584 2113 2584 
z
M 3366 4563 
L 3366 3988 
Q 3128 4100 2886 4159 
Q 2644 4219 2406 4219 
Q 1781 4219 1451 3797 
Q 1122 3375 1075 2522 
Q 1259 2794 1537 2939 
Q 1816 3084 2150 3084 
Q 2853 3084 3261 2657 
Q 3669 2231 3669 1497 
Q 3669 778 3244 343 
Q 2819 -91 2113 -91 
Q 1303 -91 875 529 
Q 447 1150 447 2328 
Q 447 3434 972 4092 
Q 1497 4750 2381 4750 
Q 2619 4750 2861 4703 
Q 3103 4656 3366 4563 
z
" transform="scale(0.015625)"/>
       </defs>
       <use xlink:href="#DejaVuSans-30"/>
       <use xlink:href="#DejaVuSans-2e" x="63.623047"/>
       <use xlink:href="#DejaVuSans-30" x="95.410156"/>
       <use xlink:href="#DejaVuSans-30" x="159.033203"/>
       <use xlink:href="#DejaVuSans-36" x="222.65625"/>
      </g>
     </g>
    </g>
    <g id="ytick_7">
     <g id="line2d_11">
      <g>
       <use xlink:href="#m935d082a53" x="54" y="92.897561" style="stroke: #000000; stroke-width: 0.8"/>
      </g>
     </g>
     <g id="text_12">
      <!-- 0.007 -->
      <g transform="translate(18.371875 96.69678)scale(0.1 -0.1)">
       <defs>
        <path id="DejaVuSans-37" d="M 525 4666 
L 3525 4666 
L 3525 4397 
L 1831 0 
L 1172 0 
L 2766 4134 
L 525 4134 
L 525 4666 
z
" transform="scale(0.015625)"/>
       </defs>
       <use xlink:href="#DejaVuSans-30"/>
       <use xlink:href="#DejaVuSans-2e" x="63.623047"/>
       <use xlink:href="#DejaVuSans-30" x="95.410156"/>
       <use xlink:href="#DejaVuSans-30" x="159.033203"/>
       <use xlink:href="#DejaVuSans-37" x="222.65625"/>
      </g>
     </g>
    </g>
    <g id="ytick_8">
     <g id="line2d_12">
      <g>
       <use xlink:href="#m935d082a53" x="54" y="66.380488" style="stroke: #000000; stroke-width: 0.8"/>
      </g>
     </g>
     <g id="text_13">
      <!-- 0.008 -->
      <g transform="translate(18.371875 70.179707)scale(0.1 -0.1)">
       <defs>
        <path id="DejaVuSans-38" d="M 2034 2216 
Q 1584 2216 1326 1975 
Q 1069 1734 1069 1313 
Q 1069 891 1326 650 
Q 1584 409 2034 409 
Q 2484 409 2743 651 
Q 3003 894 3003 1313 
Q 3003 1734 2745 1975 
Q 2488 2216 2034 2216 
z
M 1403 2484 
Q 997 2584 770 2862 
Q 544 3141 544 3541 
Q 544 4100 942 4425 
Q 1341 4750 2034 4750 
Q 2731 4750 3128 4425 
Q 3525 4100 3525 3541 
Q 3525 3141 3298 2862 
Q 3072 2584 2669 2484 
Q 3125 2378 3379 2068 
Q 3634 1759 3634 1313 
Q 3634 634 3220 271 
Q 2806 -91 2034 -91 
Q 1263 -91 848 271 
Q 434 634 434 1313 
Q 434 1759 690 2068 
Q 947 2378 1403 2484 
z
M 1172 3481 
Q 1172 3119 1398 2916 
Q 1625 2713 2034 2713 
Q 2441 2713 2670 2916 
Q 2900 3119 2900 3481 
Q 2900 3844 2670 4047 
Q 2441 4250 2034 4250 
Q 1625 4250 1398 4047 
Q 1172 3844 1172 3481 
z
" transform="scale(0.015625)"/>
       </defs>
       <use xlink:href="#DejaVuSans-30"/>
       <use xlink:href="#DejaVuSans-2e" x="63.623047"/>
       <use xlink:href="#DejaVuSans-30" x="95.410156"/>
       <use xlink:href="#DejaVuSans-30" x="159.033203"/>
       <use xlink:href="#DejaVuSans-38" x="222.65625"/>
      </g>
     </g>
    </g>
    <g id="ytick_9">
     <g id="line2d_13">
      <g>
       <use xlink:href="#m935d082a53" x="54" y="39.863415" style="stroke: #000000; stroke-width: 0.8"/>
      </g>
     </g>
     <g id="text_14">
      <!-- 0.009 -->
      <g transform="translate(18.371875 43.662633)scale(0.1 -0.1)">
       <defs>
        <path id="DejaVuSans-39" d="M 703 97 
L 703 672 
Q 941 559 1184 500 
Q 1428 441 1663 441 
Q 2288 441 2617 861 
Q 2947 1281 2994 2138 
Q 2813 1869 2534 1725 
Q 2256 1581 1919 1581 
Q 1219 1581 811 2004 
Q 403 2428 403 3163 
Q 403 3881 828 4315 
Q 1253 4750 1959 4750 
Q 2769 4750 3195 4129 
Q 3622 3509 3622 2328 
Q 3622 1225 3098 567 
Q 2575 -91 1691 -91 
Q 1453 -91 1209 -44 
Q 966 3 703 97 
z
M 1959 2075 
Q 2384 2075 2632 2365 
Q 2881 2656 2881 3163 
Q 2881 3666 2632 3958 
Q 2384 4250 1959 4250 
Q 1534 4250 1286 3958 
Q 1038 3666 1038 3163 
Q 1038 2656 1286 2365 
Q 1534 2075 1959 2075 
z
" transform="scale(0.015625)"/>
       </defs>
       <use xlink:href="#DejaVuSans-30"/>
       <use xlink:href="#DejaVuSans-2e" x="63.623047"/>
       <use xlink:href="#DejaVuSans-30" x="95.410156"/>
       <use xlink:href="#DejaVuSans-30" x="159.033203"/>
       <use xlink:href="#DejaVuSans-39" x="222.65625"/>
      </g>
     </g>
    </g>
    <g id="text_15">
     <!-- value -->
     <g transform="translate(12.292187 156.937813)rotate(-90)scale(0.1 -0.1)">
      <defs>
       <path id="DejaVuSans-75" d="M 544 1381 
L 544 3500 
L 1119 3500 
L 1119 1403 
Q 1119 906 1312 657 
Q 1506 409 1894 409 
Q 2359 409 2629 706 
Q 2900 1003 2900 1516 
L 2900 3500 
L 3475 3500 
L 3475 0 
L 2900 0 
L 2900 538 
Q 2691 219 2414 64 
Q 2138 -91 1772 -91 
Q 1169 -91 856 284 
Q 544 659 544 1381 
z
M 1991 3584 
L 1991 3584 
z
" transform="scale(0.015625)"/>
      </defs>
      <use xlink:href="#DejaVuSans-76"/>
      <use xlink:href="#DejaVuSans-61" x="59.179688"/>
      <use xlink:href="#DejaVuSans-6c" x="120.458984"/>
      <use xlink:href="#DejaVuSans-75" x="148.242188"/>
      <use xlink:href="#DejaVuSans-65" x="211.621094"/>
     </g>
    </g>
   </g>
   <g id="line2d_14">
    <path d="M 95.85 173.592125 
L 95.85 160.543083 
" clip-path="url(#p117b875c7b)" style="fill: none; stroke: #4d4d4d; stroke-width: 1.5; stroke-linecap: square"/>
   </g>
   <g id="line2d_15">
    <path d="M 95.85 168.909561 
L 95.85 165.425378 
" clip-path="url(#p117b875c7b)" style="fill: none; stroke: #4d4d4d; stroke-width: 4.5; stroke-linecap: square"/>
   </g>
   <g id="line2d_16">
    <path d="M 179.55 194.986138 
L 179.55 174.103404 
" clip-path="url(#p117b875c7b)" style="fill: none; stroke: #4d4d4d; stroke-width: 1.5; stroke-linecap: square"/>
   </g>
   <g id="line2d_17">
    <path d="M 179.55 188.376975 
L 179.55 182.54536 
" clip-path="url(#p117b875c7b)" style="fill: none; stroke: #4d4d4d; stroke-width: 4.5; stroke-linecap: square"/>
   </g>
   <g id="line2d_18">
    <path d="M 263.25 205.045222 
L 263.25 168.594071 
" clip-path="url(#p117b875c7b)" style="fill: none; stroke: #4d4d4d; stroke-width: 1.5; stroke-linecap: square"/>
   </g>
   <g id="line2d_19">
    <path d="M 263.25 193.227076 
L 263.25 182.832802 
" clip-path="url(#p117b875c7b)" style="fill: none; stroke: #4d4d4d; stroke-width: 4.5; stroke-linecap: square"/>
   </g>
   <g id="line2d_20">
    <path d="M 346.95 180.774657 
L 346.95 148.934325 
" clip-path="url(#p117b875c7b)" style="fill: none; stroke: #4d4d4d; stroke-width: 1.5; stroke-linecap: square"/>
   </g>
   <g id="line2d_21">
    <path d="M 346.95 168.371737 
L 346.95 157.819999 
" clip-path="url(#p117b875c7b)" style="fill: none; stroke: #4d4d4d; stroke-width: 4.5; stroke-linecap: square"/>
   </g>
   <g id="patch_3">
    <path d="M 54 252 
L 54 34.56 
" style="fill: none; stroke: #000000; stroke-width: 0.8; stroke-linejoin: miter; stroke-linecap: square"/>
   </g>
   <g id="patch_4">
    <path d="M 388.8 252 
L 388.8 34.56 
" style="fill: none; stroke: #000000; stroke-width: 0.8; stroke-linejoin: miter; stroke-linecap: square"/>
   </g>
   <g id="patch_5">
    <path d="M 54 252 
L 388.8 252 
" style="fill: none; stroke: #000000; stroke-width: 0.8; stroke-linejoin: miter; stroke-linecap: square"/>
   </g>
   <g id="patch_6">
    <path d="M 54 34.56 
L 388.8 34.56 
" style="fill: none; stroke: #000000; stroke-width: 0.8; stroke-linejoin: miter; stroke-linecap: square"/>
   </g>
   <g id="PathCollection_1">
    <defs>
     <path id="m60c0ed0e33" d="M 0 1.5 
C 0.397805 1.5 0.77937 1.341951 1.06066 1.06066 
C 1.341951 0.77937 1.5 0.397805 1.5 0 
C 1.5 -0.397805 1.341951 -0.77937 1.06066 -1.06066 
C 0.77937 -1.341951 0.397805 -1.5 0 -1.5 
C -0.397805 -1.5 -0.77937 -1.341951 -1.06066 -1.06066 
C -1.341951 -0.77937 -1.5 -0.397805 -1.5 0 
C -1.5 0.397805 -1.341951 0.77937 -1.06066 1.06066 
C -0.77937 1.341951 -0.397805 1.5 0 1.5 
z
" style="stroke: #4d4d4d"/>
    </defs>
    <g clip-path="url(#p117b875c7b)">
     <use xlink:href="#m60c0ed0e33" x="95.85" y="167.200758" style="fill: #ffffff; stroke: #4d4d4d"/>
    </g>
   </g>
   <g id="PathCollection_2">
    <g clip-path="url(#p117b875c7b)">
     <use xlink:href="#m60c0ed0e33" x="179.55" y="184.766928" style="fill: #ffffff; stroke: #4d4d4d"/>
    </g>
   </g>
   <g id="PathCollection_3">
    <g clip-path="url(#p117b875c7b)">
     <use xlink:href="#m60c0ed0e33" x="263.25" y="187.673971" style="fill: #ffffff; stroke: #4d4d4d"/>
    </g>
   </g>
   <g id="PathCollection_4">
    <g clip-path="url(#p117b875c7b)">
     <use xlink:href="#m60c0ed0e33" x="346.95" y="164.114018" style="fill: #ffffff; stroke: #4d4d4d"/>
    </g>
   </g>
   <g id="PathCollection_5">
    <defs>
     <path id="m92187bfc92" d="M -0 5.656854 
L 5.656854 0 
L 0 -5.656854 
L -5.656854 -0 
z
" style="stroke: #4c4c4c"/>
    </defs>
    <g clip-path="url(#p117b875c7b)">
     <use xlink:href="#m92187bfc92" x="95.85" y="85.710823" style="fill: #ff0000; stroke: #4c4c4c"/>
    </g>
   </g>
   <g id="PathCollection_6">
    <g clip-path="url(#p117b875c7b)">
     <use xlink:href="#m92187bfc92" x="179.55" y="125.451077" style="fill: #ff0000; stroke: #4c4c4c"/>
    </g>
   </g>
   <g id="PathCollection_7">
    <g clip-path="url(#p117b875c7b)">
     <use xlink:href="#m92187bfc92" x="263.25" y="124.73878" style="fill: #ff0000; stroke: #4c4c4c"/>
    </g>
   </g>
   <g id="PathCollection_8">
    <g clip-path="url(#p117b875c7b)">
     <use xlink:href="#m92187bfc92" x="346.95" y="43.78718" style="fill: #ff0000; stroke: #4c4c4c"/>
    </g>
   </g>
   <g id="legend_1"/>
  </g>
 </g>
 <defs>
  <clipPath id="p117b875c7b">
   <rect x="54" y="34.56" width="334.8" height="217.44"/>
  </clipPath>
 </defs>
</svg>
