<svg version="1.1" xmlns="http://www.w3.org/2000/svg" width="400" height="200"><defs><clipPath id="eEHUQikodzWT"><path fill="none" stroke="none" d="M 6.5 5.5 L 395.5 5.5 L 395.5 194.5 L 6.5 194.5 L 6.5 5.5"/></clipPath><clipPath id="TFpPMTXvoENE"><path fill="none" stroke="none" d="M 6.5 5.5 L 395.5 5.5 L 395.5 194.5 L 6.5 194.5 L 6.5 5.5"/></clipPath><clipPath id="FcrrOnDXFKCA"><path fill="none" stroke="none" d="M 6.5 5.5 L 395.5 5.5 L 395.5 194.5 L 6.5 194.5 L 6.5 5.5"/></clipPath></defs><path fill="rgb(255,255,255)" stroke="none" paint-order="stroke" d="M 0.5 0.5 L 400.5 0.5 L 400.5 200.5 L 0.5 200.5 L 0.5 0.5" fill-opacity="1"/><rect fill="#FFFFFF" stroke="none" x="6" y="5" width="389" height="189" transform="matrix(1, 0, 0, 1, 0.5, 0.5)"/><path fill="rgb(255,255,255)" stroke="none" paint-order="stroke" d="M 6.5 5.5 L 395.5 5.5 L 395.5 194.5 L 6.5 194.5 L 6.5 5.5" fill-opacity="1"/><path fill="none" stroke="rgb(0,0,0)" paint-order="fill" d="M 6.5 5.5 L 395.5 5.5 L 395.5 194.5 L 6.5 194.5 L 6.5 5.5" stroke-opacity="1" stroke-linejoin="bevel" stroke-miterlimit="10" stroke-dasharray=""/><path fill="rgb(141,176,254)" stroke="rgb(0,0,0)" paint-order="fill" d="M 22.708332061767578 189.4712677001953 L 42.15833282470703 189.4712677001953 L 42.15833282470703 194.5 L 22.708332061767578 194.5 L 22.708332061767578 189.4712677001953" fill-opacity="1" clip-path="url(#FcrrOnDXFKCA)" stroke-opacity="1" stroke-linejoin="bevel" stroke-miterlimit="10" stroke-dasharray=""/><path fill="rgb(141,176,254)" stroke="rgb(0,0,0)" paint-order="fill" d="M 48.64166259765625 164.80157470703125 L 68.09166717529297 164.80157470703125 L 68.09166717529297 194.5 L 48.64166259765625 194.5 L 48.64166259765625 164.80157470703125" fill-opacity="1" clip-path="url(#FcrrOnDXFKCA)" stroke-opacity="1" stroke-linejoin="bevel" stroke-miterlimit="10" stroke-dasharray=""/><path fill="rgb(244,152,122)" stroke="rgb(0,0,0)" paint-order="fill" d="M 74.57500457763672 173.78314208984375 L 94.0250015258789 173.78314208984375 L 94.0250015258789 194.5 L 74.57500457763672 194.5 L 74.57500457763672 173.78314208984375" fill-opacity="1" clip-path="url(#FcrrOnDXFKCA)" stroke-opacity="1" stroke-linejoin="bevel" stroke-miterlimit="10" stroke-dasharray=""/><path fill="rgb(141,176,254)" stroke="rgb(0,0,0)" paint-order="fill" d="M 100.50833129882812 190.6262664794922 L 119.95832824707031 190.6262664794922 L 119.95832824707031 194.5 L 100.50833129882812 194.5 L 100.50833129882812 190.6262664794922" fill-opacity="1" clip-path="url(#FcrrOnDXFKCA)" stroke-opacity="1" stroke-linejoin="bevel" stroke-miterlimit="10" stroke-dasharray=""/><path fill="rgb(244,152,122)" stroke="rgb(0,0,0)" paint-order="fill" d="M 126.4416732788086 188.2657928466797 L 145.8916778564453 188.2657928466797 L 145.8916778564453 194.5 L 126.4416732788086 194.5 L 126.4416732788086 188.2657928466797" fill-opacity="1" clip-path="url(#FcrrOnDXFKCA)" stroke-opacity="1" stroke-linejoin="bevel" stroke-miterlimit="10" stroke-dasharray=""/><path fill="rgb(244,152,122)" stroke="rgb(0,0,0)" paint-order="fill" d="M 152.375 182.51052856445312 L 171.82501220703125 182.51052856445312 L 171.82501220703125 194.5 L 152.375 194.5 L 152.375 182.51052856445312" fill-opacity="1" clip-path="url(#FcrrOnDXFKCA)" stroke-opacity="1" stroke-linejoin="bevel" stroke-miterlimit="10" stroke-dasharray=""/><path fill="rgb(244,152,122)" stroke="rgb(0,0,0)" paint-order="fill" d="M 178.30833435058594 192.1484375 L 197.7583465576172 192.1484375 L 197.7583465576172 194.5 L 178.30833435058594 194.5 L 178.30833435058594 192.1484375" fill-opacity="1" clip-path="url(#FcrrOnDXFKCA)" stroke-opacity="1" stroke-linejoin="bevel" stroke-miterlimit="10" stroke-dasharray=""/><path fill="rgb(244,152,122)" stroke="rgb(0,0,0)" paint-order="fill" d="M 204.2416534423828 178.80982971191406 L 223.69166564941406 178.80982971191406 L 223.69166564941406 194.5 L 204.2416534423828 194.5 L 204.2416534423828 178.80982971191406" fill-opacity="1" clip-path="url(#FcrrOnDXFKCA)" stroke-opacity="1" stroke-linejoin="bevel" stroke-miterlimit="10" stroke-dasharray=""/><path fill="rgb(244,152,122)" stroke="rgb(0,0,0)" paint-order="fill" d="M 230.17498779296875 178.62625122070312 L 249.625 178.62625122070312 L 249.625 194.5 L 230.17498779296875 194.5 L 230.17498779296875 178.62625122070312" fill-opacity="1" clip-path="url(#FcrrOnDXFKCA)" stroke-opacity="1" stroke-linejoin="bevel" stroke-miterlimit="10" stroke-dasharray=""/><path fill="rgb(141,176,254)" stroke="rgb(0,0,0)" paint-order="fill" d="M 256.10833740234375 193.85928344726562 L 275.558349609375 193.85928344726562 L 275.558349609375 194.5 L 256.10833740234375 194.5 L 256.10833740234375 193.85928344726562" fill-opacity="1" clip-path="url(#FcrrOnDXFKCA)" stroke-opacity="1" stroke-linejoin="bevel" stroke-miterlimit="10" stroke-dasharray=""/><path fill="rgb(141,176,254)" stroke="rgb(0,0,0)" paint-order="fill" d="M 282.0416564941406 192.5875244140625 L 301.4916687011719 192.5875244140625 L 301.4916687011719 194.5 L 282.0416564941406 194.5 L 282.0416564941406 192.5875244140625" fill-opacity="1" clip-path="url(#FcrrOnDXFKCA)" stroke-opacity="1" stroke-linejoin="bevel" stroke-miterlimit="10" stroke-dasharray=""/><path fill="rgb(244,152,122)" stroke="rgb(0,0,0)" paint-order="fill" d="M 307.9750061035156 181.1249542236328 L 327.4250183105469 181.1249542236328 L 327.4250183105469 194.5 L 307.9750061035156 194.5 L 307.9750061035156 181.1249542236328" fill-opacity="1" clip-path="url(#FcrrOnDXFKCA)" stroke-opacity="1" stroke-linejoin="bevel" stroke-miterlimit="10" stroke-dasharray=""/><path fill="rgb(244,152,122)" stroke="rgb(0,0,0)" paint-order="fill" d="M 333.9083251953125 167.7003936767578 L 353.35833740234375 167.7003936767578 L 353.35833740234375 194.5 L 333.9083251953125 194.5 L 333.9083251953125 167.7003936767578" fill-opacity="1" clip-path="url(#FcrrOnDXFKCA)" stroke-opacity="1" stroke-linejoin="bevel" stroke-miterlimit="10" stroke-dasharray=""/><path fill="rgb(141,176,254)" stroke="rgb(0,0,0)" paint-order="fill" d="M 359.8416748046875 173.70278930664062 L 379.29168701171875 173.70278930664062 L 379.29168701171875 194.5 L 359.8416748046875 194.5 L 359.8416748046875 173.70278930664062" fill-opacity="1" clip-path="url(#FcrrOnDXFKCA)" stroke-opacity="1" stroke-linejoin="bevel" stroke-miterlimit="10" stroke-dasharray=""/><path fill="none" stroke="rgb(0,0,0)" paint-order="fill" d="M 6.5 194.5 L 395.5 194.5" stroke-opacity="1" stroke-linejoin="bevel" stroke-miterlimit="10" stroke-dasharray=""/><path fill="none" stroke="rgb(0,0,0)" paint-order="fill" d="M 6.5 194.5 L 6.5 5.5" stroke-opacity="1" stroke-linejoin="bevel" stroke-miterlimit="10" stroke-dasharray=""/><path fill="none" stroke="rgb(0,0,0)" paint-order="fill" d="" stroke-opacity="1" stroke-linejoin="bevel" stroke-miterlimit="10" stroke-dasharray=""/></svg>