<svg version="1.1" xmlns="http://www.w3.org/2000/svg" width="400" height="200"><defs><clipPath id="GioiiaKdwzhx"><path fill="none" stroke="none" d="M 6.5 5.5 L 395.5 5.5 L 395.5 194.5 L 6.5 194.5 L 6.5 5.5"/></clipPath><clipPath id="NCifwTWfRdgP"><path fill="none" stroke="none" d="M 6.5 5.5 L 395.5 5.5 L 395.5 194.5 L 6.5 194.5 L 6.5 5.5"/></clipPath><clipPath id="WpzgaAtCJmkl"><path fill="none" stroke="none" d="M 6.5 5.5 L 395.5 5.5 L 395.5 194.5 L 6.5 194.5 L 6.5 5.5"/></clipPath></defs><path fill="rgb(255,255,255)" stroke="none" paint-order="stroke" d="M 0.5 0.5 L 400.5 0.5 L 400.5 200.5 L 0.5 200.5 L 0.5 0.5" fill-opacity="1"/><rect fill="#FFFFFF" stroke="none" x="6" y="5" width="389" height="189" transform="matrix(1, 0, 0, 1, 0.5, 0.5)"/><path fill="rgb(255,255,255)" stroke="none" paint-order="stroke" d="M 6.5 5.5 L 395.5 5.5 L 395.5 194.5 L 6.5 194.5 L 6.5 5.5" fill-opacity="1"/><path fill="none" stroke="rgb(0,0,0)" paint-order="fill" d="M 6.5 5.5 L 395.5 5.5 L 395.5 194.5 L 6.5 194.5 L 6.5 5.5" stroke-opacity="1" stroke-linejoin="bevel" stroke-miterlimit="10" stroke-dasharray=""/><path fill="rgb(141,176,254)" stroke="rgb(0,0,0)" paint-order="fill" d="M 30.812501907348633 189.27847290039062 L 59.98750305175781 189.27847290039062 L 59.98750305175781 194.5 L 30.812501907348633 194.5 L 30.812501907348633 189.27847290039062" fill-opacity="1" clip-path="url(#WpzgaAtCJmkl)" stroke-opacity="1" stroke-linejoin="bevel" stroke-miterlimit="10" stroke-dasharray=""/><path fill="rgb(244,152,122)" stroke="rgb(0,0,0)" paint-order="fill" d="M 69.7125015258789 146.9801025390625 L 98.88750457763672 146.9801025390625 L 98.88750457763672 194.5 L 69.7125015258789 194.5 L 69.7125015258789 146.9801025390625" fill-opacity="1" clip-path="url(#WpzgaAtCJmkl)" stroke-opacity="1" stroke-linejoin="bevel" stroke-miterlimit="10" stroke-dasharray=""/><path fill="rgb(244,152,122)" stroke="rgb(0,0,0)" paint-order="fill" d="M 108.61249542236328 98.5826416015625 L 137.78749084472656 98.5826416015625 L 137.78749084472656 194.5 L 108.61249542236328 194.5 L 108.61249542236328 98.5826416015625" fill-opacity="1" clip-path="url(#WpzgaAtCJmkl)" stroke-opacity="1" stroke-linejoin="bevel" stroke-miterlimit="10" stroke-dasharray=""/><path fill="rgb(244,152,122)" stroke="rgb(0,0,0)" paint-order="fill" d="M 147.51251220703125 111.49583435058594 L 176.6875 111.49583435058594 L 176.6875 194.5 L 147.51251220703125 194.5 L 147.51251220703125 111.49583435058594" fill-opacity="1" clip-path="url(#WpzgaAtCJmkl)" stroke-opacity="1" stroke-linejoin="bevel" stroke-miterlimit="10" stroke-dasharray=""/><path fill="rgb(141,176,254)" stroke="rgb(0,0,0)" paint-order="fill" d="M 186.41250610351562 192.9381103515625 L 215.58749389648438 192.9381103515625 L 215.58749389648438 194.5 L 186.41250610351562 194.5 L 186.41250610351562 192.9381103515625" fill-opacity="1" clip-path="url(#WpzgaAtCJmkl)" stroke-opacity="1" stroke-linejoin="bevel" stroke-miterlimit="10" stroke-dasharray=""/><path fill="rgb(141,176,254)" stroke="rgb(0,0,0)" paint-order="fill" d="M 225.3125 191.78683471679688 L 254.48748779296875 191.78683471679688 L 254.48748779296875 194.5 L 225.3125 194.5 L 225.3125 191.78683471679688" fill-opacity="1" clip-path="url(#WpzgaAtCJmkl)" stroke-opacity="1" stroke-linejoin="bevel" stroke-miterlimit="10" stroke-dasharray=""/><path fill="rgb(141,176,254)" stroke="rgb(0,0,0)" paint-order="fill" d="M 264.2124938964844 187.9076385498047 L 293.3874816894531 187.9076385498047 L 293.3874816894531 194.5 L 264.2124938964844 194.5 L 264.2124938964844 187.9076385498047" fill-opacity="1" clip-path="url(#WpzgaAtCJmkl)" stroke-opacity="1" stroke-linejoin="bevel" stroke-miterlimit="10" stroke-dasharray=""/><path fill="rgb(244,152,122)" stroke="rgb(0,0,0)" paint-order="fill" d="M 303.1125183105469 144.16485595703125 L 332.2875061035156 144.16485595703125 L 332.2875061035156 194.5 L 303.1125183105469 194.5 L 303.1125183105469 144.16485595703125" fill-opacity="1" clip-path="url(#WpzgaAtCJmkl)" stroke-opacity="1" stroke-linejoin="bevel" stroke-miterlimit="10" stroke-dasharray=""/><path fill="rgb(244,152,122)" stroke="rgb(0,0,0)" paint-order="fill" d="M 342.01251220703125 107.46971130371094 L 371.1875 107.46971130371094 L 371.1875 194.5 L 342.01251220703125 194.5 L 342.01251220703125 107.46971130371094" fill-opacity="1" clip-path="url(#WpzgaAtCJmkl)" stroke-opacity="1" stroke-linejoin="bevel" stroke-miterlimit="10" stroke-dasharray=""/><path fill="none" stroke="rgb(0,0,0)" paint-order="fill" d="M 6.5 194.5 L 395.5 194.5" stroke-opacity="1" stroke-linejoin="bevel" stroke-miterlimit="10" stroke-dasharray=""/><path fill="none" stroke="rgb(0,0,0)" paint-order="fill" d="M 6.5 194.5 L 6.5 5.5" stroke-opacity="1" stroke-linejoin="bevel" stroke-miterlimit="10" stroke-dasharray=""/><path fill="none" stroke="rgb(0,0,0)" paint-order="fill" d="" stroke-opacity="1" stroke-linejoin="bevel" stroke-miterlimit="10" stroke-dasharray=""/></svg>