<?xml version="1.0" encoding="utf-8" standalone="no"?>
<!DOCTYPE svg PUBLIC "-//W3C//DTD SVG 1.1//EN"
  "http://www.w3.org/Graphics/SVG/1.1/DTD/svg11.dtd">
<svg xmlns:xlink="http://www.w3.org/1999/xlink" width="360pt" height="360pt" viewBox="0 0 360 360" xmlns="http://www.w3.org/2000/svg" version="1.1">
 <metadata>
  <rdf:RDF xmlns:dc="http://purl.org/dc/elements/1.1/" xmlns:cc="http://creativecommons.org/ns#" xmlns:rdf="http://www.w3.org/1999/02/22-rdf-syntax-ns#">
   <cc:Work>
    <dc:type rdf:resource="http://purl.org/dc/dcmitype/StillImage"/>
    <dc:date>2022-12-14T16:57:03.016767</dc:date>
    <dc:format>image/svg+xml</dc:format>
    <dc:creator>
     <cc:Agent>
      <dc:title>Matplotlib v3.5.1, https://matplotlib.org/</dc:title>
     </cc:Agent>
    </dc:creator>
   </cc:Work>
  </rdf:RDF>
 </metadata>
 <defs>
  <style type="text/css">*{stroke-linejoin: round; stroke-linecap: butt}</style>
 </defs>
 <g id="figure_1">
  <g id="patch_1">
   <path d="M 0 360 
L 360 360 
L 360 0 
L 0 0 
L 0 360 
z
" style="fill: none"/>
  </g>
  <g id="axes_1">
   <g id="patch_2">
    <path d="M 45 315 
L 324 315 
L 324 43.2 
L 45 43.2 
z
" style="fill: #ffffff"/>
   </g>
   <g id="PathCollection_1">
    <defs>
     <path id="m5c50d2b0df" d="M 0 3 
C 0.795609 3 1.55874 2.683901 2.12132 2.12132 
C 2.683901 1.55874 3 0.795609 3 0 
C 3 -0.795609 2.683901 -1.55874 2.12132 -2.12132 
C 1.55874 -2.683901 0.795609 -3 0 -3 
C -0.795609 -3 -1.55874 -2.683901 -2.12132 -2.12132 
C -2.683901 -1.55874 -3 -0.795609 -3 0 
C -3 0.795609 -2.683901 1.55874 -2.12132 2.12132 
C -1.55874 2.683901 -0.795609 3 0 3 
z
" style="stroke: #000000; stroke-opacity: 0.8"/>
    </defs>
    <g clip-path="url(#p346f7713ff)">
     <use xlink:href="#m5c50d2b0df" x="166.870863" y="242.17957" style="fill-opacity: 0.8; stroke: #000000; stroke-opacity: 0.8"/>
     <use xlink:href="#m5c50d2b0df" x="248.196174" y="150.797415" style="fill-opacity: 0.8; stroke: #000000; stroke-opacity: 0.8"/>
     <use xlink:href="#m5c50d2b0df" x="303.20513" y="66.941814" style="fill-opacity: 0.8; stroke: #000000; stroke-opacity: 0.8"/>
     <use xlink:href="#m5c50d2b0df" x="302.180672" y="89.315788" style="fill-opacity: 0.8; stroke: #000000; stroke-opacity: 0.8"/>
     <use xlink:href="#m5c50d2b0df" x="108.796534" y="235.838732" style="fill-opacity: 0.8; stroke: #000000; stroke-opacity: 0.8"/>
     <use xlink:href="#m5c50d2b0df" x="132.539888" y="237.833493" style="fill-opacity: 0.8; stroke: #000000; stroke-opacity: 0.8"/>
     <use xlink:href="#m5c50d2b0df" x="66.360791" y="244.554747" style="fill-opacity: 0.8; stroke: #000000; stroke-opacity: 0.8"/>
     <use xlink:href="#m5c50d2b0df" x="206.278191" y="145.919589" style="fill-opacity: 0.8; stroke: #000000; stroke-opacity: 0.8"/>
     <use xlink:href="#m5c50d2b0df" x="157.778399" y="82.339946" style="fill-opacity: 0.8; stroke: #000000; stroke-opacity: 0.8"/>
    </g>
   </g>
   <g id="PolyCollection_1">
    <path d="M 66.360791 182.224687 
L 66.360791 311.503948 
L 68.753158 309.106665 
L 71.145525 306.709382 
L 73.537892 304.31201 
L 75.930259 301.912629 
L 78.322626 299.513247 
L 80.714994 297.113866 
L 83.107361 294.714484 
L 85.499728 292.356975 
L 87.892095 290.176274 
L 90.284462 287.841203 
L 92.676829 285.431526 
L 95.069196 283.016541 
L 97.461563 280.601555 
L 99.85393 278.145979 
L 102.246297 275.631826 
L 104.638664 273.365796 
L 107.031031 270.951238 
L 109.423398 268.321288 
L 111.815765 265.955947 
L 114.208132 263.684505 
L 116.600499 261.303882 
L 118.992866 258.951455 
L 121.385234 256.712656 
L 123.777601 254.473857 
L 126.169968 252.235059 
L 128.562335 249.99626 
L 130.954702 247.757461 
L 133.347069 245.518662 
L 135.739436 243.273479 
L 138.131803 241.006395 
L 140.52417 238.804145 
L 142.916537 236.695492 
L 145.308904 234.867159 
L 147.701271 232.547263 
L 150.093638 230.217349 
L 152.486005 227.872184 
L 154.878372 225.63172 
L 157.270739 223.252594 
L 159.663106 220.920484 
L 162.055473 218.682053 
L 164.447841 216.446473 
L 166.840208 214.204095 
L 169.232575 212.101313 
L 171.624942 210.117898 
L 174.017309 208.273507 
L 176.409676 206.603354 
L 178.802043 204.769311 
L 181.19441 202.528482 
L 183.586777 200.101849 
L 185.979144 197.668145 
L 188.371511 195.937739 
L 190.763878 194.339874 
L 193.156245 192.785019 
L 195.548612 190.997224 
L 197.940979 188.654074 
L 200.333346 187.129255 
L 202.725713 184.708111 
L 205.118081 182.868288 
L 207.510448 180.753246 
L 209.902815 179.262821 
L 212.295182 176.961622 
L 214.687549 174.914498 
L 217.079916 173.089101 
L 219.472283 171.412864 
L 221.86465 169.079335 
L 224.257017 167.473709 
L 226.649384 165.884632 
L 229.041751 164.299747 
L 231.434118 162.716578 
L 233.826485 161.117401 
L 236.218852 159.528324 
L 238.611219 157.581796 
L 241.003586 156.177366 
L 243.395953 154.761092 
L 245.788321 153.172015 
L 248.180688 151.582938 
L 250.573055 149.855152 
L 252.965422 148.030634 
L 255.357789 146.206117 
L 257.750156 144.3816 
L 260.142523 142.557082 
L 262.53489 140.732565 
L 264.927257 139.106215 
L 267.319624 137.966628 
L 269.711991 136.827042 
L 272.104358 135.27067 
L 274.496725 134.056804 
L 276.889092 132.514011 
L 279.281459 130.967867 
L 281.673826 129.77236 
L 284.066193 128.168036 
L 286.458561 126.573174 
L 288.850928 125.172984 
L 291.243295 123.949872 
L 293.635662 122.271855 
L 296.028029 120.606114 
L 298.420396 119.03635 
L 300.812763 117.592348 
L 303.20513 116.270152 
L 303.20513 56.389245 
L 303.20513 56.389245 
L 300.812763 57.845898 
L 298.420396 59.302551 
L 296.028029 61.008643 
L 293.635662 62.887621 
L 291.243295 64.692562 
L 288.850928 66.481266 
L 286.458561 67.959778 
L 284.066193 69.312094 
L 281.673826 70.610723 
L 279.281459 71.935657 
L 276.889092 73.75751 
L 274.496725 75.612625 
L 272.104358 77.46774 
L 269.711991 79.15657 
L 267.319624 80.767992 
L 264.927257 82.388512 
L 262.53489 84.172018 
L 260.142523 85.955524 
L 257.750156 87.473387 
L 255.357789 88.798846 
L 252.965422 90.18426 
L 250.573055 91.553839 
L 248.180688 93.043278 
L 245.788321 94.274509 
L 243.395953 96.110786 
L 241.003586 98.021154 
L 238.611219 99.931523 
L 236.218852 101.621691 
L 233.826485 102.839375 
L 231.434118 103.866689 
L 229.041751 105.247063 
L 226.649384 106.888723 
L 224.257017 108.484282 
L 221.86465 109.880229 
L 219.472283 110.667853 
L 217.079916 111.472878 
L 214.687549 112.277904 
L 212.295182 113.43869 
L 209.902815 114.653816 
L 207.510448 116.020483 
L 205.118081 117.378651 
L 202.725713 118.687048 
L 200.333346 120.210852 
L 197.940979 121.736223 
L 195.548612 122.819832 
L 193.156245 124.925611 
L 190.763878 125.67111 
L 188.371511 126.397473 
L 185.979144 127.247375 
L 183.586777 129.294664 
L 181.19441 130.957855 
L 178.802043 132.190971 
L 176.409676 133.17617 
L 174.017309 134.467325 
L 171.624942 135.901299 
L 169.232575 137.335273 
L 166.840208 138.769247 
L 164.447841 139.819128 
L 162.055473 140.480294 
L 159.663106 141.14146 
L 157.270739 141.819189 
L 154.878372 144.28602 
L 152.486005 145.301784 
L 150.093638 146.099766 
L 147.701271 146.900004 
L 145.308904 148.216141 
L 142.916537 149.829111 
L 140.52417 151.667092 
L 138.131803 152.86598 
L 135.739436 153.779068 
L 133.347069 154.692156 
L 130.954702 155.605244 
L 128.562335 156.527042 
L 126.169968 157.661098 
L 123.777601 158.382435 
L 121.385234 159.394439 
L 118.992866 160.208701 
L 116.600499 161.115185 
L 114.208132 162.02167 
L 111.815765 162.674796 
L 109.423398 163.306571 
L 107.031031 164.020896 
L 104.638664 165.286438 
L 102.246297 166.562007 
L 99.85393 167.522231 
L 97.461563 168.47792 
L 95.069196 169.587345 
L 92.676829 170.69677 
L 90.284462 171.806195 
L 87.892095 172.91562 
L 85.499728 174.025045 
L 83.107361 175.13447 
L 80.714994 176.243895 
L 78.322626 177.35332 
L 75.930259 178.462745 
L 73.537892 179.57217 
L 71.145525 180.681595 
L 68.753158 181.529303 
L 66.360791 182.224687 
z
" clip-path="url(#p346f7713ff)" style="fill-opacity: 0.15"/>
   </g>
   <g id="matplotlib.axis_1">
    <g id="xtick_1">
     <g id="line2d_1">
      <defs>
       <path id="md9ad2f9347" d="M 0 0 
L 0 3.5 
" style="stroke: #000000; stroke-width: 0.8"/>
      </defs>
      <g>
       <use xlink:href="#md9ad2f9347" x="61.807229" y="315" style="stroke: #000000; stroke-width: 0.8"/>
      </g>
     </g>
     <g id="text_1">
      <!-- −0.2 -->
      <g transform="translate(49.665823 329.598437)scale(0.1 -0.1)">
       <defs>
        <path id="DejaVuSans-2212" d="M 678 2272 
L 4684 2272 
L 4684 1741 
L 678 1741 
L 678 2272 
z
" transform="scale(0.015625)"/>
        <path id="DejaVuSans-30" d="M 2034 4250 
Q 1547 4250 1301 3770 
Q 1056 3291 1056 2328 
Q 1056 1369 1301 889 
Q 1547 409 2034 409 
Q 2525 409 2770 889 
Q 3016 1369 3016 2328 
Q 3016 3291 2770 3770 
Q 2525 4250 2034 4250 
z
M 2034 4750 
Q 2819 4750 3233 4129 
Q 3647 3509 3647 2328 
Q 3647 1150 3233 529 
Q 2819 -91 2034 -91 
Q 1250 -91 836 529 
Q 422 1150 422 2328 
Q 422 3509 836 4129 
Q 1250 4750 2034 4750 
z
" transform="scale(0.015625)"/>
        <path id="DejaVuSans-2e" d="M 684 794 
L 1344 794 
L 1344 0 
L 684 0 
L 684 794 
z
" transform="scale(0.015625)"/>
        <path id="DejaVuSans-32" d="M 1228 531 
L 3431 531 
L 3431 0 
L 469 0 
L 469 531 
Q 828 903 1448 1529 
Q 2069 2156 2228 2338 
Q 2531 2678 2651 2914 
Q 2772 3150 2772 3378 
Q 2772 3750 2511 3984 
Q 2250 4219 1831 4219 
Q 1534 4219 1204 4116 
Q 875 4013 500 3803 
L 500 4441 
Q 881 4594 1212 4672 
Q 1544 4750 1819 4750 
Q 2544 4750 2975 4387 
Q 3406 4025 3406 3419 
Q 3406 3131 3298 2873 
Q 3191 2616 2906 2266 
Q 2828 2175 2409 1742 
Q 1991 1309 1228 531 
z
" transform="scale(0.015625)"/>
       </defs>
       <use xlink:href="#DejaVuSans-2212"/>
       <use xlink:href="#DejaVuSans-30" x="83.789062"/>
       <use xlink:href="#DejaVuSans-2e" x="147.412109"/>
       <use xlink:href="#DejaVuSans-32" x="179.199219"/>
      </g>
     </g>
    </g>
    <g id="xtick_2">
     <g id="line2d_2">
      <g>
       <use xlink:href="#md9ad2f9347" x="95.421687" y="315" style="stroke: #000000; stroke-width: 0.8"/>
      </g>
     </g>
     <g id="text_2">
      <!-- −0.1 -->
      <g transform="translate(83.28028 329.598437)scale(0.1 -0.1)">
       <defs>
        <path id="DejaVuSans-31" d="M 794 531 
L 1825 531 
L 1825 4091 
L 703 3866 
L 703 4441 
L 1819 4666 
L 2450 4666 
L 2450 531 
L 3481 531 
L 3481 0 
L 794 0 
L 794 531 
z
" transform="scale(0.015625)"/>
       </defs>
       <use xlink:href="#DejaVuSans-2212"/>
       <use xlink:href="#DejaVuSans-30" x="83.789062"/>
       <use xlink:href="#DejaVuSans-2e" x="147.412109"/>
       <use xlink:href="#DejaVuSans-31" x="179.199219"/>
      </g>
     </g>
    </g>
    <g id="xtick_3">
     <g id="line2d_3">
      <g>
       <use xlink:href="#md9ad2f9347" x="129.036145" y="315" style="stroke: #000000; stroke-width: 0.8"/>
      </g>
     </g>
     <g id="text_3">
      <!-- 0.0 -->
      <g transform="translate(121.084582 329.598437)scale(0.1 -0.1)">
       <use xlink:href="#DejaVuSans-30"/>
       <use xlink:href="#DejaVuSans-2e" x="63.623047"/>
       <use xlink:href="#DejaVuSans-30" x="95.410156"/>
      </g>
     </g>
    </g>
    <g id="xtick_4">
     <g id="line2d_4">
      <g>
       <use xlink:href="#md9ad2f9347" x="162.650602" y="315" style="stroke: #000000; stroke-width: 0.8"/>
      </g>
     </g>
     <g id="text_4">
      <!-- 0.1 -->
      <g transform="translate(154.69904 329.598437)scale(0.1 -0.1)">
       <use xlink:href="#DejaVuSans-30"/>
       <use xlink:href="#DejaVuSans-2e" x="63.623047"/>
       <use xlink:href="#DejaVuSans-31" x="95.410156"/>
      </g>
     </g>
    </g>
    <g id="xtick_5">
     <g id="line2d_5">
      <g>
       <use xlink:href="#md9ad2f9347" x="196.26506" y="315" style="stroke: #000000; stroke-width: 0.8"/>
      </g>
     </g>
     <g id="text_5">
      <!-- 0.2 -->
      <g transform="translate(188.313498 329.598437)scale(0.1 -0.1)">
       <use xlink:href="#DejaVuSans-30"/>
       <use xlink:href="#DejaVuSans-2e" x="63.623047"/>
       <use xlink:href="#DejaVuSans-32" x="95.410156"/>
      </g>
     </g>
    </g>
    <g id="xtick_6">
     <g id="line2d_6">
      <g>
       <use xlink:href="#md9ad2f9347" x="229.879518" y="315" style="stroke: #000000; stroke-width: 0.8"/>
      </g>
     </g>
     <g id="text_6">
      <!-- 0.3 -->
      <g transform="translate(221.927956 329.598437)scale(0.1 -0.1)">
       <defs>
        <path id="DejaVuSans-33" d="M 2597 2516 
Q 3050 2419 3304 2112 
Q 3559 1806 3559 1356 
Q 3559 666 3084 287 
Q 2609 -91 1734 -91 
Q 1441 -91 1130 -33 
Q 819 25 488 141 
L 488 750 
Q 750 597 1062 519 
Q 1375 441 1716 441 
Q 2309 441 2620 675 
Q 2931 909 2931 1356 
Q 2931 1769 2642 2001 
Q 2353 2234 1838 2234 
L 1294 2234 
L 1294 2753 
L 1863 2753 
Q 2328 2753 2575 2939 
Q 2822 3125 2822 3475 
Q 2822 3834 2567 4026 
Q 2313 4219 1838 4219 
Q 1578 4219 1281 4162 
Q 984 4106 628 3988 
L 628 4550 
Q 988 4650 1302 4700 
Q 1616 4750 1894 4750 
Q 2613 4750 3031 4423 
Q 3450 4097 3450 3541 
Q 3450 3153 3228 2886 
Q 3006 2619 2597 2516 
z
" transform="scale(0.015625)"/>
       </defs>
       <use xlink:href="#DejaVuSans-30"/>
       <use xlink:href="#DejaVuSans-2e" x="63.623047"/>
       <use xlink:href="#DejaVuSans-33" x="95.410156"/>
      </g>
     </g>
    </g>
    <g id="xtick_7">
     <g id="line2d_7">
      <g>
       <use xlink:href="#md9ad2f9347" x="263.493976" y="315" style="stroke: #000000; stroke-width: 0.8"/>
      </g>
     </g>
     <g id="text_7">
      <!-- 0.4 -->
      <g transform="translate(255.542413 329.598437)scale(0.1 -0.1)">
       <defs>
        <path id="DejaVuSans-34" d="M 2419 4116 
L 825 1625 
L 2419 1625 
L 2419 4116 
z
M 2253 4666 
L 3047 4666 
L 3047 1625 
L 3713 1625 
L 3713 1100 
L 3047 1100 
L 3047 0 
L 2419 0 
L 2419 1100 
L 313 1100 
L 313 1709 
L 2253 4666 
z
" transform="scale(0.015625)"/>
       </defs>
       <use xlink:href="#DejaVuSans-30"/>
       <use xlink:href="#DejaVuSans-2e" x="63.623047"/>
       <use xlink:href="#DejaVuSans-34" x="95.410156"/>
      </g>
     </g>
    </g>
    <g id="xtick_8">
     <g id="line2d_8">
      <g>
       <use xlink:href="#md9ad2f9347" x="297.108434" y="315" style="stroke: #000000; stroke-width: 0.8"/>
      </g>
     </g>
     <g id="text_8">
      <!-- 0.5 -->
      <g transform="translate(289.156871 329.598437)scale(0.1 -0.1)">
       <defs>
        <path id="DejaVuSans-35" d="M 691 4666 
L 3169 4666 
L 3169 4134 
L 1269 4134 
L 1269 2991 
Q 1406 3038 1543 3061 
Q 1681 3084 1819 3084 
Q 2600 3084 3056 2656 
Q 3513 2228 3513 1497 
Q 3513 744 3044 326 
Q 2575 -91 1722 -91 
Q 1428 -91 1123 -41 
Q 819 9 494 109 
L 494 744 
Q 775 591 1075 516 
Q 1375 441 1709 441 
Q 2250 441 2565 725 
Q 2881 1009 2881 1497 
Q 2881 1984 2565 2268 
Q 2250 2553 1709 2553 
Q 1456 2553 1204 2497 
Q 953 2441 691 2322 
L 691 4666 
z
" transform="scale(0.015625)"/>
       </defs>
       <use xlink:href="#DejaVuSans-30"/>
       <use xlink:href="#DejaVuSans-2e" x="63.623047"/>
       <use xlink:href="#DejaVuSans-35" x="95.410156"/>
      </g>
     </g>
    </g>
    <g id="text_9">
     <!-- ETS1 -->
     <g transform="translate(171.93125 343.276563)scale(0.1 -0.1)">
      <defs>
       <path id="DejaVuSans-45" d="M 628 4666 
L 3578 4666 
L 3578 4134 
L 1259 4134 
L 1259 2753 
L 3481 2753 
L 3481 2222 
L 1259 2222 
L 1259 531 
L 3634 531 
L 3634 0 
L 628 0 
L 628 4666 
z
" transform="scale(0.015625)"/>
       <path id="DejaVuSans-54" d="M -19 4666 
L 3928 4666 
L 3928 4134 
L 2272 4134 
L 2272 0 
L 1638 0 
L 1638 4134 
L -19 4134 
L -19 4666 
z
" transform="scale(0.015625)"/>
       <path id="DejaVuSans-53" d="M 3425 4513 
L 3425 3897 
Q 3066 4069 2747 4153 
Q 2428 4238 2131 4238 
Q 1616 4238 1336 4038 
Q 1056 3838 1056 3469 
Q 1056 3159 1242 3001 
Q 1428 2844 1947 2747 
L 2328 2669 
Q 3034 2534 3370 2195 
Q 3706 1856 3706 1288 
Q 3706 609 3251 259 
Q 2797 -91 1919 -91 
Q 1588 -91 1214 -16 
Q 841 59 441 206 
L 441 856 
Q 825 641 1194 531 
Q 1563 422 1919 422 
Q 2459 422 2753 634 
Q 3047 847 3047 1241 
Q 3047 1584 2836 1778 
Q 2625 1972 2144 2069 
L 1759 2144 
Q 1053 2284 737 2584 
Q 422 2884 422 3419 
Q 422 4038 858 4394 
Q 1294 4750 2059 4750 
Q 2388 4750 2728 4690 
Q 3069 4631 3425 4513 
z
" transform="scale(0.015625)"/>
      </defs>
      <use xlink:href="#DejaVuSans-45"/>
      <use xlink:href="#DejaVuSans-54" x="63.183594"/>
      <use xlink:href="#DejaVuSans-53" x="124.267578"/>
      <use xlink:href="#DejaVuSans-31" x="187.744141"/>
     </g>
    </g>
   </g>
   <g id="matplotlib.axis_2">
    <g id="ytick_1">
     <g id="line2d_9">
      <defs>
       <path id="mccc44e11ac" d="M 0 0 
L -3.5 0 
" style="stroke: #000000; stroke-width: 0.8"/>
      </defs>
      <g>
       <use xlink:href="#mccc44e11ac" x="45" y="298.626506" style="stroke: #000000; stroke-width: 0.8"/>
      </g>
     </g>
     <g id="text_10">
      <!-- −0.2 -->
      <g transform="translate(13.717187 302.425725)scale(0.1 -0.1)">
       <use xlink:href="#DejaVuSans-2212"/>
       <use xlink:href="#DejaVuSans-30" x="83.789062"/>
       <use xlink:href="#DejaVuSans-2e" x="147.412109"/>
       <use xlink:href="#DejaVuSans-32" x="179.199219"/>
      </g>
     </g>
    </g>
    <g id="ytick_2">
     <g id="line2d_10">
      <g>
       <use xlink:href="#mccc44e11ac" x="45" y="265.879518" style="stroke: #000000; stroke-width: 0.8"/>
      </g>
     </g>
     <g id="text_11">
      <!-- −0.1 -->
      <g transform="translate(13.717187 269.678737)scale(0.1 -0.1)">
       <use xlink:href="#DejaVuSans-2212"/>
       <use xlink:href="#DejaVuSans-30" x="83.789062"/>
       <use xlink:href="#DejaVuSans-2e" x="147.412109"/>
       <use xlink:href="#DejaVuSans-31" x="179.199219"/>
      </g>
     </g>
    </g>
    <g id="ytick_3">
     <g id="line2d_11">
      <g>
       <use xlink:href="#mccc44e11ac" x="45" y="233.13253" style="stroke: #000000; stroke-width: 0.8"/>
      </g>
     </g>
     <g id="text_12">
      <!-- 0.0 -->
      <g transform="translate(22.096875 236.931749)scale(0.1 -0.1)">
       <use xlink:href="#DejaVuSans-30"/>
       <use xlink:href="#DejaVuSans-2e" x="63.623047"/>
       <use xlink:href="#DejaVuSans-30" x="95.410156"/>
      </g>
     </g>
    </g>
    <g id="ytick_4">
     <g id="line2d_12">
      <g>
       <use xlink:href="#mccc44e11ac" x="45" y="200.385542" style="stroke: #000000; stroke-width: 0.8"/>
      </g>
     </g>
     <g id="text_13">
      <!-- 0.1 -->
      <g transform="translate(22.096875 204.184761)scale(0.1 -0.1)">
       <use xlink:href="#DejaVuSans-30"/>
       <use xlink:href="#DejaVuSans-2e" x="63.623047"/>
       <use xlink:href="#DejaVuSans-31" x="95.410156"/>
      </g>
     </g>
    </g>
    <g id="ytick_5">
     <g id="line2d_13">
      <g>
       <use xlink:href="#mccc44e11ac" x="45" y="167.638554" style="stroke: #000000; stroke-width: 0.8"/>
      </g>
     </g>
     <g id="text_14">
      <!-- 0.2 -->
      <g transform="translate(22.096875 171.437773)scale(0.1 -0.1)">
       <use xlink:href="#DejaVuSans-30"/>
       <use xlink:href="#DejaVuSans-2e" x="63.623047"/>
       <use xlink:href="#DejaVuSans-32" x="95.410156"/>
      </g>
     </g>
    </g>
    <g id="ytick_6">
     <g id="line2d_14">
      <g>
       <use xlink:href="#mccc44e11ac" x="45" y="134.891566" style="stroke: #000000; stroke-width: 0.8"/>
      </g>
     </g>
     <g id="text_15">
      <!-- 0.3 -->
      <g transform="translate(22.096875 138.690785)scale(0.1 -0.1)">
       <use xlink:href="#DejaVuSans-30"/>
       <use xlink:href="#DejaVuSans-2e" x="63.623047"/>
       <use xlink:href="#DejaVuSans-33" x="95.410156"/>
      </g>
     </g>
    </g>
    <g id="ytick_7">
     <g id="line2d_15">
      <g>
       <use xlink:href="#mccc44e11ac" x="45" y="102.144578" style="stroke: #000000; stroke-width: 0.8"/>
      </g>
     </g>
     <g id="text_16">
      <!-- 0.4 -->
      <g transform="translate(22.096875 105.943797)scale(0.1 -0.1)">
       <use xlink:href="#DejaVuSans-30"/>
       <use xlink:href="#DejaVuSans-2e" x="63.623047"/>
       <use xlink:href="#DejaVuSans-34" x="95.410156"/>
      </g>
     </g>
    </g>
    <g id="ytick_8">
     <g id="line2d_16">
      <g>
       <use xlink:href="#mccc44e11ac" x="45" y="69.39759" style="stroke: #000000; stroke-width: 0.8"/>
      </g>
     </g>
     <g id="text_17">
      <!-- 0.5 -->
      <g transform="translate(22.096875 73.196809)scale(0.1 -0.1)">
       <use xlink:href="#DejaVuSans-30"/>
       <use xlink:href="#DejaVuSans-2e" x="63.623047"/>
       <use xlink:href="#DejaVuSans-35" x="95.410156"/>
      </g>
     </g>
    </g>
    <g id="text_18">
     <!-- ELK1 -->
     <g transform="translate(7.6375 191.505469)rotate(-90)scale(0.1 -0.1)">
      <defs>
       <path id="DejaVuSans-4c" d="M 628 4666 
L 1259 4666 
L 1259 531 
L 3531 531 
L 3531 0 
L 628 0 
L 628 4666 
z
" transform="scale(0.015625)"/>
       <path id="DejaVuSans-4b" d="M 628 4666 
L 1259 4666 
L 1259 2694 
L 3353 4666 
L 4166 4666 
L 1850 2491 
L 4331 0 
L 3500 0 
L 1259 2247 
L 1259 0 
L 628 0 
L 628 4666 
z
" transform="scale(0.015625)"/>
      </defs>
      <use xlink:href="#DejaVuSans-45"/>
      <use xlink:href="#DejaVuSans-4c" x="63.183594"/>
      <use xlink:href="#DejaVuSans-4b" x="118.896484"/>
      <use xlink:href="#DejaVuSans-31" x="184.472656"/>
     </g>
    </g>
   </g>
   <g id="line2d_17">
    <path d="M 66.360791 252.579918 
L 68.753158 250.881169 
L 71.145525 249.182421 
L 73.537892 247.483672 
L 75.930259 245.784923 
L 78.322626 244.086175 
L 80.714994 242.387426 
L 83.107361 240.688678 
L 85.499728 238.989929 
L 87.892095 237.29118 
L 90.284462 235.592432 
L 92.676829 233.893683 
L 95.069196 232.194934 
L 97.461563 230.496186 
L 99.85393 228.797437 
L 102.246297 227.098688 
L 104.638664 225.39994 
L 107.031031 223.701191 
L 109.423398 222.002442 
L 111.815765 220.303694 
L 114.208132 218.604945 
L 116.600499 216.906196 
L 118.992866 215.207448 
L 121.385234 213.508699 
L 123.777601 211.809951 
L 126.169968 210.111202 
L 128.562335 208.412453 
L 130.954702 206.713705 
L 133.347069 205.014956 
L 135.739436 203.316207 
L 138.131803 201.617459 
L 140.52417 199.91871 
L 142.916537 198.219961 
L 145.308904 196.521213 
L 147.701271 194.822464 
L 150.093638 193.123715 
L 152.486005 191.424967 
L 154.878372 189.726218 
L 157.270739 188.027469 
L 159.663106 186.328721 
L 162.055473 184.629972 
L 164.447841 182.931224 
L 166.840208 181.232475 
L 169.232575 179.533726 
L 171.624942 177.834978 
L 174.017309 176.136229 
L 176.409676 174.43748 
L 178.802043 172.738732 
L 181.19441 171.039983 
L 183.586777 169.341234 
L 185.979144 167.642486 
L 188.371511 165.943737 
L 190.763878 164.244988 
L 193.156245 162.54624 
L 195.548612 160.847491 
L 197.940979 159.148742 
L 200.333346 157.449994 
L 202.725713 155.751245 
L 205.118081 154.052497 
L 207.510448 152.353748 
L 209.902815 150.654999 
L 212.295182 148.956251 
L 214.687549 147.257502 
L 217.079916 145.558753 
L 219.472283 143.860005 
L 221.86465 142.161256 
L 224.257017 140.462507 
L 226.649384 138.763759 
L 229.041751 137.06501 
L 231.434118 135.366261 
L 233.826485 133.667513 
L 236.218852 131.968764 
L 238.611219 130.270015 
L 241.003586 128.571267 
L 243.395953 126.872518 
L 245.788321 125.17377 
L 248.180688 123.475021 
L 250.573055 121.776272 
L 252.965422 120.077524 
L 255.357789 118.378775 
L 257.750156 116.680026 
L 260.142523 114.981278 
L 262.53489 113.282529 
L 264.927257 111.58378 
L 267.319624 109.885032 
L 269.711991 108.186283 
L 272.104358 106.487534 
L 274.496725 104.788786 
L 276.889092 103.090037 
L 279.281459 101.391288 
L 281.673826 99.69254 
L 284.066193 97.993791 
L 286.458561 96.295043 
L 288.850928 94.596294 
L 291.243295 92.897545 
L 293.635662 91.198797 
L 296.028029 89.500048 
L 298.420396 87.801299 
L 300.812763 86.102551 
L 303.20513 84.403802 
" clip-path="url(#p346f7713ff)" style="fill: none; stroke: #000000; stroke-width: 2.25; stroke-linecap: square"/>
   </g>
   <g id="patch_3">
    <path d="M 45 315 
L 45 43.2 
" style="fill: none; stroke: #000000; stroke-width: 0.8; stroke-linejoin: miter; stroke-linecap: square"/>
   </g>
   <g id="patch_4">
    <path d="M 324 315 
L 324 43.2 
" style="fill: none; stroke: #000000; stroke-width: 0.8; stroke-linejoin: miter; stroke-linecap: square"/>
   </g>
   <g id="patch_5">
    <path d="M 45 315 
L 324 315 
" style="fill: none; stroke: #000000; stroke-width: 0.8; stroke-linejoin: miter; stroke-linecap: square"/>
   </g>
   <g id="patch_6">
    <path d="M 45 43.2 
L 324 43.2 
" style="fill: none; stroke: #000000; stroke-width: 0.8; stroke-linejoin: miter; stroke-linecap: square"/>
   </g>
  </g>
 </g>
 <defs>
  <clipPath id="p346f7713ff">
   <rect x="45" y="43.2" width="279" height="271.8"/>
  </clipPath>
 </defs>
</svg>
