<?xml version="1.0" encoding="utf-8" standalone="no"?>
<!DOCTYPE svg PUBLIC "-//W3C//DTD SVG 1.1//EN"
  "http://www.w3.org/Graphics/SVG/1.1/DTD/svg11.dtd">
<svg xmlns:xlink="http://www.w3.org/1999/xlink" width="360pt" height="360pt" viewBox="0 0 360 360" xmlns="http://www.w3.org/2000/svg" version="1.1">
 <metadata>
  <rdf:RDF xmlns:dc="http://purl.org/dc/elements/1.1/" xmlns:cc="http://creativecommons.org/ns#" xmlns:rdf="http://www.w3.org/1999/02/22-rdf-syntax-ns#">
   <cc:Work>
    <dc:type rdf:resource="http://purl.org/dc/dcmitype/StillImage"/>
    <dc:date>2023-01-01T18:45:25.191455</dc:date>
    <dc:format>image/svg+xml</dc:format>
    <dc:creator>
     <cc:Agent>
      <dc:title>Matplotlib v3.5.1, https://matplotlib.org/</dc:title>
     </cc:Agent>
    </dc:creator>
   </cc:Work>
  </rdf:RDF>
 </metadata>
 <defs>
  <style type="text/css">*{stroke-linejoin: round; stroke-linecap: butt}</style>
 </defs>
 <g id="figure_1">
  <g id="patch_1">
   <path d="M 0 360 
L 360 360 
L 360 0 
L 0 0 
L 0 360 
z
" style="fill: none"/>
  </g>
  <g id="axes_1">
   <g id="patch_2">
    <path d="M 45 315 
L 324 315 
L 324 43.2 
L 45 43.2 
z
" style="fill: #ffffff"/>
   </g>
   <g id="PolyCollection_1">
    <path d="M 65.79487 239.306086 
L 65.79487 299.422466 
L 68.187237 297.408113 
L 70.579604 295.45582 
L 72.971971 293.867963 
L 75.364338 292.280106 
L 77.756705 290.564076 
L 80.149072 289.117401 
L 82.541439 287.548988 
L 84.933807 285.961688 
L 87.326174 284.306426 
L 89.718541 282.436461 
L 92.110908 280.664328 
L 94.503275 279.0649 
L 96.895642 277.465471 
L 99.288009 275.779834 
L 101.680376 273.975563 
L 104.072743 272.343675 
L 106.46511 270.850231 
L 108.857477 269.43204 
L 111.249844 267.903176 
L 113.642211 266.318563 
L 116.034578 264.714973 
L 118.426945 262.935577 
L 120.819312 261.372153 
L 123.211679 259.981222 
L 125.604047 258.676325 
L 127.996414 257.425258 
L 130.388781 256.146503 
L 132.781148 254.951203 
L 135.173515 253.588721 
L 137.565882 252.071846 
L 139.958249 250.598542 
L 142.350616 248.887186 
L 144.742983 247.905614 
L 147.13535 246.477709 
L 149.527717 244.77509 
L 151.920084 243.508681 
L 154.312451 242.242271 
L 156.704818 240.999785 
L 159.097185 239.828285 
L 161.489552 238.568418 
L 163.881919 237.358656 
L 166.274287 236.138623 
L 168.666654 234.917673 
L 171.059021 233.696724 
L 173.451388 233.13185 
L 175.843755 231.859679 
L 178.236122 230.577845 
L 180.628489 228.811151 
L 183.020856 227.222721 
L 185.413223 225.98087 
L 187.80559 224.891886 
L 190.197957 223.497167 
L 192.590324 222.246062 
L 194.982691 221.050676 
L 197.375058 219.921606 
L 199.767425 218.523216 
L 202.159792 217.65137 
L 204.552159 216.506206 
L 206.944527 215.23121 
L 209.336894 213.954042 
L 211.729261 212.676866 
L 214.121628 211.39969 
L 216.513995 209.826904 
L 218.906362 208.583573 
L 221.298729 207.340242 
L 223.691096 206.096911 
L 226.083463 204.849976 
L 228.47583 203.361068 
L 230.868197 202.232381 
L 233.260564 201.123587 
L 235.652931 199.865867 
L 238.045298 198.605543 
L 240.437665 197.519127 
L 242.830032 196.424771 
L 245.222399 195.441251 
L 247.614766 194.405955 
L 250.007134 193.436532 
L 252.399501 192.327906 
L 254.791868 191.292885 
L 257.184235 190.257864 
L 259.576602 189.222843 
L 261.968969 188.187822 
L 264.361336 187.152801 
L 266.753703 186.111978 
L 269.14607 185.070601 
L 271.538437 184.029224 
L 273.930804 182.987846 
L 276.323171 181.946469 
L 278.715538 180.905092 
L 281.107905 179.863715 
L 283.500272 178.893038 
L 285.892639 178.01474 
L 288.285006 176.894503 
L 290.677374 175.768722 
L 293.069741 174.67622 
L 295.462108 173.641356 
L 297.854475 172.606491 
L 300.246842 171.571626 
L 302.639209 170.536762 
L 302.639209 53.672201 
L 302.639209 53.672201 
L 300.246842 55.910432 
L 297.854475 58.148662 
L 295.462108 60.386892 
L 293.069741 62.626817 
L 290.677374 64.870364 
L 288.285006 67.113912 
L 285.892639 69.357459 
L 283.500272 71.601006 
L 281.107905 73.844553 
L 278.715538 76.0881 
L 276.323171 78.331647 
L 273.930804 80.575194 
L 271.538437 82.818741 
L 269.14607 85.062288 
L 266.753703 87.281824 
L 264.361336 89.54194 
L 261.968969 91.777169 
L 259.576602 94.012398 
L 257.184235 96.247627 
L 254.791868 98.482856 
L 252.399501 100.349114 
L 250.007134 102.387669 
L 247.614766 104.788214 
L 245.222399 107.130269 
L 242.830032 109.625627 
L 240.437665 111.916967 
L 238.045298 114.151493 
L 235.652931 116.395501 
L 233.260564 118.639509 
L 230.868197 120.883517 
L 228.47583 123.127526 
L 226.083463 125.472394 
L 223.691096 127.557163 
L 221.298729 129.427243 
L 218.906362 131.801001 
L 216.513995 134.174758 
L 214.121628 136.54797 
L 211.729261 138.788317 
L 209.336894 141.028663 
L 206.944527 143.269009 
L 204.552159 145.450986 
L 202.159792 147.527816 
L 199.767425 149.718172 
L 197.375058 151.813591 
L 194.982691 153.856258 
L 192.590324 155.898924 
L 190.197957 157.873314 
L 187.80559 159.923999 
L 185.413223 161.452243 
L 183.020856 163.299939 
L 180.628489 165.646209 
L 178.236122 167.487162 
L 175.843755 169.112285 
L 173.451388 171.136414 
L 171.059021 172.996762 
L 168.666654 174.716417 
L 166.274287 176.479547 
L 163.881919 178.312997 
L 161.489552 180.099558 
L 159.097185 181.801934 
L 156.704818 183.491118 
L 154.312451 184.842811 
L 151.920084 186.428939 
L 149.527717 187.974048 
L 147.13535 190.003719 
L 144.742983 191.723728 
L 142.350616 193.256673 
L 139.958249 195.406785 
L 137.565882 196.942971 
L 135.173515 198.898586 
L 132.781148 200.279562 
L 130.388781 201.597763 
L 127.996414 202.937112 
L 125.604047 204.276461 
L 123.211679 205.618304 
L 120.819312 206.979219 
L 118.426945 208.69102 
L 116.034578 210.072233 
L 113.642211 211.548622 
L 111.249844 213.068695 
L 108.857477 214.589393 
L 106.46511 216.113771 
L 104.072743 217.638149 
L 101.680376 219.1067 
L 99.288009 220.458533 
L 96.895642 221.925701 
L 94.503275 223.464157 
L 92.110908 225.002613 
L 89.718541 226.541069 
L 87.326174 227.489055 
L 84.933807 229.244357 
L 82.541439 230.897831 
L 80.149072 232.114351 
L 77.756705 233.330871 
L 75.364338 234.547391 
L 72.971971 235.322209 
L 70.579604 236.621239 
L 68.187237 237.960092 
L 65.79487 239.306086 
z
" clip-path="url(#p5872e3647e)" style="fill-opacity: 0.15"/>
   </g>
   <g id="matplotlib.axis_1">
    <g id="xtick_1">
     <g id="line2d_1">
      <defs>
       <path id="m1839efd5c4" d="M 0 0 
L 0 3.5 
" style="stroke: #000000; stroke-width: 0.8"/>
      </defs>
      <g>
       <use xlink:href="#m1839efd5c4" x="71.891566" y="315" style="stroke: #000000; stroke-width: 0.8"/>
      </g>
     </g>
     <g id="text_1">
      <!-- −50 -->
      <g transform="translate(61.339223 329.598437)scale(0.1 -0.1)">
       <defs>
        <path id="DejaVuSans-2212" d="M 678 2272 
L 4684 2272 
L 4684 1741 
L 678 1741 
L 678 2272 
z
" transform="scale(0.015625)"/>
        <path id="DejaVuSans-35" d="M 691 4666 
L 3169 4666 
L 3169 4134 
L 1269 4134 
L 1269 2991 
Q 1406 3038 1543 3061 
Q 1681 3084 1819 3084 
Q 2600 3084 3056 2656 
Q 3513 2228 3513 1497 
Q 3513 744 3044 326 
Q 2575 -91 1722 -91 
Q 1428 -91 1123 -41 
Q 819 9 494 109 
L 494 744 
Q 775 591 1075 516 
Q 1375 441 1709 441 
Q 2250 441 2565 725 
Q 2881 1009 2881 1497 
Q 2881 1984 2565 2268 
Q 2250 2553 1709 2553 
Q 1456 2553 1204 2497 
Q 953 2441 691 2322 
L 691 4666 
z
" transform="scale(0.015625)"/>
        <path id="DejaVuSans-30" d="M 2034 4250 
Q 1547 4250 1301 3770 
Q 1056 3291 1056 2328 
Q 1056 1369 1301 889 
Q 1547 409 2034 409 
Q 2525 409 2770 889 
Q 3016 1369 3016 2328 
Q 3016 3291 2770 3770 
Q 2525 4250 2034 4250 
z
M 2034 4750 
Q 2819 4750 3233 4129 
Q 3647 3509 3647 2328 
Q 3647 1150 3233 529 
Q 2819 -91 2034 -91 
Q 1250 -91 836 529 
Q 422 1150 422 2328 
Q 422 3509 836 4129 
Q 1250 4750 2034 4750 
z
" transform="scale(0.015625)"/>
       </defs>
       <use xlink:href="#DejaVuSans-2212"/>
       <use xlink:href="#DejaVuSans-35" x="83.789062"/>
       <use xlink:href="#DejaVuSans-30" x="147.412109"/>
      </g>
     </g>
    </g>
    <g id="xtick_2">
     <g id="line2d_2">
      <g>
       <use xlink:href="#m1839efd5c4" x="105.506024" y="315" style="stroke: #000000; stroke-width: 0.8"/>
      </g>
     </g>
     <g id="text_2">
      <!-- −40 -->
      <g transform="translate(94.95368 329.598437)scale(0.1 -0.1)">
       <defs>
        <path id="DejaVuSans-34" d="M 2419 4116 
L 825 1625 
L 2419 1625 
L 2419 4116 
z
M 2253 4666 
L 3047 4666 
L 3047 1625 
L 3713 1625 
L 3713 1100 
L 3047 1100 
L 3047 0 
L 2419 0 
L 2419 1100 
L 313 1100 
L 313 1709 
L 2253 4666 
z
" transform="scale(0.015625)"/>
       </defs>
       <use xlink:href="#DejaVuSans-2212"/>
       <use xlink:href="#DejaVuSans-34" x="83.789062"/>
       <use xlink:href="#DejaVuSans-30" x="147.412109"/>
      </g>
     </g>
    </g>
    <g id="xtick_3">
     <g id="line2d_3">
      <g>
       <use xlink:href="#m1839efd5c4" x="139.120482" y="315" style="stroke: #000000; stroke-width: 0.8"/>
      </g>
     </g>
     <g id="text_3">
      <!-- −30 -->
      <g transform="translate(128.568138 329.598437)scale(0.1 -0.1)">
       <defs>
        <path id="DejaVuSans-33" d="M 2597 2516 
Q 3050 2419 3304 2112 
Q 3559 1806 3559 1356 
Q 3559 666 3084 287 
Q 2609 -91 1734 -91 
Q 1441 -91 1130 -33 
Q 819 25 488 141 
L 488 750 
Q 750 597 1062 519 
Q 1375 441 1716 441 
Q 2309 441 2620 675 
Q 2931 909 2931 1356 
Q 2931 1769 2642 2001 
Q 2353 2234 1838 2234 
L 1294 2234 
L 1294 2753 
L 1863 2753 
Q 2328 2753 2575 2939 
Q 2822 3125 2822 3475 
Q 2822 3834 2567 4026 
Q 2313 4219 1838 4219 
Q 1578 4219 1281 4162 
Q 984 4106 628 3988 
L 628 4550 
Q 988 4650 1302 4700 
Q 1616 4750 1894 4750 
Q 2613 4750 3031 4423 
Q 3450 4097 3450 3541 
Q 3450 3153 3228 2886 
Q 3006 2619 2597 2516 
z
" transform="scale(0.015625)"/>
       </defs>
       <use xlink:href="#DejaVuSans-2212"/>
       <use xlink:href="#DejaVuSans-33" x="83.789062"/>
       <use xlink:href="#DejaVuSans-30" x="147.412109"/>
      </g>
     </g>
    </g>
    <g id="xtick_4">
     <g id="line2d_4">
      <g>
       <use xlink:href="#m1839efd5c4" x="172.73494" y="315" style="stroke: #000000; stroke-width: 0.8"/>
      </g>
     </g>
     <g id="text_4">
      <!-- −20 -->
      <g transform="translate(162.182596 329.598437)scale(0.1 -0.1)">
       <defs>
        <path id="DejaVuSans-32" d="M 1228 531 
L 3431 531 
L 3431 0 
L 469 0 
L 469 531 
Q 828 903 1448 1529 
Q 2069 2156 2228 2338 
Q 2531 2678 2651 2914 
Q 2772 3150 2772 3378 
Q 2772 3750 2511 3984 
Q 2250 4219 1831 4219 
Q 1534 4219 1204 4116 
Q 875 4013 500 3803 
L 500 4441 
Q 881 4594 1212 4672 
Q 1544 4750 1819 4750 
Q 2544 4750 2975 4387 
Q 3406 4025 3406 3419 
Q 3406 3131 3298 2873 
Q 3191 2616 2906 2266 
Q 2828 2175 2409 1742 
Q 1991 1309 1228 531 
z
" transform="scale(0.015625)"/>
       </defs>
       <use xlink:href="#DejaVuSans-2212"/>
       <use xlink:href="#DejaVuSans-32" x="83.789062"/>
       <use xlink:href="#DejaVuSans-30" x="147.412109"/>
      </g>
     </g>
    </g>
    <g id="xtick_5">
     <g id="line2d_5">
      <g>
       <use xlink:href="#m1839efd5c4" x="206.349398" y="315" style="stroke: #000000; stroke-width: 0.8"/>
      </g>
     </g>
     <g id="text_5">
      <!-- −10 -->
      <g transform="translate(195.797054 329.598437)scale(0.1 -0.1)">
       <defs>
        <path id="DejaVuSans-31" d="M 794 531 
L 1825 531 
L 1825 4091 
L 703 3866 
L 703 4441 
L 1819 4666 
L 2450 4666 
L 2450 531 
L 3481 531 
L 3481 0 
L 794 0 
L 794 531 
z
" transform="scale(0.015625)"/>
       </defs>
       <use xlink:href="#DejaVuSans-2212"/>
       <use xlink:href="#DejaVuSans-31" x="83.789062"/>
       <use xlink:href="#DejaVuSans-30" x="147.412109"/>
      </g>
     </g>
    </g>
    <g id="xtick_6">
     <g id="line2d_6">
      <g>
       <use xlink:href="#m1839efd5c4" x="239.963855" y="315" style="stroke: #000000; stroke-width: 0.8"/>
      </g>
     </g>
     <g id="text_6">
      <!-- 0 -->
      <g transform="translate(236.782605 329.598437)scale(0.1 -0.1)">
       <use xlink:href="#DejaVuSans-30"/>
      </g>
     </g>
    </g>
    <g id="xtick_7">
     <g id="line2d_7">
      <g>
       <use xlink:href="#m1839efd5c4" x="273.578313" y="315" style="stroke: #000000; stroke-width: 0.8"/>
      </g>
     </g>
     <g id="text_7">
      <!-- 10 -->
      <g transform="translate(267.215813 329.598437)scale(0.1 -0.1)">
       <use xlink:href="#DejaVuSans-31"/>
       <use xlink:href="#DejaVuSans-30" x="63.623047"/>
      </g>
     </g>
    </g>
    <g id="xtick_8">
     <g id="line2d_8">
      <g>
       <use xlink:href="#m1839efd5c4" x="307.192771" y="315" style="stroke: #000000; stroke-width: 0.8"/>
      </g>
     </g>
     <g id="text_8">
      <!-- 20 -->
      <g transform="translate(300.830271 329.598437)scale(0.1 -0.1)">
       <use xlink:href="#DejaVuSans-32"/>
       <use xlink:href="#DejaVuSans-30" x="63.623047"/>
      </g>
     </g>
    </g>
    <g id="text_9">
     <!-- ETS1 -->
     <g transform="translate(171.93125 343.276563)scale(0.1 -0.1)">
      <defs>
       <path id="DejaVuSans-45" d="M 628 4666 
L 3578 4666 
L 3578 4134 
L 1259 4134 
L 1259 2753 
L 3481 2753 
L 3481 2222 
L 1259 2222 
L 1259 531 
L 3634 531 
L 3634 0 
L 628 0 
L 628 4666 
z
" transform="scale(0.015625)"/>
       <path id="DejaVuSans-54" d="M -19 4666 
L 3928 4666 
L 3928 4134 
L 2272 4134 
L 2272 0 
L 1638 0 
L 1638 4134 
L -19 4134 
L -19 4666 
z
" transform="scale(0.015625)"/>
       <path id="DejaVuSans-53" d="M 3425 4513 
L 3425 3897 
Q 3066 4069 2747 4153 
Q 2428 4238 2131 4238 
Q 1616 4238 1336 4038 
Q 1056 3838 1056 3469 
Q 1056 3159 1242 3001 
Q 1428 2844 1947 2747 
L 2328 2669 
Q 3034 2534 3370 2195 
Q 3706 1856 3706 1288 
Q 3706 609 3251 259 
Q 2797 -91 1919 -91 
Q 1588 -91 1214 -16 
Q 841 59 441 206 
L 441 856 
Q 825 641 1194 531 
Q 1563 422 1919 422 
Q 2459 422 2753 634 
Q 3047 847 3047 1241 
Q 3047 1584 2836 1778 
Q 2625 1972 2144 2069 
L 1759 2144 
Q 1053 2284 737 2584 
Q 422 2884 422 3419 
Q 422 4038 858 4394 
Q 1294 4750 2059 4750 
Q 2388 4750 2728 4690 
Q 3069 4631 3425 4513 
z
" transform="scale(0.015625)"/>
      </defs>
      <use xlink:href="#DejaVuSans-45"/>
      <use xlink:href="#DejaVuSans-54" x="63.183594"/>
      <use xlink:href="#DejaVuSans-53" x="124.267578"/>
      <use xlink:href="#DejaVuSans-31" x="187.744141"/>
     </g>
    </g>
   </g>
   <g id="matplotlib.axis_2">
    <g id="ytick_1">
     <g id="line2d_9">
      <defs>
       <path id="ma3c736cecc" d="M 0 0 
L -3.5 0 
" style="stroke: #000000; stroke-width: 0.8"/>
      </defs>
      <g>
       <use xlink:href="#ma3c736cecc" x="45" y="288.80241" style="stroke: #000000; stroke-width: 0.8"/>
      </g>
     </g>
     <g id="text_10">
      <!-- −50 -->
      <g transform="translate(16.895312 292.601628)scale(0.1 -0.1)">
       <use xlink:href="#DejaVuSans-2212"/>
       <use xlink:href="#DejaVuSans-35" x="83.789062"/>
       <use xlink:href="#DejaVuSans-30" x="147.412109"/>
      </g>
     </g>
    </g>
    <g id="ytick_2">
     <g id="line2d_10">
      <g>
       <use xlink:href="#ma3c736cecc" x="45" y="256.055422" style="stroke: #000000; stroke-width: 0.8"/>
      </g>
     </g>
     <g id="text_11">
      <!-- −40 -->
      <g transform="translate(16.895312 259.85464)scale(0.1 -0.1)">
       <use xlink:href="#DejaVuSans-2212"/>
       <use xlink:href="#DejaVuSans-34" x="83.789062"/>
       <use xlink:href="#DejaVuSans-30" x="147.412109"/>
      </g>
     </g>
    </g>
    <g id="ytick_3">
     <g id="line2d_11">
      <g>
       <use xlink:href="#ma3c736cecc" x="45" y="223.308434" style="stroke: #000000; stroke-width: 0.8"/>
      </g>
     </g>
     <g id="text_12">
      <!-- −30 -->
      <g transform="translate(16.895312 227.107652)scale(0.1 -0.1)">
       <use xlink:href="#DejaVuSans-2212"/>
       <use xlink:href="#DejaVuSans-33" x="83.789062"/>
       <use xlink:href="#DejaVuSans-30" x="147.412109"/>
      </g>
     </g>
    </g>
    <g id="ytick_4">
     <g id="line2d_12">
      <g>
       <use xlink:href="#ma3c736cecc" x="45" y="190.561446" style="stroke: #000000; stroke-width: 0.8"/>
      </g>
     </g>
     <g id="text_13">
      <!-- −20 -->
      <g transform="translate(16.895312 194.360665)scale(0.1 -0.1)">
       <use xlink:href="#DejaVuSans-2212"/>
       <use xlink:href="#DejaVuSans-32" x="83.789062"/>
       <use xlink:href="#DejaVuSans-30" x="147.412109"/>
      </g>
     </g>
    </g>
    <g id="ytick_5">
     <g id="line2d_13">
      <g>
       <use xlink:href="#ma3c736cecc" x="45" y="157.814458" style="stroke: #000000; stroke-width: 0.8"/>
      </g>
     </g>
     <g id="text_14">
      <!-- −10 -->
      <g transform="translate(16.895312 161.613677)scale(0.1 -0.1)">
       <use xlink:href="#DejaVuSans-2212"/>
       <use xlink:href="#DejaVuSans-31" x="83.789062"/>
       <use xlink:href="#DejaVuSans-30" x="147.412109"/>
      </g>
     </g>
    </g>
    <g id="ytick_6">
     <g id="line2d_14">
      <g>
       <use xlink:href="#ma3c736cecc" x="45" y="125.06747" style="stroke: #000000; stroke-width: 0.8"/>
      </g>
     </g>
     <g id="text_15">
      <!-- 0 -->
      <g transform="translate(31.6375 128.866689)scale(0.1 -0.1)">
       <use xlink:href="#DejaVuSans-30"/>
      </g>
     </g>
    </g>
    <g id="ytick_7">
     <g id="line2d_15">
      <g>
       <use xlink:href="#ma3c736cecc" x="45" y="92.320482" style="stroke: #000000; stroke-width: 0.8"/>
      </g>
     </g>
     <g id="text_16">
      <!-- 10 -->
      <g transform="translate(25.275 96.119701)scale(0.1 -0.1)">
       <use xlink:href="#DejaVuSans-31"/>
       <use xlink:href="#DejaVuSans-30" x="63.623047"/>
      </g>
     </g>
    </g>
    <g id="ytick_8">
     <g id="line2d_16">
      <g>
       <use xlink:href="#ma3c736cecc" x="45" y="59.573494" style="stroke: #000000; stroke-width: 0.8"/>
      </g>
     </g>
     <g id="text_17">
      <!-- 20 -->
      <g transform="translate(25.275 63.372713)scale(0.1 -0.1)">
       <use xlink:href="#DejaVuSans-32"/>
       <use xlink:href="#DejaVuSans-30" x="63.623047"/>
      </g>
     </g>
    </g>
    <g id="text_18">
     <!-- ELK1 -->
     <g transform="translate(10.815625 191.505469)rotate(-90)scale(0.1 -0.1)">
      <defs>
       <path id="DejaVuSans-4c" d="M 628 4666 
L 1259 4666 
L 1259 531 
L 3531 531 
L 3531 0 
L 628 0 
L 628 4666 
z
" transform="scale(0.015625)"/>
       <path id="DejaVuSans-4b" d="M 628 4666 
L 1259 4666 
L 1259 2694 
L 3353 4666 
L 4166 4666 
L 1850 2491 
L 4331 0 
L 3500 0 
L 1259 2247 
L 1259 0 
L 628 0 
L 628 4666 
z
" transform="scale(0.015625)"/>
      </defs>
      <use xlink:href="#DejaVuSans-45"/>
      <use xlink:href="#DejaVuSans-4c" x="63.183594"/>
      <use xlink:href="#DejaVuSans-4b" x="118.896484"/>
      <use xlink:href="#DejaVuSans-31" x="184.472656"/>
     </g>
    </g>
   </g>
   <g id="line2d_17">
    <path d="M 65.79487 273.796198 
L 68.187237 272.097449 
L 70.579604 270.398701 
L 72.971971 268.699952 
L 75.364338 267.001203 
L 77.756705 265.302455 
L 80.149072 263.603706 
L 82.541439 261.904957 
L 84.933807 260.206209 
L 87.326174 258.50746 
L 89.718541 256.808712 
L 92.110908 255.109963 
L 94.503275 253.411214 
L 96.895642 251.712466 
L 99.288009 250.013717 
L 101.680376 248.314968 
L 104.072743 246.61622 
L 106.46511 244.917471 
L 108.857477 243.218722 
L 111.249844 241.519974 
L 113.642211 239.821225 
L 116.034578 238.122476 
L 118.426945 236.423728 
L 120.819312 234.724979 
L 123.211679 233.02623 
L 125.604047 231.327482 
L 127.996414 229.628733 
L 130.388781 227.929985 
L 132.781148 226.231236 
L 135.173515 224.532487 
L 137.565882 222.833739 
L 139.958249 221.13499 
L 142.350616 219.436241 
L 144.742983 217.737493 
L 147.13535 216.038744 
L 149.527717 214.339995 
L 151.920084 212.641247 
L 154.312451 210.942498 
L 156.704818 209.243749 
L 159.097185 207.545001 
L 161.489552 205.846252 
L 163.881919 204.147503 
L 166.274287 202.448755 
L 168.666654 200.750006 
L 171.059021 199.051258 
L 173.451388 197.352509 
L 175.843755 195.65376 
L 178.236122 193.955012 
L 180.628489 192.256263 
L 183.020856 190.557514 
L 185.413223 188.858766 
L 187.80559 187.160017 
L 190.197957 185.461268 
L 192.590324 183.76252 
L 194.982691 182.063771 
L 197.375058 180.365022 
L 199.767425 178.666274 
L 202.159792 176.967525 
L 204.552159 175.268776 
L 206.944527 173.570028 
L 209.336894 171.871279 
L 211.729261 170.172531 
L 214.121628 168.473782 
L 216.513995 166.775033 
L 218.906362 165.076285 
L 221.298729 163.377536 
L 223.691096 161.678787 
L 226.083463 159.980039 
L 228.47583 158.28129 
L 230.868197 156.582541 
L 233.260564 154.883793 
L 235.652931 153.185044 
L 238.045298 151.486295 
L 240.437665 149.787547 
L 242.830032 148.088798 
L 245.222399 146.390049 
L 247.614766 144.691301 
L 250.007134 142.992552 
L 252.399501 141.293804 
L 254.791868 139.595055 
L 257.184235 137.896306 
L 259.576602 136.197558 
L 261.968969 134.498809 
L 264.361336 132.80006 
L 266.753703 131.101312 
L 269.14607 129.402563 
L 271.538437 127.703814 
L 273.930804 126.005066 
L 276.323171 124.306317 
L 278.715538 122.607568 
L 281.107905 120.90882 
L 283.500272 119.210071 
L 285.892639 117.511322 
L 288.285006 115.812574 
L 290.677374 114.113825 
L 293.069741 112.415077 
L 295.462108 110.716328 
L 297.854475 109.017579 
L 300.246842 107.318831 
L 302.639209 105.620082 
" clip-path="url(#p5872e3647e)" style="fill: none; stroke: #000000; stroke-width: 2.25; stroke-linecap: square"/>
   </g>
   <g id="patch_3">
    <path d="M 45 315 
L 45 43.2 
" style="fill: none; stroke: #000000; stroke-width: 0.8; stroke-linejoin: miter; stroke-linecap: square"/>
   </g>
   <g id="patch_4">
    <path d="M 324 315 
L 324 43.2 
" style="fill: none; stroke: #000000; stroke-width: 0.8; stroke-linejoin: miter; stroke-linecap: square"/>
   </g>
   <g id="patch_5">
    <path d="M 45 315 
L 324 315 
" style="fill: none; stroke: #000000; stroke-width: 0.8; stroke-linejoin: miter; stroke-linecap: square"/>
   </g>
   <g id="patch_6">
    <path d="M 45 43.2 
L 324 43.2 
" style="fill: none; stroke: #000000; stroke-width: 0.8; stroke-linejoin: miter; stroke-linecap: square"/>
   </g>
   <g id="text_19">
    <!-- 1 -->
    <g transform="translate(202.129137 116.02043)scale(0.1 -0.1)">
     <use xlink:href="#DejaVuSans-31"/>
    </g>
   </g>
   <g id="text_20">
    <!-- 2 -->
    <g transform="translate(120.803826 207.402585)scale(0.1 -0.1)">
     <use xlink:href="#DejaVuSans-32"/>
    </g>
   </g>
   <g id="text_21">
    <!-- 3 -->
    <g transform="translate(65.79487 291.258186)scale(0.1 -0.1)">
     <use xlink:href="#DejaVuSans-33"/>
    </g>
   </g>
   <g id="text_22">
    <!-- 4 -->
    <g transform="translate(66.819328 268.884212)scale(0.1 -0.1)">
     <use xlink:href="#DejaVuSans-34"/>
    </g>
   </g>
   <g id="text_23">
    <!-- 5 -->
    <g transform="translate(260.203466 122.361268)scale(0.1 -0.1)">
     <use xlink:href="#DejaVuSans-35"/>
    </g>
   </g>
   <g id="text_24">
    <!-- 6 -->
    <g transform="translate(236.460112 120.366507)scale(0.1 -0.1)">
     <defs>
      <path id="DejaVuSans-36" d="M 2113 2584 
Q 1688 2584 1439 2293 
Q 1191 2003 1191 1497 
Q 1191 994 1439 701 
Q 1688 409 2113 409 
Q 2538 409 2786 701 
Q 3034 994 3034 1497 
Q 3034 2003 2786 2293 
Q 2538 2584 2113 2584 
z
M 3366 4563 
L 3366 3988 
Q 3128 4100 2886 4159 
Q 2644 4219 2406 4219 
Q 1781 4219 1451 3797 
Q 1122 3375 1075 2522 
Q 1259 2794 1537 2939 
Q 1816 3084 2150 3084 
Q 2853 3084 3261 2657 
Q 3669 2231 3669 1497 
Q 3669 778 3244 343 
Q 2819 -91 2113 -91 
Q 1303 -91 875 529 
Q 447 1150 447 2328 
Q 447 3434 972 4092 
Q 1497 4750 2381 4750 
Q 2619 4750 2861 4703 
Q 3103 4656 3366 4563 
z
" transform="scale(0.015625)"/>
     </defs>
     <use xlink:href="#DejaVuSans-36"/>
    </g>
   </g>
   <g id="text_25">
    <!-- 7 -->
    <g transform="translate(302.639209 113.645253)scale(0.1 -0.1)">
     <defs>
      <path id="DejaVuSans-37" d="M 525 4666 
L 3525 4666 
L 3525 4397 
L 1831 0 
L 1172 0 
L 2766 4134 
L 525 4134 
L 525 4666 
z
" transform="scale(0.015625)"/>
     </defs>
     <use xlink:href="#DejaVuSans-37"/>
    </g>
   </g>
   <g id="text_26">
    <!-- 8 -->
    <g transform="translate(162.721809 212.280411)scale(0.1 -0.1)">
     <defs>
      <path id="DejaVuSans-38" d="M 2034 2216 
Q 1584 2216 1326 1975 
Q 1069 1734 1069 1313 
Q 1069 891 1326 650 
Q 1584 409 2034 409 
Q 2484 409 2743 651 
Q 3003 894 3003 1313 
Q 3003 1734 2745 1975 
Q 2488 2216 2034 2216 
z
M 1403 2484 
Q 997 2584 770 2862 
Q 544 3141 544 3541 
Q 544 4100 942 4425 
Q 1341 4750 2034 4750 
Q 2731 4750 3128 4425 
Q 3525 4100 3525 3541 
Q 3525 3141 3298 2862 
Q 3072 2584 2669 2484 
Q 3125 2378 3379 2068 
Q 3634 1759 3634 1313 
Q 3634 634 3220 271 
Q 2806 -91 2034 -91 
Q 1263 -91 848 271 
Q 434 634 434 1313 
Q 434 1759 690 2068 
Q 947 2378 1403 2484 
z
M 1172 3481 
Q 1172 3119 1398 2916 
Q 1625 2713 2034 2713 
Q 2441 2713 2670 2916 
Q 2900 3119 2900 3481 
Q 2900 3844 2670 4047 
Q 2441 4250 2034 4250 
Q 1625 4250 1398 4047 
Q 1172 3844 1172 3481 
z
" transform="scale(0.015625)"/>
     </defs>
     <use xlink:href="#DejaVuSans-38"/>
    </g>
   </g>
   <g id="text_27">
    <!-- 9 -->
    <g transform="translate(211.221601 275.860054)scale(0.1 -0.1)">
     <defs>
      <path id="DejaVuSans-39" d="M 703 97 
L 703 672 
Q 941 559 1184 500 
Q 1428 441 1663 441 
Q 2288 441 2617 861 
Q 2947 1281 2994 2138 
Q 2813 1869 2534 1725 
Q 2256 1581 1919 1581 
Q 1219 1581 811 2004 
Q 403 2428 403 3163 
Q 403 3881 828 4315 
Q 1253 4750 1959 4750 
Q 2769 4750 3195 4129 
Q 3622 3509 3622 2328 
Q 3622 1225 3098 567 
Q 2575 -91 1691 -91 
Q 1453 -91 1209 -44 
Q 966 3 703 97 
z
M 1959 2075 
Q 2384 2075 2632 2365 
Q 2881 2656 2881 3163 
Q 2881 3666 2632 3958 
Q 2384 4250 1959 4250 
Q 1534 4250 1286 3958 
Q 1038 3666 1038 3163 
Q 1038 2656 1286 2365 
Q 1534 2075 1959 2075 
z
" transform="scale(0.015625)"/>
     </defs>
     <use xlink:href="#DejaVuSans-39"/>
    </g>
   </g>
  </g>
 </g>
 <defs>
  <clipPath id="p5872e3647e">
   <rect x="45" y="43.2" width="279" height="271.8"/>
  </clipPath>
 </defs>
</svg>
