<?xml version="1.0" encoding="utf-8" standalone="no"?>
<!DOCTYPE svg PUBLIC "-//W3C//DTD SVG 1.1//EN"
  "http://www.w3.org/Graphics/SVG/1.1/DTD/svg11.dtd">
<svg xmlns:xlink="http://www.w3.org/1999/xlink" width="360pt" height="360pt" viewBox="0 0 360 360" xmlns="http://www.w3.org/2000/svg" version="1.1">
 <metadata>
  <rdf:RDF xmlns:dc="http://purl.org/dc/elements/1.1/" xmlns:cc="http://creativecommons.org/ns#" xmlns:rdf="http://www.w3.org/1999/02/22-rdf-syntax-ns#">
   <cc:Work>
    <dc:type rdf:resource="http://purl.org/dc/dcmitype/StillImage"/>
    <dc:date>2023-01-01T18:35:10.248866</dc:date>
    <dc:format>image/svg+xml</dc:format>
    <dc:creator>
     <cc:Agent>
      <dc:title>Matplotlib v3.5.1, https://matplotlib.org/</dc:title>
     </cc:Agent>
    </dc:creator>
   </cc:Work>
  </rdf:RDF>
 </metadata>
 <defs>
  <style type="text/css">*{stroke-linejoin: round; stroke-linecap: butt}</style>
 </defs>
 <g id="figure_1">
  <g id="patch_1">
   <path d="M 0 360 
L 360 360 
L 360 0 
L 0 0 
L 0 360 
z
" style="fill: none"/>
  </g>
  <g id="axes_1">
   <g id="patch_2">
    <path d="M 45 315 
L 324 315 
L 324 43.2 
L 45 43.2 
z
" style="fill: #ffffff"/>
   </g>
   <g id="PathCollection_1">
    <defs>
     <path id="m7bcdd37ad5" d="M 0 3 
C 0.795609 3 1.55874 2.683901 2.12132 2.12132 
C 2.683901 1.55874 3 0.795609 3 0 
C 3 -0.795609 2.683901 -1.55874 2.12132 -2.12132 
C 1.55874 -2.683901 0.795609 -3 0 -3 
C -0.795609 -3 -1.55874 -2.683901 -2.12132 -2.12132 
C -2.683901 -1.55874 -3 -0.795609 -3 0 
C -3 0.795609 -2.683901 1.55874 -2.12132 2.12132 
C -1.55874 2.683901 -0.795609 3 0 3 
z
" style="stroke: #000000; stroke-opacity: 0.8"/>
    </defs>
    <g clip-path="url(#p3d2b0bdf25)">
     <use xlink:href="#m7bcdd37ad5" x="202.129137" y="116.02043" style="fill-opacity: 0.8; stroke: #000000; stroke-opacity: 0.8"/>
     <use xlink:href="#m7bcdd37ad5" x="120.803826" y="207.402585" style="fill-opacity: 0.8; stroke: #000000; stroke-opacity: 0.8"/>
     <use xlink:href="#m7bcdd37ad5" x="65.79487" y="291.258186" style="fill-opacity: 0.8; stroke: #000000; stroke-opacity: 0.8"/>
     <use xlink:href="#m7bcdd37ad5" x="66.819328" y="268.884212" style="fill-opacity: 0.8; stroke: #000000; stroke-opacity: 0.8"/>
     <use xlink:href="#m7bcdd37ad5" x="260.203466" y="122.361268" style="fill-opacity: 0.8; stroke: #000000; stroke-opacity: 0.8"/>
     <use xlink:href="#m7bcdd37ad5" x="236.460112" y="120.366507" style="fill-opacity: 0.8; stroke: #000000; stroke-opacity: 0.8"/>
     <use xlink:href="#m7bcdd37ad5" x="302.639209" y="113.645253" style="fill-opacity: 0.8; stroke: #000000; stroke-opacity: 0.8"/>
     <use xlink:href="#m7bcdd37ad5" x="162.721809" y="212.280411" style="fill-opacity: 0.8; stroke: #000000; stroke-opacity: 0.8"/>
     <use xlink:href="#m7bcdd37ad5" x="211.221601" y="275.860054" style="fill-opacity: 0.8; stroke: #000000; stroke-opacity: 0.8"/>
    </g>
   </g>
   <g id="PolyCollection_1">
    <path d="M 65.79487 242.20652 
L 65.79487 304.881507 
L 68.187237 302.883884 
L 70.579604 300.886262 
L 72.971971 299.4426 
L 75.364338 297.907663 
L 77.756705 296.150479 
L 80.149072 294.359881 
L 82.541439 292.4941 
L 84.933807 290.625142 
L 87.326174 288.754935 
L 89.718541 286.899139 
L 92.110908 285.026877 
L 94.503275 283.151382 
L 96.895642 281.105873 
L 99.288009 279.176058 
L 101.680376 277.310793 
L 104.072743 275.715906 
L 106.46511 274.166353 
L 108.857477 272.596023 
L 111.249844 271.021007 
L 113.642211 269.455365 
L 116.034578 267.885036 
L 118.426945 266.314707 
L 120.819312 264.575081 
L 123.211679 262.822606 
L 125.604047 261.319735 
L 127.996414 259.568058 
L 130.388781 258.19392 
L 132.781148 256.934996 
L 135.173515 255.379103 
L 137.565882 253.801973 
L 139.958249 252.224842 
L 142.350616 250.676729 
L 144.742983 249.302383 
L 147.13535 247.899856 
L 149.527717 246.618378 
L 151.920084 245.333004 
L 154.312451 244.13019 
L 156.704818 242.584393 
L 159.097185 240.945269 
L 161.489552 239.222482 
L 163.881919 237.540414 
L 166.274287 235.849219 
L 168.666654 234.087529 
L 171.059021 232.030701 
L 173.451388 230.789585 
L 175.843755 229.403347 
L 178.236122 228.261787 
L 180.628489 227.047132 
L 183.020856 225.599456 
L 185.413223 224.224881 
L 187.80559 223.04243 
L 190.197957 221.815256 
L 192.590324 220.558054 
L 194.982691 219.291363 
L 197.375058 217.976023 
L 199.767425 216.378192 
L 202.159792 214.774155 
L 204.552159 213.555216 
L 206.944527 212.308732 
L 209.336894 211.270895 
L 211.729261 210.253654 
L 214.121628 209.182385 
L 216.513995 207.852767 
L 218.906362 206.713694 
L 221.298729 205.576637 
L 223.691096 204.134942 
L 226.083463 202.874965 
L 228.47583 201.614989 
L 230.868197 200.355012 
L 233.260564 199.07968 
L 235.652931 197.465889 
L 238.045298 195.659639 
L 240.437665 194.484646 
L 242.830032 193.425631 
L 245.222399 192.366616 
L 247.614766 191.309511 
L 250.007134 190.252983 
L 252.399501 189.197253 
L 254.791868 188.141523 
L 257.184235 187.085793 
L 259.576602 186.030064 
L 261.968969 184.974334 
L 264.361336 183.918604 
L 266.753703 182.862874 
L 269.14607 181.807144 
L 271.538437 180.749347 
L 273.930804 179.687273 
L 276.323171 178.630706 
L 278.715538 177.574139 
L 281.107905 176.517571 
L 283.500272 175.461004 
L 285.892639 174.404437 
L 288.285006 173.34787 
L 290.677374 172.291303 
L 293.069741 171.234736 
L 295.462108 170.178169 
L 297.854475 169.121602 
L 300.246842 168.065034 
L 302.639209 167.008467 
L 302.639209 52.593807 
L 302.639209 52.593807 
L 300.246842 54.888964 
L 297.854475 57.139648 
L 295.462108 59.326808 
L 293.069741 61.513968 
L 290.677374 63.701127 
L 288.285006 65.888287 
L 285.892639 68.075446 
L 283.500272 70.262606 
L 281.107905 72.449765 
L 278.715538 74.564197 
L 276.323171 76.645851 
L 273.930804 78.731468 
L 271.538437 80.998732 
L 269.14607 83.265996 
L 266.753703 85.53326 
L 264.361336 87.74024 
L 261.968969 89.922516 
L 259.576602 92.104791 
L 257.184235 94.289354 
L 254.791868 96.475871 
L 252.399501 98.662388 
L 250.007134 100.848904 
L 247.614766 103.035421 
L 245.222399 105.221938 
L 242.830032 107.408454 
L 240.437665 109.594971 
L 238.045298 111.781488 
L 235.652931 113.968004 
L 233.260564 116.154521 
L 230.868197 118.341038 
L 228.47583 120.527554 
L 226.083463 122.714071 
L 223.691096 124.900588 
L 221.298729 127.087104 
L 218.906362 129.272964 
L 216.513995 131.457945 
L 214.121628 133.748574 
L 211.729261 136.037938 
L 209.336894 138.398332 
L 206.944527 140.80143 
L 204.552159 143.042849 
L 202.159792 145.018206 
L 199.767425 147.257742 
L 197.375058 149.508385 
L 194.982691 151.760347 
L 192.590324 154.100682 
L 190.197957 156.241474 
L 187.80559 157.9735 
L 185.413223 159.860259 
L 183.020856 162.04764 
L 180.628489 164.231789 
L 178.236122 166.413465 
L 175.843755 168.403342 
L 173.451388 170.715572 
L 171.059021 172.916487 
L 168.666654 174.60559 
L 166.274287 176.15568 
L 163.881919 177.6649 
L 161.489552 179.496478 
L 159.097185 181.538247 
L 156.704818 183.768811 
L 154.312451 185.969533 
L 151.920084 187.683748 
L 149.527717 189.699825 
L 147.13535 191.570633 
L 144.742983 193.61801 
L 142.350616 195.775868 
L 139.958249 197.670662 
L 137.565882 199.309344 
L 135.173515 200.860946 
L 132.781148 202.23906 
L 130.388781 203.804505 
L 127.996414 205.410017 
L 125.604047 207.083457 
L 123.211679 208.577151 
L 120.819312 210.163744 
L 118.426945 211.677318 
L 116.034578 213.326588 
L 113.642211 214.925226 
L 111.249844 216.512386 
L 108.857477 217.621344 
L 106.46511 219.033003 
L 104.072743 220.526696 
L 101.680376 222.020389 
L 99.288009 223.514082 
L 96.895642 225.004294 
L 94.503275 226.494075 
L 92.110908 227.983856 
L 89.718541 229.052072 
L 87.326174 230.605769 
L 84.933807 231.866617 
L 82.541439 232.887219 
L 80.149072 234.160575 
L 77.756705 235.552486 
L 75.364338 236.892275 
L 72.971971 238.162382 
L 70.579604 239.337691 
L 68.187237 240.78022 
L 65.79487 242.20652 
z
" clip-path="url(#p3d2b0bdf25)" style="fill-opacity: 0.15"/>
   </g>
   <g id="matplotlib.axis_1">
    <g id="xtick_1">
     <g id="line2d_1">
      <defs>
       <path id="m53c2b20d10" d="M 0 0 
L 0 3.5 
" style="stroke: #000000; stroke-width: 0.8"/>
      </defs>
      <g>
       <use xlink:href="#m53c2b20d10" x="71.891566" y="315" style="stroke: #000000; stroke-width: 0.8"/>
      </g>
     </g>
     <g id="text_1">
      <!-- −50 -->
      <g transform="translate(61.339223 329.598437)scale(0.1 -0.1)">
       <defs>
        <path id="DejaVuSans-2212" d="M 678 2272 
L 4684 2272 
L 4684 1741 
L 678 1741 
L 678 2272 
z
" transform="scale(0.015625)"/>
        <path id="DejaVuSans-35" d="M 691 4666 
L 3169 4666 
L 3169 4134 
L 1269 4134 
L 1269 2991 
Q 1406 3038 1543 3061 
Q 1681 3084 1819 3084 
Q 2600 3084 3056 2656 
Q 3513 2228 3513 1497 
Q 3513 744 3044 326 
Q 2575 -91 1722 -91 
Q 1428 -91 1123 -41 
Q 819 9 494 109 
L 494 744 
Q 775 591 1075 516 
Q 1375 441 1709 441 
Q 2250 441 2565 725 
Q 2881 1009 2881 1497 
Q 2881 1984 2565 2268 
Q 2250 2553 1709 2553 
Q 1456 2553 1204 2497 
Q 953 2441 691 2322 
L 691 4666 
z
" transform="scale(0.015625)"/>
        <path id="DejaVuSans-30" d="M 2034 4250 
Q 1547 4250 1301 3770 
Q 1056 3291 1056 2328 
Q 1056 1369 1301 889 
Q 1547 409 2034 409 
Q 2525 409 2770 889 
Q 3016 1369 3016 2328 
Q 3016 3291 2770 3770 
Q 2525 4250 2034 4250 
z
M 2034 4750 
Q 2819 4750 3233 4129 
Q 3647 3509 3647 2328 
Q 3647 1150 3233 529 
Q 2819 -91 2034 -91 
Q 1250 -91 836 529 
Q 422 1150 422 2328 
Q 422 3509 836 4129 
Q 1250 4750 2034 4750 
z
" transform="scale(0.015625)"/>
       </defs>
       <use xlink:href="#DejaVuSans-2212"/>
       <use xlink:href="#DejaVuSans-35" x="83.789062"/>
       <use xlink:href="#DejaVuSans-30" x="147.412109"/>
      </g>
     </g>
    </g>
    <g id="xtick_2">
     <g id="line2d_2">
      <g>
       <use xlink:href="#m53c2b20d10" x="105.506024" y="315" style="stroke: #000000; stroke-width: 0.8"/>
      </g>
     </g>
     <g id="text_2">
      <!-- −40 -->
      <g transform="translate(94.95368 329.598437)scale(0.1 -0.1)">
       <defs>
        <path id="DejaVuSans-34" d="M 2419 4116 
L 825 1625 
L 2419 1625 
L 2419 4116 
z
M 2253 4666 
L 3047 4666 
L 3047 1625 
L 3713 1625 
L 3713 1100 
L 3047 1100 
L 3047 0 
L 2419 0 
L 2419 1100 
L 313 1100 
L 313 1709 
L 2253 4666 
z
" transform="scale(0.015625)"/>
       </defs>
       <use xlink:href="#DejaVuSans-2212"/>
       <use xlink:href="#DejaVuSans-34" x="83.789062"/>
       <use xlink:href="#DejaVuSans-30" x="147.412109"/>
      </g>
     </g>
    </g>
    <g id="xtick_3">
     <g id="line2d_3">
      <g>
       <use xlink:href="#m53c2b20d10" x="139.120482" y="315" style="stroke: #000000; stroke-width: 0.8"/>
      </g>
     </g>
     <g id="text_3">
      <!-- −30 -->
      <g transform="translate(128.568138 329.598437)scale(0.1 -0.1)">
       <defs>
        <path id="DejaVuSans-33" d="M 2597 2516 
Q 3050 2419 3304 2112 
Q 3559 1806 3559 1356 
Q 3559 666 3084 287 
Q 2609 -91 1734 -91 
Q 1441 -91 1130 -33 
Q 819 25 488 141 
L 488 750 
Q 750 597 1062 519 
Q 1375 441 1716 441 
Q 2309 441 2620 675 
Q 2931 909 2931 1356 
Q 2931 1769 2642 2001 
Q 2353 2234 1838 2234 
L 1294 2234 
L 1294 2753 
L 1863 2753 
Q 2328 2753 2575 2939 
Q 2822 3125 2822 3475 
Q 2822 3834 2567 4026 
Q 2313 4219 1838 4219 
Q 1578 4219 1281 4162 
Q 984 4106 628 3988 
L 628 4550 
Q 988 4650 1302 4700 
Q 1616 4750 1894 4750 
Q 2613 4750 3031 4423 
Q 3450 4097 3450 3541 
Q 3450 3153 3228 2886 
Q 3006 2619 2597 2516 
z
" transform="scale(0.015625)"/>
       </defs>
       <use xlink:href="#DejaVuSans-2212"/>
       <use xlink:href="#DejaVuSans-33" x="83.789062"/>
       <use xlink:href="#DejaVuSans-30" x="147.412109"/>
      </g>
     </g>
    </g>
    <g id="xtick_4">
     <g id="line2d_4">
      <g>
       <use xlink:href="#m53c2b20d10" x="172.73494" y="315" style="stroke: #000000; stroke-width: 0.8"/>
      </g>
     </g>
     <g id="text_4">
      <!-- −20 -->
      <g transform="translate(162.182596 329.598437)scale(0.1 -0.1)">
       <defs>
        <path id="DejaVuSans-32" d="M 1228 531 
L 3431 531 
L 3431 0 
L 469 0 
L 469 531 
Q 828 903 1448 1529 
Q 2069 2156 2228 2338 
Q 2531 2678 2651 2914 
Q 2772 3150 2772 3378 
Q 2772 3750 2511 3984 
Q 2250 4219 1831 4219 
Q 1534 4219 1204 4116 
Q 875 4013 500 3803 
L 500 4441 
Q 881 4594 1212 4672 
Q 1544 4750 1819 4750 
Q 2544 4750 2975 4387 
Q 3406 4025 3406 3419 
Q 3406 3131 3298 2873 
Q 3191 2616 2906 2266 
Q 2828 2175 2409 1742 
Q 1991 1309 1228 531 
z
" transform="scale(0.015625)"/>
       </defs>
       <use xlink:href="#DejaVuSans-2212"/>
       <use xlink:href="#DejaVuSans-32" x="83.789062"/>
       <use xlink:href="#DejaVuSans-30" x="147.412109"/>
      </g>
     </g>
    </g>
    <g id="xtick_5">
     <g id="line2d_5">
      <g>
       <use xlink:href="#m53c2b20d10" x="206.349398" y="315" style="stroke: #000000; stroke-width: 0.8"/>
      </g>
     </g>
     <g id="text_5">
      <!-- −10 -->
      <g transform="translate(195.797054 329.598437)scale(0.1 -0.1)">
       <defs>
        <path id="DejaVuSans-31" d="M 794 531 
L 1825 531 
L 1825 4091 
L 703 3866 
L 703 4441 
L 1819 4666 
L 2450 4666 
L 2450 531 
L 3481 531 
L 3481 0 
L 794 0 
L 794 531 
z
" transform="scale(0.015625)"/>
       </defs>
       <use xlink:href="#DejaVuSans-2212"/>
       <use xlink:href="#DejaVuSans-31" x="83.789062"/>
       <use xlink:href="#DejaVuSans-30" x="147.412109"/>
      </g>
     </g>
    </g>
    <g id="xtick_6">
     <g id="line2d_6">
      <g>
       <use xlink:href="#m53c2b20d10" x="239.963855" y="315" style="stroke: #000000; stroke-width: 0.8"/>
      </g>
     </g>
     <g id="text_6">
      <!-- 0 -->
      <g transform="translate(236.782605 329.598437)scale(0.1 -0.1)">
       <use xlink:href="#DejaVuSans-30"/>
      </g>
     </g>
    </g>
    <g id="xtick_7">
     <g id="line2d_7">
      <g>
       <use xlink:href="#m53c2b20d10" x="273.578313" y="315" style="stroke: #000000; stroke-width: 0.8"/>
      </g>
     </g>
     <g id="text_7">
      <!-- 10 -->
      <g transform="translate(267.215813 329.598437)scale(0.1 -0.1)">
       <use xlink:href="#DejaVuSans-31"/>
       <use xlink:href="#DejaVuSans-30" x="63.623047"/>
      </g>
     </g>
    </g>
    <g id="xtick_8">
     <g id="line2d_8">
      <g>
       <use xlink:href="#m53c2b20d10" x="307.192771" y="315" style="stroke: #000000; stroke-width: 0.8"/>
      </g>
     </g>
     <g id="text_8">
      <!-- 20 -->
      <g transform="translate(300.830271 329.598437)scale(0.1 -0.1)">
       <use xlink:href="#DejaVuSans-32"/>
       <use xlink:href="#DejaVuSans-30" x="63.623047"/>
      </g>
     </g>
    </g>
    <g id="text_9">
     <!-- ETS1 -->
     <g transform="translate(171.93125 343.276563)scale(0.1 -0.1)">
      <defs>
       <path id="DejaVuSans-45" d="M 628 4666 
L 3578 4666 
L 3578 4134 
L 1259 4134 
L 1259 2753 
L 3481 2753 
L 3481 2222 
L 1259 2222 
L 1259 531 
L 3634 531 
L 3634 0 
L 628 0 
L 628 4666 
z
" transform="scale(0.015625)"/>
       <path id="DejaVuSans-54" d="M -19 4666 
L 3928 4666 
L 3928 4134 
L 2272 4134 
L 2272 0 
L 1638 0 
L 1638 4134 
L -19 4134 
L -19 4666 
z
" transform="scale(0.015625)"/>
       <path id="DejaVuSans-53" d="M 3425 4513 
L 3425 3897 
Q 3066 4069 2747 4153 
Q 2428 4238 2131 4238 
Q 1616 4238 1336 4038 
Q 1056 3838 1056 3469 
Q 1056 3159 1242 3001 
Q 1428 2844 1947 2747 
L 2328 2669 
Q 3034 2534 3370 2195 
Q 3706 1856 3706 1288 
Q 3706 609 3251 259 
Q 2797 -91 1919 -91 
Q 1588 -91 1214 -16 
Q 841 59 441 206 
L 441 856 
Q 825 641 1194 531 
Q 1563 422 1919 422 
Q 2459 422 2753 634 
Q 3047 847 3047 1241 
Q 3047 1584 2836 1778 
Q 2625 1972 2144 2069 
L 1759 2144 
Q 1053 2284 737 2584 
Q 422 2884 422 3419 
Q 422 4038 858 4394 
Q 1294 4750 2059 4750 
Q 2388 4750 2728 4690 
Q 3069 4631 3425 4513 
z
" transform="scale(0.015625)"/>
      </defs>
      <use xlink:href="#DejaVuSans-45"/>
      <use xlink:href="#DejaVuSans-54" x="63.183594"/>
      <use xlink:href="#DejaVuSans-53" x="124.267578"/>
      <use xlink:href="#DejaVuSans-31" x="187.744141"/>
     </g>
    </g>
   </g>
   <g id="matplotlib.axis_2">
    <g id="ytick_1">
     <g id="line2d_9">
      <defs>
       <path id="m6aad0972cd" d="M 0 0 
L -3.5 0 
" style="stroke: #000000; stroke-width: 0.8"/>
      </defs>
      <g>
       <use xlink:href="#m6aad0972cd" x="45" y="288.80241" style="stroke: #000000; stroke-width: 0.8"/>
      </g>
     </g>
     <g id="text_10">
      <!-- −50 -->
      <g transform="translate(16.895312 292.601628)scale(0.1 -0.1)">
       <use xlink:href="#DejaVuSans-2212"/>
       <use xlink:href="#DejaVuSans-35" x="83.789062"/>
       <use xlink:href="#DejaVuSans-30" x="147.412109"/>
      </g>
     </g>
    </g>
    <g id="ytick_2">
     <g id="line2d_10">
      <g>
       <use xlink:href="#m6aad0972cd" x="45" y="256.055422" style="stroke: #000000; stroke-width: 0.8"/>
      </g>
     </g>
     <g id="text_11">
      <!-- −40 -->
      <g transform="translate(16.895312 259.85464)scale(0.1 -0.1)">
       <use xlink:href="#DejaVuSans-2212"/>
       <use xlink:href="#DejaVuSans-34" x="83.789062"/>
       <use xlink:href="#DejaVuSans-30" x="147.412109"/>
      </g>
     </g>
    </g>
    <g id="ytick_3">
     <g id="line2d_11">
      <g>
       <use xlink:href="#m6aad0972cd" x="45" y="223.308434" style="stroke: #000000; stroke-width: 0.8"/>
      </g>
     </g>
     <g id="text_12">
      <!-- −30 -->
      <g transform="translate(16.895312 227.107652)scale(0.1 -0.1)">
       <use xlink:href="#DejaVuSans-2212"/>
       <use xlink:href="#DejaVuSans-33" x="83.789062"/>
       <use xlink:href="#DejaVuSans-30" x="147.412109"/>
      </g>
     </g>
    </g>
    <g id="ytick_4">
     <g id="line2d_12">
      <g>
       <use xlink:href="#m6aad0972cd" x="45" y="190.561446" style="stroke: #000000; stroke-width: 0.8"/>
      </g>
     </g>
     <g id="text_13">
      <!-- −20 -->
      <g transform="translate(16.895312 194.360665)scale(0.1 -0.1)">
       <use xlink:href="#DejaVuSans-2212"/>
       <use xlink:href="#DejaVuSans-32" x="83.789062"/>
       <use xlink:href="#DejaVuSans-30" x="147.412109"/>
      </g>
     </g>
    </g>
    <g id="ytick_5">
     <g id="line2d_13">
      <g>
       <use xlink:href="#m6aad0972cd" x="45" y="157.814458" style="stroke: #000000; stroke-width: 0.8"/>
      </g>
     </g>
     <g id="text_14">
      <!-- −10 -->
      <g transform="translate(16.895312 161.613677)scale(0.1 -0.1)">
       <use xlink:href="#DejaVuSans-2212"/>
       <use xlink:href="#DejaVuSans-31" x="83.789062"/>
       <use xlink:href="#DejaVuSans-30" x="147.412109"/>
      </g>
     </g>
    </g>
    <g id="ytick_6">
     <g id="line2d_14">
      <g>
       <use xlink:href="#m6aad0972cd" x="45" y="125.06747" style="stroke: #000000; stroke-width: 0.8"/>
      </g>
     </g>
     <g id="text_15">
      <!-- 0 -->
      <g transform="translate(31.6375 128.866689)scale(0.1 -0.1)">
       <use xlink:href="#DejaVuSans-30"/>
      </g>
     </g>
    </g>
    <g id="ytick_7">
     <g id="line2d_15">
      <g>
       <use xlink:href="#m6aad0972cd" x="45" y="92.320482" style="stroke: #000000; stroke-width: 0.8"/>
      </g>
     </g>
     <g id="text_16">
      <!-- 10 -->
      <g transform="translate(25.275 96.119701)scale(0.1 -0.1)">
       <use xlink:href="#DejaVuSans-31"/>
       <use xlink:href="#DejaVuSans-30" x="63.623047"/>
      </g>
     </g>
    </g>
    <g id="ytick_8">
     <g id="line2d_16">
      <g>
       <use xlink:href="#m6aad0972cd" x="45" y="59.573494" style="stroke: #000000; stroke-width: 0.8"/>
      </g>
     </g>
     <g id="text_17">
      <!-- 20 -->
      <g transform="translate(25.275 63.372713)scale(0.1 -0.1)">
       <use xlink:href="#DejaVuSans-32"/>
       <use xlink:href="#DejaVuSans-30" x="63.623047"/>
      </g>
     </g>
    </g>
    <g id="text_18">
     <!-- ELK1 -->
     <g transform="translate(10.815625 191.505469)rotate(-90)scale(0.1 -0.1)">
      <defs>
       <path id="DejaVuSans-4c" d="M 628 4666 
L 1259 4666 
L 1259 531 
L 3531 531 
L 3531 0 
L 628 0 
L 628 4666 
z
" transform="scale(0.015625)"/>
       <path id="DejaVuSans-4b" d="M 628 4666 
L 1259 4666 
L 1259 2694 
L 3353 4666 
L 4166 4666 
L 1850 2491 
L 4331 0 
L 3500 0 
L 1259 2247 
L 1259 0 
L 628 0 
L 628 4666 
z
" transform="scale(0.015625)"/>
      </defs>
      <use xlink:href="#DejaVuSans-45"/>
      <use xlink:href="#DejaVuSans-4c" x="63.183594"/>
      <use xlink:href="#DejaVuSans-4b" x="118.896484"/>
      <use xlink:href="#DejaVuSans-31" x="184.472656"/>
     </g>
    </g>
   </g>
   <g id="line2d_17">
    <path d="M 65.79487 273.796198 
L 68.187237 272.097449 
L 70.579604 270.398701 
L 72.971971 268.699952 
L 75.364338 267.001203 
L 77.756705 265.302455 
L 80.149072 263.603706 
L 82.541439 261.904957 
L 84.933807 260.206209 
L 87.326174 258.50746 
L 89.718541 256.808712 
L 92.110908 255.109963 
L 94.503275 253.411214 
L 96.895642 251.712466 
L 99.288009 250.013717 
L 101.680376 248.314968 
L 104.072743 246.61622 
L 106.46511 244.917471 
L 108.857477 243.218722 
L 111.249844 241.519974 
L 113.642211 239.821225 
L 116.034578 238.122476 
L 118.426945 236.423728 
L 120.819312 234.724979 
L 123.211679 233.02623 
L 125.604047 231.327482 
L 127.996414 229.628733 
L 130.388781 227.929985 
L 132.781148 226.231236 
L 135.173515 224.532487 
L 137.565882 222.833739 
L 139.958249 221.13499 
L 142.350616 219.436241 
L 144.742983 217.737493 
L 147.13535 216.038744 
L 149.527717 214.339995 
L 151.920084 212.641247 
L 154.312451 210.942498 
L 156.704818 209.243749 
L 159.097185 207.545001 
L 161.489552 205.846252 
L 163.881919 204.147503 
L 166.274287 202.448755 
L 168.666654 200.750006 
L 171.059021 199.051258 
L 173.451388 197.352509 
L 175.843755 195.65376 
L 178.236122 193.955012 
L 180.628489 192.256263 
L 183.020856 190.557514 
L 185.413223 188.858766 
L 187.80559 187.160017 
L 190.197957 185.461268 
L 192.590324 183.76252 
L 194.982691 182.063771 
L 197.375058 180.365022 
L 199.767425 178.666274 
L 202.159792 176.967525 
L 204.552159 175.268776 
L 206.944527 173.570028 
L 209.336894 171.871279 
L 211.729261 170.172531 
L 214.121628 168.473782 
L 216.513995 166.775033 
L 218.906362 165.076285 
L 221.298729 163.377536 
L 223.691096 161.678787 
L 226.083463 159.980039 
L 228.47583 158.28129 
L 230.868197 156.582541 
L 233.260564 154.883793 
L 235.652931 153.185044 
L 238.045298 151.486295 
L 240.437665 149.787547 
L 242.830032 148.088798 
L 245.222399 146.390049 
L 247.614766 144.691301 
L 250.007134 142.992552 
L 252.399501 141.293804 
L 254.791868 139.595055 
L 257.184235 137.896306 
L 259.576602 136.197558 
L 261.968969 134.498809 
L 264.361336 132.80006 
L 266.753703 131.101312 
L 269.14607 129.402563 
L 271.538437 127.703814 
L 273.930804 126.005066 
L 276.323171 124.306317 
L 278.715538 122.607568 
L 281.107905 120.90882 
L 283.500272 119.210071 
L 285.892639 117.511322 
L 288.285006 115.812574 
L 290.677374 114.113825 
L 293.069741 112.415077 
L 295.462108 110.716328 
L 297.854475 109.017579 
L 300.246842 107.318831 
L 302.639209 105.620082 
" clip-path="url(#p3d2b0bdf25)" style="fill: none; stroke: #000000; stroke-width: 2.25; stroke-linecap: square"/>
   </g>
   <g id="patch_3">
    <path d="M 45 315 
L 45 43.2 
" style="fill: none; stroke: #000000; stroke-width: 0.8; stroke-linejoin: miter; stroke-linecap: square"/>
   </g>
   <g id="patch_4">
    <path d="M 324 315 
L 324 43.2 
" style="fill: none; stroke: #000000; stroke-width: 0.8; stroke-linejoin: miter; stroke-linecap: square"/>
   </g>
   <g id="patch_5">
    <path d="M 45 315 
L 324 315 
" style="fill: none; stroke: #000000; stroke-width: 0.8; stroke-linejoin: miter; stroke-linecap: square"/>
   </g>
   <g id="patch_6">
    <path d="M 45 43.2 
L 324 43.2 
" style="fill: none; stroke: #000000; stroke-width: 0.8; stroke-linejoin: miter; stroke-linecap: square"/>
   </g>
  </g>
 </g>
 <defs>
  <clipPath id="p3d2b0bdf25">
   <rect x="45" y="43.2" width="279" height="271.8"/>
  </clipPath>
 </defs>
</svg>
