<?xml version="1.0" encoding="utf-8" standalone="no"?>
<!DOCTYPE svg PUBLIC "-//W3C//DTD SVG 1.1//EN"
  "http://www.w3.org/Graphics/SVG/1.1/DTD/svg11.dtd">
<svg xmlns:xlink="http://www.w3.org/1999/xlink" width="360pt" height="360pt" viewBox="0 0 360 360" xmlns="http://www.w3.org/2000/svg" version="1.1">
 <metadata>
  <rdf:RDF xmlns:dc="http://purl.org/dc/elements/1.1/" xmlns:cc="http://creativecommons.org/ns#" xmlns:rdf="http://www.w3.org/1999/02/22-rdf-syntax-ns#">
   <cc:Work>
    <dc:type rdf:resource="http://purl.org/dc/dcmitype/StillImage"/>
    <dc:date>2022-12-16T17:13:24.839708</dc:date>
    <dc:format>image/svg+xml</dc:format>
    <dc:creator>
     <cc:Agent>
      <dc:title>Matplotlib v3.5.1, https://matplotlib.org/</dc:title>
     </cc:Agent>
    </dc:creator>
   </cc:Work>
  </rdf:RDF>
 </metadata>
 <defs>
  <style type="text/css">*{stroke-linejoin: round; stroke-linecap: butt}</style>
 </defs>
 <g id="figure_1">
  <g id="patch_1">
   <path d="M 0 360 
L 360 360 
L 360 0 
L 0 0 
L 0 360 
z
" style="fill: none"/>
  </g>
  <g id="axes_1">
   <g id="patch_2">
    <path d="M 45 315 
L 324 315 
L 324 43.2 
L 45 43.2 
z
" style="fill: #ffffff"/>
   </g>
   <g id="PathCollection_1">
    <defs>
     <path id="m7e07ad11d5" d="M 0 3 
C 0.795609 3 1.55874 2.683901 2.12132 2.12132 
C 2.683901 1.55874 3 0.795609 3 0 
C 3 -0.795609 2.683901 -1.55874 2.12132 -2.12132 
C 1.55874 -2.683901 0.795609 -3 0 -3 
C -0.795609 -3 -1.55874 -2.683901 -2.12132 -2.12132 
C -2.683901 -1.55874 -3 -0.795609 -3 0 
C -3 0.795609 -2.683901 1.55874 -2.12132 2.12132 
C -1.55874 2.683901 -0.795609 3 0 3 
z
" style="stroke: #000000; stroke-opacity: 0.8"/>
    </defs>
    <g clip-path="url(#pacaca1ed85)">
     <use xlink:href="#m7e07ad11d5" x="202.129137" y="116.02043" style="fill-opacity: 0.8; stroke: #000000; stroke-opacity: 0.8"/>
     <use xlink:href="#m7e07ad11d5" x="120.803826" y="207.402585" style="fill-opacity: 0.8; stroke: #000000; stroke-opacity: 0.8"/>
     <use xlink:href="#m7e07ad11d5" x="65.79487" y="291.258186" style="fill-opacity: 0.8; stroke: #000000; stroke-opacity: 0.8"/>
     <use xlink:href="#m7e07ad11d5" x="66.819328" y="268.884212" style="fill-opacity: 0.8; stroke: #000000; stroke-opacity: 0.8"/>
     <use xlink:href="#m7e07ad11d5" x="260.203466" y="122.361268" style="fill-opacity: 0.8; stroke: #000000; stroke-opacity: 0.8"/>
     <use xlink:href="#m7e07ad11d5" x="236.460112" y="120.366507" style="fill-opacity: 0.8; stroke: #000000; stroke-opacity: 0.8"/>
     <use xlink:href="#m7e07ad11d5" x="302.639209" y="113.645253" style="fill-opacity: 0.8; stroke: #000000; stroke-opacity: 0.8"/>
     <use xlink:href="#m7e07ad11d5" x="162.721809" y="212.280411" style="fill-opacity: 0.8; stroke: #000000; stroke-opacity: 0.8"/>
     <use xlink:href="#m7e07ad11d5" x="211.221601" y="275.860054" style="fill-opacity: 0.8; stroke: #000000; stroke-opacity: 0.8"/>
    </g>
   </g>
   <g id="PolyCollection_1">
    <path d="M 65.79487 243.301419 
L 65.79487 301.541403 
L 68.187237 299.819186 
L 70.579604 298.096969 
L 72.971971 296.526263 
L 75.364338 294.810782 
L 77.756705 292.948599 
L 80.149072 291.195276 
L 82.541439 289.213884 
L 84.933807 287.229036 
L 87.326174 285.514291 
L 89.718541 284.077471 
L 92.110908 282.574651 
L 94.503275 280.708437 
L 96.895642 278.758004 
L 99.288009 276.722995 
L 101.680376 274.91089 
L 104.072743 273.323685 
L 106.46511 271.744374 
L 108.857477 270.166107 
L 111.249844 268.582638 
L 113.642211 266.999168 
L 116.034578 265.334358 
L 118.426945 263.609635 
L 120.819312 262.037926 
L 123.211679 260.678905 
L 125.604047 259.105341 
L 127.996414 257.711867 
L 130.388781 256.392794 
L 132.781148 255.07372 
L 135.173515 253.74997 
L 137.565882 252.237315 
L 139.958249 250.594106 
L 142.350616 248.946591 
L 144.742983 247.298339 
L 147.13535 245.66181 
L 149.527717 244.461939 
L 151.920084 243.403907 
L 154.312451 242.228106 
L 156.704818 240.95556 
L 159.097185 239.686137 
L 161.489552 238.413158 
L 163.881919 237.124553 
L 166.274287 235.845574 
L 168.666654 234.566025 
L 171.059021 233.283171 
L 173.451388 232.014989 
L 175.843755 230.963506 
L 178.236122 229.795401 
L 180.628489 228.32578 
L 183.020856 227.129968 
L 185.413223 225.976039 
L 187.80559 224.747368 
L 190.197957 223.415959 
L 192.590324 221.806968 
L 194.982691 220.529324 
L 197.375058 219.401392 
L 199.767425 218.139665 
L 202.159792 216.69639 
L 204.552159 215.418746 
L 206.944527 214.182445 
L 209.336894 212.86252 
L 211.729261 211.544298 
L 214.121628 210.225225 
L 216.513995 208.916642 
L 218.906362 207.58571 
L 221.298729 206.257972 
L 223.691096 204.955787 
L 226.083463 203.735877 
L 228.47583 202.658609 
L 230.868197 201.378678 
L 233.260564 200.106789 
L 235.652931 199.126412 
L 238.045298 198.272451 
L 240.437665 197.204827 
L 242.830032 196.122217 
L 245.222399 195.039607 
L 247.614766 193.956997 
L 250.007134 192.874387 
L 252.399501 191.791168 
L 254.791868 190.700459 
L 257.184235 189.609749 
L 259.576602 188.519039 
L 261.968969 187.42833 
L 264.361336 186.33762 
L 266.753703 185.245962 
L 269.14607 184.150466 
L 271.538437 183.054971 
L 273.930804 181.959475 
L 276.323171 180.642867 
L 278.715538 179.286369 
L 281.107905 178.002621 
L 283.500272 177.036691 
L 285.892639 176.07076 
L 288.285006 175.104829 
L 290.677374 174.138899 
L 293.069741 173.172663 
L 295.462108 172.067667 
L 297.854475 170.897819 
L 300.246842 169.72797 
L 302.639209 168.558121 
L 302.639209 49.141566 
L 302.639209 49.141566 
L 300.246842 51.414623 
L 297.854475 53.939544 
L 295.462108 56.350756 
L 293.069741 58.57614 
L 290.677374 60.801524 
L 288.285006 63.026909 
L 285.892639 65.252293 
L 283.500272 67.477677 
L 281.107905 69.703062 
L 278.715538 71.928446 
L 276.323171 74.15383 
L 273.930804 76.379215 
L 271.538437 78.579692 
L 269.14607 80.624172 
L 266.753703 82.665163 
L 264.361336 85.086472 
L 261.968969 87.519183 
L 259.576602 89.746091 
L 257.184235 91.97448 
L 254.791868 94.202868 
L 252.399501 96.511962 
L 250.007134 98.84012 
L 247.614766 101.168445 
L 245.222399 103.500182 
L 242.830032 105.831918 
L 240.437665 108.163655 
L 238.045298 110.495391 
L 235.652931 112.827127 
L 233.260564 115.158864 
L 230.868197 117.4906 
L 228.47583 119.817434 
L 226.083463 122.077439 
L 223.691096 124.456162 
L 221.298729 126.755571 
L 218.906362 128.994472 
L 216.513995 131.183592 
L 214.121628 133.331363 
L 211.729261 135.040633 
L 209.336894 137.448651 
L 206.944527 139.782311 
L 204.552159 142.050487 
L 202.159792 144.313537 
L 199.767425 146.21869 
L 197.375058 148.361115 
L 194.982691 150.46703 
L 192.590324 152.407998 
L 190.197957 154.366676 
L 187.80559 156.485836 
L 185.413223 158.612265 
L 183.020856 160.687984 
L 180.628489 162.841466 
L 178.236122 164.827135 
L 175.843755 166.786497 
L 173.451388 168.51392 
L 171.059021 170.711743 
L 168.666654 172.313608 
L 166.274287 174.357055 
L 163.881919 176.239087 
L 161.489552 178.138511 
L 159.097185 180.011775 
L 156.704818 181.902413 
L 154.312451 183.705254 
L 151.920084 185.551589 
L 149.527717 187.810032 
L 147.13535 189.718563 
L 144.742983 191.425204 
L 142.350616 193.512881 
L 139.958249 195.791448 
L 137.565882 197.433674 
L 135.173515 199.161271 
L 132.781148 201.245313 
L 130.388781 203.031429 
L 127.996414 204.752123 
L 125.604047 206.19408 
L 123.211679 207.23999 
L 120.819312 208.878402 
L 118.426945 210.6496 
L 116.034578 212.441604 
L 113.642211 214.234044 
L 111.249844 215.414566 
L 108.857477 217.037033 
L 106.46511 218.328285 
L 104.072743 219.884713 
L 101.680376 221.549513 
L 99.288009 223.052313 
L 96.895642 224.490425 
L 94.503275 225.928537 
L 92.110908 227.366649 
L 89.718541 228.804761 
L 87.326174 230.261471 
L 84.933807 231.943329 
L 82.541439 233.62834 
L 80.149072 235.259298 
L 77.756705 236.609859 
L 75.364338 237.801838 
L 72.971971 238.854283 
L 70.579604 240.291693 
L 68.187237 241.781304 
L 65.79487 243.301419 
z
" clip-path="url(#pacaca1ed85)" style="fill-opacity: 0.15"/>
   </g>
   <g id="matplotlib.axis_1">
    <g id="xtick_1">
     <g id="line2d_1">
      <defs>
       <path id="m86ea75fd8c" d="M 0 0 
L 0 3.5 
" style="stroke: #000000; stroke-width: 0.8"/>
      </defs>
      <g>
       <use xlink:href="#m86ea75fd8c" x="71.891566" y="315" style="stroke: #000000; stroke-width: 0.8"/>
      </g>
     </g>
     <g id="text_1">
      <!-- −0.5 -->
      <g transform="translate(59.75016 329.598437)scale(0.1 -0.1)">
       <defs>
        <path id="DejaVuSans-2212" d="M 678 2272 
L 4684 2272 
L 4684 1741 
L 678 1741 
L 678 2272 
z
" transform="scale(0.015625)"/>
        <path id="DejaVuSans-30" d="M 2034 4250 
Q 1547 4250 1301 3770 
Q 1056 3291 1056 2328 
Q 1056 1369 1301 889 
Q 1547 409 2034 409 
Q 2525 409 2770 889 
Q 3016 1369 3016 2328 
Q 3016 3291 2770 3770 
Q 2525 4250 2034 4250 
z
M 2034 4750 
Q 2819 4750 3233 4129 
Q 3647 3509 3647 2328 
Q 3647 1150 3233 529 
Q 2819 -91 2034 -91 
Q 1250 -91 836 529 
Q 422 1150 422 2328 
Q 422 3509 836 4129 
Q 1250 4750 2034 4750 
z
" transform="scale(0.015625)"/>
        <path id="DejaVuSans-2e" d="M 684 794 
L 1344 794 
L 1344 0 
L 684 0 
L 684 794 
z
" transform="scale(0.015625)"/>
        <path id="DejaVuSans-35" d="M 691 4666 
L 3169 4666 
L 3169 4134 
L 1269 4134 
L 1269 2991 
Q 1406 3038 1543 3061 
Q 1681 3084 1819 3084 
Q 2600 3084 3056 2656 
Q 3513 2228 3513 1497 
Q 3513 744 3044 326 
Q 2575 -91 1722 -91 
Q 1428 -91 1123 -41 
Q 819 9 494 109 
L 494 744 
Q 775 591 1075 516 
Q 1375 441 1709 441 
Q 2250 441 2565 725 
Q 2881 1009 2881 1497 
Q 2881 1984 2565 2268 
Q 2250 2553 1709 2553 
Q 1456 2553 1204 2497 
Q 953 2441 691 2322 
L 691 4666 
z
" transform="scale(0.015625)"/>
       </defs>
       <use xlink:href="#DejaVuSans-2212"/>
       <use xlink:href="#DejaVuSans-30" x="83.789062"/>
       <use xlink:href="#DejaVuSans-2e" x="147.412109"/>
       <use xlink:href="#DejaVuSans-35" x="179.199219"/>
      </g>
     </g>
    </g>
    <g id="xtick_2">
     <g id="line2d_2">
      <g>
       <use xlink:href="#m86ea75fd8c" x="105.506024" y="315" style="stroke: #000000; stroke-width: 0.8"/>
      </g>
     </g>
     <g id="text_2">
      <!-- −0.4 -->
      <g transform="translate(93.364618 329.598437)scale(0.1 -0.1)">
       <defs>
        <path id="DejaVuSans-34" d="M 2419 4116 
L 825 1625 
L 2419 1625 
L 2419 4116 
z
M 2253 4666 
L 3047 4666 
L 3047 1625 
L 3713 1625 
L 3713 1100 
L 3047 1100 
L 3047 0 
L 2419 0 
L 2419 1100 
L 313 1100 
L 313 1709 
L 2253 4666 
z
" transform="scale(0.015625)"/>
       </defs>
       <use xlink:href="#DejaVuSans-2212"/>
       <use xlink:href="#DejaVuSans-30" x="83.789062"/>
       <use xlink:href="#DejaVuSans-2e" x="147.412109"/>
       <use xlink:href="#DejaVuSans-34" x="179.199219"/>
      </g>
     </g>
    </g>
    <g id="xtick_3">
     <g id="line2d_3">
      <g>
       <use xlink:href="#m86ea75fd8c" x="139.120482" y="315" style="stroke: #000000; stroke-width: 0.8"/>
      </g>
     </g>
     <g id="text_3">
      <!-- −0.3 -->
      <g transform="translate(126.979076 329.598437)scale(0.1 -0.1)">
       <defs>
        <path id="DejaVuSans-33" d="M 2597 2516 
Q 3050 2419 3304 2112 
Q 3559 1806 3559 1356 
Q 3559 666 3084 287 
Q 2609 -91 1734 -91 
Q 1441 -91 1130 -33 
Q 819 25 488 141 
L 488 750 
Q 750 597 1062 519 
Q 1375 441 1716 441 
Q 2309 441 2620 675 
Q 2931 909 2931 1356 
Q 2931 1769 2642 2001 
Q 2353 2234 1838 2234 
L 1294 2234 
L 1294 2753 
L 1863 2753 
Q 2328 2753 2575 2939 
Q 2822 3125 2822 3475 
Q 2822 3834 2567 4026 
Q 2313 4219 1838 4219 
Q 1578 4219 1281 4162 
Q 984 4106 628 3988 
L 628 4550 
Q 988 4650 1302 4700 
Q 1616 4750 1894 4750 
Q 2613 4750 3031 4423 
Q 3450 4097 3450 3541 
Q 3450 3153 3228 2886 
Q 3006 2619 2597 2516 
z
" transform="scale(0.015625)"/>
       </defs>
       <use xlink:href="#DejaVuSans-2212"/>
       <use xlink:href="#DejaVuSans-30" x="83.789062"/>
       <use xlink:href="#DejaVuSans-2e" x="147.412109"/>
       <use xlink:href="#DejaVuSans-33" x="179.199219"/>
      </g>
     </g>
    </g>
    <g id="xtick_4">
     <g id="line2d_4">
      <g>
       <use xlink:href="#m86ea75fd8c" x="172.73494" y="315" style="stroke: #000000; stroke-width: 0.8"/>
      </g>
     </g>
     <g id="text_4">
      <!-- −0.2 -->
      <g transform="translate(160.593534 329.598437)scale(0.1 -0.1)">
       <defs>
        <path id="DejaVuSans-32" d="M 1228 531 
L 3431 531 
L 3431 0 
L 469 0 
L 469 531 
Q 828 903 1448 1529 
Q 2069 2156 2228 2338 
Q 2531 2678 2651 2914 
Q 2772 3150 2772 3378 
Q 2772 3750 2511 3984 
Q 2250 4219 1831 4219 
Q 1534 4219 1204 4116 
Q 875 4013 500 3803 
L 500 4441 
Q 881 4594 1212 4672 
Q 1544 4750 1819 4750 
Q 2544 4750 2975 4387 
Q 3406 4025 3406 3419 
Q 3406 3131 3298 2873 
Q 3191 2616 2906 2266 
Q 2828 2175 2409 1742 
Q 1991 1309 1228 531 
z
" transform="scale(0.015625)"/>
       </defs>
       <use xlink:href="#DejaVuSans-2212"/>
       <use xlink:href="#DejaVuSans-30" x="83.789062"/>
       <use xlink:href="#DejaVuSans-2e" x="147.412109"/>
       <use xlink:href="#DejaVuSans-32" x="179.199219"/>
      </g>
     </g>
    </g>
    <g id="xtick_5">
     <g id="line2d_5">
      <g>
       <use xlink:href="#m86ea75fd8c" x="206.349398" y="315" style="stroke: #000000; stroke-width: 0.8"/>
      </g>
     </g>
     <g id="text_5">
      <!-- −0.1 -->
      <g transform="translate(194.207991 329.598437)scale(0.1 -0.1)">
       <defs>
        <path id="DejaVuSans-31" d="M 794 531 
L 1825 531 
L 1825 4091 
L 703 3866 
L 703 4441 
L 1819 4666 
L 2450 4666 
L 2450 531 
L 3481 531 
L 3481 0 
L 794 0 
L 794 531 
z
" transform="scale(0.015625)"/>
       </defs>
       <use xlink:href="#DejaVuSans-2212"/>
       <use xlink:href="#DejaVuSans-30" x="83.789062"/>
       <use xlink:href="#DejaVuSans-2e" x="147.412109"/>
       <use xlink:href="#DejaVuSans-31" x="179.199219"/>
      </g>
     </g>
    </g>
    <g id="xtick_6">
     <g id="line2d_6">
      <g>
       <use xlink:href="#m86ea75fd8c" x="239.963855" y="315" style="stroke: #000000; stroke-width: 0.8"/>
      </g>
     </g>
     <g id="text_6">
      <!-- 0.0 -->
      <g transform="translate(232.012293 329.598437)scale(0.1 -0.1)">
       <use xlink:href="#DejaVuSans-30"/>
       <use xlink:href="#DejaVuSans-2e" x="63.623047"/>
       <use xlink:href="#DejaVuSans-30" x="95.410156"/>
      </g>
     </g>
    </g>
    <g id="xtick_7">
     <g id="line2d_7">
      <g>
       <use xlink:href="#m86ea75fd8c" x="273.578313" y="315" style="stroke: #000000; stroke-width: 0.8"/>
      </g>
     </g>
     <g id="text_7">
      <!-- 0.1 -->
      <g transform="translate(265.626751 329.598437)scale(0.1 -0.1)">
       <use xlink:href="#DejaVuSans-30"/>
       <use xlink:href="#DejaVuSans-2e" x="63.623047"/>
       <use xlink:href="#DejaVuSans-31" x="95.410156"/>
      </g>
     </g>
    </g>
    <g id="xtick_8">
     <g id="line2d_8">
      <g>
       <use xlink:href="#m86ea75fd8c" x="307.192771" y="315" style="stroke: #000000; stroke-width: 0.8"/>
      </g>
     </g>
     <g id="text_8">
      <!-- 0.2 -->
      <g transform="translate(299.241209 329.598437)scale(0.1 -0.1)">
       <use xlink:href="#DejaVuSans-30"/>
       <use xlink:href="#DejaVuSans-2e" x="63.623047"/>
       <use xlink:href="#DejaVuSans-32" x="95.410156"/>
      </g>
     </g>
    </g>
    <g id="text_9">
     <!-- ETS1 -->
     <g transform="translate(171.93125 343.276563)scale(0.1 -0.1)">
      <defs>
       <path id="DejaVuSans-45" d="M 628 4666 
L 3578 4666 
L 3578 4134 
L 1259 4134 
L 1259 2753 
L 3481 2753 
L 3481 2222 
L 1259 2222 
L 1259 531 
L 3634 531 
L 3634 0 
L 628 0 
L 628 4666 
z
" transform="scale(0.015625)"/>
       <path id="DejaVuSans-54" d="M -19 4666 
L 3928 4666 
L 3928 4134 
L 2272 4134 
L 2272 0 
L 1638 0 
L 1638 4134 
L -19 4134 
L -19 4666 
z
" transform="scale(0.015625)"/>
       <path id="DejaVuSans-53" d="M 3425 4513 
L 3425 3897 
Q 3066 4069 2747 4153 
Q 2428 4238 2131 4238 
Q 1616 4238 1336 4038 
Q 1056 3838 1056 3469 
Q 1056 3159 1242 3001 
Q 1428 2844 1947 2747 
L 2328 2669 
Q 3034 2534 3370 2195 
Q 3706 1856 3706 1288 
Q 3706 609 3251 259 
Q 2797 -91 1919 -91 
Q 1588 -91 1214 -16 
Q 841 59 441 206 
L 441 856 
Q 825 641 1194 531 
Q 1563 422 1919 422 
Q 2459 422 2753 634 
Q 3047 847 3047 1241 
Q 3047 1584 2836 1778 
Q 2625 1972 2144 2069 
L 1759 2144 
Q 1053 2284 737 2584 
Q 422 2884 422 3419 
Q 422 4038 858 4394 
Q 1294 4750 2059 4750 
Q 2388 4750 2728 4690 
Q 3069 4631 3425 4513 
z
" transform="scale(0.015625)"/>
      </defs>
      <use xlink:href="#DejaVuSans-45"/>
      <use xlink:href="#DejaVuSans-54" x="63.183594"/>
      <use xlink:href="#DejaVuSans-53" x="124.267578"/>
      <use xlink:href="#DejaVuSans-31" x="187.744141"/>
     </g>
    </g>
   </g>
   <g id="matplotlib.axis_2">
    <g id="ytick_1">
     <g id="line2d_9">
      <defs>
       <path id="mc3afd1e654" d="M 0 0 
L -3.5 0 
" style="stroke: #000000; stroke-width: 0.8"/>
      </defs>
      <g>
       <use xlink:href="#mc3afd1e654" x="45" y="288.80241" style="stroke: #000000; stroke-width: 0.8"/>
      </g>
     </g>
     <g id="text_10">
      <!-- −0.5 -->
      <g transform="translate(13.717187 292.601628)scale(0.1 -0.1)">
       <use xlink:href="#DejaVuSans-2212"/>
       <use xlink:href="#DejaVuSans-30" x="83.789062"/>
       <use xlink:href="#DejaVuSans-2e" x="147.412109"/>
       <use xlink:href="#DejaVuSans-35" x="179.199219"/>
      </g>
     </g>
    </g>
    <g id="ytick_2">
     <g id="line2d_10">
      <g>
       <use xlink:href="#mc3afd1e654" x="45" y="256.055422" style="stroke: #000000; stroke-width: 0.8"/>
      </g>
     </g>
     <g id="text_11">
      <!-- −0.4 -->
      <g transform="translate(13.717187 259.85464)scale(0.1 -0.1)">
       <use xlink:href="#DejaVuSans-2212"/>
       <use xlink:href="#DejaVuSans-30" x="83.789062"/>
       <use xlink:href="#DejaVuSans-2e" x="147.412109"/>
       <use xlink:href="#DejaVuSans-34" x="179.199219"/>
      </g>
     </g>
    </g>
    <g id="ytick_3">
     <g id="line2d_11">
      <g>
       <use xlink:href="#mc3afd1e654" x="45" y="223.308434" style="stroke: #000000; stroke-width: 0.8"/>
      </g>
     </g>
     <g id="text_12">
      <!-- −0.3 -->
      <g transform="translate(13.717187 227.107652)scale(0.1 -0.1)">
       <use xlink:href="#DejaVuSans-2212"/>
       <use xlink:href="#DejaVuSans-30" x="83.789062"/>
       <use xlink:href="#DejaVuSans-2e" x="147.412109"/>
       <use xlink:href="#DejaVuSans-33" x="179.199219"/>
      </g>
     </g>
    </g>
    <g id="ytick_4">
     <g id="line2d_12">
      <g>
       <use xlink:href="#mc3afd1e654" x="45" y="190.561446" style="stroke: #000000; stroke-width: 0.8"/>
      </g>
     </g>
     <g id="text_13">
      <!-- −0.2 -->
      <g transform="translate(13.717187 194.360665)scale(0.1 -0.1)">
       <use xlink:href="#DejaVuSans-2212"/>
       <use xlink:href="#DejaVuSans-30" x="83.789062"/>
       <use xlink:href="#DejaVuSans-2e" x="147.412109"/>
       <use xlink:href="#DejaVuSans-32" x="179.199219"/>
      </g>
     </g>
    </g>
    <g id="ytick_5">
     <g id="line2d_13">
      <g>
       <use xlink:href="#mc3afd1e654" x="45" y="157.814458" style="stroke: #000000; stroke-width: 0.8"/>
      </g>
     </g>
     <g id="text_14">
      <!-- −0.1 -->
      <g transform="translate(13.717187 161.613677)scale(0.1 -0.1)">
       <use xlink:href="#DejaVuSans-2212"/>
       <use xlink:href="#DejaVuSans-30" x="83.789062"/>
       <use xlink:href="#DejaVuSans-2e" x="147.412109"/>
       <use xlink:href="#DejaVuSans-31" x="179.199219"/>
      </g>
     </g>
    </g>
    <g id="ytick_6">
     <g id="line2d_14">
      <g>
       <use xlink:href="#mc3afd1e654" x="45" y="125.06747" style="stroke: #000000; stroke-width: 0.8"/>
      </g>
     </g>
     <g id="text_15">
      <!-- 0.0 -->
      <g transform="translate(22.096875 128.866689)scale(0.1 -0.1)">
       <use xlink:href="#DejaVuSans-30"/>
       <use xlink:href="#DejaVuSans-2e" x="63.623047"/>
       <use xlink:href="#DejaVuSans-30" x="95.410156"/>
      </g>
     </g>
    </g>
    <g id="ytick_7">
     <g id="line2d_15">
      <g>
       <use xlink:href="#mc3afd1e654" x="45" y="92.320482" style="stroke: #000000; stroke-width: 0.8"/>
      </g>
     </g>
     <g id="text_16">
      <!-- 0.1 -->
      <g transform="translate(22.096875 96.119701)scale(0.1 -0.1)">
       <use xlink:href="#DejaVuSans-30"/>
       <use xlink:href="#DejaVuSans-2e" x="63.623047"/>
       <use xlink:href="#DejaVuSans-31" x="95.410156"/>
      </g>
     </g>
    </g>
    <g id="ytick_8">
     <g id="line2d_16">
      <g>
       <use xlink:href="#mc3afd1e654" x="45" y="59.573494" style="stroke: #000000; stroke-width: 0.8"/>
      </g>
     </g>
     <g id="text_17">
      <!-- 0.2 -->
      <g transform="translate(22.096875 63.372713)scale(0.1 -0.1)">
       <use xlink:href="#DejaVuSans-30"/>
       <use xlink:href="#DejaVuSans-2e" x="63.623047"/>
       <use xlink:href="#DejaVuSans-32" x="95.410156"/>
      </g>
     </g>
    </g>
    <g id="text_18">
     <!-- ELK1 -->
     <g transform="translate(7.6375 191.505469)rotate(-90)scale(0.1 -0.1)">
      <defs>
       <path id="DejaVuSans-4c" d="M 628 4666 
L 1259 4666 
L 1259 531 
L 3531 531 
L 3531 0 
L 628 0 
L 628 4666 
z
" transform="scale(0.015625)"/>
       <path id="DejaVuSans-4b" d="M 628 4666 
L 1259 4666 
L 1259 2694 
L 3353 4666 
L 4166 4666 
L 1850 2491 
L 4331 0 
L 3500 0 
L 1259 2247 
L 1259 0 
L 628 0 
L 628 4666 
z
" transform="scale(0.015625)"/>
      </defs>
      <use xlink:href="#DejaVuSans-45"/>
      <use xlink:href="#DejaVuSans-4c" x="63.183594"/>
      <use xlink:href="#DejaVuSans-4b" x="118.896484"/>
      <use xlink:href="#DejaVuSans-31" x="184.472656"/>
     </g>
    </g>
   </g>
   <g id="line2d_17">
    <path d="M 65.79487 273.796198 
L 68.187237 272.097449 
L 70.579604 270.398701 
L 72.971971 268.699952 
L 75.364338 267.001203 
L 77.756705 265.302455 
L 80.149072 263.603706 
L 82.541439 261.904957 
L 84.933807 260.206209 
L 87.326174 258.50746 
L 89.718541 256.808712 
L 92.110908 255.109963 
L 94.503275 253.411214 
L 96.895642 251.712466 
L 99.288009 250.013717 
L 101.680376 248.314968 
L 104.072743 246.61622 
L 106.46511 244.917471 
L 108.857477 243.218722 
L 111.249844 241.519974 
L 113.642211 239.821225 
L 116.034578 238.122476 
L 118.426945 236.423728 
L 120.819312 234.724979 
L 123.211679 233.02623 
L 125.604047 231.327482 
L 127.996414 229.628733 
L 130.388781 227.929985 
L 132.781148 226.231236 
L 135.173515 224.532487 
L 137.565882 222.833739 
L 139.958249 221.13499 
L 142.350616 219.436241 
L 144.742983 217.737493 
L 147.13535 216.038744 
L 149.527717 214.339995 
L 151.920084 212.641247 
L 154.312451 210.942498 
L 156.704818 209.243749 
L 159.097185 207.545001 
L 161.489552 205.846252 
L 163.881919 204.147503 
L 166.274287 202.448755 
L 168.666654 200.750006 
L 171.059021 199.051258 
L 173.451388 197.352509 
L 175.843755 195.65376 
L 178.236122 193.955012 
L 180.628489 192.256263 
L 183.020856 190.557514 
L 185.413223 188.858766 
L 187.80559 187.160017 
L 190.197957 185.461268 
L 192.590324 183.76252 
L 194.982691 182.063771 
L 197.375058 180.365022 
L 199.767425 178.666274 
L 202.159792 176.967525 
L 204.552159 175.268776 
L 206.944527 173.570028 
L 209.336894 171.871279 
L 211.729261 170.172531 
L 214.121628 168.473782 
L 216.513995 166.775033 
L 218.906362 165.076285 
L 221.298729 163.377536 
L 223.691096 161.678787 
L 226.083463 159.980039 
L 228.47583 158.28129 
L 230.868197 156.582541 
L 233.260564 154.883793 
L 235.652931 153.185044 
L 238.045298 151.486295 
L 240.437665 149.787547 
L 242.830032 148.088798 
L 245.222399 146.390049 
L 247.614766 144.691301 
L 250.007134 142.992552 
L 252.399501 141.293804 
L 254.791868 139.595055 
L 257.184235 137.896306 
L 259.576602 136.197558 
L 261.968969 134.498809 
L 264.361336 132.80006 
L 266.753703 131.101312 
L 269.14607 129.402563 
L 271.538437 127.703814 
L 273.930804 126.005066 
L 276.323171 124.306317 
L 278.715538 122.607568 
L 281.107905 120.90882 
L 283.500272 119.210071 
L 285.892639 117.511322 
L 288.285006 115.812574 
L 290.677374 114.113825 
L 293.069741 112.415077 
L 295.462108 110.716328 
L 297.854475 109.017579 
L 300.246842 107.318831 
L 302.639209 105.620082 
" clip-path="url(#pacaca1ed85)" style="fill: none; stroke: #000000; stroke-width: 2.25; stroke-linecap: square"/>
   </g>
   <g id="patch_3">
    <path d="M 45 315 
L 45 43.2 
" style="fill: none; stroke: #000000; stroke-width: 0.8; stroke-linejoin: miter; stroke-linecap: square"/>
   </g>
   <g id="patch_4">
    <path d="M 324 315 
L 324 43.2 
" style="fill: none; stroke: #000000; stroke-width: 0.8; stroke-linejoin: miter; stroke-linecap: square"/>
   </g>
   <g id="patch_5">
    <path d="M 45 315 
L 324 315 
" style="fill: none; stroke: #000000; stroke-width: 0.8; stroke-linejoin: miter; stroke-linecap: square"/>
   </g>
   <g id="patch_6">
    <path d="M 45 43.2 
L 324 43.2 
" style="fill: none; stroke: #000000; stroke-width: 0.8; stroke-linejoin: miter; stroke-linecap: square"/>
   </g>
  </g>
 </g>
 <defs>
  <clipPath id="pacaca1ed85">
   <rect x="45" y="43.2" width="279" height="271.8"/>
  </clipPath>
 </defs>
</svg>
