<?xml version="1.0" encoding="utf-8" standalone="no"?>
<!DOCTYPE svg PUBLIC "-//W3C//DTD SVG 1.1//EN"
  "http://www.w3.org/Graphics/SVG/1.1/DTD/svg11.dtd">
<svg xmlns:xlink="http://www.w3.org/1999/xlink" width="720pt" height="720pt" viewBox="0 0 720 720" xmlns="http://www.w3.org/2000/svg" version="1.1">
 <metadata>
  <rdf:RDF xmlns:dc="http://purl.org/dc/elements/1.1/" xmlns:cc="http://creativecommons.org/ns#" xmlns:rdf="http://www.w3.org/1999/02/22-rdf-syntax-ns#">
   <cc:Work>
    <dc:type rdf:resource="http://purl.org/dc/dcmitype/StillImage"/>
    <dc:date>2022-12-14T17:13:40.918613</dc:date>
    <dc:format>image/svg+xml</dc:format>
    <dc:creator>
     <cc:Agent>
      <dc:title>Matplotlib v3.5.1, https://matplotlib.org/</dc:title>
     </cc:Agent>
    </dc:creator>
   </cc:Work>
  </rdf:RDF>
 </metadata>
 <defs>
  <style type="text/css">*{stroke-linejoin: round; stroke-linecap: butt}</style>
 </defs>
 <g id="figure_1">
  <g id="patch_1">
   <path d="M 0 720 
L 720 720 
L 720 0 
L 0 0 
L 0 720 
z
" style="fill: none"/>
  </g>
  <g id="axes_1">
   <g id="patch_2">
    <path d="M 90 630 
L 648 630 
L 648 86.4 
L 90 86.4 
z
" style="fill: #ffffff"/>
   </g>
   <g id="PathCollection_1">
    <defs>
     <path id="md741cd6486" d="M 0 -3 
L -3 3 
L 3 3 
z
" style="stroke: #000000; stroke-opacity: 0.8"/>
    </defs>
    <g clip-path="url(#p5188b6b8f3)">
     <use xlink:href="#md741cd6486" x="333.741726" y="484.359141" style="fill-opacity: 0.8; stroke: #000000; stroke-opacity: 0.8"/>
     <use xlink:href="#md741cd6486" x="496.392348" y="301.59483" style="fill-opacity: 0.8; stroke: #000000; stroke-opacity: 0.8"/>
     <use xlink:href="#md741cd6486" x="606.41026" y="133.883629" style="fill-opacity: 0.8; stroke: #000000; stroke-opacity: 0.8"/>
     <use xlink:href="#md741cd6486" x="604.361344" y="178.631576" style="fill-opacity: 0.8; stroke: #000000; stroke-opacity: 0.8"/>
     <use xlink:href="#md741cd6486" x="217.593068" y="471.677463" style="fill-opacity: 0.8; stroke: #000000; stroke-opacity: 0.8"/>
     <use xlink:href="#md741cd6486" x="265.079776" y="475.666985" style="fill-opacity: 0.8; stroke: #000000; stroke-opacity: 0.8"/>
     <use xlink:href="#md741cd6486" x="132.721582" y="489.109494" style="fill-opacity: 0.8; stroke: #000000; stroke-opacity: 0.8"/>
     <use xlink:href="#md741cd6486" x="412.556382" y="291.839178" style="fill-opacity: 0.8; stroke: #000000; stroke-opacity: 0.8"/>
     <use xlink:href="#md741cd6486" x="315.556798" y="164.679892" style="fill-opacity: 0.8; stroke: #000000; stroke-opacity: 0.8"/>
    </g>
   </g>
   <g id="PolyCollection_1">
    <path d="M 132.721582 363.558169 
L 132.721582 610.393558 
L 137.506316 605.982257 
L 142.291051 601.570956 
L 147.075785 597.159655 
L 151.860519 592.748353 
L 156.645253 588.266064 
L 161.429987 583.695542 
L 166.214721 579.125019 
L 170.999455 574.554497 
L 175.784189 569.983975 
L 180.568923 564.295016 
L 185.353658 559.965516 
L 190.138392 555.636017 
L 194.923126 551.306517 
L 199.70786 546.977018 
L 204.492594 542.520417 
L 209.277328 537.94511 
L 214.062062 533.36697 
L 218.846796 528.684321 
L 223.631531 524.223224 
L 228.416265 519.754081 
L 233.200999 515.468688 
L 237.985733 511.183294 
L 242.770467 506.8979 
L 247.555201 502.612507 
L 252.339935 498.327113 
L 257.124669 494.041719 
L 261.909403 489.754585 
L 266.694138 486.282702 
L 271.478872 481.524272 
L 276.263606 477.810401 
L 281.04834 473.483527 
L 285.833074 469.083361 
L 290.617808 464.529009 
L 295.402542 460.2232 
L 300.187276 456.127111 
L 304.972011 451.982588 
L 309.756745 447.905632 
L 314.541479 443.225505 
L 319.326213 438.918908 
L 324.110947 434.613307 
L 328.895681 430.321681 
L 333.680415 427.579083 
L 338.465149 423.708377 
L 343.249883 419.128924 
L 348.034618 415.0409 
L 352.819352 410.898285 
L 357.604086 406.917788 
L 362.38882 403.018624 
L 367.173554 400.008477 
L 371.958288 396.781244 
L 376.743022 392.276995 
L 381.527756 387.807048 
L 386.31249 384.532908 
L 391.097225 380.165061 
L 395.881959 377.679213 
L 400.666693 375.159376 
L 405.451427 372.407957 
L 410.236161 367.703888 
L 415.020895 364.478983 
L 419.805629 359.912534 
L 424.590363 355.295734 
L 429.375098 352.219414 
L 434.159832 347.563475 
L 438.944566 342.907537 
L 443.7293 339.708049 
L 448.514034 337.009284 
L 453.298768 334.321971 
L 458.083502 331.634657 
L 462.868236 328.922788 
L 467.65297 325.366367 
L 472.437705 320.929364 
L 477.222439 318.250327 
L 482.007173 315.224887 
L 486.791907 312.516762 
L 491.576641 309.808637 
L 496.361375 307.098215 
L 501.146109 304.186572 
L 505.930843 301.684262 
L 510.715578 298.976136 
L 515.500312 296.268011 
L 520.285046 293.559886 
L 525.06978 290.83622 
L 529.854514 287.843414 
L 534.639248 284.532958 
L 539.423982 281.215449 
L 544.208716 277.894301 
L 548.99345 274.573153 
L 553.778185 271.252005 
L 558.562919 267.930857 
L 563.347653 264.782646 
L 568.132387 261.917989 
L 572.917121 259.991192 
L 577.701855 257.33544 
L 582.486589 254.194285 
L 587.271323 251.05313 
L 592.056057 248.222397 
L 596.840792 244.950757 
L 601.625526 241.927206 
L 606.41026 239.065882 
L 606.41026 118.550242 
L 606.41026 118.550242 
L 601.625526 122.170045 
L 596.840792 125.393228 
L 592.056057 128.616411 
L 587.271323 132.09042 
L 582.486589 136.426682 
L 577.701855 139.901908 
L 572.917121 143.377133 
L 568.132387 146.852358 
L 563.347653 149.90064 
L 558.562919 152.350788 
L 553.778185 154.733082 
L 548.99345 158.071319 
L 544.208716 161.44583 
L 539.423982 165.309493 
L 534.639248 168.362094 
L 529.854514 171.061733 
L 525.06978 173.761372 
L 520.285046 176.964158 
L 515.500312 180.187341 
L 510.715578 183.410524 
L 505.930843 186.633707 
L 501.146109 189.846873 
L 496.361375 193.080073 
L 491.576641 196.303256 
L 486.791907 199.162768 
L 482.007173 202.540357 
L 477.222439 205.965115 
L 472.437705 209.195989 
L 467.65297 212.419172 
L 462.868236 215.320876 
L 458.083502 217.051988 
L 453.298768 219.335272 
L 448.514034 221.206079 
L 443.7293 223.280178 
L 438.944566 225.941256 
L 434.159832 228.060305 
L 429.375098 230.641228 
L 424.590363 232.432188 
L 419.805629 234.446109 
L 415.020895 236.816443 
L 410.236161 239.954224 
L 405.451427 243.445335 
L 400.666693 246.66388 
L 395.881959 247.735297 
L 391.097225 248.971574 
L 386.31249 251.626779 
L 381.527756 254.313608 
L 376.743022 257.000436 
L 371.958288 259.687264 
L 367.173554 262.374092 
L 362.38882 264.71136 
L 357.604086 266.483475 
L 352.819352 269.257655 
L 348.034618 273.121405 
L 343.249883 275.808233 
L 338.465149 278.093707 
L 333.680415 280.05112 
L 328.895681 281.75962 
L 324.110947 284.808447 
L 319.326213 287.982997 
L 314.541479 290.25162 
L 309.756745 293.34858 
L 304.972011 296.257495 
L 300.187276 299.019273 
L 295.402542 301.74328 
L 290.617808 304.14936 
L 285.833074 305.949627 
L 281.04834 307.749894 
L 276.263606 309.550161 
L 271.478872 311.350428 
L 266.694138 313.163451 
L 261.909403 315.09734 
L 257.124669 317.073823 
L 252.339935 318.692847 
L 247.555201 320.398897 
L 242.770467 322.451514 
L 237.985733 324.204838 
L 233.200999 325.948896 
L 228.416265 328.043701 
L 223.631531 330.138507 
L 218.846796 331.773371 
L 214.062062 333.22079 
L 209.277328 334.797425 
L 204.492594 336.590749 
L 199.70786 338.384073 
L 194.923126 340.177397 
L 190.138392 341.703096 
L 185.353658 343.148114 
L 180.568923 344.593132 
L 175.784189 346.043224 
L 170.999455 347.5041 
L 166.214721 349.338594 
L 161.429987 351.655879 
L 156.645253 353.973163 
L 151.860519 356.295912 
L 147.075785 358.157368 
L 142.291051 359.957635 
L 137.506316 361.757902 
L 132.721582 363.558169 
z
" clip-path="url(#p5188b6b8f3)" style="fill-opacity: 0.15"/>
   </g>
   <g id="matplotlib.axis_1">
    <g id="xtick_1">
     <g id="line2d_1">
      <defs>
       <path id="m6f6b719883" d="M 0 0 
L 0 3.5 
" style="stroke: #000000; stroke-width: 0.8"/>
      </defs>
      <g>
       <use xlink:href="#m6f6b719883" x="123.614458" y="630" style="stroke: #000000; stroke-width: 0.8"/>
      </g>
     </g>
     <g id="text_1">
      <!-- −0.2 -->
      <g transform="translate(111.473052 644.598438)scale(0.1 -0.1)">
       <defs>
        <path id="DejaVuSans-2212" d="M 678 2272 
L 4684 2272 
L 4684 1741 
L 678 1741 
L 678 2272 
z
" transform="scale(0.015625)"/>
        <path id="DejaVuSans-30" d="M 2034 4250 
Q 1547 4250 1301 3770 
Q 1056 3291 1056 2328 
Q 1056 1369 1301 889 
Q 1547 409 2034 409 
Q 2525 409 2770 889 
Q 3016 1369 3016 2328 
Q 3016 3291 2770 3770 
Q 2525 4250 2034 4250 
z
M 2034 4750 
Q 2819 4750 3233 4129 
Q 3647 3509 3647 2328 
Q 3647 1150 3233 529 
Q 2819 -91 2034 -91 
Q 1250 -91 836 529 
Q 422 1150 422 2328 
Q 422 3509 836 4129 
Q 1250 4750 2034 4750 
z
" transform="scale(0.015625)"/>
        <path id="DejaVuSans-2e" d="M 684 794 
L 1344 794 
L 1344 0 
L 684 0 
L 684 794 
z
" transform="scale(0.015625)"/>
        <path id="DejaVuSans-32" d="M 1228 531 
L 3431 531 
L 3431 0 
L 469 0 
L 469 531 
Q 828 903 1448 1529 
Q 2069 2156 2228 2338 
Q 2531 2678 2651 2914 
Q 2772 3150 2772 3378 
Q 2772 3750 2511 3984 
Q 2250 4219 1831 4219 
Q 1534 4219 1204 4116 
Q 875 4013 500 3803 
L 500 4441 
Q 881 4594 1212 4672 
Q 1544 4750 1819 4750 
Q 2544 4750 2975 4387 
Q 3406 4025 3406 3419 
Q 3406 3131 3298 2873 
Q 3191 2616 2906 2266 
Q 2828 2175 2409 1742 
Q 1991 1309 1228 531 
z
" transform="scale(0.015625)"/>
       </defs>
       <use xlink:href="#DejaVuSans-2212"/>
       <use xlink:href="#DejaVuSans-30" x="83.789062"/>
       <use xlink:href="#DejaVuSans-2e" x="147.412109"/>
       <use xlink:href="#DejaVuSans-32" x="179.199219"/>
      </g>
     </g>
    </g>
    <g id="xtick_2">
     <g id="line2d_2">
      <g>
       <use xlink:href="#m6f6b719883" x="190.843373" y="630" style="stroke: #000000; stroke-width: 0.8"/>
      </g>
     </g>
     <g id="text_2">
      <!-- −0.1 -->
      <g transform="translate(178.701967 644.598438)scale(0.1 -0.1)">
       <defs>
        <path id="DejaVuSans-31" d="M 794 531 
L 1825 531 
L 1825 4091 
L 703 3866 
L 703 4441 
L 1819 4666 
L 2450 4666 
L 2450 531 
L 3481 531 
L 3481 0 
L 794 0 
L 794 531 
z
" transform="scale(0.015625)"/>
       </defs>
       <use xlink:href="#DejaVuSans-2212"/>
       <use xlink:href="#DejaVuSans-30" x="83.789062"/>
       <use xlink:href="#DejaVuSans-2e" x="147.412109"/>
       <use xlink:href="#DejaVuSans-31" x="179.199219"/>
      </g>
     </g>
    </g>
    <g id="xtick_3">
     <g id="line2d_3">
      <g>
       <use xlink:href="#m6f6b719883" x="258.072289" y="630" style="stroke: #000000; stroke-width: 0.8"/>
      </g>
     </g>
     <g id="text_3">
      <!-- 0.0 -->
      <g transform="translate(250.120727 644.598438)scale(0.1 -0.1)">
       <use xlink:href="#DejaVuSans-30"/>
       <use xlink:href="#DejaVuSans-2e" x="63.623047"/>
       <use xlink:href="#DejaVuSans-30" x="95.410156"/>
      </g>
     </g>
    </g>
    <g id="xtick_4">
     <g id="line2d_4">
      <g>
       <use xlink:href="#m6f6b719883" x="325.301205" y="630" style="stroke: #000000; stroke-width: 0.8"/>
      </g>
     </g>
     <g id="text_4">
      <!-- 0.1 -->
      <g transform="translate(317.349642 644.598438)scale(0.1 -0.1)">
       <use xlink:href="#DejaVuSans-30"/>
       <use xlink:href="#DejaVuSans-2e" x="63.623047"/>
       <use xlink:href="#DejaVuSans-31" x="95.410156"/>
      </g>
     </g>
    </g>
    <g id="xtick_5">
     <g id="line2d_5">
      <g>
       <use xlink:href="#m6f6b719883" x="392.53012" y="630" style="stroke: #000000; stroke-width: 0.8"/>
      </g>
     </g>
     <g id="text_5">
      <!-- 0.2 -->
      <g transform="translate(384.578558 644.598438)scale(0.1 -0.1)">
       <use xlink:href="#DejaVuSans-30"/>
       <use xlink:href="#DejaVuSans-2e" x="63.623047"/>
       <use xlink:href="#DejaVuSans-32" x="95.410156"/>
      </g>
     </g>
    </g>
    <g id="xtick_6">
     <g id="line2d_6">
      <g>
       <use xlink:href="#m6f6b719883" x="459.759036" y="630" style="stroke: #000000; stroke-width: 0.8"/>
      </g>
     </g>
     <g id="text_6">
      <!-- 0.3 -->
      <g transform="translate(451.807474 644.598438)scale(0.1 -0.1)">
       <defs>
        <path id="DejaVuSans-33" d="M 2597 2516 
Q 3050 2419 3304 2112 
Q 3559 1806 3559 1356 
Q 3559 666 3084 287 
Q 2609 -91 1734 -91 
Q 1441 -91 1130 -33 
Q 819 25 488 141 
L 488 750 
Q 750 597 1062 519 
Q 1375 441 1716 441 
Q 2309 441 2620 675 
Q 2931 909 2931 1356 
Q 2931 1769 2642 2001 
Q 2353 2234 1838 2234 
L 1294 2234 
L 1294 2753 
L 1863 2753 
Q 2328 2753 2575 2939 
Q 2822 3125 2822 3475 
Q 2822 3834 2567 4026 
Q 2313 4219 1838 4219 
Q 1578 4219 1281 4162 
Q 984 4106 628 3988 
L 628 4550 
Q 988 4650 1302 4700 
Q 1616 4750 1894 4750 
Q 2613 4750 3031 4423 
Q 3450 4097 3450 3541 
Q 3450 3153 3228 2886 
Q 3006 2619 2597 2516 
z
" transform="scale(0.015625)"/>
       </defs>
       <use xlink:href="#DejaVuSans-30"/>
       <use xlink:href="#DejaVuSans-2e" x="63.623047"/>
       <use xlink:href="#DejaVuSans-33" x="95.410156"/>
      </g>
     </g>
    </g>
    <g id="xtick_7">
     <g id="line2d_7">
      <g>
       <use xlink:href="#m6f6b719883" x="526.987952" y="630" style="stroke: #000000; stroke-width: 0.8"/>
      </g>
     </g>
     <g id="text_7">
      <!-- 0.4 -->
      <g transform="translate(519.036389 644.598438)scale(0.1 -0.1)">
       <defs>
        <path id="DejaVuSans-34" d="M 2419 4116 
L 825 1625 
L 2419 1625 
L 2419 4116 
z
M 2253 4666 
L 3047 4666 
L 3047 1625 
L 3713 1625 
L 3713 1100 
L 3047 1100 
L 3047 0 
L 2419 0 
L 2419 1100 
L 313 1100 
L 313 1709 
L 2253 4666 
z
" transform="scale(0.015625)"/>
       </defs>
       <use xlink:href="#DejaVuSans-30"/>
       <use xlink:href="#DejaVuSans-2e" x="63.623047"/>
       <use xlink:href="#DejaVuSans-34" x="95.410156"/>
      </g>
     </g>
    </g>
    <g id="xtick_8">
     <g id="line2d_8">
      <g>
       <use xlink:href="#m6f6b719883" x="594.216867" y="630" style="stroke: #000000; stroke-width: 0.8"/>
      </g>
     </g>
     <g id="text_8">
      <!-- 0.5 -->
      <g transform="translate(586.265305 644.598438)scale(0.1 -0.1)">
       <defs>
        <path id="DejaVuSans-35" d="M 691 4666 
L 3169 4666 
L 3169 4134 
L 1269 4134 
L 1269 2991 
Q 1406 3038 1543 3061 
Q 1681 3084 1819 3084 
Q 2600 3084 3056 2656 
Q 3513 2228 3513 1497 
Q 3513 744 3044 326 
Q 2575 -91 1722 -91 
Q 1428 -91 1123 -41 
Q 819 9 494 109 
L 494 744 
Q 775 591 1075 516 
Q 1375 441 1709 441 
Q 2250 441 2565 725 
Q 2881 1009 2881 1497 
Q 2881 1984 2565 2268 
Q 2250 2553 1709 2553 
Q 1456 2553 1204 2497 
Q 953 2441 691 2322 
L 691 4666 
z
" transform="scale(0.015625)"/>
       </defs>
       <use xlink:href="#DejaVuSans-30"/>
       <use xlink:href="#DejaVuSans-2e" x="63.623047"/>
       <use xlink:href="#DejaVuSans-35" x="95.410156"/>
      </g>
     </g>
    </g>
    <g id="text_9">
     <!-- ETS1 -->
     <g transform="translate(356.43125 658.276562)scale(0.1 -0.1)">
      <defs>
       <path id="DejaVuSans-45" d="M 628 4666 
L 3578 4666 
L 3578 4134 
L 1259 4134 
L 1259 2753 
L 3481 2753 
L 3481 2222 
L 1259 2222 
L 1259 531 
L 3634 531 
L 3634 0 
L 628 0 
L 628 4666 
z
" transform="scale(0.015625)"/>
       <path id="DejaVuSans-54" d="M -19 4666 
L 3928 4666 
L 3928 4134 
L 2272 4134 
L 2272 0 
L 1638 0 
L 1638 4134 
L -19 4134 
L -19 4666 
z
" transform="scale(0.015625)"/>
       <path id="DejaVuSans-53" d="M 3425 4513 
L 3425 3897 
Q 3066 4069 2747 4153 
Q 2428 4238 2131 4238 
Q 1616 4238 1336 4038 
Q 1056 3838 1056 3469 
Q 1056 3159 1242 3001 
Q 1428 2844 1947 2747 
L 2328 2669 
Q 3034 2534 3370 2195 
Q 3706 1856 3706 1288 
Q 3706 609 3251 259 
Q 2797 -91 1919 -91 
Q 1588 -91 1214 -16 
Q 841 59 441 206 
L 441 856 
Q 825 641 1194 531 
Q 1563 422 1919 422 
Q 2459 422 2753 634 
Q 3047 847 3047 1241 
Q 3047 1584 2836 1778 
Q 2625 1972 2144 2069 
L 1759 2144 
Q 1053 2284 737 2584 
Q 422 2884 422 3419 
Q 422 4038 858 4394 
Q 1294 4750 2059 4750 
Q 2388 4750 2728 4690 
Q 3069 4631 3425 4513 
z
" transform="scale(0.015625)"/>
      </defs>
      <use xlink:href="#DejaVuSans-45"/>
      <use xlink:href="#DejaVuSans-54" x="63.183594"/>
      <use xlink:href="#DejaVuSans-53" x="124.267578"/>
      <use xlink:href="#DejaVuSans-31" x="187.744141"/>
     </g>
    </g>
   </g>
   <g id="matplotlib.axis_2">
    <g id="ytick_1">
     <g id="line2d_9">
      <defs>
       <path id="m845a724383" d="M 0 0 
L -3.5 0 
" style="stroke: #000000; stroke-width: 0.8"/>
      </defs>
      <g>
       <use xlink:href="#m845a724383" x="90" y="597.253012" style="stroke: #000000; stroke-width: 0.8"/>
      </g>
     </g>
     <g id="text_10">
      <!-- −0.2 -->
      <g transform="translate(58.717187 601.052231)scale(0.1 -0.1)">
       <use xlink:href="#DejaVuSans-2212"/>
       <use xlink:href="#DejaVuSans-30" x="83.789062"/>
       <use xlink:href="#DejaVuSans-2e" x="147.412109"/>
       <use xlink:href="#DejaVuSans-32" x="179.199219"/>
      </g>
     </g>
    </g>
    <g id="ytick_2">
     <g id="line2d_10">
      <g>
       <use xlink:href="#m845a724383" x="90" y="531.759036" style="stroke: #000000; stroke-width: 0.8"/>
      </g>
     </g>
     <g id="text_11">
      <!-- −0.1 -->
      <g transform="translate(58.717187 535.558255)scale(0.1 -0.1)">
       <use xlink:href="#DejaVuSans-2212"/>
       <use xlink:href="#DejaVuSans-30" x="83.789062"/>
       <use xlink:href="#DejaVuSans-2e" x="147.412109"/>
       <use xlink:href="#DejaVuSans-31" x="179.199219"/>
      </g>
     </g>
    </g>
    <g id="ytick_3">
     <g id="line2d_11">
      <g>
       <use xlink:href="#m845a724383" x="90" y="466.26506" style="stroke: #000000; stroke-width: 0.8"/>
      </g>
     </g>
     <g id="text_12">
      <!-- 0.0 -->
      <g transform="translate(67.096875 470.064279)scale(0.1 -0.1)">
       <use xlink:href="#DejaVuSans-30"/>
       <use xlink:href="#DejaVuSans-2e" x="63.623047"/>
       <use xlink:href="#DejaVuSans-30" x="95.410156"/>
      </g>
     </g>
    </g>
    <g id="ytick_4">
     <g id="line2d_12">
      <g>
       <use xlink:href="#m845a724383" x="90" y="400.771084" style="stroke: #000000; stroke-width: 0.8"/>
      </g>
     </g>
     <g id="text_13">
      <!-- 0.1 -->
      <g transform="translate(67.096875 404.570303)scale(0.1 -0.1)">
       <use xlink:href="#DejaVuSans-30"/>
       <use xlink:href="#DejaVuSans-2e" x="63.623047"/>
       <use xlink:href="#DejaVuSans-31" x="95.410156"/>
      </g>
     </g>
    </g>
    <g id="ytick_5">
     <g id="line2d_13">
      <g>
       <use xlink:href="#m845a724383" x="90" y="335.277108" style="stroke: #000000; stroke-width: 0.8"/>
      </g>
     </g>
     <g id="text_14">
      <!-- 0.2 -->
      <g transform="translate(67.096875 339.076327)scale(0.1 -0.1)">
       <use xlink:href="#DejaVuSans-30"/>
       <use xlink:href="#DejaVuSans-2e" x="63.623047"/>
       <use xlink:href="#DejaVuSans-32" x="95.410156"/>
      </g>
     </g>
    </g>
    <g id="ytick_6">
     <g id="line2d_14">
      <g>
       <use xlink:href="#m845a724383" x="90" y="269.783133" style="stroke: #000000; stroke-width: 0.8"/>
      </g>
     </g>
     <g id="text_15">
      <!-- 0.3 -->
      <g transform="translate(67.096875 273.582351)scale(0.1 -0.1)">
       <use xlink:href="#DejaVuSans-30"/>
       <use xlink:href="#DejaVuSans-2e" x="63.623047"/>
       <use xlink:href="#DejaVuSans-33" x="95.410156"/>
      </g>
     </g>
    </g>
    <g id="ytick_7">
     <g id="line2d_15">
      <g>
       <use xlink:href="#m845a724383" x="90" y="204.289157" style="stroke: #000000; stroke-width: 0.8"/>
      </g>
     </g>
     <g id="text_16">
      <!-- 0.4 -->
      <g transform="translate(67.096875 208.088375)scale(0.1 -0.1)">
       <use xlink:href="#DejaVuSans-30"/>
       <use xlink:href="#DejaVuSans-2e" x="63.623047"/>
       <use xlink:href="#DejaVuSans-34" x="95.410156"/>
      </g>
     </g>
    </g>
    <g id="ytick_8">
     <g id="line2d_16">
      <g>
       <use xlink:href="#m845a724383" x="90" y="138.795181" style="stroke: #000000; stroke-width: 0.8"/>
      </g>
     </g>
     <g id="text_17">
      <!-- 0.5 -->
      <g transform="translate(67.096875 142.594399)scale(0.1 -0.1)">
       <use xlink:href="#DejaVuSans-30"/>
       <use xlink:href="#DejaVuSans-2e" x="63.623047"/>
       <use xlink:href="#DejaVuSans-35" x="95.410156"/>
      </g>
     </g>
    </g>
    <g id="text_18">
     <!-- ELK1 -->
     <g transform="translate(52.6375 370.605469)rotate(-90)scale(0.1 -0.1)">
      <defs>
       <path id="DejaVuSans-4c" d="M 628 4666 
L 1259 4666 
L 1259 531 
L 3531 531 
L 3531 0 
L 628 0 
L 628 4666 
z
" transform="scale(0.015625)"/>
       <path id="DejaVuSans-4b" d="M 628 4666 
L 1259 4666 
L 1259 2694 
L 3353 4666 
L 4166 4666 
L 1850 2491 
L 4331 0 
L 3500 0 
L 1259 2247 
L 1259 0 
L 628 0 
L 628 4666 
z
" transform="scale(0.015625)"/>
      </defs>
      <use xlink:href="#DejaVuSans-45"/>
      <use xlink:href="#DejaVuSans-4c" x="63.183594"/>
      <use xlink:href="#DejaVuSans-4b" x="118.896484"/>
      <use xlink:href="#DejaVuSans-31" x="184.472656"/>
     </g>
    </g>
   </g>
   <g id="line2d_17">
    <path d="M 132.721582 505.159836 
L 137.506316 501.762339 
L 142.291051 498.364842 
L 147.075785 494.967344 
L 151.860519 491.569847 
L 156.645253 488.17235 
L 161.429987 484.774852 
L 166.214721 481.377355 
L 170.999455 477.979858 
L 175.784189 474.58236 
L 180.568923 471.184863 
L 185.353658 467.787366 
L 190.138392 464.389869 
L 194.923126 460.992371 
L 199.70786 457.594874 
L 204.492594 454.197377 
L 209.277328 450.799879 
L 214.062062 447.402382 
L 218.846796 444.004885 
L 223.631531 440.607388 
L 228.416265 437.20989 
L 233.200999 433.812393 
L 237.985733 430.414896 
L 242.770467 427.017398 
L 247.555201 423.619901 
L 252.339935 420.222404 
L 257.124669 416.824906 
L 261.909403 413.427409 
L 266.694138 410.029912 
L 271.478872 406.632415 
L 276.263606 403.234917 
L 281.04834 399.83742 
L 285.833074 396.439923 
L 290.617808 393.042425 
L 295.402542 389.644928 
L 300.187276 386.247431 
L 304.972011 382.849934 
L 309.756745 379.452436 
L 314.541479 376.054939 
L 319.326213 372.657442 
L 324.110947 369.259944 
L 328.895681 365.862447 
L 333.680415 362.46495 
L 338.465149 359.067452 
L 343.249883 355.669955 
L 348.034618 352.272458 
L 352.819352 348.874961 
L 357.604086 345.477463 
L 362.38882 342.079966 
L 367.173554 338.682469 
L 371.958288 335.284971 
L 376.743022 331.887474 
L 381.527756 328.489977 
L 386.31249 325.09248 
L 391.097225 321.694982 
L 395.881959 318.297485 
L 400.666693 314.899988 
L 405.451427 311.50249 
L 410.236161 308.104993 
L 415.020895 304.707496 
L 419.805629 301.309998 
L 424.590363 297.912501 
L 429.375098 294.515004 
L 434.159832 291.117507 
L 438.944566 287.720009 
L 443.7293 284.322512 
L 448.514034 280.925015 
L 453.298768 277.527517 
L 458.083502 274.13002 
L 462.868236 270.732523 
L 467.65297 267.335026 
L 472.437705 263.937528 
L 477.222439 260.540031 
L 482.007173 257.142534 
L 486.791907 253.745036 
L 491.576641 250.347539 
L 496.361375 246.950042 
L 501.146109 243.552544 
L 505.930843 240.155047 
L 510.715578 236.75755 
L 515.500312 233.360053 
L 520.285046 229.962555 
L 525.06978 226.565058 
L 529.854514 223.167561 
L 534.639248 219.770063 
L 539.423982 216.372566 
L 544.208716 212.975069 
L 548.99345 209.577572 
L 553.778185 206.180074 
L 558.562919 202.782577 
L 563.347653 199.38508 
L 568.132387 195.987582 
L 572.917121 192.590085 
L 577.701855 189.192588 
L 582.486589 185.79509 
L 587.271323 182.397593 
L 592.056057 179.000096 
L 596.840792 175.602599 
L 601.625526 172.205101 
L 606.41026 168.807604 
" clip-path="url(#p5188b6b8f3)" style="fill: none; stroke: #000000; stroke-width: 2.25; stroke-linecap: square"/>
   </g>
   <g id="patch_3">
    <path d="M 90 630 
L 90 86.4 
" style="fill: none; stroke: #000000; stroke-width: 0.8; stroke-linejoin: miter; stroke-linecap: square"/>
   </g>
   <g id="patch_4">
    <path d="M 648 630 
L 648 86.4 
" style="fill: none; stroke: #000000; stroke-width: 0.8; stroke-linejoin: miter; stroke-linecap: square"/>
   </g>
   <g id="patch_5">
    <path d="M 90 630 
L 648 630 
" style="fill: none; stroke: #000000; stroke-width: 0.8; stroke-linejoin: miter; stroke-linecap: square"/>
   </g>
   <g id="patch_6">
    <path d="M 90 86.4 
L 648 86.4 
" style="fill: none; stroke: #000000; stroke-width: 0.8; stroke-linejoin: miter; stroke-linecap: square"/>
   </g>
  </g>
 </g>
 <defs>
  <clipPath id="p5188b6b8f3">
   <rect x="90" y="86.4" width="558" height="543.6"/>
  </clipPath>
 </defs>
</svg>
