<svg version="1.1" xmlns="http://www.w3.org/2000/svg" width="400" height="200"><defs><clipPath id="KhEBasyfxwvW"><path fill="none" stroke="none" d="M 6.5 5.5 L 395.5 5.5 L 395.5 194.5 L 6.5 194.5 L 6.5 5.5"/></clipPath><clipPath id="daKfkauMzgUR"><path fill="none" stroke="none" d="M 6.5 5.5 L 395.5 5.5 L 395.5 194.5 L 6.5 194.5 L 6.5 5.5"/></clipPath><clipPath id="ayAHuvfOqEBr"><path fill="none" stroke="none" d="M 6.5 5.5 L 395.5 5.5 L 395.5 194.5 L 6.5 194.5 L 6.5 5.5"/></clipPath></defs><path fill="rgb(255,255,255)" stroke="none" paint-order="stroke" d="M 0.5 0.5 L 400.5 0.5 L 400.5 200.5 L 0.5 200.5 L 0.5 0.5" fill-opacity="1"/><rect fill="#FFFFFF" stroke="none" x="6" y="5" width="389" height="189" transform="matrix(1, 0, 0, 1, 0.5, 0.5)"/><path fill="rgb(255,255,255)" stroke="none" paint-order="stroke" d="M 6.5 5.5 L 395.5 5.5 L 395.5 194.5 L 6.5 194.5 L 6.5 5.5" fill-opacity="1"/><path fill="none" stroke="rgb(0,0,0)" paint-order="fill" d="M 6.5 5.5 L 395.5 5.5 L 395.5 194.5 L 6.5 194.5 L 6.5 5.5" stroke-opacity="1" stroke-linejoin="bevel" stroke-miterlimit="10" stroke-dasharray=""/><path fill="rgb(141,176,254)" stroke="rgb(0,0,0)" paint-order="fill" d="M 26.760417938232422 187.37338256835938 L 51.07291793823242 187.37338256835938 L 51.07291793823242 194.5 L 26.760417938232422 194.5 L 26.760417938232422 187.37338256835938" fill-opacity="1" clip-path="url(#ayAHuvfOqEBr)" stroke-opacity="1" stroke-linejoin="bevel" stroke-miterlimit="10" stroke-dasharray=""/><path fill="rgb(141,176,254)" stroke="rgb(0,0,0)" paint-order="fill" d="M 59.177085876464844 183.73406982421875 L 83.48958587646484 183.73406982421875 L 83.48958587646484 194.5 L 59.177085876464844 194.5 L 59.177085876464844 183.73406982421875" fill-opacity="1" clip-path="url(#ayAHuvfOqEBr)" stroke-opacity="1" stroke-linejoin="bevel" stroke-miterlimit="10" stroke-dasharray=""/><path fill="rgb(244,152,122)" stroke="rgb(0,0,0)" paint-order="fill" d="M 91.59375 175.16006469726562 L 115.90625 175.16006469726562 L 115.90625 194.5 L 91.59375 194.5 L 91.59375 175.16006469726562" fill-opacity="1" clip-path="url(#ayAHuvfOqEBr)" stroke-opacity="1" stroke-linejoin="bevel" stroke-miterlimit="10" stroke-dasharray=""/><path fill="rgb(244,152,122)" stroke="rgb(0,0,0)" paint-order="fill" d="M 124.01042175292969 133.4216766357422 L 148.3229217529297 133.4216766357422 L 148.3229217529297 194.5 L 124.01042175292969 194.5 L 124.01042175292969 133.4216766357422" fill-opacity="1" clip-path="url(#ayAHuvfOqEBr)" stroke-opacity="1" stroke-linejoin="bevel" stroke-miterlimit="10" stroke-dasharray=""/><path fill="rgb(244,152,122)" stroke="rgb(0,0,0)" paint-order="fill" d="M 156.4270782470703 192.14651489257812 L 180.7395782470703 192.14651489257812 L 180.7395782470703 194.5 L 156.4270782470703 194.5 L 156.4270782470703 192.14651489257812" fill-opacity="1" clip-path="url(#ayAHuvfOqEBr)" stroke-opacity="1" stroke-linejoin="bevel" stroke-miterlimit="10" stroke-dasharray=""/><path fill="rgb(141,176,254)" stroke="rgb(0,0,0)" paint-order="fill" d="M 188.84375 191.98532104492188 L 213.15625 191.98532104492188 L 213.15625 194.5 L 188.84375 194.5 L 188.84375 191.98532104492188" fill-opacity="1" clip-path="url(#ayAHuvfOqEBr)" stroke-opacity="1" stroke-linejoin="bevel" stroke-miterlimit="10" stroke-dasharray=""/><path fill="rgb(141,176,254)" stroke="rgb(0,0,0)" paint-order="fill" d="M 221.2604217529297 194.20083618164062 L 245.5729217529297 194.20083618164062 L 245.5729217529297 194.5 L 221.2604217529297 194.5 L 221.2604217529297 194.20083618164062" fill-opacity="1" clip-path="url(#ayAHuvfOqEBr)" stroke-opacity="1" stroke-linejoin="bevel" stroke-miterlimit="10" stroke-dasharray=""/><path fill="rgb(244,152,122)" stroke="rgb(0,0,0)" paint-order="fill" d="M 253.67709350585938 147.86843872070312 L 277.9895935058594 147.86843872070312 L 277.9895935058594 194.5 L 253.67709350585938 194.5 L 253.67709350585938 147.86843872070312" fill-opacity="1" clip-path="url(#ayAHuvfOqEBr)" stroke-opacity="1" stroke-linejoin="bevel" stroke-miterlimit="10" stroke-dasharray=""/><path fill="rgb(244,152,122)" stroke="rgb(0,0,0)" paint-order="fill" d="M 286.09375 116.98794555664062 L 310.40625 116.98794555664062 L 310.40625 194.5 L 286.09375 194.5 L 286.09375 116.98794555664062" fill-opacity="1" clip-path="url(#ayAHuvfOqEBr)" stroke-opacity="1" stroke-linejoin="bevel" stroke-miterlimit="10" stroke-dasharray=""/><path fill="rgb(244,152,122)" stroke="rgb(0,0,0)" paint-order="fill" d="M 318.5104064941406 109.05611419677734 L 342.8229064941406 109.05611419677734 L 342.8229064941406 194.5 L 318.5104064941406 194.5 L 318.5104064941406 109.05611419677734" fill-opacity="1" clip-path="url(#ayAHuvfOqEBr)" stroke-opacity="1" stroke-linejoin="bevel" stroke-miterlimit="10" stroke-dasharray=""/><path fill="rgb(244,152,122)" stroke="rgb(0,0,0)" paint-order="fill" d="M 350.9270935058594 167.57864379882812 L 375.2395935058594 167.57864379882812 L 375.2395935058594 194.5 L 350.9270935058594 194.5 L 350.9270935058594 167.57864379882812" fill-opacity="1" clip-path="url(#ayAHuvfOqEBr)" stroke-opacity="1" stroke-linejoin="bevel" stroke-miterlimit="10" stroke-dasharray=""/><path fill="none" stroke="rgb(0,0,0)" paint-order="fill" d="M 6.5 194.5 L 395.5 194.5" stroke-opacity="1" stroke-linejoin="bevel" stroke-miterlimit="10" stroke-dasharray=""/><path fill="none" stroke="rgb(0,0,0)" paint-order="fill" d="M 6.5 194.5 L 6.5 5.5" stroke-opacity="1" stroke-linejoin="bevel" stroke-miterlimit="10" stroke-dasharray=""/><path fill="none" stroke="rgb(0,0,0)" paint-order="fill" d="" stroke-opacity="1" stroke-linejoin="bevel" stroke-miterlimit="10" stroke-dasharray=""/></svg>