<?xml version="1.0" encoding="utf-8" standalone="no"?>
<!DOCTYPE svg PUBLIC "-//W3C//DTD SVG 1.1//EN"
  "http://www.w3.org/Graphics/SVG/1.1/DTD/svg11.dtd">
<svg xmlns:xlink="http://www.w3.org/1999/xlink" width="720pt" height="288pt" viewBox="0 0 720 288" xmlns="http://www.w3.org/2000/svg" version="1.1">
 <metadata>
  <rdf:RDF xmlns:dc="http://purl.org/dc/elements/1.1/" xmlns:cc="http://creativecommons.org/ns#" xmlns:rdf="http://www.w3.org/1999/02/22-rdf-syntax-ns#">
   <cc:Work>
    <dc:type rdf:resource="http://purl.org/dc/dcmitype/StillImage"/>
    <dc:date>2023-01-01T17:32:45.020683</dc:date>
    <dc:format>image/svg+xml</dc:format>
    <dc:creator>
     <cc:Agent>
      <dc:title>Matplotlib v3.5.1, https://matplotlib.org/</dc:title>
     </cc:Agent>
    </dc:creator>
   </cc:Work>
  </rdf:RDF>
 </metadata>
 <defs>
  <style type="text/css">*{stroke-linejoin: round; stroke-linecap: butt}</style>
 </defs>
 <g id="figure_1">
  <g id="patch_1">
   <path d="M 0 288 
L 720 288 
L 720 0 
L 0 0 
L 0 288 
z
" style="fill: none"/>
  </g>
  <g id="axes_1">
   <g id="patch_2">
    <path d="M 90 100.450909 
L 648 100.450909 
L 648 34.56 
L 90 34.56 
z
" style="fill: #ffffff"/>
   </g>
   <g id="patch_3">
    <path d="M 115.363636 364.014545 
L 129.166976 364.014545 
L 129.166976 348.692013 
L 115.363636 348.692013 
z
" clip-path="url(#p4a2d099227)"/>
   </g>
   <g id="patch_4">
    <path d="M 167.12616 364.014545 
L 180.929499 364.014545 
L 180.929499 362.124364 
L 167.12616 362.124364 
z
" clip-path="url(#p4a2d099227)"/>
   </g>
   <g id="patch_5">
    <path d="M 218.888683 364.014545 
L 232.692022 364.014545 
L 232.692022 353.719091 
L 218.888683 353.719091 
z
" clip-path="url(#p4a2d099227)"/>
   </g>
   <g id="patch_6">
    <path d="M 270.651206 364.014545 
L 284.454545 364.014545 
L 284.454545 350.501761 
L 270.651206 350.501761 
z
" clip-path="url(#p4a2d099227)"/>
   </g>
   <g id="patch_7">
    <path d="M 322.413729 364.014545 
L 336.217069 364.014545 
L 336.217069 350.863711 
L 322.413729 350.863711 
z
" clip-path="url(#p4a2d099227)"/>
   </g>
   <g id="patch_8">
    <path d="M 374.176252 364.014545 
L 387.979592 364.014545 
L 387.979592 353.196275 
L 374.176252 353.196275 
z
" clip-path="url(#p4a2d099227)"/>
   </g>
   <g id="patch_9">
    <path d="M 425.938776 364.014545 
L 439.742115 364.014545 
L 439.742115 355.448406 
L 425.938776 355.448406 
z
" clip-path="url(#p4a2d099227)"/>
   </g>
   <g id="patch_10">
    <path d="M 477.701299 364.014545 
L 491.504638 364.014545 
L 491.504638 356.212521 
L 477.701299 356.212521 
z
" clip-path="url(#p4a2d099227)"/>
   </g>
   <g id="patch_11">
    <path d="M 529.463822 364.014545 
L 543.267161 364.014545 
L 543.267161 359.027685 
L 529.463822 359.027685 
z
" clip-path="url(#p4a2d099227)"/>
   </g>
   <g id="patch_12">
    <path d="M 581.226345 364.014545 
L 595.029685 364.014545 
L 595.029685 363.12978 
L 581.226345 363.12978 
z
" clip-path="url(#p4a2d099227)"/>
   </g>
   <g id="patch_13">
    <path d="M 129.166976 364.014545 
L 142.970315 364.014545 
L 142.970315 350.059379 
L 129.166976 350.059379 
z
" clip-path="url(#p4a2d099227)" style="fill: #636363"/>
   </g>
   <g id="patch_14">
    <path d="M 180.929499 364.014545 
L 194.732839 364.014545 
L 194.732839 339.562841 
L 180.929499 339.562841 
z
" clip-path="url(#p4a2d099227)" style="fill: #636363"/>
   </g>
   <g id="patch_15">
    <path d="M 232.692022 364.014545 
L 246.495362 364.014545 
L 246.495362 350.984361 
L 232.692022 350.984361 
z
" clip-path="url(#p4a2d099227)" style="fill: #636363"/>
   </g>
   <g id="patch_16">
    <path d="M 284.454545 364.014545 
L 298.257885 364.014545 
L 298.257885 356.574471 
L 284.454545 356.574471 
z
" clip-path="url(#p4a2d099227)" style="fill: #636363"/>
   </g>
   <g id="patch_17">
    <path d="M 336.217069 364.014545 
L 350.020408 364.014545 
L 350.020408 357.17772 
L 336.217069 357.17772 
z
" clip-path="url(#p4a2d099227)" style="fill: #636363"/>
   </g>
   <g id="patch_18">
    <path d="M 387.979592 364.014545 
L 401.782931 364.014545 
L 401.782931 355.408189 
L 387.979592 355.408189 
z
" clip-path="url(#p4a2d099227)" style="fill: #636363"/>
   </g>
   <g id="patch_19">
    <path d="M 439.742115 364.014545 
L 453.545455 364.014545 
L 453.545455 356.775554 
L 439.742115 356.775554 
z
" clip-path="url(#p4a2d099227)" style="fill: #636363"/>
   </g>
   <g id="patch_20">
    <path d="M 491.504638 364.014545 
L 505.307978 364.014545 
L 505.307978 359.309201 
L 491.504638 359.309201 
z
" clip-path="url(#p4a2d099227)" style="fill: #636363"/>
   </g>
   <g id="patch_21">
    <path d="M 543.267161 364.014545 
L 557.070501 364.014545 
L 557.070501 357.861403 
L 543.267161 357.861403 
z
" clip-path="url(#p4a2d099227)" style="fill: #636363"/>
   </g>
   <g id="patch_22">
    <path d="M 595.029685 364.014545 
L 608.833024 364.014545 
L 608.833024 355.488622 
L 595.029685 355.488622 
z
" clip-path="url(#p4a2d099227)" style="fill: #636363"/>
   </g>
   <g id="patch_23">
    <path d="M 142.970315 364.014545 
L 156.773655 364.014545 
L 156.773655 63.837699 
L 142.970315 63.837699 
z
" clip-path="url(#p4a2d099227)" style="fill: #bdbdbd"/>
   </g>
   <g id="patch_24">
    <path d="M 194.732839 364.014545 
L 208.536178 364.014545 
L 208.536178 60.901886 
L 194.732839 60.901886 
z
" clip-path="url(#p4a2d099227)" style="fill: #bdbdbd"/>
   </g>
   <g id="patch_25">
    <path d="M 246.495362 364.014545 
L 260.298701 364.014545 
L 260.298701 57.885639 
L 246.495362 57.885639 
z
" clip-path="url(#p4a2d099227)" style="fill: #bdbdbd"/>
   </g>
   <g id="patch_26">
    <path d="M 298.257885 364.014545 
L 312.061224 364.014545 
L 312.061224 55.512859 
L 298.257885 55.512859 
z
" clip-path="url(#p4a2d099227)" style="fill: #bdbdbd"/>
   </g>
   <g id="patch_27">
    <path d="M 350.020408 364.014545 
L 363.823748 364.014545 
L 363.823748 54.54766 
L 350.020408 54.54766 
z
" clip-path="url(#p4a2d099227)" style="fill: #bdbdbd"/>
   </g>
   <g id="patch_28">
    <path d="M 401.782931 364.014545 
L 415.586271 364.014545 
L 415.586271 53.984627 
L 401.782931 53.984627 
z
" clip-path="url(#p4a2d099227)" style="fill: #bdbdbd"/>
   </g>
   <g id="patch_29">
    <path d="M 453.545455 364.014545 
L 467.348794 364.014545 
L 467.348794 50.365131 
L 453.545455 50.365131 
z
" clip-path="url(#p4a2d099227)" style="fill: #bdbdbd"/>
   </g>
   <g id="patch_30">
    <path d="M 505.307978 364.014545 
L 519.111317 364.014545 
L 519.111317 47.067369 
L 505.307978 47.067369 
z
" clip-path="url(#p4a2d099227)" style="fill: #bdbdbd"/>
   </g>
   <g id="patch_31">
    <path d="M 557.070501 364.014545 
L 570.87384 364.014545 
L 570.87384 45.700004 
L 557.070501 45.700004 
z
" clip-path="url(#p4a2d099227)" style="fill: #bdbdbd"/>
   </g>
   <g id="patch_32">
    <path d="M 608.833024 364.014545 
L 622.636364 364.014545 
L 622.636364 43.970689 
L 608.833024 43.970689 
z
" clip-path="url(#p4a2d099227)" style="fill: #bdbdbd"/>
   </g>
   <g id="matplotlib.axis_1"/>
   <g id="matplotlib.axis_2">
    <g id="ytick_1">
     <g id="line2d_1">
      <defs>
       <path id="m58f7a34155" d="M 0 0 
L -3.5 0 
" style="stroke: #000000; stroke-width: 0.8"/>
      </defs>
      <g>
       <use xlink:href="#m58f7a34155" x="90" y="100.450909" style="stroke: #000000; stroke-width: 0.8"/>
      </g>
     </g>
     <g id="text_1">
      <!-- 80 -->
      <g transform="translate(70.275 104.250128)scale(0.1 -0.1)">
       <defs>
        <path id="DejaVuSans-38" d="M 2034 2216 
Q 1584 2216 1326 1975 
Q 1069 1734 1069 1313 
Q 1069 891 1326 650 
Q 1584 409 2034 409 
Q 2484 409 2743 651 
Q 3003 894 3003 1313 
Q 3003 1734 2745 1975 
Q 2488 2216 2034 2216 
z
M 1403 2484 
Q 997 2584 770 2862 
Q 544 3141 544 3541 
Q 544 4100 942 4425 
Q 1341 4750 2034 4750 
Q 2731 4750 3128 4425 
Q 3525 4100 3525 3541 
Q 3525 3141 3298 2862 
Q 3072 2584 2669 2484 
Q 3125 2378 3379 2068 
Q 3634 1759 3634 1313 
Q 3634 634 3220 271 
Q 2806 -91 2034 -91 
Q 1263 -91 848 271 
Q 434 634 434 1313 
Q 434 1759 690 2068 
Q 947 2378 1403 2484 
z
M 1172 3481 
Q 1172 3119 1398 2916 
Q 1625 2713 2034 2713 
Q 2441 2713 2670 2916 
Q 2900 3119 2900 3481 
Q 2900 3844 2670 4047 
Q 2441 4250 2034 4250 
Q 1625 4250 1398 4047 
Q 1172 3844 1172 3481 
z
" transform="scale(0.015625)"/>
        <path id="DejaVuSans-30" d="M 2034 4250 
Q 1547 4250 1301 3770 
Q 1056 3291 1056 2328 
Q 1056 1369 1301 889 
Q 1547 409 2034 409 
Q 2525 409 2770 889 
Q 3016 1369 3016 2328 
Q 3016 3291 2770 3770 
Q 2525 4250 2034 4250 
z
M 2034 4750 
Q 2819 4750 3233 4129 
Q 3647 3509 3647 2328 
Q 3647 1150 3233 529 
Q 2819 -91 2034 -91 
Q 1250 -91 836 529 
Q 422 1150 422 2328 
Q 422 3509 836 4129 
Q 1250 4750 2034 4750 
z
" transform="scale(0.015625)"/>
       </defs>
       <use xlink:href="#DejaVuSans-38"/>
       <use xlink:href="#DejaVuSans-30" x="63.623047"/>
      </g>
     </g>
    </g>
    <g id="ytick_2">
     <g id="line2d_2">
      <g>
       <use xlink:href="#m58f7a34155" x="90" y="67.505455" style="stroke: #000000; stroke-width: 0.8"/>
      </g>
     </g>
     <g id="text_2">
      <!-- 90 -->
      <g transform="translate(70.275 71.304673)scale(0.1 -0.1)">
       <defs>
        <path id="DejaVuSans-39" d="M 703 97 
L 703 672 
Q 941 559 1184 500 
Q 1428 441 1663 441 
Q 2288 441 2617 861 
Q 2947 1281 2994 2138 
Q 2813 1869 2534 1725 
Q 2256 1581 1919 1581 
Q 1219 1581 811 2004 
Q 403 2428 403 3163 
Q 403 3881 828 4315 
Q 1253 4750 1959 4750 
Q 2769 4750 3195 4129 
Q 3622 3509 3622 2328 
Q 3622 1225 3098 567 
Q 2575 -91 1691 -91 
Q 1453 -91 1209 -44 
Q 966 3 703 97 
z
M 1959 2075 
Q 2384 2075 2632 2365 
Q 2881 2656 2881 3163 
Q 2881 3666 2632 3958 
Q 2384 4250 1959 4250 
Q 1534 4250 1286 3958 
Q 1038 3666 1038 3163 
Q 1038 2656 1286 2365 
Q 1534 2075 1959 2075 
z
" transform="scale(0.015625)"/>
       </defs>
       <use xlink:href="#DejaVuSans-39"/>
       <use xlink:href="#DejaVuSans-30" x="63.623047"/>
      </g>
     </g>
    </g>
    <g id="ytick_3">
     <g id="line2d_3">
      <g>
       <use xlink:href="#m58f7a34155" x="90" y="34.56" style="stroke: #000000; stroke-width: 0.8"/>
      </g>
     </g>
     <g id="text_3">
      <!-- 100 -->
      <g transform="translate(63.9125 38.359219)scale(0.1 -0.1)">
       <defs>
        <path id="DejaVuSans-31" d="M 794 531 
L 1825 531 
L 1825 4091 
L 703 3866 
L 703 4441 
L 1819 4666 
L 2450 4666 
L 2450 531 
L 3481 531 
L 3481 0 
L 794 0 
L 794 531 
z
" transform="scale(0.015625)"/>
       </defs>
       <use xlink:href="#DejaVuSans-31"/>
       <use xlink:href="#DejaVuSans-30" x="63.623047"/>
       <use xlink:href="#DejaVuSans-30" x="127.246094"/>
      </g>
     </g>
    </g>
   </g>
   <g id="line2d_4">
    <path clip-path="url(#p4a2d099227)" style="fill: none; stroke: #424242; stroke-width: 2.7; stroke-linecap: square"/>
   </g>
   <g id="line2d_5">
    <path clip-path="url(#p4a2d099227)" style="fill: none; stroke: #424242; stroke-width: 2.7; stroke-linecap: square"/>
   </g>
   <g id="line2d_6">
    <path clip-path="url(#p4a2d099227)" style="fill: none; stroke: #424242; stroke-width: 2.7; stroke-linecap: square"/>
   </g>
   <g id="line2d_7">
    <path clip-path="url(#p4a2d099227)" style="fill: none; stroke: #424242; stroke-width: 2.7; stroke-linecap: square"/>
   </g>
   <g id="line2d_8">
    <path clip-path="url(#p4a2d099227)" style="fill: none; stroke: #424242; stroke-width: 2.7; stroke-linecap: square"/>
   </g>
   <g id="line2d_9">
    <path clip-path="url(#p4a2d099227)" style="fill: none; stroke: #424242; stroke-width: 2.7; stroke-linecap: square"/>
   </g>
   <g id="line2d_10">
    <path clip-path="url(#p4a2d099227)" style="fill: none; stroke: #424242; stroke-width: 2.7; stroke-linecap: square"/>
   </g>
   <g id="line2d_11">
    <path clip-path="url(#p4a2d099227)" style="fill: none; stroke: #424242; stroke-width: 2.7; stroke-linecap: square"/>
   </g>
   <g id="line2d_12">
    <path clip-path="url(#p4a2d099227)" style="fill: none; stroke: #424242; stroke-width: 2.7; stroke-linecap: square"/>
   </g>
   <g id="line2d_13">
    <path clip-path="url(#p4a2d099227)" style="fill: none; stroke: #424242; stroke-width: 2.7; stroke-linecap: square"/>
   </g>
   <g id="line2d_14">
    <path clip-path="url(#p4a2d099227)" style="fill: none; stroke: #424242; stroke-width: 2.7; stroke-linecap: square"/>
   </g>
   <g id="line2d_15">
    <path clip-path="url(#p4a2d099227)" style="fill: none; stroke: #424242; stroke-width: 2.7; stroke-linecap: square"/>
   </g>
   <g id="line2d_16">
    <path clip-path="url(#p4a2d099227)" style="fill: none; stroke: #424242; stroke-width: 2.7; stroke-linecap: square"/>
   </g>
   <g id="line2d_17">
    <path clip-path="url(#p4a2d099227)" style="fill: none; stroke: #424242; stroke-width: 2.7; stroke-linecap: square"/>
   </g>
   <g id="line2d_18">
    <path clip-path="url(#p4a2d099227)" style="fill: none; stroke: #424242; stroke-width: 2.7; stroke-linecap: square"/>
   </g>
   <g id="line2d_19">
    <path clip-path="url(#p4a2d099227)" style="fill: none; stroke: #424242; stroke-width: 2.7; stroke-linecap: square"/>
   </g>
   <g id="line2d_20">
    <path clip-path="url(#p4a2d099227)" style="fill: none; stroke: #424242; stroke-width: 2.7; stroke-linecap: square"/>
   </g>
   <g id="line2d_21">
    <path clip-path="url(#p4a2d099227)" style="fill: none; stroke: #424242; stroke-width: 2.7; stroke-linecap: square"/>
   </g>
   <g id="line2d_22">
    <path clip-path="url(#p4a2d099227)" style="fill: none; stroke: #424242; stroke-width: 2.7; stroke-linecap: square"/>
   </g>
   <g id="line2d_23">
    <path clip-path="url(#p4a2d099227)" style="fill: none; stroke: #424242; stroke-width: 2.7; stroke-linecap: square"/>
   </g>
   <g id="line2d_24">
    <path clip-path="url(#p4a2d099227)" style="fill: none; stroke: #424242; stroke-width: 2.7; stroke-linecap: square"/>
   </g>
   <g id="line2d_25">
    <path clip-path="url(#p4a2d099227)" style="fill: none; stroke: #424242; stroke-width: 2.7; stroke-linecap: square"/>
   </g>
   <g id="line2d_26">
    <path clip-path="url(#p4a2d099227)" style="fill: none; stroke: #424242; stroke-width: 2.7; stroke-linecap: square"/>
   </g>
   <g id="line2d_27">
    <path clip-path="url(#p4a2d099227)" style="fill: none; stroke: #424242; stroke-width: 2.7; stroke-linecap: square"/>
   </g>
   <g id="line2d_28">
    <path clip-path="url(#p4a2d099227)" style="fill: none; stroke: #424242; stroke-width: 2.7; stroke-linecap: square"/>
   </g>
   <g id="line2d_29">
    <path clip-path="url(#p4a2d099227)" style="fill: none; stroke: #424242; stroke-width: 2.7; stroke-linecap: square"/>
   </g>
   <g id="line2d_30">
    <path clip-path="url(#p4a2d099227)" style="fill: none; stroke: #424242; stroke-width: 2.7; stroke-linecap: square"/>
   </g>
   <g id="line2d_31">
    <path clip-path="url(#p4a2d099227)" style="fill: none; stroke: #424242; stroke-width: 2.7; stroke-linecap: square"/>
   </g>
   <g id="line2d_32">
    <path clip-path="url(#p4a2d099227)" style="fill: none; stroke: #424242; stroke-width: 2.7; stroke-linecap: square"/>
   </g>
   <g id="line2d_33">
    <path clip-path="url(#p4a2d099227)" style="fill: none; stroke: #424242; stroke-width: 2.7; stroke-linecap: square"/>
   </g>
   <g id="line2d_34">
    <path d="M 84.42 101.109818 
L 95.58 99.792 
" style="fill: none; stroke: #000000; stroke-width: 1.5; stroke-linecap: square"/>
   </g>
   <g id="patch_33">
    <path d="M 90 100.450909 
L 90 34.56 
" style="fill: none; stroke: #000000; stroke-width: 0.8; stroke-linejoin: miter; stroke-linecap: square"/>
   </g>
  </g>
  <g id="axes_2">
   <g id="patch_34">
    <path d="M 90 252 
L 648 252 
L 648 120.218182 
L 90 120.218182 
z
" style="fill: #ffffff"/>
   </g>
   <g id="patch_35">
    <path d="M 115.363636 252 
L 129.166976 252 
L 129.166976 190.709872 
L 115.363636 190.709872 
z
" clip-path="url(#p6697ecc74d)"/>
   </g>
   <g id="patch_36">
    <path d="M 167.12616 252 
L 180.929499 252 
L 180.929499 244.439276 
L 167.12616 244.439276 
z
" clip-path="url(#p6697ecc74d)"/>
   </g>
   <g id="patch_37">
    <path d="M 218.888683 252 
L 232.692022 252 
L 232.692022 210.818182 
L 218.888683 210.818182 
z
" clip-path="url(#p6697ecc74d)"/>
   </g>
   <g id="patch_38">
    <path d="M 270.651206 252 
L 284.454545 252 
L 284.454545 197.948864 
L 270.651206 197.948864 
z
" clip-path="url(#p6697ecc74d)"/>
   </g>
   <g id="patch_39">
    <path d="M 322.413729 252 
L 336.217069 252 
L 336.217069 199.396662 
L 322.413729 199.396662 
z
" clip-path="url(#p6697ecc74d)"/>
   </g>
   <g id="patch_40">
    <path d="M 374.176252 252 
L 387.979592 252 
L 387.979592 208.726918 
L 374.176252 208.726918 
z
" clip-path="url(#p6697ecc74d)"/>
   </g>
   <g id="patch_41">
    <path d="M 425.938776 252 
L 439.742115 252 
L 439.742115 217.73544 
L 425.938776 217.73544 
z
" clip-path="url(#p6697ecc74d)"/>
   </g>
   <g id="patch_42">
    <path d="M 477.701299 252 
L 491.504638 252 
L 491.504638 220.791903 
L 477.701299 220.791903 
z
" clip-path="url(#p6697ecc74d)"/>
   </g>
   <g id="patch_43">
    <path d="M 529.463822 252 
L 543.267161 252 
L 543.267161 232.052557 
L 529.463822 232.052557 
z
" clip-path="url(#p6697ecc74d)"/>
   </g>
   <g id="patch_44">
    <path d="M 581.226345 252 
L 595.029685 252 
L 595.029685 248.460937 
L 581.226345 248.460937 
z
" clip-path="url(#p6697ecc74d)"/>
   </g>
   <g id="patch_45">
    <path d="M 129.166976 252 
L 142.970315 252 
L 142.970315 196.179332 
L 129.166976 196.179332 
z
" clip-path="url(#p6697ecc74d)" style="fill: #636363"/>
   </g>
   <g id="patch_46">
    <path d="M 180.929499 252 
L 194.732839 252 
L 194.732839 154.193182 
L 180.929499 154.193182 
z
" clip-path="url(#p6697ecc74d)" style="fill: #636363"/>
   </g>
   <g id="patch_47">
    <path d="M 232.692022 252 
L 246.495362 252 
L 246.495362 199.879261 
L 232.692022 199.879261 
z
" clip-path="url(#p6697ecc74d)" style="fill: #636363"/>
   </g>
   <g id="patch_48">
    <path d="M 284.454545 252 
L 298.257885 252 
L 298.257885 222.239702 
L 284.454545 222.239702 
z
" clip-path="url(#p6697ecc74d)" style="fill: #636363"/>
   </g>
   <g id="patch_49">
    <path d="M 336.217069 252 
L 350.020408 252 
L 350.020408 224.652699 
L 336.217069 224.652699 
z
" clip-path="url(#p6697ecc74d)" style="fill: #636363"/>
   </g>
   <g id="patch_50">
    <path d="M 387.979592 252 
L 401.782931 252 
L 401.782931 217.574574 
L 387.979592 217.574574 
z
" clip-path="url(#p6697ecc74d)" style="fill: #636363"/>
   </g>
   <g id="patch_51">
    <path d="M 439.742115 252 
L 453.545455 252 
L 453.545455 223.044034 
L 439.742115 223.044034 
z
" clip-path="url(#p6697ecc74d)" style="fill: #636363"/>
   </g>
   <g id="patch_52">
    <path d="M 491.504638 252 
L 505.307978 252 
L 505.307978 233.178622 
L 491.504638 233.178622 
z
" clip-path="url(#p6697ecc74d)" style="fill: #636363"/>
   </g>
   <g id="patch_53">
    <path d="M 543.267161 252 
L 557.070501 252 
L 557.070501 227.387429 
L 543.267161 227.387429 
z
" clip-path="url(#p6697ecc74d)" style="fill: #636363"/>
   </g>
   <g id="patch_54">
    <path d="M 595.029685 252 
L 608.833024 252 
L 608.833024 217.896307 
L 595.029685 217.896307 
z
" clip-path="url(#p6697ecc74d)" style="fill: #636363"/>
   </g>
   <g id="patch_55">
    <path d="M 142.970315 252 
L 156.773655 252 
L 156.773655 -948.707386 
L 142.970315 -948.707386 
z
" clip-path="url(#p6697ecc74d)" style="fill: #bdbdbd"/>
   </g>
   <g id="patch_56">
    <path d="M 194.732839 252 
L 208.536178 252 
L 208.536178 -960.450639 
L 194.732839 -960.450639 
z
" clip-path="url(#p6697ecc74d)" style="fill: #bdbdbd"/>
   </g>
   <g id="patch_57">
    <path d="M 246.495362 252 
L 260.298701 252 
L 260.298701 -972.515625 
L 246.495362 -972.515625 
z
" clip-path="url(#p6697ecc74d)" style="fill: #bdbdbd"/>
   </g>
   <g id="patch_58">
    <path d="M 298.257885 252 
L 312.061224 252 
L 312.061224 -982.006747 
L 298.257885 -982.006747 
z
" clip-path="url(#p6697ecc74d)" style="fill: #bdbdbd"/>
   </g>
   <g id="patch_59">
    <path d="M 350.020408 252 
L 363.823748 252 
L 363.823748 -985.867543 
L 350.020408 -985.867543 
z
" clip-path="url(#p6697ecc74d)" style="fill: #bdbdbd"/>
   </g>
   <g id="patch_60">
    <path d="M 401.782931 252 
L 415.586271 252 
L 415.586271 -988.119673 
L 401.782931 -988.119673 
z
" clip-path="url(#p6697ecc74d)" style="fill: #bdbdbd"/>
   </g>
   <g id="patch_61">
    <path d="M 453.545455 252 
L 467.348794 252 
L 467.348794 -1002.597656 
L 453.545455 -1002.597656 
z
" clip-path="url(#p6697ecc74d)" style="fill: #bdbdbd"/>
   </g>
   <g id="patch_62">
    <path d="M 505.307978 252 
L 519.111317 252 
L 519.111317 -1015.788707 
L 505.307978 -1015.788707 
z
" clip-path="url(#p6697ecc74d)" style="fill: #bdbdbd"/>
   </g>
   <g id="patch_63">
    <path d="M 557.070501 252 
L 570.87384 252 
L 570.87384 -1021.258168 
L 557.070501 -1021.258168 
z
" clip-path="url(#p6697ecc74d)" style="fill: #bdbdbd"/>
   </g>
   <g id="patch_64">
    <path d="M 608.833024 252 
L 622.636364 252 
L 622.636364 -1028.175426 
L 608.833024 -1028.175426 
z
" clip-path="url(#p6697ecc74d)" style="fill: #bdbdbd"/>
   </g>
   <g id="matplotlib.axis_3"/>
   <g id="matplotlib.axis_4">
    <g id="ytick_4">
     <g id="line2d_35">
      <g>
       <use xlink:href="#m58f7a34155" x="90" y="252" style="stroke: #000000; stroke-width: 0.8"/>
      </g>
     </g>
     <g id="text_4">
      <!-- 0 -->
      <g transform="translate(76.6375 255.799219)scale(0.1 -0.1)">
       <use xlink:href="#DejaVuSans-30"/>
      </g>
     </g>
    </g>
    <g id="ytick_5">
     <g id="line2d_36">
      <g>
       <use xlink:href="#m58f7a34155" x="90" y="225.643636" style="stroke: #000000; stroke-width: 0.8"/>
      </g>
     </g>
     <g id="text_5">
      <!-- 2 -->
      <g transform="translate(76.6375 229.442855)scale(0.1 -0.1)">
       <defs>
        <path id="DejaVuSans-32" d="M 1228 531 
L 3431 531 
L 3431 0 
L 469 0 
L 469 531 
Q 828 903 1448 1529 
Q 2069 2156 2228 2338 
Q 2531 2678 2651 2914 
Q 2772 3150 2772 3378 
Q 2772 3750 2511 3984 
Q 2250 4219 1831 4219 
Q 1534 4219 1204 4116 
Q 875 4013 500 3803 
L 500 4441 
Q 881 4594 1212 4672 
Q 1544 4750 1819 4750 
Q 2544 4750 2975 4387 
Q 3406 4025 3406 3419 
Q 3406 3131 3298 2873 
Q 3191 2616 2906 2266 
Q 2828 2175 2409 1742 
Q 1991 1309 1228 531 
z
" transform="scale(0.015625)"/>
       </defs>
       <use xlink:href="#DejaVuSans-32"/>
      </g>
     </g>
    </g>
    <g id="ytick_6">
     <g id="line2d_37">
      <g>
       <use xlink:href="#m58f7a34155" x="90" y="199.287273" style="stroke: #000000; stroke-width: 0.8"/>
      </g>
     </g>
     <g id="text_6">
      <!-- 4 -->
      <g transform="translate(76.6375 203.086491)scale(0.1 -0.1)">
       <defs>
        <path id="DejaVuSans-34" d="M 2419 4116 
L 825 1625 
L 2419 1625 
L 2419 4116 
z
M 2253 4666 
L 3047 4666 
L 3047 1625 
L 3713 1625 
L 3713 1100 
L 3047 1100 
L 3047 0 
L 2419 0 
L 2419 1100 
L 313 1100 
L 313 1709 
L 2253 4666 
z
" transform="scale(0.015625)"/>
       </defs>
       <use xlink:href="#DejaVuSans-34"/>
      </g>
     </g>
    </g>
    <g id="ytick_7">
     <g id="line2d_38">
      <g>
       <use xlink:href="#m58f7a34155" x="90" y="172.930909" style="stroke: #000000; stroke-width: 0.8"/>
      </g>
     </g>
     <g id="text_7">
      <!-- 6 -->
      <g transform="translate(76.6375 176.730128)scale(0.1 -0.1)">
       <defs>
        <path id="DejaVuSans-36" d="M 2113 2584 
Q 1688 2584 1439 2293 
Q 1191 2003 1191 1497 
Q 1191 994 1439 701 
Q 1688 409 2113 409 
Q 2538 409 2786 701 
Q 3034 994 3034 1497 
Q 3034 2003 2786 2293 
Q 2538 2584 2113 2584 
z
M 3366 4563 
L 3366 3988 
Q 3128 4100 2886 4159 
Q 2644 4219 2406 4219 
Q 1781 4219 1451 3797 
Q 1122 3375 1075 2522 
Q 1259 2794 1537 2939 
Q 1816 3084 2150 3084 
Q 2853 3084 3261 2657 
Q 3669 2231 3669 1497 
Q 3669 778 3244 343 
Q 2819 -91 2113 -91 
Q 1303 -91 875 529 
Q 447 1150 447 2328 
Q 447 3434 972 4092 
Q 1497 4750 2381 4750 
Q 2619 4750 2861 4703 
Q 3103 4656 3366 4563 
z
" transform="scale(0.015625)"/>
       </defs>
       <use xlink:href="#DejaVuSans-36"/>
      </g>
     </g>
    </g>
    <g id="ytick_8">
     <g id="line2d_39">
      <g>
       <use xlink:href="#m58f7a34155" x="90" y="146.574545" style="stroke: #000000; stroke-width: 0.8"/>
      </g>
     </g>
     <g id="text_8">
      <!-- 8 -->
      <g transform="translate(76.6375 150.373764)scale(0.1 -0.1)">
       <use xlink:href="#DejaVuSans-38"/>
      </g>
     </g>
    </g>
    <g id="ytick_9">
     <g id="line2d_40">
      <g>
       <use xlink:href="#m58f7a34155" x="90" y="120.218182" style="stroke: #000000; stroke-width: 0.8"/>
      </g>
     </g>
     <g id="text_9">
      <!-- 10 -->
      <g transform="translate(70.275 124.017401)scale(0.1 -0.1)">
       <use xlink:href="#DejaVuSans-31"/>
       <use xlink:href="#DejaVuSans-30" x="63.623047"/>
      </g>
     </g>
    </g>
   </g>
   <g id="line2d_41">
    <path clip-path="url(#p6697ecc74d)" style="fill: none; stroke: #424242; stroke-width: 2.7; stroke-linecap: square"/>
   </g>
   <g id="line2d_42">
    <path clip-path="url(#p6697ecc74d)" style="fill: none; stroke: #424242; stroke-width: 2.7; stroke-linecap: square"/>
   </g>
   <g id="line2d_43">
    <path clip-path="url(#p6697ecc74d)" style="fill: none; stroke: #424242; stroke-width: 2.7; stroke-linecap: square"/>
   </g>
   <g id="line2d_44">
    <path clip-path="url(#p6697ecc74d)" style="fill: none; stroke: #424242; stroke-width: 2.7; stroke-linecap: square"/>
   </g>
   <g id="line2d_45">
    <path clip-path="url(#p6697ecc74d)" style="fill: none; stroke: #424242; stroke-width: 2.7; stroke-linecap: square"/>
   </g>
   <g id="line2d_46">
    <path clip-path="url(#p6697ecc74d)" style="fill: none; stroke: #424242; stroke-width: 2.7; stroke-linecap: square"/>
   </g>
   <g id="line2d_47">
    <path clip-path="url(#p6697ecc74d)" style="fill: none; stroke: #424242; stroke-width: 2.7; stroke-linecap: square"/>
   </g>
   <g id="line2d_48">
    <path clip-path="url(#p6697ecc74d)" style="fill: none; stroke: #424242; stroke-width: 2.7; stroke-linecap: square"/>
   </g>
   <g id="line2d_49">
    <path clip-path="url(#p6697ecc74d)" style="fill: none; stroke: #424242; stroke-width: 2.7; stroke-linecap: square"/>
   </g>
   <g id="line2d_50">
    <path clip-path="url(#p6697ecc74d)" style="fill: none; stroke: #424242; stroke-width: 2.7; stroke-linecap: square"/>
   </g>
   <g id="line2d_51">
    <path clip-path="url(#p6697ecc74d)" style="fill: none; stroke: #424242; stroke-width: 2.7; stroke-linecap: square"/>
   </g>
   <g id="line2d_52">
    <path clip-path="url(#p6697ecc74d)" style="fill: none; stroke: #424242; stroke-width: 2.7; stroke-linecap: square"/>
   </g>
   <g id="line2d_53">
    <path clip-path="url(#p6697ecc74d)" style="fill: none; stroke: #424242; stroke-width: 2.7; stroke-linecap: square"/>
   </g>
   <g id="line2d_54">
    <path clip-path="url(#p6697ecc74d)" style="fill: none; stroke: #424242; stroke-width: 2.7; stroke-linecap: square"/>
   </g>
   <g id="line2d_55">
    <path clip-path="url(#p6697ecc74d)" style="fill: none; stroke: #424242; stroke-width: 2.7; stroke-linecap: square"/>
   </g>
   <g id="line2d_56">
    <path clip-path="url(#p6697ecc74d)" style="fill: none; stroke: #424242; stroke-width: 2.7; stroke-linecap: square"/>
   </g>
   <g id="line2d_57">
    <path clip-path="url(#p6697ecc74d)" style="fill: none; stroke: #424242; stroke-width: 2.7; stroke-linecap: square"/>
   </g>
   <g id="line2d_58">
    <path clip-path="url(#p6697ecc74d)" style="fill: none; stroke: #424242; stroke-width: 2.7; stroke-linecap: square"/>
   </g>
   <g id="line2d_59">
    <path clip-path="url(#p6697ecc74d)" style="fill: none; stroke: #424242; stroke-width: 2.7; stroke-linecap: square"/>
   </g>
   <g id="line2d_60">
    <path clip-path="url(#p6697ecc74d)" style="fill: none; stroke: #424242; stroke-width: 2.7; stroke-linecap: square"/>
   </g>
   <g id="line2d_61">
    <path clip-path="url(#p6697ecc74d)" style="fill: none; stroke: #424242; stroke-width: 2.7; stroke-linecap: square"/>
   </g>
   <g id="line2d_62">
    <path clip-path="url(#p6697ecc74d)" style="fill: none; stroke: #424242; stroke-width: 2.7; stroke-linecap: square"/>
   </g>
   <g id="line2d_63">
    <path clip-path="url(#p6697ecc74d)" style="fill: none; stroke: #424242; stroke-width: 2.7; stroke-linecap: square"/>
   </g>
   <g id="line2d_64">
    <path clip-path="url(#p6697ecc74d)" style="fill: none; stroke: #424242; stroke-width: 2.7; stroke-linecap: square"/>
   </g>
   <g id="line2d_65">
    <path clip-path="url(#p6697ecc74d)" style="fill: none; stroke: #424242; stroke-width: 2.7; stroke-linecap: square"/>
   </g>
   <g id="line2d_66">
    <path clip-path="url(#p6697ecc74d)" style="fill: none; stroke: #424242; stroke-width: 2.7; stroke-linecap: square"/>
   </g>
   <g id="line2d_67">
    <path clip-path="url(#p6697ecc74d)" style="fill: none; stroke: #424242; stroke-width: 2.7; stroke-linecap: square"/>
   </g>
   <g id="line2d_68">
    <path clip-path="url(#p6697ecc74d)" style="fill: none; stroke: #424242; stroke-width: 2.7; stroke-linecap: square"/>
   </g>
   <g id="line2d_69">
    <path clip-path="url(#p6697ecc74d)" style="fill: none; stroke: #424242; stroke-width: 2.7; stroke-linecap: square"/>
   </g>
   <g id="line2d_70">
    <path clip-path="url(#p6697ecc74d)" style="fill: none; stroke: #424242; stroke-width: 2.7; stroke-linecap: square"/>
   </g>
   <g id="line2d_71">
    <path d="M 84.42 121.536 
L 95.58 118.900364 
" style="fill: none; stroke: #000000; stroke-width: 1.5; stroke-linecap: square"/>
   </g>
   <g id="patch_65">
    <path d="M 90 252 
L 90 120.218182 
" style="fill: none; stroke: #000000; stroke-width: 0.8; stroke-linejoin: miter; stroke-linecap: square"/>
   </g>
   <g id="patch_66">
    <path d="M 90 252 
L 648 252 
" style="fill: none; stroke: #000000; stroke-width: 0.8; stroke-linejoin: miter; stroke-linecap: square"/>
   </g>
  </g>
 </g>
 <defs>
  <clipPath id="p4a2d099227">
   <rect x="90" y="34.56" width="558" height="65.890909"/>
  </clipPath>
  <clipPath id="p6697ecc74d">
   <rect x="90" y="120.218182" width="558" height="131.781818"/>
  </clipPath>
 </defs>
</svg>
