<?xml version="1.0" encoding="utf-8" standalone="no"?>
<!DOCTYPE svg PUBLIC "-//W3C//DTD SVG 1.1//EN"
  "http://www.w3.org/Graphics/SVG/1.1/DTD/svg11.dtd">
<svg xmlns:xlink="http://www.w3.org/1999/xlink" width="360pt" height="360pt" viewBox="0 0 360 360" xmlns="http://www.w3.org/2000/svg" version="1.1">
 <metadata>
  <rdf:RDF xmlns:dc="http://purl.org/dc/elements/1.1/" xmlns:cc="http://creativecommons.org/ns#" xmlns:rdf="http://www.w3.org/1999/02/22-rdf-syntax-ns#">
   <cc:Work>
    <dc:type rdf:resource="http://purl.org/dc/dcmitype/StillImage"/>
    <dc:date>2022-12-14T16:57:02.826352</dc:date>
    <dc:format>image/svg+xml</dc:format>
    <dc:creator>
     <cc:Agent>
      <dc:title>Matplotlib v3.5.1, https://matplotlib.org/</dc:title>
     </cc:Agent>
    </dc:creator>
   </cc:Work>
  </rdf:RDF>
 </metadata>
 <defs>
  <style type="text/css">*{stroke-linejoin: round; stroke-linecap: butt}</style>
 </defs>
 <g id="figure_1">
  <g id="patch_1">
   <path d="M 0 360 
L 360 360 
L 360 0 
L 0 0 
L 0 360 
z
" style="fill: none"/>
  </g>
  <g id="axes_1">
   <g id="patch_2">
    <path d="M 45 315 
L 324 315 
L 324 43.2 
L 45 43.2 
z
" style="fill: #ffffff"/>
   </g>
   <g id="PathCollection_1">
    <defs>
     <path id="med77f8ce8b" d="M 0 3 
C 0.795609 3 1.55874 2.683901 2.12132 2.12132 
C 2.683901 1.55874 3 0.795609 3 0 
C 3 -0.795609 2.683901 -1.55874 2.12132 -2.12132 
C 1.55874 -2.683901 0.795609 -3 0 -3 
C -0.795609 -3 -1.55874 -2.683901 -2.12132 -2.12132 
C -2.683901 -1.55874 -3 -0.795609 -3 0 
C -3 0.795609 -2.683901 1.55874 -2.12132 2.12132 
C -1.55874 2.683901 -0.795609 3 0 3 
z
" style="stroke: #000000; stroke-opacity: 0.8"/>
    </defs>
    <g clip-path="url(#pc50cf31868)">
     <use xlink:href="#med77f8ce8b" x="188.756457" y="183.998284" style="fill-opacity: 0.8; stroke: #000000; stroke-opacity: 0.8"/>
     <use xlink:href="#med77f8ce8b" x="58.761729" y="255.828062" style="fill-opacity: 0.8; stroke: #000000; stroke-opacity: 0.8"/>
     <use xlink:href="#med77f8ce8b" x="308.877816" y="81.581769" style="fill-opacity: 0.8; stroke: #000000; stroke-opacity: 0.8"/>
     <use xlink:href="#med77f8ce8b" x="169.995079" y="191.994479" style="fill-opacity: 0.8; stroke: #000000; stroke-opacity: 0.8"/>
     <use xlink:href="#med77f8ce8b" x="169.992838" y="193.589009" style="fill-opacity: 0.8; stroke: #000000; stroke-opacity: 0.8"/>
     <use xlink:href="#med77f8ce8b" x="168.24325" y="197.51887" style="fill-opacity: 0.8; stroke: #000000; stroke-opacity: 0.8"/>
     <use xlink:href="#med77f8ce8b" x="175.868718" y="197.145206" style="fill-opacity: 0.8; stroke: #000000; stroke-opacity: 0.8"/>
     <use xlink:href="#med77f8ce8b" x="177.014386" y="194.195157" style="fill-opacity: 0.8; stroke: #000000; stroke-opacity: 0.8"/>
     <use xlink:href="#med77f8ce8b" x="308.944049" y="80.009949" style="fill-opacity: 0.8; stroke: #000000; stroke-opacity: 0.8"/>
     <use xlink:href="#med77f8ce8b" x="58.761729" y="255.828062" style="fill-opacity: 0.8; stroke: #000000; stroke-opacity: 0.8"/>
     <use xlink:href="#med77f8ce8b" x="188.756457" y="183.998284" style="fill-opacity: 0.8; stroke: #000000; stroke-opacity: 0.8"/>
    </g>
   </g>
   <g id="PolyCollection_1">
    <path d="M 58.761729 255.754639 
L 58.761729 292.682487 
L 61.288823 290.53983 
L 63.815917 288.397174 
L 66.343012 286.254517 
L 68.870106 284.111861 
L 71.3972 281.969204 
L 73.924294 279.826548 
L 76.451388 277.683891 
L 78.978482 275.541235 
L 81.505576 273.398578 
L 84.032671 271.255831 
L 86.559765 269.113063 
L 89.086859 266.970296 
L 91.613953 264.834685 
L 94.141047 262.699268 
L 96.668141 260.56385 
L 99.195235 258.428433 
L 101.72233 256.293016 
L 104.249424 254.157598 
L 106.776518 252.022181 
L 109.303612 249.886764 
L 111.830706 247.751346 
L 114.3578 245.615929 
L 116.884894 243.480512 
L 119.411989 241.345094 
L 121.939083 239.221656 
L 124.466177 237.101204 
L 126.993271 234.980753 
L 129.520365 232.860301 
L 132.047459 230.73985 
L 134.574553 228.619398 
L 137.101648 226.498947 
L 139.628742 224.378495 
L 142.155836 222.258043 
L 144.68293 220.137592 
L 147.210024 218.01714 
L 149.737118 215.896689 
L 152.264212 213.758296 
L 154.791307 211.616967 
L 157.318401 209.475638 
L 159.845495 207.334309 
L 162.372589 205.192296 
L 164.899683 203.050207 
L 167.426777 200.908118 
L 169.953871 198.766029 
L 172.480966 196.66894 
L 175.00806 194.798974 
L 177.535154 192.886028 
L 180.062248 191.185246 
L 182.589342 189.769764 
L 185.116436 188.158472 
L 187.64353 186.797706 
L 190.170625 185.440838 
L 192.697719 184.084978 
L 195.224813 182.729117 
L 197.751907 181.373256 
L 200.279001 180.019398 
L 202.806095 178.667936 
L 205.333189 177.316474 
L 207.860284 175.965011 
L 210.387378 174.613549 
L 212.914472 173.262086 
L 215.441566 171.910624 
L 217.96866 170.559161 
L 220.495754 169.207699 
L 223.022848 167.856236 
L 225.549943 166.536286 
L 228.077037 165.267516 
L 230.604131 163.917014 
L 233.131225 162.564524 
L 235.658319 161.211094 
L 238.185413 159.857663 
L 240.712507 158.504233 
L 243.239602 157.150803 
L 245.766696 155.797373 
L 248.29379 154.443943 
L 250.820884 153.090512 
L 253.347978 151.737082 
L 255.875072 150.383652 
L 258.402166 149.030222 
L 260.929261 147.676792 
L 263.456355 146.323361 
L 265.983449 144.969931 
L 268.510543 143.616501 
L 271.037637 142.263071 
L 273.564731 140.909641 
L 276.091825 139.55621 
L 278.61892 138.20278 
L 281.146014 136.84935 
L 283.673108 135.49592 
L 286.200202 134.14249 
L 288.727296 132.789059 
L 291.25439 131.435629 
L 293.781484 130.082199 
L 296.308579 128.728769 
L 298.835673 127.375338 
L 301.362767 126.021908 
L 303.889861 124.668461 
L 306.416955 123.315011 
L 308.944049 121.961562 
L 308.944049 80.926157 
L 308.944049 80.926157 
L 306.416955 83.038344 
L 303.889861 85.168147 
L 301.362767 87.289273 
L 298.835673 89.409557 
L 296.308579 91.526909 
L 293.781484 93.638281 
L 291.25439 95.763112 
L 288.727296 97.844561 
L 286.200202 99.998633 
L 283.673108 102.05539 
L 281.146014 104.205399 
L 278.61892 106.312377 
L 276.091825 108.33802 
L 273.564731 110.391108 
L 271.037637 112.394972 
L 268.510543 114.39897 
L 265.983449 116.240185 
L 263.456355 118.142484 
L 260.929261 120.046621 
L 258.402166 121.863722 
L 255.875072 123.769807 
L 253.347978 125.623701 
L 250.820884 127.464151 
L 248.29379 129.2653 
L 245.766696 131.100332 
L 243.239602 132.934582 
L 240.712507 134.700802 
L 238.185413 136.503048 
L 235.658319 138.317402 
L 233.131225 140.107338 
L 230.604131 141.89691 
L 228.077037 143.685308 
L 225.549943 145.457361 
L 223.022848 147.201079 
L 220.495754 148.945139 
L 217.96866 150.715795 
L 215.441566 152.559491 
L 212.914472 154.403187 
L 210.387378 156.206691 
L 207.860284 157.996026 
L 205.333189 159.785781 
L 202.806095 161.57643 
L 200.279001 163.339744 
L 197.751907 165.05697 
L 195.224813 166.815855 
L 192.697719 168.643449 
L 190.170625 170.425917 
L 187.64353 172.1725 
L 185.116436 173.919082 
L 182.589342 175.665665 
L 180.062248 177.422012 
L 177.535154 179.200196 
L 175.00806 180.99786 
L 172.480966 182.797239 
L 169.953871 184.591428 
L 167.426777 186.367676 
L 164.899683 188.121732 
L 162.372589 189.879219 
L 159.845495 191.673267 
L 157.318401 193.467316 
L 154.791307 195.261364 
L 152.264212 197.011438 
L 149.737118 198.724545 
L 147.210024 200.479878 
L 144.68293 202.188147 
L 142.155836 203.89738 
L 139.628742 205.605575 
L 137.101648 207.31377 
L 134.574553 209.021964 
L 132.047459 210.772113 
L 129.520365 212.570915 
L 126.993271 214.36963 
L 124.466177 216.071197 
L 121.939083 217.782133 
L 119.411989 219.494221 
L 116.884894 221.207827 
L 114.3578 222.959526 
L 111.830706 224.665966 
L 109.303612 226.385611 
L 106.776518 228.166228 
L 104.249424 229.936492 
L 101.72233 231.639792 
L 99.195235 233.318716 
L 96.668141 234.885909 
L 94.141047 236.35308 
L 91.613953 237.79061 
L 89.086859 239.189126 
L 86.559765 240.60177 
L 84.032671 241.989908 
L 81.505576 243.376346 
L 78.978482 244.75844 
L 76.451388 246.141327 
L 73.924294 247.520817 
L 71.3972 248.906848 
L 68.870106 250.251821 
L 66.343012 251.63225 
L 63.815917 253.001633 
L 61.288823 254.375881 
L 58.761729 255.754639 
z
" clip-path="url(#pc50cf31868)" style="fill-opacity: 0.15"/>
   </g>
   <g id="matplotlib.axis_1">
    <g id="xtick_1">
     <g id="line2d_1">
      <defs>
       <path id="md873c37a6f" d="M 0 0 
L 0 3.5 
" style="stroke: #000000; stroke-width: 0.8"/>
      </defs>
      <g>
       <use xlink:href="#md873c37a6f" x="62.4375" y="315" style="stroke: #000000; stroke-width: 0.8"/>
      </g>
     </g>
     <g id="text_1">
      <!-- −0.6 -->
      <g transform="translate(50.296094 329.598437)scale(0.1 -0.1)">
       <defs>
        <path id="DejaVuSans-2212" d="M 678 2272 
L 4684 2272 
L 4684 1741 
L 678 1741 
L 678 2272 
z
" transform="scale(0.015625)"/>
        <path id="DejaVuSans-30" d="M 2034 4250 
Q 1547 4250 1301 3770 
Q 1056 3291 1056 2328 
Q 1056 1369 1301 889 
Q 1547 409 2034 409 
Q 2525 409 2770 889 
Q 3016 1369 3016 2328 
Q 3016 3291 2770 3770 
Q 2525 4250 2034 4250 
z
M 2034 4750 
Q 2819 4750 3233 4129 
Q 3647 3509 3647 2328 
Q 3647 1150 3233 529 
Q 2819 -91 2034 -91 
Q 1250 -91 836 529 
Q 422 1150 422 2328 
Q 422 3509 836 4129 
Q 1250 4750 2034 4750 
z
" transform="scale(0.015625)"/>
        <path id="DejaVuSans-2e" d="M 684 794 
L 1344 794 
L 1344 0 
L 684 0 
L 684 794 
z
" transform="scale(0.015625)"/>
        <path id="DejaVuSans-36" d="M 2113 2584 
Q 1688 2584 1439 2293 
Q 1191 2003 1191 1497 
Q 1191 994 1439 701 
Q 1688 409 2113 409 
Q 2538 409 2786 701 
Q 3034 994 3034 1497 
Q 3034 2003 2786 2293 
Q 2538 2584 2113 2584 
z
M 3366 4563 
L 3366 3988 
Q 3128 4100 2886 4159 
Q 2644 4219 2406 4219 
Q 1781 4219 1451 3797 
Q 1122 3375 1075 2522 
Q 1259 2794 1537 2939 
Q 1816 3084 2150 3084 
Q 2853 3084 3261 2657 
Q 3669 2231 3669 1497 
Q 3669 778 3244 343 
Q 2819 -91 2113 -91 
Q 1303 -91 875 529 
Q 447 1150 447 2328 
Q 447 3434 972 4092 
Q 1497 4750 2381 4750 
Q 2619 4750 2861 4703 
Q 3103 4656 3366 4563 
z
" transform="scale(0.015625)"/>
       </defs>
       <use xlink:href="#DejaVuSans-2212"/>
       <use xlink:href="#DejaVuSans-30" x="83.789062"/>
       <use xlink:href="#DejaVuSans-2e" x="147.412109"/>
       <use xlink:href="#DejaVuSans-36" x="179.199219"/>
      </g>
     </g>
    </g>
    <g id="xtick_2">
     <g id="line2d_2">
      <g>
       <use xlink:href="#md873c37a6f" x="97.3125" y="315" style="stroke: #000000; stroke-width: 0.8"/>
      </g>
     </g>
     <g id="text_2">
      <!-- −0.4 -->
      <g transform="translate(85.171094 329.598437)scale(0.1 -0.1)">
       <defs>
        <path id="DejaVuSans-34" d="M 2419 4116 
L 825 1625 
L 2419 1625 
L 2419 4116 
z
M 2253 4666 
L 3047 4666 
L 3047 1625 
L 3713 1625 
L 3713 1100 
L 3047 1100 
L 3047 0 
L 2419 0 
L 2419 1100 
L 313 1100 
L 313 1709 
L 2253 4666 
z
" transform="scale(0.015625)"/>
       </defs>
       <use xlink:href="#DejaVuSans-2212"/>
       <use xlink:href="#DejaVuSans-30" x="83.789062"/>
       <use xlink:href="#DejaVuSans-2e" x="147.412109"/>
       <use xlink:href="#DejaVuSans-34" x="179.199219"/>
      </g>
     </g>
    </g>
    <g id="xtick_3">
     <g id="line2d_3">
      <g>
       <use xlink:href="#md873c37a6f" x="132.1875" y="315" style="stroke: #000000; stroke-width: 0.8"/>
      </g>
     </g>
     <g id="text_3">
      <!-- −0.2 -->
      <g transform="translate(120.046094 329.598437)scale(0.1 -0.1)">
       <defs>
        <path id="DejaVuSans-32" d="M 1228 531 
L 3431 531 
L 3431 0 
L 469 0 
L 469 531 
Q 828 903 1448 1529 
Q 2069 2156 2228 2338 
Q 2531 2678 2651 2914 
Q 2772 3150 2772 3378 
Q 2772 3750 2511 3984 
Q 2250 4219 1831 4219 
Q 1534 4219 1204 4116 
Q 875 4013 500 3803 
L 500 4441 
Q 881 4594 1212 4672 
Q 1544 4750 1819 4750 
Q 2544 4750 2975 4387 
Q 3406 4025 3406 3419 
Q 3406 3131 3298 2873 
Q 3191 2616 2906 2266 
Q 2828 2175 2409 1742 
Q 1991 1309 1228 531 
z
" transform="scale(0.015625)"/>
       </defs>
       <use xlink:href="#DejaVuSans-2212"/>
       <use xlink:href="#DejaVuSans-30" x="83.789062"/>
       <use xlink:href="#DejaVuSans-2e" x="147.412109"/>
       <use xlink:href="#DejaVuSans-32" x="179.199219"/>
      </g>
     </g>
    </g>
    <g id="xtick_4">
     <g id="line2d_4">
      <g>
       <use xlink:href="#md873c37a6f" x="167.0625" y="315" style="stroke: #000000; stroke-width: 0.8"/>
      </g>
     </g>
     <g id="text_4">
      <!-- 0.0 -->
      <g transform="translate(159.110938 329.598437)scale(0.1 -0.1)">
       <use xlink:href="#DejaVuSans-30"/>
       <use xlink:href="#DejaVuSans-2e" x="63.623047"/>
       <use xlink:href="#DejaVuSans-30" x="95.410156"/>
      </g>
     </g>
    </g>
    <g id="xtick_5">
     <g id="line2d_5">
      <g>
       <use xlink:href="#md873c37a6f" x="201.9375" y="315" style="stroke: #000000; stroke-width: 0.8"/>
      </g>
     </g>
     <g id="text_5">
      <!-- 0.2 -->
      <g transform="translate(193.985938 329.598437)scale(0.1 -0.1)">
       <use xlink:href="#DejaVuSans-30"/>
       <use xlink:href="#DejaVuSans-2e" x="63.623047"/>
       <use xlink:href="#DejaVuSans-32" x="95.410156"/>
      </g>
     </g>
    </g>
    <g id="xtick_6">
     <g id="line2d_6">
      <g>
       <use xlink:href="#md873c37a6f" x="236.8125" y="315" style="stroke: #000000; stroke-width: 0.8"/>
      </g>
     </g>
     <g id="text_6">
      <!-- 0.4 -->
      <g transform="translate(228.860938 329.598437)scale(0.1 -0.1)">
       <use xlink:href="#DejaVuSans-30"/>
       <use xlink:href="#DejaVuSans-2e" x="63.623047"/>
       <use xlink:href="#DejaVuSans-34" x="95.410156"/>
      </g>
     </g>
    </g>
    <g id="xtick_7">
     <g id="line2d_7">
      <g>
       <use xlink:href="#md873c37a6f" x="271.6875" y="315" style="stroke: #000000; stroke-width: 0.8"/>
      </g>
     </g>
     <g id="text_7">
      <!-- 0.6 -->
      <g transform="translate(263.735937 329.598437)scale(0.1 -0.1)">
       <use xlink:href="#DejaVuSans-30"/>
       <use xlink:href="#DejaVuSans-2e" x="63.623047"/>
       <use xlink:href="#DejaVuSans-36" x="95.410156"/>
      </g>
     </g>
    </g>
    <g id="xtick_8">
     <g id="line2d_8">
      <g>
       <use xlink:href="#md873c37a6f" x="306.5625" y="315" style="stroke: #000000; stroke-width: 0.8"/>
      </g>
     </g>
     <g id="text_8">
      <!-- 0.8 -->
      <g transform="translate(298.610937 329.598437)scale(0.1 -0.1)">
       <defs>
        <path id="DejaVuSans-38" d="M 2034 2216 
Q 1584 2216 1326 1975 
Q 1069 1734 1069 1313 
Q 1069 891 1326 650 
Q 1584 409 2034 409 
Q 2484 409 2743 651 
Q 3003 894 3003 1313 
Q 3003 1734 2745 1975 
Q 2488 2216 2034 2216 
z
M 1403 2484 
Q 997 2584 770 2862 
Q 544 3141 544 3541 
Q 544 4100 942 4425 
Q 1341 4750 2034 4750 
Q 2731 4750 3128 4425 
Q 3525 4100 3525 3541 
Q 3525 3141 3298 2862 
Q 3072 2584 2669 2484 
Q 3125 2378 3379 2068 
Q 3634 1759 3634 1313 
Q 3634 634 3220 271 
Q 2806 -91 2034 -91 
Q 1263 -91 848 271 
Q 434 634 434 1313 
Q 434 1759 690 2068 
Q 947 2378 1403 2484 
z
M 1172 3481 
Q 1172 3119 1398 2916 
Q 1625 2713 2034 2713 
Q 2441 2713 2670 2916 
Q 2900 3119 2900 3481 
Q 2900 3844 2670 4047 
Q 2441 4250 2034 4250 
Q 1625 4250 1398 4047 
Q 1172 3844 1172 3481 
z
" transform="scale(0.015625)"/>
       </defs>
       <use xlink:href="#DejaVuSans-30"/>
       <use xlink:href="#DejaVuSans-2e" x="63.623047"/>
       <use xlink:href="#DejaVuSans-38" x="95.410156"/>
      </g>
     </g>
    </g>
    <g id="text_9">
     <!-- MITF -->
     <g transform="translate(172.78125 343.276563)scale(0.1 -0.1)">
      <defs>
       <path id="DejaVuSans-4d" d="M 628 4666 
L 1569 4666 
L 2759 1491 
L 3956 4666 
L 4897 4666 
L 4897 0 
L 4281 0 
L 4281 4097 
L 3078 897 
L 2444 897 
L 1241 4097 
L 1241 0 
L 628 0 
L 628 4666 
z
" transform="scale(0.015625)"/>
       <path id="DejaVuSans-49" d="M 628 4666 
L 1259 4666 
L 1259 0 
L 628 0 
L 628 4666 
z
" transform="scale(0.015625)"/>
       <path id="DejaVuSans-54" d="M -19 4666 
L 3928 4666 
L 3928 4134 
L 2272 4134 
L 2272 0 
L 1638 0 
L 1638 4134 
L -19 4134 
L -19 4666 
z
" transform="scale(0.015625)"/>
       <path id="DejaVuSans-46" d="M 628 4666 
L 3309 4666 
L 3309 4134 
L 1259 4134 
L 1259 2759 
L 3109 2759 
L 3109 2228 
L 1259 2228 
L 1259 0 
L 628 0 
L 628 4666 
z
" transform="scale(0.015625)"/>
      </defs>
      <use xlink:href="#DejaVuSans-4d"/>
      <use xlink:href="#DejaVuSans-49" x="86.279297"/>
      <use xlink:href="#DejaVuSans-54" x="115.771484"/>
      <use xlink:href="#DejaVuSans-46" x="176.855469"/>
     </g>
    </g>
   </g>
   <g id="matplotlib.axis_2">
    <g id="ytick_1">
     <g id="line2d_9">
      <defs>
       <path id="m38376cc786" d="M 0 0 
L -3.5 0 
" style="stroke: #000000; stroke-width: 0.8"/>
      </defs>
      <g>
       <use xlink:href="#m38376cc786" x="45" y="298.0125" style="stroke: #000000; stroke-width: 0.8"/>
      </g>
     </g>
     <g id="text_10">
      <!-- −0.6 -->
      <g transform="translate(13.717187 301.811719)scale(0.1 -0.1)">
       <use xlink:href="#DejaVuSans-2212"/>
       <use xlink:href="#DejaVuSans-30" x="83.789062"/>
       <use xlink:href="#DejaVuSans-2e" x="147.412109"/>
       <use xlink:href="#DejaVuSans-36" x="179.199219"/>
      </g>
     </g>
    </g>
    <g id="ytick_2">
     <g id="line2d_10">
      <g>
       <use xlink:href="#m38376cc786" x="45" y="264.0375" style="stroke: #000000; stroke-width: 0.8"/>
      </g>
     </g>
     <g id="text_11">
      <!-- −0.4 -->
      <g transform="translate(13.717187 267.836719)scale(0.1 -0.1)">
       <use xlink:href="#DejaVuSans-2212"/>
       <use xlink:href="#DejaVuSans-30" x="83.789062"/>
       <use xlink:href="#DejaVuSans-2e" x="147.412109"/>
       <use xlink:href="#DejaVuSans-34" x="179.199219"/>
      </g>
     </g>
    </g>
    <g id="ytick_3">
     <g id="line2d_11">
      <g>
       <use xlink:href="#m38376cc786" x="45" y="230.0625" style="stroke: #000000; stroke-width: 0.8"/>
      </g>
     </g>
     <g id="text_12">
      <!-- −0.2 -->
      <g transform="translate(13.717187 233.861719)scale(0.1 -0.1)">
       <use xlink:href="#DejaVuSans-2212"/>
       <use xlink:href="#DejaVuSans-30" x="83.789062"/>
       <use xlink:href="#DejaVuSans-2e" x="147.412109"/>
       <use xlink:href="#DejaVuSans-32" x="179.199219"/>
      </g>
     </g>
    </g>
    <g id="ytick_4">
     <g id="line2d_12">
      <g>
       <use xlink:href="#m38376cc786" x="45" y="196.0875" style="stroke: #000000; stroke-width: 0.8"/>
      </g>
     </g>
     <g id="text_13">
      <!-- 0.0 -->
      <g transform="translate(22.096875 199.886719)scale(0.1 -0.1)">
       <use xlink:href="#DejaVuSans-30"/>
       <use xlink:href="#DejaVuSans-2e" x="63.623047"/>
       <use xlink:href="#DejaVuSans-30" x="95.410156"/>
      </g>
     </g>
    </g>
    <g id="ytick_5">
     <g id="line2d_13">
      <g>
       <use xlink:href="#m38376cc786" x="45" y="162.1125" style="stroke: #000000; stroke-width: 0.8"/>
      </g>
     </g>
     <g id="text_14">
      <!-- 0.2 -->
      <g transform="translate(22.096875 165.911719)scale(0.1 -0.1)">
       <use xlink:href="#DejaVuSans-30"/>
       <use xlink:href="#DejaVuSans-2e" x="63.623047"/>
       <use xlink:href="#DejaVuSans-32" x="95.410156"/>
      </g>
     </g>
    </g>
    <g id="ytick_6">
     <g id="line2d_14">
      <g>
       <use xlink:href="#m38376cc786" x="45" y="128.1375" style="stroke: #000000; stroke-width: 0.8"/>
      </g>
     </g>
     <g id="text_15">
      <!-- 0.4 -->
      <g transform="translate(22.096875 131.936719)scale(0.1 -0.1)">
       <use xlink:href="#DejaVuSans-30"/>
       <use xlink:href="#DejaVuSans-2e" x="63.623047"/>
       <use xlink:href="#DejaVuSans-34" x="95.410156"/>
      </g>
     </g>
    </g>
    <g id="ytick_7">
     <g id="line2d_15">
      <g>
       <use xlink:href="#m38376cc786" x="45" y="94.1625" style="stroke: #000000; stroke-width: 0.8"/>
      </g>
     </g>
     <g id="text_16">
      <!-- 0.6 -->
      <g transform="translate(22.096875 97.961719)scale(0.1 -0.1)">
       <use xlink:href="#DejaVuSans-30"/>
       <use xlink:href="#DejaVuSans-2e" x="63.623047"/>
       <use xlink:href="#DejaVuSans-36" x="95.410156"/>
      </g>
     </g>
    </g>
    <g id="ytick_8">
     <g id="line2d_16">
      <g>
       <use xlink:href="#m38376cc786" x="45" y="60.1875" style="stroke: #000000; stroke-width: 0.8"/>
      </g>
     </g>
     <g id="text_17">
      <!-- 0.8 -->
      <g transform="translate(22.096875 63.986719)scale(0.1 -0.1)">
       <use xlink:href="#DejaVuSans-30"/>
       <use xlink:href="#DejaVuSans-2e" x="63.623047"/>
       <use xlink:href="#DejaVuSans-38" x="95.410156"/>
      </g>
     </g>
    </g>
    <g id="text_18">
     <!-- MYC -->
     <g transform="translate(7.6375 189.684375)rotate(-90)scale(0.1 -0.1)">
      <defs>
       <path id="DejaVuSans-59" d="M -13 4666 
L 666 4666 
L 1959 2747 
L 3244 4666 
L 3922 4666 
L 2272 2222 
L 2272 0 
L 1638 0 
L 1638 2222 
L -13 4666 
z
" transform="scale(0.015625)"/>
       <path id="DejaVuSans-43" d="M 4122 4306 
L 4122 3641 
Q 3803 3938 3442 4084 
Q 3081 4231 2675 4231 
Q 1875 4231 1450 3742 
Q 1025 3253 1025 2328 
Q 1025 1406 1450 917 
Q 1875 428 2675 428 
Q 3081 428 3442 575 
Q 3803 722 4122 1019 
L 4122 359 
Q 3791 134 3420 21 
Q 3050 -91 2638 -91 
Q 1578 -91 968 557 
Q 359 1206 359 2328 
Q 359 3453 968 4101 
Q 1578 4750 2638 4750 
Q 3056 4750 3426 4639 
Q 3797 4528 4122 4306 
z
" transform="scale(0.015625)"/>
      </defs>
      <use xlink:href="#DejaVuSans-4d"/>
      <use xlink:href="#DejaVuSans-59" x="86.279297"/>
      <use xlink:href="#DejaVuSans-43" x="141.863281"/>
     </g>
    </g>
   </g>
   <g id="line2d_17">
    <path d="M 58.761729 268.196858 
L 61.288823 266.418064 
L 63.815917 264.639271 
L 66.343012 262.860477 
L 68.870106 261.081684 
L 71.3972 259.30289 
L 73.924294 257.524097 
L 76.451388 255.745303 
L 78.978482 253.96651 
L 81.505576 252.187716 
L 84.032671 250.408923 
L 86.559765 248.630129 
L 89.086859 246.851336 
L 91.613953 245.072542 
L 94.141047 243.293749 
L 96.668141 241.514955 
L 99.195235 239.736162 
L 101.72233 237.957368 
L 104.249424 236.178575 
L 106.776518 234.399781 
L 109.303612 232.620988 
L 111.830706 230.842195 
L 114.3578 229.063401 
L 116.884894 227.284608 
L 119.411989 225.505814 
L 121.939083 223.727021 
L 124.466177 221.948227 
L 126.993271 220.169434 
L 129.520365 218.39064 
L 132.047459 216.611847 
L 134.574553 214.833053 
L 137.101648 213.05426 
L 139.628742 211.275466 
L 142.155836 209.496673 
L 144.68293 207.717879 
L 147.210024 205.939086 
L 149.737118 204.160292 
L 152.264212 202.381499 
L 154.791307 200.602705 
L 157.318401 198.823912 
L 159.845495 197.045118 
L 162.372589 195.266325 
L 164.899683 193.487531 
L 167.426777 191.708738 
L 169.953871 189.929944 
L 172.480966 188.151151 
L 175.00806 186.372357 
L 177.535154 184.593564 
L 180.062248 182.81477 
L 182.589342 181.035977 
L 185.116436 179.257183 
L 187.64353 177.47839 
L 190.170625 175.699596 
L 192.697719 173.920803 
L 195.224813 172.142009 
L 197.751907 170.363216 
L 200.279001 168.584422 
L 202.806095 166.805629 
L 205.333189 165.026835 
L 207.860284 163.248042 
L 210.387378 161.469248 
L 212.914472 159.690455 
L 215.441566 157.911661 
L 217.96866 156.132868 
L 220.495754 154.354074 
L 223.022848 152.575281 
L 225.549943 150.796487 
L 228.077037 149.017694 
L 230.604131 147.2389 
L 233.131225 145.460107 
L 235.658319 143.681313 
L 238.185413 141.90252 
L 240.712507 140.123726 
L 243.239602 138.344933 
L 245.766696 136.566139 
L 248.29379 134.787346 
L 250.820884 133.008552 
L 253.347978 131.229759 
L 255.875072 129.450966 
L 258.402166 127.672172 
L 260.929261 125.893379 
L 263.456355 124.114585 
L 265.983449 122.335792 
L 268.510543 120.556998 
L 271.037637 118.778205 
L 273.564731 116.999411 
L 276.091825 115.220618 
L 278.61892 113.441824 
L 281.146014 111.663031 
L 283.673108 109.884237 
L 286.200202 108.105444 
L 288.727296 106.32665 
L 291.25439 104.547857 
L 293.781484 102.769063 
L 296.308579 100.99027 
L 298.835673 99.211476 
L 301.362767 97.432683 
L 303.889861 95.653889 
L 306.416955 93.875096 
L 308.944049 92.096302 
" clip-path="url(#pc50cf31868)" style="fill: none; stroke: #000000; stroke-width: 2.25; stroke-linecap: square"/>
   </g>
   <g id="patch_3">
    <path d="M 45 315 
L 45 43.2 
" style="fill: none; stroke: #000000; stroke-width: 0.8; stroke-linejoin: miter; stroke-linecap: square"/>
   </g>
   <g id="patch_4">
    <path d="M 324 315 
L 324 43.2 
" style="fill: none; stroke: #000000; stroke-width: 0.8; stroke-linejoin: miter; stroke-linecap: square"/>
   </g>
   <g id="patch_5">
    <path d="M 45 315 
L 324 315 
" style="fill: none; stroke: #000000; stroke-width: 0.8; stroke-linejoin: miter; stroke-linecap: square"/>
   </g>
   <g id="patch_6">
    <path d="M 45 43.2 
L 324 43.2 
" style="fill: none; stroke: #000000; stroke-width: 0.8; stroke-linejoin: miter; stroke-linecap: square"/>
   </g>
  </g>
 </g>
 <defs>
  <clipPath id="pc50cf31868">
   <rect x="45" y="43.2" width="279" height="271.8"/>
  </clipPath>
 </defs>
</svg>
