<svg version="1.1" xmlns="http://www.w3.org/2000/svg" width="400" height="200"><defs><clipPath id="kunEWKHViRxX"><path fill="none" stroke="none" d="M 6.5 5.5 L 395.5 5.5 L 395.5 194.5 L 6.5 194.5 L 6.5 5.5"/></clipPath><clipPath id="MkJuMQsTsKOw"><path fill="none" stroke="none" d="M 6.5 5.5 L 395.5 5.5 L 395.5 194.5 L 6.5 194.5 L 6.5 5.5"/></clipPath><clipPath id="bzqcydeKxwqO"><path fill="none" stroke="none" d="M 6.5 5.5 L 395.5 5.5 L 395.5 194.5 L 6.5 194.5 L 6.5 5.5"/></clipPath></defs><path fill="rgb(255,255,255)" stroke="none" paint-order="stroke" d="M 0.5 0.5 L 400.5 0.5 L 400.5 200.5 L 0.5 200.5 L 0.5 0.5" fill-opacity="1"/><rect fill="#FFFFFF" stroke="none" x="6" y="5" width="389" height="189" transform="matrix(1, 0, 0, 1, 0.5, 0.5)"/><path fill="rgb(255,255,255)" stroke="none" paint-order="stroke" d="M 6.5 5.5 L 395.5 5.5 L 395.5 194.5 L 6.5 194.5 L 6.5 5.5" fill-opacity="1"/><path fill="none" stroke="rgb(0,0,0)" paint-order="fill" d="M 6.5 5.5 L 395.5 5.5 L 395.5 194.5 L 6.5 194.5 L 6.5 5.5" stroke-opacity="1" stroke-linejoin="bevel" stroke-miterlimit="10" stroke-dasharray=""/><path fill="rgb(244,152,122)" stroke="rgb(0,0,0)" paint-order="fill" d="M 26.760417938232422 170.98655700683594 L 51.07291793823242 170.98655700683594 L 51.07291793823242 194.5 L 26.760417938232422 194.5 L 26.760417938232422 170.98655700683594" fill-opacity="1" clip-path="url(#bzqcydeKxwqO)" stroke-opacity="1" stroke-linejoin="bevel" stroke-miterlimit="10" stroke-dasharray=""/><path fill="rgb(141,176,254)" stroke="rgb(0,0,0)" paint-order="fill" d="M 59.177085876464844 77.11593627929688 L 83.48958587646484 77.11593627929688 L 83.48958587646484 194.5 L 59.177085876464844 194.5 L 59.177085876464844 77.11593627929688" fill-opacity="1" clip-path="url(#bzqcydeKxwqO)" stroke-opacity="1" stroke-linejoin="bevel" stroke-miterlimit="10" stroke-dasharray=""/><path fill="rgb(244,152,122)" stroke="rgb(0,0,0)" paint-order="fill" d="M 91.59375 40.790496826171875 L 115.90625 40.790496826171875 L 115.90625 194.5 L 91.59375 194.5 L 91.59375 40.790496826171875" fill-opacity="1" clip-path="url(#bzqcydeKxwqO)" stroke-opacity="1" stroke-linejoin="bevel" stroke-miterlimit="10" stroke-dasharray=""/><path fill="rgb(244,152,122)" stroke="rgb(0,0,0)" paint-order="fill" d="M 124.01042175292969 191.3214569091797 L 148.3229217529297 191.3214569091797 L 148.3229217529297 194.5 L 124.01042175292969 194.5 L 124.01042175292969 191.3214569091797" fill-opacity="1" clip-path="url(#bzqcydeKxwqO)" stroke-opacity="1" stroke-linejoin="bevel" stroke-miterlimit="10" stroke-dasharray=""/><path fill="rgb(244,152,122)" stroke="rgb(0,0,0)" paint-order="fill" d="M 156.4270782470703 191.3238983154297 L 180.7395782470703 191.3238983154297 L 180.7395782470703 194.5 L 156.4270782470703 194.5 L 156.4270782470703 191.3238983154297" fill-opacity="1" clip-path="url(#bzqcydeKxwqO)" stroke-opacity="1" stroke-linejoin="bevel" stroke-miterlimit="10" stroke-dasharray=""/><path fill="rgb(244,152,122)" stroke="rgb(0,0,0)" paint-order="fill" d="M 188.84375 193.22021484375 L 213.15625 193.22021484375 L 213.15625 194.5 L 188.84375 194.5 L 188.84375 193.22021484375" fill-opacity="1" clip-path="url(#bzqcydeKxwqO)" stroke-opacity="1" stroke-linejoin="bevel" stroke-miterlimit="10" stroke-dasharray=""/><path fill="rgb(244,152,122)" stroke="rgb(0,0,0)" paint-order="fill" d="M 221.2604217529297 184.9552001953125 L 245.5729217529297 184.9552001953125 L 245.5729217529297 194.5 L 221.2604217529297 194.5 L 221.2604217529297 184.9552001953125" fill-opacity="1" clip-path="url(#bzqcydeKxwqO)" stroke-opacity="1" stroke-linejoin="bevel" stroke-miterlimit="10" stroke-dasharray=""/><path fill="rgb(244,152,122)" stroke="rgb(0,0,0)" paint-order="fill" d="M 253.67709350585938 183.71343994140625 L 277.9895935058594 183.71343994140625 L 277.9895935058594 194.5 L 253.67709350585938 194.5 L 253.67709350585938 183.71343994140625" fill-opacity="1" clip-path="url(#bzqcydeKxwqO)" stroke-opacity="1" stroke-linejoin="bevel" stroke-miterlimit="10" stroke-dasharray=""/><path fill="rgb(244,152,122)" stroke="rgb(0,0,0)" paint-order="fill" d="M 286.09375 40.71870803833008 L 310.40625 40.71870803833008 L 310.40625 194.5 L 286.09375 194.5 L 286.09375 40.71870803833008" fill-opacity="1" clip-path="url(#bzqcydeKxwqO)" stroke-opacity="1" stroke-linejoin="bevel" stroke-miterlimit="10" stroke-dasharray=""/><path fill="rgb(141,176,254)" stroke="rgb(0,0,0)" paint-order="fill" d="M 318.5104064941406 77.11593627929688 L 342.8229064941406 77.11593627929688 L 342.8229064941406 194.5 L 318.5104064941406 194.5 L 318.5104064941406 77.11593627929688" fill-opacity="1" clip-path="url(#bzqcydeKxwqO)" stroke-opacity="1" stroke-linejoin="bevel" stroke-miterlimit="10" stroke-dasharray=""/><path fill="rgb(244,152,122)" stroke="rgb(0,0,0)" paint-order="fill" d="M 350.9270935058594 170.98655700683594 L 375.2395935058594 170.98655700683594 L 375.2395935058594 194.5 L 350.9270935058594 194.5 L 350.9270935058594 170.98655700683594" fill-opacity="1" clip-path="url(#bzqcydeKxwqO)" stroke-opacity="1" stroke-linejoin="bevel" stroke-miterlimit="10" stroke-dasharray=""/><path fill="none" stroke="rgb(0,0,0)" paint-order="fill" d="M 6.5 194.5 L 395.5 194.5" stroke-opacity="1" stroke-linejoin="bevel" stroke-miterlimit="10" stroke-dasharray=""/><path fill="none" stroke="rgb(0,0,0)" paint-order="fill" d="M 6.5 194.5 L 6.5 5.5" stroke-opacity="1" stroke-linejoin="bevel" stroke-miterlimit="10" stroke-dasharray=""/><path fill="none" stroke="rgb(0,0,0)" paint-order="fill" d="" stroke-opacity="1" stroke-linejoin="bevel" stroke-miterlimit="10" stroke-dasharray=""/></svg>