<?xml version="1.0" encoding="utf-8" standalone="no"?>
<!DOCTYPE svg PUBLIC "-//W3C//DTD SVG 1.1//EN"
  "http://www.w3.org/Graphics/SVG/1.1/DTD/svg11.dtd">
<svg xmlns:xlink="http://www.w3.org/1999/xlink" width="360pt" height="360pt" viewBox="0 0 360 360" xmlns="http://www.w3.org/2000/svg" version="1.1">
 <metadata>
  <rdf:RDF xmlns:dc="http://purl.org/dc/elements/1.1/" xmlns:cc="http://creativecommons.org/ns#" xmlns:rdf="http://www.w3.org/1999/02/22-rdf-syntax-ns#">
   <cc:Work>
    <dc:type rdf:resource="http://purl.org/dc/dcmitype/StillImage"/>
    <dc:date>2023-01-01T18:34:08.479448</dc:date>
    <dc:format>image/svg+xml</dc:format>
    <dc:creator>
     <cc:Agent>
      <dc:title>Matplotlib v3.5.1, https://matplotlib.org/</dc:title>
     </cc:Agent>
    </dc:creator>
   </cc:Work>
  </rdf:RDF>
 </metadata>
 <defs>
  <style type="text/css">*{stroke-linejoin: round; stroke-linecap: butt}</style>
 </defs>
 <g id="figure_1">
  <g id="patch_1">
   <path d="M 0 360 
L 360 360 
L 360 0 
L 0 0 
L 0 360 
z
" style="fill: none"/>
  </g>
  <g id="axes_1">
   <g id="patch_2">
    <path d="M 45 315 
L 324 315 
L 324 43.2 
L 45 43.2 
z
" style="fill: #ffffff"/>
   </g>
   <g id="PathCollection_1">
    <defs>
     <path id="m6b2898790c" d="M 0 3 
C 0.795609 3 1.55874 2.683901 2.12132 2.12132 
C 2.683901 1.55874 3 0.795609 3 0 
C 3 -0.795609 2.683901 -1.55874 2.12132 -2.12132 
C 1.55874 -2.683901 0.795609 -3 0 -3 
C -0.795609 -3 -1.55874 -2.683901 -2.12132 -2.12132 
C -2.683901 -1.55874 -3 -0.795609 -3 0 
C -3 0.795609 -2.683901 1.55874 -2.12132 2.12132 
C -1.55874 2.683901 -0.795609 3 0 3 
z
" style="stroke: #000000; stroke-opacity: 0.8"/>
    </defs>
    <g clip-path="url(#p1250445a02)">
     <use xlink:href="#m6b2898790c" x="180.243543" y="174.201716" style="fill-opacity: 0.8; stroke: #000000; stroke-opacity: 0.8"/>
     <use xlink:href="#m6b2898790c" x="310.238271" y="102.371938" style="fill-opacity: 0.8; stroke: #000000; stroke-opacity: 0.8"/>
     <use xlink:href="#m6b2898790c" x="60.122184" y="276.618231" style="fill-opacity: 0.8; stroke: #000000; stroke-opacity: 0.8"/>
     <use xlink:href="#m6b2898790c" x="199.004921" y="166.205521" style="fill-opacity: 0.8; stroke: #000000; stroke-opacity: 0.8"/>
     <use xlink:href="#m6b2898790c" x="199.007162" y="164.610991" style="fill-opacity: 0.8; stroke: #000000; stroke-opacity: 0.8"/>
     <use xlink:href="#m6b2898790c" x="200.75675" y="160.68113" style="fill-opacity: 0.8; stroke: #000000; stroke-opacity: 0.8"/>
     <use xlink:href="#m6b2898790c" x="193.131282" y="161.054794" style="fill-opacity: 0.8; stroke: #000000; stroke-opacity: 0.8"/>
     <use xlink:href="#m6b2898790c" x="191.985614" y="164.004843" style="fill-opacity: 0.8; stroke: #000000; stroke-opacity: 0.8"/>
     <use xlink:href="#m6b2898790c" x="60.055951" y="278.190051" style="fill-opacity: 0.8; stroke: #000000; stroke-opacity: 0.8"/>
     <use xlink:href="#m6b2898790c" x="310.238271" y="102.371938" style="fill-opacity: 0.8; stroke: #000000; stroke-opacity: 0.8"/>
     <use xlink:href="#m6b2898790c" x="180.243543" y="174.201716" style="fill-opacity: 0.8; stroke: #000000; stroke-opacity: 0.8"/>
    </g>
   </g>
   <g id="PolyCollection_1">
    <path d="M 60.055951 238.023132 
L 60.055951 277.189557 
L 62.583045 275.045148 
L 65.110139 272.95599 
L 67.637233 270.85638 
L 70.164327 268.764411 
L 72.691421 266.624943 
L 75.218516 264.533369 
L 77.74561 262.511851 
L 80.272704 260.425719 
L 82.799798 258.322485 
L 85.326892 256.240933 
L 87.853986 254.167322 
L 90.38108 252.09234 
L 92.908175 249.995058 
L 95.435269 247.908926 
L 97.962363 245.901528 
L 100.489457 243.811483 
L 103.016551 241.770147 
L 105.543645 239.847064 
L 108.070739 237.948132 
L 110.597834 236.113639 
L 113.124928 234.273178 
L 115.652022 232.511736 
L 118.179116 230.750529 
L 120.70621 228.988683 
L 123.233304 227.226673 
L 125.760398 225.445801 
L 128.287493 223.629057 
L 130.814587 221.765883 
L 133.341681 219.944765 
L 135.868775 218.117718 
L 138.395869 216.331768 
L 140.922963 214.545361 
L 143.450057 212.757947 
L 145.977152 210.977546 
L 148.504246 209.184541 
L 151.03134 207.397699 
L 153.558434 205.610784 
L 156.085528 203.823868 
L 158.612622 202.013065 
L 161.139716 200.244168 
L 163.666811 198.444413 
L 166.193905 196.66257 
L 168.720999 194.890707 
L 171.248093 193.104747 
L 173.775187 191.336086 
L 176.302281 189.592279 
L 178.829375 187.853124 
L 181.35647 186.086948 
L 183.883564 184.305408 
L 186.410658 182.56733 
L 188.937752 180.789731 
L 191.464846 179.025868 
L 193.99194 177.267429 
L 196.519034 175.508991 
L 199.046129 173.741225 
L 201.573223 171.934126 
L 204.100317 170.127027 
L 206.627411 168.319864 
L 209.154505 166.51268 
L 211.681599 164.722423 
L 214.208693 162.934937 
L 216.735788 161.171595 
L 219.262882 159.429476 
L 221.789976 157.710863 
L 224.31707 156.000034 
L 226.844164 154.289206 
L 229.371258 152.541736 
L 231.898352 150.745934 
L 234.425447 148.949195 
L 236.952541 147.151499 
L 239.479635 145.39128 
L 242.006729 143.637263 
L 244.533823 141.912948 
L 247.060917 140.209629 
L 249.588011 138.506914 
L 252.115106 136.804393 
L 254.6422 135.064683 
L 257.169294 133.309052 
L 259.696388 131.66377 
L 262.223482 129.900284 
L 264.750576 128.264235 
L 267.27767 126.530592 
L 269.804765 124.89643 
L 272.331859 123.424418 
L 274.858953 121.903037 
L 277.386047 120.495492 
L 279.913141 119.103817 
L 282.440235 117.634416 
L 284.967329 116.221049 
L 287.494424 114.843275 
L 290.021518 113.464219 
L 292.548612 112.081468 
L 295.075706 110.69552 
L 297.6028 109.304828 
L 300.129894 107.936891 
L 302.656988 106.559465 
L 305.184083 105.183565 
L 307.711177 103.810413 
L 310.238271 102.424948 
L 310.238271 66.755062 
L 310.238271 66.755062 
L 307.711177 68.872537 
L 305.184083 70.990013 
L 302.656988 73.107488 
L 300.129894 75.224963 
L 297.6028 77.342438 
L 295.075706 79.459914 
L 292.548612 81.577389 
L 290.021518 83.694864 
L 287.494424 85.820528 
L 284.967329 87.948316 
L 282.440235 90.076103 
L 279.913141 92.203891 
L 277.386047 94.331679 
L 274.858953 96.459466 
L 272.331859 98.587254 
L 269.804765 100.715042 
L 267.27767 102.842829 
L 264.750576 104.970617 
L 262.223482 107.098405 
L 259.696388 109.226192 
L 257.169294 111.35398 
L 254.6422 113.477839 
L 252.115106 115.590923 
L 249.588011 117.704007 
L 247.060917 119.817091 
L 244.533823 121.930175 
L 242.006729 124.043259 
L 239.479635 126.156344 
L 236.952541 128.269428 
L 234.425447 130.382512 
L 231.898352 132.495696 
L 229.371258 134.609007 
L 226.844164 136.722319 
L 224.31707 138.83563 
L 221.789976 140.948942 
L 219.262882 143.062253 
L 216.735788 145.175565 
L 214.208693 147.288876 
L 211.681599 149.404935 
L 209.154505 151.530903 
L 206.627411 153.656975 
L 204.100317 155.783248 
L 201.573223 157.909521 
L 199.046129 160.035794 
L 196.519034 162.077636 
L 193.99194 164.064539 
L 191.464846 165.774495 
L 188.937752 167.600093 
L 186.410658 169.414252 
L 183.883564 170.826101 
L 181.35647 172.218576 
L 178.829375 173.590605 
L 176.302281 174.962633 
L 173.775187 176.334662 
L 171.248093 177.703792 
L 168.720999 179.0719 
L 166.193905 180.443926 
L 163.666811 181.822776 
L 161.139716 183.194804 
L 158.612622 184.55398 
L 156.085528 185.926649 
L 153.558434 187.299318 
L 151.03134 188.671987 
L 148.504246 190.044656 
L 145.977152 191.417325 
L 143.450057 192.789994 
L 140.922963 194.162416 
L 138.395869 195.533003 
L 135.868775 196.903606 
L 133.341681 198.274257 
L 130.814587 199.644908 
L 128.287493 201.015559 
L 125.760398 202.38621 
L 123.233304 203.756861 
L 120.70621 205.127511 
L 118.179116 206.498162 
L 115.652022 207.868813 
L 113.124928 209.239464 
L 110.597834 210.610115 
L 108.070739 211.980766 
L 105.543645 213.351417 
L 103.016551 214.722068 
L 100.489457 216.092718 
L 97.962363 217.463369 
L 95.435269 218.83402 
L 92.908175 220.204671 
L 90.38108 221.575322 
L 87.853986 222.945973 
L 85.326892 224.316624 
L 82.799798 225.687275 
L 80.272704 227.057925 
L 77.74561 228.428576 
L 75.218516 229.799227 
L 72.691421 231.169878 
L 70.164327 232.540529 
L 67.637233 233.91118 
L 65.110139 235.281831 
L 62.583045 236.652481 
L 60.055951 238.023132 
z
" clip-path="url(#p1250445a02)" style="fill-opacity: 0.15"/>
   </g>
   <g id="matplotlib.axis_1">
    <g id="xtick_1">
     <g id="line2d_1">
      <defs>
       <path id="m5ae8638fc9" d="M 0 0 
L 0 3.5 
" style="stroke: #000000; stroke-width: 0.8"/>
      </defs>
      <g>
       <use xlink:href="#m5ae8638fc9" x="62.4375" y="315" style="stroke: #000000; stroke-width: 0.8"/>
      </g>
     </g>
     <g id="text_1">
      <!-- −80 -->
      <g transform="translate(51.885156 329.598437)scale(0.1 -0.1)">
       <defs>
        <path id="DejaVuSans-2212" d="M 678 2272 
L 4684 2272 
L 4684 1741 
L 678 1741 
L 678 2272 
z
" transform="scale(0.015625)"/>
        <path id="DejaVuSans-38" d="M 2034 2216 
Q 1584 2216 1326 1975 
Q 1069 1734 1069 1313 
Q 1069 891 1326 650 
Q 1584 409 2034 409 
Q 2484 409 2743 651 
Q 3003 894 3003 1313 
Q 3003 1734 2745 1975 
Q 2488 2216 2034 2216 
z
M 1403 2484 
Q 997 2584 770 2862 
Q 544 3141 544 3541 
Q 544 4100 942 4425 
Q 1341 4750 2034 4750 
Q 2731 4750 3128 4425 
Q 3525 4100 3525 3541 
Q 3525 3141 3298 2862 
Q 3072 2584 2669 2484 
Q 3125 2378 3379 2068 
Q 3634 1759 3634 1313 
Q 3634 634 3220 271 
Q 2806 -91 2034 -91 
Q 1263 -91 848 271 
Q 434 634 434 1313 
Q 434 1759 690 2068 
Q 947 2378 1403 2484 
z
M 1172 3481 
Q 1172 3119 1398 2916 
Q 1625 2713 2034 2713 
Q 2441 2713 2670 2916 
Q 2900 3119 2900 3481 
Q 2900 3844 2670 4047 
Q 2441 4250 2034 4250 
Q 1625 4250 1398 4047 
Q 1172 3844 1172 3481 
z
" transform="scale(0.015625)"/>
        <path id="DejaVuSans-30" d="M 2034 4250 
Q 1547 4250 1301 3770 
Q 1056 3291 1056 2328 
Q 1056 1369 1301 889 
Q 1547 409 2034 409 
Q 2525 409 2770 889 
Q 3016 1369 3016 2328 
Q 3016 3291 2770 3770 
Q 2525 4250 2034 4250 
z
M 2034 4750 
Q 2819 4750 3233 4129 
Q 3647 3509 3647 2328 
Q 3647 1150 3233 529 
Q 2819 -91 2034 -91 
Q 1250 -91 836 529 
Q 422 1150 422 2328 
Q 422 3509 836 4129 
Q 1250 4750 2034 4750 
z
" transform="scale(0.015625)"/>
       </defs>
       <use xlink:href="#DejaVuSans-2212"/>
       <use xlink:href="#DejaVuSans-38" x="83.789062"/>
       <use xlink:href="#DejaVuSans-30" x="147.412109"/>
      </g>
     </g>
    </g>
    <g id="xtick_2">
     <g id="line2d_2">
      <g>
       <use xlink:href="#m5ae8638fc9" x="97.3125" y="315" style="stroke: #000000; stroke-width: 0.8"/>
      </g>
     </g>
     <g id="text_2">
      <!-- −60 -->
      <g transform="translate(86.760156 329.598437)scale(0.1 -0.1)">
       <defs>
        <path id="DejaVuSans-36" d="M 2113 2584 
Q 1688 2584 1439 2293 
Q 1191 2003 1191 1497 
Q 1191 994 1439 701 
Q 1688 409 2113 409 
Q 2538 409 2786 701 
Q 3034 994 3034 1497 
Q 3034 2003 2786 2293 
Q 2538 2584 2113 2584 
z
M 3366 4563 
L 3366 3988 
Q 3128 4100 2886 4159 
Q 2644 4219 2406 4219 
Q 1781 4219 1451 3797 
Q 1122 3375 1075 2522 
Q 1259 2794 1537 2939 
Q 1816 3084 2150 3084 
Q 2853 3084 3261 2657 
Q 3669 2231 3669 1497 
Q 3669 778 3244 343 
Q 2819 -91 2113 -91 
Q 1303 -91 875 529 
Q 447 1150 447 2328 
Q 447 3434 972 4092 
Q 1497 4750 2381 4750 
Q 2619 4750 2861 4703 
Q 3103 4656 3366 4563 
z
" transform="scale(0.015625)"/>
       </defs>
       <use xlink:href="#DejaVuSans-2212"/>
       <use xlink:href="#DejaVuSans-36" x="83.789062"/>
       <use xlink:href="#DejaVuSans-30" x="147.412109"/>
      </g>
     </g>
    </g>
    <g id="xtick_3">
     <g id="line2d_3">
      <g>
       <use xlink:href="#m5ae8638fc9" x="132.1875" y="315" style="stroke: #000000; stroke-width: 0.8"/>
      </g>
     </g>
     <g id="text_3">
      <!-- −40 -->
      <g transform="translate(121.635156 329.598437)scale(0.1 -0.1)">
       <defs>
        <path id="DejaVuSans-34" d="M 2419 4116 
L 825 1625 
L 2419 1625 
L 2419 4116 
z
M 2253 4666 
L 3047 4666 
L 3047 1625 
L 3713 1625 
L 3713 1100 
L 3047 1100 
L 3047 0 
L 2419 0 
L 2419 1100 
L 313 1100 
L 313 1709 
L 2253 4666 
z
" transform="scale(0.015625)"/>
       </defs>
       <use xlink:href="#DejaVuSans-2212"/>
       <use xlink:href="#DejaVuSans-34" x="83.789062"/>
       <use xlink:href="#DejaVuSans-30" x="147.412109"/>
      </g>
     </g>
    </g>
    <g id="xtick_4">
     <g id="line2d_4">
      <g>
       <use xlink:href="#m5ae8638fc9" x="167.0625" y="315" style="stroke: #000000; stroke-width: 0.8"/>
      </g>
     </g>
     <g id="text_4">
      <!-- −20 -->
      <g transform="translate(156.510156 329.598437)scale(0.1 -0.1)">
       <defs>
        <path id="DejaVuSans-32" d="M 1228 531 
L 3431 531 
L 3431 0 
L 469 0 
L 469 531 
Q 828 903 1448 1529 
Q 2069 2156 2228 2338 
Q 2531 2678 2651 2914 
Q 2772 3150 2772 3378 
Q 2772 3750 2511 3984 
Q 2250 4219 1831 4219 
Q 1534 4219 1204 4116 
Q 875 4013 500 3803 
L 500 4441 
Q 881 4594 1212 4672 
Q 1544 4750 1819 4750 
Q 2544 4750 2975 4387 
Q 3406 4025 3406 3419 
Q 3406 3131 3298 2873 
Q 3191 2616 2906 2266 
Q 2828 2175 2409 1742 
Q 1991 1309 1228 531 
z
" transform="scale(0.015625)"/>
       </defs>
       <use xlink:href="#DejaVuSans-2212"/>
       <use xlink:href="#DejaVuSans-32" x="83.789062"/>
       <use xlink:href="#DejaVuSans-30" x="147.412109"/>
      </g>
     </g>
    </g>
    <g id="xtick_5">
     <g id="line2d_5">
      <g>
       <use xlink:href="#m5ae8638fc9" x="201.9375" y="315" style="stroke: #000000; stroke-width: 0.8"/>
      </g>
     </g>
     <g id="text_5">
      <!-- 0 -->
      <g transform="translate(198.75625 329.598437)scale(0.1 -0.1)">
       <use xlink:href="#DejaVuSans-30"/>
      </g>
     </g>
    </g>
    <g id="xtick_6">
     <g id="line2d_6">
      <g>
       <use xlink:href="#m5ae8638fc9" x="236.8125" y="315" style="stroke: #000000; stroke-width: 0.8"/>
      </g>
     </g>
     <g id="text_6">
      <!-- 20 -->
      <g transform="translate(230.45 329.598437)scale(0.1 -0.1)">
       <use xlink:href="#DejaVuSans-32"/>
       <use xlink:href="#DejaVuSans-30" x="63.623047"/>
      </g>
     </g>
    </g>
    <g id="xtick_7">
     <g id="line2d_7">
      <g>
       <use xlink:href="#m5ae8638fc9" x="271.6875" y="315" style="stroke: #000000; stroke-width: 0.8"/>
      </g>
     </g>
     <g id="text_7">
      <!-- 40 -->
      <g transform="translate(265.325 329.598437)scale(0.1 -0.1)">
       <use xlink:href="#DejaVuSans-34"/>
       <use xlink:href="#DejaVuSans-30" x="63.623047"/>
      </g>
     </g>
    </g>
    <g id="xtick_8">
     <g id="line2d_8">
      <g>
       <use xlink:href="#m5ae8638fc9" x="306.5625" y="315" style="stroke: #000000; stroke-width: 0.8"/>
      </g>
     </g>
     <g id="text_8">
      <!-- 60 -->
      <g transform="translate(300.2 329.598437)scale(0.1 -0.1)">
       <use xlink:href="#DejaVuSans-36"/>
       <use xlink:href="#DejaVuSans-30" x="63.623047"/>
      </g>
     </g>
    </g>
    <g id="text_9">
     <!-- MITF -->
     <g transform="translate(172.78125 343.276563)scale(0.1 -0.1)">
      <defs>
       <path id="DejaVuSans-4d" d="M 628 4666 
L 1569 4666 
L 2759 1491 
L 3956 4666 
L 4897 4666 
L 4897 0 
L 4281 0 
L 4281 4097 
L 3078 897 
L 2444 897 
L 1241 4097 
L 1241 0 
L 628 0 
L 628 4666 
z
" transform="scale(0.015625)"/>
       <path id="DejaVuSans-49" d="M 628 4666 
L 1259 4666 
L 1259 0 
L 628 0 
L 628 4666 
z
" transform="scale(0.015625)"/>
       <path id="DejaVuSans-54" d="M -19 4666 
L 3928 4666 
L 3928 4134 
L 2272 4134 
L 2272 0 
L 1638 0 
L 1638 4134 
L -19 4134 
L -19 4666 
z
" transform="scale(0.015625)"/>
       <path id="DejaVuSans-46" d="M 628 4666 
L 3309 4666 
L 3309 4134 
L 1259 4134 
L 1259 2759 
L 3109 2759 
L 3109 2228 
L 1259 2228 
L 1259 0 
L 628 0 
L 628 4666 
z
" transform="scale(0.015625)"/>
      </defs>
      <use xlink:href="#DejaVuSans-4d"/>
      <use xlink:href="#DejaVuSans-49" x="86.279297"/>
      <use xlink:href="#DejaVuSans-54" x="115.771484"/>
      <use xlink:href="#DejaVuSans-46" x="176.855469"/>
     </g>
    </g>
   </g>
   <g id="matplotlib.axis_2">
    <g id="ytick_1">
     <g id="line2d_9">
      <defs>
       <path id="m6b7e8a555d" d="M 0 0 
L -3.5 0 
" style="stroke: #000000; stroke-width: 0.8"/>
      </defs>
      <g>
       <use xlink:href="#m6b7e8a555d" x="45" y="298.0125" style="stroke: #000000; stroke-width: 0.8"/>
      </g>
     </g>
     <g id="text_10">
      <!-- −80 -->
      <g transform="translate(16.895312 301.811719)scale(0.1 -0.1)">
       <use xlink:href="#DejaVuSans-2212"/>
       <use xlink:href="#DejaVuSans-38" x="83.789062"/>
       <use xlink:href="#DejaVuSans-30" x="147.412109"/>
      </g>
     </g>
    </g>
    <g id="ytick_2">
     <g id="line2d_10">
      <g>
       <use xlink:href="#m6b7e8a555d" x="45" y="264.0375" style="stroke: #000000; stroke-width: 0.8"/>
      </g>
     </g>
     <g id="text_11">
      <!-- −60 -->
      <g transform="translate(16.895312 267.836719)scale(0.1 -0.1)">
       <use xlink:href="#DejaVuSans-2212"/>
       <use xlink:href="#DejaVuSans-36" x="83.789062"/>
       <use xlink:href="#DejaVuSans-30" x="147.412109"/>
      </g>
     </g>
    </g>
    <g id="ytick_3">
     <g id="line2d_11">
      <g>
       <use xlink:href="#m6b7e8a555d" x="45" y="230.0625" style="stroke: #000000; stroke-width: 0.8"/>
      </g>
     </g>
     <g id="text_12">
      <!-- −40 -->
      <g transform="translate(16.895312 233.861719)scale(0.1 -0.1)">
       <use xlink:href="#DejaVuSans-2212"/>
       <use xlink:href="#DejaVuSans-34" x="83.789062"/>
       <use xlink:href="#DejaVuSans-30" x="147.412109"/>
      </g>
     </g>
    </g>
    <g id="ytick_4">
     <g id="line2d_12">
      <g>
       <use xlink:href="#m6b7e8a555d" x="45" y="196.0875" style="stroke: #000000; stroke-width: 0.8"/>
      </g>
     </g>
     <g id="text_13">
      <!-- −20 -->
      <g transform="translate(16.895312 199.886719)scale(0.1 -0.1)">
       <use xlink:href="#DejaVuSans-2212"/>
       <use xlink:href="#DejaVuSans-32" x="83.789062"/>
       <use xlink:href="#DejaVuSans-30" x="147.412109"/>
      </g>
     </g>
    </g>
    <g id="ytick_5">
     <g id="line2d_13">
      <g>
       <use xlink:href="#m6b7e8a555d" x="45" y="162.1125" style="stroke: #000000; stroke-width: 0.8"/>
      </g>
     </g>
     <g id="text_14">
      <!-- 0 -->
      <g transform="translate(31.6375 165.911719)scale(0.1 -0.1)">
       <use xlink:href="#DejaVuSans-30"/>
      </g>
     </g>
    </g>
    <g id="ytick_6">
     <g id="line2d_14">
      <g>
       <use xlink:href="#m6b7e8a555d" x="45" y="128.1375" style="stroke: #000000; stroke-width: 0.8"/>
      </g>
     </g>
     <g id="text_15">
      <!-- 20 -->
      <g transform="translate(25.275 131.936719)scale(0.1 -0.1)">
       <use xlink:href="#DejaVuSans-32"/>
       <use xlink:href="#DejaVuSans-30" x="63.623047"/>
      </g>
     </g>
    </g>
    <g id="ytick_7">
     <g id="line2d_15">
      <g>
       <use xlink:href="#m6b7e8a555d" x="45" y="94.1625" style="stroke: #000000; stroke-width: 0.8"/>
      </g>
     </g>
     <g id="text_16">
      <!-- 40 -->
      <g transform="translate(25.275 97.961719)scale(0.1 -0.1)">
       <use xlink:href="#DejaVuSans-34"/>
       <use xlink:href="#DejaVuSans-30" x="63.623047"/>
      </g>
     </g>
    </g>
    <g id="ytick_8">
     <g id="line2d_16">
      <g>
       <use xlink:href="#m6b7e8a555d" x="45" y="60.1875" style="stroke: #000000; stroke-width: 0.8"/>
      </g>
     </g>
     <g id="text_17">
      <!-- 60 -->
      <g transform="translate(25.275 63.986719)scale(0.1 -0.1)">
       <use xlink:href="#DejaVuSans-36"/>
       <use xlink:href="#DejaVuSans-30" x="63.623047"/>
      </g>
     </g>
    </g>
    <g id="text_18">
     <!-- MYC -->
     <g transform="translate(10.815625 189.684375)rotate(-90)scale(0.1 -0.1)">
      <defs>
       <path id="DejaVuSans-59" d="M -13 4666 
L 666 4666 
L 1959 2747 
L 3244 4666 
L 3922 4666 
L 2272 2222 
L 2272 0 
L 1638 0 
L 1638 2222 
L -13 4666 
z
" transform="scale(0.015625)"/>
       <path id="DejaVuSans-43" d="M 4122 4306 
L 4122 3641 
Q 3803 3938 3442 4084 
Q 3081 4231 2675 4231 
Q 1875 4231 1450 3742 
Q 1025 3253 1025 2328 
Q 1025 1406 1450 917 
Q 1875 428 2675 428 
Q 3081 428 3442 575 
Q 3803 722 4122 1019 
L 4122 359 
Q 3791 134 3420 21 
Q 3050 -91 2638 -91 
Q 1578 -91 968 557 
Q 359 1206 359 2328 
Q 359 3453 968 4101 
Q 1578 4750 2638 4750 
Q 3056 4750 3426 4639 
Q 3797 4528 4122 4306 
z
" transform="scale(0.015625)"/>
      </defs>
      <use xlink:href="#DejaVuSans-4d"/>
      <use xlink:href="#DejaVuSans-59" x="86.279297"/>
      <use xlink:href="#DejaVuSans-43" x="141.863281"/>
     </g>
    </g>
   </g>
   <g id="line2d_17">
    <path d="M 60.055951 266.103698 
L 62.583045 264.324904 
L 65.110139 262.546111 
L 67.637233 260.767317 
L 70.164327 258.988524 
L 72.691421 257.20973 
L 75.218516 255.430937 
L 77.74561 253.652143 
L 80.272704 251.87335 
L 82.799798 250.094556 
L 85.326892 248.315763 
L 87.853986 246.536969 
L 90.38108 244.758176 
L 92.908175 242.979382 
L 95.435269 241.200589 
L 97.962363 239.421795 
L 100.489457 237.643002 
L 103.016551 235.864208 
L 105.543645 234.085415 
L 108.070739 232.306621 
L 110.597834 230.527828 
L 113.124928 228.749034 
L 115.652022 226.970241 
L 118.179116 225.191448 
L 120.70621 223.412654 
L 123.233304 221.633861 
L 125.760398 219.855067 
L 128.287493 218.076274 
L 130.814587 216.29748 
L 133.341681 214.518687 
L 135.868775 212.739893 
L 138.395869 210.9611 
L 140.922963 209.182306 
L 143.450057 207.403513 
L 145.977152 205.624719 
L 148.504246 203.845926 
L 151.03134 202.067132 
L 153.558434 200.288339 
L 156.085528 198.509545 
L 158.612622 196.730752 
L 161.139716 194.951958 
L 163.666811 193.173165 
L 166.193905 191.394371 
L 168.720999 189.615578 
L 171.248093 187.836784 
L 173.775187 186.057991 
L 176.302281 184.279197 
L 178.829375 182.500404 
L 181.35647 180.72161 
L 183.883564 178.942817 
L 186.410658 177.164023 
L 188.937752 175.38523 
L 191.464846 173.606436 
L 193.99194 171.827643 
L 196.519034 170.048849 
L 199.046129 168.270056 
L 201.573223 166.491262 
L 204.100317 164.712469 
L 206.627411 162.933675 
L 209.154505 161.154882 
L 211.681599 159.376088 
L 214.208693 157.597295 
L 216.735788 155.818501 
L 219.262882 154.039708 
L 221.789976 152.260914 
L 224.31707 150.482121 
L 226.844164 148.703327 
L 229.371258 146.924534 
L 231.898352 145.14574 
L 234.425447 143.366947 
L 236.952541 141.588153 
L 239.479635 139.80936 
L 242.006729 138.030566 
L 244.533823 136.251773 
L 247.060917 134.472979 
L 249.588011 132.694186 
L 252.115106 130.915392 
L 254.6422 129.136599 
L 257.169294 127.357805 
L 259.696388 125.579012 
L 262.223482 123.800219 
L 264.750576 122.021425 
L 267.27767 120.242632 
L 269.804765 118.463838 
L 272.331859 116.685045 
L 274.858953 114.906251 
L 277.386047 113.127458 
L 279.913141 111.348664 
L 282.440235 109.569871 
L 284.967329 107.791077 
L 287.494424 106.012284 
L 290.021518 104.23349 
L 292.548612 102.454697 
L 295.075706 100.675903 
L 297.6028 98.89711 
L 300.129894 97.118316 
L 302.656988 95.339523 
L 305.184083 93.560729 
L 307.711177 91.781936 
L 310.238271 90.003142 
" clip-path="url(#p1250445a02)" style="fill: none; stroke: #000000; stroke-width: 2.25; stroke-linecap: square"/>
   </g>
   <g id="patch_3">
    <path d="M 45 315 
L 45 43.2 
" style="fill: none; stroke: #000000; stroke-width: 0.8; stroke-linejoin: miter; stroke-linecap: square"/>
   </g>
   <g id="patch_4">
    <path d="M 324 315 
L 324 43.2 
" style="fill: none; stroke: #000000; stroke-width: 0.8; stroke-linejoin: miter; stroke-linecap: square"/>
   </g>
   <g id="patch_5">
    <path d="M 45 315 
L 324 315 
" style="fill: none; stroke: #000000; stroke-width: 0.8; stroke-linejoin: miter; stroke-linecap: square"/>
   </g>
   <g id="patch_6">
    <path d="M 45 43.2 
L 324 43.2 
" style="fill: none; stroke: #000000; stroke-width: 0.8; stroke-linejoin: miter; stroke-linecap: square"/>
   </g>
  </g>
 </g>
 <defs>
  <clipPath id="p1250445a02">
   <rect x="45" y="43.2" width="279" height="271.8"/>
  </clipPath>
 </defs>
</svg>
