<?xml version="1.0" encoding="utf-8" standalone="no"?>
<!DOCTYPE svg PUBLIC "-//W3C//DTD SVG 1.1//EN"
  "http://www.w3.org/Graphics/SVG/1.1/DTD/svg11.dtd">
<svg xmlns:xlink="http://www.w3.org/1999/xlink" width="360pt" height="360pt" viewBox="0 0 360 360" xmlns="http://www.w3.org/2000/svg" version="1.1">
 <metadata>
  <rdf:RDF xmlns:dc="http://purl.org/dc/elements/1.1/" xmlns:cc="http://creativecommons.org/ns#" xmlns:rdf="http://www.w3.org/1999/02/22-rdf-syntax-ns#">
   <cc:Work>
    <dc:type rdf:resource="http://purl.org/dc/dcmitype/StillImage"/>
    <dc:date>2023-01-01T18:35:00.056946</dc:date>
    <dc:format>image/svg+xml</dc:format>
    <dc:creator>
     <cc:Agent>
      <dc:title>Matplotlib v3.5.1, https://matplotlib.org/</dc:title>
     </cc:Agent>
    </dc:creator>
   </cc:Work>
  </rdf:RDF>
 </metadata>
 <defs>
  <style type="text/css">*{stroke-linejoin: round; stroke-linecap: butt}</style>
 </defs>
 <g id="figure_1">
  <g id="patch_1">
   <path d="M 0 360 
L 360 360 
L 360 0 
L 0 0 
L 0 360 
z
" style="fill: none"/>
  </g>
  <g id="axes_1">
   <g id="patch_2">
    <path d="M 45 315 
L 324 315 
L 324 43.2 
L 45 43.2 
z
" style="fill: #ffffff"/>
   </g>
   <g id="PolyCollection_1">
    <path d="M 60.055951 236.836426 
L 60.055951 277.457144 
L 62.583045 275.335505 
L 65.110139 273.198276 
L 67.637233 271.074147 
L 70.164327 268.947902 
L 72.691421 266.839341 
L 75.218516 264.73103 
L 77.74561 262.623507 
L 80.272704 260.496179 
L 82.799798 258.37065 
L 85.326892 256.29725 
L 87.853986 254.191374 
L 90.38108 252.092949 
L 92.908175 250.074433 
L 95.435269 248.006207 
L 97.962363 246.039763 
L 100.489457 244.007391 
L 103.016551 242.101553 
L 105.543645 240.263627 
L 108.070739 238.347588 
L 110.597834 236.482252 
L 113.124928 234.679606 
L 115.652022 232.82828 
L 118.179116 231.015749 
L 120.70621 229.174511 
L 123.233304 227.399974 
L 125.760398 225.562947 
L 128.287493 223.725199 
L 130.814587 221.891056 
L 133.341681 220.066007 
L 135.868775 218.289931 
L 138.395869 216.545744 
L 140.922963 214.732436 
L 143.450057 212.884424 
L 145.977152 211.073313 
L 148.504246 209.274399 
L 151.03134 207.480303 
L 153.558434 205.686566 
L 156.085528 203.905622 
L 158.612622 202.143838 
L 161.139716 200.369644 
L 163.666811 198.542405 
L 166.193905 196.747015 
L 168.720999 194.976949 
L 171.248093 193.173755 
L 173.775187 191.336677 
L 176.302281 189.542941 
L 178.829375 187.749205 
L 181.35647 185.955469 
L 183.883564 184.161733 
L 186.410658 182.36329 
L 188.937752 180.561568 
L 191.464846 178.759846 
L 193.99194 176.958124 
L 196.519034 175.156402 
L 199.046129 173.372441 
L 201.573223 171.592208 
L 204.100317 169.811974 
L 206.627411 168.030573 
L 209.154505 166.252306 
L 211.681599 164.43311 
L 214.208693 162.639725 
L 216.735788 160.848333 
L 219.262882 159.132911 
L 221.789976 157.362359 
L 224.31707 155.575644 
L 226.844164 153.792955 
L 229.371258 151.999138 
L 231.898352 150.234857 
L 234.425447 148.512821 
L 236.952541 146.786672 
L 239.479635 145.058812 
L 242.006729 143.333024 
L 244.533823 141.606323 
L 247.060917 139.882919 
L 249.588011 138.236604 
L 252.115106 136.593309 
L 254.6422 134.949835 
L 257.169294 133.296851 
L 259.696388 131.600759 
L 262.223482 129.851899 
L 264.750576 128.13796 
L 267.27767 126.527596 
L 269.804765 124.970536 
L 272.331859 123.451434 
L 274.858953 121.951753 
L 277.386047 120.558259 
L 279.913141 119.146907 
L 282.440235 117.719972 
L 284.967329 116.327897 
L 287.494424 114.946498 
L 290.021518 113.558552 
L 292.548612 112.172605 
L 295.075706 110.791176 
L 297.6028 109.403194 
L 300.129894 108.028709 
L 302.656988 106.647559 
L 305.184083 105.247414 
L 307.711177 103.876331 
L 310.238271 102.489212 
L 310.238271 65.641264 
L 310.238271 65.641264 
L 307.711177 67.7786 
L 305.184083 69.916198 
L 302.656988 72.053795 
L 300.129894 74.191392 
L 297.6028 76.328989 
L 295.075706 78.466586 
L 292.548612 80.601665 
L 290.021518 82.73669 
L 287.494424 84.871715 
L 284.967329 87.00674 
L 282.440235 89.141764 
L 279.913141 91.276789 
L 277.386047 93.411814 
L 274.858953 95.546839 
L 272.331859 97.681864 
L 269.804765 99.816889 
L 267.27767 101.951914 
L 264.750576 104.086939 
L 262.223482 106.219337 
L 259.696388 108.344361 
L 257.169294 110.469384 
L 254.6422 112.594408 
L 252.115106 114.719468 
L 249.588011 116.844581 
L 247.060917 118.969695 
L 244.533823 121.094808 
L 242.006729 123.219922 
L 239.479635 125.345036 
L 236.952541 127.470149 
L 234.425447 129.595263 
L 231.898352 131.720377 
L 229.371258 133.856751 
L 226.844164 135.996095 
L 224.31707 138.135455 
L 221.789976 140.275083 
L 219.262882 142.414711 
L 216.735788 144.554339 
L 214.208693 146.693967 
L 211.681599 148.833595 
L 209.154505 150.973223 
L 206.627411 153.112851 
L 204.100317 155.252655 
L 201.573223 157.392507 
L 199.046129 159.532359 
L 196.519034 161.672211 
L 193.99194 163.728123 
L 191.464846 165.52672 
L 188.937752 167.171594 
L 186.410658 168.69505 
L 183.883564 170.222953 
L 181.35647 171.586846 
L 178.829375 172.944923 
L 176.302281 174.303001 
L 173.775187 175.661078 
L 171.248093 177.019155 
L 168.720999 178.377232 
L 166.193905 179.700506 
L 163.666811 181.060092 
L 161.139716 182.420939 
L 158.612622 183.781786 
L 156.085528 185.142633 
L 153.558434 186.50348 
L 151.03134 187.864327 
L 148.504246 189.225174 
L 145.977152 190.586021 
L 143.450057 191.946868 
L 140.922963 193.307715 
L 138.395869 194.668748 
L 135.868775 196.027791 
L 133.341681 197.385991 
L 130.814587 198.744192 
L 128.287493 200.102392 
L 125.760398 201.460593 
L 123.233304 202.818793 
L 120.70621 204.176994 
L 118.179116 205.535194 
L 115.652022 206.893395 
L 113.124928 208.251595 
L 110.597834 209.609796 
L 108.070739 210.967996 
L 105.543645 212.326197 
L 103.016551 213.684397 
L 100.489457 215.042598 
L 97.962363 216.400798 
L 95.435269 217.758998 
L 92.908175 219.117199 
L 90.38108 220.475399 
L 87.853986 221.8336 
L 85.326892 223.1918 
L 82.799798 224.550001 
L 80.272704 225.90967 
L 77.74561 227.275514 
L 75.218516 228.641359 
L 72.691421 230.007203 
L 70.164327 231.373048 
L 67.637233 232.738892 
L 65.110139 234.104737 
L 62.583045 235.470581 
L 60.055951 236.836426 
z
" clip-path="url(#pfd11911e74)" style="fill-opacity: 0.15"/>
   </g>
   <g id="matplotlib.axis_1">
    <g id="xtick_1">
     <g id="line2d_1">
      <defs>
       <path id="mf9ba77bc39" d="M 0 0 
L 0 3.5 
" style="stroke: #000000; stroke-width: 0.8"/>
      </defs>
      <g>
       <use xlink:href="#mf9ba77bc39" x="62.4375" y="315" style="stroke: #000000; stroke-width: 0.8"/>
      </g>
     </g>
     <g id="text_1">
      <!-- −80 -->
      <g transform="translate(51.885156 329.598437)scale(0.1 -0.1)">
       <defs>
        <path id="DejaVuSans-2212" d="M 678 2272 
L 4684 2272 
L 4684 1741 
L 678 1741 
L 678 2272 
z
" transform="scale(0.015625)"/>
        <path id="DejaVuSans-38" d="M 2034 2216 
Q 1584 2216 1326 1975 
Q 1069 1734 1069 1313 
Q 1069 891 1326 650 
Q 1584 409 2034 409 
Q 2484 409 2743 651 
Q 3003 894 3003 1313 
Q 3003 1734 2745 1975 
Q 2488 2216 2034 2216 
z
M 1403 2484 
Q 997 2584 770 2862 
Q 544 3141 544 3541 
Q 544 4100 942 4425 
Q 1341 4750 2034 4750 
Q 2731 4750 3128 4425 
Q 3525 4100 3525 3541 
Q 3525 3141 3298 2862 
Q 3072 2584 2669 2484 
Q 3125 2378 3379 2068 
Q 3634 1759 3634 1313 
Q 3634 634 3220 271 
Q 2806 -91 2034 -91 
Q 1263 -91 848 271 
Q 434 634 434 1313 
Q 434 1759 690 2068 
Q 947 2378 1403 2484 
z
M 1172 3481 
Q 1172 3119 1398 2916 
Q 1625 2713 2034 2713 
Q 2441 2713 2670 2916 
Q 2900 3119 2900 3481 
Q 2900 3844 2670 4047 
Q 2441 4250 2034 4250 
Q 1625 4250 1398 4047 
Q 1172 3844 1172 3481 
z
" transform="scale(0.015625)"/>
        <path id="DejaVuSans-30" d="M 2034 4250 
Q 1547 4250 1301 3770 
Q 1056 3291 1056 2328 
Q 1056 1369 1301 889 
Q 1547 409 2034 409 
Q 2525 409 2770 889 
Q 3016 1369 3016 2328 
Q 3016 3291 2770 3770 
Q 2525 4250 2034 4250 
z
M 2034 4750 
Q 2819 4750 3233 4129 
Q 3647 3509 3647 2328 
Q 3647 1150 3233 529 
Q 2819 -91 2034 -91 
Q 1250 -91 836 529 
Q 422 1150 422 2328 
Q 422 3509 836 4129 
Q 1250 4750 2034 4750 
z
" transform="scale(0.015625)"/>
       </defs>
       <use xlink:href="#DejaVuSans-2212"/>
       <use xlink:href="#DejaVuSans-38" x="83.789062"/>
       <use xlink:href="#DejaVuSans-30" x="147.412109"/>
      </g>
     </g>
    </g>
    <g id="xtick_2">
     <g id="line2d_2">
      <g>
       <use xlink:href="#mf9ba77bc39" x="97.3125" y="315" style="stroke: #000000; stroke-width: 0.8"/>
      </g>
     </g>
     <g id="text_2">
      <!-- −60 -->
      <g transform="translate(86.760156 329.598437)scale(0.1 -0.1)">
       <defs>
        <path id="DejaVuSans-36" d="M 2113 2584 
Q 1688 2584 1439 2293 
Q 1191 2003 1191 1497 
Q 1191 994 1439 701 
Q 1688 409 2113 409 
Q 2538 409 2786 701 
Q 3034 994 3034 1497 
Q 3034 2003 2786 2293 
Q 2538 2584 2113 2584 
z
M 3366 4563 
L 3366 3988 
Q 3128 4100 2886 4159 
Q 2644 4219 2406 4219 
Q 1781 4219 1451 3797 
Q 1122 3375 1075 2522 
Q 1259 2794 1537 2939 
Q 1816 3084 2150 3084 
Q 2853 3084 3261 2657 
Q 3669 2231 3669 1497 
Q 3669 778 3244 343 
Q 2819 -91 2113 -91 
Q 1303 -91 875 529 
Q 447 1150 447 2328 
Q 447 3434 972 4092 
Q 1497 4750 2381 4750 
Q 2619 4750 2861 4703 
Q 3103 4656 3366 4563 
z
" transform="scale(0.015625)"/>
       </defs>
       <use xlink:href="#DejaVuSans-2212"/>
       <use xlink:href="#DejaVuSans-36" x="83.789062"/>
       <use xlink:href="#DejaVuSans-30" x="147.412109"/>
      </g>
     </g>
    </g>
    <g id="xtick_3">
     <g id="line2d_3">
      <g>
       <use xlink:href="#mf9ba77bc39" x="132.1875" y="315" style="stroke: #000000; stroke-width: 0.8"/>
      </g>
     </g>
     <g id="text_3">
      <!-- −40 -->
      <g transform="translate(121.635156 329.598437)scale(0.1 -0.1)">
       <defs>
        <path id="DejaVuSans-34" d="M 2419 4116 
L 825 1625 
L 2419 1625 
L 2419 4116 
z
M 2253 4666 
L 3047 4666 
L 3047 1625 
L 3713 1625 
L 3713 1100 
L 3047 1100 
L 3047 0 
L 2419 0 
L 2419 1100 
L 313 1100 
L 313 1709 
L 2253 4666 
z
" transform="scale(0.015625)"/>
       </defs>
       <use xlink:href="#DejaVuSans-2212"/>
       <use xlink:href="#DejaVuSans-34" x="83.789062"/>
       <use xlink:href="#DejaVuSans-30" x="147.412109"/>
      </g>
     </g>
    </g>
    <g id="xtick_4">
     <g id="line2d_4">
      <g>
       <use xlink:href="#mf9ba77bc39" x="167.0625" y="315" style="stroke: #000000; stroke-width: 0.8"/>
      </g>
     </g>
     <g id="text_4">
      <!-- −20 -->
      <g transform="translate(156.510156 329.598437)scale(0.1 -0.1)">
       <defs>
        <path id="DejaVuSans-32" d="M 1228 531 
L 3431 531 
L 3431 0 
L 469 0 
L 469 531 
Q 828 903 1448 1529 
Q 2069 2156 2228 2338 
Q 2531 2678 2651 2914 
Q 2772 3150 2772 3378 
Q 2772 3750 2511 3984 
Q 2250 4219 1831 4219 
Q 1534 4219 1204 4116 
Q 875 4013 500 3803 
L 500 4441 
Q 881 4594 1212 4672 
Q 1544 4750 1819 4750 
Q 2544 4750 2975 4387 
Q 3406 4025 3406 3419 
Q 3406 3131 3298 2873 
Q 3191 2616 2906 2266 
Q 2828 2175 2409 1742 
Q 1991 1309 1228 531 
z
" transform="scale(0.015625)"/>
       </defs>
       <use xlink:href="#DejaVuSans-2212"/>
       <use xlink:href="#DejaVuSans-32" x="83.789062"/>
       <use xlink:href="#DejaVuSans-30" x="147.412109"/>
      </g>
     </g>
    </g>
    <g id="xtick_5">
     <g id="line2d_5">
      <g>
       <use xlink:href="#mf9ba77bc39" x="201.9375" y="315" style="stroke: #000000; stroke-width: 0.8"/>
      </g>
     </g>
     <g id="text_5">
      <!-- 0 -->
      <g transform="translate(198.75625 329.598437)scale(0.1 -0.1)">
       <use xlink:href="#DejaVuSans-30"/>
      </g>
     </g>
    </g>
    <g id="xtick_6">
     <g id="line2d_6">
      <g>
       <use xlink:href="#mf9ba77bc39" x="236.8125" y="315" style="stroke: #000000; stroke-width: 0.8"/>
      </g>
     </g>
     <g id="text_6">
      <!-- 20 -->
      <g transform="translate(230.45 329.598437)scale(0.1 -0.1)">
       <use xlink:href="#DejaVuSans-32"/>
       <use xlink:href="#DejaVuSans-30" x="63.623047"/>
      </g>
     </g>
    </g>
    <g id="xtick_7">
     <g id="line2d_7">
      <g>
       <use xlink:href="#mf9ba77bc39" x="271.6875" y="315" style="stroke: #000000; stroke-width: 0.8"/>
      </g>
     </g>
     <g id="text_7">
      <!-- 40 -->
      <g transform="translate(265.325 329.598437)scale(0.1 -0.1)">
       <use xlink:href="#DejaVuSans-34"/>
       <use xlink:href="#DejaVuSans-30" x="63.623047"/>
      </g>
     </g>
    </g>
    <g id="xtick_8">
     <g id="line2d_8">
      <g>
       <use xlink:href="#mf9ba77bc39" x="306.5625" y="315" style="stroke: #000000; stroke-width: 0.8"/>
      </g>
     </g>
     <g id="text_8">
      <!-- 60 -->
      <g transform="translate(300.2 329.598437)scale(0.1 -0.1)">
       <use xlink:href="#DejaVuSans-36"/>
       <use xlink:href="#DejaVuSans-30" x="63.623047"/>
      </g>
     </g>
    </g>
    <g id="text_9">
     <!-- MITF -->
     <g transform="translate(172.78125 343.276563)scale(0.1 -0.1)">
      <defs>
       <path id="DejaVuSans-4d" d="M 628 4666 
L 1569 4666 
L 2759 1491 
L 3956 4666 
L 4897 4666 
L 4897 0 
L 4281 0 
L 4281 4097 
L 3078 897 
L 2444 897 
L 1241 4097 
L 1241 0 
L 628 0 
L 628 4666 
z
" transform="scale(0.015625)"/>
       <path id="DejaVuSans-49" d="M 628 4666 
L 1259 4666 
L 1259 0 
L 628 0 
L 628 4666 
z
" transform="scale(0.015625)"/>
       <path id="DejaVuSans-54" d="M -19 4666 
L 3928 4666 
L 3928 4134 
L 2272 4134 
L 2272 0 
L 1638 0 
L 1638 4134 
L -19 4134 
L -19 4666 
z
" transform="scale(0.015625)"/>
       <path id="DejaVuSans-46" d="M 628 4666 
L 3309 4666 
L 3309 4134 
L 1259 4134 
L 1259 2759 
L 3109 2759 
L 3109 2228 
L 1259 2228 
L 1259 0 
L 628 0 
L 628 4666 
z
" transform="scale(0.015625)"/>
      </defs>
      <use xlink:href="#DejaVuSans-4d"/>
      <use xlink:href="#DejaVuSans-49" x="86.279297"/>
      <use xlink:href="#DejaVuSans-54" x="115.771484"/>
      <use xlink:href="#DejaVuSans-46" x="176.855469"/>
     </g>
    </g>
   </g>
   <g id="matplotlib.axis_2">
    <g id="ytick_1">
     <g id="line2d_9">
      <defs>
       <path id="m363b8a84bd" d="M 0 0 
L -3.5 0 
" style="stroke: #000000; stroke-width: 0.8"/>
      </defs>
      <g>
       <use xlink:href="#m363b8a84bd" x="45" y="298.0125" style="stroke: #000000; stroke-width: 0.8"/>
      </g>
     </g>
     <g id="text_10">
      <!-- −80 -->
      <g transform="translate(16.895312 301.811719)scale(0.1 -0.1)">
       <use xlink:href="#DejaVuSans-2212"/>
       <use xlink:href="#DejaVuSans-38" x="83.789062"/>
       <use xlink:href="#DejaVuSans-30" x="147.412109"/>
      </g>
     </g>
    </g>
    <g id="ytick_2">
     <g id="line2d_10">
      <g>
       <use xlink:href="#m363b8a84bd" x="45" y="264.0375" style="stroke: #000000; stroke-width: 0.8"/>
      </g>
     </g>
     <g id="text_11">
      <!-- −60 -->
      <g transform="translate(16.895312 267.836719)scale(0.1 -0.1)">
       <use xlink:href="#DejaVuSans-2212"/>
       <use xlink:href="#DejaVuSans-36" x="83.789062"/>
       <use xlink:href="#DejaVuSans-30" x="147.412109"/>
      </g>
     </g>
    </g>
    <g id="ytick_3">
     <g id="line2d_11">
      <g>
       <use xlink:href="#m363b8a84bd" x="45" y="230.0625" style="stroke: #000000; stroke-width: 0.8"/>
      </g>
     </g>
     <g id="text_12">
      <!-- −40 -->
      <g transform="translate(16.895312 233.861719)scale(0.1 -0.1)">
       <use xlink:href="#DejaVuSans-2212"/>
       <use xlink:href="#DejaVuSans-34" x="83.789062"/>
       <use xlink:href="#DejaVuSans-30" x="147.412109"/>
      </g>
     </g>
    </g>
    <g id="ytick_4">
     <g id="line2d_12">
      <g>
       <use xlink:href="#m363b8a84bd" x="45" y="196.0875" style="stroke: #000000; stroke-width: 0.8"/>
      </g>
     </g>
     <g id="text_13">
      <!-- −20 -->
      <g transform="translate(16.895312 199.886719)scale(0.1 -0.1)">
       <use xlink:href="#DejaVuSans-2212"/>
       <use xlink:href="#DejaVuSans-32" x="83.789062"/>
       <use xlink:href="#DejaVuSans-30" x="147.412109"/>
      </g>
     </g>
    </g>
    <g id="ytick_5">
     <g id="line2d_13">
      <g>
       <use xlink:href="#m363b8a84bd" x="45" y="162.1125" style="stroke: #000000; stroke-width: 0.8"/>
      </g>
     </g>
     <g id="text_14">
      <!-- 0 -->
      <g transform="translate(31.6375 165.911719)scale(0.1 -0.1)">
       <use xlink:href="#DejaVuSans-30"/>
      </g>
     </g>
    </g>
    <g id="ytick_6">
     <g id="line2d_14">
      <g>
       <use xlink:href="#m363b8a84bd" x="45" y="128.1375" style="stroke: #000000; stroke-width: 0.8"/>
      </g>
     </g>
     <g id="text_15">
      <!-- 20 -->
      <g transform="translate(25.275 131.936719)scale(0.1 -0.1)">
       <use xlink:href="#DejaVuSans-32"/>
       <use xlink:href="#DejaVuSans-30" x="63.623047"/>
      </g>
     </g>
    </g>
    <g id="ytick_7">
     <g id="line2d_15">
      <g>
       <use xlink:href="#m363b8a84bd" x="45" y="94.1625" style="stroke: #000000; stroke-width: 0.8"/>
      </g>
     </g>
     <g id="text_16">
      <!-- 40 -->
      <g transform="translate(25.275 97.961719)scale(0.1 -0.1)">
       <use xlink:href="#DejaVuSans-34"/>
       <use xlink:href="#DejaVuSans-30" x="63.623047"/>
      </g>
     </g>
    </g>
    <g id="ytick_8">
     <g id="line2d_16">
      <g>
       <use xlink:href="#m363b8a84bd" x="45" y="60.1875" style="stroke: #000000; stroke-width: 0.8"/>
      </g>
     </g>
     <g id="text_17">
      <!-- 60 -->
      <g transform="translate(25.275 63.986719)scale(0.1 -0.1)">
       <use xlink:href="#DejaVuSans-36"/>
       <use xlink:href="#DejaVuSans-30" x="63.623047"/>
      </g>
     </g>
    </g>
    <g id="text_18">
     <!-- MYC -->
     <g transform="translate(10.815625 189.684375)rotate(-90)scale(0.1 -0.1)">
      <defs>
       <path id="DejaVuSans-59" d="M -13 4666 
L 666 4666 
L 1959 2747 
L 3244 4666 
L 3922 4666 
L 2272 2222 
L 2272 0 
L 1638 0 
L 1638 2222 
L -13 4666 
z
" transform="scale(0.015625)"/>
       <path id="DejaVuSans-43" d="M 4122 4306 
L 4122 3641 
Q 3803 3938 3442 4084 
Q 3081 4231 2675 4231 
Q 1875 4231 1450 3742 
Q 1025 3253 1025 2328 
Q 1025 1406 1450 917 
Q 1875 428 2675 428 
Q 3081 428 3442 575 
Q 3803 722 4122 1019 
L 4122 359 
Q 3791 134 3420 21 
Q 3050 -91 2638 -91 
Q 1578 -91 968 557 
Q 359 1206 359 2328 
Q 359 3453 968 4101 
Q 1578 4750 2638 4750 
Q 3056 4750 3426 4639 
Q 3797 4528 4122 4306 
z
" transform="scale(0.015625)"/>
      </defs>
      <use xlink:href="#DejaVuSans-4d"/>
      <use xlink:href="#DejaVuSans-59" x="86.279297"/>
      <use xlink:href="#DejaVuSans-43" x="141.863281"/>
     </g>
    </g>
   </g>
   <g id="line2d_17">
    <path d="M 60.055951 266.103698 
L 62.583045 264.324904 
L 65.110139 262.546111 
L 67.637233 260.767317 
L 70.164327 258.988524 
L 72.691421 257.20973 
L 75.218516 255.430937 
L 77.74561 253.652143 
L 80.272704 251.87335 
L 82.799798 250.094556 
L 85.326892 248.315763 
L 87.853986 246.536969 
L 90.38108 244.758176 
L 92.908175 242.979382 
L 95.435269 241.200589 
L 97.962363 239.421795 
L 100.489457 237.643002 
L 103.016551 235.864208 
L 105.543645 234.085415 
L 108.070739 232.306621 
L 110.597834 230.527828 
L 113.124928 228.749034 
L 115.652022 226.970241 
L 118.179116 225.191448 
L 120.70621 223.412654 
L 123.233304 221.633861 
L 125.760398 219.855067 
L 128.287493 218.076274 
L 130.814587 216.29748 
L 133.341681 214.518687 
L 135.868775 212.739893 
L 138.395869 210.9611 
L 140.922963 209.182306 
L 143.450057 207.403513 
L 145.977152 205.624719 
L 148.504246 203.845926 
L 151.03134 202.067132 
L 153.558434 200.288339 
L 156.085528 198.509545 
L 158.612622 196.730752 
L 161.139716 194.951958 
L 163.666811 193.173165 
L 166.193905 191.394371 
L 168.720999 189.615578 
L 171.248093 187.836784 
L 173.775187 186.057991 
L 176.302281 184.279197 
L 178.829375 182.500404 
L 181.35647 180.72161 
L 183.883564 178.942817 
L 186.410658 177.164023 
L 188.937752 175.38523 
L 191.464846 173.606436 
L 193.99194 171.827643 
L 196.519034 170.048849 
L 199.046129 168.270056 
L 201.573223 166.491262 
L 204.100317 164.712469 
L 206.627411 162.933675 
L 209.154505 161.154882 
L 211.681599 159.376088 
L 214.208693 157.597295 
L 216.735788 155.818501 
L 219.262882 154.039708 
L 221.789976 152.260914 
L 224.31707 150.482121 
L 226.844164 148.703327 
L 229.371258 146.924534 
L 231.898352 145.14574 
L 234.425447 143.366947 
L 236.952541 141.588153 
L 239.479635 139.80936 
L 242.006729 138.030566 
L 244.533823 136.251773 
L 247.060917 134.472979 
L 249.588011 132.694186 
L 252.115106 130.915392 
L 254.6422 129.136599 
L 257.169294 127.357805 
L 259.696388 125.579012 
L 262.223482 123.800219 
L 264.750576 122.021425 
L 267.27767 120.242632 
L 269.804765 118.463838 
L 272.331859 116.685045 
L 274.858953 114.906251 
L 277.386047 113.127458 
L 279.913141 111.348664 
L 282.440235 109.569871 
L 284.967329 107.791077 
L 287.494424 106.012284 
L 290.021518 104.23349 
L 292.548612 102.454697 
L 295.075706 100.675903 
L 297.6028 98.89711 
L 300.129894 97.118316 
L 302.656988 95.339523 
L 305.184083 93.560729 
L 307.711177 91.781936 
L 310.238271 90.003142 
" clip-path="url(#pfd11911e74)" style="fill: none; stroke: #000000; stroke-width: 2.25; stroke-linecap: square"/>
   </g>
   <g id="patch_3">
    <path d="M 45 315 
L 45 43.2 
" style="fill: none; stroke: #000000; stroke-width: 0.8; stroke-linejoin: miter; stroke-linecap: square"/>
   </g>
   <g id="patch_4">
    <path d="M 324 315 
L 324 43.2 
" style="fill: none; stroke: #000000; stroke-width: 0.8; stroke-linejoin: miter; stroke-linecap: square"/>
   </g>
   <g id="patch_5">
    <path d="M 45 315 
L 324 315 
" style="fill: none; stroke: #000000; stroke-width: 0.8; stroke-linejoin: miter; stroke-linecap: square"/>
   </g>
   <g id="patch_6">
    <path d="M 45 43.2 
L 324 43.2 
" style="fill: none; stroke: #000000; stroke-width: 0.8; stroke-linejoin: miter; stroke-linecap: square"/>
   </g>
   <g id="text_19">
    <!-- 1 -->
    <g transform="translate(180.243543 174.201716)scale(0.1 -0.1)">
     <defs>
      <path id="DejaVuSans-31" d="M 794 531 
L 1825 531 
L 1825 4091 
L 703 3866 
L 703 4441 
L 1819 4666 
L 2450 4666 
L 2450 531 
L 3481 531 
L 3481 0 
L 794 0 
L 794 531 
z
" transform="scale(0.015625)"/>
     </defs>
     <use xlink:href="#DejaVuSans-31"/>
    </g>
   </g>
   <g id="text_20">
    <!-- 2 -->
    <g transform="translate(310.238271 102.371938)scale(0.1 -0.1)">
     <use xlink:href="#DejaVuSans-32"/>
    </g>
   </g>
   <g id="text_21">
    <!-- 3 -->
    <g transform="translate(60.122184 276.618231)scale(0.1 -0.1)">
     <defs>
      <path id="DejaVuSans-33" d="M 2597 2516 
Q 3050 2419 3304 2112 
Q 3559 1806 3559 1356 
Q 3559 666 3084 287 
Q 2609 -91 1734 -91 
Q 1441 -91 1130 -33 
Q 819 25 488 141 
L 488 750 
Q 750 597 1062 519 
Q 1375 441 1716 441 
Q 2309 441 2620 675 
Q 2931 909 2931 1356 
Q 2931 1769 2642 2001 
Q 2353 2234 1838 2234 
L 1294 2234 
L 1294 2753 
L 1863 2753 
Q 2328 2753 2575 2939 
Q 2822 3125 2822 3475 
Q 2822 3834 2567 4026 
Q 2313 4219 1838 4219 
Q 1578 4219 1281 4162 
Q 984 4106 628 3988 
L 628 4550 
Q 988 4650 1302 4700 
Q 1616 4750 1894 4750 
Q 2613 4750 3031 4423 
Q 3450 4097 3450 3541 
Q 3450 3153 3228 2886 
Q 3006 2619 2597 2516 
z
" transform="scale(0.015625)"/>
     </defs>
     <use xlink:href="#DejaVuSans-33"/>
    </g>
   </g>
   <g id="text_22">
    <!-- 4 -->
    <g transform="translate(199.004921 166.205521)scale(0.1 -0.1)">
     <use xlink:href="#DejaVuSans-34"/>
    </g>
   </g>
   <g id="text_23">
    <!-- 5 -->
    <g transform="translate(199.007162 164.610991)scale(0.1 -0.1)">
     <defs>
      <path id="DejaVuSans-35" d="M 691 4666 
L 3169 4666 
L 3169 4134 
L 1269 4134 
L 1269 2991 
Q 1406 3038 1543 3061 
Q 1681 3084 1819 3084 
Q 2600 3084 3056 2656 
Q 3513 2228 3513 1497 
Q 3513 744 3044 326 
Q 2575 -91 1722 -91 
Q 1428 -91 1123 -41 
Q 819 9 494 109 
L 494 744 
Q 775 591 1075 516 
Q 1375 441 1709 441 
Q 2250 441 2565 725 
Q 2881 1009 2881 1497 
Q 2881 1984 2565 2268 
Q 2250 2553 1709 2553 
Q 1456 2553 1204 2497 
Q 953 2441 691 2322 
L 691 4666 
z
" transform="scale(0.015625)"/>
     </defs>
     <use xlink:href="#DejaVuSans-35"/>
    </g>
   </g>
   <g id="text_24">
    <!-- 6 -->
    <g transform="translate(200.75675 160.68113)scale(0.1 -0.1)">
     <use xlink:href="#DejaVuSans-36"/>
    </g>
   </g>
   <g id="text_25">
    <!-- 7 -->
    <g transform="translate(193.131282 161.054794)scale(0.1 -0.1)">
     <defs>
      <path id="DejaVuSans-37" d="M 525 4666 
L 3525 4666 
L 3525 4397 
L 1831 0 
L 1172 0 
L 2766 4134 
L 525 4134 
L 525 4666 
z
" transform="scale(0.015625)"/>
     </defs>
     <use xlink:href="#DejaVuSans-37"/>
    </g>
   </g>
   <g id="text_26">
    <!-- 8 -->
    <g transform="translate(191.985614 164.004843)scale(0.1 -0.1)">
     <use xlink:href="#DejaVuSans-38"/>
    </g>
   </g>
   <g id="text_27">
    <!-- 9 -->
    <g transform="translate(60.055951 278.190051)scale(0.1 -0.1)">
     <defs>
      <path id="DejaVuSans-39" d="M 703 97 
L 703 672 
Q 941 559 1184 500 
Q 1428 441 1663 441 
Q 2288 441 2617 861 
Q 2947 1281 2994 2138 
Q 2813 1869 2534 1725 
Q 2256 1581 1919 1581 
Q 1219 1581 811 2004 
Q 403 2428 403 3163 
Q 403 3881 828 4315 
Q 1253 4750 1959 4750 
Q 2769 4750 3195 4129 
Q 3622 3509 3622 2328 
Q 3622 1225 3098 567 
Q 2575 -91 1691 -91 
Q 1453 -91 1209 -44 
Q 966 3 703 97 
z
M 1959 2075 
Q 2384 2075 2632 2365 
Q 2881 2656 2881 3163 
Q 2881 3666 2632 3958 
Q 2384 4250 1959 4250 
Q 1534 4250 1286 3958 
Q 1038 3666 1038 3163 
Q 1038 2656 1286 2365 
Q 1534 2075 1959 2075 
z
" transform="scale(0.015625)"/>
     </defs>
     <use xlink:href="#DejaVuSans-39"/>
    </g>
   </g>
   <g id="text_28">
    <!-- 10 -->
    <g transform="translate(310.238271 102.371938)scale(0.1 -0.1)">
     <use xlink:href="#DejaVuSans-31"/>
     <use xlink:href="#DejaVuSans-30" x="63.623047"/>
    </g>
   </g>
   <g id="text_29">
    <!-- 11 -->
    <g transform="translate(180.243543 174.201716)scale(0.1 -0.1)">
     <use xlink:href="#DejaVuSans-31"/>
     <use xlink:href="#DejaVuSans-31" x="63.623047"/>
    </g>
   </g>
  </g>
 </g>
 <defs>
  <clipPath id="pfd11911e74">
   <rect x="45" y="43.2" width="279" height="271.8"/>
  </clipPath>
 </defs>
</svg>
