<?xml version="1.0" encoding="utf-8" standalone="no"?>
<!DOCTYPE svg PUBLIC "-//W3C//DTD SVG 1.1//EN"
  "http://www.w3.org/Graphics/SVG/1.1/DTD/svg11.dtd">
<svg xmlns:xlink="http://www.w3.org/1999/xlink" width="720pt" height="720pt" viewBox="0 0 720 720" xmlns="http://www.w3.org/2000/svg" version="1.1">
 <metadata>
  <rdf:RDF xmlns:dc="http://purl.org/dc/elements/1.1/" xmlns:cc="http://creativecommons.org/ns#" xmlns:rdf="http://www.w3.org/1999/02/22-rdf-syntax-ns#">
   <cc:Work>
    <dc:type rdf:resource="http://purl.org/dc/dcmitype/StillImage"/>
    <dc:date>2022-12-14T17:07:46.499013</dc:date>
    <dc:format>image/svg+xml</dc:format>
    <dc:creator>
     <cc:Agent>
      <dc:title>Matplotlib v3.5.1, https://matplotlib.org/</dc:title>
     </cc:Agent>
    </dc:creator>
   </cc:Work>
  </rdf:RDF>
 </metadata>
 <defs>
  <style type="text/css">*{stroke-linejoin: round; stroke-linecap: butt}</style>
 </defs>
 <g id="figure_1">
  <g id="patch_1">
   <path d="M 0 720 
L 720 720 
L 720 0 
L 0 0 
L 0 720 
z
" style="fill: none"/>
  </g>
  <g id="axes_1">
   <g id="patch_2">
    <path d="M 90 630 
L 648 630 
L 648 86.4 
L 90 86.4 
z
" style="fill: #ffffff"/>
   </g>
   <g id="PathCollection_1">
    <defs>
     <path id="mc14dfbf67f" d="M 0 -3 
L -3 3 
L 3 3 
z
" style="stroke: #000000; stroke-opacity: 0.5"/>
    </defs>
    <g clip-path="url(#p45cf54e3f9)">
     <use xlink:href="#mc14dfbf67f" x="377.512915" y="367.996567" style="fill-opacity: 0.5; stroke: #000000; stroke-opacity: 0.5"/>
     <use xlink:href="#mc14dfbf67f" x="117.523458" y="511.656123" style="fill-opacity: 0.5; stroke: #000000; stroke-opacity: 0.5"/>
     <use xlink:href="#mc14dfbf67f" x="617.755631" y="163.163538" style="fill-opacity: 0.5; stroke: #000000; stroke-opacity: 0.5"/>
     <use xlink:href="#mc14dfbf67f" x="339.990158" y="383.988957" style="fill-opacity: 0.5; stroke: #000000; stroke-opacity: 0.5"/>
     <use xlink:href="#mc14dfbf67f" x="339.985676" y="387.178018" style="fill-opacity: 0.5; stroke: #000000; stroke-opacity: 0.5"/>
     <use xlink:href="#mc14dfbf67f" x="336.486501" y="395.03774" style="fill-opacity: 0.5; stroke: #000000; stroke-opacity: 0.5"/>
     <use xlink:href="#mc14dfbf67f" x="351.737436" y="394.290412" style="fill-opacity: 0.5; stroke: #000000; stroke-opacity: 0.5"/>
     <use xlink:href="#mc14dfbf67f" x="354.028773" y="388.390313" style="fill-opacity: 0.5; stroke: #000000; stroke-opacity: 0.5"/>
     <use xlink:href="#mc14dfbf67f" x="617.888099" y="160.019898" style="fill-opacity: 0.5; stroke: #000000; stroke-opacity: 0.5"/>
     <use xlink:href="#mc14dfbf67f" x="117.523458" y="511.656123" style="fill-opacity: 0.5; stroke: #000000; stroke-opacity: 0.5"/>
     <use xlink:href="#mc14dfbf67f" x="377.512915" y="367.996567" style="fill-opacity: 0.5; stroke: #000000; stroke-opacity: 0.5"/>
    </g>
   </g>
   <g id="PolyCollection_1">
    <path d="M 117.523458 511.44453 
L 117.523458 585.518337 
L 122.577647 581.224012 
L 127.631835 576.929686 
L 132.686023 572.635361 
L 137.740211 568.341035 
L 142.7944 564.058472 
L 147.848588 559.783825 
L 152.902776 555.509179 
L 157.956965 551.234532 
L 163.011153 546.959885 
L 168.065341 542.685239 
L 173.119529 538.410592 
L 178.173718 534.135945 
L 183.227906 529.861299 
L 188.282094 525.586652 
L 193.336283 521.312005 
L 198.390471 517.037359 
L 203.444659 512.762712 
L 208.498847 508.488065 
L 213.553036 504.213419 
L 218.607224 499.938772 
L 223.661412 495.664125 
L 228.715601 491.389479 
L 233.769789 487.111203 
L 238.823977 482.815294 
L 243.878165 478.519385 
L 248.932354 474.223476 
L 253.986542 469.927567 
L 259.04073 465.631657 
L 264.094919 461.335748 
L 269.149107 457.039839 
L 274.203295 452.74393 
L 279.257483 448.448021 
L 284.311672 444.152112 
L 289.36586 439.892533 
L 294.420048 435.648189 
L 299.474237 431.403845 
L 304.528425 427.159501 
L 309.582613 422.915156 
L 314.636801 418.670812 
L 319.69099 414.426468 
L 324.745178 410.181379 
L 329.799366 405.907577 
L 334.853555 401.632306 
L 339.907743 397.345468 
L 344.961931 393.087265 
L 350.016119 388.927922 
L 355.070308 385.333946 
L 360.124496 381.933335 
L 365.178684 378.598926 
L 370.232873 375.492818 
L 375.287061 372.767168 
L 380.341249 370.041517 
L 385.395437 367.315867 
L 390.449626 364.590217 
L 395.503814 361.864566 
L 400.558002 359.162134 
L 405.612191 356.506273 
L 410.666379 353.787525 
L 415.720567 351.068777 
L 420.774755 348.350029 
L 425.828944 345.631282 
L 430.883132 342.909037 
L 435.93732 340.171888 
L 440.991509 337.434738 
L 446.045697 334.697589 
L 451.099885 331.96044 
L 456.154073 329.22329 
L 461.208262 326.486141 
L 466.26245 323.748991 
L 471.316638 321.011842 
L 476.370827 318.282589 
L 481.425015 315.559401 
L 486.479203 312.836214 
L 491.533391 310.113026 
L 496.58758 307.389839 
L 501.641768 304.666651 
L 506.695956 301.942821 
L 511.750145 299.218956 
L 516.804333 296.495091 
L 521.858521 293.771226 
L 526.912709 291.047361 
L 531.966898 288.323496 
L 537.021086 285.599631 
L 542.075274 282.875766 
L 547.129463 280.150092 
L 552.183651 277.40528 
L 557.237839 274.665843 
L 562.292027 271.941271 
L 567.346216 269.216699 
L 572.400404 266.492128 
L 577.454592 263.767556 
L 582.508781 261.042985 
L 587.562969 258.318413 
L 592.617157 255.593841 
L 597.671345 252.86927 
L 602.725534 250.144698 
L 607.779722 247.420126 
L 612.83391 244.695555 
L 617.888099 241.970983 
L 617.888099 161.431229 
L 617.888099 161.431229 
L 612.83391 165.741785 
L 607.779722 170.009204 
L 602.725534 174.278324 
L 597.671345 178.600476 
L 592.617157 182.870211 
L 587.562969 187.117327 
L 582.508781 191.299691 
L 577.454592 195.583305 
L 572.400404 199.65566 
L 567.346216 203.968 
L 562.292027 208.259148 
L 557.237839 212.461058 
L 552.183651 216.478751 
L 547.129463 220.615336 
L 542.075274 224.777065 
L 537.021086 228.830039 
L 531.966898 232.817701 
L 526.912709 236.734599 
L 521.858521 240.424576 
L 516.804333 244.113568 
L 511.750145 247.80453 
L 506.695956 251.491922 
L 501.641768 255.17694 
L 496.58758 258.83458 
L 491.533391 262.433471 
L 486.479203 266.032363 
L 481.425015 269.631254 
L 476.370827 273.230145 
L 471.316638 276.829037 
L 466.26245 280.427928 
L 461.208262 284.009115 
L 456.154073 287.58176 
L 451.099885 291.154404 
L 446.045697 294.727049 
L 440.991509 298.298856 
L 435.93732 301.868817 
L 430.883132 305.492184 
L 425.828944 309.066938 
L 420.774755 312.706948 
L 415.720567 316.225272 
L 410.666379 319.825382 
L 405.612191 323.361358 
L 400.558002 326.887905 
L 395.503814 330.415675 
L 390.449626 333.945238 
L 385.395437 337.40846 
L 380.341249 340.977969 
L 375.287061 344.505037 
L 370.232873 348.024388 
L 365.178684 351.59382 
L 360.124496 355.123413 
L 355.070308 358.653374 
L 350.016119 362.195099 
L 344.961931 365.791715 
L 339.907743 369.388331 
L 334.853555 372.984947 
L 329.799366 376.581563 
L 324.745178 380.110734 
L 319.69099 383.543295 
L 314.636801 386.975857 
L 309.582613 390.423183 
L 304.528425 393.836821 
L 299.474237 397.292384 
L 294.420048 400.810953 
L 289.36586 404.330073 
L 284.311672 407.849193 
L 279.257483 411.368313 
L 274.203295 414.887432 
L 269.149107 418.406552 
L 264.094919 421.925672 
L 259.04073 425.444792 
L 253.986542 428.963911 
L 248.932354 432.483031 
L 243.878165 435.940859 
L 238.823977 439.405435 
L 233.769789 442.793399 
L 228.715601 446.298724 
L 223.661412 449.715727 
L 218.607224 453.133729 
L 213.553036 456.531535 
L 208.498847 459.966737 
L 203.444659 463.215232 
L 198.390471 466.303423 
L 193.336283 469.244769 
L 188.282094 472.257118 
L 183.227906 475.183183 
L 178.173718 478.014413 
L 173.119529 480.813849 
L 168.065341 483.742293 
L 163.011153 486.530265 
L 157.956965 489.333504 
L 152.902776 492.096794 
L 147.848588 494.866543 
L 142.7944 497.628086 
L 137.740211 500.37839 
L 132.686023 503.152624 
L 127.631835 505.925047 
L 122.577647 508.691828 
L 117.523458 511.44453 
z
" clip-path="url(#p45cf54e3f9)" style="fill-opacity: 0.15"/>
   </g>
   <g id="matplotlib.axis_1">
    <g id="xtick_1">
     <g id="line2d_1">
      <defs>
       <path id="m531694b9ae" d="M 0 0 
L 0 3.5 
" style="stroke: #000000; stroke-width: 0.8"/>
      </defs>
      <g>
       <use xlink:href="#m531694b9ae" x="124.875" y="630" style="stroke: #000000; stroke-width: 0.8"/>
      </g>
     </g>
     <g id="text_1">
      <!-- −0.6 -->
      <g transform="translate(112.733594 644.598438)scale(0.1 -0.1)">
       <defs>
        <path id="DejaVuSans-2212" d="M 678 2272 
L 4684 2272 
L 4684 1741 
L 678 1741 
L 678 2272 
z
" transform="scale(0.015625)"/>
        <path id="DejaVuSans-30" d="M 2034 4250 
Q 1547 4250 1301 3770 
Q 1056 3291 1056 2328 
Q 1056 1369 1301 889 
Q 1547 409 2034 409 
Q 2525 409 2770 889 
Q 3016 1369 3016 2328 
Q 3016 3291 2770 3770 
Q 2525 4250 2034 4250 
z
M 2034 4750 
Q 2819 4750 3233 4129 
Q 3647 3509 3647 2328 
Q 3647 1150 3233 529 
Q 2819 -91 2034 -91 
Q 1250 -91 836 529 
Q 422 1150 422 2328 
Q 422 3509 836 4129 
Q 1250 4750 2034 4750 
z
" transform="scale(0.015625)"/>
        <path id="DejaVuSans-2e" d="M 684 794 
L 1344 794 
L 1344 0 
L 684 0 
L 684 794 
z
" transform="scale(0.015625)"/>
        <path id="DejaVuSans-36" d="M 2113 2584 
Q 1688 2584 1439 2293 
Q 1191 2003 1191 1497 
Q 1191 994 1439 701 
Q 1688 409 2113 409 
Q 2538 409 2786 701 
Q 3034 994 3034 1497 
Q 3034 2003 2786 2293 
Q 2538 2584 2113 2584 
z
M 3366 4563 
L 3366 3988 
Q 3128 4100 2886 4159 
Q 2644 4219 2406 4219 
Q 1781 4219 1451 3797 
Q 1122 3375 1075 2522 
Q 1259 2794 1537 2939 
Q 1816 3084 2150 3084 
Q 2853 3084 3261 2657 
Q 3669 2231 3669 1497 
Q 3669 778 3244 343 
Q 2819 -91 2113 -91 
Q 1303 -91 875 529 
Q 447 1150 447 2328 
Q 447 3434 972 4092 
Q 1497 4750 2381 4750 
Q 2619 4750 2861 4703 
Q 3103 4656 3366 4563 
z
" transform="scale(0.015625)"/>
       </defs>
       <use xlink:href="#DejaVuSans-2212"/>
       <use xlink:href="#DejaVuSans-30" x="83.789062"/>
       <use xlink:href="#DejaVuSans-2e" x="147.412109"/>
       <use xlink:href="#DejaVuSans-36" x="179.199219"/>
      </g>
     </g>
    </g>
    <g id="xtick_2">
     <g id="line2d_2">
      <g>
       <use xlink:href="#m531694b9ae" x="194.625" y="630" style="stroke: #000000; stroke-width: 0.8"/>
      </g>
     </g>
     <g id="text_2">
      <!-- −0.4 -->
      <g transform="translate(182.483594 644.598438)scale(0.1 -0.1)">
       <defs>
        <path id="DejaVuSans-34" d="M 2419 4116 
L 825 1625 
L 2419 1625 
L 2419 4116 
z
M 2253 4666 
L 3047 4666 
L 3047 1625 
L 3713 1625 
L 3713 1100 
L 3047 1100 
L 3047 0 
L 2419 0 
L 2419 1100 
L 313 1100 
L 313 1709 
L 2253 4666 
z
" transform="scale(0.015625)"/>
       </defs>
       <use xlink:href="#DejaVuSans-2212"/>
       <use xlink:href="#DejaVuSans-30" x="83.789062"/>
       <use xlink:href="#DejaVuSans-2e" x="147.412109"/>
       <use xlink:href="#DejaVuSans-34" x="179.199219"/>
      </g>
     </g>
    </g>
    <g id="xtick_3">
     <g id="line2d_3">
      <g>
       <use xlink:href="#m531694b9ae" x="264.375" y="630" style="stroke: #000000; stroke-width: 0.8"/>
      </g>
     </g>
     <g id="text_3">
      <!-- −0.2 -->
      <g transform="translate(252.233594 644.598438)scale(0.1 -0.1)">
       <defs>
        <path id="DejaVuSans-32" d="M 1228 531 
L 3431 531 
L 3431 0 
L 469 0 
L 469 531 
Q 828 903 1448 1529 
Q 2069 2156 2228 2338 
Q 2531 2678 2651 2914 
Q 2772 3150 2772 3378 
Q 2772 3750 2511 3984 
Q 2250 4219 1831 4219 
Q 1534 4219 1204 4116 
Q 875 4013 500 3803 
L 500 4441 
Q 881 4594 1212 4672 
Q 1544 4750 1819 4750 
Q 2544 4750 2975 4387 
Q 3406 4025 3406 3419 
Q 3406 3131 3298 2873 
Q 3191 2616 2906 2266 
Q 2828 2175 2409 1742 
Q 1991 1309 1228 531 
z
" transform="scale(0.015625)"/>
       </defs>
       <use xlink:href="#DejaVuSans-2212"/>
       <use xlink:href="#DejaVuSans-30" x="83.789062"/>
       <use xlink:href="#DejaVuSans-2e" x="147.412109"/>
       <use xlink:href="#DejaVuSans-32" x="179.199219"/>
      </g>
     </g>
    </g>
    <g id="xtick_4">
     <g id="line2d_4">
      <g>
       <use xlink:href="#m531694b9ae" x="334.125" y="630" style="stroke: #000000; stroke-width: 0.8"/>
      </g>
     </g>
     <g id="text_4">
      <!-- 0.0 -->
      <g transform="translate(326.173437 644.598438)scale(0.1 -0.1)">
       <use xlink:href="#DejaVuSans-30"/>
       <use xlink:href="#DejaVuSans-2e" x="63.623047"/>
       <use xlink:href="#DejaVuSans-30" x="95.410156"/>
      </g>
     </g>
    </g>
    <g id="xtick_5">
     <g id="line2d_5">
      <g>
       <use xlink:href="#m531694b9ae" x="403.875" y="630" style="stroke: #000000; stroke-width: 0.8"/>
      </g>
     </g>
     <g id="text_5">
      <!-- 0.2 -->
      <g transform="translate(395.923437 644.598438)scale(0.1 -0.1)">
       <use xlink:href="#DejaVuSans-30"/>
       <use xlink:href="#DejaVuSans-2e" x="63.623047"/>
       <use xlink:href="#DejaVuSans-32" x="95.410156"/>
      </g>
     </g>
    </g>
    <g id="xtick_6">
     <g id="line2d_6">
      <g>
       <use xlink:href="#m531694b9ae" x="473.625" y="630" style="stroke: #000000; stroke-width: 0.8"/>
      </g>
     </g>
     <g id="text_6">
      <!-- 0.4 -->
      <g transform="translate(465.673438 644.598438)scale(0.1 -0.1)">
       <use xlink:href="#DejaVuSans-30"/>
       <use xlink:href="#DejaVuSans-2e" x="63.623047"/>
       <use xlink:href="#DejaVuSans-34" x="95.410156"/>
      </g>
     </g>
    </g>
    <g id="xtick_7">
     <g id="line2d_7">
      <g>
       <use xlink:href="#m531694b9ae" x="543.375" y="630" style="stroke: #000000; stroke-width: 0.8"/>
      </g>
     </g>
     <g id="text_7">
      <!-- 0.6 -->
      <g transform="translate(535.423437 644.598438)scale(0.1 -0.1)">
       <use xlink:href="#DejaVuSans-30"/>
       <use xlink:href="#DejaVuSans-2e" x="63.623047"/>
       <use xlink:href="#DejaVuSans-36" x="95.410156"/>
      </g>
     </g>
    </g>
    <g id="xtick_8">
     <g id="line2d_8">
      <g>
       <use xlink:href="#m531694b9ae" x="613.125" y="630" style="stroke: #000000; stroke-width: 0.8"/>
      </g>
     </g>
     <g id="text_8">
      <!-- 0.8 -->
      <g transform="translate(605.173437 644.598438)scale(0.1 -0.1)">
       <defs>
        <path id="DejaVuSans-38" d="M 2034 2216 
Q 1584 2216 1326 1975 
Q 1069 1734 1069 1313 
Q 1069 891 1326 650 
Q 1584 409 2034 409 
Q 2484 409 2743 651 
Q 3003 894 3003 1313 
Q 3003 1734 2745 1975 
Q 2488 2216 2034 2216 
z
M 1403 2484 
Q 997 2584 770 2862 
Q 544 3141 544 3541 
Q 544 4100 942 4425 
Q 1341 4750 2034 4750 
Q 2731 4750 3128 4425 
Q 3525 4100 3525 3541 
Q 3525 3141 3298 2862 
Q 3072 2584 2669 2484 
Q 3125 2378 3379 2068 
Q 3634 1759 3634 1313 
Q 3634 634 3220 271 
Q 2806 -91 2034 -91 
Q 1263 -91 848 271 
Q 434 634 434 1313 
Q 434 1759 690 2068 
Q 947 2378 1403 2484 
z
M 1172 3481 
Q 1172 3119 1398 2916 
Q 1625 2713 2034 2713 
Q 2441 2713 2670 2916 
Q 2900 3119 2900 3481 
Q 2900 3844 2670 4047 
Q 2441 4250 2034 4250 
Q 1625 4250 1398 4047 
Q 1172 3844 1172 3481 
z
" transform="scale(0.015625)"/>
       </defs>
       <use xlink:href="#DejaVuSans-30"/>
       <use xlink:href="#DejaVuSans-2e" x="63.623047"/>
       <use xlink:href="#DejaVuSans-38" x="95.410156"/>
      </g>
     </g>
    </g>
    <g id="text_9">
     <!-- MITF -->
     <g transform="translate(357.28125 658.276562)scale(0.1 -0.1)">
      <defs>
       <path id="DejaVuSans-4d" d="M 628 4666 
L 1569 4666 
L 2759 1491 
L 3956 4666 
L 4897 4666 
L 4897 0 
L 4281 0 
L 4281 4097 
L 3078 897 
L 2444 897 
L 1241 4097 
L 1241 0 
L 628 0 
L 628 4666 
z
" transform="scale(0.015625)"/>
       <path id="DejaVuSans-49" d="M 628 4666 
L 1259 4666 
L 1259 0 
L 628 0 
L 628 4666 
z
" transform="scale(0.015625)"/>
       <path id="DejaVuSans-54" d="M -19 4666 
L 3928 4666 
L 3928 4134 
L 2272 4134 
L 2272 0 
L 1638 0 
L 1638 4134 
L -19 4134 
L -19 4666 
z
" transform="scale(0.015625)"/>
       <path id="DejaVuSans-46" d="M 628 4666 
L 3309 4666 
L 3309 4134 
L 1259 4134 
L 1259 2759 
L 3109 2759 
L 3109 2228 
L 1259 2228 
L 1259 0 
L 628 0 
L 628 4666 
z
" transform="scale(0.015625)"/>
      </defs>
      <use xlink:href="#DejaVuSans-4d"/>
      <use xlink:href="#DejaVuSans-49" x="86.279297"/>
      <use xlink:href="#DejaVuSans-54" x="115.771484"/>
      <use xlink:href="#DejaVuSans-46" x="176.855469"/>
     </g>
    </g>
   </g>
   <g id="matplotlib.axis_2">
    <g id="ytick_1">
     <g id="line2d_9">
      <defs>
       <path id="mec88334e53" d="M 0 0 
L -3.5 0 
" style="stroke: #000000; stroke-width: 0.8"/>
      </defs>
      <g>
       <use xlink:href="#mec88334e53" x="90" y="596.025" style="stroke: #000000; stroke-width: 0.8"/>
      </g>
     </g>
     <g id="text_10">
      <!-- −0.6 -->
      <g transform="translate(58.717187 599.824219)scale(0.1 -0.1)">
       <use xlink:href="#DejaVuSans-2212"/>
       <use xlink:href="#DejaVuSans-30" x="83.789062"/>
       <use xlink:href="#DejaVuSans-2e" x="147.412109"/>
       <use xlink:href="#DejaVuSans-36" x="179.199219"/>
      </g>
     </g>
    </g>
    <g id="ytick_2">
     <g id="line2d_10">
      <g>
       <use xlink:href="#mec88334e53" x="90" y="528.075" style="stroke: #000000; stroke-width: 0.8"/>
      </g>
     </g>
     <g id="text_11">
      <!-- −0.4 -->
      <g transform="translate(58.717187 531.874219)scale(0.1 -0.1)">
       <use xlink:href="#DejaVuSans-2212"/>
       <use xlink:href="#DejaVuSans-30" x="83.789062"/>
       <use xlink:href="#DejaVuSans-2e" x="147.412109"/>
       <use xlink:href="#DejaVuSans-34" x="179.199219"/>
      </g>
     </g>
    </g>
    <g id="ytick_3">
     <g id="line2d_11">
      <g>
       <use xlink:href="#mec88334e53" x="90" y="460.125" style="stroke: #000000; stroke-width: 0.8"/>
      </g>
     </g>
     <g id="text_12">
      <!-- −0.2 -->
      <g transform="translate(58.717187 463.924219)scale(0.1 -0.1)">
       <use xlink:href="#DejaVuSans-2212"/>
       <use xlink:href="#DejaVuSans-30" x="83.789062"/>
       <use xlink:href="#DejaVuSans-2e" x="147.412109"/>
       <use xlink:href="#DejaVuSans-32" x="179.199219"/>
      </g>
     </g>
    </g>
    <g id="ytick_4">
     <g id="line2d_12">
      <g>
       <use xlink:href="#mec88334e53" x="90" y="392.175" style="stroke: #000000; stroke-width: 0.8"/>
      </g>
     </g>
     <g id="text_13">
      <!-- 0.0 -->
      <g transform="translate(67.096875 395.974219)scale(0.1 -0.1)">
       <use xlink:href="#DejaVuSans-30"/>
       <use xlink:href="#DejaVuSans-2e" x="63.623047"/>
       <use xlink:href="#DejaVuSans-30" x="95.410156"/>
      </g>
     </g>
    </g>
    <g id="ytick_5">
     <g id="line2d_13">
      <g>
       <use xlink:href="#mec88334e53" x="90" y="324.225" style="stroke: #000000; stroke-width: 0.8"/>
      </g>
     </g>
     <g id="text_14">
      <!-- 0.2 -->
      <g transform="translate(67.096875 328.024219)scale(0.1 -0.1)">
       <use xlink:href="#DejaVuSans-30"/>
       <use xlink:href="#DejaVuSans-2e" x="63.623047"/>
       <use xlink:href="#DejaVuSans-32" x="95.410156"/>
      </g>
     </g>
    </g>
    <g id="ytick_6">
     <g id="line2d_14">
      <g>
       <use xlink:href="#mec88334e53" x="90" y="256.275" style="stroke: #000000; stroke-width: 0.8"/>
      </g>
     </g>
     <g id="text_15">
      <!-- 0.4 -->
      <g transform="translate(67.096875 260.074219)scale(0.1 -0.1)">
       <use xlink:href="#DejaVuSans-30"/>
       <use xlink:href="#DejaVuSans-2e" x="63.623047"/>
       <use xlink:href="#DejaVuSans-34" x="95.410156"/>
      </g>
     </g>
    </g>
    <g id="ytick_7">
     <g id="line2d_15">
      <g>
       <use xlink:href="#mec88334e53" x="90" y="188.325" style="stroke: #000000; stroke-width: 0.8"/>
      </g>
     </g>
     <g id="text_16">
      <!-- 0.6 -->
      <g transform="translate(67.096875 192.124219)scale(0.1 -0.1)">
       <use xlink:href="#DejaVuSans-30"/>
       <use xlink:href="#DejaVuSans-2e" x="63.623047"/>
       <use xlink:href="#DejaVuSans-36" x="95.410156"/>
      </g>
     </g>
    </g>
    <g id="ytick_8">
     <g id="line2d_16">
      <g>
       <use xlink:href="#mec88334e53" x="90" y="120.375" style="stroke: #000000; stroke-width: 0.8"/>
      </g>
     </g>
     <g id="text_17">
      <!-- 0.8 -->
      <g transform="translate(67.096875 124.174219)scale(0.1 -0.1)">
       <use xlink:href="#DejaVuSans-30"/>
       <use xlink:href="#DejaVuSans-2e" x="63.623047"/>
       <use xlink:href="#DejaVuSans-38" x="95.410156"/>
      </g>
     </g>
    </g>
    <g id="text_18">
     <!-- MYC -->
     <g transform="translate(52.6375 368.784375)rotate(-90)scale(0.1 -0.1)">
      <defs>
       <path id="DejaVuSans-59" d="M -13 4666 
L 666 4666 
L 1959 2747 
L 3244 4666 
L 3922 4666 
L 2272 2222 
L 2272 0 
L 1638 0 
L 1638 2222 
L -13 4666 
z
" transform="scale(0.015625)"/>
       <path id="DejaVuSans-43" d="M 4122 4306 
L 4122 3641 
Q 3803 3938 3442 4084 
Q 3081 4231 2675 4231 
Q 1875 4231 1450 3742 
Q 1025 3253 1025 2328 
Q 1025 1406 1450 917 
Q 1875 428 2675 428 
Q 3081 428 3442 575 
Q 3803 722 4122 1019 
L 4122 359 
Q 3791 134 3420 21 
Q 3050 -91 2638 -91 
Q 1578 -91 968 557 
Q 359 1206 359 2328 
Q 359 3453 968 4101 
Q 1578 4750 2638 4750 
Q 3056 4750 3426 4639 
Q 3797 4528 4122 4306 
z
" transform="scale(0.015625)"/>
      </defs>
      <use xlink:href="#DejaVuSans-4d"/>
      <use xlink:href="#DejaVuSans-59" x="86.279297"/>
      <use xlink:href="#DejaVuSans-43" x="141.863281"/>
     </g>
    </g>
   </g>
   <g id="line2d_17">
    <path d="M 117.523458 536.393716 
L 122.577647 532.836129 
L 127.631835 529.278542 
L 132.686023 525.720955 
L 137.740211 522.163368 
L 142.7944 518.605781 
L 147.848588 515.048194 
L 152.902776 511.490607 
L 157.956965 507.93302 
L 163.011153 504.375433 
L 168.065341 500.817846 
L 173.119529 497.260259 
L 178.173718 493.702672 
L 183.227906 490.145085 
L 188.282094 486.587498 
L 193.336283 483.029911 
L 198.390471 479.472324 
L 203.444659 475.914737 
L 208.498847 472.35715 
L 213.553036 468.799563 
L 218.607224 465.241976 
L 223.661412 461.684389 
L 228.715601 458.126802 
L 233.769789 454.569215 
L 238.823977 451.011628 
L 243.878165 447.454041 
L 248.932354 443.896454 
L 253.986542 440.338867 
L 259.04073 436.78128 
L 264.094919 433.223693 
L 269.149107 429.666106 
L 274.203295 426.108519 
L 279.257483 422.550932 
L 284.311672 418.993345 
L 289.36586 415.435758 
L 294.420048 411.878171 
L 299.474237 408.320584 
L 304.528425 404.762997 
L 309.582613 401.20541 
L 314.636801 397.647823 
L 319.69099 394.090236 
L 324.745178 390.532649 
L 329.799366 386.975062 
L 334.853555 383.417475 
L 339.907743 379.859888 
L 344.961931 376.302301 
L 350.016119 372.744714 
L 355.070308 369.187127 
L 360.124496 365.62954 
L 365.178684 362.071954 
L 370.232873 358.514367 
L 375.287061 354.95678 
L 380.341249 351.399193 
L 385.395437 347.841606 
L 390.449626 344.284019 
L 395.503814 340.726432 
L 400.558002 337.168845 
L 405.612191 333.611258 
L 410.666379 330.053671 
L 415.720567 326.496084 
L 420.774755 322.938497 
L 425.828944 319.38091 
L 430.883132 315.823323 
L 435.93732 312.265736 
L 440.991509 308.708149 
L 446.045697 305.150562 
L 451.099885 301.592975 
L 456.154073 298.035388 
L 461.208262 294.477801 
L 466.26245 290.920214 
L 471.316638 287.362627 
L 476.370827 283.80504 
L 481.425015 280.247453 
L 486.479203 276.689866 
L 491.533391 273.132279 
L 496.58758 269.574692 
L 501.641768 266.017105 
L 506.695956 262.459518 
L 511.750145 258.901931 
L 516.804333 255.344344 
L 521.858521 251.786757 
L 526.912709 248.22917 
L 531.966898 244.671583 
L 537.021086 241.113996 
L 542.075274 237.556409 
L 547.129463 233.998822 
L 552.183651 230.441235 
L 557.237839 226.883648 
L 562.292027 223.326061 
L 567.346216 219.768474 
L 572.400404 216.210887 
L 577.454592 212.6533 
L 582.508781 209.095713 
L 587.562969 205.538126 
L 592.617157 201.980539 
L 597.671345 198.422952 
L 602.725534 194.865365 
L 607.779722 191.307778 
L 612.83391 187.750191 
L 617.888099 184.192604 
" clip-path="url(#p45cf54e3f9)" style="fill: none; stroke: #000000; stroke-width: 2.25; stroke-linecap: square"/>
   </g>
   <g id="patch_3">
    <path d="M 90 630 
L 90 86.4 
" style="fill: none; stroke: #000000; stroke-width: 0.8; stroke-linejoin: miter; stroke-linecap: square"/>
   </g>
   <g id="patch_4">
    <path d="M 648 630 
L 648 86.4 
" style="fill: none; stroke: #000000; stroke-width: 0.8; stroke-linejoin: miter; stroke-linecap: square"/>
   </g>
   <g id="patch_5">
    <path d="M 90 630 
L 648 630 
" style="fill: none; stroke: #000000; stroke-width: 0.8; stroke-linejoin: miter; stroke-linecap: square"/>
   </g>
   <g id="patch_6">
    <path d="M 90 86.4 
L 648 86.4 
" style="fill: none; stroke: #000000; stroke-width: 0.8; stroke-linejoin: miter; stroke-linecap: square"/>
   </g>
  </g>
 </g>
 <defs>
  <clipPath id="p45cf54e3f9">
   <rect x="90" y="86.4" width="558" height="543.6"/>
  </clipPath>
 </defs>
</svg>
