<svg version="1.1" xmlns="http://www.w3.org/2000/svg" width="400" height="200"><defs><clipPath id="VrvWmLGqAkQn"><path fill="none" stroke="none" d="M 6.5 5.5 L 395.5 5.5 L 395.5 194.5 L 6.5 194.5 L 6.5 5.5"/></clipPath><clipPath id="nVtIFalPJuyx"><path fill="none" stroke="none" d="M 6.5 5.5 L 395.5 5.5 L 395.5 194.5 L 6.5 194.5 L 6.5 5.5"/></clipPath><clipPath id="ODiTaglFpgLE"><path fill="none" stroke="none" d="M 6.5 5.5 L 395.5 5.5 L 395.5 194.5 L 6.5 194.5 L 6.5 5.5"/></clipPath></defs><path fill="rgb(255,255,255)" stroke="none" paint-order="stroke" d="M 0.5 0.5 L 400.5 0.5 L 400.5 200.5 L 0.5 200.5 L 0.5 0.5" fill-opacity="1"/><rect fill="#FFFFFF" stroke="none" x="6" y="5" width="389" height="189" transform="matrix(1, 0, 0, 1, 0.5, 0.5)"/><path fill="rgb(255,255,255)" stroke="none" paint-order="stroke" d="M 6.5 5.5 L 395.5 5.5 L 395.5 194.5 L 6.5 194.5 L 6.5 5.5" fill-opacity="1"/><path fill="none" stroke="rgb(0,0,0)" paint-order="fill" d="M 6.5 5.5 L 395.5 5.5 L 395.5 194.5 L 6.5 194.5 L 6.5 5.5" stroke-opacity="1" stroke-linejoin="bevel" stroke-miterlimit="10" stroke-dasharray=""/><path fill="rgb(141,176,254)" stroke="rgb(0,0,0)" paint-order="fill" d="M 25.201923370361328 175.81800842285156 L 47.644229888916016 175.81800842285156 L 47.644229888916016 194.5 L 25.201923370361328 194.5 L 25.201923370361328 175.81800842285156" fill-opacity="1" clip-path="url(#ODiTaglFpgLE)" stroke-opacity="1" stroke-linejoin="bevel" stroke-miterlimit="10" stroke-dasharray=""/><path fill="rgb(244,152,122)" stroke="rgb(0,0,0)" paint-order="fill" d="M 55.125 172.1360321044922 L 77.56730651855469 172.1360321044922 L 77.56730651855469 194.5 L 55.125 194.5 L 55.125 172.1360321044922" fill-opacity="1" clip-path="url(#ODiTaglFpgLE)" stroke-opacity="1" stroke-linejoin="bevel" stroke-miterlimit="10" stroke-dasharray=""/><path fill="rgb(141,176,254)" stroke="rgb(0,0,0)" paint-order="fill" d="M 85.04808044433594 191.494384765625 L 107.49038696289062 191.494384765625 L 107.49038696289062 194.5 L 85.04808044433594 194.5 L 85.04808044433594 191.494384765625" fill-opacity="1" clip-path="url(#ODiTaglFpgLE)" stroke-opacity="1" stroke-linejoin="bevel" stroke-miterlimit="10" stroke-dasharray=""/><path fill="rgb(141,176,254)" stroke="rgb(0,0,0)" paint-order="fill" d="M 114.97115325927734 190.53497314453125 L 137.41346740722656 190.53497314453125 L 137.41346740722656 194.5 L 114.97115325927734 194.5 L 114.97115325927734 190.53497314453125" fill-opacity="1" clip-path="url(#ODiTaglFpgLE)" stroke-opacity="1" stroke-linejoin="bevel" stroke-miterlimit="10" stroke-dasharray=""/><path fill="rgb(141,176,254)" stroke="rgb(0,0,0)" paint-order="fill" d="M 144.89422607421875 187.5550079345703 L 167.3365478515625 187.5550079345703 L 167.3365478515625 194.5 L 144.89422607421875 194.5 L 144.89422607421875 187.5550079345703" fill-opacity="1" clip-path="url(#ODiTaglFpgLE)" stroke-opacity="1" stroke-linejoin="bevel" stroke-miterlimit="10" stroke-dasharray=""/><path fill="rgb(244,152,122)" stroke="rgb(0,0,0)" paint-order="fill" d="M 174.8173065185547 102.19207000732422 L 197.25962829589844 102.19207000732422 L 197.25962829589844 194.5 L 174.8173065185547 194.5 L 174.8173065185547 102.19207000732422" fill-opacity="1" clip-path="url(#ODiTaglFpgLE)" stroke-opacity="1" stroke-linejoin="bevel" stroke-miterlimit="10" stroke-dasharray=""/><path fill="rgb(141,176,254)" stroke="rgb(0,0,0)" paint-order="fill" d="M 204.74037170410156 112.24910736083984 L 227.1826934814453 112.24910736083984 L 227.1826934814453 194.5 L 204.74037170410156 194.5 L 204.74037170410156 112.24910736083984" fill-opacity="1" clip-path="url(#ODiTaglFpgLE)" stroke-opacity="1" stroke-linejoin="bevel" stroke-miterlimit="10" stroke-dasharray=""/><path fill="rgb(244,152,122)" stroke="rgb(0,0,0)" paint-order="fill" d="M 234.6634521484375 157.2848663330078 L 257.10577392578125 157.2848663330078 L 257.10577392578125 194.5 L 234.6634521484375 194.5 L 234.6634521484375 157.2848663330078" fill-opacity="1" clip-path="url(#ODiTaglFpgLE)" stroke-opacity="1" stroke-linejoin="bevel" stroke-miterlimit="10" stroke-dasharray=""/><path fill="rgb(244,152,122)" stroke="rgb(0,0,0)" paint-order="fill" d="M 264.5865173339844 155.57582092285156 L 287.0288391113281 155.57582092285156 L 287.0288391113281 194.5 L 264.5865173339844 194.5 L 264.5865173339844 155.57582092285156" fill-opacity="1" clip-path="url(#ODiTaglFpgLE)" stroke-opacity="1" stroke-linejoin="bevel" stroke-miterlimit="10" stroke-dasharray=""/><path fill="rgb(141,176,254)" stroke="rgb(0,0,0)" paint-order="fill" d="M 294.5096130371094 192.23780822753906 L 316.9519348144531 192.23780822753906 L 316.9519348144531 194.5 L 294.5096130371094 194.5 L 294.5096130371094 192.23780822753906" fill-opacity="1" clip-path="url(#ODiTaglFpgLE)" stroke-opacity="1" stroke-linejoin="bevel" stroke-miterlimit="10" stroke-dasharray=""/><path fill="rgb(141,176,254)" stroke="rgb(0,0,0)" paint-order="fill" d="M 324.43267822265625 189.5928192138672 L 346.875 189.5928192138672 L 346.875 194.5 L 324.43267822265625 194.5 L 324.43267822265625 189.5928192138672" fill-opacity="1" clip-path="url(#ODiTaglFpgLE)" stroke-opacity="1" stroke-linejoin="bevel" stroke-miterlimit="10" stroke-dasharray=""/><path fill="rgb(244,152,122)" stroke="rgb(0,0,0)" paint-order="fill" d="M 354.35577392578125 161.0532684326172 L 376.798095703125 161.0532684326172 L 376.798095703125 194.5 L 354.35577392578125 194.5 L 354.35577392578125 161.0532684326172" fill-opacity="1" clip-path="url(#ODiTaglFpgLE)" stroke-opacity="1" stroke-linejoin="bevel" stroke-miterlimit="10" stroke-dasharray=""/><path fill="none" stroke="rgb(0,0,0)" paint-order="fill" d="M 6.5 194.5 L 395.5 194.5" stroke-opacity="1" stroke-linejoin="bevel" stroke-miterlimit="10" stroke-dasharray=""/><path fill="none" stroke="rgb(0,0,0)" paint-order="fill" d="M 6.5 194.5 L 6.5 5.5" stroke-opacity="1" stroke-linejoin="bevel" stroke-miterlimit="10" stroke-dasharray=""/><path fill="none" stroke="rgb(0,0,0)" paint-order="fill" d="" stroke-opacity="1" stroke-linejoin="bevel" stroke-miterlimit="10" stroke-dasharray=""/></svg>