<svg version="1.1" xmlns="http://www.w3.org/2000/svg" width="400" height="200"><defs><clipPath id="ETvHopDBMTpr"><path fill="none" stroke="none" d="M 6.5 5.5 L 395.5 5.5 L 395.5 194.5 L 6.5 194.5 L 6.5 5.5"/></clipPath><clipPath id="PuoUqSTdqBRg"><path fill="none" stroke="none" d="M 6.5 5.5 L 395.5 5.5 L 395.5 194.5 L 6.5 194.5 L 6.5 5.5"/></clipPath><clipPath id="KBfPeuoZrDaH"><path fill="none" stroke="none" d="M 6.5 5.5 L 395.5 5.5 L 395.5 194.5 L 6.5 194.5 L 6.5 5.5"/></clipPath></defs><path fill="rgb(255,255,255)" stroke="none" paint-order="stroke" d="M 0.5 0.5 L 400.5 0.5 L 400.5 200.5 L 0.5 200.5 L 0.5 0.5" fill-opacity="1"/><rect fill="#FFFFFF" stroke="none" x="6" y="5" width="389" height="189" transform="matrix(1, 0, 0, 1, 0.5, 0.5)"/><path fill="rgb(255,255,255)" stroke="none" paint-order="stroke" d="M 6.5 5.5 L 395.5 5.5 L 395.5 194.5 L 6.5 194.5 L 6.5 5.5" fill-opacity="1"/><path fill="none" stroke="rgb(0,0,0)" paint-order="fill" d="M 6.5 5.5 L 395.5 5.5 L 395.5 194.5 L 6.5 194.5 L 6.5 5.5" stroke-opacity="1" stroke-linejoin="bevel" stroke-miterlimit="10" stroke-dasharray=""/><path fill="rgb(244,152,122)" stroke="rgb(0,0,0)" paint-order="fill" d="M 23.866069793701172 189.76397705078125 L 44.70535659790039 189.76397705078125 L 44.70535659790039 194.5 L 23.866069793701172 194.5 L 23.866069793701172 189.76397705078125" fill-opacity="1" clip-path="url(#KBfPeuoZrDaH)" stroke-opacity="1" stroke-linejoin="bevel" stroke-miterlimit="10" stroke-dasharray=""/><path fill="rgb(244,152,122)" stroke="rgb(0,0,0)" paint-order="fill" d="M 51.65178680419922 184.19546508789062 L 72.49107360839844 184.19546508789062 L 72.49107360839844 194.5 L 51.65178680419922 194.5 L 51.65178680419922 184.19546508789062" fill-opacity="1" clip-path="url(#KBfPeuoZrDaH)" stroke-opacity="1" stroke-linejoin="bevel" stroke-miterlimit="10" stroke-dasharray=""/><path fill="rgb(244,152,122)" stroke="rgb(0,0,0)" paint-order="fill" d="M 79.4375 116.53197479248047 L 100.27677917480469 116.53197479248047 L 100.27677917480469 194.5 L 79.4375 194.5 L 79.4375 116.53197479248047" fill-opacity="1" clip-path="url(#KBfPeuoZrDaH)" stroke-opacity="1" stroke-linejoin="bevel" stroke-miterlimit="10" stroke-dasharray=""/><path fill="rgb(244,152,122)" stroke="rgb(0,0,0)" paint-order="fill" d="M 107.22322082519531 134.375732421875 L 128.0625 134.375732421875 L 128.0625 194.5 L 107.22322082519531 194.5 L 107.22322082519531 134.375732421875" fill-opacity="1" clip-path="url(#KBfPeuoZrDaH)" stroke-opacity="1" stroke-linejoin="bevel" stroke-miterlimit="10" stroke-dasharray=""/><path fill="rgb(244,152,122)" stroke="rgb(0,0,0)" paint-order="fill" d="M 135.00892639160156 141.968017578125 L 155.8482208251953 141.968017578125 L 155.8482208251953 194.5 L 135.00892639160156 194.5 L 135.00892639160156 141.968017578125" fill-opacity="1" clip-path="url(#KBfPeuoZrDaH)" stroke-opacity="1" stroke-linejoin="bevel" stroke-miterlimit="10" stroke-dasharray=""/><path fill="rgb(244,152,122)" stroke="rgb(0,0,0)" paint-order="fill" d="M 162.7946319580078 164.4501495361328 L 183.63392639160156 164.4501495361328 L 183.63392639160156 194.5 L 162.7946319580078 194.5 L 162.7946319580078 164.4501495361328" fill-opacity="1" clip-path="url(#KBfPeuoZrDaH)" stroke-opacity="1" stroke-linejoin="bevel" stroke-miterlimit="10" stroke-dasharray=""/><path fill="rgb(244,152,122)" stroke="rgb(0,0,0)" paint-order="fill" d="M 190.58035278320312 168.53282165527344 L 211.41964721679688 168.53282165527344 L 211.41964721679688 194.5 L 190.58035278320312 194.5 L 190.58035278320312 168.53282165527344" fill-opacity="1" clip-path="url(#KBfPeuoZrDaH)" stroke-opacity="1" stroke-linejoin="bevel" stroke-miterlimit="10" stroke-dasharray=""/><path fill="rgb(244,152,122)" stroke="rgb(0,0,0)" paint-order="fill" d="M 218.36607360839844 192.45166015625 L 239.2053680419922 192.45166015625 L 239.2053680419922 194.5 L 218.36607360839844 194.5 L 218.36607360839844 192.45166015625" fill-opacity="1" clip-path="url(#KBfPeuoZrDaH)" stroke-opacity="1" stroke-linejoin="bevel" stroke-miterlimit="10" stroke-dasharray=""/><path fill="rgb(244,152,122)" stroke="rgb(0,0,0)" paint-order="fill" d="M 246.15179443359375 165.0439453125 L 266.9910888671875 165.0439453125 L 266.9910888671875 194.5 L 246.15179443359375 194.5 L 246.15179443359375 165.0439453125" fill-opacity="1" clip-path="url(#KBfPeuoZrDaH)" stroke-opacity="1" stroke-linejoin="bevel" stroke-miterlimit="10" stroke-dasharray=""/><path fill="rgb(244,152,122)" stroke="rgb(0,0,0)" paint-order="fill" d="M 273.9375 187.25946044921875 L 294.77679443359375 187.25946044921875 L 294.77679443359375 194.5 L 273.9375 194.5 L 273.9375 187.25946044921875" fill-opacity="1" clip-path="url(#KBfPeuoZrDaH)" stroke-opacity="1" stroke-linejoin="bevel" stroke-miterlimit="10" stroke-dasharray=""/><path fill="rgb(141,176,254)" stroke="rgb(0,0,0)" paint-order="fill" d="M 301.72320556640625 191.63815307617188 L 322.5625 191.63815307617188 L 322.5625 194.5 L 301.72320556640625 194.5 L 301.72320556640625 191.63815307617188" fill-opacity="1" clip-path="url(#KBfPeuoZrDaH)" stroke-opacity="1" stroke-linejoin="bevel" stroke-miterlimit="10" stroke-dasharray=""/><path fill="rgb(244,152,122)" stroke="rgb(0,0,0)" paint-order="fill" d="M 329.5089111328125 191.2086181640625 L 350.34820556640625 191.2086181640625 L 350.34820556640625 194.5 L 329.5089111328125 194.5 L 329.5089111328125 191.2086181640625" fill-opacity="1" clip-path="url(#KBfPeuoZrDaH)" stroke-opacity="1" stroke-linejoin="bevel" stroke-miterlimit="10" stroke-dasharray=""/><path fill="rgb(244,152,122)" stroke="rgb(0,0,0)" paint-order="fill" d="M 357.2946472167969 190.51644897460938 L 378.1339416503906 190.51644897460938 L 378.1339416503906 194.5 L 357.2946472167969 194.5 L 357.2946472167969 190.51644897460938" fill-opacity="1" clip-path="url(#KBfPeuoZrDaH)" stroke-opacity="1" stroke-linejoin="bevel" stroke-miterlimit="10" stroke-dasharray=""/><path fill="none" stroke="rgb(0,0,0)" paint-order="fill" d="M 6.5 194.5 L 395.5 194.5" stroke-opacity="1" stroke-linejoin="bevel" stroke-miterlimit="10" stroke-dasharray=""/><path fill="none" stroke="rgb(0,0,0)" paint-order="fill" d="M 6.5 194.5 L 6.5 5.5" stroke-opacity="1" stroke-linejoin="bevel" stroke-miterlimit="10" stroke-dasharray=""/><path fill="none" stroke="rgb(0,0,0)" paint-order="fill" d="" stroke-opacity="1" stroke-linejoin="bevel" stroke-miterlimit="10" stroke-dasharray=""/></svg>